<?xml version="1.0" encoding="utf-8"?>
<!-- Generator: Adobe Illustrator 23.0.1, SVG Export Plug-In . SVG Version: 6.00 Build 0)  -->
<svg version="1.1" id="Layer_1" xmlns="http://www.w3.org/2000/svg" xmlns:xlink="http://www.w3.org/1999/xlink" x="0px" y="0px"
	 viewBox="0 0 484 876" style="enable-background:new 0 0 484 876;" xml:space="preserve">
<style type="text/css">
	.st0{fill:url(#SVGID_1_);}
	.st1{fill:url(#SVGID_2_);}
	.st2{fill:#323938;}
	.st3{fill:#58402C;}
	.st4{opacity:0.3;}
	.st5{fill:#FFFFFF;}
	.st6{fill:#41C3C4;}
	.st7{opacity:0.2;fill:#1C1F23;}
	.st8{fill:#EF5A32;}
	.st9{fill:#FCBD92;}
	.st10{opacity:0.15;}
	.st11{fill:url(#SVGID_3_);}
	.st12{opacity:0.3;fill:#1C1F23;}
	.st13{fill:url(#SVGID_4_);}
	.st14{fill:url(#SVGID_5_);}
	.st15{fill:#73472C;}
	.st16{fill:#FBB040;}
	.st17{opacity:0.35;fill:#FFFFFF;}
	.st18{fill:#40525E;}
	.st19{fill:#1C1F23;}
	.st20{fill:#D6A17C;}
	.st21{opacity:0.2;fill:#FFFFFF;}
	.st22{fill:#443113;}
	.st23{clip-path:url(#SVGID_6_);}
	.st24{opacity:0.5;fill:#FFFFFF;}
	.st25{fill:#4E474B;}
	.st26{opacity:0.3;fill:#FFE6D2;}
	.st27{opacity:0.5;clip-path:url(#SVGID_7_);fill:#FFFFFF;}
	.st28{clip-path:url(#SVGID_7_);fill:#4E474B;}
	.st29{fill:#6D6E71;}
	.st30{fill:#58595B;}
	.st31{opacity:0.15;fill:#FFFFFF;}
	.st32{fill:#F7941E;}
	.st33{fill:#3C3C4E;}
	.st34{fill:#BABEC0;}
	.st35{fill:#FFE6D2;}
	.st36{fill:#F15A29;}
	.st37{opacity:0.5;}
	.st38{opacity:0.1;}
	.st39{opacity:0.3;fill:#41C3C4;}
	.st40{opacity:0.5;fill:#FFE6D2;}
	.st41{clip-path:url(#SVGID_8_);}
	.st42{fill:#535363;}
	.st43{fill:#BCBEC0;}
	.st44{fill:#D6D7D8;}
	.st45{opacity:0.2;}
</style>
<g>
	<linearGradient id="SVGID_1_" gradientUnits="userSpaceOnUse" x1="260.9832" y1="869.9836" x2="260.9832" y2="662.331">
		<stop  offset="0" style="stop-color:#323938"/>
		<stop  offset="1" style="stop-color:#40525E"/>
	</linearGradient>
	<path class="st0" d="M246.06,869.98c0-60.88,1.1-149.45-6.5-207.65h31.46c0,0,11.38,35.4,11.38,61.35
		c0,25.96-24.86,82.12-24.86,146.3H246.06z"/>
	<linearGradient id="SVGID_2_" gradientUnits="userSpaceOnUse" x1="393.3631" y1="869.9836" x2="393.3631" y2="662.331">
		<stop  offset="0" style="stop-color:#323938"/>
		<stop  offset="1" style="stop-color:#40525E"/>
	</linearGradient>
	<path class="st1" d="M418.69,869.98c-16.31-60.88-38.94-149.45-62.14-207.65h31.46c0,0,20.86,35.4,27.82,61.35
		c6.96,25.96-2.85,82.12,14.35,146.3H418.69z"/>
	<path class="st2" d="M368.64,347.55c2.81-6.84-12.74-28.32-58.05-32.09c-45.31-3.78-100.15,11.72-96.28,29.97
		c3.87,18.25,38.93,21.33,68.67,21.28C312.72,366.66,357.32,375.16,368.64,347.55z"/>
	<g>
		<g>
			<path class="st3" d="M225.42,459.01c0.81-9.78,29.83-11.72,65.27-8.79c35.43,2.94,62.56,9.61,63.05,19.42l0.51-15.36
				c0.81-9.78-27.75-16.49-63.35-19.44c-35.6-2.95-64.75-1.02-65.57,8.76L225.42,459.01z"/>
		</g>
		<g class="st4">
			<path class="st5" d="M228.12,443.27c0.67-8.08,28.54-9.35,62.62-6.53s61.48,8.68,60.81,16.76l2.7,0.78
				c0.81-9.78-27.75-16.49-63.35-19.44c-35.6-2.95-64.75-1.02-65.57,8.76L228.12,443.27z"/>
		</g>
	</g>
	<g>
		<path class="st6" d="M216.73,197.94c-37.07,0-90.48,127.86-90.48,127.86l50.46,19.62c0,0,23.13-41.77,40.02-41.77
			C244.86,303.66,249,197.94,216.73,197.94z"/>
		<path class="st7" d="M200.03,276.59c-3.76,18.89-22.28,41.75-22.28,41.75s5.32,13.82,0.81,18.44c-4.51,4.62-7.02,6.2-7.02,6.2
			l-6.75-0.78c-0.15,9.25-2.47,17.21-6.58,20.12c3.97,5.74,9.63,2.99,12.23,0c2.6-2.99,3.5-5.82,6.94-7.71
			c2.03-1.11,5.18-8.52,4.87-18.35c7.88-12.29,22.7-32.62,34.49-32.62c2.17,0,4.19-0.63,6.07-1.79
			C217.75,285.41,205.37,249.74,200.03,276.59z"/>
		
			<ellipse transform="matrix(0.9165 -0.4 0.4 0.9165 -121.6065 88.6171)" class="st8" cx="151.48" cy="335.62" rx="27.07" ry="27.07"/>
	</g>
	<g>
		
			<ellipse transform="matrix(0.3092 -0.951 0.951 0.3092 -214.5293 375.8964)" class="st9" cx="151.48" cy="335.62" rx="27.07" ry="27.07"/>
		<path class="st9" d="M137.15,358.58c30.43,18.98,59.95-26.41,28.65-45.93c-24.36-15.2-81.62-50.29-81.62-50.29l-7.49,12.01
			C76.69,274.37,110.66,342.06,137.15,358.58z"/>
		<path class="st10" d="M165.81,312.65c-6.59-4.11-15.61-9.69-25.23-15.63c2.73,3.25,5.83,6.16,8.29,9.65
			c4.38,6.22,7.34,15.06,3.43,22.29c-0.62,1.15-1.42,2.2-2.35,3.13c-2.79,2.77-6.76,4.36-10.64,3.81c-1.79-0.26-3.49-0.93-5.14-1.66
			c-16.5-7.27-29.13-23.25-40.5-36.86c-3.21-3.84-6.43-7.68-10.01-11.19c-0.45-0.44-0.92-0.86-1.4-1.27
			c10.72,19.69,34.92,61.2,54.89,73.66C167.58,377.57,197.1,332.17,165.81,312.65z"/>
	</g>
	<linearGradient id="SVGID_3_" gradientUnits="userSpaceOnUse" x1="258.7497" y1="662.331" x2="258.7497" y2="453.7344">
		<stop  offset="0" style="stop-color:#40525E"/>
		<stop  offset="1" style="stop-color:#323938"/>
	</linearGradient>
	<path class="st11" d="M293.05,507.54v-53.8H229.4c0,0-16.27,47.51,10.16,208.6h31.46C271.03,662.33,266.78,507.54,293.05,507.54z"
		/>
	<path class="st12" d="M263.22,665.63c0.42,0.27,0.81,0.56,1.22,0.84c0.05-0.02,0.11-0.03,0.16-0.06c0.48-0.24,0.96-0.48,1.44-0.72
		c0.08,0.74,0.19,1.47,0.3,2.2c0.72,0.57,1.42,1.15,2.09,1.76c-0.35-1.75-0.6-3.53-0.72-5.35c-0.05-0.71-0.73-1.1-1.37-0.78
		c-0.44,0.21-0.87,0.43-1.31,0.64c-0.43-29.14,0.12-58.3,1.93-87.39c0.91-14.59,2.15-29.15,3.62-43.69
		c0.12-1.21,0.33-2.41,0.52-3.61c0.1-0.63,0.21-1.18,0.12-1.82c-0.1-0.69-0.33-1.36-0.35-2.06c-0.01-0.53,0.1-1.05,0.23-1.56
		c0.35-1.34,0.86-2.63,1.53-3.84c0.28-0.51,0.59-1.01,0.76-1.57c0.32-1.04,0.13-2.16,0.04-3.24c-0.09-1-0.09-2.02,0-3.02
		c-0.07,0.54-0.45,0.99-0.66,1.5c-0.42,1.02-0.1,2.18-0.11,3.28c-0.01,1.01-0.31,1.98-0.61,2.94c-0.52,1.7-1.05,3.4-1.86,4.98
		c-0.2,0.39-0.42,0.77-0.48,1.2c-0.05,0.35,0,0.71,0.04,1.06c0.17,1.63-0.28,3.16-0.47,4.77c-0.22,1.81-0.41,3.62-0.6,5.43
		c-0.37,3.62-0.7,7.25-1.04,10.88c-1.22,12.98-2.21,25.99-2.95,39.01C263.18,613.47,262.69,639.54,263.22,665.63z"/>
	<path class="st12" d="M264.14,510.45c0,0,10.2-0.6,13,1.4s-11.6,13.6-13,16.8c-1.4,3.2,6.73-1.4,7.57,1.4
		c0.83,2.8,0.74,50.57,0.74,50.57l0-0.01c2.38-37.2,7.95-73.07,20.6-73.07C279.14,504.65,264.14,510.45,264.14,510.45z"/>
	<linearGradient id="SVGID_4_" gradientUnits="userSpaceOnUse" x1="333.3235" y1="662.331" x2="333.3235" y2="453.7344">
		<stop  offset="0" style="stop-color:#40525E"/>
		<stop  offset="1" style="stop-color:#323938"/>
	</linearGradient>
	<path class="st13" d="M293.05,507.54l-14.42-53.8h63.65c0,0,29,47.51,45.73,208.6h-31.46
		C356.55,662.33,319.32,507.54,293.05,507.54z"/>
	<g>
		<path class="st12" d="M393.21,673.55c-1.97-2.85-4.07-5.51-6.24-8.21c-2.97-3.71-3.63-7.03-4.2-11.64
			c-0.9-7.33-2.12-14.55-3.34-21.83c-2.65-15.85-5.43-31.66-8.71-47.39c-4.75-22.77-10.64-45.11-16.95-67.4
			c6.19,22.75,11.28,45.89,15.84,68.9c3.19,16.08,6.19,32.27,8.35,48.53c1.01,7.64,2.03,15.27,3.08,22.9
			c0.48,3.5,0.24,4.29,2.4,6.69c3.01,3.36,6.04,6.7,9.32,9.82C392.98,674.13,393.41,673.84,393.21,673.55z"/>
		<path class="st12" d="M346.2,491.27c0.87,2.72,1.69,5.46,2.51,8.2c-0.8-2.74-1.6-5.48-2.4-8.23
			C346.29,491.17,346.17,491.2,346.2,491.27z"/>
		<path class="st12" d="M353.77,517.07c-1.6-5.9-3.29-11.77-5.05-17.6C350.42,505.34,352.11,511.2,353.77,517.07z"/>
	</g>
	<g>
		<path class="st6" d="M229.4,453.73c0-77.4-7.96-120.82-24-150.08c-11.33-36.34-8.97-105.71,11.33-105.71c20.29,0,76.32,0,76.32,0
			v255.79H229.4z"/>
		<path class="st6" d="M342.28,453.73c-16.11-72.21,26.83-120.82,42.88-150.08c11.33-36.34,20.29-105.71,0-105.71
			c-20.29,0-106.53,0-106.53,0v255.79H342.28z"/>
	</g>
	<path class="st7" d="M266.63,197.94c-4.32,0-8.88,0-13.49,0c-6.75,2.57-13.75,8.14-16.73,15.86
		c-5.35,13.87-16.04,45.39-15.06,87.68c0.57,24.55-3.31,26.27-6.67,23.4c9.83,28.45,14.71,68.23,14.71,128.85h49.23h14.42h49.23
		c-16.11-72.21,26.83-120.82,42.88-150.08c7.96-25.55,14.75-67.41,11.03-90.02c-12.89-2.06-25.07,2.81-32.85,21.75
		c-9.72,23.67-2.92,36.94,0.25,54.73c3.17,17.79-13.52,48.72-24.41,45.64c-10.89-3.08-23.39-17.56-22.69-52.32
		c0.71-34.76,28.55-82.9,48.37-85.49c-4.96,0-10.41,0-16.07,0c-9.6,3.68-20.88,12-27.62,23.71c-11.76,20.42-24.02,41.44-54.46,41.44
		c-30.44,0-27.67-0.38-26.23-22.26C241.93,218.95,254.77,200.3,266.63,197.94z"/>
	<path class="st9" d="M332.16,202.98c0,4.87-24.07,11.13-43.25,11.13s-26.22-6.26-26.22-11.13c0-4.87,19.58-5.03,38.76-5.03
		C320.63,197.94,332.16,198.11,332.16,202.98z"/>
	<path class="st10" d="M372.42,197.94c-36.68,20.85-83.2,23.91-101.06,23.91c-17.86,0-35.75-23.91-35.75-23.91H372.42z"/>
	<linearGradient id="SVGID_5_" gradientUnits="userSpaceOnUse" x1="291.4809" y1="468.9245" x2="291.4809" y2="264.4874">
		<stop  offset="0" style="stop-color:#323938"/>
		<stop  offset="1" style="stop-color:#40525E"/>
	</linearGradient>
	<path class="st14" d="M344.92,458.88c-5.78,8.07-38.34,12.55-70.23,8.57c-31.89-3.98-44.72-12.4-45.29-13.71
		c0-21.37-11.78-95.97-15.08-108.31c9.93,0,4.85-49.22,5.12-74.57c0.03-2.35,0.2-4.46,0.33-6.33c33.66,10.85,95.07-0.03,95.07-0.03
		c-17.93,64.03,24.78,97.46,53.8,83.06C368.64,347.55,344.92,397.1,344.92,458.88z"/>
	<path class="st12" d="M344.92,458.88c0-61.78,23.72-111.33,23.72-111.33c-5.72,2.83-11.96,3.79-18.17,3.04l0,0.02l1.6,2.59
		c0,0-17.86,43.86-17.79,89.81c-0.87,8.2-22.43,14.34-49.72,13.35c-21.65-0.78-45.4-0.74-55.68-13.11
		c0.34,4.19,0.53,7.76,0.53,10.47c0.57,1.32,13.4,9.73,45.29,13.71C306.58,471.43,339.14,466.94,344.92,458.88z"/>
	<path class="st12" d="M227.08,463.73c1.55,21.15,83.93,35.94,113.06,31.85c18.03-2.53,12.95-18.4,7.56-30.41
		c-3.32-7.4-2.62-15.09-2.62-15.09s-2.24,6.28-46.13,6.54c-43.89,0.26-67.94-8.34-69.59-12.69
		C227.18,451.26,227.08,463.73,227.08,463.73z"/>
	<g>
		<path class="st6" d="M385.16,197.94c37.07,0,90.48,127.86,90.48,127.86l-50.46,19.62c0,0-23.13-41.77-40.02-41.77
			C357.03,303.66,352.89,197.94,385.16,197.94z"/>
		
			<ellipse transform="matrix(0.7235 -0.6903 0.6903 0.7235 -107.1496 403.6992)" class="st8" cx="450.41" cy="335.62" rx="27.07" ry="27.07"/>
	</g>
	<g>
		
			<ellipse transform="matrix(0.9844 -0.1761 0.1761 0.9844 -52.0612 84.5578)" class="st9" cx="450.41" cy="335.62" rx="27.07" ry="27.07"/>
		<path class="st9" d="M477.48,335.62c0-35.87-54.14-36.88-54.14,0c0,28.71,0.79,130.02,0.79,130.02h14.16
			C438.28,465.64,477.48,366.84,477.48,335.62z"/>
		<path class="st10" d="M455.09,407.59c-3.65,11.91-8.03,23.61-11.15,35.67c-1.5,5.79-2.68,11.65-3.76,17.53
			c7.82-20.2,37.3-98.09,37.3-125.17c0-35.87-54.14-36.88-54.14,0c0,4.34,0.02,10.33,0.05,17.38c0.85-5.01,2.16-9.93,4.71-14.38
			c4.45-7.75,13.65-13.55,22.26-11.15c6.14,1.71,10.68,7.23,12.73,13.26c2.05,6.04,1.98,12.58,1.52,18.94
			C463.43,375.95,459.88,391.99,455.09,407.59z"/>
	</g>
	<g>
		<path class="st15" d="M351.55,453.5c-0.67,8.08-28.84,12.34-62.93,9.51c-34.09-2.82-61.17-11.66-60.5-19.74l-2.79,0.33l0.09,15.41
			c-0.81,9.78,27.26,21.83,62.69,24.77c35.43,2.94,66.16-3.62,65.63-14.14l0.51-15.36L351.55,453.5z"/>
		<g class="st4">
			<path class="st5" d="M225.33,443.6c-0.81,9.78,27.39,20.11,62.99,23.06c35.6,2.95,65.12-2.59,65.93-12.37l-2.7-0.78
				c-0.67,8.08-28.84,12.34-62.93,9.51s-61.17-11.66-60.5-19.74L225.33,443.6z"/>
		</g>
	</g>
	<g>
		<polygon class="st16" points="292.13,465.16 260.63,460.34 257.86,461.17 256.95,481.74 287.98,487.48 291.4,484.03 		"/>
		<path class="st12" d="M276.3,485.32c0.02-0.42,0.76-21,0.76-21l2.31-1.1l-7.49-1.15l-2.74,0.95l-0.68,20.85L276.3,485.32z"/>
		<polygon class="st12" points="288.72,466.23 292.13,465.16 291.4,484.03 287.98,487.48 		"/>
		<polygon class="st17" points="288.72,466.23 257.86,461.17 260.63,460.34 292.13,465.16 		"/>
	</g>
	<path class="st18" d="M314.84,264.49c14.16-41.06,33.51-66.54,50.03-66.54h4.72c0,0-0.29-4.96-7.46-4.96c-7.17,0-9.88,0-16.37,0
		c-6.49,0-37.42,23.95-51.03,77.75h18.53L314.84,264.49z"/>
	<path class="st18" d="M234.44,264.49c3.16-41.06,15.68-66.54,32.2-66.54h4.72c0,0-1.62-4.96-8.79-4.96c-7.17,0-9.88,0-16.37,0
		c-6.49,0-24.86,28.47-26.75,77.75h15.09L234.44,264.49z"/>
	<g class="st4">
		<path d="M369.59,197.94c0,0-0.84,0-2.43,0c-1.57,0.02-3.93-0.15-6.8,0.62c-2.85,0.76-6.14,2.35-9.41,4.84
			c-3.29,2.47-6.61,5.76-9.81,9.68c-3.21,3.92-6.32,8.45-9.27,13.44c-2.96,4.99-5.75,10.44-8.39,16.19
			c-2.62,5.76-5.07,11.83-7.33,18.07l-0.83,2.35c-0.29,0.78-0.56,1.57-0.74,2.39c-0.41,1.62-0.83,3.25-1.24,4.87
			c-0.33,1.65-0.67,3.3-1.01,4.95c-0.33,1.65-0.53,3.33-0.79,5c-0.91,6.68-1.19,13.46-0.64,20.09c0.55,6.61,1.87,13.08,4.12,19
			c2.24,5.92,5.31,11.29,8.96,15.79c3.68,4.49,7.97,8.04,12.34,10.58c4.37,2.57,8.87,3.99,12.93,4.63c4.07,0.63,7.7,0.48,10.6-0.03
			c2.9-0.53,5.12-1.27,6.58-1.87c1.45-0.64,2.22-0.97,2.22-0.97s-0.74,0.41-2.13,1.19c-1.42,0.73-3.57,1.74-6.52,2.49
			c-2.95,0.74-6.69,1.18-11,0.84c-4.3-0.35-9.19-1.5-13.99-3.99c-4.81-2.43-9.63-5.96-13.78-10.6c-4.14-4.64-7.74-10.24-10.33-16.51
			c-0.65-1.56-1.21-3.18-1.8-4.79c-0.48-1.64-1.03-3.29-1.44-4.98c-0.84-3.37-1.5-6.84-1.84-10.35c-0.76-7.03-0.65-14.21,0.13-21.27
			c0.25-1.76,0.43-3.51,0.75-5.29c0.33-1.78,0.67-3.56,1-5.33c0.39-1.64,0.77-3.27,1.15-4.9l0.14-0.61l0.07-0.3l0.02-0.08
			c-0.12,0.4,0.18-0.63,0.16-0.55l0.05-0.15l0.4-1.21l0.81-2.42c2.16-6.44,4.69-12.66,7.37-18.59c1.35-2.96,2.74-5.86,4.18-8.67
			c1.44-2.81,3.03-5.47,4.62-8.04c3.18-5.15,6.55-9.85,10.06-13.98c3.6-4.05,7.34-7.5,11.17-10.14c3.8-2.65,7.74-4.43,11.29-5.23
			c0.91-0.18,1.7-0.36,2.67-0.44c0.45-0.04,0.91-0.1,1.3-0.11c0.31,0.03,0.61,0.02,0.9,0.09c0.14,0.03,0.29,0.05,0.43,0.08
			c0.03,0.01,0.07,0.01,0.1,0.03l0.05,0.02l0.03,0.01c-0.17,0.01,0.26,0,0.22,0l0.2,0.07c0.27,0.08,0.52,0.22,0.76,0.34
			c0.49,0.25,0.93,0.55,1.32,0.87C368.74,196.35,369.59,197.94,369.59,197.94z"/>
	</g>
	<path class="st4" d="M234.53,270.74l-0.55-3.12l-0.46-3.12l0-0.08c-0.08-1.77-0.19-3.55-0.23-5.32c-0.03-1.78-0.01-3.55,0.01-5.33
		c0.02-1.78,0.12-3.56,0.23-5.34c0.11-1.78,0.22-3.57,0.42-5.34c0.2-1.78,0.4-3.56,0.67-5.34c0.23-1.78,0.56-3.56,0.91-5.33
		c0.35-1.77,0.74-3.54,1.17-5.31c0.44-1.77,0.93-3.53,1.48-5.28c0.55-1.75,1.15-3.5,1.82-5.24c0.33-0.87,0.69-1.74,1.06-2.6
		c0.39-0.86,0.81-1.71,1.21-2.56c0.88-1.69,1.79-3.38,2.86-5.02c1.03-1.65,2.33-3.19,3.66-4.71c1.43-1.46,2.97-2.85,4.72-4.06
		c1.79-1.16,3.75-2.19,5.87-2.85c2.12-0.65,4.38-0.99,6.59-0.84c0.59,0.03,1.02,0.17,1.45,0.35c0.44,0.18,0.88,0.43,1.31,0.73
		c0.88,0.64,1.75,1.48,2.63,2.92c-1.75,0.01-3.5-0.03-5.25,0.03c-1.75,0.05-3.49,0.39-5.13,1.03c-1.64,0.63-3.17,1.5-4.59,2.53
		c-1.4,1.05-2.68,2.26-3.87,3.54c-1.15,1.32-2.26,2.68-3.21,4.15c-0.99,1.44-1.86,2.97-2.71,4.5c-0.81,1.55-1.58,3.13-2.27,4.73
		c-0.7,1.61-1.34,3.24-1.94,4.88c-0.6,1.65-1.14,3.31-1.66,4.98c-0.51,1.68-0.98,3.36-1.42,5.06c-0.43,1.7-0.84,3.4-1.2,5.11
		c-0.39,1.71-0.7,3.43-1.03,5.15c-1.26,6.89-2.08,13.86-2.63,20.84v0L234.53,270.74z"/>
	<g>
		<path class="st16" d="M311.95,254.12c-0.58-1.52-1.94-2.67-3.67-2.84l-8.08-0.77c-2.07-0.2-4,1.14-4.61,3.2l-2.35,7.91
			c-0.57,1.93,0.17,3.87,1.61,4.96c0.58,1.49,1.9,2.64,3.6,2.82l8.07,0.89c2.1,0.23,4.07-1.12,4.68-3.21l2.35-8.03
			C314.11,257.14,313.37,255.21,311.95,254.12z M297.54,262.39l1.53-5.14c0.4-1.34,1.65-2.21,3-2.08l5.25,0.5
			c0.37,0.03,0.7,0.15,1.01,0.31c0.11,0.48,0.11,1-0.04,1.51l-1.53,5.22c-0.4,1.36-1.68,2.24-3.04,2.09l-5.25-0.58
			c-0.35-0.04-0.67-0.16-0.97-0.31C297.39,263.43,297.39,262.91,297.54,262.39z"/>
		<g class="st4">
			<path class="st19" d="M297.5,263.92c-0.11-0.49-0.11-1,0.04-1.52l1.53-5.14c0.4-1.34,1.65-2.21,3-2.08l5.25,0.5
				c0.37,0.03,0.7,0.15,1.01,0.31c-0.27-1.19-1.22-2.15-2.5-2.27l-5.25-0.5c-1.35-0.13-2.6,0.74-3,2.08l-1.53,5.14
				C295.63,261.86,296.3,263.3,297.5,263.92z"/>
			<path class="st19" d="M311.95,254.12c0.35,0.91,0.42,1.95,0.12,2.98l-2.35,8.03c-0.61,2.09-2.58,3.44-4.68,3.21l-8.07-0.89
				c-0.8-0.09-1.51-0.41-2.11-0.86c0.58,1.49,1.9,2.64,3.6,2.82l8.07,0.89c2.1,0.23,4.07-1.12,4.68-3.21l2.35-8.03
				C314.11,257.14,313.37,255.21,311.95,254.12z"/>
		</g>
	</g>
	<g>
		<path class="st16" d="M232.62,253.47c-0.88-1.36-2.46-2.21-4.18-2.01l-8.06,0.93c-2.07,0.24-3.68,1.95-3.85,4.09l-0.65,8.22
			c-0.16,2,0.97,3.75,2.61,4.52c0.87,1.34,2.41,2.18,4.1,2.01l8.08-0.81c2.1-0.21,3.75-1.94,3.91-4.12l0.63-8.34
			C235.37,255.97,234.24,254.24,232.62,253.47z M220.25,264.55l0.42-5.35c0.11-1.39,1.16-2.51,2.5-2.66l5.24-0.6
			c0.37-0.04,0.72,0,1.05,0.1c0.21,0.45,0.32,0.95,0.28,1.49l-0.41,5.43c-0.11,1.41-1.18,2.54-2.54,2.68l-5.25,0.53
			c-0.35,0.04-0.69-0.01-1.01-0.1C220.32,265.6,220.21,265.09,220.25,264.55z"/>
		<g class="st4">
			<path class="st19" d="M220.53,266.05c-0.21-0.45-0.32-0.96-0.28-1.5l0.42-5.35c0.11-1.39,1.16-2.51,2.5-2.66l5.24-0.6
				c0.37-0.04,0.72,0,1.05,0.1c-0.51-1.11-1.64-1.85-2.92-1.7l-5.24,0.6c-1.35,0.16-2.39,1.27-2.5,2.66l-0.42,5.35
				C218.27,264.43,219.23,265.69,220.53,266.05z"/>
			<path class="st19" d="M232.62,253.47c0.53,0.82,0.82,1.82,0.73,2.89l-0.63,8.34c-0.16,2.17-1.81,3.9-3.91,4.11l-8.08,0.81
				c-0.8,0.08-1.56-0.09-2.24-0.41c0.87,1.34,2.41,2.18,4.1,2.01l8.08-0.81c2.1-0.21,3.75-1.94,3.91-4.12l0.63-8.34
				C235.37,255.97,234.24,254.24,232.62,253.47z"/>
		</g>
	</g>
	<path class="st18" d="M300.19,281.46c0,0-36.29,5.53-72.78,0c0,0-4.46,49.02,2.75,57.5c7.21,8.48,62.77,4.79,71.29,0
		C301.5,315,300.19,281.46,300.19,281.46z"/>
	<path class="st12" d="M300.19,281.46c0,0-1.81,0.27-5.01,0.64l0,0c0,0,1.71,43.4-18.56,49.48c-20.27,6.08-49.31,10.33-50.55-17.32
		c0.14,10.93,1.14,21.21,4.09,24.69c7.21,8.48,62.77,4.79,71.29,0C301.5,315,300.19,281.46,300.19,281.46z"/>
	<g>
		<path class="st6" d="M423.31,342.21c0.02-16.56,40.41-30.1,52.33-16.36c4.07-4.84,1.88-8.19-0.79-10.92
			c-0.94-4.94,0.02-14.37-13.35-15.81c-13.37-1.43-39.65,6.71-47.23,25.74c-2.21,7.39-0.8,10.85,1.4,11.64
			C416.28,341.53,423.31,342.21,423.31,342.21z"/>
		<path class="st7" d="M423.33,342.24c0,0-0.04-0.25-0.1-0.72c-0.03-0.24-0.07-0.53-0.12-0.87c0-0.35,0-0.76,0.02-1.24
			c0.07-0.94,0.25-2.06,0.67-3.32c0.4-1.26,1.02-2.64,1.89-4.04c0.9-1.35,1.96-2.8,3.24-4.15c1.26-1.39,2.71-2.72,4.28-4.02
			c1.61-1.23,3.34-2.43,5.18-3.51c1.83-1.1,3.76-2.11,5.75-3.01c1.98-0.93,4.05-1.73,6.16-2.27c1.06-0.26,2.13-0.44,3.2-0.58
			c1.07-0.14,2.13-0.26,3.19-0.29c2.11-0.11,4.19-0.1,6.2-0.08c2.01,0.1,4.1-0.55,6.09-0.33c0.49,0.05,0.96,0.15,1.41,0.29
			c0.46,0.17,0.89,0.38,1.29,0.62c0.8,0.47,1.51,1.12,2.1,1.8c0.6,0.63,1.07,1.42,1.45,2.14c0.19,0.36,0.34,0.74,0.48,1.08
			c0.11,0.4,0.23,0.75,0.29,1.12c0.3,1.43,0.23,2.66,0.04,3.57c-0.16,0.87-0.41,1.38-0.39,1.37c0,0-0.17-0.18-0.5-0.5
			c-0.16-0.16-0.36-0.37-0.6-0.61c-0.24-0.23-0.56-0.45-0.9-0.72c-0.17-0.13-0.35-0.27-0.54-0.42c-0.2-0.12-0.42-0.25-0.64-0.39
			c-0.45-0.27-0.92-0.57-1.48-0.81c-0.54-0.26-1.12-0.53-1.77-0.74c-0.32-0.11-0.65-0.23-0.98-0.34c-0.34-0.09-0.7-0.18-1.05-0.27
			c-1.43-0.39-3.03-0.59-4.72-0.75c-1.7-0.09-3.49-0.13-5.34,0.02c-1.85,0.11-3.75,0.39-5.67,0.74c-1.91,0.39-3.84,0.83-5.72,1.44
			c-1.89,0.58-3.75,1.27-5.53,2.05c-1.79,0.76-3.49,1.65-5.1,2.57c-1.59,0.95-3.09,1.94-4.41,3.01c-1.35,1.03-2.48,2.18-3.49,3.27
			c-0.95,1.14-1.76,2.24-2.32,3.31c-0.58,1.06-0.94,2.05-1.16,2.89c-0.09,0.42-0.18,0.8-0.25,1.13c-0.03,0.33-0.05,0.62-0.07,0.85
			C423.35,341.99,423.33,342.24,423.33,342.24z"/>
	</g>
	<g>
		<g>
			<path class="st20" d="M326.15,202.49c0,4.39-19.35,10.04-34.77,10.04c-15.42,0-21.07-5.65-21.07-10.04s15.74-4.54,31.16-4.54
				C316.89,197.95,326.15,198.1,326.15,202.49z"/>
			<path class="st20" d="M326.15,136.89c0,4.39-19.35,10.04-34.77,10.04c-15.42,0-21.07-5.65-21.07-10.04
				c0-4.39,15.74-4.54,31.16-4.54C316.89,132.35,326.15,132.5,326.15,136.89z"/>
			<path class="st20" d="M326.15,202.49c-4.94-35.46,0-65.6,0-65.6h-55.84c0,0,5.49,41.59,0,65.6H326.15z"/>
		</g>
	</g>
	<g>
		<path class="st6" d="M139.63,296.44c0,0,16.17,9.11,21.83,24.91c5.66,15.81,3.86,35.94-3.26,40.98c3.97,5.74,9.63,2.99,12.23,0
			c2.6-2.99,3.5-5.82,6.94-7.71c3.44-1.89,10.13-21.9-2.38-41.14c-12.51-19.23-31.03-24.7-33.04-23.99
			C139.95,290.21,139.63,296.44,139.63,296.44z"/>
		<path class="st7" d="M139.63,296.44c0,0,0.31,0.07,0.89,0.21c0.58,0.14,1.43,0.36,2.47,0.73c1.05,0.35,2.31,0.85,3.71,1.51
			c1.42,0.64,2.95,1.48,4.59,2.5c0.41,0.25,0.83,0.52,1.26,0.78c0.41,0.3,0.82,0.6,1.24,0.9c0.86,0.6,1.7,1.29,2.57,2
			c1.77,1.4,3.39,3.17,5.08,5.06c0.82,0.96,1.6,2,2.35,3.08c0.68,1.13,1.46,2.24,2.08,3.46c0.31,0.61,0.63,1.23,0.94,1.85l0.24,0.47
			l0.12,0.23l0.03,0.06l0.08,0.23l0.04,0.1l0.33,0.83l0.67,1.67c0.22,0.55,0.44,1.3,0.66,1.95l0.64,2.01l0.51,1.93
			c0.38,1.28,0.57,2.59,0.81,3.87c0.45,2.58,0.64,5.16,0.65,7.66c-0.03,1.25-0.04,2.49-0.15,3.69c-0.15,1.21-0.26,2.39-0.44,3.54
			c-0.45,2.29-0.93,4.46-1.65,6.44c-0.38,1-0.66,1.93-1.11,2.84c-0.43,0.9-0.75,1.74-1.36,2.49c-1.04,1.5-2.45,2.62-3.78,3.26
			c-1.41,0.64-2.62,0.83-3.55,0.75c-0.43-0.01-0.78-0.09-1-0.14c-0.22-0.05-0.34-0.09-0.34-0.09s0.23-0.2,0.65-0.57
			c0.2-0.2,0.5-0.39,0.75-0.71c0.25-0.32,0.54-0.69,0.87-1.1c0.58-0.87,1.23-1.97,1.78-3.33c0.57-1.35,1.06-2.93,1.45-4.68
			c0.4-1.75,0.69-3.69,0.89-5.74c0.09-1.03,0.13-2.09,0.19-3.17c0.01-1.08,0.02-2.19,0-3.31c-0.08-2.25-0.24-4.57-0.58-6.91
			c-0.18-1.17-0.33-2.35-0.59-3.52l-0.36-1.76l-0.45-1.74c-0.58-2.33-1.37-4.6-2.3-6.77c-0.44-1.09-1.04-2.11-1.55-3.15
			c-0.59-1-1.17-1.98-1.78-2.92c-1.27-1.86-2.58-3.59-3.96-5.13c-0.68-0.77-1.35-1.52-2.04-2.2c-0.67-0.7-1.35-1.35-2.01-1.96
			c-1.31-1.23-2.58-2.28-3.73-3.19c-1.15-0.91-2.18-1.65-3.04-2.25C140.68,297.03,139.63,296.44,139.63,296.44z"/>
	</g>
	<g>
		<path class="st12" d="M334.78,468.72l-1.71,12.21l-4.15,1.83l14.47,47.7c0.99,3.26,3.88,5.55,7.27,5.83
			c5.3,0.44,12.75-0.58,15.86-8.82c-6.49-31.62-16.28-60.41-16.28-60.41S341.15,470.84,334.78,468.72z"/>
		<path class="st15" d="M334.78,468.72l12.28,60.29l11.29,1.96c0,0,17.21-9.86,17.21-27.58c0-17.73,0-42.09,0-42.09l-21.4-4.58
			C354.17,456.72,347.62,468.18,334.78,468.72z"/>
		<polygon class="st12" points="334.78,468.72 358.14,479.1 358.35,530.97 347.06,529.01 		"/>
		<path class="st21" d="M375.56,461.31l-21.4-4.58c0,0-6.55,11.45-19.38,11.99c0,0,15.69,7.47,23.36,10.38
			C369.78,475.8,375.56,461.31,375.56,461.31z"/>
		<path class="st22" d="M372.34,462.78l-17.15-3.93c0,0-5.71,8.49-14.76,10.07l17.31,8.3C357.75,477.21,368.09,474.81,372.34,462.78
			z"/>
	</g>
	<g>
		<path class="st9" d="M315.86,134.25c20.22-8.66,20.59-14.22,26.11-28.05c5.52-13.83,8.85-28.64-0.65-45.21
			c-9.5-16.57-28.88-26.02-45.51-26.02c-16.63,0-45.78,9.63-52.39,17.18c-6.61,7.55-14.72,85.79,20.68,85.79
			C299.52,137.93,308.58,137.37,315.86,134.25z"/>
		<g>
			<path class="st9" d="M329.79,126.67c-2.88,9.12-3.82,26.37-3.82,44.82c0,26.16,3.2,27.99,2.41,30.23
				c-0.79,2.24-21.77,9.81-43.37,9.81c-9.69,0-13.31-7.52-13.31-11.82s-0.2-34.05-5.25-48.72c-5.05-14.67,17.16-25.33,30.45-27.35
				C310.19,121.64,333.91,113.62,329.79,126.67z"/>
			<path class="st10" d="M306.96,194.51c6.26-9.45,15.06-24.61,19.17-35.75c0.38-13.38,1.44-25.11,3.65-32.09
				c4.13-13.05-19.6-5.03-32.89-3.02c-13.29,2.01-35.5,12.68-30.45,27.35c5.05,14.67,5.25,44.42,5.25,48.72s3.62,11.82,13.31,11.82
				c1.34,0,2.68-0.03,4.01-0.08C296.01,208.1,302.72,200.92,306.96,194.51z"/>
		</g>
		<path class="st9" d="M257.74,171.17c14.58,0,15.75,0.08,28.66-6.35c12.91-6.42,24.12-9.66,26.96-18.08
			c2.84-8.42,7.64-39.14,7.64-39.14s9.76-18.98-1.03-36.61c-10.79-17.63-44.9-33.3-76.53-18.86
			c-12.28,11.46-12.65,38.01-12.65,38.01s2.77,12.27,0.86,18.66s-2.48,8.38,0.73,26c3.21,17.62,7.25,30.74,12.61,33.41
			C250.34,170.89,257.74,171.17,257.74,171.17z"/>
		<g>
			<g>
				<defs>
					<path id="SVGID_17_" d="M243.73,95c1.18,3.37,0.97,8.2,0.47,9.74c-2.39,0.83-6.32,0.68-10.3,0.21c0-8.01,0.13-8.71,0.13-8.71
						s2.15-2.01,5.22-1.88C242.27,94.49,243.73,95,243.73,95z"/>
				</defs>
				<use xlink:href="#SVGID_17_"  style="overflow:visible;opacity:0.5;fill:#FFFFFF;"/>
				<clipPath id="SVGID_6_">
					<use xlink:href="#SVGID_17_"  style="overflow:visible;opacity:0.5;"/>
				</clipPath>
				<g class="st23">
					<path class="st24" d="M234.13,99.5c-0.5,4.74,2.34,5.57,5.08,5.23c3.19-0.39,4.6-0.85,4.89-5.23c0.27-4.03-2.25-4.93-4.99-4.54
						C236.13,95.38,234.42,96.83,234.13,99.5z"/>
					<circle class="st25" cx="241.36" cy="99.92" r="3.63"/>
				</g>
			</g>
			<path class="st24" d="M239.32,96.78c0,0.8,0.65,1.45,1.45,1.45c0.8,0,1.45-0.65,1.45-1.45c0-0.8-0.65-1.45-1.45-1.45
				C239.97,95.33,239.32,95.98,239.32,96.78z"/>
			<path class="st4" d="M244.97,103.04c-0.17,0.83,0.26,2.67-4.67,3.07s-6.99-1.12-6.99-1.12l0.51-0.05
				C233.81,104.94,242.65,106.11,244.97,103.04z"/>
			<path class="st25" d="M243.73,95c0,0-2.24-0.68-2.81-2.51c-2.97,0.55-5.56,1.34-6.89,3.75C236.66,94.5,239.86,94.08,243.73,95z"
				/>
		</g>
		<path class="st10" d="M298.68,91.14c3.22,4.63,6.21,5.29,4.35,14.41c-1.86,9.12-13.42,10.16-17.68,15.18
			c-4.25,5.01,1.22,4.23-0.22,7.69c-1.44,3.46-11.74-7.79-15.62-8.42c-3.87-0.63-5.37-2.93-7.22-4.41
			c-1.85-1.49-7.67,4.82-16.99,4.02c-9.32-0.8-11.17,2.67-14.16,7.7c-2.99,5.04,1.01,26.44,21.74,26.44
			c20.73,0,50.69-0.45,59.86-23.59c9.17-23.14,14.23-38.23,5.72-52.86c-8.51-14.64-18.39-31.19-35.79-29.28
			c-17.4,1.91-42.44,11.2-46.24,20.28c-1.07,3.37,12.07,2.12,17.63,0.77c-1.37,1.78,7.13,2.11,12.24,0.18
			c5.11-1.94,6.6-11.83,17.62-11.13c-2.75,1-3.83,1.91-4.56,3.16c3.64,0.03,7.83,1.61,8.99,3.21c-4.82,0.07-5.27,2.25-4.92,2.99
			c0.36,0.74,6.99,2.74,8.1,7.77C292.66,80.27,291.05,80.17,298.68,91.14z"/>
		<path class="st15" d="M256.05,70c0,0-0.05,5.53,2.39,12.79c6.05-1.63,10.09-5.86,24.63,2.26C287,81.35,283.72,74,283.72,74
			s-13.2-4.4-18.49-5.59C259.94,67.21,256.05,70,256.05,70z"/>
		<path class="st15" d="M242.38,75.72c-1.74,5.51,1.46,9.58,2.04,11.74c0,0-9.16-2.3-13.42,3.68c-2.19-0.25-3.33-1.57-3.33-1.57
			s-0.81-3.28-0.44-6.9c2.15-3.96,9.17-9.07,10.49-9.07C239.06,73.6,242.38,75.72,242.38,75.72z"/>
		<g>
			<path class="st9" d="M263.3,121.42c-0.38,2.61-5.51,2.2-10.87,3.63c-5.36,1.43-7.24,2.55-10.17-0.02
				c-2.93-2.56-6.43-3.87-4.48-7.89c1.95-4.02,7.63-19.79,7.88-22.7c0.26-2.91-1.25-6.98-1.25-6.98s3.66,3.73,14.02-1.08
				c-1.46,8.76,2.49,10.17,2.49,10.17l-1.79,16.37C259.13,112.92,264.28,114.6,263.3,121.42z"/>
			<path class="st4" d="M242.26,125.03c2.93,2.56,4.8,1.45,10.17,0.02c5.36-1.43,10.5-1.02,10.87-3.63c0.65-4.47-1.35-6.73-2.8-7.75
				v0c1.1,1.91,2.15,5.94-0.49,6.2c-2.63,0.27-6.79-0.37-10.57,0.16c-3.79,0.53-8.73,1.67-10.85-0.04
				c-1.22-0.99-0.75-2.02-0.84-2.78C235.88,121.17,239.34,122.48,242.26,125.03z"/>
			<path class="st21" d="M247.01,90.54c0,0-0.29,1.47,0.14,2.88c-1.17,0-1.49,1.03-1.49,1.03c-0.25,2.89-5.84,18.41-7.83,22.58
				c0,3.02,1.96,3.21,4.04,3.09c3-0.18,1.96-3.39,2.79-6.84c0.76-3.15,2.48-6.05,3.66-12.35c1.18-6.3,2.36-6.1,4-7.37
				C249.94,93.62,247.84,93.24,247.01,90.54z"/>
			<path class="st21" d="M247.18,98.22c-0.48,2.66-0.67,9.4-4.31,13.26c3.11-1.16,4.31-4.85,4.39-7.75
				C247.34,100.82,247.18,98.22,247.18,98.22z"/>
		</g>
		<path class="st15" d="M245.48,125.42c6.12,0,20.17-5.22,23.91-4.43c3.74,0.79,16.1,13.31,16.1,13.31l17.86-8.88l5.06-32.76
			l-8.36-14.44c0,0,0.88-7.08-15.63-11.13c1.01-2.08,9.12,0.58,9.12,0.58s-3.66-7.23-13.02-7.23c1.29-2.21,10.04-0.97,10.04-0.97
			s-9.31-5.99-18.05,1.11c-8.74,7.1-15.43,7.91-20.23,6.21c2.84-1.16,7.36-4.12,9.01-7.3c-5.14,4.25-22.19,10.69-32.92,8.49
			c-10.73-2.2-12.03-10.25-10.91-12.44c1.12-2.19,4.99-1.35,6.87,1.39c0,0-0.57-6.08,6.22-5.12c6.79,0.96,5.5,2.09,14.46-3.65
			c8.96-5.75,32.17-19.87,57.38-17.89c41.59,3.27,36.85,18.98,42.04,27.48c5.19,8.51,11.91,22.09,7.53,31.96
			c-4.38,9.87-6.93,24.39-11.37,30.8c-4.45,6.41-8.92,11.27-9.06,17.13c-0.78,2.71-4.33,3.56-4.33,3.56s-4.6-11.77-8.49-14.65
			c-0.01,7.8,5.54,24.62,5.54,24.62l-8.74,9.33l-39.04,20.88l-40.32-2.95l-7.78-7.53l3.04-11.66l-4.18-5.11l-2.15-13.48l1.36-10.66
			c0,0,9.17-8.18,11.01-8.11C239.27,121.96,241.67,125.42,245.48,125.42z"/>
		<polygon class="st26" points="308.41,92.66 311.3,98.96 307.17,129.87 305.64,127.39 285.49,134.3 303.35,125.42 		"/>
		<polygon class="st26" points="243.81,148.94 236.87,167.05 247.59,148.88 		"/>
		<path class="st9" d="M320.9,119.23c7.26,0,10.25-4.33,14.17-15.06c3.92-10.73,0.04-13.56-3.45-15.76c-3.49-2.2-9,2.34-9,2.34
			l-3.45,27.74C319.17,118.49,319.57,119.23,320.9,119.23z"/>
		<path class="st10" d="M322.13,94.7l-2.96,23.79c0,0,0.4,0.74,1.72,0.74c7.26,0,10.25-4.33,14.17-15.06
			c2.01-5.49,1.96-8.9,0.99-11.23c-0.28-0.14-0.56-0.27-0.84-0.41C331.62,90.83,324.95,93.44,322.13,94.7z"/>
		<path class="st10" d="M290.12,145.43l-13.04,0.83l-8.07-4.49l-0.27-3.38l-9.57-3.12l-1.99-3.09l0.93,3.27l-7.19-0.67l-1.75-2.95
			l0.39,3.14l-3.68-0.19l-1.1-1.78l-0.8,2l-4.4,0.84l0.2-1.44l-1.58,2.08l-3.21,2.05l-2.5,14.46l0,0l-2.39,2.45l-2.86-1.31
			l4.18,5.11c0,0,3.54-8.35,5.85-13.81c1.12-2.65,1.95-4.62,1.96-4.62c0.04-0.21,2.2-0.45,2.39-0.48c2.33-0.36,4.68-0.52,7.03-0.56
			c3.61-0.06,7.23,0.18,10.81,0.63c1.1,0.14,2.2,0.3,3.29,0.48c0.4,0.07,1.1,0.04,1.44,0.25c0.34,0.2,0.6,0.85,0.78,1.18
			c0.99,1.83,1.46,3.89,1.92,5.9c0.61,2.67,1.21,5.34,1.55,8.06c0.23,1.86,1.26,1.58,1.97,3.34c0.46,1.13,0.98,2.24,1.39,3.4
			l-2.1-13.11l8.6,1.02l13.46-3.33l3.68-8.11L290.12,145.43z"/>
		<g>
			<g>
				<defs>
					<path id="SVGID_19_" d="M266.85,95c-1.18,3.37-0.97,8.2-0.47,9.74c2.39,0.83,8.82,0.68,12.8,0.21c0-8.01-1.93-9.62-1.93-9.62
						s-3.32-1.76-6.39-1.76C267.8,93.57,266.85,95,266.85,95z"/>
				</defs>
				<use xlink:href="#SVGID_19_"  style="overflow:visible;opacity:0.5;fill:#FFFFFF;"/>
				<clipPath id="SVGID_7_">
					<use xlink:href="#SVGID_19_"  style="overflow:visible;opacity:0.5;"/>
				</clipPath>
				<path class="st27" d="M278.02,99.45c0.58,4.74-2.7,5.57-5.86,5.23c-3.68-0.39-5.31-0.85-5.64-5.23
					c-0.31-4.03,2.6-4.93,5.75-4.54C275.71,95.33,277.69,96.77,278.02,99.45z"/>
				<path class="st28" d="M277.15,99.86c0,2-1.62,3.63-3.63,3.63c-2,0-3.63-1.62-3.63-3.63c0-2,1.62-3.63,3.63-3.63
					C275.53,96.23,277.15,97.86,277.15,99.86z"/>
			</g>
			<path class="st25" d="M277.25,95.33c-4.39-3.44-13.71-2.4-13.71-2.4l3.31,2.07C266.85,95,269.41,93.19,277.25,95.33z"/>
			<path class="st24" d="M275.85,96.78c0,0.8-0.65,1.45-1.45,1.45c-0.8,0-1.45-0.65-1.45-1.45c0-0.8,0.65-1.45,1.45-1.45
				C275.2,95.33,275.85,95.98,275.85,96.78z"/>
			<path class="st4" d="M266.03,99.51c0,0-0.82,3.56-0.94,4.88c-0.87-0.37-1.59-1.35-1.59-1.35s-0.3,2.67,5.52,3.07
				c5.82,0.39,12.58-0.96,12.58-0.96l-2.42-0.21c0,0-11.17,0.76-12.12-0.4C266.11,103.37,266.03,99.51,266.03,99.51z"/>
		</g>
		<g>
			<path class="st10" d="M240.04,146.15l3.77,2.79l12.28-0.18l6.5-3c0,0,3.83-2.9,1.57-4.62
				C259.39,141.47,240.04,146.15,240.04,146.15z"/>
			<g>
				<path class="st9" d="M264.17,141.14c0,0,0.58,3.72-6.06,4.54c-6.64,0.82-15.9,0.47-18.06,0.47c-1.03,0-2.05-2.47-2.05-2.47
					s0.72-2.24,1.21-2.85c0.48-0.61,3.39-1.41,7.82-1.41c4.43,0,11.67,0.6,13.12,0.76C261.59,140.33,264.17,140.31,264.17,141.14z"
					/>
				<path class="st10" d="M240.04,146.15c2.16,0,11.42,0.35,18.06-0.47c6.64-0.82,6.06-4.54,6.06-4.54c0-0.84-2.57-0.82-4.02-0.97
					c-0.53-0.06-1.83-0.17-3.48-0.3c1.55,0.46,0.77,2.88,0.27,4.14c-0.5,1.27-10.68,0.09-13.08,0.3c-2.4,0.22-4.49,1.05-5.86-0.64
					C237.99,143.68,239.01,146.15,240.04,146.15z"/>
			</g>
		</g>
	</g>
	<g>
		<path class="st29" d="M254.14,828.22c10.7,0,15.47,4.72,15.47,4.72l-4.2,6.61l0.76,21.95h-30.18l4.78-24.54l-3.25-5.43
			C237.52,831.52,240.51,828.22,254.14,828.22z"/>
		<path class="st29" d="M269.61,861.49c0,0-3.25-16.64-26.55-16.64c-9.93,0-26.94,6.96-26.94,6.96l-6.88-1.65l-4.39,3.01l-2.1,8.32
			H269.61z"/>
		<polygon class="st30" points="269.61,861.49 270.72,869.98 201.22,869.98 202.75,861.49 		"/>
		<path class="st10" d="M243.06,844.85c-3.08,0-6.83,0.67-10.55,1.59c0,0,0,0,0,0c5.69-0.1,13.8,4.03,17.11,15.04h8.79
			C255.99,847.02,243.06,844.85,243.06,844.85z"/>
		<path class="st10" d="M230.77,846.9c-2.26,0.61-4.45,1.28-6.44,1.94c6.58,5.28,6.02,12.66,6.02,12.66h11.37
			C241.72,861.49,239.05,849.34,230.77,846.9z"/>
		<path class="st10" d="M237.52,831.52l3.25,5.43c16.72-6.02,24.64,2.6,24.64,2.6l4.2-6.61c0,0-4.78-4.72-15.47-4.72
			C240.51,828.22,237.52,831.52,237.52,831.52z"/>
		<path class="st21" d="M211.49,854.72l14.79,3.07c0,0-0.71-3.38-3.78-4.25c17.85-5.98,27.53-7.63,39.34-3.33
			c-3.99-2.97-9.94-5.37-18.78-5.37c-9.93,0-26.94,6.96-26.94,6.96l-6.88-1.65l-4.39,3.01l-2.1,8.32h4.88l1.1-5.27L211.49,854.72z"
			/>
	</g>
	<g>
		<path class="st29" d="M416.23,828.22c-10.7,0-15.47,4.72-15.47,4.72l4.2,6.61l-0.76,21.95h30.18l-4.78-24.54l3.25-5.43
			C432.85,831.52,429.86,828.22,416.23,828.22z"/>
		<path class="st29" d="M396.89,861.49c0,0,2.12-16.64,17.29-16.64c6.47,0,22.02,5.31,22.02,5.31l2.86,3.01l1.37,8.32H396.89z"/>
		<path class="st21" d="M415.23,850.79c7.46,0,23.84,2.38,23.84,2.38l-2.86-3.01c0,0-15.55-5.31-22.02-5.31
			c-10.89,0-15.04,8.54-16.53,13.38C400.18,854.79,405.25,850.79,415.23,850.79z"/>
		<polygon class="st30" points="396.59,861.49 395.87,869.98 441.44,869.98 440.44,861.49 		"/>
		<path class="st10" d="M432.85,831.52l-3.25,5.43c-16.72-6.02-24.64,2.6-24.64,2.6l-4.2-6.61c0,0,4.78-4.72,15.47-4.72
			C429.86,828.22,432.85,831.52,432.85,831.52z"/>
	</g>
	<g>
		<path class="st6" d="M344.66,111.48c-1.62-25.03-20.6-41.68-40.32-52.57c-25.8-14.25-56.21-12.2-61.47-9.37l-1.36,0.85
			c0,0-1.46-1.82,4.81-5.87c6.27-4.05,19.02-23.05,41.22-23.05c22.2,0,44.6,5.4,53,16.6s18.2,17.8,18.8,34.4
			c0.6,16.6-10.67,31.54-11.57,35.4C346.86,111.7,344.66,111.48,344.66,111.48z"/>
		<path class="st26" d="M246.32,44.5c31.38-7.65,64.98,12.15,64.98,12.15s0.84-4.2,7.14-12c6.3-7.8,6.6-10.8,3.03-18.4
			c-9.88-3.22-21.93-4.8-33.93-4.8C265.34,21.45,252.59,40.45,246.32,44.5z"/>
		<path class="st6" d="M311.3,56.65c-21.36-24.8-21.71-42.5-45.61-48.9c-23.91-6.4-43.17,6.97-45.57,14.17
			c-2.4,7.2,21.38,28.45,21.38,28.45s26.12-11.48,67.2,11.05C312.29,62.8,311.3,56.65,311.3,56.65z"/>
		<path class="st10" d="M340.56,88.26c-4.95-9.57-9.67-13.01-16.28-18.63c-6.58-5.61-12.93-8.76-17.22-12.94
			c-18.63-24.11-22.3-36.98-45.13-43.24c-19.81-5.43-36.68,1.72-41.27,7.15c-0.22,0.43-0.4,0.88-0.55,1.32
			c-2.29,6.87,20.02,25.31,21.28,28.21c0.04,0.16,0.1,0.24,0.1,0.24s5.66-2.48,15.85-2.87c5.61-0.05,12.36,0.43,19.58,1.79
			c9.13,1.92,19.8,5.57,31.73,12.11c18.09,10.89,34.49,26.88,35.99,50.07c0,0,1.97,0.2,2.94-3.03
			C347.73,103.58,344.57,96,340.56,88.26z"/>
	</g>
	<path class="st12" d="M348.81,366.99c1.96-0.81,3.71-1.86,5.48-3.01c0.18-0.11,0.02-0.39-0.17-0.28
		c-5.58,3.26-11.1,4.58-17.55,4.27c-0.66-0.03-0.73,0.79-0.3,1.12c3.15,2.4,6.39,4.14,9.99,5.42c-2.13,0.78-3.74,2.41-4.55,4.9
		c-2.18,6.72-2.09,14.81-3,21.79c-1.07,8.26-2.25,16.53-3.09,24.82c-0.72,7.15-1.61,15.1,0.24,22.12c0.35,1.32,2.41,1.06,2.38-0.32
		c-0.11-5.85-0.79-11.54-0.44-17.43c0.33-5.53,1.02-11.04,1.64-16.54c0.65-5.75,1.27-11.5,1.9-17.25c0.6-5.54-0.38-21.05,8.1-21.13
		c0.83-0.01,1.03-1.26,0.2-1.47c-2.73-0.67-7.55-1.44-9.37-3.64c-0.39-0.47-0.72-0.76-0.98-0.94c0.36-0.01,0.86-0.11,1.54-0.38
		C343.29,368.02,346.26,368.05,348.81,366.99z"/>
	<g>
		<g>
			<path class="st9" d="M457.73,479.96c1.73,0.6,1.25,2.04,1.3,4.9c0.05,2.86,1.94,7.45,1.17,9.48c-0.76,2.04-4.64,1.77-5.48,0.04
				c-0.84-1.72,0.06-5.04-0.52-7.39c-0.58-2.35-1.6-3.81-0.68-5.23C454.45,480.33,455.81,479.29,457.73,479.96z"/>
			<path class="st9" d="M460.1,494.71c-0.55,2.44-0.8,5.51-0.89,6.93c-0.09,1.41-0.44,2.73-2.65,2.69c-2.2-0.04-2.8-1.72-2.47-3.45
				c0.33-1.72,1.1-4.58,0.73-5.93c-0.37-1.35,0.52-3.07,2.54-3.01C459.39,491.99,460.62,492.39,460.1,494.71z"/>
			<path class="st9" d="M458.62,503.55c-0.65,1.6-0.61,2.57-0.87,3.87c-0.26,1.3-0.31,2.02-1.53,2.26c-1.22,0.24-3.02,0.1-3.6-1.06
				c-0.58-1.17-0.73-1.59-0.67-2.05c0.07-0.46,0.41-1.23,1.07-2.33c0.67-1.1,0.6-2.21,2.18-2.55
				C456.8,501.34,459.24,502.02,458.62,503.55z"/>
			<path class="st31" d="M457.51,505.93c-0.16-0.78-2.43-1.24-2.8-0.91c-0.51,1.33-0.98,3.21-0.98,3.21s1.75-0.13,3.12,0.67
				C457.18,507.71,457.51,505.93,457.51,505.93z"/>
		</g>
		<path class="st9" d="M424.29,461.21c2.67-1.73,6.64-2.41,9.8-2.66c3.01-0.25,5.97,0.9,8.01,3.12c4.88,5.32,14.15,15.66,15.8,19.22
			c-2.61,4.7-26.99,6.09-26.99,6.09S422.38,477.34,424.29,461.21z"/>
		<g>
			<path class="st9" d="M453.41,479.98c1.97,0.68,1.43,2.32,1.49,5.57c0.06,3.25,2.21,8.47,1.34,10.8
				c-0.87,2.32-5.29,2.01-6.24,0.05c-0.96-1.96,0.07-5.74-0.59-8.41c-0.66-2.67-1.82-4.33-0.77-5.96
				C449.67,480.41,451.23,479.23,453.41,479.98z"/>
			<path class="st9" d="M456.1,496.78c-0.63,2.78-0.91,6.27-1.01,7.88c-0.1,1.61-0.5,3.1-3.01,3.06c-2.51-0.04-3.19-1.96-2.81-3.92
				c0.38-1.96,1.25-5.21,0.83-6.75c-0.42-1.53,0.59-3.49,2.89-3.43C455.3,493.68,456.7,494.14,456.1,496.78z"/>
			<path class="st9" d="M454.43,506.84c-0.74,1.83-0.69,2.93-0.99,4.41c-0.29,1.48-0.35,2.3-1.74,2.57
				c-1.38,0.27-3.44,0.12-4.1-1.21c-0.66-1.33-0.84-1.81-0.76-2.34c0.08-0.52,0.46-1.4,1.22-2.65c0.76-1.25,0.68-2.51,2.48-2.9
				C452.35,504.33,455.13,505.11,454.43,506.84z"/>
			<path class="st31" d="M453.16,509.56c-0.18-0.88-2.76-1.41-3.19-1.04c-0.58,1.51-1.12,3.65-1.12,3.65s2-0.15,3.55,0.76
				C452.78,511.58,453.16,509.56,453.16,509.56z"/>
			<path class="st31" d="M454.4,506.9c0.2-0.42,0.21-0.85,0.22-1.27c0-0.42-0.07-0.82-0.14-1.28c-0.15-0.9-0.25-1.81-0.3-2.72
				c-0.08-0.91-0.08-1.82-0.08-2.74c0-0.46,0.01-0.93,0.05-1.39l0.06-0.7l0.04-0.35l0.01-0.3l0.15-0.45l0-0.01v0v0l0,0
				c0.01-0.03-0.1,0.29-0.05,0.15l0,0l0.01-0.07l0.04-0.27l0.02-0.14c-0.01-0.02-0.02-0.03-0.02-0.04
				c-0.02-0.02-0.03-0.04-0.04-0.06c-0.04-0.13-0.05-0.44-0.11-0.71c-0.04-0.27-0.12-0.58-0.2-0.89c-0.08-0.31-0.17-0.63-0.26-0.95
				c-0.21-0.65-0.36-1.33-0.57-2.03c-0.2-0.7-0.38-1.43-0.5-2.2c-0.06-0.38-0.12-0.79-0.14-1.2c-0.02-0.43-0.05-0.84-0.02-1.31
				c0.02-0.5,0.06-0.79,0.13-1.2l0.21-1.13c0.16-0.72,0.21-1.37,0.44-1.8c0.08-0.21,0.24-0.34,0.31-0.62
				c0.07-0.28-0.03-0.7-0.24-1.21c0.34,0.13,0.67,0.29,0.92,0.55c0.26,0.26,0.4,0.61,0.48,0.96c0.14,0.71,0.11,1.44,0.1,2.17
				c-0.01,0.72-0.04,1.45,0,2.17c0.04,0.72,0.15,1.44,0.29,2.15c0.27,1.43,0.63,2.83,0.91,4.25c0.14,0.71,0.26,1.43,0.31,2.15
				c0.03,0.36,0.03,0.73,0,1.09c-0.04,0.36-0.1,0.72-0.27,1.05l0,0c-0.06,0.44-0.18,0.86-0.25,1.3l-0.22,1.3
				c-0.13,0.87-0.24,1.75-0.33,2.63c-0.09,0.88-0.17,1.76-0.22,2.64C455.06,505.26,454.98,506.2,454.4,506.9z"/>
		</g>
		<path class="st9" d="M427.8,482.09c-4.53-3-10.73-2.88-12.29,0.62c-0.87,4.55-1.84,6.61-3.99,7.83c-2.15,1.22-9,1.1-11.9-0.7
			c-2.9-1.8-3.54-5.86-1.92-7.6c1.8,0.41,6.21-0.46,6.21-0.46s0.29-0.87,2.26-1.86c1.97-0.99,3.61-2.92,4.77-7.74
			c0.58-2.44,2.32-1.68,4.93-2.9c2.61-1.22,6.27-4.12,8.42-8.07c2.79,1.22,7.5,9.22,6.92,14.32
			C430.63,480.64,429.34,483.12,427.8,482.09z"/>
		<path class="st31" d="M403.91,481.78c1.34,0.73,2.76,3.16,2.79,3.66c-1.45,0.58-4.88,0.9-4.88,0.9s-1.86-3.28-3.14-3.99
			C400.66,482.25,403.91,481.78,403.91,481.78z"/>
		<g>
			<path class="st9" d="M448.84,479.94c2.29,0.79,1.33,3.71,1.57,7.08c0.23,3.37,2.15,9.29,2.32,11.67
				c0.17,2.38-1.17,2.87-4.25,2.63c-3.08-0.24-2.68-0.96-4.1-7.85c-0.7-3.37-3.68-7.7-4.22-9.75
				C439.62,481.66,442.75,477.85,448.84,479.94z"/>
			<path class="st9" d="M452.61,499.49c-0.27,3.16-0.04,7.06,0.1,8.85c0.14,1.79-0.08,3.5-2.85,3.84c-2.78,0.34-3.82-1.68-3.7-3.9
				c0.12-2.22,0.58-5.94-0.12-7.57c-0.7-1.63,0.12-3.94,2.66-4.23C451.24,496.19,452.86,496.49,452.61,499.49z"/>
			<path class="st9" d="M452.8,510.39c-0.26,2.18,0.11,3.35,0.22,5.02c0.12,1.67,0.29,2.57-1.12,3.27c-1.41,0.7-3.66,1.13-4.75-0.11
				c-1.1-1.23-1.43-1.71-1.5-2.29c-0.07-0.59,0.09-1.64,0.54-3.2c0.45-1.56,0-2.9,1.82-3.84
				C449.84,508.29,453.05,508.32,452.8,510.39z"/>
			<path class="st31" d="M452.23,513.67c-0.45-0.9-3.38-0.71-3.73-0.18c-0.18,1.79-0.14,4.25-0.14,4.25s2.1-0.74,4.04-0.21
				C452.42,515.96,452.23,513.67,452.23,513.67z"/>
			<path class="st31" d="M452.8,510.39c-0.03-0.26-0.12-0.5-0.26-0.68l-0.01-0.09c-0.11-0.4-0.17-0.77-0.25-1.14
				c-0.09-0.38-0.21-0.78-0.31-1.17c-0.21-0.79-0.4-1.58-0.52-2.38c-0.14-0.8-0.27-1.6-0.38-2.42c-0.1-0.81-0.22-1.63-0.25-2.47
				l0.12-0.55c-0.02-0.05-0.03-0.27-0.09-0.56c0-0.01-0.02-0.13-0.02-0.05l-0.04-0.16l-0.07-0.32l-0.15-0.5l-0.75-2.42
				c-0.26-0.83-0.56-1.67-0.79-2.53c-0.22-0.87-0.52-1.73-0.66-2.65c-0.15-0.92-0.34-1.85-0.32-2.9l0-0.19c-0.01-0.15,0-0.14,0-0.21
				l0.02-0.33l0.05-0.75c0.03-0.5,0.13-0.95,0.21-1.4c0.17-0.88,0.29-1.7,0.45-2.33c0.1-0.33,0.21-0.58,0.3-0.89
				c0.09-0.32,0.06-0.76-0.22-1.35c0.41,0.15,0.8,0.4,1.05,0.76c0.25,0.36,0.39,0.79,0.45,1.23c0.13,0.87,0.07,1.76,0.06,2.64
				c-0.03,0.88-0.04,1.76,0.04,2.64c0.08,0.88,0.22,1.75,0.4,2.61c0.35,1.73,0.78,3.43,1.19,5.14c0.2,0.86,0.4,1.71,0.56,2.58
				c0.14,0.86,0.31,1.77,0,2.61v0c-0.1,1.58-0.09,3.16-0.04,4.74c0.02,0.79,0.06,1.58,0.11,2.37c0.07,0.79,0.09,1.58,0.08,2.37v0
				C452.81,509.87,452.83,510.13,452.8,510.39z"/>
		</g>
		<g>
			<path class="st9" d="M430.91,486.98c3.54,6.39,4.25,9.77,5.7,14.06c1.45,4.3,9.11,1.76,8.06-1.78c-1.04-3.54-1.29-2.24-2.27-6.47
				c-0.99-4.23-1.35-5.76-1.41-8.02c-0.06-2.26-2.95-3.77-5.85-3.19C432.25,482.17,428.74,483.07,430.91,486.98z"/>
			<path class="st9" d="M441.25,497.57c-3.8,0.42-5.11,3.14-3.77,5.28c1.34,2.15,1.79,5.42,1.9,6.52c0.24,2.33,0.83,3.14,3.66,3.09
				c2.84-0.05,3.79-1.51,2.94-4.12c-0.85-2.61-1.44-5.83-1.17-7.69C445.09,498.79,443.92,497.28,441.25,497.57z"/>
			<path class="st9" d="M439.33,516.86c0.3-3.3,0.35-3.88,0.26-5.43c-0.1-1.54,1.45-3.78,4.13-3.46c2.68,0.32,3,3.3,2.6,3.89
				c-0.4,0.58-0.5,1.28-0.14,3.35c0.36,2.06,0.68,2.65,0.15,3.43s-2.12,1.88-5.09,0.82C439.82,518.72,439.33,516.86,439.33,516.86z"
				/>
			<path class="st31" d="M442.13,513.21c1.45-1.23,3.41,0.19,3.41,0.19l0.43,4.59c0,0-2.71-0.37-4.03-0.3
				C441.15,515.73,441.43,513.81,442.13,513.21z"/>
			<path class="st31" d="M446.32,511.86c0.09-0.29,0.01-0.58-0.06-0.85c-0.09-0.27-0.2-0.53-0.32-0.77l-0.02-0.13
				c-0.07-0.43-0.21-0.84-0.4-1.23c-0.19-0.37-0.44-0.83-0.65-1.28c-0.42-0.9-0.74-1.83-1.04-2.79c-0.29-0.96-0.54-1.94-0.68-3.03
				c-0.03-0.27-0.06-0.56-0.06-0.85c-0.01-0.29,0.04-0.7,0-0.68c-0.03-0.22-0.12-0.37-0.21-0.47l-0.1-0.26
				c-0.17-0.39-0.34-0.79-0.53-1.13c-0.19-0.36-0.35-0.63-0.6-1.06c-0.25-0.44-0.53-1.01-0.73-1.51c-0.2-0.5-0.38-0.99-0.53-1.46
				c-0.16-0.47-0.31-0.95-0.42-1.39l-0.37-1.35c-0.26-0.9-0.47-1.82-0.63-2.8c-0.2-0.96-0.28-2.02-0.26-3.07l0.02-0.77
				c0.04,0.18-0.01-0.56,0.02-0.35c0.05,0.1,0.06,0.01,0.07-0.06c-0.01-0.07-0.02-0.15-0.06-0.24c-0.15-0.38-0.63-0.78-1.22-1.21
				c-0.3-0.21-0.63-0.46-1.02-0.7l-1.36-0.84c0.91-0.17,1.86-0.17,2.76,0.06c0.89,0.22,1.76,0.66,2.37,1.36
				c0.31,0.34,0.54,0.76,0.64,1.21c0.11,0.45,0.08,0.92,0.12,1.38c0.06,0.92,0.2,1.84,0.38,2.75c0.37,1.82,0.79,3.62,1.23,5.42
				c0.23,0.9,0.5,1.79,0.92,2.62c0.43,0.82,0.75,1.69,1.02,2.58v0c0.2,0.43,0.28,0.91,0.26,1.38c-0.05,0.47-0.11,0.94-0.1,1.42
				c0.01,0.95,0.13,1.89,0.29,2.83c0.16,0.93,0.38,1.86,0.64,2.77c0.25,0.91,0.64,1.81,0.59,2.77v0c0.09,0.28,0.15,0.57,0.17,0.86
				C446.45,511.29,446.46,511.6,446.32,511.86z"/>
		</g>
	</g>
	<g>
		<path class="st9" d="M89.1,233.08c-3.87,0.23-10.96-4.33-14.33-7.63c-3.37-3.3-6.07-3.6-8.92,0c-2.85,3.6-14.25,27.6-12.3,32.85
			c1.95,5.25,8.4,10.2,13.8,11.85c5.4,1.65,11,8.31,12.92,11.85c1.92,3.54,16.47-11.93,12.24-14.53c-4.23-2.6-2.04-7.93-0.77-10.99
			c1.27-3.06,5.19-8.11,4.27-14.61C95.08,235.37,93.21,232.84,89.1,233.08z"/>
		<path class="st9" d="M69.9,222.87c3.7,2.29,2.7,5.43-0.45,8.28c-3.15,2.85-6.9,1.99-8.55-1.85c-1.65-3.85-10-11.6-10.9-12.1
			c-0.9-0.5-3.5-3.7,0-7.7c3.5-4,11.35,2.2,12.45,4.7C63.55,216.69,67.39,221.31,69.9,222.87z"/>
		<path class="st9" d="M61.75,220.51c-4.11-1.08-5,2.89-7.9,5.99c-2.9,3.1-5.21,5.38-3.85,9.39c1.35,4.01,5.85,3.61,7.85,0.51
			c2-3.1,5.71-3.78,6.85-7.36C65.85,225.44,66.35,221.72,61.75,220.51z"/>
		<path class="st9" d="M58.66,229.21c-3.53-1.08-4.29,2.89-6.78,5.99c-2.49,3.1-4.47,5.38-3.31,9.39c1.16,4.01,5.03,3.61,6.74,0.51
			c1.72-3.1,4.9-3.78,5.88-7.36C62.18,234.14,62.61,230.42,58.66,229.21z"/>
		<path class="st9" d="M52.8,240.17c-3.08,0.2-2.51,3.53-3.54,6.7c-1.03,3.17-1.91,5.53,0.19,8.33c2.1,2.8,5.01,1.34,5.43-1.6
			c0.43-2.94,2.72-4.41,2.43-7.51C57.02,243,56.26,239.95,52.8,240.17z"/>
		<g>
			<g>
				<path class="st32" d="M103.19,221.73c2.59,4.12-0.3,10.6-6.46,14.47c-6.16,3.87-13.25,3.66-15.84-0.46
					c-2.59-4.12,0.3-10.6,6.46-14.47C93.5,217.4,100.6,217.61,103.19,221.73z"/>
				
					<ellipse transform="matrix(0.8467 -0.5321 0.5321 0.8467 -90.7868 64.224)" class="st32" cx="66.06" cy="189.67" rx="16.89" ry="10.26"/>
				<polygon class="st32" points="102.22,216.24 80,180.17 51.76,198.66 76.13,232.63 				"/>
				<path class="st32" d="M102.22,216.24c3.01,4.8-0.38,12.36-7.59,16.88c-7.2,4.53-15.49,4.31-18.5-0.49
					c-3.01-4.8,0.38-12.36,7.59-16.88C90.92,211.22,99.21,211.44,102.22,216.24z"/>
			</g>
			<path class="st10" d="M97.66,230.84l-23.48-34.38c-0.82,0.67-1.71,1.3-2.65,1.89c-4.98,3.13-10.33,4.33-14.37,3.6l-0.01,0
				l21.4,33c3.9,2.36,10.33,1.78,16.09-1.84C95.74,232.43,96.74,231.66,97.66,230.84z"/>
			
				<ellipse transform="matrix(0.8467 -0.5321 0.5321 0.8467 -90.7868 64.224)" class="st26" cx="66.06" cy="189.67" rx="16.89" ry="10.26"/>
			<path class="st10" d="M74.2,182.55L60.81,196l8.83,3.43c0.63-0.33,1.26-0.68,1.88-1.07c5.64-3.54,9.25-8.58,9.77-12.92
				L74.2,182.55z"/>
			<g>
				<path class="st33" d="M74.2,182.55c1.82,2.89-0.78,7.79-5.79,10.94c-5.01,3.15-10.55,3.36-12.37,0.47
					c-1.82-2.89,0.78-7.79,5.79-10.94C66.84,179.87,72.38,179.66,74.2,182.55z"/>
				<polygon class="st33" points="74.2,182.55 68.08,170.68 47.43,183.66 56.04,193.96 				"/>
				<path class="st33" d="M68.08,170.68c1.82,2.89-1.33,8.14-7.03,11.72c-5.7,3.58-11.8,4.14-13.61,1.25
					c-1.82-2.89,1.33-8.14,7.04-11.72C60.17,168.35,66.26,167.79,68.08,170.68z"/>
				<path class="st26" d="M68.08,170.68c1.82,2.89-1.33,8.14-7.03,11.72c-5.7,3.58-11.8,4.14-13.61,1.25
					c-1.82-2.89,1.33-8.14,7.04-11.72C60.17,168.35,66.26,167.79,68.08,170.68z"/>
				<path class="st10" d="M63.49,170.75l-13.18,9.76l8.3,3.22c0.81-0.39,1.63-0.83,2.43-1.33c4.49-2.82,7.38-6.67,7.53-9.59
					L63.49,170.75z"/>
			</g>
			<g>
				<path class="st33" d="M63.49,170.75c1.39,2.21-0.65,5.98-4.54,8.42c-3.89,2.45-8.18,2.64-9.56,0.44
					c-1.39-2.21,0.65-5.98,4.54-8.42C57.82,168.74,62.1,168.54,63.49,170.75z"/>
				<path class="st33" d="M58.95,161.48c1.61,2.56-0.75,6.95-5.28,9.79c-4.53,2.85-9.51,3.07-11.12,0.51
					c-1.61-2.56,0.75-6.95,5.28-9.79C52.36,159.14,57.34,158.92,58.95,161.48z"/>
				<polygon class="st33" points="63.49,170.75 58.95,161.48 42.55,171.79 49.38,179.61 				"/>
			</g>
			<path class="st34" d="M58.95,161.48c1.61,2.56-0.75,6.95-5.28,9.79c-4.53,2.85-9.51,3.07-11.12,0.51
				c-1.61-2.56,0.75-6.95,5.28-9.79C52.36,159.14,57.34,158.92,58.95,161.48z"/>
			<path class="st35" d="M54.71,161.56c1.09,1.73-0.38,4.62-3.29,6.44c-2.9,1.83-6.14,1.9-7.23,0.17c-1.09-1.73,0.38-4.62,3.29-6.44
				C50.38,159.9,53.62,159.82,54.71,161.56z"/>
			<path class="st10" d="M52.52,161.38l-6.93,5.14l9.56,3.71c2.35-1.85,3.88-4.1,4.22-6.07L52.52,161.38z"/>
			<path class="st33" d="M86.99,232.89c0,0-8.54,23.2-12.77,42.8l-9.93-11.7l16.5-41.7L86.99,232.89z"/>
			<polygon class="st26" points="80.79,222.29 64.29,263.99 64.83,264.64 81.01,222.68 			"/>
			<polygon class="st32" points="73.21,209.34 62.69,211.59 53.03,263.99 64.29,263.99 80.79,222.29 			"/>
			<path class="st10" d="M55.54,250.39c0,0,2.06-0.98,3.46-0.69c1.4,0.29,7.98-0.96,7.54-8.16c1.01-0.35,1.53-0.76,1.53-0.76
				l0.67-4.12l-7.85,0.83l-4.68,9.21L55.54,250.39z"/>
			<polygon class="st10" points="62.04,221.47 70.54,225.7 73.21,209.34 69.14,206.34 			"/>
			<polygon class="st4" points="80.79,222.29 73.21,209.34 64.29,263.99 			"/>
			<polygon class="st32" points="68.21,250.39 82.44,269.2 75.03,301.53 44.64,302.99 23.46,281.25 39.47,254.39 			"/>
			<polygon class="st33" points="78.65,285.74 62.33,263.99 55.59,279.59 75.03,301.53 			"/>
			<polygon class="st33" points="62.33,263.99 32.4,266.26 23.46,281.25 55.59,279.59 			"/>
			<polygon class="st10" points="75.03,301.53 55.59,279.59 23.46,281.25 44.64,302.99 			"/>
			<polygon class="st10" points="68.21,250.39 55.59,279.59 75.03,301.53 82.44,269.2 			"/>
			<polygon class="st4" points="32.4,266.26 62.33,263.99 62.75,263.02 32.74,265.67 			"/>
			<polygon class="st4" points="62.75,263.02 78.82,284.97 78.65,285.74 62.33,263.99 			"/>
			<polygon class="st26" points="68.21,250.39 39.47,254.39 39.22,254.82 67.12,251.34 55,279.62 55.59,279.59 			"/>
			<polygon class="st26" points="61.68,264.04 32.4,266.26 32.08,266.78 61.42,264.64 			"/>
			<polygon class="st26" points="68.21,250.39 82.44,269.2 67.79,251.37 			"/>
			<g>
				<polygon class="st36" points="69.14,206.34 64.29,207.49 59.56,216.14 62.04,221.47 68.74,220.64 70.54,209.92 				"/>
				<polygon class="st10" points="70.54,209.92 68.74,220.64 65.89,214.79 69.14,206.34 				"/>
				<polygon class="st4" points="59.56,216.14 62.04,221.47 68.74,220.64 65.89,214.79 				"/>
			</g>
			<g>
				<path class="st33" d="M54,161.28c0.94,1.5-0.44,4.07-3.1,5.74c-2.65,1.67-5.57,1.8-6.51,0.3c-0.94-1.5,0.44-4.07,3.1-5.74
					C50.14,159.91,53.06,159.78,54,161.28z"/>
				<path class="st34" d="M52.52,161.41c0.73,1.16-0.34,3.13-2.38,4.42c-2.04,1.28-4.29,1.39-5.01,0.23
					c-0.73-1.16,0.34-3.13,2.38-4.42C49.55,160.35,51.79,160.25,52.52,161.41z"/>
				<polygon class="st34" points="52.52,161.41 22.42,110.09 9.36,118.29 45.12,166.05 				"/>
				<path class="st34" d="M22.42,110.09c-2.32-3.96-11.81-3.84-11.81-3.84s-4.21,8.09-1.25,12.04c1.28,2.04,5.25,1.86,8.85-0.41
					C21.82,115.62,23.7,112.13,22.42,110.09z"/>
				<path class="st4" d="M21.63,109.14c1.68,1.99,0.99,8.22-1.42,11.55c-1.74,2.39-5.81,4.38-6.91,2.87l3.21,4.26
					c1.1,1.51,4.98-0.19,6.72-2.58c2.58-3.55,3.15-8.31,1.4-11.37l-2.22-3.79C22.21,109.74,21.94,109.43,21.63,109.14z"/>
				<path class="st4" d="M27.46,118.68c1.71,2.91,0.83,7.44-1.7,10.83c-1.7,2.28-5.3,3.62-6.38,2.18l2.76,3.68
					c1.08,1.44,4.67,0.1,6.38-2.18c2.19-2.93,3.22-7.22,1.51-10.13L27.46,118.68z"/>
				<path class="st4" d="M34.25,130.26c1.72,2.94,0.29,6.88-1.37,9.14c-1.65,2.26-5.06,3.62-6.09,2.18l-2.24-3
					c1.03,1.44,4.37,0.03,6.09-2.18c2.19-2.81,3.1-6.88,1.47-9.79L34.25,130.26z"/>
				<path class="st4" d="M37.95,136.57c1.72,2.94,0.67,6.45-0.99,8.7c-1.65,2.25-4.9,3.41-5.93,1.97l-2.28-3.05
					c1.03,1.44,4.43,0.08,6.09-2.18c1.65-2.26,2.85-5.89,1.12-8.83L37.95,136.57z"/>
				<path class="st4" d="M41.51,142.64c1.72,2.94,1.05,5.77-0.6,8.03c-1.65,2.26-4.85,3.35-5.88,1.91l-1.97-2.64
					c1.03,1.44,4.23,0.35,5.88-1.91c1.65-2.26,2.5-5.53,0.77-8.47L41.51,142.64z"/>
				<path class="st4" d="M39.41,158.45c1.01,1.37,4.27,0.3,5.61-1.6c1.32-1.87,2.23-4.51,0.54-7.31l-2.14-3.66
					c1.72,2.94,0.97,5.76-0.38,7.8c-1.41,2.13-4.93,3.07-5.96,1.63L39.41,158.45z"/>
				<path class="st4" d="M9.36,118.29c1.6,2.13,6.08-0.69,6.73-3.79c0.65-3.1,0.09-6.95-5.48-8.25c1.23,1.2,1.33,3.25-0.32,5.3
					C8.64,113.6,8.16,116.69,9.36,118.29z"/>
				<path class="st4" d="M12.5,106.86c-0.55-0.24-1.18-0.45-1.89-0.62c1.23,1.2,1.33,3.25-0.32,5.3c-1.65,2.05-2.13,5.14-0.93,6.74
					c0.32,0.42,0.75,0.65,1.25,0.71c-2.24-0.7,0.56-4.46,1.81-5.96C13.66,111.55,14.81,108.45,12.5,106.86z"/>
				<g class="st37">
					<path class="st5" d="M10.53,109.17c0.82-1.45,0.07-2.93,0.07-2.93s-2.24,4.31-2.3,8.18C8.65,112,9.98,110.15,10.53,109.17z"/>
					<path class="st5" d="M52.52,161.41l-30.1-51.32c-2.32-3.96-11.81-3.84-11.81-3.84s7.77,1.1,9.68,3.84
						c1.91,2.73,32.2,52.54,32.36,52.8C52.8,162.33,52.78,161.82,52.52,161.41z"/>
				</g>
				<path class="st4" d="M49.2,166.32L15.56,117.3c0,0,2.5-3.25,1.33-6.42l34.47,53.99C51.36,164.86,50.19,165.96,49.2,166.32z"/>
			</g>
			<path class="st10" d="M100.36,219.33c-0.52,0-0.97-0.34-1.13-0.81c-0.69-1.38-10.01-16.35-16.18-26.19
				c-0.35-0.56-0.18-1.3,0.38-1.65c0.56-0.35,1.3-0.18,1.65,0.38c16.48,26.29,16.48,26.62,16.48,27.07
				C101.56,218.8,101.02,219.33,100.36,219.33z"/>
			<path class="st10" d="M85.08,191.06c-0.35-0.56-1.09-0.73-1.65-0.38c-0.14,0.09-0.26,0.2-0.35,0.33
				c0.43-0.04,0.88,0.15,1.12,0.55c16.48,26.29,16.48,26.62,16.48,27.07c0,0.26-0.1,0.49-0.24,0.69c0.62-0.04,1.12-0.55,1.12-1.18
				C101.56,217.68,101.56,217.35,85.08,191.06z"/>
			<path class="st10" d="M99.49,223.62c-0.52,0-0.97-0.34-1.13-0.81c-0.69-1.39-10.23-16.7-16.53-26.77
				c-0.35-0.56-0.18-1.3,0.38-1.65c0.56-0.35,1.3-0.18,1.65,0.38c16.83,26.87,16.83,27.2,16.83,27.65
				C100.69,223.08,100.15,223.62,99.49,223.62z"/>
			<path class="st10" d="M83.85,194.77c-0.35-0.56-1.09-0.73-1.65-0.38c-0.12,0.07-0.21,0.17-0.29,0.28
				c0.33,0.05,0.63,0.23,0.82,0.54c16.83,26.87,16.83,27.2,16.83,27.65c0,0.28-0.11,0.53-0.28,0.74c0.07,0.01,0.13,0.03,0.2,0.03
				c0.66,0,1.2-0.54,1.2-1.2C100.69,221.97,100.69,221.64,83.85,194.77z"/>
			<path class="st10" d="M97.46,226.9c-0.52,0-0.97-0.34-1.13-0.8c-0.7-1.4-10.51-17.12-17.01-27.46c-0.35-0.56-0.18-1.3,0.38-1.65
				c0.56-0.35,1.3-0.18,1.65,0.38c17.31,27.55,17.31,27.88,17.31,28.34C98.66,226.36,98.12,226.9,97.46,226.9z"/>
			<path class="st10" d="M81.35,197.36c-0.35-0.56-1.09-0.73-1.65-0.38c-0.23,0.14-0.37,0.35-0.46,0.58
				c0.21,0.09,0.41,0.23,0.54,0.44c17.31,27.55,17.31,27.88,17.31,28.34c0,0.16-0.03,0.31-0.09,0.45c0.14,0.06,0.3,0.11,0.47,0.11
				c0.66,0,1.2-0.54,1.2-1.2C98.66,225.24,98.66,224.92,81.35,197.36z"/>
			<path class="st26" d="M80.37,180.68c0,0,0.08,0.15,0.22,0.43c0.07,0.14,0.16,0.31,0.27,0.52c0.07,0.22,0.15,0.47,0.24,0.75
				c0.16,0.57,0.28,1.28,0.26,2.11c0,0.82-0.16,1.75-0.43,2.72c-0.31,0.96-0.71,2-1.31,2.99c-0.56,1.02-1.28,2.01-2.09,2.99
				c-0.83,0.96-1.73,1.91-2.76,2.76c-1,0.88-2.11,1.66-3.24,2.4c-1.16,0.7-2.34,1.36-3.57,1.88c-1.21,0.56-2.46,0.96-3.68,1.29
				c-1.23,0.31-2.44,0.53-3.6,0.59c-1.16,0.11-2.26,0.01-3.27-0.12c-1-0.17-1.9-0.43-2.64-0.79c-0.75-0.35-1.34-0.76-1.79-1.15
				c-0.21-0.2-0.4-0.39-0.57-0.55c-0.14-0.18-0.26-0.34-0.35-0.46c-0.19-0.25-0.29-0.39-0.29-0.39s0.17,0.1,0.42,0.29
				c0.13,0.09,0.28,0.21,0.47,0.34c0.21,0.1,0.42,0.25,0.66,0.39c0.5,0.26,1.1,0.53,1.81,0.77c0.7,0.24,1.52,0.46,2.45,0.56
				c0.93,0.07,1.95,0.12,3.03-0.04c1.08-0.12,2.2-0.38,3.37-0.64c1.16-0.31,2.35-0.68,3.51-1.21c0.6-0.23,1.13-0.54,1.71-0.8
				c0.56-0.26,1.21-0.65,1.74-0.92c1.11-0.68,2.2-1.38,3.2-2.2c1.02-0.78,1.92-1.67,2.75-2.56c0.83-0.89,1.58-1.81,2.17-2.76
				c0.63-0.93,1.06-1.9,1.41-2.81c0.15-0.46,0.29-0.91,0.41-1.34c0.07-0.43,0.2-0.85,0.2-1.25c0.08-0.79,0.02-1.5-0.09-2.06
				c-0.07-0.28-0.13-0.53-0.18-0.75c-0.09-0.21-0.17-0.39-0.23-0.54C80.43,180.84,80.37,180.68,80.37,180.68z"/>
			<path class="st26" d="M68.08,170.68c0,0,0.05,0.1,0.15,0.3c0.12,0.19,0.2,0.49,0.3,0.89c0.02,0.2,0.04,0.43,0.06,0.67
				c-0.02,0.24-0.02,0.51-0.06,0.79c-0.1,0.55-0.26,1.18-0.56,1.81c-0.56,1.28-1.5,2.62-2.71,3.87c-0.59,0.64-1.27,1.23-1.97,1.8
				c-0.71,0.58-1.47,1.1-2.25,1.61c-0.79,0.48-1.6,0.94-2.42,1.33c-0.82,0.39-1.65,0.74-2.48,1c-1.65,0.55-3.27,0.82-4.66,0.76
				c-0.7,0-1.33-0.13-1.87-0.28c-0.27-0.08-0.51-0.2-0.74-0.28c-0.21-0.13-0.4-0.24-0.58-0.35c-0.31-0.26-0.55-0.47-0.67-0.66
				c-0.13-0.17-0.2-0.26-0.2-0.26s0.14,0.05,0.33,0.16c0.18,0.12,0.51,0.21,0.84,0.34c0.17,0.04,0.37,0.09,0.58,0.14
				c0.21,0.03,0.43,0.07,0.68,0.11c0.49,0.05,1.03,0.12,1.66,0.07c0.62-0.02,1.3-0.17,2.01-0.3c0.71-0.18,1.46-0.39,2.23-0.65
				c0.39-0.12,0.77-0.27,1.16-0.43c0.4-0.14,0.79-0.31,1.18-0.48c0.4-0.16,0.76-0.37,1.15-0.55l1.2-0.62
				c0.76-0.44,1.52-0.91,2.22-1.43c0.7-0.52,1.38-1.05,1.97-1.63c1.25-1.1,2.26-2.31,2.88-3.47c0.33-0.58,0.55-1.13,0.7-1.65
				c0.07-0.26,0.1-0.51,0.14-0.74c0-0.23,0.01-0.45,0.01-0.64c-0.05-0.37-0.09-0.69-0.19-0.9
				C68.12,170.79,68.08,170.68,68.08,170.68z"/>
			<path class="st26" d="M58.95,161.48c-0.03,0.01,0.24,0.31,0.4,0.96c0.08,0.32,0.12,0.73,0.1,1.19c-0.04,0.46-0.13,0.98-0.33,1.51
				c-0.75,2.17-2.88,4.53-5.44,6.13c-2.56,1.62-5.61,2.51-7.89,2.24c-0.57-0.05-1.07-0.19-1.51-0.36c-0.43-0.18-0.77-0.39-1.03-0.6
				c-0.51-0.43-0.67-0.79-0.69-0.77c0,0,0.12,0.04,0.29,0.12c0.16,0.09,0.44,0.16,0.73,0.26c0.3,0.09,0.64,0.15,1.01,0.23
				c0.38,0.06,0.81,0.14,1.31,0.12c0.98-0.02,2.15-0.23,3.39-0.61c0.61-0.2,1.25-0.41,1.89-0.68c0.33-0.12,0.61-0.28,0.93-0.42
				c0.31-0.13,0.7-0.35,0.98-0.49c1.25-0.68,2.41-1.54,3.36-2.47c1-0.9,1.75-1.92,2.21-2.88c0.23-0.48,0.4-0.94,0.49-1.37
				c0.08-0.43,0.09-0.81,0.06-1.13c-0.04-0.3-0.08-0.57-0.16-0.74C58.98,161.57,58.95,161.48,58.95,161.48z"/>
			<path class="st26" d="M94.64,233.12c0,0,0.2-0.15,0.56-0.42c0.37-0.27,0.91-0.69,1.54-1.26c1.26-1.13,2.99-2.91,4.33-5.44
				c0.67-1.25,1.24-2.71,1.44-4.27c0.22-1.56,0.03-3.24-0.81-4.63c-0.89-1.48-2-3.12-3.02-4.72c-1.05-1.62-2.12-3.26-3.18-4.91
				c-2.16-3.27-4.17-6.64-6.13-9.75c-0.99-1.55-1.87-3.09-2.7-4.56c-0.84-1.46-1.63-2.85-2.36-4.12c-0.73-1.28-1.42-2.43-1.95-3.51
				c-0.28-0.53-0.53-1.03-0.77-1.49c-0.21-0.48-0.41-0.91-0.59-1.31c-0.36-0.78-0.59-1.43-0.76-1.87c-0.17-0.44-0.23-0.69-0.23-0.69
				s8.22,13.35,16.45,26.7c1.03,1.67,2.06,3.34,3.07,4.98c1,1.65,2.04,3.24,2.94,4.84c0.89,1.63,1,3.5,0.7,5.15
				c-0.29,1.66-0.94,3.14-1.67,4.41c-0.73,1.28-1.6,2.32-2.4,3.2c-0.82,0.87-1.6,1.57-2.27,2.1c-0.67,0.54-1.22,0.93-1.6,1.18
				C94.84,232.99,94.64,233.12,94.64,233.12z"/>
			<path class="st10" d="M68.41,193.49c1.32-0.83,2.47-1.78,3.42-2.79l-6.48-11.78l-0.03,0.02c-1.17,1.23-2.6,2.41-4.26,3.46
				c-0.63,0.39-1.26,0.75-1.89,1.07l-0.01,0.01l7.76,10.86C67.41,194.08,67.91,193.8,68.41,193.49z"/>
		</g>
		<path class="st9" d="M91.5,229.79c0-2.23,0.75-6.55,3-9c2.25-2.45,8.05-2.95,9-2.5c0.95,0.45,2.65,2.7,2.45,4.1
			c-0.2,1.4-5.3,4.4-5.7,7.1c-0.4,2.7-0.68,4.28-1.9,5.9C97.2,236.92,91.5,234.82,91.5,229.79z"/>
		<path class="st9" d="M91.5,229.79c0,2.23-3.44,3.82-4.87,4.07c-1.01,2.85-3.21,8.78-5.31,15.78c-2.1,7-1.77,16.64,2.03,15.14
			c3.8-1.5,4.7-2.2,6.7-5.6c4.16-7.06,7-9.1,7.1-13.7c0.1-4.6,0.36-8.26,1.2-10.1c1.25-2.75,0.88-4.4-1.3-5.6
			C94.88,228.59,91.5,228.45,91.5,229.79z"/>
		<path class="st9" d="M56.75,212.09c-2.75,2.94-6.94,3.78-8.52,1.29c-1.58-2.49-1.68-3.69-4.38-6.29c-2.7-2.6-2.95-4.45-2.4-5.95
			s3.35-5,7.8-4c4.45,1,7.4,4.95,8.05,7.9C57.95,207.99,58.9,209.79,56.75,212.09z"/>
		<path class="st31" d="M57.3,205.04c-0.26-0.72-0.63-1.35-1.05-1.96c-0.41-0.61-0.86-1.18-1.38-1.68c-1.01-1.02-2.21-1.8-3.45-2.35
			c-0.62-0.28-1.26-0.48-1.91-0.61l-0.49-0.09l-0.48-0.04c-0.42-0.06-0.62,0.01-0.9,0.01c-1.18,0.15-2.23,0.67-3.06,1.5
			c-0.42,0.39-0.8,0.85-1.08,1.33c-0.12,0.23-0.26,0.49-0.28,0.62c-0.08,0.29-0.06,0.35-0.07,0.55c0.01,0.33,0.13,0.68,0.39,1.11
			c0.24,0.42,0.63,0.88,1.06,1.31c0.22,0.22,0.45,0.44,0.7,0.65c0.31,0.28,0.54,0.47,0.88,0.8c0.62,0.6,1.21,1.23,1.75,1.95
			c0.53,0.72,0.96,1.49,1.33,2.13c0.38,0.67,0.67,1.16,1.11,1.82l0.32,0.48l0.04,0.92c0.02,0.4,0.07,0.79,0.27,1.16
			c0.09,0.18,0.23,0.36,0.3,0.43c0.01,0.01,0.02,0.02-0.01,0l-0.05-0.03l-0.03-0.02l-0.02-0.01l-0.01,0
			c-0.14-0.09,0.19,0.11,0.16,0.09l0,0l0.13,0.09c0.07,0.05,0.2,0.15,0.34,0.26c0.13,0.1,0.26,0.22,0.39,0.33
			c0.71,0.66,1.31,1.29,1.94,1.94c0.62,0.64,1.22,1.29,1.79,1.98c0.57,0.68,1.14,1.37,1.69,2.07c0.56,0.7,1.09,1.41,1.58,2.18
			c0.25,0.38,0.45,0.79,0.67,1.19c0.21,0.41,0.38,0.84,0.55,1.28c0.15,0.45,0.3,0.89,0.38,1.38c0.11,0.46,0.12,0.98,0.09,1.46
			c-0.37-0.78-0.83-1.52-1.34-2.22c-0.5-0.7-1.05-1.37-1.61-2.03c-1.12-1.32-2.31-2.58-3.53-3.8c-1.22-1.22-2.47-2.42-3.78-3.55
			c-0.32-0.3-0.71-0.5-1.03-0.79c-0.31-0.3-0.58-0.65-0.78-1.03c-0.42-0.75-0.63-1.62-0.6-2.49v0c-0.82-1.25-1.41-2.64-2.26-3.87
			c-0.43-0.61-0.91-1.19-1.43-1.73c-0.51-0.54-1.07-1.04-1.56-1.61c-0.49-0.56-0.95-1.16-1.27-1.84c-0.33-0.67-0.54-1.41-0.48-2.16
			c0.04-0.75,0.35-1.46,0.78-2.07c0.43-0.61,0.94-1.17,1.52-1.63c1.15-0.95,2.63-1.5,4.13-1.52c0.75,0.02,1.49,0.12,2.21,0.34
			c0.72,0.21,1.41,0.5,2.06,0.87c1.31,0.72,2.45,1.73,3.38,2.9C56.23,202.24,56.96,203.59,57.3,205.04z"/>
		<path class="st9" d="M58.32,221.03c-2.86,2.17-2.49,7.17-0.78,9.47c1.71,2.3,3.5,0.46,5.76,0.91c5.55,1.1,11.92,0.6,11.92-3.46
			c0-7.61-2.41-7.52-4.23-7.52c-1.82,0-4.62,0.7-7.12-0.3C61.36,219.12,60.15,219.64,58.32,221.03z"/>
		<path class="st31" d="M72.27,221.44c-1.65,1.1-1.82,4.35-2.17,5.93c-2.6-0.07-6.5-0.82-6.5-0.82s0.27-3.75,1.89-5.11
			C67.55,221.38,72.27,221.44,72.27,221.44z"/>
		<path class="st9" d="M55.7,229.86c-2.1,2.52-1.03,7.41,0.77,9.46c1.8,2.05,3.04,0,5.02,0.15c4.88,0.37,9.87-0.53,9.87-6.86
			c0-5.24-3.48-4.77-5.03-4.54c-1.54,0.24-3.8,0.83-6.07,0.17C57.99,227.58,57.04,228.25,55.7,229.86z"/>
		<path class="st31" d="M67.28,228.84c-1.23,1.3-1.54,3.89-1.6,5.49c-2.22,0.27-5.64,0.04-5.64,0.04s0.07-3,1.24-4.55
			C63.02,229.49,67.28,228.84,67.28,228.84z"/>
		<path class="st9" d="M50.68,241.56c-0.9,2.59,1.39,6.11,3.41,7.18c2.02,1.07,2.38-0.9,3.98-1.37c3.93-1.16,7.57-3.34,5.7-8.3
			c-1.55-4.11-4.14-2.71-5.28-2.07c-1.14,0.64-2.73,1.78-4.71,1.93C51.8,239.09,51.25,239.9,50.68,241.56z"/>
		<path class="st31" d="M59.79,237.24c-0.58,1.39-0.75,3.27-0.32,4.55c-1.66,0.87-4.33,1.4-4.33,1.4s-0.27-1.99,0.18-3.55
			C56.6,238.87,59.79,237.24,59.79,237.24z"/>
		<path class="st31" d="M71.36,232.61c-0.06-0.39-0.08-0.8-0.18-1.18c-0.07-0.38-0.2-0.75-0.34-1.11c-0.16-0.35-0.35-0.67-0.58-0.94
			c-0.25-0.25-0.52-0.48-0.83-0.61c-0.61-0.29-1.33-0.32-2.05-0.23c-0.73,0.1-1.48,0.31-2.27,0.49c-0.79,0.18-1.62,0.35-2.48,0.39
			c-0.43,0.02-0.87,0.01-1.31-0.03c-0.43-0.03-0.91-0.13-1.3-0.22c-0.42-0.1-0.68-0.14-1.01-0.16c-0.31-0.01-0.57,0.02-0.79,0.11
			c-0.44,0.15-0.87,0.57-1.33,1.14l-0.04,0.05l-0.18,0.14c-0.75,0.59-1.46,1.9-2.2,3.17c-0.39,0.64-0.81,1.29-1.29,1.92
			c-0.5,0.66-0.96,1.14-1.43,1.7c-0.92,1.1-1.8,2.13-2.3,3.31c-0.12,0.29-0.24,0.59-0.33,0.9c-0.09,0.31-0.17,0.62-0.24,0.96
			c-0.07,0.33-0.14,0.68-0.16,1.04c-0.08,0.37-0.07,0.73-0.15,1.13c-0.19-0.71-0.32-1.43-0.34-2.16c0-0.37,0.02-0.73,0.08-1.09
			c0.06-0.36,0.14-0.72,0.27-1.06c0.47-1.39,1.35-2.6,2.25-3.75l1.36-1.72c0.44-0.59,0.83-1.21,1.21-1.83
			c0.38-0.62,0.75-1.26,1.16-1.86c0.41-0.6,0.87-1.19,1.48-1.61l0,0c0.52-0.59,1.12-1.17,1.9-1.39c0.77-0.23,1.59-0.08,2.35,0.13
			c1.54,0.45,3.17,0.33,4.72,0.06c0.78-0.13,1.56-0.3,2.36-0.35c0.79-0.04,1.61,0.03,2.3,0.45c0.35,0.19,0.63,0.48,0.88,0.79
			c0.22,0.33,0.39,0.69,0.53,1.06c0.11,0.38,0.2,0.77,0.24,1.16C71.36,231.81,71.34,232.21,71.36,232.61z"/>
		<path class="st31" d="M70.98,220.42c0,0-0.49,0.05-1.32,0.22c-0.42,0.08-0.93,0.18-1.52,0.29c-0.59,0.09-1.28,0.21-2.04,0.19
			c-0.76-0.01-1.63-0.11-2.48-0.37c-0.8-0.25-1.54-0.39-2.25-0.27c-0.68,0.09-1.33,0.48-2.04,1.04c-0.34,0.27-0.71,0.59-0.93,0.85
			c-0.27,0.31-0.53,0.66-0.79,1.04c-0.51,0.76-1.01,1.61-1.61,2.42c-0.56,0.82-1.29,1.62-1.9,2.23c-1.24,1.31-2.37,2.43-3,3.52
			c-0.32,0.54-0.51,1.07-0.63,1.56c-0.12,0.49-0.22,0.96-0.28,1.36c-0.05,0.43-0.09,0.76-0.12,0.99c-0.02,0.24-0.06,0.38-0.06,0.38
			s-0.03-0.12-0.1-0.34c-0.07-0.22-0.15-0.54-0.22-0.96c-0.14-0.83-0.14-2.1,0.5-3.43c0.61-1.33,1.76-2.62,3-3.95
			c0.63-0.66,1.27-1.35,1.84-2.12c0.56-0.78,1.12-1.57,1.69-2.35c0.57-0.79,1.25-1.49,2.05-2.03c0.77-0.56,1.63-1.03,2.54-1.09
			c0.91-0.07,1.78,0.2,2.55,0.5c0.78,0.31,1.56,0.45,2.29,0.51c1.46,0.11,2.67-0.06,3.51-0.13
			C70.5,220.41,70.98,220.42,70.98,220.42z"/>
		<path class="st31" d="M58.48,237.01c-0.56,0.55-1.13,1.07-1.77,1.56c-0.66,0.45-1.39,0.86-2.23,1.12
			c-0.2,0.07-0.44,0.11-0.62,0.15c-0.19,0.04-0.38,0.08-0.5,0.12c-0.29,0.09-0.54,0.22-0.7,0.35c-0.16,0.13-0.27,0.27-0.38,0.49
			c-0.1,0.22-0.22,0.5-0.32,0.82l-0.15,0.28c-0.12,0.24-0.28,0.57-0.4,0.97c-0.13,0.4-0.28,0.85-0.42,1.32
			c-0.17,0.46-0.32,0.95-0.53,1.43c-0.23,0.47-0.58,0.94-1.21,1.26c0.31-0.94,0.48-1.92,0.65-2.89c0.19-0.96,0.35-1.97,0.91-2.8l0,0
			c0.27-0.7,0.63-1.43,1.31-1.81c0.67-0.4,1.46-0.39,2.21-0.51C55.86,238.61,57.18,237.78,58.48,237.01z"/>
		<path class="st10" d="M57.3,205.04c0,0,0.19,0.8,0.48,1.99c0.14,0.6,0.3,1.3,0.29,2.07c0,0.77-0.26,1.59-0.73,2.25
			c-0.47,0.67-1.07,1.25-1.67,1.72c-0.6,0.48-1.22,0.85-1.78,1.11c-1.12,0.53-1.95,0.61-1.95,0.61c0,0.01,0.04-0.11,0.11-0.25
			c0.07-0.14,0.16-0.36,0.27-0.56c0.12-0.2,0.25-0.41,0.41-0.58c0.16-0.18,0.36-0.31,0.55-0.5c0.39-0.37,0.81-0.8,1.28-1.21
			c0.25-0.21,0.48-0.39,0.74-0.6c0.27-0.25,0.49-0.42,0.7-0.63c0.21-0.2,0.37-0.41,0.51-0.63c0.15-0.21,0.25-0.46,0.33-0.74
			c0.18-0.57,0.2-1.27,0.23-1.89c0.03-0.62,0.08-1.18,0.11-1.55C57.26,205.26,57.3,205.04,57.3,205.04z"/>
		<path class="st38" d="M105.25,220.15c0.97,3.41-4.74,4.59-8.35,6.87c-3.86,2.45-4.86-1.03-3.52-4.62c-1.38,2.44-1.88,5.6-1.88,7.4
			c0,1.41-1.37,2.56-2.74,3.28c-0.56,0-1.17-0.11-1.83-0.27l0.05,0.09c0,0-5.22,14.18-9.52,29.74l1.56,2.07
			c0.77-3.17,1.35-5.92,1.58-7.75c1.06-8.44,6.69-21,8.29-22.48c1.45-0.43,5.23,1.26,5.68,6.66c0.45,5.4-0.6,6.07-3.07,9.82
			c-2.47,3.75-4.73,6.67-3.76,10.8c0.97,4.13,4.76,5.72,4.76,5.72c-4.23-2.6-2.04-7.92-0.78-10.98c3.22-4.97,5.33-7.04,5.42-10.99
			c0.1-4.6,0.36-8.26,1.2-10.1c1.22-1.62,1.5-3.2,1.9-5.9c0.4-2.7,5.5-5.7,5.7-7.1C106.05,221.74,105.72,220.9,105.25,220.15z"/>
	</g>
	<g>
		<path class="st26" d="M222.86,91.68v11.8c0,2.95,2.39,5.34,5.34,5.34h11.05c0.89,0,2.24-1.04,2.82-2.64
			c0.58-1.6,1.89-4.15,3.53-4.15c5.1,0,6.76,6.79,10.45,6.79h25.77c3.5,0,6.34-2.84,6.34-6.34V91.53c0-3.56-2.92-6.42-6.48-6.34
			l-53.59,1.15C225.18,86.4,222.86,88.77,222.86,91.68z"/>
		<path class="st39" d="M281.68,85.19l-53.59,1.15c-2.91,0.06-5.23,2.44-5.23,5.34v11.8c0,2.95,2.39,5.34,5.34,5.34h11.05
			c0.89,0,2.24-1.04,2.82-2.64c0.58-1.6,1.89-4.15,3.53-4.15c5.1,0,6.76,6.79,10.45,6.79h25.77c3.5,0,6.34-2.84,6.34-6.34V91.53
			C288.16,87.97,285.23,85.11,281.68,85.19z M285.76,102.48c0,2.17-1.77,3.94-3.94,3.94h-25.77c-0.61,0-1.63-1.16-2.53-2.17
			c-1.72-1.95-4.08-4.62-7.92-4.62c-3.36,0-5.16,4.01-5.78,5.74c-0.21,0.57-0.58,0.93-0.77,1.05H228.2c-1.62,0-2.94-1.32-2.94-2.94
			v-11.8c0-1.59,1.29-2.91,2.88-2.94l53.59-1.15c2.26,0,4.03,1.77,4.03,3.94V102.48z"/>
		<path class="st39" d="M323.41,85.05c-2.65,0-41.73,0.14-41.73,0.14c3.56-0.08,6.48,2.79,6.48,6.34v10.95l34.47-11.73l5.07-2.7
			C327.69,88.06,326.06,85.05,323.41,85.05z"/>
		<path class="st26" d="M286.63,87.41l39.22-1.46c-0.66-0.5-1.48-0.89-2.44-0.89c-2.65,0-41.73,0.14-41.73,0.14
			C283.66,85.15,285.44,86.01,286.63,87.41z"/>
		<g>
			<path class="st40" d="M224.2,88.16l8,20.66h7.05c0.89,0,2.24-1.04,2.82-2.64c0.41-1.14,1.19-2.74,2.2-3.58l-0.53-2.52
				l-3.19-14.02l-12.46,0.27C226.53,86.37,225.16,87.08,224.2,88.16z"/>
			<polygon class="st40" points="252.46,85.81 246.26,85.95 264.88,108.82 277.25,108.82 252.46,85.81 			"/>
			<path class="st40" d="M288.16,91.53c0-3.56-2.92-6.42-6.48-6.34l-13.16,0.28l19.64,12.65V91.53z"/>
		</g>
	</g>
	<g>
		<defs>
			<path id="SVGID_21_" d="M292.13,386.98l48.31,81.93l17.31,8.3c0,0,10.34-2.4,14.59-14.43l3.22-1.47l15.03-74.32H292.13z"/>
		</defs>
		<clipPath id="SVGID_8_">
			<use xlink:href="#SVGID_21_"  style="overflow:visible;"/>
		</clipPath>
		<g class="st41">
			<g>
				<path class="st42" d="M381.75,403.94l-6.22,10.89l-8.87-4.96l6.3-10.77c0,0-8.64-0.97-13.35,6.43
					c-4.71,7.4,1.92,16.63,1.92,16.63l3.79,11.48l-1.24,7.28l10.05,1.72l1.43-8.36l6.22-7.95l1.44,0.45l2.41-6.37l-2.26-0.99
					C383.36,419.41,388.54,409.26,381.75,403.94z"/>
				<g>
					<path class="st21" d="M382.11,419.23l0.19-0.37c0.04-0.09,4.08-8.16-0.25-13.01l-5.78,10.12L382.11,419.23z"/>
				</g>
				<path class="st21" d="M381.85,419.73l-5.86-3.28l-10.98-6.13l5.86-10.02c-2.63,0.2-7.31,1.24-10.25,5.87
					c-4.21,6.62,1.82,15.2,1.88,15.29l0.11,0.15l3.94,11.94l-1.09,6.39l7.69,1.31l1.28-7.48l6.92-8.84l1.15,0.36l1.61-4.25
					L381.85,419.73z"/>
				<g>
					<path class="st21" d="M381.85,419.73l0.44-0.87c0.04-0.09,4.08-8.16-0.25-13.01l-0.25,0.43c3.99,4.87,0.09,12.68,0.05,12.77
						l-0.27,0.53l-16.56-9.26l5.86-10.02c-1.24,0.09-2.94,0.38-4.7,1.14c1.6-0.62,3.11-0.87,4.25-0.95l-5.86,10.02l16.84,9.41
						l2.25,1.31l-1.49,3.96l0.34,0.11l1.61-4.25L381.85,419.73z"/>
					<polygon class="st21" points="380.89,425.13 373.98,433.96 372.74,441.19 373.15,441.26 374.43,433.78 381.13,425.2 					"/>
				</g>
				<path class="st32" d="M367.24,515l6.89-72.36l-10.05-1.72l-12.31,71.99c-0.68,3.98,2,7.77,5.98,8.45l0.97,0.17
					C362.91,522.24,366.83,519.24,367.24,515z M358.92,518.78c-2.34-0.4-3.92-2.63-3.52-4.97c0.4-2.34,2.62-3.92,4.97-3.52
					c2.34,0.4,3.92,2.62,3.52,4.97C363.49,517.61,361.26,519.18,358.92,518.78z"/>
				
					<rect x="371.78" y="420.45" transform="matrix(0.4879 -0.8729 0.8729 0.4879 -180.2978 543.7471)" class="st43" width="2.99" height="10.17"/>
				<path class="st44" d="M376.39,429.68c-0.01,0-0.03-0.01-0.04-0.01c-0.24-0.07-0.38-0.31-0.31-0.55l0.9-3.26
					c0.07-0.24,0.31-0.39,0.55-0.31c0.24,0.07,0.38,0.31,0.31,0.55l-0.9,3.26C376.84,429.58,376.61,429.72,376.39,429.68z"/>
				<path class="st44" d="M375.32,429.09c-0.01,0-0.03-0.01-0.04-0.01c-0.24-0.07-0.38-0.31-0.31-0.55l0.9-3.26
					c0.07-0.24,0.31-0.39,0.55-0.31c0.24,0.07,0.38,0.31,0.31,0.55l-0.9,3.26C375.77,428.99,375.55,429.12,375.32,429.09z"/>
				<path class="st44" d="M374.26,428.49c-0.01,0-0.03-0.01-0.04-0.01c-0.24-0.07-0.38-0.31-0.31-0.55l0.9-3.26
					c0.07-0.24,0.31-0.38,0.55-0.31c0.24,0.07,0.38,0.31,0.31,0.55l-0.9,3.26C374.71,428.39,374.48,428.53,374.26,428.49z"/>
				<path class="st44" d="M373.19,427.89c-0.01,0-0.03-0.01-0.04-0.01c-0.24-0.07-0.38-0.31-0.31-0.55l0.9-3.26
					c0.07-0.24,0.31-0.39,0.55-0.31c0.24,0.07,0.38,0.31,0.31,0.55l-0.9,3.26C373.64,427.8,373.42,427.93,373.19,427.89z"/>
				<path class="st44" d="M372.13,427.3c-0.01,0-0.03-0.01-0.04-0.01c-0.24-0.07-0.38-0.31-0.31-0.55l0.9-3.26
					c0.07-0.24,0.31-0.39,0.55-0.31c0.24,0.07,0.38,0.31,0.31,0.55l-0.9,3.26C372.57,427.2,372.35,427.34,372.13,427.3z"/>
				<path class="st44" d="M371.06,426.7c-0.01,0-0.03-0.01-0.04-0.01c-0.24-0.07-0.38-0.31-0.31-0.55l0.9-3.26
					c0.07-0.24,0.31-0.38,0.55-0.31c0.24,0.07,0.38,0.31,0.31,0.55l-0.9,3.26C371.51,426.61,371.29,426.74,371.06,426.7z"/>
				<path class="st44" d="M370,426.11c-0.01,0-0.03-0.01-0.04-0.01c-0.24-0.07-0.38-0.31-0.31-0.55l0.9-3.26
					c0.07-0.24,0.31-0.39,0.55-0.31c0.24,0.07,0.38,0.31,0.31,0.55l-0.9,3.26C370.44,426.01,370.22,426.15,370,426.11z"/>
				<path class="st44" d="M368.93,425.51c-0.01,0-0.03-0.01-0.04-0.01c-0.24-0.07-0.38-0.31-0.31-0.55l0.9-3.26
					c0.07-0.24,0.31-0.38,0.55-0.31c0.24,0.07,0.38,0.31,0.31,0.55l-0.9,3.26C369.38,425.41,369.16,425.55,368.93,425.51z"/>
			</g>
			<path class="st21" d="M365.98,513.72l7.47-70.59l-8.43-1.44l-12.03,70.36c-0.67,3.93,1.49,7.57,4.83,8.14l0.81,0.14
				C362.16,520.93,365.53,517.89,365.98,513.72z M358.92,518.93c-2.48-0.42-4.14-2.85-3.7-5.41c0.44-2.57,2.81-4.3,5.29-3.88
				c2.48,0.42,4.14,2.85,3.7,5.41C363.78,517.62,361.41,519.35,358.92,518.93z"/>
			<g class="st45">
				<path class="st5" d="M365.44,466.58c2.2,1.56,4.29,4.06,5.78,6.56l0.87-9.09C367.32,461.8,360.51,463.09,365.44,466.58z"/>
				<path class="st5" d="M369.14,495.05l1.33-14c-2.53-6.77-11.74-8.84-11.74-8.84l-2.08,12.15
					C366.65,486.08,369.14,495.05,369.14,495.05z"/>
			</g>
			<g>
				<path class="st21" d="M354.78,513.83c-0.44,2.57,1.22,4.99,3.7,5.41c1.3,0.22,2.57-0.15,3.55-0.93
					c-0.9,0.56-1.99,0.81-3.11,0.62c-2.48-0.42-4.14-2.85-3.7-5.41c0.21-1.22,0.85-2.25,1.74-2.95
					C355.85,511.25,355.02,512.41,354.78,513.83z"/>
				<path class="st21" d="M365.98,513.72l7.47-70.59l-8.43-1.44l-0.06,0.38l8.05,1.38l-7.47,70.59c-0.24,2.28-1.36,4.21-2.9,5.4
					C364.4,518.29,365.71,516.21,365.98,513.72z"/>
			</g>
		</g>
		<g class="st41">
			<path class="st32" d="M352.65,460.8l-0.57-3.46l-6.36,1.05l-6.36,1.05l0.57,3.46l1.32,0.94c2.2,2.03,5.16,30.21,5.23,33.81
				c0.08,3.6,1.7,6.33,6.63,5.52c4.93-0.81,5.59-3.92,4.51-7.35c-1.08-3.43-7.32-31.07-5.89-33.7L352.65,460.8z"/>
			<path class="st21" d="M349.97,461.19l-0.56-3.4l-3.69,0.61l-3.69,0.61l0.56,3.4l0.84,1c1.43,2.12,5.01,29.76,5.29,33.26
				c0.28,3.51,1.41,6.27,4.27,5.8c2.86-0.47,3.05-3.46,2.19-6.87c-0.86-3.41-6.34-30.74-5.67-33.2L349.97,461.19z"/>
			<path class="st21" d="M348.47,461.44l-0.56-3.4l-2.19,0.36l-2.19,0.36l0.56,3.4l0.57,1.05c1,2.19,4.97,29.76,5.36,33.25
				c0.4,3.49,1.26,6.3,2.96,6.02c1.7-0.28,1.61-3.22,0.87-6.65c-0.74-3.43-5.84-30.82-5.59-33.21L348.47,461.44z"/>
			<path class="st36" d="M340.96,456.79l8.76-1.44c1.1-0.18,2.13,0.56,2.31,1.66l0.06,0.34l-12.73,2.1l-0.06-0.34
				C339.12,458.01,339.86,456.97,340.96,456.79z"/>
			<path class="st21" d="M342.32,456.57l6.02-0.99c0.84-0.14,1.63,0.43,1.77,1.27l0.06,0.39l-9.05,1.49l-0.06-0.39
				C340.92,457.5,341.49,456.7,342.32,456.57z"/>
			<path class="st21" d="M344.89,456.14l0.88-0.15c0.44-0.07,0.85,0.22,0.92,0.66l0.18,1.12l-2.46,0.41l-0.18-1.12
				C344.16,456.63,344.46,456.22,344.89,456.14z"/>
			<polygon class="st42" points="339.67,407.41 335.08,408.17 336.01,417.22 337.12,418.8 337.9,418.67 344.1,456.27 346.57,455.87 
				340.37,418.26 341.16,418.13 341.69,416.28 			"/>
			<polygon class="st21" points="337.96,407.69 336.8,407.88 337.01,417.05 338.62,418.55 338.82,418.52 345.02,456.12 
				345.65,456.02 339.45,418.41 339.65,418.38 340.7,416.45 			"/>
			<path class="st21" d="M344.14,476.45c0.42,2.85,0.81,5.88,1.14,8.74c8.83-1.52,11.72,8.35,11.75,8.49l0,0
				c-0.86-3.44-2.33-9.93-3.54-16.15C351.02,474.82,344.14,476.45,344.14,476.45z"/>
		</g>
	</g>
</g>
</svg>
