<?xml version="1.0" encoding="utf-8"?>
<!-- Generator: Adobe Illustrator 23.0.1, SVG Export Plug-In . SVG Version: 6.00 Build 0)  -->
<svg version="1.1" id="Layer_1" xmlns="http://www.w3.org/2000/svg" xmlns:xlink="http://www.w3.org/1999/xlink" x="0px" y="0px"
	 viewBox="0 0 334 342" style="enable-background:new 0 0 334 342;" xml:space="preserve">
<g>
	<g>
		<path d="M307.29,176.87c-13.56,0-26.51,0-39.8,0c0,8.62,0,16.99,0,25.64c4.43,0,8.72,0,13.31,0c-1.22-5.62-2.38-10.97-3.63-16.7
			c10.38,0,20.54,0,30.97,0c0.22,1.46,0.46,3.05,0.7,4.66c3.57,0.41,7.04,0.53,10.38,1.25c6.72,1.44,9.96,5.27,10.06,11.27
			c0.1,6.03-3.38,10.24-10,11.78c-2.22,0.52-4.56,0.79-6.84,0.79c-94.96,0.04-189.92,0.06-284.88,0.02c-4.6,0-9.32,0.07-13.77-0.88
			c-8.84-1.88-12.42-11.96-7.26-19.47c2.27-3.3,5.68-4.16,9.44-4.14c2.93,0.01,5.86,0,9.03,0c0.19-1.84,0.36-3.44,0.55-5.31
			c10.21,0,20.26,0,30.76,0c-1.1,5.35-2.16,10.45-3.28,15.91c4.46,0,8.73,0,13.29,0c0-8.47,0-16.86,0-25.26
			c-13.45,0-26.63,0-40.49,0c0.23-4.16,0.27-8.46,0.73-12.72c3.35-31.11,12.19-60.26,31.33-85.56
			c18.92-24.99,44.31-39.5,74.87-45.35c6.84-1.31,6.98-1.25,9.05,5.34c7.9,25.04,15.72,50.11,23.57,75.17
			c0.31,0.97,0.64,1.94,1.26,3.77c1.16-3.23,2.14-5.72,2.96-8.27c8.01-24.74,16.07-49.46,23.89-74.26c1.03-3.28,2.5-3.86,5.5-3.21
			c19.7,4.32,37.72,12.33,53.8,24.51c26.74,20.25,42.85,47.32,49.72,79.83c2.53,11.98,3.26,24.35,4.76,36.54
			C307.44,173.58,307.29,174.99,307.29,176.87z"/>
		<path d="M20.38,241.8c1.98,0,3.38,0,4.77,0c38.04,0,76.08,0.04,114.13-0.08c3.39-0.01,5.38,0.85,6.91,3.99
			c2.41,4.95,5.19,9.74,8.14,14.4c0.77,1.22,2.68,2.33,4.13,2.4c5.64,0.27,11.31,0.25,16.95,0.01c1.31-0.06,3.02-1.13,3.75-2.25
			c3-4.62,5.8-9.37,8.46-14.2c1.34-2.44,3.04-3.29,5.84-3.29c29.69-0.01,59.37-0.13,89.06-0.27c9.11-0.04,18.23-0.19,27.34-0.44
			c2.54-0.07,3.33,0.76,3.3,3.29c-0.11,10.28-0.14,20.56,0.03,30.84c0.04,2.51-0.96,3.65-3.14,3.88c-5.32,0.56-7.03,4-8.41,8.72
			c-4.25,14.5-9.07,28.83-13.56,43.26c-0.66,2.14-1.52,3.05-3.93,3.12c-21.94,0.67-43.88,1.49-65.82,2.28
			c-5.9,0.21-11.81,0.39-17.7,0.76c-2.16,0.13-3.18-0.67-4.02-2.61c-6.23-14.34-12.63-28.62-18.84-42.97c-0.99-2.3-1.3-4.89-2-7.62
			c-5.09,0-10.09-0.11-15.07,0.11c-0.87,0.04-2.04,1.31-2.45,2.28c-6.79,15.91-13.52,31.84-20.13,47.82c-0.93,2.24-2.05,3.1-4.53,3
			c-26.42-1.07-52.85-1.95-79.28-3.08c-8.26-0.35-8.25-0.62-10.72-8.55c-4.11-13.2-8.34-26.36-12.24-39.63
			c-0.98-3.33-2.51-5.41-5.89-6.14c-3.94-0.84-5.34-3.07-5.19-7.32C20.63,263.15,20.38,252.76,20.38,241.8z M252.53,257.07
			c0,0.3,0,0.61,0,0.91c-13.73,0-27.48,0.43-41.2-0.12c-15.03-0.6-28.37,15.88-23.75,31.4c3.19,10.73,8.15,20.97,12.75,31.24
			c2.61,5.82,7.51,8.17,14.11,7.85c16.4-0.81,32.83-1.27,49.25-1.78c10.08-0.31,17.63-6.04,20.28-15.77
			c2.82-10.38,5.63-20.76,8.23-31.2c3.35-13.48-5.95-23.16-17.31-22.6C267.44,257.36,259.98,257.07,252.53,257.07z M81.5,256.84
			c0,0.08,0,0.15-0.01,0.23c-7.32,0-14.67,0.36-21.97-0.08c-11.93-0.73-21.17,9.6-17.75,22.55c2.78,10.52,5.5,21.05,8.4,31.54
			c2.62,9.47,9.81,15.09,19.65,15.46c15.9,0.6,31.84,0.61,47.69,1.82c9.53,0.72,14.74-3.53,18.12-11.49
			c3.3-7.78,6.97-15.45,9.52-23.48c1.5-4.73,2.01-10.14,1.44-15.07c-1.22-10.57-11.69-19.98-21.6-20.3
			C110.51,257.57,96,257.23,81.5,256.84z"/>
		<path d="M166.59,94.19C159.8,70.77,153.02,47.35,146.26,24c0.43-0.38,0.65-0.71,0.81-0.68c8.16,1.58,11.68-4.48,15.79-9.57
			c1.11-1.38,2.26-2.74,3.69-4.49c3.17,3.61,6.37,6.74,8.93,10.32c2.29,3.21,4.99,4.51,8.78,3.99c0.73-0.1,1.5,0.07,3.03,0.17
			c-6.58,23.66-13.07,47-19.57,70.35C167.33,94.13,166.96,94.16,166.59,94.19z"/>
	</g>
</g>
</svg>
