<?xml version="1.0" encoding="utf-8"?>
<!-- Generator: Adobe Illustrator 23.0.1, SVG Export Plug-In . SVG Version: 6.00 Build 0)  -->
<svg version="1.1" id="Layer_1" xmlns="http://www.w3.org/2000/svg" xmlns:xlink="http://www.w3.org/1999/xlink" x="0px" y="0px"
	 viewBox="0 0 547 882" style="enable-background:new 0 0 547 882;" xml:space="preserve">
<style type="text/css">
	.st0{opacity:0.15;fill:#1C1F23;}
	.st1{fill:url(#SVGID_1_);}
	.st2{fill:url(#SVGID_2_);}
	.st3{fill:#323938;}
	.st4{fill:#58402C;}
	.st5{opacity:0.3;}
	.st6{fill:#FFFFFF;}
	.st7{fill:#41C3C4;}
	.st8{opacity:0.2;fill:#1C1F23;}
	.st9{fill:#EF5A32;}
	.st10{fill:#FCBD92;}
	.st11{opacity:0.15;}
	.st12{fill:url(#SVGID_3_);}
	.st13{opacity:0.3;fill:#1C1F23;}
	.st14{fill:url(#SVGID_4_);}
	.st15{fill:url(#SVGID_5_);}
	.st16{fill:#73472C;}
	.st17{fill:#FBB040;}
	.st18{opacity:0.35;fill:#FFFFFF;}
	.st19{fill:#40525E;}
	.st20{fill:#1C1F23;}
	.st21{fill:#D6A17C;}
	.st22{opacity:0.2;fill:#FFFFFF;}
	.st23{fill:#443113;}
	.st24{clip-path:url(#SVGID_6_);}
	.st25{opacity:0.5;fill:#FFFFFF;}
	.st26{fill:#4E474B;}
	.st27{opacity:0.3;fill:#FFE6D2;}
	.st28{opacity:0.5;clip-path:url(#SVGID_7_);fill:#FFFFFF;}
	.st29{clip-path:url(#SVGID_7_);fill:#4E474B;}
	.st30{fill:#6D6E71;}
	.st31{fill:#58595B;}
	.st32{opacity:0.15;fill:#FFFFFF;}
	.st33{fill:#F7941E;}
	.st34{fill:#3C3C4E;}
	.st35{fill:#BABEC0;}
	.st36{fill:#FFE6D2;}
	.st37{fill:#F15A29;}
	.st38{opacity:0.5;}
	.st39{opacity:0.1;}
	.st40{opacity:0.3;fill:#41C3C4;}
	.st41{opacity:0.5;fill:#FFE6D2;}
	.st42{clip-path:url(#SVGID_8_);}
	.st43{fill:#535363;}
	.st44{fill:#BCBEC0;}
	.st45{fill:#D6D7D8;}
	.st46{opacity:0.2;}
	.st47{opacity:0.05;}
	.st48{opacity:0.05;fill:#FFFFFF;}
</style>
<path class="st0" d="M169.28,867.98c0,3.06,36.9,5.54,82.42,5.54c45.52,0,82.42-2.48,82.42-5.54c0-3.06-36.9-5.54-82.42-5.54
	C206.18,862.44,169.28,864.92,169.28,867.98z"/>
<path class="st0" d="M308.74,867.98c0,3.06,52.54,5.54,117.35,5.54c64.81,0,117.35-2.48,117.35-5.54c0-3.06-52.54-5.54-117.35-5.54
	C361.28,862.44,308.74,864.92,308.74,867.98z"/>
<path class="st0" d="M4.78,867.98c0,3.06,31.97,5.54,71.4,5.54c39.43,0,71.4-2.48,71.4-5.54c0-3.06-31.97-5.54-71.4-5.54
	C36.74,862.44,4.78,864.92,4.78,867.98z"/>
<g>
	
		<linearGradient id="SVGID_1_" gradientUnits="userSpaceOnUse" x1="290.9832" y1="867.9836" x2="290.9832" y2="660.331" gradientTransform="matrix(-1 0 0 1 548.2163 0)">
		<stop  offset="0" style="stop-color:#323938"/>
		<stop  offset="1" style="stop-color:#40525E"/>
	</linearGradient>
	<path class="st1" d="M272.15,867.98c0-60.88-1.1-149.45,6.5-207.65h-31.46c0,0-11.38,35.4-11.38,61.35
		c0,25.96,24.86,82.12,24.86,146.3H272.15z"/>
	
		<linearGradient id="SVGID_2_" gradientUnits="userSpaceOnUse" x1="423.3631" y1="867.9836" x2="423.3631" y2="660.331" gradientTransform="matrix(-1 0 0 1 548.2163 0)">
		<stop  offset="0" style="stop-color:#323938"/>
		<stop  offset="1" style="stop-color:#40525E"/>
	</linearGradient>
	<path class="st2" d="M99.52,867.98c16.31-60.88,38.94-149.45,62.14-207.65H130.2c0,0-20.86,35.4-27.82,61.35
		c-6.96,25.96,2.85,82.12-14.35,146.3H99.52z"/>
	<path class="st3" d="M149.57,345.55c-2.81-6.84,12.74-28.32,58.05-32.09c45.31-3.78,100.15,11.72,96.28,29.97
		c-3.87,18.25-38.93,21.33-68.67,21.28C205.5,364.66,160.9,373.16,149.57,345.55z"/>
	<g>
		<g>
			<path class="st4" d="M292.8,457.01c-0.81-9.78-29.83-11.72-65.27-8.79c-35.43,2.94-62.56,9.61-63.05,19.42l-0.51-15.36
				c-0.81-9.78,27.75-16.49,63.35-19.44c35.6-2.95,64.75-1.02,65.57,8.76L292.8,457.01z"/>
		</g>
		<g class="st5">
			<path class="st6" d="M290.1,441.27c-0.67-8.08-28.54-9.35-62.62-6.53s-61.48,8.68-60.81,16.76l-2.7,0.78
				c-0.81-9.78,27.75-16.49,63.35-19.44c35.6-2.95,64.75-1.02,65.57,8.76L290.1,441.27z"/>
		</g>
	</g>
	<g>
		<path class="st7" d="M301.49,195.94c37.07,0,90.48,127.86,90.48,127.86l-50.46,19.62c0,0-23.13-41.77-40.02-41.77
			C273.35,301.66,269.22,195.94,301.49,195.94z"/>
		<path class="st8" d="M318.19,274.59c3.76,18.89,22.28,41.75,22.28,41.75s-5.32,13.82-0.81,18.44c4.51,4.62,7.02,6.2,7.02,6.2
			l6.75-0.78c0.15,9.25,2.47,17.21,6.58,20.12c-3.97,5.74-9.63,2.99-12.23,0c-2.6-2.99-3.5-5.82-6.94-7.71
			c-2.03-1.11-5.18-8.52-4.87-18.35c-7.88-12.29-22.7-32.62-34.49-32.62c-2.17,0-4.19-0.63-6.07-1.79
			C300.46,283.41,312.85,247.74,318.19,274.59z"/>
		
			<ellipse transform="matrix(0.4 -0.9165 0.9165 0.4 -85.7271 536.2795)" class="st9" cx="366.74" cy="333.62" rx="27.07" ry="27.07"/>
	</g>
	<g>
		
			<ellipse transform="matrix(0.951 -0.3092 0.3092 0.951 -85.185 129.7478)" class="st10" cx="366.74" cy="333.62" rx="27.07" ry="27.07"/>
		<path class="st10" d="M381.06,356.58c-30.43,18.98-59.95-26.41-28.65-45.93c24.36-15.2,81.62-50.29,81.62-50.29l7.49,12.01
			C441.53,272.37,407.56,340.06,381.06,356.58z"/>
		<path class="st11" d="M352.41,310.65c6.59-4.11,15.61-9.69,25.23-15.63c-2.73,3.25-5.83,6.16-8.29,9.65
			c-4.38,6.22-7.34,15.06-3.43,22.29c0.62,1.15,1.42,2.2,2.35,3.13c2.79,2.77,6.76,4.36,10.64,3.81c1.79-0.26,3.49-0.93,5.14-1.66
			c16.5-7.27,29.13-23.25,40.5-36.86c3.21-3.84,6.43-7.68,10.01-11.19c0.45-0.44,0.92-0.86,1.4-1.27
			c-10.72,19.69-34.92,61.2-54.89,73.66C350.63,375.57,321.12,330.17,352.41,310.65z"/>
	</g>
	
		<linearGradient id="SVGID_3_" gradientUnits="userSpaceOnUse" x1="288.7497" y1="660.331" x2="288.7497" y2="451.7344" gradientTransform="matrix(-1 0 0 1 548.2163 0)">
		<stop  offset="0" style="stop-color:#40525E"/>
		<stop  offset="1" style="stop-color:#323938"/>
	</linearGradient>
	<path class="st12" d="M225.17,505.54v-53.8h63.65c0,0,16.27,47.51-10.16,208.6h-31.46C247.19,660.33,251.44,505.54,225.17,505.54z"
		/>
	<path class="st13" d="M255,663.63c-0.42,0.27-0.81,0.56-1.22,0.84c-0.05-0.02-0.11-0.03-0.16-0.06c-0.48-0.24-0.96-0.48-1.44-0.72
		c-0.08,0.74-0.19,1.47-0.3,2.2c-0.72,0.57-1.42,1.15-2.09,1.76c0.35-1.75,0.6-3.53,0.72-5.35c0.05-0.71,0.73-1.1,1.37-0.78
		c0.44,0.21,0.87,0.43,1.31,0.64c0.43-29.14-0.12-58.3-1.93-87.39c-0.91-14.59-2.15-29.15-3.62-43.69
		c-0.12-1.21-0.33-2.41-0.52-3.61c-0.1-0.63-0.21-1.18-0.12-1.82c0.1-0.69,0.33-1.36,0.35-2.06c0.01-0.53-0.1-1.05-0.23-1.56
		c-0.35-1.34-0.86-2.63-1.53-3.84c-0.28-0.51-0.59-1.01-0.76-1.57c-0.32-1.04-0.13-2.16-0.04-3.24c0.09-1,0.09-2.02,0-3.02
		c0.07,0.54,0.45,0.99,0.66,1.5c0.42,1.02,0.1,2.18,0.11,3.28c0.01,1.01,0.31,1.98,0.61,2.94c0.52,1.7,1.05,3.4,1.86,4.98
		c0.2,0.39,0.42,0.77,0.48,1.2c0.05,0.35,0,0.71-0.04,1.06c-0.17,1.63,0.28,3.16,0.47,4.77c0.22,1.81,0.41,3.62,0.6,5.43
		c0.37,3.62,0.7,7.25,1.04,10.88c1.22,12.98,2.21,25.99,2.95,39.01C255.03,611.47,255.53,637.54,255,663.63z"/>
	<path class="st13" d="M254.08,508.45c0,0-10.2-0.6-13,1.4c-2.8,2,11.6,13.6,13,16.8c1.4,3.2-6.73-1.4-7.57,1.4
		c-0.83,2.8-0.74,50.57-0.74,50.57l0-0.01c-2.38-37.2-7.95-73.07-20.6-73.07C239.08,502.65,254.08,508.45,254.08,508.45z"/>
	
		<linearGradient id="SVGID_4_" gradientUnits="userSpaceOnUse" x1="363.3235" y1="660.331" x2="363.3235" y2="451.7344" gradientTransform="matrix(-1 0 0 1 548.2163 0)">
		<stop  offset="0" style="stop-color:#40525E"/>
		<stop  offset="1" style="stop-color:#323938"/>
	</linearGradient>
	<path class="st14" d="M225.17,505.54l14.42-53.8h-63.65c0,0-29,47.51-45.73,208.6h31.46C161.67,660.33,198.9,505.54,225.17,505.54z
		"/>
	<g>
		<path class="st13" d="M125.01,671.55c1.97-2.85,4.07-5.51,6.24-8.21c2.97-3.71,3.63-7.03,4.2-11.64
			c0.9-7.33,2.12-14.55,3.34-21.83c2.65-15.85,5.43-31.66,8.71-47.39c4.75-22.77,10.64-45.11,16.95-67.4
			c-6.19,22.75-11.28,45.89-15.84,68.9c-3.19,16.08-6.19,32.27-8.35,48.53c-1.01,7.64-2.03,15.27-3.08,22.9
			c-0.48,3.5-0.24,4.29-2.4,6.69c-3.01,3.36-6.04,6.7-9.32,9.82C125.24,672.13,124.81,671.84,125.01,671.55z"/>
		<path class="st13" d="M172.02,489.27c-0.87,2.72-1.69,5.46-2.51,8.2c0.8-2.74,1.6-5.48,2.4-8.23
			C171.93,489.17,172.04,489.2,172.02,489.27z"/>
		<path class="st13" d="M164.45,515.07c1.6-5.9,3.29-11.77,5.05-17.6C167.8,503.34,166.11,509.2,164.45,515.07z"/>
	</g>
	<g>
		<path class="st7" d="M288.81,451.73c0-77.4,7.96-120.82,24-150.08c11.33-36.34,8.97-105.71-11.33-105.71c-20.29,0-76.32,0-76.32,0
			v255.79H288.81z"/>
		<path class="st7" d="M175.94,451.73c16.11-72.21-26.83-120.82-42.88-150.08c-11.33-36.34-20.29-105.71,0-105.71
			c20.29,0,106.53,0,106.53,0v255.79H175.94z"/>
	</g>
	<path class="st8" d="M251.58,195.94c4.32,0,8.88,0,13.49,0c6.75,2.57,13.75,8.14,16.73,15.86c5.35,13.87,16.04,45.39,15.06,87.68
		c-0.57,24.55,3.31,26.27,6.67,23.4c-9.83,28.45-14.71,68.23-14.71,128.85h-49.23h-14.42h-49.23
		c16.11-72.21-26.83-120.82-42.88-150.08c-7.96-25.55-14.75-67.41-11.03-90.02c12.89-2.06,25.07,2.81,32.85,21.75
		c9.72,23.67,2.92,36.94-0.25,54.73c-3.17,17.79,13.52,48.72,24.41,45.64c10.89-3.08,23.39-17.56,22.69-52.32
		c-0.71-34.76-28.55-82.9-48.37-85.49c4.96,0,10.41,0,16.07,0c9.6,3.68,20.88,12,27.62,23.71c11.76,20.42,24.02,41.44,54.46,41.44
		c30.44,0,27.67-0.38,26.23-22.26C276.29,216.95,263.45,198.3,251.58,195.94z"/>
	<path class="st10" d="M186.06,200.98c0,4.87,24.07,11.13,43.25,11.13s26.22-6.26,26.22-11.13c0-4.87-19.58-5.03-38.76-5.03
		S186.06,196.11,186.06,200.98z"/>
	<path class="st11" d="M145.8,195.94c36.68,20.85,83.2,23.91,101.06,23.91c17.86,0,35.75-23.91,35.75-23.91H145.8z"/>
	
		<linearGradient id="SVGID_5_" gradientUnits="userSpaceOnUse" x1="321.4809" y1="466.9245" x2="321.4809" y2="262.4874" gradientTransform="matrix(-1 0 0 1 548.2163 0)">
		<stop  offset="0" style="stop-color:#323938"/>
		<stop  offset="1" style="stop-color:#40525E"/>
	</linearGradient>
	<path class="st15" d="M173.29,456.88c5.78,8.07,38.34,12.55,70.23,8.57c31.89-3.98,44.72-12.4,45.29-13.71
		c0-21.37,11.78-95.97,15.08-108.31c-9.93,0-4.85-49.22-5.12-74.57c-0.03-2.35-0.2-4.46-0.33-6.33
		c-33.67,10.85-95.07-0.03-95.07-0.03c17.93,64.03-24.78,97.46-53.8,83.06C149.57,345.55,173.29,395.1,173.29,456.88z"/>
	<path class="st13" d="M173.29,456.88c0-61.78-23.72-111.33-23.72-111.33c5.72,2.83,11.96,3.79,18.17,3.04l0,0.02l-1.6,2.59
		c0,0,17.86,43.86,17.79,89.81c0.87,8.2,22.43,14.34,49.72,13.35c21.65-0.78,45.4-0.74,55.68-13.11c-0.34,4.19-0.53,7.76-0.53,10.47
		c-0.57,1.32-13.4,9.73-45.29,13.71C211.63,469.43,179.07,464.94,173.29,456.88z"/>
	<path class="st13" d="M291.14,461.73c-1.55,21.15-83.93,35.94-113.06,31.85c-18.03-2.53-12.95-18.4-7.56-30.41
		c3.32-7.4,2.62-15.09,2.62-15.09s2.24,6.28,46.13,6.54c43.89,0.26,67.94-8.34,69.59-12.69
		C291.04,449.26,291.14,461.73,291.14,461.73z"/>
	<g>
		<path class="st7" d="M133.06,195.94c-37.07,0-90.48,127.86-90.48,127.86l50.46,19.62c0,0,23.13-41.77,40.02-41.77
			C161.19,301.66,165.33,195.94,133.06,195.94z"/>
		
			<ellipse transform="matrix(0.6903 -0.7235 0.7235 0.6903 -220.382 152.3857)" class="st9" cx="67.81" cy="333.62" rx="27.07" ry="27.07"/>
	</g>
	<g>
		
			<ellipse transform="matrix(0.1761 -0.9844 0.9844 0.1761 -272.5363 341.6175)" class="st10" cx="67.81" cy="333.62" rx="27.07" ry="27.07"/>
		<path class="st10" d="M40.74,333.62c0-35.87,54.14-36.88,54.14,0c0,28.71-0.79,130.02-0.79,130.02H79.93
			C79.93,463.64,40.74,364.84,40.74,333.62z"/>
		<path class="st11" d="M63.12,405.59c3.65,11.91,8.03,23.61,11.15,35.67c1.5,5.79,2.68,11.65,3.76,17.53
			c-7.82-20.2-37.3-98.09-37.3-125.17c0-35.87,54.14-36.88,54.14,0c0,4.34-0.02,10.33-0.05,17.38c-0.85-5.01-2.16-9.93-4.71-14.38
			c-4.45-7.75-13.65-13.55-22.26-11.15c-6.14,1.71-10.68,7.23-12.73,13.26c-2.05,6.04-1.98,12.58-1.52,18.94
			C54.79,373.95,58.34,389.99,63.12,405.59z"/>
	</g>
	<g>
		<path class="st16" d="M166.66,451.5c0.67,8.08,28.84,12.34,62.93,9.51c34.09-2.82,61.17-11.66,60.5-19.74l2.79,0.33l-0.09,15.41
			c0.81,9.78-27.26,21.83-62.69,24.77c-35.43,2.94-66.16-3.62-65.63-14.14l-0.51-15.36L166.66,451.5z"/>
		<g class="st5">
			<path class="st6" d="M292.89,441.6c0.81,9.78-27.39,20.11-62.99,23.06c-35.6,2.95-65.12-2.59-65.93-12.37l2.7-0.78
				c0.67,8.08,28.84,12.34,62.93,9.51c34.09-2.82,61.17-11.66,60.5-19.74L292.89,441.6z"/>
		</g>
	</g>
	<g>
		<polygon class="st17" points="226.09,463.16 257.59,458.34 260.36,459.17 261.27,479.74 230.24,485.48 226.81,482.03 		"/>
		<path class="st13" d="M241.92,483.32c-0.02-0.42-0.76-21-0.76-21l-2.31-1.1l7.49-1.15l2.74,0.95l0.68,20.85L241.92,483.32z"/>
		<polygon class="st13" points="229.5,464.23 226.09,463.16 226.81,482.03 230.24,485.48 		"/>
		<polygon class="st18" points="229.5,464.23 260.36,459.17 257.59,458.34 226.09,463.16 		"/>
	</g>
	<path class="st19" d="M203.37,262.49c-14.16-41.06-33.51-66.54-50.03-66.54h-4.72c0,0,0.29-4.96,7.46-4.96c7.17,0,9.88,0,16.37,0
		c6.49,0,37.42,23.95,51.03,77.75h-18.53L203.37,262.49z"/>
	<path class="st19" d="M283.78,262.49c-3.16-41.06-15.68-66.54-32.2-66.54h-4.72c0,0,1.62-4.96,8.79-4.96c7.17,0,9.88,0,16.37,0
		c6.49,0,24.86,28.47,26.75,77.75h-15.09L283.78,262.49z"/>
	<g class="st5">
		<path d="M148.63,195.94c0,0,0.84,0,2.43,0c1.57,0.02,3.93-0.15,6.8,0.62c2.85,0.76,6.14,2.35,9.41,4.84
			c3.29,2.47,6.61,5.76,9.81,9.68c3.21,3.92,6.32,8.45,9.27,13.44c2.96,4.99,5.75,10.44,8.39,16.19c2.62,5.76,5.07,11.83,7.33,18.07
			l0.83,2.35c0.29,0.78,0.56,1.57,0.74,2.39c0.41,1.62,0.83,3.25,1.24,4.87c0.33,1.65,0.67,3.3,1.01,4.95
			c0.33,1.65,0.53,3.33,0.79,5c0.91,6.68,1.19,13.46,0.64,20.09c-0.55,6.61-1.87,13.08-4.12,19c-2.24,5.92-5.31,11.29-8.96,15.79
			c-3.68,4.49-7.97,8.04-12.34,10.58c-4.37,2.57-8.87,3.99-12.93,4.63c-4.07,0.63-7.7,0.48-10.6-0.03c-2.9-0.53-5.12-1.27-6.58-1.87
			c-1.45-0.64-2.22-0.97-2.22-0.97s0.74,0.41,2.13,1.19c1.42,0.73,3.57,1.74,6.52,2.49c2.95,0.74,6.69,1.18,11,0.84
			c4.3-0.35,9.19-1.5,13.99-3.99c4.81-2.43,9.63-5.96,13.78-10.6c4.14-4.64,7.74-10.24,10.33-16.51c0.65-1.56,1.21-3.18,1.8-4.79
			c0.48-1.64,1.03-3.29,1.44-4.98c0.84-3.37,1.5-6.84,1.84-10.35c0.76-7.03,0.65-14.21-0.13-21.27c-0.25-1.76-0.43-3.51-0.75-5.29
			c-0.33-1.78-0.67-3.56-1-5.33c-0.39-1.64-0.77-3.27-1.15-4.9l-0.14-0.61l-0.07-0.3l-0.02-0.08c0.12,0.4-0.18-0.63-0.16-0.55
			l-0.05-0.15l-0.4-1.21l-0.81-2.42c-2.16-6.44-4.69-12.66-7.37-18.59c-1.35-2.96-2.74-5.86-4.18-8.67
			c-1.44-2.81-3.03-5.47-4.62-8.04c-3.18-5.15-6.55-9.85-10.06-13.98c-3.6-4.05-7.34-7.5-11.17-10.14
			c-3.8-2.65-7.74-4.43-11.29-5.23c-0.91-0.18-1.7-0.36-2.67-0.44c-0.45-0.04-0.91-0.1-1.3-0.11c-0.31,0.03-0.61,0.02-0.9,0.09
			c-0.14,0.03-0.29,0.05-0.43,0.08c-0.03,0.01-0.07,0.01-0.1,0.03l-0.05,0.02l-0.03,0.01c0.17,0.01-0.26,0-0.22,0l-0.2,0.07
			c-0.27,0.08-0.52,0.22-0.76,0.34c-0.49,0.25-0.93,0.55-1.32,0.87C149.47,194.35,148.63,195.94,148.63,195.94z"/>
	</g>
	<path class="st5" d="M283.68,268.74l0.55-3.12l0.46-3.12l0-0.08c0.08-1.77,0.19-3.55,0.23-5.32c0.03-1.78,0.01-3.55-0.01-5.33
		c-0.02-1.78-0.12-3.56-0.23-5.34c-0.11-1.78-0.22-3.57-0.42-5.34c-0.2-1.78-0.4-3.56-0.67-5.34c-0.23-1.78-0.56-3.56-0.91-5.33
		c-0.35-1.77-0.74-3.54-1.17-5.31c-0.44-1.77-0.93-3.53-1.48-5.28c-0.55-1.75-1.15-3.5-1.82-5.24c-0.33-0.87-0.69-1.74-1.06-2.6
		c-0.39-0.86-0.81-1.71-1.21-2.56c-0.88-1.69-1.79-3.38-2.86-5.02c-1.03-1.65-2.33-3.19-3.66-4.71c-1.43-1.46-2.97-2.85-4.72-4.06
		c-1.79-1.16-3.75-2.19-5.87-2.85c-2.12-0.65-4.38-0.99-6.59-0.84c-0.59,0.03-1.02,0.17-1.45,0.35c-0.44,0.18-0.88,0.43-1.31,0.73
		c-0.88,0.64-1.75,1.48-2.63,2.92c1.75,0.01,3.5-0.03,5.25,0.03c1.75,0.05,3.49,0.39,5.13,1.03c1.64,0.63,3.17,1.5,4.59,2.53
		c1.4,1.05,2.68,2.26,3.87,3.54c1.15,1.32,2.26,2.68,3.21,4.15c0.99,1.44,1.86,2.97,2.71,4.5c0.81,1.55,1.58,3.13,2.27,4.73
		c0.7,1.61,1.34,3.24,1.94,4.88c0.6,1.65,1.14,3.31,1.66,4.98c0.51,1.68,0.98,3.36,1.42,5.06c0.43,1.7,0.84,3.4,1.2,5.11
		c0.39,1.71,0.7,3.43,1.03,5.15c1.26,6.89,2.08,13.86,2.63,20.84v0L283.68,268.74z"/>
	<g>
		<path class="st17" d="M204.67,257.06l2.35,8.03c0.61,2.09,2.58,3.44,4.68,3.21l8.07-0.89c1.69-0.19,3.02-1.33,3.6-2.82
			c1.44-1.09,2.18-3.04,1.61-4.96l-2.35-7.91c-0.61-2.06-2.54-3.4-4.61-3.2l-8.08,0.77c-1.72,0.16-3.08,1.32-3.67,2.84
			C204.84,253.21,204.1,255.14,204.67,257.06z M220.72,261.92c-0.3,0.15-0.62,0.27-0.97,0.31l-5.25,0.58
			c-1.37,0.15-2.65-0.73-3.04-2.09l-1.53-5.22c-0.15-0.52-0.15-1.03-0.04-1.51c0.31-0.16,0.64-0.28,1.01-0.31l5.25-0.5
			c1.35-0.13,2.6,0.74,3,2.08l1.53,5.14C220.83,260.91,220.82,261.43,220.72,261.92z"/>
		<g class="st5">
			<path class="st20" d="M220.72,261.92c0.11-0.49,0.11-1-0.04-1.52l-1.53-5.14c-0.4-1.34-1.65-2.21-3-2.08l-5.25,0.5
				c-0.37,0.03-0.7,0.15-1.01,0.31c0.27-1.19,1.22-2.15,2.5-2.27l5.25-0.5c1.35-0.13,2.6,0.74,3,2.08l1.53,5.14
				C222.58,259.86,221.91,261.3,220.72,261.92z"/>
			<path class="st20" d="M206.27,252.12c-0.35,0.91-0.42,1.95-0.12,2.98l2.35,8.03c0.61,2.09,2.58,3.44,4.68,3.21l8.07-0.89
				c0.8-0.09,1.51-0.41,2.11-0.86c-0.58,1.49-1.9,2.64-3.6,2.82l-8.07,0.89c-2.1,0.23-4.07-1.12-4.68-3.21l-2.35-8.03
				C204.1,255.14,204.84,253.21,206.27,252.12z"/>
		</g>
	</g>
	<g>
		<path class="st17" d="M283,255.97l0.63,8.34c0.16,2.18,1.81,3.9,3.91,4.12l8.08,0.81c1.69,0.17,3.23-0.68,4.1-2.01
			c1.64-0.77,2.76-2.52,2.61-4.52l-0.65-8.22c-0.17-2.14-1.78-3.85-3.85-4.09l-8.06-0.93c-1.72-0.2-3.29,0.65-4.18,2.01
			C283.97,252.24,282.85,253.97,283,255.97z M297.69,264.05c-0.32,0.09-0.66,0.14-1.01,0.1l-5.25-0.53
			c-1.37-0.14-2.44-1.26-2.54-2.68l-0.41-5.43c-0.04-0.54,0.07-1.04,0.28-1.49c0.33-0.09,0.69-0.14,1.05-0.1l5.24,0.6
			c1.35,0.16,2.39,1.27,2.5,2.66l0.42,5.35C298.01,263.09,297.9,263.6,297.69,264.05z"/>
		<g class="st5">
			<path class="st20" d="M297.69,264.05c0.21-0.45,0.32-0.96,0.28-1.5l-0.42-5.35c-0.11-1.39-1.16-2.51-2.5-2.66l-5.24-0.6
				c-0.37-0.04-0.72,0-1.05,0.1c0.51-1.11,1.64-1.85,2.92-1.7l5.24,0.6c1.35,0.16,2.39,1.27,2.5,2.66l0.42,5.35
				C299.95,262.43,298.99,263.69,297.69,264.05z"/>
			<path class="st20" d="M285.6,251.47c-0.53,0.82-0.82,1.82-0.73,2.89l0.63,8.34c0.16,2.17,1.81,3.9,3.91,4.11l8.08,0.81
				c0.8,0.08,1.56-0.09,2.24-0.41c-0.87,1.34-2.41,2.18-4.1,2.01l-8.08-0.81c-2.1-0.21-3.75-1.94-3.91-4.12l-0.63-8.34
				C282.85,253.97,283.97,252.24,285.6,251.47z"/>
		</g>
	</g>
	<path class="st19" d="M218.02,279.46c0,0,36.29,5.53,72.78,0c0,0,4.46,49.02-2.75,57.5c-7.21,8.48-62.77,4.79-71.29,0
		C216.72,313,218.02,279.46,218.02,279.46z"/>
	<path class="st13" d="M218.02,279.46c0,0,1.81,0.27,5.01,0.64l0,0c0,0-1.71,43.4,18.56,49.48c20.27,6.08,49.31,10.33,50.55-17.32
		c-0.14,10.93-1.14,21.21-4.09,24.69c-7.21,8.48-62.77,4.79-71.29,0C216.72,313,218.02,279.46,218.02,279.46z"/>
	<g>
		<path class="st7" d="M94.91,340.21c-0.02-16.56-40.41-30.1-52.33-16.36c-4.07-4.84-1.88-8.19,0.8-10.92
			c0.94-4.94-0.02-14.37,13.35-15.81c13.37-1.43,39.65,6.71,47.23,25.74c2.21,7.39,0.8,10.85-1.4,11.64
			C101.93,339.53,94.91,340.21,94.91,340.21z"/>
		<path class="st8" d="M94.88,340.24c0,0,0.04-0.25,0.1-0.72c0.03-0.24,0.07-0.53,0.12-0.87c0-0.35,0-0.76-0.02-1.24
			c-0.07-0.94-0.25-2.06-0.67-3.32c-0.4-1.26-1.02-2.64-1.89-4.04c-0.9-1.35-1.96-2.8-3.24-4.15c-1.26-1.39-2.71-2.72-4.28-4.02
			c-1.61-1.23-3.34-2.43-5.18-3.51c-1.83-1.1-3.76-2.11-5.75-3.01c-1.98-0.93-4.05-1.73-6.16-2.27c-1.06-0.26-2.13-0.44-3.2-0.58
			c-1.07-0.14-2.13-0.26-3.19-0.29c-2.11-0.11-4.19-0.1-6.2-0.08c-2.01,0.1-4.1-0.55-6.09-0.33c-0.49,0.05-0.96,0.15-1.41,0.29
			c-0.46,0.17-0.89,0.38-1.29,0.62c-0.8,0.47-1.51,1.12-2.1,1.8c-0.6,0.63-1.07,1.42-1.45,2.14c-0.19,0.36-0.34,0.74-0.48,1.08
			c-0.11,0.4-0.23,0.75-0.29,1.12c-0.3,1.43-0.23,2.66-0.04,3.57c0.16,0.87,0.41,1.38,0.39,1.37c0,0,0.17-0.18,0.5-0.5
			c0.16-0.16,0.36-0.37,0.6-0.61c0.24-0.23,0.56-0.45,0.9-0.72c0.17-0.13,0.35-0.27,0.54-0.42c0.2-0.12,0.42-0.25,0.64-0.39
			c0.45-0.27,0.92-0.57,1.48-0.81c0.54-0.26,1.12-0.53,1.77-0.74c0.32-0.11,0.65-0.23,0.98-0.34c0.34-0.09,0.7-0.18,1.05-0.27
			c1.43-0.39,3.03-0.59,4.72-0.75c1.7-0.09,3.49-0.13,5.34,0.02c1.85,0.11,3.75,0.39,5.67,0.74c1.91,0.39,3.84,0.83,5.72,1.44
			c1.89,0.58,3.75,1.27,5.53,2.05c1.79,0.76,3.49,1.65,5.1,2.57c1.59,0.95,3.09,1.94,4.41,3.01c1.35,1.03,2.48,2.18,3.49,3.27
			c0.95,1.14,1.76,2.24,2.32,3.31c0.58,1.06,0.94,2.05,1.16,2.89c0.09,0.42,0.18,0.8,0.25,1.13c0.03,0.33,0.05,0.62,0.07,0.85
			C94.86,339.99,94.88,340.24,94.88,340.24z"/>
	</g>
	<g>
		<g>
			<path class="st21" d="M192.07,200.49c0,4.39,19.35,10.04,34.77,10.04c15.42,0,21.07-5.65,21.07-10.04s-15.74-4.54-31.16-4.54
				C201.33,195.95,192.07,196.1,192.07,200.49z"/>
			<path class="st21" d="M192.07,134.89c0,4.39,19.35,10.04,34.77,10.04c15.42,0,21.07-5.65,21.07-10.04
				c0-4.39-15.74-4.54-31.16-4.54C201.33,130.35,192.07,130.5,192.07,134.89z"/>
			<path class="st21" d="M192.07,200.49c4.94-35.46,0-65.6,0-65.6h55.84c0,0-5.49,41.59,0,65.6H192.07z"/>
		</g>
	</g>
	<g>
		<path class="st7" d="M378.59,294.44c0,0-16.17,9.11-21.83,24.91c-5.66,15.81-3.86,35.94,3.26,40.98c-3.97,5.74-9.63,2.99-12.23,0
			c-2.6-2.99-3.5-5.82-6.94-7.71c-3.44-1.89-10.13-21.9,2.38-41.14c12.51-19.23,31.03-24.7,33.04-23.99
			C378.27,288.21,378.59,294.44,378.59,294.44z"/>
		<path class="st8" d="M378.59,294.44c0,0-0.31,0.07-0.89,0.21c-0.58,0.14-1.43,0.36-2.47,0.73c-1.05,0.35-2.31,0.85-3.71,1.51
			c-1.42,0.64-2.95,1.48-4.59,2.5c-0.41,0.25-0.83,0.52-1.26,0.78c-0.41,0.3-0.82,0.6-1.24,0.9c-0.86,0.6-1.7,1.29-2.57,2
			c-1.77,1.4-3.39,3.17-5.08,5.06c-0.82,0.96-1.6,2-2.35,3.08c-0.68,1.13-1.46,2.24-2.08,3.46c-0.31,0.61-0.63,1.23-0.94,1.85
			l-0.24,0.47l-0.12,0.23l-0.03,0.06l-0.08,0.23l-0.04,0.1l-0.33,0.83l-0.67,1.67c-0.22,0.55-0.44,1.3-0.66,1.95l-0.64,2.01
			l-0.51,1.93c-0.38,1.28-0.57,2.59-0.81,3.87c-0.45,2.58-0.64,5.16-0.65,7.66c0.03,1.25,0.04,2.49,0.15,3.69
			c0.15,1.21,0.26,2.39,0.44,3.54c0.45,2.29,0.93,4.46,1.65,6.44c0.38,1,0.66,1.93,1.11,2.84c0.43,0.9,0.75,1.74,1.36,2.49
			c1.04,1.5,2.45,2.62,3.78,3.26c1.41,0.64,2.62,0.83,3.55,0.75c0.43-0.01,0.78-0.09,1-0.14c0.22-0.05,0.34-0.09,0.34-0.09
			s-0.23-0.2-0.65-0.57c-0.2-0.2-0.5-0.39-0.75-0.71c-0.25-0.32-0.54-0.69-0.87-1.1c-0.58-0.87-1.23-1.97-1.78-3.33
			c-0.57-1.35-1.06-2.93-1.45-4.68c-0.4-1.75-0.69-3.69-0.89-5.74c-0.09-1.03-0.13-2.09-0.19-3.17c-0.01-1.08-0.02-2.19,0-3.31
			c0.08-2.25,0.24-4.57,0.58-6.91c0.18-1.17,0.33-2.35,0.59-3.52l0.36-1.76l0.45-1.74c0.58-2.33,1.37-4.6,2.3-6.77
			c0.44-1.09,1.04-2.11,1.55-3.15c0.59-1,1.17-1.98,1.78-2.92c1.27-1.86,2.58-3.59,3.96-5.13c0.68-0.77,1.35-1.52,2.04-2.2
			c0.67-0.7,1.35-1.35,2.01-1.96c1.31-1.23,2.58-2.28,3.73-3.19c1.15-0.91,2.18-1.65,3.04-2.25
			C377.54,295.03,378.59,294.44,378.59,294.44z"/>
	</g>
	<g>
		<path class="st13" d="M183.44,466.72l1.71,12.21l4.15,1.83l-14.47,47.7c-0.99,3.26-3.88,5.55-7.27,5.83
			c-5.3,0.44-12.75-0.58-15.86-8.82c6.49-31.62,16.28-60.41,16.28-60.41S177.06,468.84,183.44,466.72z"/>
		<path class="st16" d="M183.44,466.72l-12.28,60.29l-11.29,1.96c0,0-17.21-9.86-17.21-27.58c0-17.73,0-42.09,0-42.09l21.4-4.58
			C164.05,454.72,170.6,466.18,183.44,466.72z"/>
		<polygon class="st13" points="183.44,466.72 160.07,477.1 159.86,528.97 171.15,527.01 		"/>
		<path class="st22" d="M142.65,459.31l21.4-4.58c0,0,6.55,11.45,19.38,11.99c0,0-15.69,7.47-23.36,10.38
			C148.43,473.8,142.65,459.31,142.65,459.31z"/>
		<path class="st23" d="M145.88,460.78l17.15-3.93c0,0,5.71,8.49,14.76,10.07l-17.31,8.3C160.47,475.21,150.12,472.81,145.88,460.78
			z"/>
	</g>
	<g>
		<path class="st10" d="M202.35,132.25c-20.22-8.66-20.59-14.22-26.11-28.05c-5.52-13.83-8.85-28.64,0.65-45.21
			c9.5-16.57,28.88-26.02,45.51-26.02c16.63,0,45.78,9.63,52.39,17.18c6.61,7.55,14.72,85.79-20.68,85.79
			C218.69,135.93,209.63,135.37,202.35,132.25z"/>
		<g>
			<path class="st10" d="M188.43,124.67c2.88,9.12,3.82,26.37,3.82,44.82c0,26.16-3.2,27.99-2.41,30.23
				c0.79,2.24,21.77,9.81,43.37,9.81c9.69,0,13.31-7.52,13.31-11.82s0.2-34.05,5.25-48.72c5.05-14.67-17.16-25.33-30.45-27.35
				C208.03,119.64,184.3,111.62,188.43,124.67z"/>
			<path class="st11" d="M211.25,192.51c-6.26-9.45-15.06-24.61-19.17-35.75c-0.38-13.38-1.44-25.11-3.65-32.09
				c-4.13-13.05,19.6-5.03,32.89-3.02c13.29,2.01,35.5,12.68,30.45,27.35c-5.05,14.67-5.25,44.42-5.25,48.72
				s-3.62,11.82-13.31,11.82c-1.34,0-2.68-0.03-4.01-0.08C222.2,206.1,215.5,198.92,211.25,192.51z"/>
		</g>
		<path class="st10" d="M260.48,169.17c-14.58,0-15.75,0.08-28.66-6.35c-12.91-6.42-24.12-9.66-26.96-18.08
			c-2.84-8.42-7.64-39.14-7.64-39.14s-9.76-18.98,1.03-36.61c10.79-17.63,44.9-33.3,76.53-18.86
			c12.28,11.46,12.65,38.01,12.65,38.01s-2.77,12.27-0.86,18.66s2.48,8.38-0.73,26c-3.21,17.62-7.25,30.74-12.61,33.41
			C267.87,168.89,260.48,169.17,260.48,169.17z"/>
		<g>
			<g>
				<defs>
					<path id="SVGID_17_" d="M274.48,93c-1.18,3.37-0.97,8.2-0.47,9.74c2.39,0.83,6.32,0.68,10.3,0.21c0-8.01-0.13-8.71-0.13-8.71
						s-2.15-2.01-5.22-1.88C275.95,92.49,274.48,93,274.48,93z"/>
				</defs>
				<use xlink:href="#SVGID_17_"  style="overflow:visible;opacity:0.5;fill:#FFFFFF;"/>
				<clipPath id="SVGID_6_">
					<use xlink:href="#SVGID_17_"  style="overflow:visible;opacity:0.5;"/>
				</clipPath>
				<g class="st24">
					<path class="st25" d="M284.08,97.5c0.51,4.74-2.34,5.57-5.08,5.23c-3.19-0.39-4.6-0.85-4.89-5.23
						c-0.27-4.03,2.25-4.93,4.99-4.54C282.08,93.38,283.8,94.83,284.08,97.5z"/>
					<circle class="st26" cx="276.86" cy="97.92" r="3.63"/>
				</g>
			</g>
			<path class="st25" d="M278.9,94.78c0,0.8-0.65,1.45-1.45,1.45s-1.45-0.65-1.45-1.45c0-0.8,0.65-1.45,1.45-1.45
				S278.9,93.98,278.9,94.78z"/>
			<path class="st5" d="M273.25,101.04c0.17,0.83-0.26,2.67,4.67,3.07s6.99-1.12,6.99-1.12l-0.51-0.05
				C284.41,102.94,275.57,104.11,273.25,101.04z"/>
			<path class="st26" d="M274.48,93c0,0,2.24-0.68,2.81-2.51c2.97,0.55,5.56,1.34,6.89,3.75C281.56,92.5,278.36,92.08,274.48,93z"/>
		</g>
		<path class="st11" d="M219.54,89.14c-3.22,4.63-6.21,5.29-4.35,14.41c1.86,9.12,13.42,10.16,17.68,15.18
			c4.25,5.01-1.22,4.23,0.22,7.69c1.44,3.46,11.74-7.79,15.62-8.42c3.87-0.63,5.37-2.93,7.22-4.41c1.85-1.49,7.67,4.82,16.99,4.02
			c9.32-0.8,11.17,2.67,14.16,7.7c2.99,5.04-1.01,26.44-21.74,26.44c-20.73,0-50.69-0.45-59.86-23.59
			c-9.17-23.14-14.23-38.23-5.72-52.86c8.51-14.64,18.39-31.19,35.79-29.28c17.4,1.91,42.44,11.2,46.24,20.28
			c1.07,3.37-12.07,2.12-17.63,0.77c1.37,1.78-7.13,2.11-12.24,0.18c-5.11-1.94-6.6-11.83-17.62-11.13c2.75,1,3.83,1.91,4.56,3.16
			c-3.64,0.03-7.83,1.61-8.99,3.21c4.82,0.07,5.27,2.25,4.92,2.99c-0.36,0.74-6.99,2.74-8.1,7.77
			C225.56,78.27,227.17,78.17,219.54,89.14z"/>
		<path class="st16" d="M262.17,68c0,0,0.05,5.53-2.39,12.79c-6.05-1.63-10.09-5.86-24.63,2.26C231.21,79.35,234.5,72,234.5,72
			s13.2-4.4,18.49-5.59C258.27,65.21,262.17,68,262.17,68z"/>
		<path class="st16" d="M275.84,73.72c1.74,5.51-1.46,9.58-2.04,11.74c0,0,9.16-2.3,13.42,3.68c2.19-0.25,3.33-1.57,3.33-1.57
			s0.81-3.28,0.44-6.9c-2.15-3.96-9.17-9.07-10.49-9.07C279.16,71.6,275.84,73.72,275.84,73.72z"/>
		<g>
			<path class="st10" d="M254.92,119.42c0.38,2.61,5.51,2.2,10.87,3.63c5.36,1.43,7.24,2.55,10.17-0.02
				c2.93-2.56,6.43-3.87,4.48-7.89c-1.95-4.02-7.63-19.79-7.88-22.7c-0.26-2.91,1.25-6.98,1.25-6.98s-3.66,3.73-14.02-1.08
				c1.46,8.76-2.49,10.17-2.49,10.17l1.79,16.37C259.08,110.92,253.93,112.6,254.92,119.42z"/>
			<path class="st5" d="M275.96,123.03c-2.93,2.56-4.8,1.45-10.17,0.02c-5.36-1.43-10.5-1.02-10.87-3.63
				c-0.65-4.47,1.35-6.73,2.8-7.75v0c-1.1,1.91-2.15,5.94,0.49,6.2c2.63,0.27,6.79-0.37,10.57,0.16c3.79,0.53,8.73,1.67,10.85-0.04
				c1.22-0.99,0.75-2.02,0.84-2.78C282.34,119.17,278.87,120.48,275.96,123.03z"/>
			<path class="st22" d="M271.21,88.54c0,0,0.29,1.47-0.14,2.88c1.17,0,1.49,1.03,1.49,1.03c0.25,2.89,5.84,18.41,7.83,22.58
				c0,3.02-1.96,3.21-4.04,3.09c-3-0.18-1.96-3.39-2.79-6.84c-0.76-3.15-2.48-6.05-3.66-12.35c-1.18-6.3-2.36-6.1-4-7.37
				C268.27,91.62,270.38,91.24,271.21,88.54z"/>
			<path class="st22" d="M271.04,96.22c0.48,2.66,0.67,9.4,4.31,13.26c-3.11-1.16-4.31-4.85-4.39-7.75
				C270.87,98.82,271.04,96.22,271.04,96.22z"/>
		</g>
		<path class="st16" d="M272.73,123.42c-6.12,0-20.17-5.22-23.91-4.43c-3.74,0.79-16.1,13.31-16.1,13.31l-17.86-8.88l-5.06-32.76
			l8.36-14.44c0,0-0.88-7.08,15.63-11.13c-1.01-2.08-9.12,0.58-9.12,0.58s3.66-7.23,13.02-7.23c-1.29-2.21-10.04-0.97-10.04-0.97
			s9.31-5.99,18.05,1.11c8.74,7.1,15.43,7.91,20.23,6.21c-2.84-1.16-7.36-4.12-9.01-7.3c5.14,4.25,22.19,10.69,32.92,8.49
			c10.73-2.2,12.03-10.25,10.91-12.44c-1.12-2.19-4.99-1.35-6.87,1.39c0,0,0.57-6.08-6.22-5.12c-6.79,0.96-5.5,2.09-14.46-3.65
			c-8.96-5.75-32.17-19.87-57.38-17.89c-41.59,3.27-36.85,18.98-42.04,27.48c-5.19,8.51-11.91,22.09-7.53,31.96
			c4.38,9.87,6.93,24.39,11.37,30.8c4.45,6.41,8.92,11.27,9.06,17.13c0.78,2.71,4.33,3.56,4.33,3.56s4.6-11.77,8.49-14.65
			c0.01,7.8-5.54,24.62-5.54,24.62l8.74,9.33l39.04,20.88l40.32-2.95l7.78-7.53l-3.04-11.66l4.18-5.11l2.15-13.48L291.79,128
			c0,0-9.17-8.18-11.01-8.11C278.94,119.96,276.54,123.42,272.73,123.42z"/>
		<polygon class="st27" points="209.81,90.66 206.91,96.96 211.04,127.87 212.58,125.39 232.72,132.3 214.87,123.42 		"/>
		<polygon class="st27" points="274.4,146.94 281.34,165.05 270.63,146.88 		"/>
		<path class="st10" d="M197.32,117.23c-7.26,0-10.25-4.33-14.17-15.06c-3.92-10.73-0.04-13.56,3.45-15.76c3.49-2.2,9,2.34,9,2.34
			l3.45,27.74C199.04,116.49,198.64,117.23,197.32,117.23z"/>
		<path class="st11" d="M196.08,92.7l2.96,23.79c0,0-0.4,0.74-1.72,0.74c-7.26,0-10.25-4.33-14.17-15.06
			c-2.01-5.49-1.96-8.9-0.99-11.23c0.28-0.14,0.56-0.27,0.84-0.41C186.6,88.83,193.26,91.44,196.08,92.7z"/>
		<path class="st11" d="M228.1,143.43l13.04,0.83l8.07-4.49l0.27-3.38l9.57-3.12l1.99-3.09l-0.93,3.27l7.19-0.67l1.75-2.95
			l-0.39,3.14l3.68-0.19l1.1-1.78l0.8,2l4.4,0.84l-0.2-1.44l1.58,2.08l3.21,2.05l2.5,14.46l0,0l2.39,2.45l2.86-1.31l-4.18,5.11
			c0,0-3.54-8.35-5.85-13.81c-1.12-2.65-1.95-4.62-1.96-4.62c-0.04-0.21-2.2-0.45-2.39-0.48c-2.33-0.36-4.68-0.52-7.03-0.56
			c-3.61-0.06-7.23,0.18-10.81,0.63c-1.1,0.14-2.2,0.3-3.29,0.48c-0.4,0.07-1.1,0.04-1.44,0.25c-0.34,0.2-0.6,0.85-0.78,1.18
			c-0.99,1.83-1.46,3.89-1.92,5.9c-0.61,2.67-1.21,5.34-1.55,8.06c-0.23,1.86-1.26,1.58-1.97,3.34c-0.46,1.13-0.98,2.24-1.39,3.4
			l2.1-13.11l-8.6,1.02l-13.46-3.33l-3.68-8.11L228.1,143.43z"/>
		<g>
			<g>
				<defs>
					<path id="SVGID_19_" d="M251.36,93c1.18,3.37,0.97,8.2,0.47,9.74c-2.39,0.83-8.82,0.68-12.8,0.21c0-8.01,1.93-9.62,1.93-9.62
						s3.32-1.76,6.39-1.76C250.42,91.57,251.36,93,251.36,93z"/>
				</defs>
				<use xlink:href="#SVGID_19_"  style="overflow:visible;opacity:0.5;fill:#FFFFFF;"/>
				<clipPath id="SVGID_7_">
					<use xlink:href="#SVGID_19_"  style="overflow:visible;opacity:0.5;"/>
				</clipPath>
				<path class="st28" d="M240.2,97.45c-0.58,4.74,2.7,5.57,5.86,5.23c3.68-0.39,5.31-0.85,5.64-5.23c0.31-4.03-2.6-4.93-5.75-4.54
					C242.51,93.33,240.53,94.77,240.2,97.45z"/>
				<path class="st29" d="M241.07,97.86c0,2,1.62,3.63,3.63,3.63s3.63-1.62,3.63-3.63c0-2-1.62-3.63-3.63-3.63
					S241.07,95.86,241.07,97.86z"/>
			</g>
			<path class="st26" d="M240.96,93.33c4.39-3.44,13.71-2.4,13.71-2.4L251.36,93C251.36,93,248.8,91.19,240.96,93.33z"/>
			<path class="st25" d="M242.36,94.78c0,0.8,0.65,1.45,1.45,1.45c0.8,0,1.45-0.65,1.45-1.45c0-0.8-0.65-1.45-1.45-1.45
				C243.01,93.33,242.36,93.98,242.36,94.78z"/>
			<path class="st5" d="M252.19,97.51c0,0,0.82,3.56,0.94,4.88c0.87-0.37,1.59-1.35,1.59-1.35s0.3,2.67-5.52,3.07
				c-5.82,0.39-12.58-0.96-12.58-0.96l2.42-0.21c0,0,11.17,0.76,12.12-0.4C252.1,101.37,252.19,97.51,252.19,97.51z"/>
		</g>
		<g>
			<path class="st11" d="M278.18,144.15l-3.77,2.79l-12.28-0.18l-6.5-3c0,0-3.83-2.9-1.57-4.62
				C258.83,139.47,278.18,144.15,278.18,144.15z"/>
			<g>
				<path class="st10" d="M254.05,139.14c0,0-0.58,3.72,6.06,4.54c6.64,0.82,15.9,0.47,18.06,0.47c1.03,0,2.05-2.47,2.05-2.47
					s-0.72-2.24-1.21-2.85c-0.48-0.61-3.39-1.41-7.82-1.41c-4.43,0-11.67,0.6-13.12,0.76C256.62,138.33,254.05,138.31,254.05,139.14
					z"/>
				<path class="st11" d="M278.18,144.15c-2.16,0-11.42,0.35-18.06-0.47c-6.64-0.82-6.06-4.54-6.06-4.54c0-0.84,2.57-0.82,4.02-0.97
					c0.53-0.06,1.83-0.17,3.48-0.3c-1.55,0.46-0.77,2.88-0.27,4.14c0.5,1.27,10.68,0.09,13.08,0.3c2.4,0.22,4.49,1.05,5.86-0.64
					C280.22,141.68,279.2,144.15,278.18,144.15z"/>
			</g>
		</g>
	</g>
	<g>
		<path class="st30" d="M264.08,826.22c-10.7,0-15.47,4.72-15.47,4.72l4.2,6.61l-0.76,21.95h30.18l-4.78-24.54l3.25-5.43
			C280.7,829.52,277.71,826.22,264.08,826.22z"/>
		<path class="st30" d="M248.6,859.49c0,0,3.25-16.64,26.55-16.64c9.93,0,26.94,6.96,26.94,6.96l6.88-1.65l4.39,3.01l2.1,8.32H248.6
			z"/>
		<polygon class="st31" points="248.6,859.49 247.49,867.98 317,867.98 315.47,859.49 		"/>
		<path class="st11" d="M275.16,842.85c3.08,0,6.83,0.67,10.55,1.59c0,0,0,0,0,0c-5.69-0.1-13.8,4.03-17.11,15.04h-8.79
			C262.23,845.02,275.16,842.85,275.16,842.85z"/>
		<path class="st11" d="M287.45,844.9c2.26,0.61,4.45,1.28,6.44,1.94c-6.58,5.28-6.02,12.66-6.02,12.66h-11.37
			C276.49,859.49,279.17,847.34,287.45,844.9z"/>
		<path class="st11" d="M280.7,829.52l-3.25,5.43c-16.72-6.02-24.64,2.6-24.64,2.6l-4.2-6.61c0,0,4.78-4.72,15.47-4.72
			C277.71,826.22,280.7,829.52,280.7,829.52z"/>
		<path class="st22" d="M306.73,852.72l-14.79,3.07c0,0,0.71-3.38,3.78-4.25c-17.85-5.98-27.53-7.63-39.34-3.33
			c3.99-2.97,9.94-5.37,18.78-5.37c9.93,0,26.94,6.96,26.94,6.96l6.88-1.65l4.39,3.01l2.1,8.32h-4.88l-1.1-5.27L306.73,852.72z"/>
	</g>
	<g>
		<path class="st30" d="M101.99,826.22c10.7,0,15.47,4.72,15.47,4.72l-4.2,6.61l0.76,21.95H83.84l4.78-24.54l-3.25-5.43
			C85.37,829.52,88.36,826.22,101.99,826.22z"/>
		<path class="st30" d="M121.33,859.49c0,0-2.12-16.64-17.29-16.64c-6.47,0-22.02,5.31-22.02,5.31l-2.86,3.01l-1.37,8.32H121.33z"/>
		<path class="st22" d="M102.98,848.79c-7.46,0-23.84,2.38-23.84,2.38l2.86-3.01c0,0,15.55-5.31,22.02-5.31
			c10.89,0,15.04,8.54,16.53,13.38C118.03,852.79,112.96,848.79,102.98,848.79z"/>
		<polygon class="st31" points="121.62,859.49 122.35,867.98 76.78,867.98 77.78,859.49 		"/>
		<path class="st11" d="M85.37,829.52l3.25,5.43c16.72-6.02,24.64,2.6,24.64,2.6l4.2-6.61c0,0-4.78-4.72-15.47-4.72
			C88.36,826.22,85.37,829.52,85.37,829.52z"/>
	</g>
	<g>
		<path class="st7" d="M173.56,109.48c1.62-25.03,20.6-41.68,40.32-52.57c25.8-14.25,56.21-12.2,61.47-9.37l1.36,0.85
			c0,0,1.46-1.82-4.81-5.87c-6.27-4.05-19.02-23.05-41.22-23.05c-22.2,0-44.6,5.4-53,16.6s-18.2,17.8-18.8,34.4
			c-0.6,16.6,10.67,31.54,11.57,35.4C171.35,109.7,173.56,109.48,173.56,109.48z"/>
		<path class="st27" d="M271.9,42.5c-31.38-7.65-64.98,12.15-64.98,12.15s-0.84-4.2-7.14-12c-6.3-7.8-6.6-10.8-3.03-18.4
			c9.88-3.22,21.93-4.8,33.93-4.8C252.88,19.45,265.63,38.45,271.9,42.5z"/>
		<path class="st7" d="M206.91,54.65c21.36-24.8,21.71-42.5,45.61-48.9c23.91-6.4,43.17,6.97,45.57,14.17s-21.38,28.45-21.38,28.45
			s-26.12-11.48-67.2,11.05C205.93,60.8,206.91,54.65,206.91,54.65z"/>
		<path class="st11" d="M177.65,86.26c4.95-9.57,9.67-13.01,16.28-18.63c6.58-5.61,12.93-8.76,17.22-12.94
			c18.63-24.11,22.3-36.98,45.13-43.24c19.8-5.43,36.68,1.72,41.27,7.15c0.22,0.43,0.4,0.88,0.55,1.32
			c2.29,6.87-20.02,25.31-21.28,28.21c-0.04,0.16-0.1,0.24-0.1,0.24s-5.66-2.48-15.85-2.87c-5.61-0.05-12.36,0.43-19.58,1.79
			c-9.13,1.92-19.8,5.57-31.73,12.11c-18.09,10.89-34.49,26.88-35.99,50.07c0,0-1.97,0.2-2.94-3.03
			C170.49,101.58,173.65,94,177.65,86.26z"/>
	</g>
	<path class="st13" d="M169.41,364.99c-1.96-0.81-3.71-1.86-5.48-3.01c-0.18-0.11-0.02-0.39,0.17-0.28
		c5.58,3.26,11.1,4.58,17.55,4.27c0.66-0.03,0.73,0.79,0.3,1.12c-3.15,2.4-6.39,4.14-9.99,5.42c2.13,0.78,3.74,2.41,4.55,4.9
		c2.18,6.72,2.09,14.81,3,21.79c1.07,8.26,2.25,16.53,3.09,24.82c0.72,7.15,1.61,15.1-0.24,22.12c-0.35,1.32-2.41,1.06-2.38-0.32
		c0.11-5.85,0.79-11.54,0.44-17.43c-0.33-5.53-1.02-11.04-1.64-16.54c-0.65-5.75-1.27-11.5-1.9-17.25
		c-0.6-5.54,0.38-21.05-8.1-21.13c-0.83-0.01-1.03-1.26-0.2-1.47c2.73-0.67,7.55-1.44,9.37-3.64c0.39-0.47,0.72-0.76,0.98-0.94
		c-0.36-0.01-0.86-0.11-1.54-0.38C174.92,366.02,171.95,366.05,169.41,364.99z"/>
	<g>
		<g>
			<path class="st10" d="M60.49,477.96c-1.73,0.6-1.25,2.04-1.3,4.9c-0.05,2.86-1.94,7.45-1.17,9.48s4.64,1.77,5.48,0.04
				c0.84-1.72-0.06-5.04,0.52-7.39c0.58-2.35,1.6-3.81,0.68-5.23C63.77,478.33,62.4,477.29,60.49,477.96z"/>
			<path class="st10" d="M58.12,492.71c0.55,2.44,0.8,5.51,0.89,6.93s0.44,2.73,2.65,2.69c2.2-0.04,2.8-1.72,2.47-3.45
				c-0.33-1.72-1.1-4.58-0.73-5.93c0.37-1.35-0.52-3.07-2.54-3.01C58.83,489.99,57.59,490.39,58.12,492.71z"/>
			<path class="st10" d="M59.59,501.55c0.65,1.6,0.61,2.57,0.87,3.87c0.26,1.3,0.31,2.02,1.53,2.26c1.22,0.24,3.02,0.1,3.6-1.06
				c0.58-1.17,0.73-1.59,0.67-2.05c-0.07-0.46-0.41-1.23-1.07-2.33c-0.67-1.1-0.6-2.21-2.18-2.55
				C61.42,499.34,58.98,500.02,59.59,501.55z"/>
			<path class="st32" d="M60.71,503.93c0.16-0.78,2.43-1.24,2.8-0.91c0.51,1.33,0.98,3.21,0.98,3.21s-1.75-0.13-3.12,0.67
				C61.04,505.71,60.71,503.93,60.71,503.93z"/>
		</g>
		<path class="st10" d="M93.92,459.21c-2.67-1.73-6.64-2.41-9.8-2.66c-3.01-0.25-5.97,0.9-8.01,3.12
			c-4.88,5.32-14.15,15.66-15.8,19.22c2.61,4.7,26.99,6.09,26.99,6.09S95.83,475.34,93.92,459.21z"/>
		<g>
			<path class="st10" d="M64.81,477.98c-1.97,0.68-1.43,2.32-1.49,5.57c-0.06,3.25-2.21,8.47-1.34,10.8
				c0.87,2.32,5.29,2.01,6.24,0.05c0.96-1.96-0.07-5.74,0.59-8.41c0.66-2.67,1.82-4.33,0.77-5.96
				C68.55,478.41,66.99,477.23,64.81,477.98z"/>
			<path class="st10" d="M62.11,494.78c0.63,2.78,0.91,6.27,1.01,7.88c0.1,1.61,0.5,3.1,3.01,3.06c2.51-0.04,3.19-1.96,2.81-3.92
				c-0.38-1.96-1.25-5.21-0.83-6.75c0.42-1.53-0.59-3.49-2.89-3.43C62.92,491.68,61.52,492.14,62.11,494.78z"/>
			<path class="st10" d="M63.79,504.84c0.74,1.83,0.69,2.93,0.99,4.41c0.29,1.48,0.35,2.3,1.74,2.57c1.38,0.27,3.44,0.12,4.1-1.21
				c0.66-1.33,0.84-1.81,0.76-2.34c-0.08-0.52-0.46-1.4-1.22-2.65c-0.76-1.25-0.68-2.51-2.48-2.9
				C65.87,502.33,63.09,503.11,63.79,504.84z"/>
			<path class="st32" d="M65.06,507.56c0.18-0.88,2.76-1.41,3.19-1.04c0.58,1.51,1.12,3.65,1.12,3.65s-2-0.15-3.55,0.76
				C65.43,509.58,65.06,507.56,65.06,507.56z"/>
			<path class="st32" d="M63.81,504.9c-0.2-0.42-0.21-0.85-0.22-1.27c0-0.42,0.07-0.82,0.14-1.28c0.15-0.9,0.25-1.81,0.3-2.72
				c0.08-0.91,0.08-1.82,0.08-2.74c0-0.46-0.01-0.93-0.05-1.39l-0.06-0.7l-0.04-0.35l-0.01-0.3l-0.15-0.45l0-0.01v0v0l0,0
				c-0.01-0.03,0.1,0.29,0.05,0.15l0,0l-0.01-0.07l-0.04-0.27l-0.02-0.14c0.01-0.02,0.02-0.03,0.02-0.04
				c0.02-0.02,0.03-0.04,0.04-0.06c0.04-0.13,0.05-0.44,0.11-0.71c0.04-0.27,0.12-0.58,0.2-0.89c0.08-0.31,0.17-0.63,0.26-0.95
				c0.21-0.65,0.36-1.33,0.57-2.03c0.2-0.7,0.38-1.43,0.5-2.2c0.06-0.38,0.12-0.79,0.14-1.2c0.02-0.43,0.05-0.84,0.02-1.31
				c-0.02-0.5-0.06-0.79-0.13-1.2l-0.21-1.13c-0.16-0.72-0.21-1.37-0.44-1.8c-0.08-0.21-0.24-0.34-0.31-0.62
				c-0.07-0.28,0.03-0.7,0.24-1.21c-0.34,0.13-0.67,0.29-0.92,0.55c-0.26,0.26-0.4,0.61-0.48,0.96c-0.14,0.71-0.1,1.44-0.1,2.17
				c0.01,0.72,0.04,1.45,0,2.17c-0.04,0.72-0.15,1.44-0.29,2.15c-0.27,1.43-0.63,2.83-0.91,4.25c-0.14,0.71-0.26,1.43-0.31,2.15
				c-0.03,0.36-0.03,0.73,0,1.09c0.04,0.36,0.1,0.72,0.27,1.05l0,0c0.06,0.44,0.18,0.86,0.25,1.3l0.22,1.3
				c0.13,0.87,0.24,1.75,0.33,2.63c0.09,0.88,0.17,1.76,0.22,2.64C63.15,503.26,63.24,504.2,63.81,504.9z"/>
		</g>
		<path class="st10" d="M90.42,480.09c4.53-3,10.73-2.88,12.29,0.62c0.87,4.55,1.84,6.61,3.99,7.83c2.15,1.22,9,1.1,11.9-0.7
			c2.9-1.8,3.54-5.86,1.92-7.6c-1.8,0.41-6.21-0.46-6.21-0.46s-0.29-0.87-2.26-1.86c-1.97-0.99-3.61-2.92-4.77-7.74
			c-0.58-2.44-2.32-1.68-4.93-2.9c-2.61-1.22-6.27-4.12-8.42-8.07c-2.79,1.22-7.5,9.22-6.92,14.32
			C87.59,478.64,88.87,481.12,90.42,480.09z"/>
		<path class="st32" d="M114.31,479.78c-1.33,0.73-2.76,3.16-2.79,3.66c1.45,0.58,4.88,0.9,4.88,0.9s1.86-3.28,3.14-3.99
			C117.56,480.25,114.31,479.78,114.31,479.78z"/>
		<g>
			<path class="st10" d="M69.38,477.94c-2.29,0.79-1.33,3.71-1.57,7.08c-0.23,3.37-2.15,9.29-2.32,11.67
				c-0.17,2.38,1.17,2.87,4.25,2.63c3.08-0.24,2.68-0.96,4.1-7.85c0.7-3.37,3.68-7.7,4.22-9.75
				C78.6,479.66,75.47,475.85,69.38,477.94z"/>
			<path class="st10" d="M65.61,497.49c0.27,3.16,0.04,7.06-0.1,8.85c-0.14,1.79,0.08,3.5,2.85,3.84s3.82-1.68,3.7-3.9
				c-0.12-2.22-0.58-5.94,0.12-7.57c0.7-1.63-0.12-3.94-2.66-4.23C66.97,494.19,65.35,494.49,65.61,497.49z"/>
			<path class="st10" d="M65.41,508.39c0.26,2.18-0.11,3.35-0.22,5.02c-0.12,1.67-0.29,2.57,1.12,3.27c1.41,0.7,3.66,1.13,4.75-0.11
				c1.1-1.23,1.43-1.71,1.5-2.29c0.07-0.59-0.09-1.64-0.54-3.2c-0.45-1.56,0-2.9-1.82-3.84C68.38,506.29,65.16,506.32,65.41,508.39z
				"/>
			<path class="st32" d="M65.99,511.67c0.45-0.9,3.38-0.71,3.73-0.18c0.18,1.79,0.14,4.25,0.14,4.25s-2.1-0.74-4.04-0.21
				C65.8,513.96,65.99,511.67,65.99,511.67z"/>
			<path class="st32" d="M65.41,508.39c0.03-0.26,0.12-0.5,0.26-0.68l0.01-0.09c0.11-0.4,0.17-0.77,0.25-1.14
				c0.09-0.38,0.21-0.78,0.31-1.17c0.21-0.79,0.4-1.58,0.52-2.38c0.14-0.8,0.27-1.6,0.38-2.42c0.1-0.81,0.22-1.63,0.25-2.47
				l-0.12-0.55c0.02-0.05,0.03-0.27,0.09-0.56c0-0.01,0.02-0.13,0.02-0.05l0.04-0.16l0.07-0.32l0.15-0.5l0.75-2.42
				c0.26-0.83,0.56-1.67,0.79-2.53c0.22-0.87,0.52-1.73,0.66-2.65c0.15-0.92,0.34-1.85,0.32-2.9l0-0.19c0.01-0.15,0-0.14,0-0.21
				l-0.02-0.33l-0.05-0.75c-0.03-0.5-0.13-0.95-0.21-1.4c-0.17-0.88-0.29-1.7-0.45-2.33c-0.1-0.33-0.21-0.58-0.3-0.89
				c-0.09-0.32-0.06-0.76,0.22-1.35c-0.41,0.15-0.8,0.4-1.05,0.76c-0.25,0.36-0.39,0.79-0.45,1.23c-0.13,0.87-0.07,1.76-0.06,2.64
				c0.03,0.88,0.04,1.76-0.04,2.64c-0.08,0.88-0.22,1.75-0.4,2.61c-0.35,1.73-0.78,3.43-1.19,5.14c-0.2,0.86-0.4,1.71-0.56,2.58
				c-0.14,0.86-0.31,1.77,0,2.61v0c0.1,1.58,0.09,3.16,0.04,4.74c-0.02,0.79-0.06,1.58-0.11,2.37c-0.07,0.79-0.09,1.58-0.08,2.37v0
				C65.41,507.87,65.38,508.13,65.41,508.39z"/>
		</g>
		<g>
			<path class="st10" d="M87.3,484.98c-3.54,6.39-4.25,9.77-5.7,14.06c-1.45,4.3-9.11,1.76-8.06-1.78c1.04-3.54,1.29-2.24,2.27-6.47
				c0.99-4.23,1.35-5.76,1.41-8.02c0.06-2.26,2.95-3.77,5.85-3.19C85.97,480.17,89.47,481.07,87.3,484.98z"/>
			<path class="st10" d="M76.96,495.57c3.8,0.42,5.11,3.14,3.77,5.28c-1.34,2.15-1.79,5.42-1.9,6.52c-0.24,2.33-0.83,3.14-3.66,3.09
				c-2.84-0.05-3.79-1.51-2.94-4.12c0.85-2.61,1.44-5.83,1.17-7.69C73.13,496.79,74.29,495.28,76.96,495.57z"/>
			<path class="st10" d="M78.89,514.86c-0.3-3.3-0.35-3.88-0.26-5.43c0.1-1.54-1.45-3.78-4.13-3.46c-2.68,0.32-3,3.3-2.6,3.89
				c0.4,0.58,0.5,1.28,0.14,3.35c-0.36,2.06-0.68,2.65-0.15,3.43c0.52,0.78,2.12,1.88,5.09,0.82
				C78.39,516.72,78.89,514.86,78.89,514.86z"/>
			<path class="st32" d="M76.09,511.21c-1.45-1.23-3.41,0.19-3.41,0.19l-0.43,4.59c0,0,2.71-0.37,4.03-0.3
				C77.07,513.73,76.79,511.81,76.09,511.21z"/>
			<path class="st32" d="M71.9,509.86c-0.09-0.29-0.01-0.58,0.06-0.85c0.09-0.27,0.2-0.53,0.32-0.77l0.02-0.13
				c0.07-0.43,0.21-0.84,0.4-1.23c0.19-0.37,0.44-0.83,0.65-1.28c0.42-0.9,0.74-1.83,1.04-2.79c0.29-0.96,0.54-1.94,0.68-3.03
				c0.03-0.27,0.06-0.56,0.06-0.85c0.01-0.29-0.04-0.7,0-0.68c0.03-0.22,0.12-0.37,0.21-0.47l0.1-0.26
				c0.17-0.39,0.34-0.79,0.53-1.13c0.19-0.36,0.35-0.63,0.6-1.06c0.25-0.44,0.53-1.01,0.73-1.51c0.2-0.5,0.38-0.99,0.53-1.46
				c0.16-0.47,0.31-0.95,0.42-1.39l0.37-1.35c0.26-0.9,0.47-1.82,0.63-2.8c0.2-0.96,0.28-2.02,0.26-3.07l-0.02-0.77
				c-0.04,0.18,0.01-0.56-0.02-0.35c-0.05,0.1-0.06,0.01-0.06-0.06c0.01-0.07,0.02-0.15,0.06-0.24c0.15-0.38,0.63-0.78,1.22-1.21
				c0.3-0.21,0.63-0.46,1.02-0.7l1.36-0.84c-0.91-0.17-1.86-0.17-2.76,0.06c-0.89,0.22-1.76,0.66-2.37,1.36
				c-0.31,0.34-0.54,0.76-0.64,1.21c-0.11,0.45-0.08,0.92-0.12,1.38c-0.06,0.92-0.2,1.84-0.38,2.75c-0.37,1.82-0.79,3.62-1.23,5.42
				c-0.23,0.9-0.5,1.79-0.92,2.62c-0.43,0.82-0.75,1.69-1.02,2.58v0c-0.2,0.43-0.28,0.91-0.26,1.38c0.05,0.47,0.11,0.94,0.1,1.42
				c-0.01,0.95-0.13,1.89-0.29,2.83c-0.16,0.93-0.38,1.86-0.64,2.77c-0.25,0.91-0.64,1.81-0.59,2.77v0
				c-0.09,0.28-0.15,0.57-0.17,0.86C71.76,509.29,71.75,509.6,71.9,509.86z"/>
		</g>
	</g>
	<g>
		<path class="st10" d="M429.12,231.08c3.87,0.23,10.96-4.33,14.33-7.63c3.37-3.3,6.07-3.6,8.92,0c2.85,3.6,14.25,27.6,12.3,32.85
			c-1.95,5.25-8.4,10.2-13.8,11.85c-5.4,1.65-11,8.31-12.92,11.85c-1.92,3.54-16.47-11.93-12.24-14.53
			c4.23-2.6,2.04-7.93,0.77-10.99c-1.27-3.06-5.19-8.11-4.27-14.61C423.14,233.37,425,230.84,429.12,231.08z"/>
		<path class="st10" d="M448.32,220.87c-3.7,2.29-2.7,5.43,0.45,8.28c3.15,2.85,6.9,1.99,8.55-1.85s10-11.6,10.9-12.1s3.5-3.7,0-7.7
			c-3.5-4-11.35,2.2-12.45,4.7C454.66,214.69,450.83,219.31,448.32,220.87z"/>
		<path class="st10" d="M456.46,218.51c4.11-1.08,5,2.89,7.9,5.99c2.9,3.1,5.21,5.38,3.85,9.39c-1.35,4.01-5.85,3.61-7.85,0.51
			c-2-3.1-5.71-3.78-6.85-7.36C452.36,223.44,451.86,219.72,456.46,218.51z"/>
		<path class="st10" d="M459.56,227.21c3.53-1.08,4.29,2.89,6.78,5.99c2.49,3.1,4.47,5.38,3.31,9.39c-1.16,4.01-5.03,3.61-6.74,0.51
			c-1.72-3.1-4.9-3.78-5.88-7.36C456.04,232.14,455.61,228.42,459.56,227.21z"/>
		<path class="st10" d="M465.41,238.17c3.08,0.2,2.51,3.53,3.54,6.7c1.03,3.17,1.91,5.53-0.19,8.33c-2.1,2.8-5.01,1.34-5.43-1.6
			c-0.43-2.94-2.72-4.41-2.43-7.51C461.19,241,461.96,237.95,465.41,238.17z"/>
		<g>
			<g>
				<path class="st33" d="M415.03,219.73c-2.59,4.12,0.3,10.6,6.46,14.47c6.16,3.87,13.25,3.66,15.84-0.46
					c2.59-4.12-0.3-10.6-6.46-14.47C424.71,215.4,417.62,215.61,415.03,219.73z"/>
				
					<ellipse transform="matrix(0.5321 -0.8467 0.8467 0.5321 52.6818 470.661)" class="st33" cx="452.15" cy="187.67" rx="10.26" ry="16.89"/>
				<polygon class="st33" points="415.99,214.24 438.21,178.17 466.45,196.66 442.08,230.63 				"/>
				<path class="st33" d="M415.99,214.24c-3.01,4.8,0.38,12.36,7.59,16.88c7.2,4.53,15.49,4.31,18.5-0.49
					c3.01-4.8-0.38-12.36-7.59-16.88C427.29,209.22,419.01,209.44,415.99,214.24z"/>
			</g>
			<path class="st11" d="M420.56,228.84l23.48-34.38c0.82,0.67,1.71,1.3,2.65,1.89c4.98,3.13,10.33,4.33,14.37,3.6l0.01,0l-21.4,33
				c-3.9,2.36-10.33,1.78-16.09-1.84C422.48,230.43,421.47,229.66,420.56,228.84z"/>
			
				<ellipse transform="matrix(0.5321 -0.8467 0.8467 0.5321 52.6818 470.661)" class="st27" cx="452.15" cy="187.67" rx="10.26" ry="16.89"/>
			<path class="st11" d="M444.02,180.55L457.4,194l-8.83,3.43c-0.63-0.33-1.26-0.68-1.88-1.07c-5.64-3.54-9.25-8.58-9.77-12.92
				L444.02,180.55z"/>
			<g>
				<path class="st34" d="M444.02,180.55c-1.82,2.89,0.78,7.79,5.79,10.94c5.01,3.15,10.55,3.36,12.37,0.47
					c1.82-2.89-0.78-7.79-5.79-10.94C451.37,177.87,445.84,177.66,444.02,180.55z"/>
				<polygon class="st34" points="444.02,180.55 450.14,168.68 470.79,181.66 462.18,191.96 				"/>
				<path class="st34" d="M450.14,168.68c-1.82,2.89,1.33,8.14,7.04,11.72c5.7,3.58,11.8,4.14,13.61,1.25
					c1.82-2.89-1.33-8.14-7.04-11.72C458.05,166.35,451.95,165.79,450.14,168.68z"/>
				<path class="st27" d="M450.14,168.68c-1.82,2.89,1.33,8.14,7.04,11.72c5.7,3.58,11.8,4.14,13.61,1.25
					c1.82-2.89-1.33-8.14-7.04-11.72C458.05,166.35,451.95,165.79,450.14,168.68z"/>
				<path class="st11" d="M454.73,168.75l13.18,9.76l-8.3,3.22c-0.81-0.39-1.63-0.83-2.43-1.33c-4.49-2.82-7.38-6.67-7.53-9.59
					L454.73,168.75z"/>
			</g>
			<g>
				<path class="st34" d="M454.73,168.75c-1.39,2.21,0.65,5.98,4.54,8.42c3.89,2.45,8.18,2.64,9.56,0.44
					c1.39-2.21-0.65-5.98-4.54-8.42C460.4,166.74,456.12,166.54,454.73,168.75z"/>
				<path class="st34" d="M459.27,159.48c-1.61,2.56,0.75,6.95,5.28,9.79c4.53,2.85,9.51,3.07,11.12,0.51
					c1.61-2.56-0.75-6.95-5.28-9.79C465.85,157.14,460.88,156.92,459.27,159.48z"/>
				<polygon class="st34" points="454.73,168.75 459.27,159.48 475.66,169.79 468.83,177.61 				"/>
			</g>
			<path class="st35" d="M459.27,159.48c-1.61,2.56,0.75,6.95,5.28,9.79c4.53,2.85,9.51,3.07,11.12,0.51
				c1.61-2.56-0.75-6.95-5.28-9.79C465.85,157.14,460.88,156.92,459.27,159.48z"/>
			<path class="st36" d="M463.51,159.56c-1.09,1.73,0.38,4.62,3.29,6.44c2.9,1.83,6.14,1.9,7.23,0.17c1.09-1.73-0.38-4.62-3.29-6.44
				C467.84,157.9,464.6,157.82,463.51,159.56z"/>
			<path class="st11" d="M465.7,159.38l6.93,5.14l-9.56,3.71c-2.35-1.85-3.88-4.1-4.22-6.07L465.7,159.38z"/>
			<path class="st34" d="M431.23,230.89c0,0,8.54,23.2,12.77,42.8l9.93-11.7l-16.5-41.7L431.23,230.89z"/>
			<polygon class="st27" points="437.43,220.29 453.93,261.99 453.38,262.64 437.2,220.68 			"/>
			<polygon class="st33" points="445,207.34 455.53,209.59 465.18,261.99 453.93,261.99 437.43,220.29 			"/>
			<path class="st11" d="M462.68,248.39c0,0-2.06-0.98-3.46-0.69c-1.4,0.29-7.98-0.96-7.54-8.16c-1.01-0.35-1.53-0.76-1.53-0.76
				l-0.67-4.12l7.85,0.83l4.68,9.21L462.68,248.39z"/>
			<polygon class="st11" points="456.18,219.47 447.68,223.7 445,207.34 449.08,204.34 			"/>
			<polygon class="st5" points="437.43,220.29 445,207.34 453.93,261.99 			"/>
			<polygon class="st33" points="450,248.39 435.78,267.2 443.18,299.53 473.58,300.99 494.76,279.25 478.74,252.39 			"/>
			<polygon class="st34" points="439.57,283.74 455.88,261.99 462.63,277.59 443.18,299.53 			"/>
			<polygon class="st34" points="455.88,261.99 485.82,264.26 494.76,279.25 462.63,277.59 			"/>
			<polygon class="st11" points="443.18,299.53 462.63,277.59 494.76,279.25 473.58,300.99 			"/>
			<polygon class="st11" points="450,248.39 462.63,277.59 443.18,299.53 435.78,267.2 			"/>
			<polygon class="st5" points="485.82,264.26 455.88,261.99 455.46,261.02 485.47,263.67 			"/>
			<polygon class="st5" points="455.46,261.02 439.39,282.97 439.57,283.74 455.88,261.99 			"/>
			<polygon class="st27" points="450,248.39 478.74,252.39 479,252.82 451.1,249.34 463.22,277.62 462.63,277.59 			"/>
			<polygon class="st27" points="456.54,262.04 485.82,264.26 486.13,264.78 456.79,262.64 			"/>
			<polygon class="st27" points="450,248.39 435.78,267.2 450.43,249.37 			"/>
			<g>
				<polygon class="st37" points="449.08,204.34 453.93,205.49 458.65,214.14 456.18,219.47 449.48,218.64 447.68,207.92 				"/>
				<polygon class="st11" points="447.68,207.92 449.48,218.64 452.33,212.79 449.08,204.34 				"/>
				<polygon class="st5" points="458.65,214.14 456.18,219.47 449.48,218.64 452.33,212.79 				"/>
			</g>
			<g>
				<path class="st34" d="M464.21,159.28c-0.94,1.5,0.44,4.07,3.1,5.74c2.65,1.67,5.57,1.8,6.51,0.3c0.94-1.5-0.44-4.07-3.1-5.74
					C468.07,157.91,465.16,157.78,464.21,159.28z"/>
				<path class="st35" d="M465.7,159.41c-0.73,1.16,0.34,3.13,2.38,4.42c2.04,1.28,4.29,1.39,5.01,0.23
					c0.73-1.16-0.34-3.13-2.38-4.42C468.67,158.35,466.42,158.25,465.7,159.41z"/>
				<polygon class="st35" points="465.7,159.41 495.8,108.09 508.86,116.29 473.09,164.05 				"/>
				<path class="st35" d="M495.8,108.09c2.32-3.96,11.81-3.84,11.81-3.84s4.21,8.09,1.25,12.04c-1.28,2.04-5.25,1.86-8.85-0.41
					C496.4,113.62,494.52,110.13,495.8,108.09z"/>
				<path class="st5" d="M496.58,107.14c-1.68,1.99-0.99,8.22,1.42,11.55c1.74,2.39,5.81,4.38,6.91,2.87l-3.21,4.26
					c-1.1,1.51-4.98-0.19-6.72-2.58c-2.58-3.55-3.15-8.31-1.4-11.37l2.22-3.79C496,107.74,496.28,107.43,496.58,107.14z"/>
				<path class="st5" d="M490.76,116.68c-1.71,2.91-0.83,7.44,1.7,10.83c1.7,2.28,5.3,3.62,6.38,2.18l-2.76,3.68
					c-1.08,1.44-4.67,0.1-6.38-2.18c-2.19-2.93-3.22-7.22-1.51-10.13L490.76,116.68z"/>
				<path class="st5" d="M483.97,128.26c-1.72,2.94-0.29,6.88,1.37,9.14c1.65,2.26,5.06,3.62,6.09,2.18l2.24-3
					c-1.03,1.44-4.37,0.03-6.09-2.18c-2.19-2.81-3.1-6.88-1.47-9.79L483.97,128.26z"/>
				<path class="st5" d="M480.26,134.57c-1.72,2.94-0.67,6.45,0.99,8.7c1.65,2.25,4.9,3.41,5.93,1.97l2.28-3.05
					c-1.03,1.44-4.43,0.08-6.09-2.18c-1.65-2.26-2.85-5.89-1.12-8.83L480.26,134.57z"/>
				<path class="st5" d="M476.7,140.64c-1.72,2.94-1.05,5.77,0.6,8.03s4.85,3.35,5.88,1.91l1.97-2.64
					c-1.03,1.44-4.23,0.35-5.88-1.91c-1.65-2.26-2.5-5.53-0.77-8.47L476.7,140.64z"/>
				<path class="st5" d="M478.81,156.45c-1.01,1.37-4.27,0.3-5.61-1.6c-1.32-1.87-2.23-4.51-0.54-7.31l2.14-3.66
					c-1.72,2.94-0.97,5.76,0.38,7.8c1.41,2.13,4.93,3.07,5.96,1.63L478.81,156.45z"/>
				<path class="st5" d="M508.86,116.29c-1.6,2.13-6.08-0.69-6.73-3.79c-0.65-3.1-0.09-6.95,5.48-8.25c-1.23,1.2-1.33,3.25,0.32,5.3
					C509.58,111.6,510.06,114.69,508.86,116.29z"/>
				<path class="st5" d="M505.72,104.86c0.55-0.24,1.18-0.45,1.89-0.62c-1.23,1.2-1.33,3.25,0.32,5.3c1.65,2.05,2.13,5.14,0.93,6.74
					c-0.32,0.42-0.75,0.65-1.25,0.71c2.24-0.7-0.56-4.46-1.81-5.96C504.56,109.55,503.4,106.45,505.72,104.86z"/>
				<g class="st38">
					<path class="st6" d="M507.68,107.17c-0.82-1.45-0.08-2.93-0.08-2.93s2.24,4.31,2.3,8.18
						C509.57,110,508.24,108.15,507.68,107.17z"/>
					<path class="st6" d="M465.7,159.41l30.1-51.32c2.32-3.96,11.81-3.84,11.81-3.84s-7.77,1.1-9.68,3.84
						c-1.91,2.73-32.2,52.54-32.36,52.8C465.42,160.33,465.44,159.82,465.7,159.41z"/>
				</g>
				<path class="st5" d="M469.02,164.32l33.64-49.03c0,0-2.5-3.25-1.33-6.42l-34.47,53.99
					C466.86,162.86,468.03,163.96,469.02,164.32z"/>
			</g>
			<path class="st11" d="M417.86,217.33c0.52,0,0.97-0.34,1.13-0.81c0.69-1.38,10.01-16.35,16.18-26.19
				c0.35-0.56,0.18-1.3-0.38-1.65c-0.56-0.35-1.3-0.18-1.65,0.38c-16.48,26.29-16.48,26.62-16.48,27.07
				C416.66,216.8,417.19,217.33,417.86,217.33z"/>
			<path class="st11" d="M433.14,189.06c0.35-0.56,1.09-0.73,1.65-0.38c0.14,0.09,0.26,0.2,0.35,0.33
				c-0.43-0.04-0.88,0.15-1.12,0.55c-16.48,26.29-16.48,26.62-16.48,27.07c0,0.26,0.1,0.49,0.24,0.69
				c-0.62-0.04-1.12-0.55-1.12-1.18C416.66,215.68,416.66,215.35,433.14,189.06z"/>
			<path class="st11" d="M418.73,221.62c0.52,0,0.97-0.34,1.13-0.81c0.69-1.39,10.23-16.7,16.53-26.77c0.35-0.56,0.18-1.3-0.38-1.65
				c-0.56-0.35-1.3-0.18-1.65,0.38c-16.83,26.87-16.83,27.2-16.83,27.65C417.53,221.08,418.07,221.62,418.73,221.62z"/>
			<path class="st11" d="M434.36,192.77c0.35-0.56,1.09-0.73,1.65-0.38c0.12,0.07,0.21,0.17,0.29,0.28
				c-0.33,0.05-0.63,0.23-0.82,0.54c-16.83,26.87-16.83,27.2-16.83,27.65c0,0.28,0.11,0.53,0.28,0.74c-0.07,0.01-0.13,0.03-0.2,0.03
				c-0.66,0-1.2-0.54-1.2-1.2C417.53,219.97,417.53,219.64,434.36,192.77z"/>
			<path class="st11" d="M420.76,224.9c0.52,0,0.97-0.34,1.13-0.8c0.7-1.4,10.51-17.12,17.01-27.46c0.35-0.56,0.18-1.3-0.38-1.65
				c-0.56-0.35-1.3-0.18-1.65,0.38c-17.31,27.55-17.31,27.88-17.31,28.34C419.56,224.36,420.09,224.9,420.76,224.9z"/>
			<path class="st11" d="M436.86,195.36c0.35-0.56,1.09-0.73,1.65-0.38c0.23,0.14,0.37,0.35,0.46,0.58
				c-0.21,0.09-0.41,0.23-0.54,0.44c-17.31,27.55-17.31,27.88-17.31,28.34c0,0.16,0.03,0.31,0.09,0.45
				c-0.14,0.06-0.3,0.11-0.47,0.11c-0.66,0-1.2-0.54-1.2-1.2C419.56,223.24,419.56,222.92,436.86,195.36z"/>
			<path class="st27" d="M437.85,178.68c0,0-0.08,0.15-0.22,0.43c-0.07,0.14-0.16,0.31-0.27,0.52c-0.07,0.22-0.15,0.47-0.24,0.75
				c-0.16,0.57-0.28,1.28-0.26,2.11c0,0.82,0.16,1.75,0.43,2.72c0.32,0.96,0.71,2,1.31,2.99c0.56,1.02,1.28,2.01,2.09,2.99
				c0.83,0.96,1.73,1.91,2.76,2.76c1,0.88,2.11,1.66,3.24,2.4c1.16,0.7,2.34,1.36,3.57,1.88c1.21,0.56,2.46,0.96,3.68,1.29
				c1.23,0.31,2.44,0.53,3.6,0.59c1.16,0.11,2.26,0.01,3.27-0.12c1-0.17,1.9-0.43,2.64-0.79c0.75-0.35,1.34-0.76,1.79-1.15
				c0.21-0.2,0.4-0.39,0.57-0.55c0.14-0.18,0.26-0.34,0.35-0.46c0.19-0.25,0.29-0.39,0.29-0.39s-0.17,0.1-0.42,0.29
				c-0.13,0.09-0.28,0.21-0.47,0.34c-0.21,0.1-0.42,0.25-0.66,0.39c-0.5,0.26-1.1,0.53-1.81,0.77c-0.7,0.24-1.52,0.46-2.45,0.56
				c-0.93,0.07-1.95,0.12-3.03-0.04c-1.08-0.12-2.2-0.38-3.37-0.64c-1.16-0.31-2.35-0.68-3.51-1.21c-0.6-0.23-1.13-0.54-1.71-0.8
				c-0.56-0.26-1.21-0.65-1.74-0.92c-1.11-0.68-2.2-1.38-3.2-2.2c-1.02-0.78-1.92-1.67-2.75-2.56c-0.83-0.89-1.58-1.81-2.17-2.76
				c-0.63-0.93-1.06-1.9-1.41-2.81c-0.15-0.46-0.29-0.91-0.41-1.34c-0.07-0.43-0.2-0.85-0.2-1.25c-0.08-0.79-0.02-1.5,0.09-2.06
				c0.07-0.28,0.13-0.53,0.18-0.75c0.09-0.21,0.17-0.39,0.23-0.54C437.78,178.84,437.85,178.68,437.85,178.68z"/>
			<path class="st27" d="M450.14,168.68c0,0-0.05,0.1-0.15,0.3c-0.12,0.19-0.2,0.49-0.3,0.89c-0.02,0.2-0.04,0.43-0.06,0.67
				c0.02,0.24,0.02,0.51,0.06,0.79c0.1,0.55,0.26,1.18,0.56,1.81c0.55,1.28,1.5,2.62,2.71,3.87c0.59,0.64,1.27,1.23,1.97,1.8
				c0.71,0.58,1.47,1.1,2.25,1.61c0.79,0.48,1.6,0.94,2.42,1.33c0.82,0.39,1.65,0.74,2.48,1c1.65,0.55,3.27,0.82,4.66,0.76
				c0.7,0,1.33-0.13,1.87-0.28c0.27-0.08,0.51-0.2,0.74-0.28c0.21-0.13,0.4-0.24,0.58-0.35c0.31-0.26,0.55-0.47,0.67-0.66
				c0.13-0.17,0.2-0.26,0.2-0.26s-0.14,0.05-0.33,0.16c-0.18,0.12-0.51,0.21-0.84,0.34c-0.17,0.04-0.37,0.09-0.58,0.14
				c-0.21,0.03-0.43,0.07-0.68,0.11c-0.49,0.05-1.03,0.12-1.66,0.07c-0.62-0.02-1.3-0.17-2.01-0.3c-0.71-0.18-1.46-0.39-2.23-0.65
				c-0.39-0.12-0.77-0.27-1.16-0.43c-0.4-0.14-0.79-0.31-1.18-0.48c-0.4-0.16-0.76-0.37-1.15-0.55l-1.2-0.62
				c-0.76-0.44-1.52-0.91-2.22-1.43c-0.7-0.52-1.38-1.05-1.97-1.63c-1.25-1.1-2.26-2.31-2.88-3.47c-0.33-0.58-0.55-1.13-0.7-1.65
				c-0.07-0.26-0.1-0.51-0.14-0.74c0-0.23-0.01-0.45-0.01-0.64c0.05-0.37,0.09-0.69,0.19-0.9
				C450.1,168.79,450.14,168.68,450.14,168.68z"/>
			<path class="st27" d="M459.27,159.48c0.03,0.01-0.24,0.31-0.4,0.96c-0.08,0.32-0.12,0.73-0.1,1.19c0.04,0.46,0.13,0.98,0.33,1.51
				c0.75,2.17,2.88,4.53,5.44,6.13c2.56,1.62,5.61,2.51,7.89,2.24c0.57-0.05,1.07-0.19,1.51-0.36c0.43-0.18,0.77-0.39,1.03-0.6
				c0.51-0.43,0.67-0.79,0.69-0.77c0,0-0.12,0.04-0.29,0.12c-0.16,0.09-0.44,0.16-0.73,0.26c-0.3,0.09-0.64,0.15-1.01,0.23
				c-0.38,0.06-0.81,0.14-1.31,0.12c-0.98-0.02-2.15-0.23-3.39-0.61c-0.61-0.2-1.25-0.41-1.89-0.68c-0.33-0.12-0.61-0.28-0.93-0.42
				c-0.31-0.13-0.7-0.35-0.98-0.49c-1.25-0.68-2.41-1.54-3.36-2.47c-1-0.9-1.75-1.92-2.21-2.88c-0.23-0.48-0.4-0.94-0.49-1.37
				c-0.08-0.43-0.09-0.81-0.06-1.13c0.04-0.3,0.08-0.57,0.16-0.74C459.24,159.57,459.27,159.48,459.27,159.48z"/>
			<path class="st27" d="M423.58,231.12c0,0-0.2-0.15-0.56-0.42c-0.37-0.27-0.91-0.69-1.54-1.26c-1.26-1.13-2.99-2.91-4.33-5.44
				c-0.67-1.25-1.24-2.71-1.44-4.27c-0.22-1.56-0.03-3.24,0.81-4.63c0.89-1.48,2-3.12,3.02-4.72c1.05-1.62,2.12-3.26,3.18-4.91
				c2.16-3.27,4.17-6.64,6.13-9.75c0.99-1.55,1.87-3.09,2.7-4.56c0.84-1.46,1.63-2.85,2.36-4.12c0.73-1.28,1.42-2.43,1.95-3.51
				c0.28-0.53,0.53-1.03,0.77-1.49c0.21-0.48,0.41-0.91,0.59-1.31c0.36-0.78,0.59-1.43,0.76-1.87c0.17-0.44,0.23-0.69,0.23-0.69
				s-8.22,13.35-16.45,26.7c-1.03,1.67-2.06,3.34-3.07,4.98c-1,1.65-2.04,3.24-2.94,4.84c-0.89,1.63-1,3.5-0.7,5.15
				c0.29,1.66,0.94,3.14,1.67,4.41c0.73,1.28,1.6,2.32,2.4,3.2c0.82,0.87,1.6,1.57,2.27,2.1c0.67,0.54,1.22,0.93,1.6,1.18
				C423.38,230.99,423.58,231.12,423.58,231.12z"/>
			<path class="st11" d="M449.81,191.49c-1.32-0.83-2.47-1.78-3.42-2.79l6.48-11.78l0.03,0.02c1.17,1.23,2.6,2.41,4.26,3.46
				c0.63,0.39,1.26,0.75,1.89,1.07l0.01,0.01l-7.76,10.86C450.81,192.08,450.31,191.8,449.81,191.49z"/>
		</g>
		<path class="st10" d="M426.71,227.79c0-2.23-0.75-6.55-3-9c-2.25-2.45-8.05-2.95-9-2.5c-0.95,0.45-2.65,2.7-2.45,4.1
			c0.2,1.4,5.3,4.4,5.7,7.1c0.4,2.7,0.68,4.28,1.9,5.9C421.01,234.92,426.71,232.82,426.71,227.79z"/>
		<path class="st10" d="M426.71,227.79c0,2.23,3.44,3.82,4.87,4.07c1.01,2.85,3.21,8.78,5.31,15.78c2.1,7,1.77,16.64-2.03,15.14
			c-3.8-1.5-4.7-2.2-6.7-5.6c-4.16-7.06-7-9.1-7.1-13.7c-0.1-4.6-0.36-8.26-1.2-10.1c-1.25-2.75-0.88-4.4,1.3-5.6
			C423.34,226.59,426.71,226.45,426.71,227.79z"/>
		<path class="st10" d="M461.46,210.09c2.75,2.94,6.94,3.78,8.52,1.29c1.58-2.49,1.68-3.69,4.38-6.29c2.7-2.6,2.95-4.45,2.4-5.95
			c-0.55-1.5-3.35-5-7.8-4c-4.45,1-7.4,4.95-8.05,7.9C460.26,205.99,459.31,207.79,461.46,210.09z"/>
		<path class="st32" d="M460.91,203.04c0.26-0.72,0.63-1.35,1.05-1.96c0.41-0.61,0.86-1.18,1.38-1.68c1.01-1.02,2.21-1.8,3.45-2.35
			c0.62-0.28,1.26-0.48,1.91-0.61l0.49-0.09l0.48-0.04c0.42-0.06,0.62,0.01,0.9,0.01c1.18,0.15,2.23,0.67,3.06,1.5
			c0.42,0.39,0.8,0.85,1.08,1.33c0.12,0.23,0.26,0.49,0.28,0.62c0.08,0.29,0.06,0.35,0.07,0.55c-0.01,0.33-0.13,0.68-0.39,1.11
			c-0.24,0.42-0.63,0.88-1.06,1.31c-0.22,0.22-0.45,0.44-0.7,0.65c-0.31,0.28-0.54,0.47-0.88,0.8c-0.62,0.6-1.21,1.23-1.75,1.95
			c-0.53,0.72-0.96,1.49-1.33,2.13c-0.38,0.67-0.67,1.16-1.11,1.82l-0.32,0.48l-0.04,0.92c-0.02,0.4-0.07,0.79-0.27,1.16
			c-0.09,0.18-0.23,0.36-0.3,0.43c-0.01,0.01-0.02,0.02,0.01,0l0.05-0.03l0.03-0.02l0.02-0.01l0.01,0c0.14-0.09-0.19,0.11-0.16,0.09
			l0,0l-0.13,0.09c-0.07,0.05-0.2,0.15-0.34,0.26c-0.13,0.1-0.26,0.22-0.39,0.33c-0.71,0.66-1.31,1.29-1.94,1.94
			c-0.62,0.64-1.22,1.29-1.79,1.98c-0.57,0.68-1.14,1.37-1.69,2.07c-0.56,0.7-1.09,1.41-1.58,2.18c-0.25,0.38-0.45,0.79-0.67,1.19
			c-0.21,0.41-0.38,0.84-0.55,1.28c-0.15,0.45-0.3,0.89-0.38,1.38c-0.11,0.46-0.12,0.98-0.09,1.46c0.37-0.78,0.83-1.52,1.34-2.22
			c0.5-0.7,1.05-1.37,1.61-2.03c1.12-1.32,2.31-2.58,3.53-3.8c1.22-1.22,2.47-2.42,3.78-3.55c0.32-0.3,0.71-0.5,1.03-0.79
			c0.31-0.3,0.58-0.65,0.78-1.03c0.42-0.75,0.63-1.62,0.6-2.49v0c0.82-1.25,1.41-2.64,2.26-3.87c0.43-0.61,0.91-1.19,1.43-1.73
			c0.51-0.54,1.07-1.04,1.56-1.61c0.49-0.56,0.95-1.16,1.27-1.84c0.33-0.67,0.54-1.41,0.48-2.16c-0.04-0.75-0.35-1.46-0.78-2.07
			c-0.43-0.61-0.94-1.17-1.52-1.63c-1.15-0.95-2.63-1.5-4.13-1.52c-0.75,0.02-1.49,0.12-2.21,0.34c-0.72,0.21-1.41,0.5-2.06,0.87
			c-1.31,0.72-2.45,1.73-3.38,2.9C461.99,200.24,461.25,201.59,460.91,203.04z"/>
		<path class="st10" d="M459.89,219.03c2.86,2.17,2.49,7.17,0.78,9.47c-1.71,2.3-3.5,0.46-5.76,0.91c-5.55,1.1-11.92,0.6-11.92-3.46
			c0-7.61,2.41-7.52,4.23-7.52c1.82,0,4.62,0.7,7.12-0.3C456.85,217.12,458.07,217.64,459.89,219.03z"/>
		<path class="st32" d="M445.94,219.44c1.65,1.1,1.82,4.35,2.17,5.93c2.6-0.07,6.5-0.82,6.5-0.82s-0.27-3.75-1.89-5.11
			C450.66,219.38,445.94,219.44,445.94,219.44z"/>
		<path class="st10" d="M462.51,227.86c2.1,2.52,1.03,7.41-0.77,9.46c-1.8,2.05-3.04,0-5.02,0.15c-4.88,0.37-9.87-0.53-9.87-6.86
			c0-5.24,3.48-4.77,5.02-4.54c1.54,0.24,3.8,0.83,6.07,0.17C460.22,225.58,461.18,226.25,462.51,227.86z"/>
		<path class="st32" d="M450.93,226.84c1.23,1.3,1.54,3.89,1.6,5.49c2.22,0.27,5.64,0.04,5.64,0.04s-0.07-3-1.24-4.55
			C455.2,227.49,450.93,226.84,450.93,226.84z"/>
		<path class="st10" d="M467.54,239.56c0.9,2.59-1.39,6.11-3.41,7.18c-2.02,1.07-2.38-0.9-3.98-1.37c-3.93-1.16-7.57-3.34-5.7-8.3
			c1.55-4.11,4.14-2.71,5.28-2.07c1.14,0.64,2.73,1.78,4.71,1.93C466.41,237.09,466.96,237.9,467.54,239.56z"/>
		<path class="st32" d="M458.42,235.24c0.58,1.39,0.75,3.27,0.32,4.55c1.66,0.87,4.33,1.4,4.33,1.4s0.27-1.99-0.18-3.55
			C461.62,236.87,458.42,235.24,458.42,235.24z"/>
		<path class="st32" d="M446.85,230.61c0.06-0.39,0.08-0.8,0.18-1.18c0.07-0.38,0.2-0.75,0.34-1.11c0.16-0.35,0.35-0.67,0.58-0.94
			c0.25-0.25,0.52-0.48,0.83-0.61c0.61-0.29,1.33-0.32,2.05-0.23c0.73,0.1,1.48,0.31,2.27,0.49c0.79,0.18,1.62,0.35,2.48,0.39
			c0.43,0.02,0.87,0.01,1.31-0.03c0.43-0.03,0.91-0.13,1.3-0.22c0.42-0.1,0.68-0.14,1.01-0.16c0.31-0.01,0.57,0.02,0.79,0.11
			c0.44,0.15,0.87,0.57,1.33,1.14l0.04,0.05l0.18,0.14c0.75,0.59,1.46,1.9,2.2,3.17c0.39,0.64,0.81,1.29,1.29,1.92
			c0.5,0.66,0.96,1.14,1.43,1.7c0.92,1.1,1.8,2.13,2.3,3.31c0.12,0.29,0.24,0.59,0.33,0.9c0.09,0.31,0.17,0.62,0.24,0.96
			c0.07,0.33,0.14,0.68,0.16,1.04c0.08,0.37,0.07,0.73,0.15,1.13c0.19-0.71,0.32-1.43,0.34-2.16c0-0.37-0.02-0.73-0.08-1.09
			c-0.06-0.36-0.14-0.72-0.27-1.06c-0.47-1.39-1.35-2.6-2.25-3.75l-1.36-1.72c-0.44-0.59-0.83-1.21-1.21-1.83
			c-0.38-0.62-0.75-1.26-1.16-1.86c-0.41-0.6-0.87-1.19-1.48-1.61l0,0c-0.52-0.59-1.12-1.17-1.9-1.39
			c-0.77-0.23-1.59-0.08-2.35,0.13c-1.54,0.45-3.17,0.33-4.72,0.06c-0.78-0.13-1.56-0.3-2.36-0.35c-0.79-0.04-1.61,0.03-2.3,0.45
			c-0.35,0.19-0.63,0.48-0.88,0.79c-0.22,0.33-0.39,0.69-0.53,1.06c-0.11,0.38-0.2,0.77-0.24,1.16
			C446.86,229.81,446.88,230.21,446.85,230.61z"/>
		<path class="st32" d="M447.23,218.42c0,0,0.49,0.05,1.32,0.22c0.42,0.08,0.93,0.18,1.52,0.29c0.59,0.09,1.28,0.21,2.04,0.19
			c0.76-0.01,1.63-0.11,2.48-0.37c0.8-0.25,1.54-0.39,2.25-0.27c0.68,0.09,1.33,0.48,2.04,1.04c0.34,0.27,0.71,0.59,0.93,0.85
			c0.27,0.31,0.53,0.66,0.79,1.04c0.51,0.76,1.01,1.61,1.61,2.42c0.56,0.82,1.29,1.62,1.9,2.23c1.24,1.31,2.37,2.43,3,3.52
			c0.32,0.54,0.51,1.07,0.63,1.56c0.12,0.49,0.22,0.96,0.28,1.36c0.05,0.43,0.09,0.76,0.12,0.99c0.02,0.24,0.06,0.38,0.06,0.38
			s0.03-0.12,0.1-0.34c0.07-0.22,0.15-0.54,0.22-0.96c0.14-0.83,0.14-2.1-0.5-3.43c-0.61-1.33-1.76-2.62-3-3.95
			c-0.63-0.66-1.27-1.35-1.84-2.12c-0.56-0.78-1.12-1.57-1.69-2.35c-0.57-0.79-1.25-1.49-2.05-2.03c-0.77-0.56-1.63-1.03-2.54-1.09
			c-0.91-0.07-1.78,0.2-2.55,0.5c-0.78,0.31-1.56,0.45-2.29,0.51c-1.46,0.11-2.67-0.06-3.51-0.13
			C447.72,218.41,447.23,218.42,447.23,218.42z"/>
		<path class="st32" d="M459.73,235.01c0.56,0.55,1.13,1.07,1.77,1.56c0.66,0.45,1.39,0.86,2.23,1.12c0.2,0.07,0.44,0.11,0.62,0.15
			c0.19,0.04,0.38,0.08,0.5,0.12c0.29,0.09,0.54,0.22,0.7,0.35c0.16,0.13,0.27,0.27,0.38,0.49c0.1,0.22,0.22,0.5,0.32,0.82
			l0.15,0.28c0.12,0.24,0.28,0.57,0.4,0.97c0.13,0.4,0.28,0.85,0.42,1.32c0.17,0.46,0.32,0.95,0.53,1.43
			c0.23,0.47,0.58,0.94,1.21,1.26c-0.31-0.94-0.48-1.92-0.65-2.89c-0.19-0.96-0.35-1.97-0.91-2.8l0,0c-0.27-0.7-0.63-1.43-1.31-1.81
			c-0.67-0.4-1.46-0.39-2.21-0.51C462.35,236.61,461.03,235.78,459.73,235.01z"/>
		<path class="st11" d="M460.91,203.04c0,0-0.19,0.8-0.48,1.99c-0.14,0.6-0.3,1.3-0.29,2.07c0,0.77,0.26,1.59,0.73,2.25
			c0.47,0.67,1.07,1.25,1.67,1.72c0.6,0.48,1.22,0.85,1.78,1.11c1.12,0.53,1.95,0.61,1.95,0.61c0,0.01-0.04-0.11-0.11-0.25
			c-0.07-0.14-0.16-0.36-0.27-0.56c-0.12-0.2-0.25-0.41-0.41-0.58c-0.16-0.18-0.36-0.31-0.55-0.5c-0.39-0.37-0.81-0.8-1.28-1.21
			c-0.25-0.21-0.48-0.39-0.74-0.6c-0.27-0.25-0.49-0.42-0.7-0.63c-0.21-0.2-0.37-0.41-0.51-0.63c-0.15-0.21-0.25-0.46-0.33-0.74
			c-0.18-0.57-0.2-1.27-0.23-1.89c-0.03-0.62-0.08-1.18-0.11-1.55C460.96,203.26,460.91,203.04,460.91,203.04z"/>
		<path class="st39" d="M412.97,218.15c-0.97,3.41,4.74,4.59,8.35,6.87c3.86,2.45,4.86-1.03,3.52-4.62c1.38,2.44,1.88,5.6,1.88,7.4
			c0,1.41,1.37,2.56,2.74,3.28c0.56,0,1.17-0.11,1.83-0.27l-0.05,0.09c0,0,5.22,14.18,9.52,29.74l-1.56,2.07
			c-0.77-3.17-1.35-5.92-1.58-7.75c-1.06-8.44-6.69-21-8.29-22.48c-1.45-0.43-5.23,1.26-5.68,6.66c-0.45,5.4,0.6,6.07,3.07,9.82
			c2.47,3.75,4.73,6.67,3.76,10.8c-0.98,4.13-4.76,5.72-4.76,5.72c4.23-2.6,2.04-7.92,0.78-10.98c-3.22-4.97-5.33-7.04-5.42-10.99
			c-0.1-4.6-0.36-8.26-1.2-10.1c-1.22-1.62-1.5-3.2-1.9-5.9c-0.4-2.7-5.5-5.7-5.7-7.1C412.17,219.74,412.5,218.9,412.97,218.15z"/>
	</g>
	<g>
		<path class="st27" d="M295.36,89.68v11.8c0,2.95-2.39,5.34-5.34,5.34h-11.05c-0.89,0-2.24-1.04-2.82-2.64
			c-0.58-1.6-1.89-4.15-3.53-4.15c-5.1,0-6.76,6.79-10.45,6.79H236.4c-3.5,0-6.34-2.84-6.34-6.34V89.53c0-3.56,2.92-6.42,6.48-6.34
			l53.59,1.15C293.04,84.4,295.36,86.77,295.36,89.68z"/>
		<path class="st40" d="M230.06,89.53v10.95c0,3.5,2.84,6.34,6.34,6.34h25.77c3.69,0,5.35-6.79,10.45-6.79
			c1.64,0,2.95,2.55,3.53,4.15c0.58,1.6,1.92,2.64,2.82,2.64h11.05c2.95,0,5.34-2.39,5.34-5.34v-11.8c0-2.91-2.32-5.28-5.23-5.34
			l-53.59-1.15C232.98,83.11,230.06,85.97,230.06,89.53z M232.46,89.53c0-2.17,1.77-3.94,4.03-3.94l53.59,1.15
			c1.59,0.03,2.88,1.35,2.88,2.94v11.8c0,1.62-1.32,2.94-2.94,2.94h-10.84c-0.19-0.12-0.56-0.48-0.77-1.05
			c-0.62-1.73-2.43-5.74-5.78-5.74c-3.84,0-6.2,2.67-7.92,4.62c-0.9,1.02-1.92,2.17-2.53,2.17H236.4c-2.17,0-3.94-1.77-3.94-3.94
			V89.53z"/>
		<path class="st40" d="M194.81,83.05c2.65,0,41.73,0.14,41.73,0.14c-3.56-0.08-6.48,2.79-6.48,6.34v10.95l-34.47-11.73l-5.07-2.7
			C190.53,86.06,192.16,83.05,194.81,83.05z"/>
		<path class="st27" d="M231.59,85.41l-39.22-1.46c0.66-0.5,1.48-0.89,2.44-0.89c2.65,0,41.73,0.14,41.73,0.14
			C234.56,83.15,232.78,84.01,231.59,85.41z"/>
		<g>
			<path class="st41" d="M294.01,86.16l-8,20.66h-7.05c-0.89,0-2.24-1.04-2.82-2.64c-0.41-1.14-1.19-2.74-2.2-3.58l0.53-2.52
				l3.19-14.02l12.46,0.27C291.68,84.37,293.06,85.08,294.01,86.16z"/>
			<polygon class="st41" points="265.76,83.81 271.95,83.95 253.34,106.82 240.96,106.82 265.76,83.81 			"/>
			<path class="st41" d="M230.06,89.53c0-3.56,2.92-6.42,6.48-6.34l13.16,0.28l-19.64,12.65V89.53z"/>
		</g>
	</g>
	<g>
		<defs>
			<path id="SVGID_21_" d="M226.09,384.98l-48.31,81.93l-17.31,8.3c0,0-10.34-2.4-14.59-14.43l-3.22-1.47l-15.03-74.32H226.09z"/>
		</defs>
		<clipPath id="SVGID_8_">
			<use xlink:href="#SVGID_21_"  style="overflow:visible;"/>
		</clipPath>
		<g class="st42">
			<g>
				<path class="st43" d="M136.46,401.94l6.22,10.89l8.87-4.96l-6.3-10.77c0,0,8.64-0.97,13.35,6.43c4.71,7.4-1.92,16.63-1.92,16.63
					l-3.79,11.48l1.24,7.28l-10.05,1.72l-1.43-8.36l-6.22-7.95l-1.44,0.45l-2.41-6.37l2.26-0.99
					C134.85,417.41,129.68,407.26,136.46,401.94z"/>
				<g>
					<path class="st22" d="M136.11,417.23l-0.19-0.37c-0.04-0.09-4.08-8.16,0.25-13.01l5.78,10.12L136.11,417.23z"/>
				</g>
				<path class="st22" d="M136.36,417.73l5.86-3.28l10.98-6.13l-5.86-10.02c2.63,0.2,7.31,1.24,10.25,5.87
					c4.21,6.62-1.82,15.2-1.88,15.29l-0.11,0.15l-3.94,11.94l1.09,6.39l-7.69,1.31l-1.28-7.48l-6.92-8.84l-1.15,0.36l-1.61-4.25
					L136.36,417.73z"/>
				<g>
					<path class="st22" d="M136.36,417.73l-0.44-0.87c-0.04-0.09-4.08-8.16,0.25-13.01l0.25,0.43c-3.99,4.87-0.09,12.68-0.05,12.77
						l0.27,0.53l16.56-9.26l-5.86-10.02c1.24,0.09,2.94,0.38,4.7,1.14c-1.6-0.62-3.11-0.87-4.25-0.95l5.86,10.02l-16.84,9.41
						l-2.25,1.31l1.49,3.96l-0.34,0.11l-1.61-4.25L136.36,417.73z"/>
					<polygon class="st22" points="137.32,423.13 144.24,431.96 145.48,439.19 145.07,439.26 143.79,431.78 137.08,423.2 					"/>
				</g>
				<path class="st33" d="M159.5,519.52l0.97-0.17c3.98-0.68,6.66-4.46,5.98-8.45l-12.31-71.99l-10.05,1.72l6.89,72.36
					C151.38,517.24,155.3,520.24,159.5,519.52z M154.33,513.26c-0.4-2.34,1.17-4.57,3.52-4.97c2.34-0.4,4.57,1.17,4.97,3.52
					c0.4,2.34-1.17,4.57-3.52,4.97C156.95,517.18,154.73,515.61,154.33,513.26z"/>
				
					<rect x="139.86" y="422.04" transform="matrix(0.8729 -0.4879 0.4879 0.8729 -188.2233 124.5501)" class="st44" width="10.17" height="2.99"/>
				<path class="st45" d="M141.83,427.68c0.01,0,0.03-0.01,0.04-0.01c0.24-0.07,0.38-0.31,0.31-0.55l-0.9-3.26
					c-0.07-0.24-0.31-0.39-0.55-0.31c-0.24,0.07-0.38,0.31-0.31,0.55l0.9,3.26C141.38,427.58,141.6,427.72,141.83,427.68z"/>
				<path class="st45" d="M142.89,427.09c0.01,0,0.03-0.01,0.04-0.01c0.24-0.07,0.38-0.31,0.31-0.55l-0.9-3.26
					c-0.07-0.24-0.31-0.39-0.55-0.31c-0.24,0.07-0.38,0.31-0.31,0.55l0.9,3.26C142.45,426.99,142.67,427.12,142.89,427.09z"/>
				<path class="st45" d="M143.96,426.49c0.01,0,0.03-0.01,0.04-0.01c0.24-0.07,0.38-0.31,0.31-0.55l-0.9-3.26
					c-0.07-0.24-0.31-0.38-0.55-0.31c-0.24,0.07-0.38,0.31-0.31,0.55l0.9,3.26C143.51,426.39,143.73,426.53,143.96,426.49z"/>
				<path class="st45" d="M145.02,425.89c0.01,0,0.03-0.01,0.04-0.01c0.24-0.07,0.38-0.31,0.31-0.55l-0.9-3.26
					c-0.07-0.24-0.31-0.39-0.55-0.31c-0.24,0.07-0.38,0.31-0.31,0.55l0.9,3.26C144.58,425.8,144.8,425.93,145.02,425.89z"/>
				<path class="st45" d="M146.09,425.3c0.01,0,0.03-0.01,0.04-0.01c0.24-0.07,0.38-0.31,0.31-0.55l-0.9-3.26
					c-0.07-0.24-0.31-0.39-0.55-0.31c-0.24,0.07-0.38,0.31-0.31,0.55l0.9,3.26C145.64,425.2,145.86,425.34,146.09,425.3z"/>
				<path class="st45" d="M147.15,424.7c0.01,0,0.03-0.01,0.04-0.01c0.24-0.07,0.38-0.31,0.31-0.55l-0.9-3.26
					c-0.07-0.24-0.31-0.38-0.55-0.31c-0.24,0.07-0.38,0.31-0.31,0.55l0.9,3.26C146.71,424.61,146.93,424.74,147.15,424.7z"/>
				<path class="st45" d="M148.22,424.11c0.01,0,0.03-0.01,0.04-0.01c0.24-0.07,0.38-0.31,0.31-0.55l-0.9-3.26
					c-0.07-0.24-0.31-0.39-0.55-0.31c-0.24,0.07-0.38,0.31-0.31,0.55l0.9,3.26C147.77,424.01,147.99,424.15,148.22,424.11z"/>
				<path class="st45" d="M149.28,423.51c0.01,0,0.03-0.01,0.04-0.01c0.24-0.07,0.38-0.31,0.31-0.55l-0.9-3.26
					c-0.07-0.24-0.31-0.38-0.55-0.31c-0.24,0.07-0.38,0.31-0.31,0.55l0.9,3.26C148.84,423.41,149.06,423.55,149.28,423.51z"/>
			</g>
			<path class="st22" d="M159.58,518.33l0.81-0.14c3.34-0.57,5.51-4.22,4.83-8.14l-12.03-70.36l-8.43,1.44l7.47,70.59
				C152.68,515.89,156.06,518.93,159.58,518.33z M154,513.05c-0.44-2.57,1.22-4.99,3.7-5.41c2.48-0.42,4.85,1.31,5.29,3.88
				c0.44,2.57-1.22,4.99-3.7,5.41C156.81,517.35,154.44,515.62,154,513.05z"/>
			<g class="st46">
				<path class="st6" d="M152.77,464.58c-2.2,1.56-4.29,4.06-5.78,6.56l-0.87-9.09C150.89,459.8,157.71,461.09,152.77,464.58z"/>
				<path class="st6" d="M149.08,493.05l-1.33-14c2.53-6.77,11.74-8.84,11.74-8.84l2.08,12.15
					C151.57,484.08,149.08,493.05,149.08,493.05z"/>
			</g>
			<g>
				<path class="st22" d="M163.44,511.83c0.44,2.57-1.22,4.99-3.7,5.41c-1.3,0.22-2.57-0.15-3.55-0.93c0.9,0.56,1.99,0.81,3.11,0.62
					c2.48-0.42,4.14-2.85,3.7-5.41c-0.21-1.22-0.85-2.25-1.74-2.95C162.37,509.25,163.2,510.41,163.44,511.83z"/>
				<path class="st22" d="M152.24,511.72l-7.47-70.59l8.43-1.44l0.06,0.38l-8.05,1.38l7.47,70.59c0.24,2.28,1.36,4.21,2.9,5.4
					C153.82,516.29,152.5,514.21,152.24,511.72z"/>
			</g>
		</g>
		<g class="st42">
			<path class="st33" d="M165.56,458.8l0.57-3.46l6.36,1.05l6.36,1.05l-0.57,3.46l-1.32,0.94c-2.2,2.03-5.16,30.21-5.23,33.81
				c-0.08,3.6-1.7,6.33-6.63,5.52c-4.93-0.81-5.59-3.92-4.51-7.35c1.08-3.43,7.32-31.07,5.89-33.7L165.56,458.8z"/>
			<path class="st22" d="M168.24,459.19l0.56-3.4l3.69,0.61l3.69,0.61l-0.56,3.4l-0.84,1c-1.43,2.12-5.01,29.76-5.29,33.26
				c-0.28,3.51-1.41,6.27-4.27,5.8c-2.86-0.47-3.05-3.46-2.19-6.87c0.86-3.41,6.34-30.74,5.67-33.2L168.24,459.19z"/>
			<path class="st22" d="M169.75,459.44l0.56-3.4l2.19,0.36l2.19,0.36l-0.56,3.4l-0.57,1.05c-1,2.19-4.97,29.76-5.36,33.25
				c-0.4,3.49-1.26,6.3-2.96,6.02c-1.7-0.28-1.61-3.22-0.87-6.65c0.74-3.43,5.84-30.82,5.59-33.21L169.75,459.44z"/>
			<path class="st37" d="M177.26,454.79l-8.76-1.44c-1.1-0.18-2.13,0.56-2.31,1.66l-0.06,0.34l12.73,2.1l0.06-0.34
				C179.1,456.01,178.36,454.97,177.26,454.79z"/>
			<path class="st22" d="M175.89,454.57l-6.02-0.99c-0.84-0.14-1.63,0.43-1.77,1.27l-0.06,0.39l9.05,1.49l0.06-0.39
				C177.3,455.5,176.73,454.71,175.89,454.57z"/>
			<path class="st22" d="M173.32,454.14l-0.88-0.15c-0.44-0.07-0.85,0.22-0.92,0.66l-0.18,1.12l2.46,0.41l0.18-1.12
				C174.05,454.63,173.76,454.22,173.32,454.14z"/>
			<polygon class="st43" points="178.55,405.41 183.13,406.17 182.2,415.22 181.1,416.8 180.31,416.67 174.11,454.27 171.65,453.87 
				177.85,416.26 177.06,416.13 176.52,414.28 			"/>
			<polygon class="st22" points="180.26,405.69 181.42,405.88 181.2,415.05 179.59,416.55 179.39,416.52 173.19,454.12 
				172.57,454.02 178.77,416.41 178.57,416.38 177.52,414.45 			"/>
			<path class="st22" d="M174.08,474.45c-0.42,2.85-0.81,5.88-1.14,8.74c-8.83-1.52-11.72,8.35-11.75,8.49l0,0
				c0.86-3.44,2.33-9.93,3.54-16.15C167.2,472.82,174.08,474.45,174.08,474.45z"/>
		</g>
	</g>
</g>
<g>
	<path class="st34" d="M525.95,750.33v99.8c0,8.51-6.89,15.4-15.4,15.4h-11.7v2.45h-9.45v-2.45h-5.85v2.45h-9.45v-2.45h-5.85v2.45
		h-9.45v-2.45h-68.75v2.45h-9.45v-2.45h-5.85v2.45h-9.45v-2.45h-5.85v2.45H350v-2.45h-11.15c-8.51,0-15.4-6.89-15.4-15.4v-99.8
		H525.95z"/>
	<g class="st5">
		<path class="st20" d="M338.85,861.48H350v0.81h9.45v-0.81h5.85v0.81h9.45v-0.81h5.85v0.81h9.45v-0.81h68.75v0.81h9.45v-0.81h5.85
			v0.81h9.45v-0.81h5.85v0.81h9.45v-0.81h11.7c4.98,0,9.4-0.78,12.21-1.99c-2.81,3.67-7.23,6.05-12.21,6.05h-11.7v2.45h-9.45v-2.45
			h-5.85v2.45h-9.45v-2.45h-5.85v2.45h-9.45v-2.45h-68.75v2.45h-9.45v-2.45h-5.85v2.45h-9.45v-2.45h-5.85v2.45H350v-2.45h-11.15
			c-4.98,0-9.4-2.38-12.21-6.05C329.45,860.69,333.87,861.48,338.85,861.48z"/>
	</g>
	<path class="st34" d="M384.65,717.19c0-7.69,6.26-13.95,13.95-13.95h52.2c7.69,0,13.95,6.26,13.95,13.95v22.2h-80.1V717.19z
		 M458.75,717.19c0-4.38-3.57-7.95-7.95-7.95h-52.2c-4.38,0-7.95,3.57-7.95,7.95v16.2h68.1V717.19z"/>
	<g class="st47">
		<path class="st6" d="M398.6,703.24h52.2c7.69,0,13.95,6.26,13.95,13.95v22.2h-2.1v-19.2c0-7.69-5.93-13.95-13.22-13.95h-49.46
			c-7.29,0-13.22,6.26-13.22,13.95v19.2h-2.1v-22.2C384.65,709.49,390.91,703.24,398.6,703.24z"/>
	</g>
	<path class="st7" d="M513.75,729.64h-178.1c-6.74,0-12.2,5.46-12.2,12.2v8.5h202.5v-8.5C525.95,735.1,520.49,729.64,513.75,729.64z
		"/>
	<path class="st22" d="M515.66,733.39H333.73c-4.52,0-8.41,2.71-10.13,6.6c0.9-5.86,5.94-10.35,12.04-10.35h178.1
		c6.11,0,11.15,4.49,12.04,10.35C524.07,736.1,520.19,733.39,515.66,733.39z"/>
	<path class="st13" d="M522.61,747H326.79c-1.84,0-3.34,1.49-3.34,3.34l0,0h202.5l0,0C525.95,748.49,524.45,747,522.61,747z"/>
	<path class="st13" d="M424.7,757.83h101.25v23.4c0-4.5-9.75-10.8-31.27-10.8s-69.97,0-69.97,0s-48.45,0-69.97,0
		c-21.52,0-31.27,6.3-31.27,10.8v-23.4H424.7z"/>
	<path class="st34" d="M526.85,765.33h-204.3c-4.14,0-7.5-3.36-7.5-7.5l0,0c0-4.14,3.36-7.5,7.5-7.5h204.3c4.14,0,7.5,3.36,7.5,7.5
		l0,0C534.35,761.98,530.99,765.33,526.85,765.33z"/>
	<path class="st22" d="M322.55,750.33h204.3c4.14,0,7.5,3.36,7.5,7.5l0,0c0,0.73-0.11,1.43-0.3,2.1c-0.91-3.12-3.78-5.4-7.2-5.4
		h-204.3c-3.41,0-6.29,2.28-7.2,5.4c-0.19-0.67-0.3-1.37-0.3-2.1l0,0C315.05,753.69,318.41,750.33,322.55,750.33z"/>
	<path class="st7" d="M346.24,732.46h-7.03c-0.67,0-1.21-0.54-1.21-1.21v-3.82c0-2.18,1.76-3.94,3.94-3.94h1.57
		c2.18,0,3.94,1.76,3.94,3.94v3.82C347.45,731.92,346.91,732.46,346.24,732.46z"/>
	<path class="st7" d="M361.54,732.46h-7.03c-0.67,0-1.21-0.54-1.21-1.21v-3.82c0-2.18,1.76-3.94,3.94-3.94h1.57
		c2.18,0,3.94,1.76,3.94,3.94v3.82C362.75,731.92,362.21,732.46,361.54,732.46z"/>
	<path class="st7" d="M376.84,732.46h-7.03c-0.67,0-1.21-0.54-1.21-1.21v-3.82c0-2.18,1.76-3.94,3.94-3.94h1.57
		c2.18,0,3.94,1.76,3.94,3.94v3.82C378.05,731.92,377.51,732.46,376.84,732.46z"/>
	<path class="st7" d="M479.04,732.46h-7.03c-0.67,0-1.21-0.54-1.21-1.21v-3.82c0-2.18,1.76-3.94,3.94-3.94h1.57
		c2.18,0,3.94,1.76,3.94,3.94v3.82C480.25,731.92,479.71,732.46,479.04,732.46z"/>
	<path class="st7" d="M494.34,732.46h-7.03c-0.67,0-1.21-0.54-1.21-1.21v-3.82c0-2.18,1.76-3.94,3.94-3.94h1.57
		c2.18,0,3.94,1.76,3.94,3.94v3.82C495.55,731.92,495.01,732.46,494.34,732.46z"/>
	<path class="st7" d="M509.64,732.46h-7.03c-0.67,0-1.21-0.54-1.21-1.21v-3.82c0-2.18,1.76-3.94,3.94-3.94h1.57
		c2.18,0,3.94,1.76,3.94,3.94v3.82C510.85,731.92,510.31,732.46,509.64,732.46z"/>
	<path class="st7" d="M403.97,711.79h41.45c1.95,0,3.52-1.58,3.52-3.52v-4.05c0-1.95-1.58-3.52-3.52-3.52h-41.45
		c-1.95,0-3.52,1.58-3.52,3.52v4.05C400.45,710.21,402.03,711.79,403.97,711.79z"/>
	<path class="st22" d="M403.05,704.25h43.3c0.74,0,1.35-0.6,1.35-1.35l0,0c0-0.74-0.6-1.35-1.35-1.35h-43.3
		c-0.74,0-1.35,0.6-1.35,1.35l0,0C401.7,703.65,402.3,704.25,403.05,704.25z"/>
	<path class="st13" d="M400.96,702.4c0,0.04-0.01,0.08-0.01,0.12v3.4c0,1.83,1.48,3.31,3.31,3.31h40.87c1.83,0,3.31-1.48,3.31-3.31
		v-3.4c0-0.04-0.01-0.08-0.01-0.12c0.32,0.53,0.51,1.14,0.51,1.8v4.05c0,1.95-1.58,3.52-3.52,3.52h-41.45
		c-1.95,0-3.52-1.58-3.52-3.52v-4.05C400.45,703.55,400.64,702.93,400.96,702.4z"/>
	
		<rect x="407.55" y="776.16" transform="matrix(-1 -4.486867e-11 4.486867e-11 -1 849.399 1628.5183)" class="st48" width="34.3" height="76.19"/>
	
		<rect x="340.88" y="776.16" transform="matrix(-1 -4.486867e-11 4.486867e-11 -1 716.0506 1628.5183)" class="st48" width="34.3" height="76.19"/>
	
		<rect x="473.68" y="776.16" transform="matrix(-1 -4.486867e-11 4.486867e-11 -1 981.6476 1628.5183)" class="st48" width="34.3" height="76.19"/>
</g>
</svg>
