<svg width="70" height="70" xmlns="http://www.w3.org/2000/svg">
 <g>
  <title>background</title>
  <rect x="-1" y="-1" width="72" height="72" id="canvas_background" fill="none"/>
 </g>

 <g>
  <title>Layer 1</title>
  <path fill="#8c8c8c" d="m66.48107,36.5772c0,-5.77953 -2.36128,-11.01707 -6.16745,-14.80297l0,-12.19433c0,-4.63066 -3.76833,-8.39764 -8.39899,-8.39764c-2.51807,0 -4.77528,1.1205 -6.31613,2.88166c-1.54085,-1.76116 -3.79806,-2.88166 -6.31748,-2.88166c-2.51807,0 -4.77528,1.1205 -6.31613,2.88166c-1.54085,-1.76116 -3.79806,-2.88166 -6.31614,-2.88166s-4.77528,1.1205 -6.31613,2.88166c-1.5422,-1.76116 -3.79941,-2.88166 -6.31748,-2.88166c-4.63066,0 -8.39763,3.76698 -8.39763,8.39764l0,23.69124c0,1.55842 0.43522,3.01547 1.17861,4.26842c-0.65959,1.65844 -1.03129,3.46286 -1.03129,5.35378c0,7.83535 6.22017,14.2461 13.98119,14.55427l-1.46786,8.97072c-0.18653,1.13401 0.5839,2.20449 1.71791,2.38967c1.13401,0.18787 2.20449,-0.58255 2.39102,-1.71791l1.88686,-11.52124c0.10678,-0.65688 -0.10677,-1.32594 -0.57444,-1.80036c-0.46901,-0.47306 -1.13536,-0.69203 -1.7936,-0.59336c-0.52984,0.0811 -1.05832,0.12165 -1.57194,0.12165c-5.73628,0 -10.40344,-4.66716 -10.40344,-10.40344c0,-0.74475 0.07975,-1.47057 0.23113,-2.16936c1.15429,0.60148 2.46536,0.94614 3.85618,0.94614c2.51807,0 4.77528,-1.11914 6.31748,-2.88166c1.25296,1.43272 2.98033,2.43292 4.93748,2.75866c2.1207,8.64904 9.64788,15.19359 18.7835,15.82345l1.8301,9.76817c0.18787,1.00021 1.06102,1.69764 2.04365,1.69764c0.12705,0 0.25546,-0.01216 0.38521,-0.03514c1.12996,-0.2122 1.8747,-1.29891 1.66115,-2.42887l-1.70305,-9.08695c10.23989,-1.32595 18.20771,-10.14528 18.20771,-20.70821l0,-0.00001zm-14.56779,-31.23194c2.33696,0 4.23599,1.90038 4.23599,4.23464l0,8.97477c-0.18517,-0.10948 -0.3744,-0.20815 -0.56228,-0.30952c-0.02568,-0.01352 -0.04865,-0.02703 -0.07298,-0.04055c-0.25546,-0.13787 -0.51497,-0.27033 -0.77584,-0.39738c-0.06487,-0.03108 -0.12975,-0.06217 -0.19463,-0.09326c-0.23518,-0.11219 -0.47172,-0.21896 -0.7096,-0.32169c-0.09867,-0.0419 -0.19734,-0.08244 -0.29736,-0.12299c-0.21491,-0.08921 -0.42981,-0.17571 -0.64742,-0.25681c-0.13246,-0.05001 -0.26492,-0.09462 -0.39873,-0.14192c-0.19464,-0.06758 -0.38657,-0.13516 -0.58255,-0.19734c-0.16896,-0.05406 -0.33926,-0.10137 -0.51092,-0.15138c-0.16625,-0.04866 -0.3325,-0.09867 -0.50145,-0.14327c-0.21626,-0.05677 -0.43657,-0.10678 -0.65689,-0.15679c-0.12705,-0.02838 -0.2541,-0.06082 -0.3798,-0.08786c-0.32574,-0.06758 -0.65284,-0.12705 -0.98534,-0.17841c-0.02703,-0.00405 -0.05271,-0.00946 -0.07974,-0.01487c-0.36494,-0.05677 -0.72988,-0.10272 -1.09887,-0.13921c-0.00541,0 -0.01081,-0.00136 -0.01622,-0.00136l0,-6.21881c0,-2.33561 1.90038,-4.23599 4.23463,-4.23599zm-12.63226,0c2.33696,0 4.23598,1.90038 4.23598,4.23464l0,6.11474l-8.47061,0l0,-6.11474c0,-2.33426 1.89903,-4.23464 4.23463,-4.23464zm-12.63226,0c2.3356,0 4.23598,1.90038 4.23598,4.23464l0,6.11474l-2.6627,0c-2.25315,0 -4.29951,0.89747 -5.80927,2.34776l0,-8.46386c0,-2.3329 1.90038,-4.23328 4.23599,-4.23328zm-12.63362,32.16186c-2.3356,0 -4.23463,-1.90038 -4.23463,-4.23598l0,-23.69124c0,-2.33561 1.89903,-4.23464 4.23463,-4.23464s4.23598,1.90038 4.23598,4.23464l0,23.69124c0,2.3356 -1.90038,4.23598 -4.23598,4.23598zm8.39763,-4.23598l0,-3.12901c1.50976,1.45029 3.55612,2.34777 5.80928,2.34777l2.66269,0l0,0.78124c0,2.3356 -1.90038,4.23598 -4.23598,4.23598s-4.23599,-1.90038 -4.23599,-4.23598zm23.37226,20.02023c-0.09326,-0.01217 -0.18653,-0.02838 -0.28249,-0.02838c-7.60693,0 -14.0366,-5.11995 -16.03295,-12.09162c3.2439,-1.16239 5.5768,-4.26031 5.5768,-7.90023l0,-0.78124l10.55211,0c1.15023,0 2.0815,-0.93127 2.0815,-2.0815c0,-1.15023 -0.93127,-2.0815 -2.0815,-2.0815l-17.37646,0c-2.3356,0 -4.23463,-1.90038 -4.23463,-4.23463s1.89903,-4.23464 4.23463,-4.23464l17.37511,0c0,0 0.00135,0 0.00406,0c0.27302,0 0.5447,0.00811 0.81638,0.02163c0.09596,0.00406 0.19328,0.01352 0.28924,0.02027c0.17436,0.01082 0.34737,0.02298 0.52038,0.0392c0.11624,0.01081 0.23113,0.02703 0.34601,0.04055c0.15274,0.01757 0.30547,0.03514 0.45685,0.05812c0.11895,0.01757 0.23789,0.03785 0.35548,0.05812c0.14733,0.02568 0.296,0.05001 0.44198,0.07975c0.11489,0.02297 0.22842,0.0473 0.34331,0.07163c0.15138,0.03244 0.30276,0.06758 0.4528,0.10543c0.10407,0.02568 0.20679,0.05271 0.30952,0.0811c0.16354,0.04325 0.32709,0.0892 0.48793,0.13921c0.08516,0.02704 0.17166,0.05272 0.25681,0.07975c0.18517,0.05947 0.36764,0.12165 0.54876,0.18652c0.06082,0.02163 0.12029,0.0419 0.17977,0.06488c0.2149,0.07975 0.42846,0.16355 0.64067,0.25275c0.02568,0.01082 0.05001,0.02163 0.07569,0.03109c5.98768,2.54781 10.19664,8.48819 10.19664,15.39363c0,9.11534 -7.41771,16.61144 -16.5344,16.71011z" id="svg_1"/>
 </g>
</svg>