<svg width="204.052" height="204.052" xmlns="http://www.w3.org/2000/svg">

 <g>
  <title>background</title>
  <rect fill="none" id="canvas_background" height="602" width="802" y="-1" x="-1"/>
 </g>
 <g>
  <title>Layer 1</title>
  <g id="svg_1">
   <g id="svg_2">
    <g id="svg_3">
     <path id="svg_4" fill="#8c8c8c" d="m178.026,46.019l-47.738,0l0,-13.317c0,-15.589 -12.683,-28.273 -28.262,-28.273c-15.589,0 -28.273,12.683 -28.273,28.273l0,13.317l-47.728,0l-26.025,153.604l204.052,0l-26.026,-153.604zm-93.866,-13.321c0,-9.856 8.02,-17.866 17.866,-17.866s17.851,8.006 17.851,17.866l0,10.762l-35.717,0l0,-10.762zm-52.741,20.36l141.218,0l23.631,139.511l-188.484,0l23.635,-139.511z"/>
    </g>
    <g id="svg_5">
     <path id="svg_6" fill="#8c8c8c" d="m100.555,93.793l-8.289,0l-15.826,19.43c-1.306,1.686 -2.684,3.522 -4.062,5.526l-0.236,0l0,-24.956l-6.692,0l0,51.754l6.689,0l0,-19.723l4.993,-5.69l16.971,25.413l7.913,0l-20.206,-29.79l18.745,-21.964z"/>
    </g>
    <g id="svg_7">
     <path id="svg_8" fill="#8c8c8c" d="m132.371,113.977l-0.154,0c-1.696,-3.06 -5.146,-6.36 -11.599,-6.36c-8.593,0 -16.813,7.057 -16.813,19.655c0,10.293 6.607,18.12 15.826,18.12c5.758,0 9.82,-2.763 11.825,-6.216l0.154,0l0,4.076c0,9.445 -5.075,13.048 -11.978,13.048c-4.617,0 -8.453,-1.381 -10.915,-2.992l-1.686,5.229c2.992,1.99 7.902,3.06 12.365,3.06c4.688,0 9.906,-1.152 13.6,-4.452c3.532,-3.31 5.3,-8.443 5.3,-17.053l0,-21.57c0,-4.463 0.072,-7.53 0.293,-10.142l-5.984,0l-0.234,5.597zm-0.848,15.755c0,1.152 -0.14,2.462 -0.526,3.618c-1.392,4.295 -5.157,6.911 -9.373,6.911c-7.233,0 -10.976,-6.073 -10.976,-13.363c0,-8.607 4.606,-14.061 11.048,-14.061c5.003,0 8.221,3.225 9.455,7.233c0.308,0.834 0.376,1.84 0.376,2.992l0,6.671l-0.004,0l0,-0.001z"/>
    </g>
   </g>
  </g>
  <g id="svg_9"/>
  <g id="svg_10"/>
  <g id="svg_11"/>
  <g id="svg_12"/>
  <g id="svg_13"/>
  <g id="svg_14"/>
  <g id="svg_15"/>
  <g id="svg_16"/>
  <g id="svg_17"/>
  <g id="svg_18"/>
  <g id="svg_19"/>
  <g id="svg_20"/>
  <g id="svg_21"/>
  <g id="svg_22"/>
  <g id="svg_23"/>
 </g>
</svg>