<?xml version="1.0" encoding="utf-8"?>
<!-- Generator: Adobe Illustrator 23.0.1, SVG Export Plug-In . SVG Version: 6.00 Build 0)  -->
<svg version="1.1" id="Layer_1" xmlns="http://www.w3.org/2000/svg" xmlns:xlink="http://www.w3.org/1999/xlink" x="0px" y="0px"
	 viewBox="0 0 100 160" style="enable-background:new 0 0 100 160;" xml:space="preserve">
<style type="text/css">
	.st0{opacity:0.15;fill:#1C1F23;enable-background:new    ;}
	.st1{fill:url(#SVGID_1_);}
	.st2{fill:url(#SVGID_2_);}
	.st3{fill:#323938;}
	.st4{fill:#58402C;}
	.st5{opacity:0.3;}
	.st6{fill:#FFFFFF;}
	.st7{fill:#41C3C4;}
	.st8{opacity:0.2;fill:#1C1F23;enable-background:new    ;}
	.st9{fill:#EF5A32;}
	.st10{fill:#FCBD92;}
	.st11{opacity:0.15;enable-background:new    ;}
	.st12{fill:url(#SVGID_3_);}
	.st13{opacity:0.3;fill:#1C1F23;enable-background:new    ;}
	.st14{fill:url(#SVGID_4_);}
	.st15{fill:url(#SVGID_5_);}
	.st16{fill:#73472C;}
	.st17{fill:#FBB040;}
	.st18{opacity:0.35;fill:#FFFFFF;enable-background:new    ;}
	.st19{fill:#40525E;}
	.st20{opacity:0.3;enable-background:new    ;}
	.st21{fill:#1C1F23;}
	.st22{fill:#D6A17C;}
	.st23{opacity:0.2;fill:#FFFFFF;enable-background:new    ;}
	.st24{fill:#443113;}
	.st25{clip-path:url(#SVGID_7_);}
	.st26{opacity:0.5;fill:#FFFFFF;enable-background:new    ;}
	.st27{fill:#4E474B;}
	.st28{opacity:0.3;fill:#FFE6D2;enable-background:new    ;}
	.st29{opacity:0.5;clip-path:url(#SVGID_9_);fill:#FFFFFF;enable-background:new    ;}
	.st30{clip-path:url(#SVGID_11_);fill:#4E474B;}
	.st31{fill:#6D6E71;}
	.st32{fill:#58595B;}
	.st33{opacity:0.15;fill:#FFFFFF;enable-background:new    ;}
	.st34{fill:#F7941E;}
	.st35{fill:#3C3C4E;}
	.st36{fill:#BABEC0;}
	.st37{fill:#FFE6D2;}
	.st38{fill:#F15A29;}
	.st39{opacity:0.5;}
	.st40{opacity:0.1;enable-background:new    ;}
	.st41{opacity:0.3;fill:#41C3C4;enable-background:new    ;}
	.st42{opacity:0.5;fill:#FFE6D2;enable-background:new    ;}
	.st43{clip-path:url(#SVGID_13_);}
	.st44{fill:#535363;}
	.st45{fill:#BCBEC0;}
	.st46{fill:#D6D7D8;}
	.st47{opacity:0.2;}
	.st48{clip-path:url(#SVGID_15_);}
	.st49{opacity:5.000000e-02;}
	.st50{opacity:5.000000e-02;fill:#FFFFFF;enable-background:new    ;}
</style>
<path class="st0" d="M31.2,158.5c0,0.6,6.7,1,15,1s15-0.5,15-1s-6.7-1-15-1S31.2,157.9,31.2,158.5z"/>
<path class="st0" d="M56.6,158.5c0,0.6,9.6,1,21.4,1s21.4-0.5,21.4-1s-9.6-1-21.4-1S56.6,157.9,56.6,158.5z"/>
<path class="st0" d="M1.2,158.5c0,0.6,5.8,1,13,1s13-0.5,13-1s-5.8-1-13-1C7,157.5,1.2,157.9,1.2,158.5z"/>
<g>
	
		<linearGradient id="SVGID_1_" gradientUnits="userSpaceOnUse" x1="152.9209" y1="-383.4921" x2="152.9209" y2="-345.6184" gradientTransform="matrix(-1 0 0 -1 200.1663 -224.99)">
		<stop  offset="0" style="stop-color:#323938"/>
		<stop  offset="1" style="stop-color:#40525E"/>
	</linearGradient>
	<path class="st1" d="M50,158.5c0-11.1-0.2-27.3,1.2-37.9h-5.7c0,0-2.1,6.5-2.1,11.2c0,4.7,4.5,15,4.5,26.7H50L50,158.5z"/>
	
		<linearGradient id="SVGID_2_" gradientUnits="userSpaceOnUse" x1="177.0668" y1="-383.4921" x2="177.0668" y2="-345.6184" gradientTransform="matrix(-1 0 0 -1 200.1663 -224.99)">
		<stop  offset="0" style="stop-color:#323938"/>
		<stop  offset="1" style="stop-color:#40525E"/>
	</linearGradient>
	<path class="st2" d="M18.5,158.5c3-11.1,7.1-27.3,11.3-37.9h-5.7c0,0-3.8,6.5-5.1,11.2c-1.3,4.7,0.5,15-2.6,26.7H18.5L18.5,158.5z"
		/>
	<path class="st3" d="M27.6,63.2c-0.5-1.2,2.3-5.2,10.6-5.9c8.3-0.7,18.3,2.1,17.6,5.5c-0.7,3.3-7.1,3.9-12.5,3.9
		C37.8,66.7,29.7,68.3,27.6,63.2z"/>
	<g>
		<g>
			<path class="st4" d="M53.7,83.5c-0.1-1.8-5.4-2.1-11.9-1.6c-6.5,0.5-11.4,1.8-11.5,3.5l-0.1-2.8c-0.1-1.8,5.1-3,11.6-3.5
				c6.5-0.5,11.8-0.2,12,1.6L53.7,83.5z"/>
		</g>
		<g class="st5">
			<path class="st6" d="M53.2,80.7c-0.1-1.5-5.2-1.7-11.4-1.2s-11.2,1.6-11.1,3.1l-0.5,0.1c-0.1-1.8,5.1-3,11.6-3.5
				c6.5-0.5,11.8-0.2,12,1.6L53.2,80.7z"/>
		</g>
	</g>
	<g>
		<path class="st7" d="M55.3,35.9c6.8,0,16.5,23.3,16.5,23.3l-9.2,3.6c0,0-4.2-7.6-7.3-7.6C50.2,55.2,49.4,35.9,55.3,35.9z"/>
		<path class="st8" d="M58.4,50.3c0.7,3.4,4.1,7.6,4.1,7.6s-1,2.5-0.1,3.4c0.8,0.8,1.3,1.1,1.3,1.1l1.2-0.1c0,1.7,0.5,3.1,1.2,3.7
			c-0.7,1-1.8,0.5-2.2,0c-0.5-0.5-0.6-1.1-1.3-1.4c-0.4-0.2-0.9-1.6-0.9-3.3c-1.4-2.2-4.1-5.9-6.3-5.9c-0.4,0-0.8-0.1-1.1-0.3
			C55.1,51.9,57.4,45.4,58.4,50.3z"/>
		<ellipse class="st9" cx="67.2" cy="61" rx="4.9" ry="4.9"/>
	</g>
	<g>
		<ellipse class="st10" cx="67.2" cy="61" rx="4.9" ry="4.9"/>
		<path class="st10" d="M69.8,65.2c-5.6,3.5-10.9-4.8-5.2-8.4c4.4-2.8,14.9-9.2,14.9-9.2l1.4,2.2C80.9,49.9,74.7,62.2,69.8,65.2z"/>
		<path class="st11" d="M64.6,56.8c1.2-0.7,2.8-1.8,4.6-2.9c-0.5,0.6-1.1,1.1-1.5,1.8c-0.8,1.1-1.3,2.7-0.6,4.1
			c0.1,0.2,0.3,0.4,0.4,0.6c0.5,0.5,1.2,0.8,1.9,0.7c0.3,0,0.6-0.2,0.9-0.3c3-1.3,5.3-4.2,7.4-6.7c0.6-0.7,1.2-1.4,1.8-2
			c0.1-0.1,0.2-0.2,0.3-0.2c-2,3.6-6.4,11.2-10,13.4C64.3,68.7,58.9,60.4,64.6,56.8z"/>
	</g>
	
		<linearGradient id="SVGID_3_" gradientUnits="userSpaceOnUse" x1="152.512" y1="-345.6203" x2="152.512" y2="-307.5734" gradientTransform="matrix(-1 0 0 -1 200.1663 -224.99)">
		<stop  offset="0" style="stop-color:#40525E"/>
		<stop  offset="1" style="stop-color:#323938"/>
	</linearGradient>
	<path class="st12" d="M41.4,92.4v-9.8H53c0,0,3,8.7-1.9,38h-5.7C45.4,120.6,46.2,92.4,41.4,92.4z"/>
	<path class="st13" d="M46.8,121.2c-0.1,0-0.1,0.1-0.2,0.2c0,0,0,0,0,0c-0.1,0-0.2-0.1-0.3-0.1c0,0.1,0,0.3-0.1,0.4
		c-0.1,0.1-0.3,0.2-0.4,0.3c0.1-0.3,0.1-0.6,0.1-1c0-0.1,0.1-0.2,0.2-0.1c0.1,0,0.2,0.1,0.2,0.1c0.1-5.3,0-10.6-0.4-15.9
		c-0.2-2.7-0.4-5.3-0.7-8c0-0.2-0.1-0.4-0.1-0.7c0-0.1,0-0.2,0-0.3c0-0.1,0.1-0.2,0.1-0.4c0-0.1,0-0.2,0-0.3
		c-0.1-0.2-0.2-0.5-0.3-0.7c-0.1-0.1-0.1-0.2-0.1-0.3c-0.1-0.2,0-0.4,0-0.6c0-0.2,0-0.4,0-0.6c0,0.1,0.1,0.2,0.1,0.3
		c0.1,0.2,0,0.4,0,0.6c0,0.2,0.1,0.4,0.1,0.5c0.1,0.3,0.2,0.6,0.3,0.9c0,0.1,0.1,0.1,0.1,0.2c0,0.1,0,0.1,0,0.2
		c0,0.3,0.1,0.6,0.1,0.9c0,0.3,0.1,0.7,0.1,1c0.1,0.7,0.1,1.3,0.2,2c0.2,2.4,0.4,4.7,0.5,7.1C46.8,111.7,46.9,116.5,46.8,121.2z"/>
	<path class="st13" d="M46.7,92.9c0,0-1.9-0.1-2.4,0.3s2.1,2.5,2.4,3.1c0.3,0.6-1.2-0.3-1.4,0.3c-0.2,0.5-0.1,9.2-0.1,9.2v0
		c-0.4-6.8-1.5-13.3-3.8-13.3C43.9,91.9,46.7,92.9,46.7,92.9z"/>
	
		<linearGradient id="SVGID_4_" gradientUnits="userSpaceOnUse" x1="166.1133" y1="-345.6203" x2="166.1133" y2="-307.5734" gradientTransform="matrix(-1 0 0 -1 200.1663 -224.99)">
		<stop  offset="0" style="stop-color:#40525E"/>
		<stop  offset="1" style="stop-color:#323938"/>
	</linearGradient>
	<path class="st14" d="M41.4,92.4l2.6-9.8H32.4c0,0-5.3,8.7-8.3,38h5.7C29.8,120.6,36.6,92.4,41.4,92.4z"/>
	<g>
		<path class="st13" d="M23.1,122.7c0.4-0.5,0.7-1,1.1-1.5c0.5-0.7,0.7-1.3,0.8-2.1c0.2-1.3,0.4-2.7,0.6-4c0.5-2.9,1-5.8,1.6-8.6
			c0.9-4.2,1.9-8.2,3.1-12.3c-1.1,4.1-2.1,8.4-2.9,12.6c-0.6,2.9-1.1,5.9-1.5,8.9c-0.2,1.4-0.4,2.8-0.6,4.2c-0.1,0.6,0,0.8-0.4,1.2
			C24.4,121.6,23.8,122.2,23.1,122.7C23.2,122.8,23.1,122.7,23.1,122.7z"/>
		<path class="st13" d="M31.7,89.4c-0.2,0.5-0.3,1-0.5,1.5C31.4,90.4,31.5,89.9,31.7,89.4C31.7,89.4,31.7,89.4,31.7,89.4z"/>
		<path class="st13" d="M30.3,94.1c0.3-1.1,0.6-2.1,0.9-3.2C30.9,92,30.6,93.1,30.3,94.1z"/>
	</g>
	<g>
		<path class="st7" d="M53,82.6c0-14.1,1.5-22,4.4-27.4c2.1-6.6,1.6-19.3-2.1-19.3c-3.7,0-13.9,0-13.9,0v46.7H53L53,82.6z"/>
		<path class="st7" d="M32.4,82.6c2.9-13.2-4.9-22-7.8-27.4c-2.1-6.6-3.7-19.3,0-19.3s19.4,0,19.4,0v46.7H32.4L32.4,82.6z"/>
	</g>
	<path class="st8" d="M46.2,35.9c0.8,0,1.6,0,2.5,0c1.2,0.5,2.5,1.5,3.1,2.9c1,2.5,2.9,8.3,2.7,16c-0.1,4.5,0.6,4.8,1.2,4.3
		C53.9,64.3,53,71.5,53,82.6h-9h-2.6h-9c2.9-13.2-4.9-22-7.8-27.4c-1.5-4.7-2.7-12.3-2-16.4c2.4-0.4,4.6,0.5,6,4
		c1.8,4.3,0.5,6.7,0,10C28,56,31,61.6,33,61.1s4.3-3.2,4.1-9.5c-0.1-6.3-5.2-15.1-8.8-15.6c0.9,0,1.9,0,2.9,0c1.8,0.7,3.8,2.2,5,4.3
		c2.1,3.7,4.4,7.6,9.9,7.6s5-0.1,4.8-4.1C50.7,39.8,48.4,36.4,46.2,35.9z"/>
	<path class="st10" d="M34.3,36.8c0,0.9,4.4,2,7.9,2c3.5,0,4.8-1.1,4.8-2s-3.6-0.9-7.1-0.9C36.4,35.9,34.3,36,34.3,36.8z"/>
	<path class="st11" d="M26.9,35.9c6.7,3.8,15.2,4.4,18.4,4.4c3.3,0,6.5-4.4,6.5-4.4H26.9z"/>
	
		<linearGradient id="SVGID_5_" gradientUnits="userSpaceOnUse" x1="158.4839" y1="-310.343" x2="158.4839" y2="-273.0576" gradientTransform="matrix(-1 0 0 -1 200.1663 -224.99)">
		<stop  offset="0" style="stop-color:#323938"/>
		<stop  offset="1" style="stop-color:#40525E"/>
	</linearGradient>
	<path class="st15" d="M31.9,83.5c1.1,1.5,7,2.3,12.8,1.6c5.8-0.7,8.2-2.3,8.3-2.5c0-3.9,2.1-17.5,2.8-19.8c-1.8,0-0.9-9-0.9-13.6
		c0-0.4,0-0.8-0.1-1.2c-6.1,2-17.3,0-17.3,0c3.3,11.7-4.5,17.8-9.8,15.1C27.6,63.2,31.9,72.3,31.9,83.5z"/>
	<path class="st13" d="M31.9,83.5c0-11.3-4.3-20.3-4.3-20.3c1,0.5,2.2,0.7,3.3,0.6v0l-0.3,0.5c0,0,3.3,8,3.2,16.4
		c0.2,1.5,4.1,2.6,9.1,2.4c3.9-0.1,8.3-0.1,10.2-2.4C53,81.4,53,82.1,53,82.6c-0.1,0.2-2.4,1.8-8.3,2.5C38.9,85.8,33,85,31.9,83.5z"
		/>
	<path class="st13" d="M53.4,84.4c-0.3,3.9-15.3,6.6-20.6,5.8c-3.3-0.5-2.4-3.4-1.4-5.5c0.6-1.3,0.5-2.8,0.5-2.8s0.4,1.1,8.4,1.2
		c8,0,12.4-1.5,12.7-2.3C53.4,82.1,53.4,84.4,53.4,84.4z"/>
	<g>
		<path class="st7" d="M24.6,35.9c-6.8,0-16.5,23.3-16.5,23.3l9.2,3.6c0,0,4.2-7.6,7.3-7.6C29.7,55.2,30.5,35.9,24.6,35.9z"/>
		<ellipse class="st9" cx="12.7" cy="61" rx="4.9" ry="4.9"/>
	</g>
	<g>
		<ellipse class="st10" cx="12.7" cy="61" rx="4.9" ry="4.9"/>
		<path class="st10" d="M7.8,61c0-6.5,9.9-6.7,9.9,0c0,5.2-0.1,23.7-0.1,23.7h-2.6C14.9,84.8,7.8,66.7,7.8,61z"/>
		<path class="st11" d="M11.8,74.2c0.7,2.2,1.5,4.3,2,6.5c0.3,1.1,0.5,2.1,0.7,3.2C13.1,80.2,7.8,66,7.8,61c0-6.5,9.9-6.7,9.9,0
			c0,0.8,0,1.9,0,3.2c-0.2-0.9-0.4-1.8-0.9-2.6c-0.8-1.4-2.5-2.5-4.1-2c-1.1,0.3-1.9,1.3-2.3,2.4c-0.4,1.1-0.4,2.3-0.3,3.5
			C10.3,68.4,11,71.3,11.8,74.2z"/>
	</g>
	<g>
		<path class="st16" d="M30.7,82.5c0.1,1.5,5.3,2.3,11.5,1.7c6.2-0.5,11.2-2.1,11-3.6l0.5,0.1l0,2.8c0.1,1.8-5,4-11.4,4.5
			s-12.1-0.7-12-2.6l-0.1-2.8L30.7,82.5z"/>
		<g class="st5">
			<path class="st6" d="M53.7,80.7c0.1,1.8-5,3.7-11.5,4.2s-11.9-0.5-12-2.3l0.5-0.1c0.1,1.5,5.3,2.3,11.5,1.7
				c6.2-0.5,11.2-2.1,11-3.6L53.7,80.7z"/>
		</g>
	</g>
	<g>
		<polygon class="st17" points="41.6,84.7 47.3,83.8 47.8,83.9 48,87.7 42.3,88.7 41.7,88.1 		"/>
		<path class="st13" d="M44.5,88.3c0-0.1-0.1-3.8-0.1-3.8l-0.4-0.2l1.4-0.2l0.5,0.2l0.1,3.8L44.5,88.3z"/>
		<polygon class="st13" points="42.2,84.9 41.6,84.7 41.7,88.1 42.3,88.7 		"/>
		<polygon class="st18" points="42.2,84.9 47.8,83.9 47.3,83.8 41.6,84.7 		"/>
	</g>
	<path class="st19" d="M37.4,48.1c-2.6-7.5-6.1-12.1-9.1-12.1h-0.9c0,0,0.1-0.9,1.4-0.9c1.3,0,1.8,0,3,0c1.2,0,6.8,4.4,9.3,14.2
		h-3.4L37.4,48.1z"/>
	<path class="st19" d="M52.1,48.1c-0.6-7.5-2.9-12.1-5.9-12.1h-0.9c0,0,0.3-0.9,1.6-0.9c1.3,0,1.8,0,3,0s4.5,5.2,4.9,14.2h-2.8
		L52.1,48.1z"/>
	<g class="st5">
		<path d="M27.4,35.9c0,0,0.2,0,0.4,0c0.3,0,0.7,0,1.2,0.1c0.5,0.1,1.1,0.4,1.7,0.9c0.6,0.5,1.2,1.1,1.8,1.8
			c0.6,0.7,1.2,1.5,1.7,2.5c0.5,0.9,1,1.9,1.5,3c0.5,1.1,0.9,2.2,1.3,3.3l0.2,0.4c0.1,0.1,0.1,0.3,0.1,0.4c0.1,0.3,0.2,0.6,0.2,0.9
			c0.1,0.3,0.1,0.6,0.2,0.9c0.1,0.3,0.1,0.6,0.1,0.9c0.2,1.2,0.2,2.5,0.1,3.7c-0.1,1.2-0.3,2.4-0.8,3.5c-0.4,1.1-1,2.1-1.6,2.9
			c-0.7,0.8-1.5,1.5-2.3,1.9c-0.8,0.5-1.6,0.7-2.4,0.8c-0.7,0.1-1.4,0.1-1.9,0c-0.5-0.1-0.9-0.2-1.2-0.3c-0.3-0.1-0.4-0.2-0.4-0.2
			s0.1,0.1,0.4,0.2c0.3,0.1,0.7,0.3,1.2,0.5c0.5,0.1,1.2,0.2,2,0.2c0.8-0.1,1.7-0.3,2.6-0.7c0.9-0.4,1.8-1.1,2.5-1.9
			c0.8-0.8,1.4-1.9,1.9-3c0.1-0.3,0.2-0.6,0.3-0.9c0.1-0.3,0.2-0.6,0.3-0.9c0.2-0.6,0.3-1.2,0.3-1.9c0.1-1.3,0.1-2.6,0-3.9
			c0-0.3-0.1-0.6-0.1-1c-0.1-0.3-0.1-0.6-0.2-1c-0.1-0.3-0.1-0.6-0.2-0.9l0-0.1l0-0.1l0,0c0,0.1,0-0.1,0-0.1l0,0l-0.1-0.2L38.2,47
			c-0.4-1.2-0.9-2.3-1.3-3.4c-0.2-0.5-0.5-1.1-0.8-1.6c-0.3-0.5-0.6-1-0.8-1.5c-0.6-0.9-1.2-1.8-1.8-2.5c-0.7-0.7-1.3-1.4-2-1.8
			c-0.7-0.5-1.4-0.8-2.1-1c-0.2,0-0.3-0.1-0.5-0.1c-0.1,0-0.2,0-0.2,0c-0.1,0-0.1,0-0.2,0c0,0-0.1,0-0.1,0c0,0,0,0,0,0l0,0l0,0
			c0,0,0,0,0,0l0,0c0,0-0.1,0-0.1,0.1c-0.1,0-0.2,0.1-0.2,0.2C27.6,35.6,27.4,35.9,27.4,35.9z"/>
	</g>
	<path class="st20" d="M52.1,49.2l0.1-0.6l0.1-0.6v0c0-0.3,0-0.6,0-1c0-0.3,0-0.6,0-1c0-0.3,0-0.6,0-1c0-0.3,0-0.7-0.1-1
		c0-0.3-0.1-0.6-0.1-1c0-0.3-0.1-0.6-0.2-1s-0.1-0.6-0.2-1c-0.1-0.3-0.2-0.6-0.3-1c-0.1-0.3-0.2-0.6-0.3-1c-0.1-0.2-0.1-0.3-0.2-0.5
		c-0.1-0.2-0.1-0.3-0.2-0.5c-0.2-0.3-0.3-0.6-0.5-0.9c-0.2-0.3-0.4-0.6-0.7-0.9c-0.3-0.3-0.5-0.5-0.9-0.7c-0.3-0.2-0.7-0.4-1.1-0.5
		c-0.4-0.1-0.8-0.2-1.2-0.2c-0.1,0-0.2,0-0.3,0.1c-0.1,0-0.2,0.1-0.2,0.1c-0.2,0.1-0.3,0.3-0.5,0.5c0.3,0,0.6,0,1,0
		c0.3,0,0.6,0.1,0.9,0.2c0.3,0.1,0.6,0.3,0.8,0.5c0.3,0.2,0.5,0.4,0.7,0.6c0.2,0.2,0.4,0.5,0.6,0.8c0.2,0.3,0.3,0.5,0.5,0.8
		c0.1,0.3,0.3,0.6,0.4,0.9c0.1,0.3,0.2,0.6,0.4,0.9c0.1,0.3,0.2,0.6,0.3,0.9c0.1,0.3,0.2,0.6,0.3,0.9c0.1,0.3,0.2,0.6,0.2,0.9
		c0.1,0.3,0.1,0.6,0.2,0.9c0.2,1.3,0.4,2.5,0.5,3.8l0,0L52.1,49.2z"/>
	<g>
		<path class="st17" d="M37.7,47.1l0.4,1.5c0.1,0.4,0.5,0.6,0.9,0.6l1.5-0.2c0.3,0,0.6-0.2,0.7-0.5c0.3-0.2,0.4-0.6,0.3-0.9
			l-0.4-1.4c-0.1-0.4-0.5-0.6-0.8-0.6l-1.5,0.1c-0.3,0-0.6,0.2-0.7,0.5C37.7,46.4,37.6,46.7,37.7,47.1z M40.6,48
			c-0.1,0-0.1,0-0.2,0.1l-1,0.1c-0.2,0-0.5-0.1-0.6-0.4l-0.3-1c0-0.1,0-0.2,0-0.3c0.1,0,0.1-0.1,0.2-0.1l1-0.1
			c0.2,0,0.5,0.1,0.5,0.4l0.3,0.9C40.6,47.8,40.6,47.9,40.6,48z"/>
		<g class="st5">
			<path class="st21" d="M40.6,48c0-0.1,0-0.2,0-0.3l-0.3-0.9c-0.1-0.2-0.3-0.4-0.5-0.4l-1,0.1c-0.1,0-0.1,0-0.2,0.1
				c0-0.2,0.2-0.4,0.5-0.4l1-0.1c0.2,0,0.5,0.1,0.5,0.4l0.3,0.9C40.9,47.6,40.8,47.8,40.6,48z"/>
			<path class="st21" d="M38,46.2c-0.1,0.2-0.1,0.4,0,0.5l0.4,1.5c0.1,0.4,0.5,0.6,0.9,0.6l1.5-0.2c0.1,0,0.3-0.1,0.4-0.2
				c-0.1,0.3-0.3,0.5-0.7,0.5l-1.5,0.2c-0.4,0-0.7-0.2-0.9-0.6l-0.4-1.5C37.6,46.7,37.7,46.4,38,46.2z"/>
		</g>
	</g>
	<g>
		<path class="st17" d="M51.9,46.9l0.1,1.5c0,0.4,0.3,0.7,0.7,0.8l1.5,0.1c0.3,0,0.6-0.1,0.7-0.4c0.3-0.1,0.5-0.5,0.5-0.8l-0.1-1.5
			c0-0.4-0.3-0.7-0.7-0.7l-1.5-0.2c-0.3,0-0.6,0.1-0.8,0.4C52.1,46.2,51.9,46.5,51.9,46.9z M54.6,48.4c-0.1,0-0.1,0-0.2,0l-1-0.1
			c-0.2,0-0.4-0.2-0.5-0.5l-0.1-1c0-0.1,0-0.2,0.1-0.3c0.1,0,0.1,0,0.2,0l1,0.1c0.2,0,0.4,0.2,0.5,0.5l0.1,1
			C54.7,48.2,54.7,48.3,54.6,48.4z"/>
		<g class="st5">
			<path class="st21" d="M54.6,48.4c0-0.1,0.1-0.2,0.1-0.3l-0.1-1c0-0.3-0.2-0.5-0.5-0.5l-1-0.1c-0.1,0-0.1,0-0.2,0
				c0.1-0.2,0.3-0.3,0.5-0.3l1,0.1c0.2,0,0.4,0.2,0.5,0.5l0.1,1C55,48.1,54.9,48.3,54.6,48.4z"/>
			<path class="st21" d="M52.4,46.1c-0.1,0.1-0.1,0.3-0.1,0.5l0.1,1.5c0,0.4,0.3,0.7,0.7,0.7l1.5,0.1c0.1,0,0.3,0,0.4-0.1
				c-0.2,0.2-0.4,0.4-0.7,0.4l-1.5-0.1c-0.4,0-0.7-0.4-0.7-0.8l-0.1-1.5C51.9,46.5,52.1,46.2,52.4,46.1z"/>
		</g>
	</g>
	<path class="st19" d="M40.1,51.2c0,0,6.6,1,13.3,0c0,0,0.8,8.9-0.5,10.5c-1.3,1.5-11.4,0.9-13,0C39.9,57.3,40.1,51.2,40.1,51.2z"/>
	<path class="st13" d="M40.1,51.2c0,0,0.3,0,0.9,0.1l0,0c0,0-0.3,7.9,3.4,9c3.7,1.1,9,1.9,9.2-3.2c0,2-0.2,3.9-0.7,4.5
		c-1.3,1.5-11.4,0.9-13,0C39.9,57.3,40.1,51.2,40.1,51.2z"/>
	<g>
		<path class="st7" d="M17.6,62.2c0-3-7.4-5.5-9.5-3c-0.7-0.9-0.3-1.5,0.1-2c0.2-0.9,0-2.6,2.4-2.9c2.4-0.3,7.2,1.2,8.6,4.7
			c0.4,1.3,0.1,2-0.3,2.1C18.9,62.1,17.6,62.2,17.6,62.2z"/>
		<path class="st8" d="M17.6,62.2c0,0,0,0,0-0.1c0,0,0-0.1,0-0.2c0-0.1,0-0.1,0-0.2c0-0.2,0-0.4-0.1-0.6c-0.1-0.2-0.2-0.5-0.3-0.7
			c-0.2-0.2-0.4-0.5-0.6-0.8c-0.2-0.3-0.5-0.5-0.8-0.7c-0.3-0.2-0.6-0.4-0.9-0.6c-0.3-0.2-0.7-0.4-1-0.5c-0.4-0.2-0.7-0.3-1.1-0.4
			c-0.2,0-0.4-0.1-0.6-0.1c-0.2,0-0.4,0-0.6-0.1c-0.4,0-0.8,0-1.1,0c-0.4,0-0.7-0.1-1.1-0.1c-0.1,0-0.2,0-0.3,0.1
			c-0.1,0-0.2,0.1-0.2,0.1c-0.1,0.1-0.3,0.2-0.4,0.3c-0.1,0.1-0.2,0.3-0.3,0.4c0,0.1-0.1,0.1-0.1,0.2c0,0.1,0,0.1-0.1,0.2
			C8,58.6,8,58.8,8,59c0,0.2,0.1,0.3,0.1,0.2c0,0,0,0,0.1-0.1c0,0,0.1-0.1,0.1-0.1c0,0,0.1-0.1,0.2-0.1c0,0,0.1,0,0.1-0.1
			c0,0,0.1,0,0.1-0.1c0.1,0,0.2-0.1,0.3-0.1c0.1,0,0.2-0.1,0.3-0.1c0.1,0,0.1,0,0.2-0.1c0.1,0,0.1,0,0.2,0c0.3-0.1,0.6-0.1,0.9-0.1
			c0.3,0,0.6,0,1,0c0.3,0,0.7,0.1,1,0.1c0.3,0.1,0.7,0.2,1,0.3c0.3,0.1,0.7,0.2,1,0.4c0.3,0.1,0.6,0.3,0.9,0.5
			c0.3,0.2,0.6,0.4,0.8,0.5c0.2,0.2,0.5,0.4,0.6,0.6c0.2,0.2,0.3,0.4,0.4,0.6c0.1,0.2,0.2,0.4,0.2,0.5c0,0.1,0,0.1,0,0.2
			c0,0.1,0,0.1,0,0.2C17.6,62.2,17.6,62.2,17.6,62.2z"/>
	</g>
	<g>
		<g>
			<path class="st22" d="M35.4,36.8c0,0.8,3.5,1.8,6.3,1.8c2.8,0,3.8-1,3.8-1.8c0-0.8-2.9-0.8-5.7-0.8C37,35.9,35.4,36,35.4,36.8z"
				/>
			<path class="st22" d="M35.4,24.8c0,0.8,3.5,1.8,6.3,1.8c2.8,0,3.8-1,3.8-1.8c0-0.8-2.9-0.8-5.7-0.8S35.4,24,35.4,24.8z"/>
			<path class="st22" d="M35.4,36.8c0.9-6.5,0-12,0-12h10.2c0,0-1,7.6,0,12H35.4L35.4,36.8z"/>
		</g>
	</g>
	<g>
		<path class="st7" d="M69.4,53.9c0,0-2.9,1.7-4,4.5c-1,2.9-0.7,6.6,0.6,7.5c-0.7,1-1.8,0.5-2.2,0c-0.5-0.5-0.6-1.1-1.3-1.4
			c-0.6-0.3-1.8-4,0.4-7.5c2.3-3.5,5.7-4.5,6-4.4C69.3,52.8,69.4,53.9,69.4,53.9z"/>
		<path class="st8" d="M69.4,53.9c0,0-0.1,0-0.2,0c-0.1,0-0.3,0.1-0.5,0.1c-0.2,0.1-0.4,0.2-0.7,0.3c-0.3,0.1-0.5,0.3-0.8,0.5
			c-0.1,0-0.2,0.1-0.2,0.1c-0.1,0.1-0.1,0.1-0.2,0.2c-0.2,0.1-0.3,0.2-0.5,0.4c-0.3,0.3-0.6,0.6-0.9,0.9c-0.1,0.2-0.3,0.4-0.4,0.6
			c-0.1,0.2-0.3,0.4-0.4,0.6c-0.1,0.1-0.1,0.2-0.2,0.3l0,0.1l0,0l0,0l0,0l0,0l-0.1,0.2l-0.1,0.3c0,0.1-0.1,0.2-0.1,0.4l-0.1,0.4
			l-0.1,0.4c-0.1,0.2-0.1,0.5-0.1,0.7c-0.1,0.5-0.1,0.9-0.1,1.4c0,0.2,0,0.5,0,0.7c0,0.2,0,0.4,0.1,0.6c0.1,0.4,0.2,0.8,0.3,1.2
			c0.1,0.2,0.1,0.4,0.2,0.5c0.1,0.2,0.1,0.3,0.2,0.5c0.2,0.3,0.4,0.5,0.7,0.6c0.3,0.1,0.5,0.2,0.6,0.1c0.1,0,0.1,0,0.2,0
			c0,0,0.1,0,0.1,0s0,0-0.1-0.1c0,0-0.1-0.1-0.1-0.1c0-0.1-0.1-0.1-0.2-0.2c-0.1-0.2-0.2-0.4-0.3-0.6c-0.1-0.2-0.2-0.5-0.3-0.9
			c-0.1-0.3-0.1-0.7-0.2-1c0-0.2,0-0.4,0-0.6c0-0.2,0-0.4,0-0.6c0-0.4,0-0.8,0.1-1.3c0-0.2,0.1-0.4,0.1-0.6l0.1-0.3l0.1-0.3
			c0.1-0.4,0.2-0.8,0.4-1.2c0.1-0.2,0.2-0.4,0.3-0.6c0.1-0.2,0.2-0.4,0.3-0.5c0.2-0.3,0.5-0.7,0.7-0.9c0.1-0.1,0.2-0.3,0.4-0.4
			c0.1-0.1,0.2-0.2,0.4-0.4c0.2-0.2,0.5-0.4,0.7-0.6c0.2-0.2,0.4-0.3,0.6-0.4C69.2,54,69.4,53.9,69.4,53.9z"/>
	</g>
	<g>
		<path class="st13" d="M33.8,85.3l0.3,2.2l0.8,0.3l-2.6,8.7c-0.2,0.6-0.7,1-1.3,1.1c-1,0.1-2.3-0.1-2.9-1.6c1.2-5.8,3-11,3-11
			S32.6,85.7,33.8,85.3z"/>
		<path class="st16" d="M33.8,85.3l-2.2,11l-2.1,0.4c0,0-3.1-1.8-3.1-5c0-3.2,0-7.7,0-7.7l3.9-0.8C30.3,83.1,31.4,85.2,33.8,85.3z"
			/>
		<polygon class="st13" points="33.8,85.3 29.5,87.2 29.5,96.7 31.5,96.3 		"/>
		<path class="st23" d="M26.3,84l3.9-0.8c0,0,1.2,2.1,3.5,2.2c0,0-2.9,1.4-4.3,1.9C27.4,86.6,26.3,84,26.3,84z"/>
		<path class="st24" d="M26.9,84.2l3.1-0.7c0,0,1,1.5,2.7,1.8l-3.2,1.5C29.6,86.9,27.7,86.4,26.9,84.2z"/>
	</g>
	<g>
		<path class="st10" d="M37.2,24.3c-3.7-1.6-3.8-2.6-4.8-5.1c-1-2.5-1.6-5.2,0.1-8.2c1.7-3,5.3-4.7,8.3-4.7c3,0,8.3,1.8,9.6,3.1
			c1.2,1.4,2.7,15.6-3.8,15.6C40.2,25,38.6,24.9,37.2,24.3z"/>
		<g>
			<path class="st10" d="M34.7,22.9c0.5,1.7,0.7,4.8,0.7,8.2c0,4.8-0.6,5.1-0.4,5.5c0.1,0.4,4,1.8,7.9,1.8c1.8,0,2.4-1.4,2.4-2.2
				c0-0.8,0-6.2,1-8.9c0.9-2.7-3.1-4.6-5.6-5C38.3,22,33.9,20.5,34.7,22.9z"/>
			<path class="st11" d="M38.9,35.3c-1.1-1.7-2.7-4.5-3.5-6.5c-0.1-2.4-0.3-4.6-0.7-5.9c-0.8-2.4,3.6-0.9,6-0.6
				c2.4,0.4,6.5,2.3,5.6,5s-1,8.1-1,8.9c0,0.8-0.7,2.2-2.4,2.2c-0.2,0-0.5,0-0.7,0C40.9,37.8,39.6,36.5,38.9,35.3z"/>
		</g>
		<path class="st10" d="M47.8,31c-2.7,0-2.9,0-5.2-1.2c-2.4-1.2-4.4-1.8-4.9-3.3s-1.4-7.1-1.4-7.1s-1.8-3.5,0.2-6.7
			c2-3.2,8.2-6.1,14-3.4c2.2,2.1,2.3,6.9,2.3,6.9s-0.5,2.2-0.2,3.4s0.5,1.5-0.1,4.7c-0.6,3.2-1.3,5.6-2.3,6.1
			C49.2,31,47.8,31,47.8,31z"/>
		<g>
			<g>
				<g>
					<path id="SVGID_17_" class="st6" d="M50.4,17.2c-0.2,0.6-0.2,1.5-0.1,1.8c0.4,0.2,1.2,0.1,1.9,0c0-1.5,0-1.6,0-1.6
						s-0.4-0.4-1-0.3C50.7,17.1,50.4,17.2,50.4,17.2z"/>
				</g>
				<g>
					<defs>
						<path id="SVGID_6_" d="M50.4,17.2c-0.2,0.6-0.2,1.5-0.1,1.8c0.4,0.2,1.2,0.1,1.9,0c0-1.5,0-1.6,0-1.6s-0.4-0.4-1-0.3
							C50.7,17.1,50.4,17.2,50.4,17.2z"/>
					</defs>
					<clipPath id="SVGID_7_">
						<use xlink:href="#SVGID_6_"  style="overflow:visible;"/>
					</clipPath>
					<g class="st25">
						<path class="st26" d="M52.1,18c0.1,0.9-0.4,1-0.9,1c-0.6-0.1-0.8-0.2-0.9-1c0-0.7,0.4-0.9,0.9-0.8
							C51.8,17.2,52.1,17.5,52.1,18z"/>
						<circle class="st27" cx="50.8" cy="18" r="0.7"/>
					</g>
				</g>
			</g>
			<path class="st26" d="M51.2,17.5c0,0.1-0.1,0.3-0.3,0.3s-0.3-0.1-0.3-0.3c0-0.1,0.1-0.3,0.3-0.3S51.2,17.3,51.2,17.5z"/>
			<path class="st20" d="M50.2,18.6c0,0.2,0,0.5,0.9,0.6c0.9,0.1,1.3-0.2,1.3-0.2l-0.1,0C52.2,19,50.6,19.2,50.2,18.6z"/>
			<path class="st27" d="M50.4,17.2c0,0,0.4-0.1,0.5-0.5c0.5,0.1,1,0.2,1.3,0.7C51.7,17.1,51.1,17,50.4,17.2z"/>
		</g>
		<path class="st11" d="M40.4,16.4c-0.6,0.8-1.1,1-0.8,2.6s2.4,1.9,3.2,2.8c0.8,0.9-0.2,0.8,0,1.4s2.1-1.4,2.8-1.5
			c0.7-0.1,1-0.5,1.3-0.8c0.3-0.3,1.4,0.9,3.1,0.7c1.7-0.1,2,0.5,2.6,1.4c0.5,0.9-0.2,4.8-4,4.8c-3.8,0-9.2-0.1-10.9-4.3
			s-2.6-7-1-9.6c1.6-2.7,3.4-5.7,6.5-5.3c3.2,0.3,7.7,2,8.4,3.7c0.2,0.6-2.2,0.4-3.2,0.1c0.2,0.3-1.3,0.4-2.2,0
			c-0.9-0.4-1.2-2.2-3.2-2c0.5,0.2,0.7,0.3,0.8,0.6c-0.7,0-1.4,0.3-1.6,0.6c0.9,0,1,0.4,0.9,0.5c-0.1,0.1-1.3,0.5-1.5,1.4
			C41.5,14.5,41.8,14.4,40.4,16.4z"/>
		<path class="st16" d="M48.1,12.6c0,0,0,1-0.4,2.3c-1.1-0.3-1.8-1.1-4.5,0.4c-0.7-0.7-0.1-2-0.1-2s2.4-0.8,3.4-1
			C47.4,12.1,48.1,12.6,48.1,12.6z"/>
		<path class="st16" d="M50.6,13.6c0.3,1-0.3,1.7-0.4,2.1c0,0,1.7-0.4,2.4,0.7c0.4,0,0.6-0.3,0.6-0.3s0.1-0.6,0.1-1.3
			c-0.4-0.7-1.7-1.7-1.9-1.7C51.2,13.2,50.6,13.6,50.6,13.6z"/>
		<g>
			<path class="st10" d="M46.8,22c0.1,0.5,1,0.4,2,0.7c1,0.3,1.3,0.5,1.9,0c0.5-0.5,1.2-0.7,0.8-1.4c-0.4-0.7-1.4-3.6-1.4-4.1
				c0-0.5,0.2-1.3,0.2-1.3s-0.7,0.7-2.6-0.2c0.3,1.6-0.5,1.9-0.5,1.9l0.3,3C47.6,20.4,46.6,20.7,46.8,22z"/>
			<path class="st20" d="M50.7,22.6c-0.5,0.5-0.9,0.3-1.9,0c-1-0.3-1.9-0.2-2-0.7c-0.1-0.8,0.2-1.2,0.5-1.4l0,0
				c-0.2,0.3-0.4,1.1,0.1,1.1c0.5,0,1.2-0.1,1.9,0c0.7,0.1,1.6,0.3,2,0c0.2-0.2,0.1-0.4,0.2-0.5C51.8,21.9,51.2,22.2,50.7,22.6z"/>
			<path class="st23" d="M49.8,16.3c0,0,0.1,0.3,0,0.5c0.2,0,0.3,0.2,0.3,0.2c0,0.5,1.1,3.4,1.4,4.1c0,0.6-0.4,0.6-0.7,0.6
				c-0.5,0-0.4-0.6-0.5-1.2c-0.1-0.6-0.5-1.1-0.7-2.3c-0.2-1.1-0.4-1.1-0.7-1.3C49.3,16.9,49.6,16.8,49.8,16.3z"/>
			<path class="st23" d="M49.8,17.7c0.1,0.5,0.1,1.7,0.8,2.4c-0.6-0.2-0.8-0.9-0.8-1.4C49.7,18.2,49.8,17.7,49.8,17.7z"/>
		</g>
		<path class="st16" d="M50.1,22.7c-1.1,0-3.7-1-4.4-0.8c-0.7,0.1-2.9,2.4-2.9,2.4l-3.3-1.6l-0.9-6l1.5-2.6c0,0-0.2-1.3,2.9-2
			c-0.2-0.4-1.7,0.1-1.7,0.1s0.7-1.3,2.4-1.3c-0.2-0.4-1.8-0.2-1.8-0.2s1.7-1.1,3.3,0.2c1.6,1.3,2.8,1.4,3.7,1.1
			c-0.5-0.2-1.3-0.8-1.6-1.3c0.9,0.8,4,1.9,6,1.5c2-0.4,2.2-1.9,2-2.3c-0.2-0.4-0.9-0.2-1.3,0.3c0,0,0.1-1.1-1.1-0.9
			c-1.2,0.2-1,0.4-2.6-0.7c-1.6-1-5.9-3.6-10.5-3.3c-7.6,0.6-6.7,3.5-7.7,5c-0.9,1.6-2.2,4-1.4,5.8s1.3,4.4,2.1,5.6
			c0.8,1.2,1.6,2.1,1.7,3.1c0.1,0.5,0.8,0.6,0.8,0.6s0.8-2.1,1.5-2.7c0,1.4-1,4.5-1,4.5l1.6,1.7l7.1,3.8l7.4-0.5l1.4-1.4l-0.6-2.1
			l0.8-0.9l0.4-2.5l-0.2-1.9c0,0-1.7-1.5-2-1.5C51.2,22.1,50.8,22.7,50.1,22.7z"/>
		<polygon class="st28" points="38.6,16.7 38.1,17.9 38.8,23.5 39.1,23.1 42.8,24.3 39.5,22.7 		"/>
		<polygon class="st28" points="50.4,27 51.6,30.3 49.7,27 		"/>
		<path class="st10" d="M36.3,21.6c-1.3,0-1.9-0.8-2.6-2.7c-0.7-2,0-2.5,0.6-2.9c0.6-0.4,1.6,0.4,1.6,0.4l0.6,5.1
			C36.6,21.4,36.6,21.6,36.3,21.6z"/>
		<path class="st11" d="M36.1,17.1l0.5,4.3c0,0-0.1,0.1-0.3,0.1c-1.3,0-1.9-0.8-2.6-2.7c-0.4-1-0.4-1.6-0.2-2c0.1,0,0.1,0,0.2-0.1
			C34.4,16.4,35.6,16.9,36.1,17.1z"/>
		<path class="st11" d="M41.9,26.4l2.4,0.2l1.5-0.8l0-0.6l1.7-0.6l0.4-0.6l-0.2,0.6l1.3-0.1l0.3-0.5l-0.1,0.6l0.7,0l0.2-0.3l0.1,0.4
			l0.8,0.2l0-0.3l0.3,0.4l0.6,0.4l0.5,2.6l0,0l0.4,0.4l0.5-0.2l-0.8,0.9c0,0-0.6-1.5-1.1-2.5c-0.2-0.5-0.4-0.8-0.4-0.8
			c0,0-0.4-0.1-0.4-0.1c-0.4-0.1-0.9-0.1-1.3-0.1c-0.7,0-1.3,0-2,0.1c-0.2,0-0.4,0.1-0.6,0.1c-0.1,0-0.2,0-0.3,0
			c-0.1,0-0.1,0.2-0.1,0.2c-0.2,0.3-0.3,0.7-0.4,1.1c-0.1,0.5-0.2,1-0.3,1.5c0,0.3-0.2,0.3-0.4,0.6c-0.1,0.2-0.2,0.4-0.3,0.6
			l0.4-2.4l-1.6,0.2l-2.5-0.6L41,25.3L41.9,26.4z"/>
		<g>
			<g>
				<g>
					<path id="SVGID_19_" class="st6" d="M46.2,17.2c0.2,0.6,0.2,1.5,0.1,1.8c-0.4,0.2-1.6,0.1-2.3,0c0-1.5,0.4-1.8,0.4-1.8
						s0.6-0.3,1.2-0.3C46,16.9,46.2,17.2,46.2,17.2z"/>
				</g>
				<g>
					<defs>
						<path id="SVGID_8_" d="M46.2,17.2c0.2,0.6,0.2,1.5,0.1,1.8c-0.4,0.2-1.6,0.1-2.3,0c0-1.5,0.4-1.8,0.4-1.8s0.6-0.3,1.2-0.3
							C46,16.9,46.2,17.2,46.2,17.2z"/>
					</defs>
					<clipPath id="SVGID_9_">
						<use xlink:href="#SVGID_8_"  style="overflow:visible;"/>
					</clipPath>
					<path class="st29" d="M44.1,18c-0.1,0.9,0.5,1,1.1,1c0.7-0.1,1-0.2,1-1c0.1-0.7-0.5-0.9-1-0.8C44.6,17.2,44.2,17.5,44.1,18z"/>
				</g>
				<g>
					<defs>
						<path id="SVGID_10_" d="M46.2,17.2c0.2,0.6,0.2,1.5,0.1,1.8c-0.4,0.2-1.6,0.1-2.3,0c0-1.5,0.4-1.8,0.4-1.8s0.6-0.3,1.2-0.3
							C46,16.9,46.2,17.2,46.2,17.2z"/>
					</defs>
					<clipPath id="SVGID_11_">
						<use xlink:href="#SVGID_10_"  style="overflow:visible;"/>
					</clipPath>
					<path class="st30" d="M44.3,18c0,0.4,0.3,0.7,0.7,0.7s0.7-0.3,0.7-0.7c0-0.4-0.3-0.7-0.7-0.7S44.3,17.7,44.3,18z"/>
				</g>
			</g>
			<path class="st27" d="M44.3,17.2c0.8-0.6,2.5-0.4,2.5-0.4l-0.6,0.4C46.2,17.2,45.7,16.8,44.3,17.2z"/>
			<path class="st26" d="M44.5,17.5c0,0.1,0.1,0.3,0.3,0.3s0.3-0.1,0.3-0.3c0-0.1-0.1-0.3-0.3-0.3S44.5,17.3,44.5,17.5z"/>
			<path class="st20" d="M46.3,18c0,0,0.1,0.6,0.2,0.9c0.2-0.1,0.3-0.2,0.3-0.2s0.1,0.5-1,0.6c-1.1,0.1-2.3-0.2-2.3-0.2l0.4,0
				c0,0,2,0.1,2.2-0.1C46.3,18.7,46.3,18,46.3,18z"/>
		</g>
		<g>
			<path class="st11" d="M51.1,26.5L50.4,27l-2.2,0L47,26.4c0,0-0.7-0.5-0.3-0.8C47.5,25.6,51.1,26.5,51.1,26.5z"/>
			<g>
				<path class="st10" d="M46.7,25.6c0,0-0.1,0.7,1.1,0.8c1.2,0.1,2.9,0.1,3.3,0.1c0.2,0,0.4-0.5,0.4-0.5s-0.1-0.4-0.2-0.5
					c-0.1-0.1-0.6-0.3-1.4-0.3c-0.8,0-2.1,0.1-2.4,0.1C47.1,25.4,46.7,25.4,46.7,25.6z"/>
				<path class="st11" d="M51.1,26.5c-0.4,0-2.1,0.1-3.3-0.1c-1.2-0.1-1.1-0.8-1.1-0.8c0-0.2,0.5-0.1,0.7-0.2c0.1,0,0.3,0,0.6-0.1
					c-0.3,0.1-0.1,0.5,0,0.8c0.1,0.2,1.9,0,2.4,0.1c0.4,0,0.8,0.2,1.1-0.1C51.4,26,51.3,26.5,51.1,26.5z"/>
			</g>
		</g>
	</g>
	<g>
		<path class="st31" d="M48.5,150.9c-2,0-2.8,0.9-2.8,0.9l0.8,1.2l-0.1,4h5.5l-0.9-4.5l0.6-1C51.5,151.5,51,150.9,48.5,150.9z"/>
		<path class="st31" d="M45.7,157c0,0,0.6-3,4.8-3c1.8,0,4.9,1.3,4.9,1.3l1.3-0.3l0.8,0.5l0.4,1.5H45.7z"/>
		<polygon class="st32" points="45.7,157 45.5,158.5 58.1,158.5 57.9,157 		"/>
		<path class="st11" d="M50.5,153.9c0.6,0,1.2,0.1,1.9,0.3l0,0c-1,0-2.5,0.7-3.1,2.7h-1.6C48.2,154.3,50.5,153.9,50.5,153.9z"/>
		<path class="st11" d="M52.8,154.3c0.4,0.1,0.8,0.2,1.2,0.4c-1.2,1-1.1,2.3-1.1,2.3h-2.1C50.8,157,51.2,154.7,52.8,154.3z"/>
		<path class="st11" d="M51.5,151.5l-0.6,1c-3-1.1-4.5,0.5-4.5,0.5l-0.8-1.2c0,0,0.9-0.9,2.8-0.9C51,150.9,51.5,151.5,51.5,151.5z"
			/>
		<path class="st23" d="M56.3,155.7l-2.7,0.6c0,0,0.1-0.6,0.7-0.8c-3.3-1.1-5-1.4-7.2-0.6c0.7-0.5,1.8-1,3.4-1
			c1.8,0,4.9,1.3,4.9,1.3l1.3-0.3l0.8,0.5l0.4,1.5H57l-0.2-1L56.3,155.7z"/>
	</g>
	<g>
		<path class="st31" d="M18.9,150.9c2,0,2.8,0.9,2.8,0.9L21,153l0.1,4h-5.5l0.9-4.5l-0.6-1C15.9,151.5,16.4,150.9,18.9,150.9z"/>
		<path class="st31" d="M22.5,157c0,0-0.4-3-3.2-3c-1.2,0-4,1-4,1l-0.5,0.5l-0.2,1.5H22.5z"/>
		<path class="st23" d="M19.1,155c-1.4,0-4.3,0.4-4.3,0.4l0.5-0.5c0,0,2.8-1,4-1c2,0,2.7,1.6,3,2.4C21.9,155.7,20.9,155,19.1,155z"
			/>
		<polygon class="st32" points="22.5,157 22.6,158.5 14.3,158.5 14.5,157 		"/>
		<path class="st11" d="M15.9,151.5l0.6,1c3-1.1,4.5,0.5,4.5,0.5l0.8-1.2c0,0-0.9-0.9-2.8-0.9C16.4,150.9,15.9,151.5,15.9,151.5z"/>
	</g>
	<g>
		<path class="st7" d="M32,20.2c0.3-4.6,3.8-7.6,7.4-9.6C44,8,49.6,8.3,50.6,8.9L50.8,9c0,0,0.3-0.3-0.9-1.1s-3.5-4.2-7.5-4.2
			s-8.1,1-9.7,3c-1.5,2-3.3,3.2-3.4,6.3s1.9,5.8,2.1,6.5C31.6,20.2,32,20.2,32,20.2z"/>
		<path class="st28" d="M49.9,7.9c-5.7-1.4-11.9,2.2-11.9,2.2S37.9,9.4,36.8,8s-1.2-2-0.6-3.4c1.8-0.6,4-0.9,6.2-0.9
			C46.5,3.7,48.8,7.2,49.9,7.9z"/>
		<path class="st7" d="M38.1,10.2c3.9-4.5,4-7.8,8.3-8.9c4.4-1.2,7.9,1.3,8.3,2.6S50.8,9,50.8,9S46,6.9,38.5,11
			C37.9,11.3,38.1,10.2,38.1,10.2z"/>
		<path class="st11" d="M32.7,15.9c0.9-1.7,1.8-2.4,3-3.4c1.2-1,2.4-1.6,3.1-2.4c3.4-4.4,4.1-6.7,8.2-7.9c3.6-1,6.7,0.3,7.5,1.3
			c0,0.1,0.1,0.2,0.1,0.2C55.1,5.1,51,8.4,50.8,9c0,0,0,0,0,0s-1-0.5-2.9-0.5c-1,0-2.3,0.1-3.6,0.3c-1.7,0.4-3.6,1-5.8,2.2
			c-3.3,2-6.3,4.9-6.6,9.1c0,0-0.4,0-0.5-0.6C31.4,18.7,32,17.3,32.7,15.9z"/>
	</g>
	<path class="st13" d="M31.2,66.8c-0.4-0.1-0.7-0.3-1-0.5c0,0,0-0.1,0-0.1c1,0.6,2,0.8,3.2,0.8c0.1,0,0.1,0.1,0.1,0.2
		c-0.6,0.4-1.2,0.8-1.8,1c0.4,0.1,0.7,0.4,0.8,0.9c0.4,1.2,0.4,2.7,0.5,4c0.2,1.5,0.4,3,0.6,4.5c0.1,1.3,0.3,2.8,0,4
		c-0.1,0.2-0.4,0.2-0.4-0.1c0-1.1,0.1-2.1,0.1-3.2c-0.1-1-0.2-2-0.3-3c-0.1-1-0.2-2.1-0.3-3.1c-0.1-1,0.1-3.8-1.5-3.9
		c-0.2,0-0.2-0.2,0-0.3c0.5-0.1,1.4-0.3,1.7-0.7c0.1-0.1,0.1-0.1,0.2-0.2c-0.1,0-0.2,0-0.3-0.1C32.2,66.9,31.7,67,31.2,66.8z"/>
	<g>
		<g>
			<path class="st10" d="M11.4,87.4c-0.3,0.1-0.2,0.4-0.2,0.9c0,0.5-0.4,1.4-0.2,1.7c0.1,0.4,0.8,0.3,1,0c0.2-0.3,0-0.9,0.1-1.3
				s0.3-0.7,0.1-1C12,87.4,11.7,87.2,11.4,87.4z"/>
			<path class="st10" d="M10.9,90.1c0.1,0.4,0.1,1,0.2,1.3c0,0.3,0.1,0.5,0.5,0.5c0.4,0,0.5-0.3,0.5-0.6c-0.1-0.3-0.2-0.8-0.1-1.1
				s-0.1-0.6-0.5-0.5C11.1,89.6,10.8,89.6,10.9,90.1z"/>
			<path class="st10" d="M11.2,91.7c0.1,0.3,0.1,0.5,0.2,0.7s0.1,0.4,0.3,0.4c0.2,0,0.6,0,0.7-0.2c0.1-0.2,0.1-0.3,0.1-0.4
				c0-0.1-0.1-0.2-0.2-0.4c-0.1-0.2-0.1-0.4-0.4-0.5C11.5,91.3,11.1,91.4,11.2,91.7z"/>
			<path class="st33" d="M11.4,92.1c0-0.1,0.4-0.2,0.5-0.2c0.1,0.2,0.2,0.6,0.2,0.6s-0.3,0-0.6,0.1C11.5,92.4,11.4,92.1,11.4,92.1z"
				/>
		</g>
		<path class="st10" d="M17.5,83.9c-0.5-0.3-1.2-0.4-1.8-0.5c-0.5,0-1.1,0.2-1.5,0.6c-0.9,1-2.6,2.9-2.9,3.5
			c0.5,0.9,4.9,1.1,4.9,1.1S17.8,86.9,17.5,83.9z"/>
		<g>
			<path class="st10" d="M12.1,87.4c-0.4,0.1-0.3,0.4-0.3,1c0,0.6-0.4,1.5-0.2,2c0.2,0.4,1,0.4,1.1,0c0.2-0.4,0-1,0.1-1.5
				c0.1-0.5,0.3-0.8,0.1-1.1C12.8,87.4,12.5,87.2,12.1,87.4z"/>
			<path class="st10" d="M11.7,90.4c0.1,0.5,0.2,1.1,0.2,1.4c0,0.3,0.1,0.6,0.5,0.6c0.5,0,0.6-0.4,0.5-0.7c-0.1-0.4-0.2-1-0.2-1.2
				c0.1-0.3-0.1-0.6-0.5-0.6C11.8,89.9,11.5,90,11.7,90.4z"/>
			<path class="st10" d="M12,92.3c0.1,0.3,0.1,0.5,0.2,0.8c0.1,0.3,0.1,0.4,0.3,0.5c0.3,0,0.6,0,0.7-0.2c0.1-0.2,0.2-0.3,0.1-0.4
				c0-0.1-0.1-0.3-0.2-0.5C13,92.2,13,92,12.7,91.9C12.3,91.8,11.8,92,12,92.3z"/>
			<path class="st33" d="M12.2,92.8c0-0.2,0.5-0.3,0.6-0.2c0.1,0.3,0.2,0.7,0.2,0.7s-0.4,0-0.6,0.1C12.3,93.1,12.2,92.8,12.2,92.8z"
				/>
			<path class="st33" d="M12,92.3c0-0.1,0-0.2,0-0.2c0-0.1,0-0.1,0-0.2c0-0.2,0-0.3,0.1-0.5c0-0.2,0-0.3,0-0.5c0-0.1,0-0.2,0-0.3
				l0-0.1l0-0.1l0-0.1l0-0.1v0l0,0l0,0l0,0c0,0,0,0.1,0,0l0,0l0,0l0,0l0,0c0,0,0,0,0,0c0,0,0,0,0,0c0,0,0-0.1,0-0.1c0,0,0-0.1,0-0.2
				c0-0.1,0-0.1,0-0.2c0-0.1,0.1-0.2,0.1-0.4c0-0.1,0.1-0.3,0.1-0.4c0-0.1,0-0.1,0-0.2c0-0.1,0-0.2,0-0.2c0-0.1,0-0.1,0-0.2l0-0.2
				c0-0.1,0-0.2-0.1-0.3c0,0,0-0.1-0.1-0.1c0-0.1,0-0.1,0-0.2c-0.1,0-0.1,0.1-0.2,0.1c0,0-0.1,0.1-0.1,0.2c0,0.1,0,0.3,0,0.4
				c0,0.1,0,0.3,0,0.4c0,0.1,0,0.3-0.1,0.4c0,0.3-0.1,0.5-0.2,0.8c0,0.1,0,0.3-0.1,0.4c0,0.1,0,0.1,0,0.2c0,0.1,0,0.1,0,0.2l0,0
				c0,0.1,0,0.2,0,0.2l0,0.2c0,0.2,0,0.3,0.1,0.5c0,0.2,0,0.3,0,0.5C11.8,92,11.9,92.2,12,92.3z"/>
		</g>
		<path class="st10" d="M16.8,87.8c0.8-0.5,2-0.5,2.2,0.1c0.2,0.8,0.3,1.2,0.7,1.4c0.4,0.2,1.6,0.2,2.2-0.1c0.5-0.3,0.6-1.1,0.4-1.4
			c-0.3,0.1-1.1-0.1-1.1-0.1s-0.1-0.2-0.4-0.3c-0.4-0.2-0.7-0.5-0.9-1.4c-0.1-0.4-0.4-0.3-0.9-0.5c-0.5-0.2-1.1-0.8-1.5-1.5
			c-0.5,0.2-1.4,1.7-1.3,2.6C16.3,87.5,16.5,87.9,16.8,87.8z"/>
		<path class="st33" d="M21.2,87.7c-0.2,0.1-0.5,0.6-0.5,0.7c0.3,0.1,0.9,0.2,0.9,0.2s0.3-0.6,0.6-0.7
			C21.8,87.8,21.2,87.7,21.2,87.7z"/>
		<g>
			<path class="st10" d="M13,87.4c-0.4,0.1-0.2,0.7-0.3,1.3c0,0.6-0.4,1.7-0.4,2.1c0,0.4,0.2,0.5,0.8,0.5c0.6,0,0.5-0.2,0.7-1.4
				c0.1-0.6,0.7-1.4,0.8-1.8C14.7,87.7,14.1,87,13,87.4z"/>
			<path class="st10" d="M12.3,90.9c0,0.6,0,1.3,0,1.6c0,0.3,0,0.6,0.5,0.7s0.7-0.3,0.7-0.7c0-0.4-0.1-1.1,0-1.4
				c0.1-0.3,0-0.7-0.5-0.8C12.5,90.3,12.2,90.4,12.3,90.9z"/>
			<path class="st10" d="M12.3,92.9c0,0.4,0,0.6,0,0.9c0,0.3-0.1,0.5,0.2,0.6c0.3,0.1,0.7,0.2,0.9,0c0.2-0.2,0.3-0.3,0.3-0.4
				c0-0.1,0-0.3-0.1-0.6c-0.1-0.3,0-0.5-0.3-0.7C12.8,92.5,12.2,92.5,12.3,92.9z"/>
			<path class="st33" d="M12.4,93.5c0.1-0.2,0.6-0.1,0.7,0c0,0.3,0,0.8,0,0.8s-0.4-0.1-0.7,0C12.3,93.9,12.4,93.5,12.4,93.5z"/>
			<path class="st33" d="M12.3,92.9c0,0,0-0.1,0-0.1l0,0c0-0.1,0-0.1,0-0.2c0-0.1,0-0.1,0.1-0.2c0-0.1,0.1-0.3,0.1-0.4
				c0-0.1,0-0.3,0.1-0.4c0-0.1,0-0.3,0-0.5l0-0.1c0,0,0,0,0-0.1c0,0,0,0,0,0l0,0l0-0.1l0-0.1l0.1-0.4c0-0.2,0.1-0.3,0.1-0.5
				c0-0.2,0.1-0.3,0.1-0.5c0-0.2,0.1-0.3,0.1-0.5v0c0,0,0,0,0,0l0-0.1l0-0.1c0-0.1,0-0.2,0-0.3c0-0.2-0.1-0.3-0.1-0.4
				c0-0.1,0-0.1-0.1-0.2c0-0.1,0-0.1,0-0.2c-0.1,0-0.1,0.1-0.2,0.1s-0.1,0.1-0.1,0.2c0,0.2,0,0.3,0,0.5c0,0.2,0,0.3,0,0.5
				c0,0.2,0,0.3-0.1,0.5c-0.1,0.3-0.1,0.6-0.2,0.9c0,0.2-0.1,0.3-0.1,0.5c0,0.2-0.1,0.3,0,0.5l0,0c0,0.3,0,0.6,0,0.9
				c0,0.1,0,0.3,0,0.4c0,0.1,0,0.3,0,0.4l0,0C12.3,92.8,12.3,92.9,12.3,92.9z"/>
		</g>
		<g>
			<path class="st10" d="M16.3,88.6c-0.6,1.2-0.8,1.8-1,2.6c-0.3,0.8-1.7,0.3-1.5-0.3c0.2-0.6,0.2-0.4,0.4-1.2
				c0.2-0.8,0.2-1.1,0.3-1.5c0-0.4,0.5-0.7,1.1-0.6C16,87.8,16.6,87.9,16.3,88.6z"/>
			<path class="st10" d="M14.4,90.6c0.7,0.1,0.9,0.6,0.7,1c-0.2,0.4-0.3,1-0.3,1.2c0,0.4-0.2,0.6-0.7,0.6c-0.5,0-0.7-0.3-0.5-0.8
				c0.2-0.5,0.3-1.1,0.2-1.4C13.7,90.8,13.9,90.5,14.4,90.6z"/>
			<path class="st10" d="M14.7,94.1c-0.1-0.6-0.1-0.7,0-1c0-0.3-0.3-0.7-0.8-0.6c-0.5,0.1-0.5,0.6-0.5,0.7c0.1,0.1,0.1,0.2,0,0.6
				c-0.1,0.4-0.1,0.5,0,0.6c0.1,0.1,0.4,0.3,0.9,0.1C14.6,94.4,14.7,94.1,14.7,94.1z"/>
			<path class="st33" d="M14.2,93.4c-0.3-0.2-0.6,0-0.6,0l-0.1,0.8c0,0,0.5-0.1,0.7-0.1C14.4,93.9,14.3,93.5,14.2,93.4z"/>
			<path class="st33" d="M13.4,93.2c0-0.1,0-0.1,0-0.2c0,0,0-0.1,0.1-0.1l0,0c0-0.1,0-0.2,0.1-0.2c0-0.1,0.1-0.2,0.1-0.2
				c0.1-0.2,0.1-0.3,0.2-0.5c0.1-0.2,0.1-0.4,0.1-0.6c0,0,0-0.1,0-0.2c0-0.1,0-0.1,0-0.1c0,0,0-0.1,0-0.1l0,0c0-0.1,0.1-0.1,0.1-0.2
				c0-0.1,0.1-0.1,0.1-0.2c0-0.1,0.1-0.2,0.1-0.3c0-0.1,0.1-0.2,0.1-0.3c0-0.1,0.1-0.2,0.1-0.3l0.1-0.2c0-0.2,0.1-0.3,0.1-0.5
				c0-0.2,0.1-0.4,0-0.6l0-0.1c0,0,0-0.1,0-0.1c0,0,0,0,0,0c0,0,0,0,0,0c0-0.1,0.1-0.1,0.2-0.2c0.1,0,0.1-0.1,0.2-0.1l0.2-0.2
				c-0.2,0-0.3,0-0.5,0c-0.2,0-0.3,0.1-0.4,0.2c-0.1,0.1-0.1,0.1-0.1,0.2c0,0.1,0,0.2,0,0.3c0,0.2,0,0.3-0.1,0.5
				c-0.1,0.3-0.1,0.7-0.2,1c0,0.2-0.1,0.3-0.2,0.5c-0.1,0.1-0.1,0.3-0.2,0.5l0,0c0,0.1-0.1,0.2,0,0.3c0,0.1,0,0.2,0,0.3
				c0,0.2,0,0.3-0.1,0.5c0,0.2-0.1,0.3-0.1,0.5c0,0.2-0.1,0.3-0.1,0.5l0,0c0,0.1,0,0.1,0,0.2C13.4,93.1,13.4,93.1,13.4,93.2z"/>
		</g>
	</g>
	<g>
		<path class="st10" d="M78.6,42.3c0.7,0,2-0.8,2.6-1.4c0.6-0.6,1.1-0.7,1.6,0c0.5,0.7,2.6,5,2.2,6c-0.4,1-1.5,1.9-2.5,2.2
			s-2,1.5-2.4,2.2c-0.4,0.6-3-2.2-2.2-2.7c0.8-0.5,0.4-1.4,0.1-2s-0.9-1.5-0.8-2.7C77.5,42.8,77.8,42.3,78.6,42.3z"/>
		<path class="st10" d="M82.1,40.5c-0.7,0.4-0.5,1,0.1,1.5c0.6,0.5,1.3,0.4,1.6-0.3c0.3-0.7,1.8-2.1,2-2.2c0.2-0.1,0.6-0.7,0-1.4
			c-0.6-0.7-2.1,0.4-2.3,0.9C83.3,39.3,82.6,40.2,82.1,40.5z"/>
		<path class="st10" d="M83.6,40c0.7-0.2,0.9,0.5,1.4,1.1c0.5,0.6,1,1,0.7,1.7c-0.2,0.7-1.1,0.7-1.4,0.1s-1-0.7-1.2-1.3
			C82.8,40.9,82.7,40.3,83.6,40z"/>
		<path class="st10" d="M84.1,41.6c0.6-0.2,0.8,0.5,1.2,1.1c0.5,0.6,0.8,1,0.6,1.7c-0.2,0.7-0.9,0.7-1.2,0.1
			c-0.3-0.6-0.9-0.7-1.1-1.3C83.5,42.5,83.4,41.9,84.1,41.6z"/>
		<path class="st10" d="M85.2,43.6c0.6,0,0.5,0.6,0.6,1.2c0.2,0.6,0.3,1,0,1.5c-0.4,0.5-0.9,0.2-1-0.3c-0.1-0.5-0.5-0.8-0.4-1.4
			C84.4,44.1,84.6,43.6,85.2,43.6z"/>
		<g>
			<g>
				<path class="st34" d="M76,40.3c-0.5,0.8,0.1,1.9,1.2,2.6c1.1,0.7,2.4,0.7,2.9-0.1c0.5-0.8-0.1-1.9-1.2-2.6
					C77.8,39.5,76.5,39.5,76,40.3z"/>
				
					<ellipse transform="matrix(0.5321 -0.8467 0.8467 0.5321 9.5987 86.2128)" class="st34" cx="82.8" cy="34.4" rx="1.9" ry="3.1"/>
				<polygon class="st34" points="76.2,39.3 80.3,32.7 85.4,36.1 81,42.3 				"/>
				<path class="st34" d="M76.2,39.3c-0.5,0.9,0.1,2.3,1.4,3.1c1.3,0.8,2.8,0.8,3.4-0.1c0.5-0.9-0.1-2.3-1.4-3.1
					C78.3,38.3,76.8,38.4,76.2,39.3z"/>
			</g>
			<path class="st11" d="M77,41.9l4.3-6.3c0.1,0.1,0.3,0.2,0.5,0.3c0.9,0.6,1.9,0.8,2.6,0.7h0l-3.9,6c-0.7,0.4-1.9,0.3-2.9-0.3
				C77.4,42.2,77.2,42.1,77,41.9z"/>
			<ellipse transform="matrix(0.5321 -0.8467 0.8467 0.5321 9.5987 86.2128)" class="st28" cx="82.8" cy="34.4" rx="1.9" ry="3.1"/>
			<path class="st11" d="M81.3,33.1l2.4,2.5l-1.6,0.6c-0.1-0.1-0.2-0.1-0.3-0.2c-1-0.6-1.7-1.6-1.8-2.4L81.3,33.1z"/>
			<g>
				<path class="st35" d="M81.3,33.1c-0.3,0.5,0.1,1.4,1.1,2c0.9,0.6,1.9,0.6,2.3,0.1s-0.1-1.4-1.1-2C82.7,32.6,81.6,32.6,81.3,33.1
					z"/>
				<polygon class="st35" points="81.3,33.1 82.4,31 86.2,33.3 84.6,35.2 				"/>
				<path class="st35" d="M82.4,31c-0.3,0.5,0.2,1.5,1.3,2.1c1,0.7,2.2,0.8,2.5,0.2c0.3-0.5-0.2-1.5-1.3-2.1
					C83.9,30.5,82.8,30.4,82.4,31z"/>
				<path class="st28" d="M82.4,31c-0.3,0.5,0.2,1.5,1.3,2.1c1,0.7,2.2,0.8,2.5,0.2c0.3-0.5-0.2-1.5-1.3-2.1
					C83.9,30.5,82.8,30.4,82.4,31z"/>
				<path class="st11" d="M83.3,31l2.4,1.8l-1.5,0.6c-0.1-0.1-0.3-0.2-0.4-0.2c-0.8-0.5-1.3-1.2-1.4-1.7L83.3,31z"/>
			</g>
			<g>
				<path class="st35" d="M83.3,31c-0.3,0.4,0.1,1.1,0.8,1.5c0.7,0.4,1.5,0.5,1.7,0.1c0.3-0.4-0.1-1.1-0.8-1.5
					C84.3,30.6,83.5,30.6,83.3,31z"/>
				<path class="st35" d="M84.1,29.3c-0.3,0.5,0.1,1.3,1,1.8c0.8,0.5,1.7,0.6,2,0.1c0.3-0.5-0.1-1.3-1-1.8
					C85.3,28.9,84.4,28.8,84.1,29.3z"/>
				<polygon class="st35" points="83.3,31 84.1,29.3 87.1,31.2 85.8,32.6 				"/>
			</g>
			<path class="st36" d="M84.1,29.3c-0.3,0.5,0.1,1.3,1,1.8c0.8,0.5,1.7,0.6,2,0.1c0.3-0.5-0.1-1.3-1-1.8
				C85.3,28.9,84.4,28.8,84.1,29.3z"/>
			<path class="st37" d="M84.9,29.3c-0.2,0.3,0.1,0.8,0.6,1.2c0.5,0.3,1.1,0.3,1.3,0s-0.1-0.8-0.6-1.2C85.7,29,85.1,29,84.9,29.3z"
				/>
			<path class="st11" d="M85.3,29.3l1.3,0.9l-1.7,0.7c-0.4-0.3-0.7-0.7-0.8-1.1L85.3,29.3z"/>
			<path class="st35" d="M79,42.3c0,0,1.6,4.2,2.3,7.8l1.8-2.1l-3-7.6L79,42.3z"/>
			<polygon class="st28" points="80.1,40.4 83.1,48 83,48.1 80.1,40.4 			"/>
			<polygon class="st34" points="81.5,38 83.4,38.4 85.2,48 83.1,48 80.1,40.4 			"/>
			<path class="st11" d="M84.7,45.5c0,0-0.4-0.2-0.6-0.1c-0.3,0.1-1.5-0.2-1.4-1.5c-0.2-0.1-0.3-0.1-0.3-0.1L82.3,43l1.4,0.2
				l0.9,1.7L84.7,45.5z"/>
			<polygon class="st11" points="83.5,40.2 82,41 81.5,38 82.2,37.5 			"/>
			<polygon class="st20" points="80.1,40.4 81.5,38 83.1,48 			"/>
			<polygon class="st34" points="82.4,45.5 79.8,48.9 81.2,54.8 86.7,55.1 90.6,51.1 87.6,46.2 			"/>
			<polygon class="st35" points="80.5,51.9 83.5,48 84.7,50.8 81.2,54.8 			"/>
			<polygon class="st35" points="83.5,48 88.9,48.4 90.6,51.1 84.7,50.8 			"/>
			<polygon class="st11" points="81.2,54.8 84.7,50.8 90.6,51.1 86.7,55.1 			"/>
			<polygon class="st11" points="82.4,45.5 84.7,50.8 81.2,54.8 79.8,48.9 			"/>
			<polygon class="st20" points="88.9,48.4 83.5,48 83.4,47.8 88.9,48.3 			"/>
			<polygon class="st20" points="83.4,47.8 80.5,51.8 80.5,51.9 83.5,48 			"/>
			<polygon class="st28" points="82.4,45.5 87.6,46.2 87.7,46.3 82.6,45.7 84.8,50.8 84.7,50.8 			"/>
			<polygon class="st28" points="83.6,48 88.9,48.4 89,48.5 83.6,48.1 			"/>
			<polygon class="st28" points="82.4,45.5 79.8,48.9 82.5,45.7 			"/>
			<g>
				<polygon class="st38" points="82.2,37.5 83.1,37.7 84,39.2 83.5,40.2 82.3,40.1 82,38.1 				"/>
				<polygon class="st11" points="82,38.1 82.3,40.1 82.8,39 82.2,37.5 				"/>
				<polygon class="st20" points="84,39.2 83.5,40.2 82.3,40.1 82.8,39 				"/>
			</g>
			<g>
				<path class="st35" d="M85,29.2c-0.2,0.3,0.1,0.7,0.6,1c0.5,0.3,1,0.3,1.2,0.1s-0.1-0.7-0.6-1C85.7,29,85.2,29,85,29.2z"/>
				<path class="st36" d="M85.3,29.3c-0.1,0.2,0.1,0.6,0.4,0.8c0.4,0.2,0.8,0.3,0.9,0c0.1-0.2-0.1-0.6-0.4-0.8
					C85.8,29.1,85.4,29.1,85.3,29.3z"/>
				<polygon class="st36" points="85.3,29.3 90.8,19.9 93.1,21.4 86.6,30.1 				"/>
				<path class="st36" d="M90.8,19.9c0.4-0.7,2.2-0.7,2.2-0.7s0.8,1.5,0.2,2.2c-0.2,0.4-1,0.3-1.6-0.1
					C90.9,20.9,90.5,20.3,90.8,19.9z"/>
				<path class="st20" d="M90.9,19.7c-0.3,0.4-0.2,1.5,0.3,2.1c0.3,0.4,1.1,0.8,1.3,0.5l-0.6,0.8c-0.2,0.3-0.9,0-1.2-0.5
					c-0.5-0.6-0.6-1.5-0.3-2.1l0.4-0.7C90.8,19.8,90.8,19.8,90.9,19.7z"/>
				<path class="st20" d="M89.8,21.5c-0.3,0.5-0.2,1.4,0.3,2c0.3,0.4,1,0.7,1.2,0.4l-0.5,0.7c-0.2,0.3-0.9,0-1.2-0.4
					c-0.4-0.5-0.6-1.3-0.3-1.8L89.8,21.5z"/>
				<path class="st20" d="M88.6,23.6c-0.3,0.5-0.1,1.3,0.2,1.7c0.3,0.4,0.9,0.7,1.1,0.4l0.4-0.5c-0.2,0.3-0.8,0-1.1-0.4
					c-0.4-0.5-0.6-1.3-0.3-1.8L88.6,23.6z"/>
				<path class="st20" d="M87.9,24.7c-0.3,0.5-0.1,1.2,0.2,1.6c0.3,0.4,0.9,0.6,1.1,0.4l0.4-0.6c-0.2,0.3-0.8,0-1.1-0.4
					c-0.3-0.4-0.5-1.1-0.2-1.6L87.9,24.7z"/>
				<path class="st20" d="M87.3,25.8c-0.3,0.5-0.2,1.1,0.1,1.5c0.3,0.4,0.9,0.6,1.1,0.3l0.4-0.5c-0.2,0.3-0.8,0.1-1.1-0.3
					c-0.3-0.4-0.5-1-0.1-1.5L87.3,25.8z"/>
				<path class="st20" d="M87.7,28.7c-0.2,0.2-0.8,0.1-1-0.3c-0.2-0.3-0.4-0.8-0.1-1.3l0.4-0.7c-0.3,0.5-0.2,1.1,0.1,1.4
					c0.3,0.4,0.9,0.6,1.1,0.3L87.7,28.7z"/>
				<path class="st20" d="M93.1,21.4c-0.3,0.4-1.1-0.1-1.2-0.7c-0.1-0.6,0-1.3,1-1.5c-0.2,0.2-0.2,0.6,0.1,1
					C93.3,20.5,93.4,21.1,93.1,21.4z"/>
				<path class="st20" d="M92.6,19.3c0.1,0,0.2-0.1,0.3-0.1c-0.2,0.2-0.2,0.6,0.1,1c0.3,0.4,0.4,0.9,0.2,1.2
					c-0.1,0.1-0.1,0.1-0.2,0.1c0.4-0.1-0.1-0.8-0.3-1.1C92.4,20.2,92.1,19.6,92.6,19.3z"/>
				<g class="st39">
					<path class="st6" d="M92.9,19.7c-0.1-0.3,0-0.5,0-0.5s0.4,0.8,0.4,1.5C93.3,20.3,93,19.9,92.9,19.7z"/>
					<path class="st6" d="M85.3,29.3l5.5-9.4c0.4-0.7,2.2-0.7,2.2-0.7s-1.4,0.2-1.8,0.7c-0.3,0.5-5.9,9.6-5.9,9.6
						C85.2,29.4,85.2,29.3,85.3,29.3z"/>
				</g>
				<path class="st20" d="M85.9,30.2l6.1-8.9c0,0-0.5-0.6-0.2-1.2l-6.3,9.8C85.5,29.9,85.7,30.1,85.9,30.2z"/>
			</g>
			<path class="st11" d="M76.5,39.8c0.1,0,0.2-0.1,0.2-0.1c0.1-0.3,1.8-3,3-4.8c0.1-0.1,0-0.2-0.1-0.3c-0.1-0.1-0.2,0-0.3,0.1
				c-3,4.8-3,4.9-3,4.9C76.3,39.7,76.4,39.8,76.5,39.8z"/>
			<path class="st11" d="M79.3,34.7c0.1-0.1,0.2-0.1,0.3-0.1c0,0,0,0,0.1,0.1c-0.1,0-0.2,0-0.2,0.1c-3,4.8-3,4.9-3,4.9
				c0,0,0,0.1,0,0.1c-0.1,0-0.2-0.1-0.2-0.2C76.3,39.5,76.3,39.5,79.3,34.7z"/>
			<path class="st11" d="M76.7,40.6c0.1,0,0.2-0.1,0.2-0.1c0.1-0.3,1.9-3,3-4.9c0.1-0.1,0-0.2-0.1-0.3c-0.1-0.1-0.2,0-0.3,0.1
				c-3.1,4.9-3.1,5-3.1,5C76.5,40.5,76.6,40.6,76.7,40.6z"/>
			<path class="st11" d="M79.6,35.3c0.1-0.1,0.2-0.1,0.3-0.1c0,0,0,0,0.1,0.1c-0.1,0-0.1,0-0.1,0.1c-3.1,4.9-3.1,5-3.1,5
				c0,0.1,0,0.1,0.1,0.1c0,0,0,0,0,0c-0.1,0-0.2-0.1-0.2-0.2C76.5,40.3,76.5,40.3,79.6,35.3z"/>
			<path class="st11" d="M77.1,41.2c0.1,0,0.2-0.1,0.2-0.1c0.1-0.3,1.9-3.1,3.1-5c0.1-0.1,0-0.2-0.1-0.3c-0.1-0.1-0.2,0-0.3,0.1
				c-3.2,5-3.2,5.1-3.2,5.2C76.9,41.1,76.9,41.2,77.1,41.2z"/>
			<path class="st11" d="M80,35.8c0.1-0.1,0.2-0.1,0.3-0.1c0,0,0.1,0.1,0.1,0.1c0,0-0.1,0-0.1,0.1c-3.2,5-3.2,5.1-3.2,5.2
				c0,0,0,0.1,0,0.1c0,0-0.1,0-0.1,0c-0.1,0-0.2-0.1-0.2-0.2C76.9,40.9,76.9,40.8,80,35.8z"/>
			<path class="st28" d="M80.2,32.8C80.2,32.8,80.2,32.8,80.2,32.8c-0.1,0.1-0.1,0.1-0.1,0.2c0,0,0,0.1,0,0.1c0,0.1-0.1,0.2,0,0.4
				c0,0.1,0,0.3,0.1,0.5c0.1,0.2,0.1,0.4,0.2,0.5c0.1,0.2,0.2,0.4,0.4,0.5c0.2,0.2,0.3,0.3,0.5,0.5c0.2,0.2,0.4,0.3,0.6,0.4
				c0.2,0.1,0.4,0.2,0.7,0.3c0.2,0.1,0.4,0.2,0.7,0.2c0.2,0.1,0.4,0.1,0.7,0.1c0.2,0,0.4,0,0.6,0c0.2,0,0.3-0.1,0.5-0.1
				c0.1-0.1,0.2-0.1,0.3-0.2c0,0,0.1-0.1,0.1-0.1c0,0,0-0.1,0.1-0.1c0,0,0.1-0.1,0.1-0.1s0,0-0.1,0.1c0,0-0.1,0-0.1,0.1
				c0,0-0.1,0-0.1,0.1c-0.1,0-0.2,0.1-0.3,0.1c-0.1,0-0.3,0.1-0.4,0.1c-0.2,0-0.4,0-0.6,0c-0.2,0-0.4-0.1-0.6-0.1
				c-0.2-0.1-0.4-0.1-0.6-0.2c-0.1,0-0.2-0.1-0.3-0.1c-0.1,0-0.2-0.1-0.3-0.2c-0.2-0.1-0.4-0.3-0.6-0.4c-0.2-0.1-0.4-0.3-0.5-0.5
				c-0.2-0.2-0.3-0.3-0.4-0.5c-0.1-0.2-0.2-0.3-0.3-0.5c0-0.1-0.1-0.2-0.1-0.2c0-0.1,0-0.2,0-0.2c0-0.1,0-0.3,0-0.4
				c0-0.1,0-0.1,0-0.1C80.1,32.9,80.1,32.9,80.2,32.8C80.2,32.8,80.2,32.8,80.2,32.8z"/>
			<path class="st28" d="M82.4,31C82.4,31,82.4,31,82.4,31c0,0.1-0.1,0.1-0.1,0.2c0,0,0,0.1,0,0.1c0,0,0,0.1,0,0.1
				c0,0.1,0,0.2,0.1,0.3c0.1,0.2,0.3,0.5,0.5,0.7c0.1,0.1,0.2,0.2,0.4,0.3c0.1,0.1,0.3,0.2,0.4,0.3c0.1,0.1,0.3,0.2,0.4,0.2
				c0.1,0.1,0.3,0.1,0.5,0.2c0.3,0.1,0.6,0.1,0.8,0.1c0.1,0,0.2,0,0.3-0.1c0,0,0.1,0,0.1-0.1c0,0,0.1,0,0.1-0.1
				c0.1,0,0.1-0.1,0.1-0.1c0,0,0,0,0,0s0,0-0.1,0c0,0-0.1,0-0.2,0.1c0,0-0.1,0-0.1,0c0,0-0.1,0-0.1,0c-0.1,0-0.2,0-0.3,0
				c-0.1,0-0.2,0-0.4-0.1c-0.1,0-0.3-0.1-0.4-0.1c-0.1,0-0.1,0-0.2-0.1c-0.1,0-0.1-0.1-0.2-0.1c-0.1,0-0.1-0.1-0.2-0.1l-0.2-0.1
				c-0.1-0.1-0.3-0.2-0.4-0.3c-0.1-0.1-0.3-0.2-0.4-0.3c-0.2-0.2-0.4-0.4-0.5-0.6c-0.1-0.1-0.1-0.2-0.1-0.3c0,0,0-0.1,0-0.1
				c0,0,0-0.1,0-0.1C82.4,31.1,82.4,31.1,82.4,31C82.4,31,82.4,31,82.4,31z"/>
			<path class="st28" d="M84.1,29.3c0,0,0,0.1-0.1,0.2c0,0.1,0,0.1,0,0.2c0,0.1,0,0.2,0.1,0.3c0.1,0.4,0.5,0.8,1,1.1
				c0.5,0.3,1,0.5,1.4,0.4c0.1,0,0.2,0,0.3-0.1c0.1,0,0.1-0.1,0.2-0.1c0.1-0.1,0.1-0.1,0.1-0.1c0,0,0,0-0.1,0c0,0-0.1,0-0.1,0
				c-0.1,0-0.1,0-0.2,0c-0.1,0-0.1,0-0.2,0c-0.2,0-0.4,0-0.6-0.1c-0.1,0-0.2-0.1-0.3-0.1c-0.1,0-0.1-0.1-0.2-0.1
				c-0.1,0-0.1-0.1-0.2-0.1c-0.2-0.1-0.4-0.3-0.6-0.5c-0.2-0.2-0.3-0.4-0.4-0.5c0-0.1-0.1-0.2-0.1-0.2c0-0.1,0-0.1,0-0.2
				C84.1,29.4,84.1,29.4,84.1,29.3C84.1,29.3,84.1,29.3,84.1,29.3z"/>
			<path class="st28" d="M77.6,42.3c0,0,0,0-0.1-0.1c-0.1,0-0.2-0.1-0.3-0.2c-0.2-0.2-0.5-0.5-0.8-1c-0.1-0.2-0.2-0.5-0.3-0.8
				c0-0.3,0-0.6,0.1-0.8c0.2-0.3,0.4-0.6,0.6-0.9c0.2-0.3,0.4-0.6,0.6-0.9c0.4-0.6,0.8-1.2,1.1-1.8c0.2-0.3,0.3-0.6,0.5-0.8
				c0.2-0.3,0.3-0.5,0.4-0.8c0.1-0.2,0.3-0.4,0.4-0.6c0.1-0.1,0.1-0.2,0.1-0.3c0-0.1,0.1-0.2,0.1-0.2c0.1-0.1,0.1-0.3,0.1-0.3
				c0-0.1,0-0.1,0-0.1s-1.5,2.4-3,4.9c-0.2,0.3-0.4,0.6-0.6,0.9c-0.2,0.3-0.4,0.6-0.5,0.9C76,39.6,76,40,76,40.3
				c0.1,0.3,0.2,0.6,0.3,0.8c0.1,0.2,0.3,0.4,0.4,0.6c0.1,0.2,0.3,0.3,0.4,0.4c0.1,0.1,0.2,0.2,0.3,0.2
				C77.5,42.3,77.6,42.3,77.6,42.3z"/>
			<path class="st11" d="M82.4,35.1c-0.2-0.2-0.5-0.3-0.6-0.5l1.2-2.1l0,0c0.2,0.2,0.5,0.4,0.8,0.6c0.1,0.1,0.2,0.1,0.3,0.2l0,0
				l-1.4,2C82.6,35.2,82.5,35.2,82.4,35.1z"/>
		</g>
		<path class="st10" d="M78.2,41.7c0-0.4-0.1-1.2-0.5-1.6c-0.4-0.4-1.5-0.5-1.6-0.5c-0.2,0.1-0.5,0.5-0.4,0.7c0,0.3,1,0.8,1,1.3
			s0.1,0.8,0.3,1.1C77.1,43,78.2,42.7,78.2,41.7z"/>
		<path class="st10" d="M78.2,41.7c0,0.4,0.6,0.7,0.9,0.7c0.2,0.5,0.6,1.6,1,2.9c0.4,1.3,0.3,3-0.4,2.8c-0.7-0.3-0.9-0.4-1.2-1
			c-0.8-1.3-1.3-1.7-1.3-2.5c0-0.8-0.1-1.5-0.2-1.8c-0.2-0.5-0.2-0.8,0.2-1C77.5,41.5,78.2,41.5,78.2,41.7z"/>
		<path class="st10" d="M84.5,38.5c0.5,0.5,1.3,0.7,1.6,0.2c0.3-0.5,0.3-0.7,0.8-1.1c0.5-0.5,0.5-0.8,0.4-1.1
			c-0.1-0.3-0.6-0.9-1.4-0.7c-0.8,0.2-1.3,0.9-1.5,1.4S84.1,38.1,84.5,38.5z"/>
		<path class="st33" d="M84.4,37.2c0-0.1,0.1-0.2,0.2-0.4c0.1-0.1,0.2-0.2,0.3-0.3c0.2-0.2,0.4-0.3,0.6-0.4c0.1-0.1,0.2-0.1,0.3-0.1
			l0.1,0l0.1,0c0.1,0,0.1,0,0.2,0c0.2,0,0.4,0.1,0.6,0.3c0.1,0.1,0.1,0.2,0.2,0.2c0,0,0,0.1,0.1,0.1c0,0.1,0,0.1,0,0.1
			c0,0.1,0,0.1-0.1,0.2c0,0.1-0.1,0.2-0.2,0.2c0,0-0.1,0.1-0.1,0.1c-0.1,0.1-0.1,0.1-0.2,0.1c-0.1,0.1-0.2,0.2-0.3,0.4
			c-0.1,0.1-0.2,0.3-0.2,0.4c-0.1,0.1-0.1,0.2-0.2,0.3l-0.1,0.1l0,0.2c0,0.1,0,0.1,0,0.2c0,0,0,0.1-0.1,0.1c0,0,0,0,0,0l0,0l0,0l0,0
			h0c0,0,0,0,0,0l0,0l0,0c0,0,0,0-0.1,0c0,0,0,0-0.1,0.1c-0.1,0.1-0.2,0.2-0.4,0.4c-0.1,0.1-0.2,0.2-0.3,0.4
			c-0.1,0.1-0.2,0.2-0.3,0.4c-0.1,0.1-0.2,0.3-0.3,0.4c0,0.1-0.1,0.1-0.1,0.2c0,0.1-0.1,0.2-0.1,0.2c0,0.1-0.1,0.2-0.1,0.3
			c0,0.1,0,0.2,0,0.3c0.1-0.1,0.2-0.3,0.2-0.4c0.1-0.1,0.2-0.2,0.3-0.4c0.2-0.2,0.4-0.5,0.6-0.7c0.2-0.2,0.5-0.4,0.7-0.6
			c0.1-0.1,0.1-0.1,0.2-0.1c0.1-0.1,0.1-0.1,0.1-0.2c0.1-0.1,0.1-0.3,0.1-0.5l0,0c0.1-0.2,0.3-0.5,0.4-0.7c0.1-0.1,0.2-0.2,0.3-0.3
			c0.1-0.1,0.2-0.2,0.3-0.3c0.1-0.1,0.2-0.2,0.2-0.3c0.1-0.1,0.1-0.3,0.1-0.4c0-0.1-0.1-0.3-0.1-0.4S87,36.1,86.9,36
			c-0.2-0.2-0.5-0.3-0.8-0.3c-0.1,0-0.3,0-0.4,0.1c-0.1,0-0.3,0.1-0.4,0.2c-0.2,0.1-0.4,0.3-0.6,0.5C84.6,36.7,84.5,37,84.4,37.2z"
			/>
		<path class="st10" d="M84.2,40.1c0.5,0.4,0.5,1.3,0.1,1.7C84,42.3,83.7,42,83.3,42c-1,0.2-2.2,0.1-2.2-0.6c0-1.4,0.4-1.4,0.8-1.4
			s0.8,0.1,1.3-0.1C83.7,39.8,83.9,39.9,84.2,40.1z"/>
		<path class="st33" d="M81.7,40.2c0.3,0.2,0.3,0.8,0.4,1.1c0.5,0,1.2-0.1,1.2-0.1s0-0.7-0.3-0.9C82.5,40.2,81.7,40.2,81.7,40.2z"/>
		<path class="st10" d="M84.7,41.7c0.4,0.5,0.2,1.4-0.1,1.7c-0.3,0.4-0.6,0-0.9,0c-0.9,0.1-1.8-0.1-1.8-1.3c0-1,0.6-0.9,0.9-0.8
			c0.3,0,0.7,0.2,1.1,0C84.3,41.3,84.4,41.5,84.7,41.7z"/>
		<path class="st33" d="M82.6,41.6c0.2,0.2,0.3,0.7,0.3,1c0.4,0,1,0,1,0s0-0.5-0.2-0.8C83.4,41.7,82.6,41.6,82.6,41.6z"/>
		<path class="st10" d="M85.6,43.9c0.2,0.5-0.3,1.1-0.6,1.3c-0.4,0.2-0.4-0.2-0.7-0.2c-0.7-0.2-1.4-0.6-1-1.5c0.3-0.7,0.8-0.5,1-0.4
			c0.2,0.1,0.5,0.3,0.9,0.4C85.4,43.4,85.5,43.6,85.6,43.9z"/>
		<path class="st33" d="M83.9,43.1c0.1,0.3,0.1,0.6,0.1,0.8c0.3,0.2,0.8,0.3,0.8,0.3s0-0.4,0-0.6C84.5,43.4,83.9,43.1,83.9,43.1z"/>
		<path class="st33" d="M81.8,42.3c0-0.1,0-0.1,0-0.2c0-0.1,0-0.1,0.1-0.2c0-0.1,0.1-0.1,0.1-0.2c0,0,0.1-0.1,0.2-0.1
			c0.1-0.1,0.2-0.1,0.4,0c0.1,0,0.3,0.1,0.4,0.1c0.1,0,0.3,0.1,0.5,0.1c0.1,0,0.2,0,0.2,0c0.1,0,0.2,0,0.2,0c0.1,0,0.1,0,0.2,0
			c0.1,0,0.1,0,0.1,0c0.1,0,0.2,0.1,0.2,0.2l0,0l0,0c0.1,0.1,0.3,0.3,0.4,0.6c0.1,0.1,0.1,0.2,0.2,0.4c0.1,0.1,0.2,0.2,0.3,0.3
			c0.2,0.2,0.3,0.4,0.4,0.6c0,0.1,0,0.1,0.1,0.2c0,0.1,0,0.1,0,0.2c0,0.1,0,0.1,0,0.2c0,0.1,0,0.1,0,0.2c0-0.1,0.1-0.3,0.1-0.4
			c0-0.1,0-0.1,0-0.2s0-0.1,0-0.2c-0.1-0.3-0.2-0.5-0.4-0.7l-0.2-0.3c-0.1-0.1-0.2-0.2-0.2-0.3C85,42.2,85,42.1,84.9,42
			c-0.1-0.1-0.2-0.2-0.3-0.3l0,0c-0.1-0.1-0.2-0.2-0.3-0.3c-0.1,0-0.3,0-0.4,0c-0.3,0.1-0.6,0.1-0.9,0c-0.1,0-0.3-0.1-0.4-0.1
			c-0.1,0-0.3,0-0.4,0.1c-0.1,0-0.1,0.1-0.2,0.1c0,0.1-0.1,0.1-0.1,0.2c0,0.1,0,0.1,0,0.2C81.8,42.1,81.8,42.2,81.8,42.3z"/>
		<path class="st33" d="M81.9,40c0,0,0.1,0,0.2,0c0.1,0,0.2,0,0.3,0.1c0.1,0,0.2,0,0.4,0c0.1,0,0.3,0,0.5-0.1c0.1,0,0.3-0.1,0.4,0
			c0.1,0,0.2,0.1,0.4,0.2c0.1,0,0.1,0.1,0.2,0.2c0,0.1,0.1,0.1,0.1,0.2c0.1,0.1,0.2,0.3,0.3,0.4c0.1,0.1,0.2,0.3,0.3,0.4
			c0.2,0.2,0.4,0.4,0.5,0.6c0.1,0.1,0.1,0.2,0.1,0.3s0,0.2,0.1,0.2c0,0.1,0,0.1,0,0.2c0,0,0,0.1,0,0.1s0,0,0-0.1c0,0,0-0.1,0-0.2
			c0-0.2,0-0.4-0.1-0.6c-0.1-0.2-0.3-0.5-0.5-0.7c-0.1-0.1-0.2-0.2-0.3-0.4c-0.1-0.1-0.2-0.3-0.3-0.4c-0.1-0.1-0.2-0.3-0.4-0.4
			c-0.1-0.1-0.3-0.2-0.5-0.2c-0.2,0-0.3,0-0.5,0.1c-0.1,0.1-0.3,0.1-0.4,0.1c-0.3,0-0.5,0-0.6,0C82,40,81.9,40,81.9,40z"/>
		<path class="st33" d="M84.2,43.1c0.1,0.1,0.2,0.2,0.3,0.3c0.1,0.1,0.3,0.2,0.4,0.2c0,0,0.1,0,0.1,0c0,0,0.1,0,0.1,0
			c0.1,0,0.1,0,0.1,0.1s0,0,0.1,0.1c0,0,0,0.1,0.1,0.1l0,0.1c0,0,0.1,0.1,0.1,0.2c0,0.1,0.1,0.2,0.1,0.2c0,0.1,0.1,0.2,0.1,0.3
			c0,0.1,0.1,0.2,0.2,0.2c-0.1-0.2-0.1-0.4-0.1-0.5c0-0.2-0.1-0.4-0.2-0.5l0,0c0-0.1-0.1-0.3-0.2-0.3c-0.1-0.1-0.3-0.1-0.4-0.1
			C84.7,43.3,84.4,43.2,84.2,43.1z"/>
		<path class="st11" d="M84.4,37.2c0,0,0,0.1-0.1,0.4c0,0.1-0.1,0.2-0.1,0.4c0,0.1,0,0.3,0.1,0.4c0.1,0.1,0.2,0.2,0.3,0.3
			c0.1,0.1,0.2,0.2,0.3,0.2c0.2,0.1,0.4,0.1,0.4,0.1c0,0,0,0,0,0s0-0.1,0-0.1c0,0,0-0.1-0.1-0.1c0,0-0.1-0.1-0.1-0.1
			c-0.1-0.1-0.1-0.1-0.2-0.2c0,0-0.1-0.1-0.1-0.1c0,0-0.1-0.1-0.1-0.1c0,0-0.1-0.1-0.1-0.1c0,0,0-0.1-0.1-0.1c0-0.1,0-0.2,0-0.3
			s0-0.2,0-0.3C84.4,37.3,84.4,37.2,84.4,37.2z"/>
		<path class="st40" d="M75.7,40c-0.2,0.6,0.9,0.8,1.5,1.3c0.7,0.4,0.9-0.2,0.6-0.8c0.3,0.4,0.3,1,0.3,1.3c0,0.3,0.2,0.5,0.5,0.6
			c0.1,0,0.2,0,0.3,0l0,0c0,0,1,2.6,1.7,5.4l-0.3,0.4c-0.1-0.6-0.2-1.1-0.3-1.4c-0.2-1.5-1.2-3.8-1.5-4.1c-0.3-0.1-1,0.2-1,1.2
			c-0.1,1,0.1,1.1,0.6,1.8c0.5,0.7,0.9,1.2,0.7,2c-0.2,0.8-0.9,1-0.9,1c0.8-0.5,0.4-1.4,0.1-2c-0.6-0.9-1-1.3-1-2
			c0-0.8-0.1-1.5-0.2-1.8c-0.2-0.3-0.3-0.6-0.3-1.1c-0.1-0.5-1-1-1-1.3C75.5,40.3,75.6,40.1,75.7,40z"/>
	</g>
	<g>
		<path class="st28" d="M54.2,16.5v2.2c0,0.5-0.4,1-1,1h-2c-0.2,0-0.4-0.2-0.5-0.5c-0.1-0.3-0.3-0.8-0.6-0.8c-0.9,0-1.2,1.2-1.9,1.2
			h-4.7c-0.6,0-1.2-0.5-1.2-1.2v-2c0-0.6,0.5-1.2,1.2-1.2l9.8,0.2C53.8,15.6,54.2,16,54.2,16.5z"/>
		<path class="st41" d="M42.3,16.5v2c0,0.6,0.5,1.2,1.2,1.2h4.7c0.7,0,1-1.2,1.9-1.2c0.3,0,0.5,0.5,0.6,0.8s0.4,0.5,0.5,0.5h2
			c0.5,0,1-0.4,1-1v-2.2c0-0.5-0.4-1-1-1l-9.8-0.2C42.8,15.3,42.3,15.9,42.3,16.5z M42.7,16.5c0-0.4,0.3-0.7,0.7-0.7l9.8,0.2
			c0.3,0,0.5,0.2,0.5,0.5v2.2c0,0.3-0.2,0.5-0.5,0.5h-2c0,0-0.1-0.1-0.1-0.2c-0.1-0.3-0.4-1-1.1-1c-0.7,0-1.1,0.5-1.4,0.8
			c-0.2,0.2-0.4,0.4-0.5,0.4h-4.7c-0.4,0-0.7-0.3-0.7-0.7V16.5L42.7,16.5z"/>
		<path class="st41" d="M35.9,15.3c0.5,0,7.6,0,7.6,0c-0.6,0-1.2,0.5-1.2,1.2v2L36,16.4l-0.9-0.5C35.1,15.9,35.4,15.3,35.9,15.3z"/>
		<path class="st28" d="M42.6,15.8l-7.2-0.3c0.1-0.1,0.3-0.2,0.4-0.2c0.5,0,7.6,0,7.6,0C43.1,15.4,42.8,15.5,42.6,15.8z"/>
		<g>
			<path class="st42" d="M54,15.9l-1.5,3.8h-1.3c-0.2,0-0.4-0.2-0.5-0.5c-0.1-0.2-0.2-0.5-0.4-0.7l0.1-0.5l0.6-2.6l2.3,0
				C53.5,15.6,53.8,15.7,54,15.9z"/>
			<polygon class="st42" points="48.8,15.5 49.9,15.5 46.5,19.7 44.3,19.7 			"/>
			<path class="st42" d="M42.3,16.5c0-0.6,0.5-1.2,1.2-1.2l2.4,0.1l-3.6,2.3V16.5z"/>
		</g>
	</g>
	<g>
		<g>
			<defs>
				<path id="SVGID_12_" d="M41.6,70.4l-8.8,14.9l-3.2,1.5c0,0-1.9-0.4-2.7-2.6L26.3,84l-2.7-13.6L41.6,70.4L41.6,70.4z"/>
			</defs>
			<clipPath id="SVGID_13_">
				<use xlink:href="#SVGID_12_"  style="overflow:visible;"/>
			</clipPath>
			<g class="st43">
				<g>
					<path class="st44" d="M25.2,73.5l1.1,2l1.6-0.9l-1.1-2c0,0,1.6-0.2,2.4,1.2c0.9,1.3-0.4,3-0.4,3l-0.7,2.1l0.2,1.3l-1.8,0.3
						L26.3,79l-1.1-1.5l-0.3,0.1l-0.4-1.2l0.4-0.2C24.9,76.3,24,74.5,25.2,73.5z"/>
					<g>
						<path class="st23" d="M25.2,76.3L25.2,76.3c0-0.1-0.8-1.6,0-2.4l1.1,1.8L25.2,76.3z"/>
					</g>
					<path class="st23" d="M25.2,76.4l1.1-0.6l2-1.1l-1.1-1.8c0.5,0,1.3,0.2,1.9,1.1c0.8,1.2-0.3,2.8-0.3,2.8l0,0L28,78.9l0.2,1.2
						l-1.4,0.2l-0.2-1.4l-1.3-1.6l-0.2,0.1l-0.3-0.8L25.2,76.4z"/>
					<g>
						<path class="st23" d="M25.2,76.4l-0.1-0.2c0,0-0.7-1.5,0-2.4l0,0.1c-0.7,0.9,0,2.3,0,2.3L25.2,76.4l3.1-1.7l-1.1-1.8
							c0.2,0,0.5,0.1,0.9,0.2c-0.3-0.1-0.6-0.2-0.8-0.2l1.1,1.8L25.2,76.4l-0.3,0.3l0.3,0.7l-0.1,0l-0.3-0.8L25.2,76.4z"/>
						<polygon class="st23" points="25.4,77.4 26.6,79 26.9,80.3 26.8,80.3 26.6,78.9 25.3,77.4 						"/>
					</g>
					<path class="st34" d="M29.4,94.9l0.2,0c0.7-0.1,1.2-0.8,1.1-1.5l-2.2-13.1l-1.8,0.3l1.3,13.2C27.9,94.5,28.7,95.1,29.4,94.9z
						 M28.5,93.8c-0.1-0.4,0.2-0.8,0.6-0.9c0.4-0.1,0.8,0.2,0.9,0.6c0.1,0.4-0.2,0.8-0.6,0.9C29,94.5,28.6,94.2,28.5,93.8z"/>
					
						<rect x="25.8" y="77.2" transform="matrix(0.8729 -0.4879 0.4879 0.8729 -34.3807 22.9012)" class="st45" width="1.9" height="0.5"/>
					<path class="st46" d="M26.2,78.2C26.2,78.2,26.2,78.2,26.2,78.2c0.1,0,0.1-0.1,0.1-0.1l-0.2-0.6c0,0-0.1-0.1-0.1-0.1
						c0,0-0.1,0.1-0.1,0.1L26.2,78.2C26.1,78.2,26.2,78.2,26.2,78.2z"/>
					<path class="st46" d="M26.4,78.1C26.4,78.1,26.4,78.1,26.4,78.1c0.1,0,0.1-0.1,0.1-0.1l-0.2-0.6c0,0-0.1-0.1-0.1-0.1
						c0,0-0.1,0.1-0.1,0.1L26.4,78.1C26.3,78.1,26.4,78.1,26.4,78.1z"/>
					<path class="st46" d="M26.6,78C26.6,78,26.6,78,26.6,78c0.1,0,0.1-0.1,0.1-0.1l-0.2-0.6c0,0-0.1-0.1-0.1-0.1
						c0,0-0.1,0.1-0.1,0.1L26.6,78C26.5,78,26.5,78,26.6,78z"/>
					<path class="st46" d="M26.8,77.9C26.8,77.9,26.8,77.9,26.8,77.9c0.1,0,0.1-0.1,0.1-0.1l-0.2-0.6c0,0-0.1-0.1-0.1-0.1
						c0,0-0.1,0.1-0.1,0.1L26.8,77.9C26.7,77.9,26.7,77.9,26.8,77.9z"/>
					<path class="st46" d="M27,77.8C27,77.8,27,77.8,27,77.8c0.1,0,0.1-0.1,0.1-0.1l-0.2-0.6c0,0-0.1-0.1-0.1-0.1
						c0,0-0.1,0.1-0.1,0.1L27,77.8C26.9,77.7,26.9,77.8,27,77.8z"/>
					<path class="st46" d="M27.2,77.7C27.2,77.7,27.2,77.6,27.2,77.7c0.1,0,0.1-0.1,0.1-0.1L27.1,77c0,0-0.1-0.1-0.1-0.1
						c0,0-0.1,0.1-0.1,0.1L27.2,77.7C27.1,77.6,27.1,77.7,27.2,77.7z"/>
					<path class="st46" d="M27.4,77.5C27.4,77.5,27.4,77.5,27.4,77.5c0.1,0,0.1-0.1,0.1-0.1l-0.2-0.6c0,0-0.1-0.1-0.1-0.1
						c0,0-0.1,0.1-0.1,0.1L27.4,77.5C27.3,77.5,27.3,77.6,27.4,77.5z"/>
					<path class="st46" d="M27.6,77.4C27.6,77.4,27.6,77.4,27.6,77.4c0.1,0,0.1-0.1,0.1-0.1l-0.2-0.6c0,0-0.1-0.1-0.1-0.1
						c0,0-0.1,0.1-0.1,0.1L27.6,77.4C27.5,77.4,27.5,77.4,27.6,77.4z"/>
				</g>
				<path class="st23" d="M29.4,94.7l0.1,0c0.6-0.1,1-0.8,0.9-1.5l-2.2-12.8l-1.5,0.3l1.4,12.9C28.2,94.3,28.8,94.8,29.4,94.7z
					 M28.4,93.8c-0.1-0.5,0.2-0.9,0.7-1c0.5-0.1,0.9,0.2,1,0.7c0.1,0.5-0.2,0.9-0.7,1C28.9,94.6,28.5,94.2,28.4,93.8z"/>
				<g class="st47">
					<path class="st6" d="M28.2,84.9c-0.4,0.3-0.8,0.7-1.1,1.2L27,84.5C27.8,84.1,29.1,84.3,28.2,84.9z"/>
					<path class="st6" d="M27.5,90.1l-0.2-2.6c0.5-1.2,2.1-1.6,2.1-1.6l0.4,2.2C28,88.5,27.5,90.1,27.5,90.1z"/>
				</g>
				<g>
					<path class="st23" d="M30.1,93.5c0.1,0.5-0.2,0.9-0.7,1c-0.2,0-0.5,0-0.6-0.2c0.2,0.1,0.4,0.1,0.6,0.1
						C29.8,94.4,30.1,94,30.1,93.5c-0.1-0.3-0.2-0.5-0.4-0.6C29.9,93.1,30.1,93.3,30.1,93.5z"/>
					<path class="st23" d="M28.1,93.5l-1.4-12.9l1.5-0.3l0,0.1l-1.5,0.3L28.1,93.5c0.1,0.5,0.3,0.8,0.6,1
						C28.4,94.4,28.1,94,28.1,93.5z"/>
				</g>
			</g>
		</g>
		<g>
			<defs>
				<path id="SVGID_14_" d="M41.6,70.4l-8.8,14.9l-3.2,1.5c0,0-1.9-0.4-2.7-2.6L26.3,84l-2.7-13.6L41.6,70.4L41.6,70.4z"/>
			</defs>
			<clipPath id="SVGID_15_">
				<use xlink:href="#SVGID_14_"  style="overflow:visible;"/>
			</clipPath>
			<g class="st48">
				<path class="st34" d="M30.5,83.9l0.1-0.6l1.2,0.2l1.2,0.2l-0.1,0.6l-0.2,0.2c-0.4,0.4-0.9,5.5-1,6.2c0,0.7-0.3,1.2-1.2,1
					c-0.9-0.1-1-0.7-0.8-1.3s1.3-5.7,1.1-6.1L30.5,83.9z"/>
				<path class="st23" d="M31,83.9l0.1-0.6l0.7,0.1l0.7,0.1l-0.1,0.6l-0.2,0.2c-0.3,0.4-0.9,5.4-1,6.1c-0.1,0.6-0.3,1.1-0.8,1.1
					c-0.5-0.1-0.6-0.6-0.4-1.3s1.2-5.6,1-6.1L31,83.9z"/>
				<path class="st23" d="M31.3,84l0.1-0.6l0.4,0.1l0.4,0.1l-0.1,0.6L32,84.3c-0.2,0.4-0.9,5.4-1,6.1c-0.1,0.6-0.2,1.1-0.5,1.1
					c-0.3-0.1-0.3-0.6-0.2-1.2c0.1-0.6,1.1-5.6,1-6.1L31.3,84z"/>
				<path class="st38" d="M32.7,83.1l-1.6-0.3c-0.2,0-0.4,0.1-0.4,0.3l0,0.1l2.3,0.4l0-0.1C33,83.4,32.9,83.2,32.7,83.1z"/>
				<path class="st23" d="M32.4,83.1l-1.1-0.2c-0.2,0-0.3,0.1-0.3,0.2l0,0.1l1.7,0.3l0-0.1C32.7,83.3,32.6,83.1,32.4,83.1z"/>
				<path class="st23" d="M31.9,83l-0.2,0c-0.1,0-0.2,0-0.2,0.1l0,0.2l0.4,0.1l0-0.2C32.1,83.1,32,83,31.9,83z"/>
				<polygon class="st44" points="32.9,74.1 33.7,74.3 33.6,75.9 33.4,76.2 33.2,76.2 32.1,83 31.6,83 32.8,76.1 32.6,76.1 
					32.5,75.8 				"/>
				<polygon class="st23" points="33.2,74.2 33.4,74.2 33.4,75.9 33.1,76.2 33,76.2 31.9,83 31.8,83 32.9,76.1 32.9,76.1 32.7,75.8 
									"/>
				<path class="st23" d="M32.1,86.7c-0.1,0.5-0.1,1.1-0.2,1.6c-1.6-0.3-2.1,1.5-2.1,1.5l0,0c0.2-0.6,0.4-1.8,0.6-2.9
					C30.8,86.4,32.1,86.7,32.1,86.7z"/>
			</g>
		</g>
	</g>
</g>
<g>
	<path class="st35" d="M96.3,137v18.2c0,1.6-1.3,2.8-2.8,2.8h-2.1v0.4h-1.7v-0.4h-1.1v0.4h-1.7v-0.4h-1.1v0.4H84v-0.4H71.5v0.4h-1.7
		v-0.4h-1.1v0.4H67v-0.4h-1.1v0.4h-1.7v-0.4h-2c-1.6,0-2.8-1.3-2.8-2.8V137H96.3z"/>
	<g class="st5">
		<path class="st21" d="M62.1,157.3h2v0.1h1.7v-0.1H67v0.1h1.7v-0.1h1.1v0.1h1.7v-0.1H84v0.1h1.7v-0.1h1.1v0.1h1.7v-0.1h1.1v0.1h1.7
			v-0.1h2.1c0.9,0,1.7-0.1,2.2-0.4c-0.5,0.7-1.3,1.1-2.2,1.1h-2.1v0.4h-1.7v-0.4h-1.1v0.4h-1.7v-0.4h-1.1v0.4H84v-0.4H71.5v0.4h-1.7
			v-0.4h-1.1v0.4H67v-0.4h-1.1v0.4h-1.7v-0.4h-2c-0.9,0-1.7-0.4-2.2-1.1C60.4,157.2,61.2,157.3,62.1,157.3z"/>
	</g>
	<path class="st35" d="M70.5,131c0-1.4,1.1-2.5,2.5-2.5h9.5c1.4,0,2.5,1.1,2.5,2.5v4H70.5L70.5,131L70.5,131z M84,131
		c0-0.8-0.7-1.5-1.5-1.5H73c-0.8,0-1.5,0.7-1.5,1.5v3H84L84,131L84,131z"/>
	<g class="st49">
		<path class="st6" d="M73,128.5h9.5c1.4,0,2.5,1.1,2.5,2.5v4h-0.4v-3.5c0-1.4-1.1-2.5-2.4-2.5h-9c-1.3,0-2.4,1.1-2.4,2.5v3.5h-0.4
			v-4C70.5,129.6,71.6,128.5,73,128.5z"/>
	</g>
	<path class="st7" d="M94,133.3H61.5c-1.2,0-2.2,1-2.2,2.2v1.6h36.9v-1.6C96.3,134.3,95.3,133.3,94,133.3z"/>
	<path class="st23" d="M94.4,134H61.2c-0.8,0-1.5,0.5-1.8,1.2c0.2-1.1,1.1-1.9,2.2-1.9H94c1.1,0,2,0.8,2.2,1.9
		C95.9,134.4,95.2,134,94.4,134z"/>
	<path class="st13" d="M95.6,136.4H59.9c-0.3,0-0.6,0.3-0.6,0.6l0,0h36.9l0,0C96.3,136.7,96,136.4,95.6,136.4z"/>
	<path class="st13" d="M77.8,138.4h18.5v4.3c0-0.8-1.8-2-5.7-2s-12.8,0-12.8,0s-8.8,0-12.8,0c-3.9,0-5.7,1.1-5.7,2v-4.3H77.8z"/>
	<path class="st35" d="M96.4,139.8H59.2c-0.8,0-1.4-0.6-1.4-1.4l0,0c0-0.8,0.6-1.4,1.4-1.4h37.3c0.8,0,1.4,0.6,1.4,1.4l0,0
		C97.8,139.2,97.2,139.8,96.4,139.8z"/>
	<path class="st23" d="M59.2,137h37.3c0.8,0,1.4,0.6,1.4,1.4l0,0c0,0.1,0,0.3-0.1,0.4c-0.2-0.6-0.7-1-1.3-1H59.2
		c-0.6,0-1.1,0.4-1.3,1c0-0.1-0.1-0.2-0.1-0.4l0,0C57.8,137.7,58.4,137,59.2,137z"/>
	<path class="st7" d="M63.5,133.8h-1.3c-0.1,0-0.2-0.1-0.2-0.2v-0.7c0-0.4,0.3-0.7,0.7-0.7H63c0.4,0,0.7,0.3,0.7,0.7v0.7
		C63.7,133.7,63.6,133.8,63.5,133.8z"/>
	<path class="st7" d="M66.3,133.8H65c-0.1,0-0.2-0.1-0.2-0.2v-0.7c0-0.4,0.3-0.7,0.7-0.7h0.3c0.4,0,0.7,0.3,0.7,0.7v0.7
		C66.5,133.7,66.4,133.8,66.3,133.8z"/>
	<path class="st7" d="M69.1,133.8h-1.3c-0.1,0-0.2-0.1-0.2-0.2v-0.7c0-0.4,0.3-0.7,0.7-0.7h0.3c0.4,0,0.7,0.3,0.7,0.7v0.7
		C69.3,133.7,69.2,133.8,69.1,133.8z"/>
	<path class="st7" d="M87.7,133.8h-1.3c-0.1,0-0.2-0.1-0.2-0.2v-0.7c0-0.4,0.3-0.7,0.7-0.7h0.3c0.4,0,0.7,0.3,0.7,0.7v0.7
		C87.9,133.7,87.8,133.8,87.7,133.8z"/>
	<path class="st7" d="M90.5,133.8h-1.3c-0.1,0-0.2-0.1-0.2-0.2v-0.7c0-0.4,0.3-0.7,0.7-0.7H90c0.4,0,0.7,0.3,0.7,0.7v0.7
		C90.7,133.7,90.6,133.8,90.5,133.8z"/>
	<path class="st7" d="M93.3,133.8H92c-0.1,0-0.2-0.1-0.2-0.2v-0.7c0-0.4,0.3-0.7,0.7-0.7h0.3c0.4,0,0.7,0.3,0.7,0.7v0.7
		C93.5,133.7,93.4,133.8,93.3,133.8z"/>
	<path class="st7" d="M74,130h7.6c0.4,0,0.6-0.3,0.6-0.6v-0.7c0-0.4-0.3-0.6-0.6-0.6H74c-0.4,0-0.6,0.3-0.6,0.6v0.7
		C73.4,129.7,73.7,130,74,130z"/>
	<path class="st23" d="M73.8,128.6h7.9c0.1,0,0.2-0.1,0.2-0.2l0,0c0-0.1-0.1-0.2-0.2-0.2h-7.9c-0.1,0-0.2,0.1-0.2,0.2l0,0
		C73.6,128.5,73.7,128.6,73.8,128.6z"/>
	<path class="st13" d="M73.5,128.3C73.5,128.3,73.5,128.3,73.5,128.3l0,0.6c0,0.3,0.3,0.6,0.6,0.6h7.5c0.3,0,0.6-0.3,0.6-0.6v-0.6
		c0,0,0,0,0,0c0.1,0.1,0.1,0.2,0.1,0.3v0.7c0,0.4-0.3,0.6-0.6,0.6H74c-0.4,0-0.6-0.3-0.6-0.6v-0.7C73.4,128.5,73.4,128.4,73.5,128.3
		z"/>
	<rect x="74.7" y="141.8" class="st50" width="6.3" height="13.9"/>
	<rect x="62.5" y="141.8" class="st50" width="6.3" height="13.9"/>
	<rect x="86.7" y="141.8" class="st50" width="6.3" height="13.9"/>
</g>
</svg>
