<?xml version="1.0" encoding="utf-8"?>
<!-- Generator: Adobe Illustrator 23.0.1, SVG Export Plug-In . SVG Version: 6.00 Build 0)  -->
<svg version="1.1"
	 id="svg2989" inkscape:version="0.48.0 r9654" sodipodi:docname="400x400px-kilogram_weight.png" xmlns:cc="http://creativecommons.org/ns#" xmlns:dc="http://purl.org/dc/elements/1.1/" xmlns:inkscape="http://www.inkscape.org/namespaces/inkscape" xmlns:rdf="http://www.w3.org/1999/02/22-rdf-syntax-ns#" xmlns:sodipodi="http://sodipodi.sourceforge.net/DTD/sodipodi-0.dtd" xmlns:svg="http://www.w3.org/2000/svg"
	 xmlns="http://www.w3.org/2000/svg" xmlns:xlink="http://www.w3.org/1999/xlink" x="0px" y="0px" viewBox="0 0 400 400"
	 style="enable-background:new 0 0 400 400;" xml:space="preserve">
<style type="text/css">
	.st0{fill:#FF7B07;}
</style>
<path d="M192-0.3c5.7,0,11.3,0,17,0c51.7,4.1,86.8,67.3,58,116h69c0,0,41.8,188.9,64,282c0,0.7,0,1.3,0,2c-112.8,0-232.8,0-350,0
	c-17.1,0-40.1,1.6-50-2c23.3-93,67-282,67-282h66C106.5,68.5,139,3.2,192-0.3z M158,84.7c10.8,51.9,94.9,39.7,85-19
	c-3.4-20.4-23.8-36.1-48-33C170.7,35.8,152.3,57.3,158,84.7z"/>
<g>
	<path class="st0" d="M119.2,255.4h29.5v53.7l21.6-25h35.5l-27,26.4l28.6,48.9h-32.5l-15.3-30.2l-10.9,10.6v19.6h-29.5L119.2,255.4
		L119.2,255.4z"/>
	<path class="st0" d="M268.5,284.1h27v71.1l0.1,3.3c0,4.7-1,9.2-3,13.5s-4.7,7.7-8,10.4c-3.3,2.6-7.6,4.6-12.7,5.7
		c-5.1,1.2-11,1.8-17.6,1.8c-15.1,0-25.5-2.3-31.2-6.8s-8.5-10.6-8.5-18.2c0-0.9,0-2.2,0.1-3.8l28,3.2c0.7,2.6,1.8,4.4,3.3,5.4
		c2.1,1.5,4.8,2.2,8,2.2c4.2,0,7.3-1.1,9.3-3.3c2.1-2.2,3.1-6.1,3.1-11.6v-11.4c-2.8,3.4-5.7,5.8-8.5,7.3c-4.4,2.4-9.2,3.5-14.4,3.5
		c-10.1,0-18.2-4.4-24.4-13.2c-4.4-6.2-6.6-14.5-6.6-24.8c0-11.7,2.8-20.7,8.5-26.8c5.7-6.1,13.1-9.2,22.3-9.2c5.9,0,10.7,1,14.5,3
		s7.4,5.3,10.7,9.9V284.1L268.5,284.1z M241.3,320.6c0,5.4,1.2,9.5,3.5,12.1s5.4,3.9,9.1,3.9c3.6,0,6.6-1.4,9-4.1
		c2.4-2.7,3.7-6.8,3.7-12.3s-1.3-9.7-3.8-12.6c-2.6-2.9-5.7-4.4-9.4-4.4c-3.7,0-6.6,1.3-8.8,4C242.4,310,241.3,314.4,241.3,320.6z"
		/>
</g>
<g>
	<path class="st0" d="M141.6,167.5v-19.1h33.2V236h-21.4v-68.5H141.6z"/>
	<path class="st0" d="M196.8,158.5c5.3-7.9,13.9-11.9,25.7-11.9c11.8,0,20.4,4,25.7,11.9c5.3,7.9,8,18.8,8,32.5
		c0,13.9-2.7,24.8-8,32.8c-5.3,7.9-13.9,11.9-25.7,11.9c-11.8,0-20.4-4-25.7-11.9c-5.3-7.9-8-18.8-8-32.8
		C188.8,177.2,191.5,166.4,196.8,158.5z M233.5,172.3c-1.8-4.4-5.4-6.5-10.9-6.5c-5.5,0-9.2,2.2-10.9,6.5
		c-1.8,4.4-2.6,10.6-2.6,18.7c0,5.4,0.3,9.9,1,13.5c0.6,3.6,1.9,6.4,3.9,8.6c2,2.2,4.9,3.3,8.7,3.3s6.7-1.1,8.7-3.3
		c2-2.2,3.3-5.1,3.9-8.6c0.6-3.6,1-8.1,1-13.5C236.1,182.9,235.2,176.7,233.5,172.3z"/>
</g>
</svg>
