<?xml version="1.0" encoding="utf-8"?>
<!-- Generator: Adobe Illustrator 23.0.1, SVG Export Plug-In . SVG Version: 6.00 Build 0)  -->
<svg version="1.1"
	 id="svg2989" inkscape:version="0.48.0 r9654" sodipodi:docname="400x400px-kilogram_weight.png" xmlns:cc="http://creativecommons.org/ns#" xmlns:dc="http://purl.org/dc/elements/1.1/" xmlns:inkscape="http://www.inkscape.org/namespaces/inkscape" xmlns:rdf="http://www.w3.org/1999/02/22-rdf-syntax-ns#" xmlns:sodipodi="http://sodipodi.sourceforge.net/DTD/sodipodi-0.dtd" xmlns:svg="http://www.w3.org/2000/svg"
	 xmlns="http://www.w3.org/2000/svg" xmlns:xlink="http://www.w3.org/1999/xlink" x="0px" y="0px" viewBox="0 0 400 400"
	 style="enable-background:new 0 0 400 400;" xml:space="preserve">
<style type="text/css">
	.st0{fill:#FFAE12;}
</style>
<path d="M192-0.3c5.7,0,11.3,0,17,0c51.7,4.1,86.8,67.3,58,116h69c0,0,41.8,188.9,64,282c0,0.7,0,1.3,0,2c-112.8,0-232.8,0-350,0
	c-17.1,0-40.1,1.6-50-2c23.3-93,67-282,67-282h66C106.5,68.5,139,3.2,192-0.3z M158,84.7c10.8,51.9,94.9,39.7,85-19
	c-3.4-20.4-23.8-36.1-48-33C170.7,35.8,152.3,57.3,158,84.7z"/>
<g>
	<path class="st0" d="M119.2,255.4h29.5v53.7l21.6-25h35.5l-27,26.4l28.6,48.9h-32.5l-15.3-30.2l-10.9,10.6v19.6h-29.5L119.2,255.4
		L119.2,255.4z"/>
	<path class="st0" d="M268.5,284.1h27v71.1l0.1,3.3c0,4.7-1,9.2-3,13.5s-4.7,7.7-8,10.4c-3.3,2.6-7.6,4.6-12.7,5.7
		c-5.1,1.2-11,1.8-17.6,1.8c-15.1,0-25.5-2.3-31.2-6.8s-8.5-10.6-8.5-18.2c0-0.9,0-2.2,0.1-3.8l28,3.2c0.7,2.6,1.8,4.4,3.3,5.4
		c2.1,1.5,4.8,2.2,8,2.2c4.2,0,7.3-1.1,9.3-3.3c2.1-2.2,3.1-6.1,3.1-11.6v-11.4c-2.8,3.4-5.7,5.8-8.5,7.3c-4.4,2.4-9.2,3.5-14.4,3.5
		c-10.1,0-18.2-4.4-24.4-13.2c-4.4-6.2-6.6-14.5-6.6-24.8c0-11.7,2.8-20.7,8.5-26.8c5.7-6.1,13.1-9.2,22.3-9.2c5.9,0,10.7,1,14.5,3
		s7.4,5.3,10.7,9.9V284.1L268.5,284.1z M241.3,320.6c0,5.4,1.2,9.5,3.5,12.1s5.4,3.9,9.1,3.9c3.6,0,6.6-1.4,9-4.1
		c2.4-2.7,3.7-6.8,3.7-12.3s-1.3-9.7-3.8-12.6c-2.6-2.9-5.7-4.4-9.4-4.4c-3.7,0-6.6,1.3-8.8,4C242.4,310,241.3,314.4,241.3,320.6z"
		/>
</g>
<g>
	<path class="st0" d="M173.3,163.8L143.2,236h-21l30.5-70h-37.3v-17.5h58V163.8z"/>
	<path class="st0" d="M184.4,233.8c-2.3-2.1-3.4-4.7-3.4-7.9c0-3.2,1.1-5.9,3.4-8c2.3-2.2,5.2-3.2,8.8-3.2c3.5,0,6.4,1.1,8.7,3.2
		c2.3,2.2,3.4,4.8,3.4,8c0,3.1-1.1,5.7-3.4,7.9c-2.3,2.1-5.2,3.2-8.7,3.2C189.6,237,186.7,235.9,184.4,233.8z"/>
	<path class="st0" d="M277.1,166.3h-37.4v16.6c1.6-1.8,3.8-3.2,6.7-4.3c2.9-1.1,6-1.7,9.4-1.7c6,0,11,1.4,14.9,4.1
		c4,2.7,6.9,6.2,8.7,10.6c1.8,4.3,2.8,9,2.8,14c0,9.4-2.6,16.8-7.9,22.3c-5.3,5.5-12.7,8.2-22.3,8.2c-6.4,0-12-1.1-16.7-3.3
		c-4.7-2.2-8.4-5.3-10.9-9.2c-2.6-3.9-4-8.4-4.2-13.6h20c0.5,2.5,1.6,4.5,3.5,6.2c1.8,1.6,4.4,2.5,7.6,2.5c3.8,0,6.6-1.2,8.4-3.6
		c1.8-2.4,2.8-5.6,2.8-9.6c0-3.9-1-6.9-2.9-9c-1.9-2.1-4.7-3.1-8.4-3.1c-2.7,0-5,0.7-6.7,2c-1.8,1.3-2.9,3.1-3.5,5.2h-19.8v-52.2h56
		V166.3z"/>
</g>
</svg>
