<?xml version="1.0" encoding="utf-8"?>
<!-- Generator: Adobe Illustrator 23.0.1, SVG Export Plug-In . SVG Version: 6.00 Build 0)  -->
<svg version="1.1" id="Layer_1" xmlns="http://www.w3.org/2000/svg" xmlns:xlink="http://www.w3.org/1999/xlink" x="0px" y="0px"
	 viewBox="0 0 889 123" style="enable-background:new 0 0 889 123;" xml:space="preserve">
<style type="text/css">
	.st0{fill:#FBFBFB;}
</style>
<path id="path4980" class="st0" d="M591.9,96.1h-27.2V71.1h25.9V49.6h-25.9V27.8h27.2V5.1h-55v113.4h55"/>
<path id="path4984" class="st0" d="M810.3,96.1h-27.2V71.1H809V49.6h-25.9V27.8h27.2V5.1h-55v113.4h55"/>
<path id="path4988" class="st0" d="M161.9,25c0,0,0.1-0.5,0.6-0.5c0.5,0,0.6,0.5,0.6,0.5l6.6,52.8h-14.1L161.9,25z M152.9,98.4
	l19.3,0l2.6,20l26.9,0L185.3,5.2h-44.8l-13.1,91.1h-18.2V5.2H81.3v113.3h69"/>
<path id="path4992" class="st0" d="M632.6,121.2c23.4,0,34.5-11,34.5-28.6V69.7h-27.8v21.8c0,5.1-2.6,8-7,8s-6.9-2.1-6.9-6.8v-63
	c0-4.1,2.6-6.8,6.9-6.8c4.5,0,7,2.6,7,6.8V49h27.8V29.7c0-18.9-9.5-27.3-34.1-27.3c-22.1,0-35.4,10.6-35.4,27.3V92
	C597.6,111.8,609.4,121.1,632.6,121.2"/>
<path id="path4996" class="st0" d="M238.7,121.2c23.4,0,34.5-11,34.5-28.6V69.7h-27.8v21.8c0,5.1-2.7,8-7,8c-4.3,0-6.9-2.1-6.9-6.8
	v-63c0-4.1,2.6-6.8,6.9-6.8c4.5,0,7,2.6,7,6.8V49h27.8V29.7c0-18.9-9.5-27.3-34.1-27.3c-22.2,0-35.4,10.6-35.4,27.3V92
	C203.7,111.8,215.4,121.1,238.7,121.2"/>
<path id="path5000" class="st0" d="M48.1,89c0,6.1-3.7,9.6-10.1,9.6c-3.9,0-8.1,0-8.1,0V69.4c0,0,5.3,0,9.4,0c5.4,0,8.8,3.5,8.8,9.6
	C48.1,84.7,48.1,83.8,48.1,89z M29.9,25h8c5.7,0,8.6,3.3,8.6,9.7c0,5.2,0,1.9,0,6.2c0,6.1-3.7,9.3-9.5,9.3c-3.4,0-7.1,0-7.1,0V25z
	 M75.7,89.6c0-4.1,0-3.6,0-10.8c0-9.9-5.4-15.1-9.4-17.3c-2.1-1.1-4.8-1.8-4.8-1.8s2.1-0.9,4.6-3.2c3.7-3.3,7.6-7.4,7.6-19.9
	c0-6.2,0-8.7,0-8.7c0-14.1-8.5-22.8-28.2-22.8c-12.5,0-43.2,0-43.2,0v113.3c0,0,31,0,43.8,0C63,118.5,75.7,111,75.7,89.6"/>
<path id="path5004" class="st0" d="M842.9,24.1h8c3.6,0,7.2,2.1,7.2,8.3c0,6.1,0,7.5,0,11c0,5-3,8.4-7.7,8.4c-4.7,0-7.5,0-7.5,0
	V24.1z M842.9,70.9c0,0,3.9,0,7.8,0c3.9,0,8.4,1.8,8.4,10.1c0,8.3,0,37.5,0,37.5h27.7V81.3c0-7.1-1-12.3-5.9-16.1
	c-2.8-2.2-6.3-3.5-6.3-3.5s1.8-0.8,3.8-2.6c3.4-3,6.5-7.7,6.5-16c0-9.2,0-13.8,0-13.8c0-14.3-9.9-24.1-27.8-24.1
	c-17.1,0-41.4,0-41.4,0v113.4h27.3"/>
<path id="path5008" class="st0" d="M501.7,86.9c0,5.7-2.7,11.6-10.4,11.6H484V25.4h7.6c8,0,10,4.9,10,12.5
	C501.7,43.2,501.7,86.9,501.7,86.9z M529.3,86.4c0-17.8,0-34.4,0-51.8c0-19.7-11.3-29.5-32.2-29.5c-18.7,0-40.8,0-40.8,0v113.4
	c0,0,22.4,0,40.2,0C516.1,118.5,529.3,107.7,529.3,86.4"/>
<path id="path5012" class="st0" d="M308.5,64.4l19.7,54.1h31.6L336,61.4l22.9-56.2h-30.7l-19.7,54.2V5.2h-28.2v113.3h28.2"/>
<path id="path5016" class="st0" d="M701.2,64.4l19.7,54.2h31l-23.2-57.2l22.9-56.2h-30.7l-19.7,54.2V5.2h-27.6v113.4h27.6"/>
<path id="path5020" class="st0" d="M378,82.3c0-8.8,4.1-14.3,9.3-16.4l33.7,35.6c-1.5,5.9-8.4,9.8-16.3,9.8c-5.1,0-9.1,0-9.1,0
	c-12.2,0-17.6-5.7-17.6-15.6V82.3z M393.4,120.9c0,0,4,0,10.6,0c13.2,0,20.7-5.4,24.2-12.2l9.1,9.9h14.8l-19.4-20.3
	c0.1-0.9,0.1-1.7,0.1-2.6V63h-10.6v24.3c0,0-31.7-33.1-35.4-37.3c-3.3-3.6-6.9-9.1-6.9-17.4v-3.9c0-9,6.1-16,18.4-16
	c2.6,0,1.6,0,3.6,0c13.7,0,16.9,8.2,16.9,17.6v8.3h10.6V28.4c0-15.7-6.5-25.3-26-25.3h-5.7c-17.6,0-28.5,9.2-28.5,25.3v6.7
	c0,10.4,4.2,16.4,7.6,20.1l3.9,4.1c-7.6,3.5-13.4,10.8-13.4,22.2v14.2C367.1,110.9,376.2,120.9,393.4,120.9"/>
</svg>
