<?xml version="1.0" encoding="utf-8"?>
<!-- Generator: Adobe Illustrator 23.0.1, SVG Export Plug-In . SVG Version: 6.00 Build 0)  -->
<svg version="1.1" id="Layer_1" xmlns="http://www.w3.org/2000/svg" xmlns:xlink="http://www.w3.org/1999/xlink" x="0px" y="0px"
	 viewBox="0 0 614.3 140.6" style="enable-background:new 0 0 614.3 140.6;" xml:space="preserve">
<style type="text/css">
	.st0{fill-rule:evenodd;clip-rule:evenodd;fill:#FBFBFB;}
</style>
<g id="g26531">
	<g id="q57" transform="matrix(6.450046,0,0,-6.450046,-2654.615,2342.933)">
		<g id="xfrm58" transform="matrix(0.335998,0,0,0.335998,407.9057,266.2093)">
			<path id="path3190" class="st0" d="M45.3,244.4c0,3.6-2.6,6-8.2,6H26.1v-12.2h11.3C42.1,238.3,45.3,239.9,45.3,244.4z
				 M43.3,268.5c0,3.5-2.4,5.8-5.9,5.8H26.1v-11.5h11.1C41.2,262.8,43.3,265.8,43.3,268.5z M61.8,242.7c0-10.4-9.6-17.3-19.3-17.3
				H10.9v61.9h29c11.1,0,19.2-5.6,19.2-17c0-9.8-8.5-12.7-8.5-12.7C50.6,257.5,61.8,254.9,61.8,242.7"/>
		</g>
	</g>
	<g id="q59" transform="matrix(6.450046,0,0,-6.450046,-2654.615,2342.933)">
		<g id="xfrm60" transform="matrix(0.335998,0,0,0.335998,407.9057,266.2093)">
			<path id="path3194" class="st0" d="M109.1,256.4c0,9.7-4.4,17.5-13.2,17.5c-8.8,0-13.1-7.9-13.1-17.5c0-9.8,4.4-17.6,13.1-17.6
				C104.7,238.7,109.1,246.6,109.1,256.4z M124.4,256.4c0-18.2-10.4-32.4-28.4-32.4c-17.9,0-28.4,14.3-28.4,32.4
				c0,18.1,10.5,32.4,28.4,32.4C113.9,288.8,124.4,274.4,124.4,256.4"/>
		</g>
	</g>
	<g id="q61" transform="matrix(6.450046,0,0,-6.450046,-2654.615,2342.933)">
		<g id="xfrm62" transform="matrix(0.335998,0,0,0.335998,407.9057,266.2093)">
			<path id="path3198" class="st0" d="M177.5,244.1c0-13.6-12.3-20.2-23.9-20.2c-13.4,0-20.3,5.1-25.7,11.6l9.9,9.7
				c4.2-5.3,9.6-8,15.7-8c5,0,8.3,2.5,8.3,6.1c0,3.9-3,5.2-11.1,6.9l-2.2,0.5c-9.8,2-17.8,7.6-17.8,18.6c0,12.2,9.9,19.5,22.9,19.5
				c11,0,18.2-4.8,22.6-9.7l-9.6-9.5c-3,3.2-7.5,5.8-12.7,5.8c-3.5,0-7.5-1.6-7.5-5.8c0-3.7,4.1-5.1,9.4-6.2l2.2-0.5
				C166.8,261.1,177.5,258.4,177.5,244.1"/>
		</g>
	</g>
	<g id="q63" transform="matrix(6.450046,0,0,-6.450046,-2654.615,2342.933)">
		<g id="xfrm64" transform="matrix(0.335998,0,0,0.335998,407.9057,266.2093)">
			<path id="path3202" class="st0" d="M236.3,237.4c-6.3-9.1-12.2-13.4-24.5-13.4c-17.4,0-28.6,14.4-28.6,32.8
				c0,17.5,10.2,32,28.8,32c10.2,0,17.6-4,23.8-13.4l-12.5-8.3c-2.5,4.4-5.8,6.9-11.2,6.9c-6.9,0-13.5-6.2-13.5-17.2
				c0-12.4,7.2-18,14-18c5.9,0,8.6,2.9,11.1,7.1L236.3,237.4"/>
		</g>
	</g>
	<g id="q65" transform="matrix(6.450046,0,0,-6.450046,-2654.615,2342.933)">
		<g id="xfrm66" transform="matrix(0.335998,0,0,0.335998,407.9057,266.2093)">
			<path id="path3206" class="st0" d="M294.4,225.4h-16.3v24.4h-18.8v-24.4h-16.2v61.9h16.2v-22.8h18.8v22.8h16.3V225.4"/>
		</g>
	</g>
</g>
</svg>
