<?xml version="1.0" encoding="utf-8"?>
<!-- Generator: Adobe Illustrator 23.0.1, SVG Export Plug-In . SVG Version: 6.00 Build 0)  -->
<svg version="1.1" id="Layer_1" xmlns="http://www.w3.org/2000/svg" xmlns:xlink="http://www.w3.org/1999/xlink" x="0px" y="0px"
	 viewBox="0 0 809.6 195.8" style="enable-background:new 0 0 809.6 195.8;" xml:space="preserve">
<style type="text/css">
	.st0{fill:#FBFBFB;}
</style>
<path id="path4494" class="st0" d="M0,0h809.6v15.3H0V0z"/>
<path id="path4496" class="st0" d="M0,180.4h809.6v15.3H0V180.4z"/>
<path id="path4500" class="st0" d="M686.8,23h122.8v42.2h-33.3v107.1h-56.4V65.3h-33.2V23"/>
<path id="path4504" class="st0" d="M602.3,23v149.4h102.4v-44.5h-46.1V23H602.3"/>
<path id="path4508" class="st0" d="M487,23h61.8l47.4,149.4h-55.1l-5.6-22.7H501l-5.1,22.7h-57.5L487,23z M508.7,116.4h19.2
	l-9.4-43.5L508.7,116.4"/>
<path id="path4512" class="st0" d="M457.4,23h-55L387,96L370.4,23h-48.6L306,96L291,23h-54.9l41.1,149.4h51l17.2-72.9l17.6,72.9
	h52.2L457.4,23"/>
<path id="path4516" class="st0" d="M155.1,55H237v30.7h-39.7v12.8h34.5v30.8h-34.5V142H237v30.4h-81.9V55"/>
<path id="path4520" class="st0" d="M0,172.4V23h70c41.3,0,74.2,22.5,74.2,75c0,51.1-31.8,74.4-74.5,74.4H0z M57.8,127.7
	c17.7,0,29.4-7.4,29.4-30.1C87.2,72.6,75.6,66,57.9,66h-4.5v61.7H57.8"/>
</svg>
