<?xml version="1.0" encoding="utf-8"?>
<!-- Generator: Adobe Illustrator 23.0.1, SVG Export Plug-In . SVG Version: 6.00 Build 0)  -->
<svg version="1.1" id="Layer_1" xmlns="http://www.w3.org/2000/svg" xmlns:xlink="http://www.w3.org/1999/xlink" x="0px" y="0px"
	 viewBox="0 0 2448 497" style="enable-background:new 0 0 2448 497;" xml:space="preserve">
<style type="text/css">
	.st0{fill-rule:evenodd;clip-rule:evenodd;fill:#FBFBFB;}
</style>
<path class="st0" d="M2334.5,393.7l90.7-250.6h-250.6c-32.4,0-67.7,25.9-79.2,57.6L2027,387.2h-133.9l64.8-169.2h68.4l32.4-89.3h-67
	L2037.8,7H1919l-44.6,121.7h-78.5l-32.4,89.3h78.5l-61.9,169.2h-136.8l95.8-252.7h-116.6L1528.1,393h-108l-30.2-97.2l174.2-156.2
	h-123.8l-140.4,126H1289l90.7-249.9H1271l-137.6,378h-100.1l90-250.6H873.5c-32.4,0-67.7,25.9-79.9,57.6l-72,198.7H628l93.6-257.1
	H516.4l22.3-61.9H337.9l21.6-59H21.8v108h190.1L83,483h108l107.3-293.8h92.9L283.8,483h108.7l84.2-231.9H574L489.8,483h172.8
	l55.4-56.9c0.7,28.1,15.1,56.9,39.6,56.9H857l59.8-63.4c-1.4,29.5,13.7,63.4,39.6,63.4h99.4l69.8-68.4l-24.5,68.4h108.7l64.1-175.7
	h12.2l54.7,175.7h115.9l65.5-69.1c-2.9,31,12.9,66.9,39.6,66.9h144.7l67-73.4c-5.8,31.7,10.1,73.4,38.9,73.4h144.7l62.6-68.4
	c-5,31,10.8,70.6,38.9,70.6h99.4l59.8-63.4c-1.4,29.5,13.7,63.4,39.6,63.4h190.8v-89.3L2334.5,393.7L2334.5,393.7z M921.8,391.5
	h-85.7L893,235.3h85.7L921.8,391.5z M2222.9,391.5h-85.7l57.6-156.2h85L2222.9,391.5z"/>
<path class="st0" d="M1788,7h-119.5l-36,98.6h118.1L1788,7z"/>
</svg>
