<?xml version="1.0" encoding="utf-8"?>
<!-- Generator: Adobe Illustrator 23.0.1, SVG Export Plug-In . SVG Version: 6.00 Build 0)  -->
<svg version="1.1" id="Layer_1" xmlns="http://www.w3.org/2000/svg" xmlns:xlink="http://www.w3.org/1999/xlink" x="0px" y="0px"
	 viewBox="0 0 512 512" style="enable-background:new 0 0 512 512;" xml:space="preserve">
<style type="text/css">
	.st0{fill:#FFFFFF;}
</style>
<g id="Calendar">
	<path class="st0" d="M456,64h-40V48c0-17.7-14.3-32-32-32s-32,14.3-32,32v16h-64V48c0-17.7-14.3-32-32-32s-32,14.3-32,32v16h-64V48
		c0-17.7-14.3-32-32-32S96,30.3,96,48v16H56c-22.1,0-40,17.9-40,40v320c0,22.1,17.9,40,40,40h224c4.4,0,8-3.6,8-8s-3.6-8-8-8H56
		c-13.2,0-24-10.8-24-24V176h448v136c0,4.4,3.6,8,8,8s8-3.6,8-8V104C496,81.9,478.1,64,456,64z M368,48c0-8.8,7.2-16,16-16
		s16,7.2,16,16v48c0,8.8-7.2,16-16,16s-16-7.2-16-16V48z M240,48c0-8.8,7.2-16,16-16c8.8,0,16,7.2,16,16v48c0,8.8-7.2,16-16,16
		c-8.8,0-16-7.2-16-16V48z M112,48c0-8.8,7.2-16,16-16s16,7.2,16,16v48c0,8.8-7.2,16-16,16s-16-7.2-16-16V48z M480,160H32v-56
		c0-13.2,10.8-24,24-24h40v16c0,17.7,14.3,32,32,32s32-14.3,32-32V80h64v16c0,17.7,14.3,32,32,32s32-14.3,32-32V80h64v16
		c0,17.7,14.3,32,32,32s32-14.3,32-32V80h40c13.2,0,24,10.8,24,24V160z"/>
	<path class="st0" d="M240,232c0-8.8-7.2-16-16-16h-32c-8.8,0-16,7.2-16,16v24c0,8.8,7.2,16,16,16h32c8.8,0,16-7.2,16-16V232z
		 M192,256v-24h32v24H192z"/>
	<path class="st0" d="M144,232c0-8.8-7.2-16-16-16H96c-8.8,0-16,7.2-16,16v24c0,8.8,7.2,16,16,16h32c8.8,0,16-7.2,16-16V232z
		 M96,256v-24h32v24H96z"/>
	<path class="st0" d="M416,272c8.8,0,16-7.2,16-16v-24c0-8.8-7.2-16-16-16h-32c-8.8,0-16,7.2-16,16v24c0,8.8,7.2,16,16,16H416z
		 M384,232h32v24h-32V232z"/>
	<path class="st0" d="M240,304c0-8.8-7.2-16-16-16h-32c-8.8,0-16,7.2-16,16v24c0,8.8,7.2,16,16,16h32c8.8,0,16-7.2,16-16V304z
		 M192,328v-24h32v24H192z"/>
	<path class="st0" d="M144,304c0-8.8-7.2-16-16-16H96c-8.8,0-16,7.2-16,16v24c0,8.8,7.2,16,16,16h32c8.8,0,16-7.2,16-16V304z
		 M96,328v-24h32v24H96z"/>
	<path class="st0" d="M224,360h-32c-8.8,0-16,7.2-16,16v24c0,8.8,7.2,16,16,16h32c8.8,0,16-7.2,16-16v-24
		C240,367.2,232.8,360,224,360z M192,400v-24h32v24H192z"/>
	<path class="st0" d="M288,272h32c8.8,0,16-7.2,16-16v-24c0-8.8-7.2-16-16-16h-32c-8.8,0-16,7.2-16,16v24
		C272,264.8,279.2,272,288,272z M288,232h32v24h-32V232z"/>
	<path class="st0" d="M272,328c0,8.8,7.2,16,16,16c4.4,0,8-3.6,8-8s-3.6-8-8-8v-24h32c4.4,0,8-3.6,8-8s-3.6-8-8-8h-32
		c-8.8,0-16,7.2-16,16V328z"/>
	<path class="st0" d="M128,360H96c-8.8,0-16,7.2-16,16v24c0,8.8,7.2,16,16,16h32c8.8,0,16-7.2,16-16v-24
		C144,367.2,136.8,360,128,360z M96,400v-24h32v24H96z"/>
	<path class="st0" d="M392,288c-57.4,0-104,46.6-104,104s46.6,104,104,104s104-46.6,104-104C495.9,334.6,449.4,288.1,392,288z
		 M392,480c-48.6,0-88-39.4-88-88s39.4-88,88-88s88,39.4,88,88C479.9,440.6,440.6,479.9,392,480z"/>
	<path class="st0" d="M438.2,358.5L376,420.7l-28.3-28.3c-3.2-3.1-8.2-3-11.3,0.2c-3,3.1-3,8,0,11.1l33.9,33.9
		c3.1,3.1,8.2,3.1,11.3,0l67.9-67.9c3.1-3.2,3-8.2-0.2-11.3C446.2,355.5,441.3,355.5,438.2,358.5z"/>
</g>
</svg>
