<?xml version="1.0" encoding="utf-8"?>
<!-- Generator: Adobe Illustrator 23.0.1, SVG Export Plug-In . SVG Version: 6.00 Build 0)  -->
<svg version="1.1" id="Layer_1" xmlns="http://www.w3.org/2000/svg" xmlns:xlink="http://www.w3.org/1999/xlink" x="0px" y="0px"
	 viewBox="0 0 138 170" style="enable-background:new 0 0 138 170;" xml:space="preserve">
<style type="text/css">
	.st0{fill:#3C3C4E;}
	.st1{opacity:0.2;fill:#FFFFFF;}
	.st2{opacity:0.15;}
	.st3{fill:#F7941E;}
	.st4{opacity:0.2;}
	.st5{fill:#FFFFFF;}
	.st6{fill:#BABEC0;}
</style>
<g>
	<g>
		<g>
			<path class="st0" d="M24.3,51.4l-4.5-11.7l-5.2-13.6c2-0.8,2.5-4.2,1.2-7.6c-1.3-3.4-4-5.6-6-4.8l-4-10.4l3-1.1l21,24.3l6.3,16.4
				l-3.7,1.4L24.3,51.4z"/>
			<path class="st1" d="M17.1,26.8c1.7-1.9,2.1-5.4,0.7-9.1c-1.4-3.6-4-6-6.6-6.3L8.8,5.3L28,27.5l5.4,14.1l-2.2,0.8l-6.1,5.5
				L17.1,26.8z"/>
			<path class="st2" d="M19.4,38.6l0.4,1.2l4.5,11.7l8.1-7.2l2.9-1.1C31.7,38.3,25.2,36.3,19.4,38.6z"/>
		</g>
		<g>
			<polygon class="st0" points="24.3,51.4 27.2,65.1 30.4,73.5 19.3,77.8 12.5,60.1 16.3,58.7 13.5,51.4 			"/>
			<polygon class="st1" points="20.5,75.1 15.2,61.3 18.9,59.9 16.5,53.5 22.6,53.5 25.2,65.7 27.7,72.3 			"/>
			<path class="st2" d="M27.2,64.9l-2.8-13.5l-10.8,0l2.8,7.2l-2.9,1.1C16.5,64,21.9,66,27.2,64.9z"/>
		</g>
		<path class="st3" d="M17.7,86.3L17.7,86.3l-6-3.9c-1.6-1-1.6-3.3,0-4.4l2.5-1.7c0.5-0.3,0.9-0.8,1-1.4c0-0.1,0-0.2,0-0.2
			c-0.3-1.3-0.5-2.3-0.6-3c-0.1-0.7,0.3-1.3,1-1.4l14-1.8c0.6-0.1,1.2,0.3,1.3,0.9l4.8,19.1c0.1,0.4,0.1,0.7,0,1.1
			c-0.4,2.5-1.4,13.6,8.7,35.7c8.4,18.2,15.7,27.8,19.2,31.7c1.1,1.2,0.8,3-0.5,3.9l-9.1,6c-1.5,1-3.5,0.2-4-1.5
			c-0.2-0.9-0.4-2.2-0.6-3.7c0-0.5-0.2-1-0.5-1.4C32.5,139.4,22.5,106,17.7,86.3z"/>
		<path class="st1" d="M52.7,165.4c-0.2,0.1-0.4,0-0.5,0c-0.1-0.1-0.2-0.2-0.3-0.3c-0.2-0.9-0.4-2.1-0.5-3.4c-0.1-0.9-0.4-1.7-1-2.4
			c-16.3-20.9-26.3-54.9-30.8-73.3L19.5,85l-6.7-4.3c-0.2-0.1-0.3-0.3-0.3-0.5c0-0.1,0-0.3,0.2-0.5l2.5-1.7c1-0.7,1.6-1.6,1.8-2.7
			c0.1-0.4,0.1-0.7,0-1c-0.2-0.8-0.3-1.5-0.4-2.1L29,70.7l4.7,18.4c0,0.1,0,0.2,0,0.2c-0.5,3-1.4,14.6,8.9,36.9
			c8.4,18.3,15.8,28,19.5,32.2c0.1,0.2,0.1,0.3,0.1,0.4c0,0.1-0.1,0.3-0.2,0.4l-9.1,6C52.8,165.3,52.8,165.4,52.7,165.4z"/>
		<g class="st4">
			<path class="st5" d="M52.7,141.4c-0.1,0.2-0.3,0.3-0.4,0.5c-1.5,1.3-3.7,1.2-5.6,1.8c-2.6,0.8-4.7,3-5.3,5.6
				c1.8,3.1,3.7,6,5.7,8.8c0.2,0,0.4-0.1,0.6-0.2c1.2-0.7,1.4-2.4,1.1-3.8c-0.2-1.4-0.7-2.8-0.1-4.1c0.7-1.7,2.8-2.3,4.7-2.4
				c1-0.1,2,0,3-0.2C55.2,145.6,54,143.7,52.7,141.4z"/>
			<path class="st5" d="M35.9,135.9c0.6-0.9,0.2-2.2,0.1-3.3c-0.2-2.6,1.8-5,4.3-5.8c1.6-0.5,3.3-0.4,4.9,0.2
				c-0.2-0.5-0.5-1-0.7-1.6c-1.2-2.5-2.2-4.9-3-7.1c-0.4,0.9-1,1.7-1.8,2.2c-2.1,1.3-4.9,0.6-7.1-0.5c-2.1-1-4.1-2.3-6-3.7
				c2.4,6.8,5.1,13.7,8.3,20.4C35.2,136.6,35.7,136.3,35.9,135.9z"/>
			<path class="st5" d="M37,104.6c0,0.2,0.1,0.6,0.3,1C37.2,105.3,37.1,104.9,37,104.6z"/>
		</g>
	</g>
	<g>
		<g>
			<path class="st0" d="M36.9,50.8c-0.1-1.3-0.3-2.6-0.8-3.8c-2.5-6.5-9.8-9.7-16.2-7.2l-5.2-13.6c-2,0.8-4.7-1.4-6-4.8
				c-1.3-3.4-0.8-6.8,1.2-7.6l-4-10.4l-3,1.1l0.6,32.1l6.3,16.4l2-0.8c0.1,1.3,0.3,2.6,0.8,3.8c2.5,6.5,9.8,9.7,16.2,7.2
				c0.6-0.2,1.2-0.5,1.8-0.9l0.7,1.3l3.2,8.4l11.1-4.3L38.9,50L36.9,50.8z"/>
			<path class="st1" d="M35.8,69.3l-2.5-6.6l-1.9-3.2l-1.8,1c-0.5,0.3-1,0.6-1.5,0.7c-5.4,2.1-11.5-0.6-13.6-6
				c-0.4-1-0.6-2.1-0.7-3.2l-0.2-2.8l-2.8,1.1L5.5,36.1L5,6.8l2.4,6.2c-1.7,1.9-2.1,5.4-0.7,9.1s4,6,6.6,6.3l5.4,14.1l1.9-0.7
				c5.4-2.1,11.5,0.6,13.6,6c0.4,1,0.6,2.1,0.7,3.2l0.2,2.8l2.8-1.1L43,66.5L35.8,69.3z"/>
			<path class="st2" d="M30.5,49.1c1.3,3.4-0.4,7.2-3.8,8.5c-3.4,1.3-7.2-0.4-8.5-3.8c-1.3-3.4,0.4-7.2,3.8-8.5
				C25.4,44,29.2,45.7,30.5,49.1z"/>
			<path class="st6" d="M29.7,49.4c1.1,3-0.3,6.3-3.3,7.4c-3,1.1-6.3-0.3-7.4-3.3c-1.1-3,0.3-6.3,3.3-7.4
				C25.2,45,28.5,46.4,29.7,49.4z"/>
		</g>
		<path class="st3" d="M52.6,72.9L52.6,72.9l1.8-6.9c0.5-1.8-1-3.5-2.9-3.3l-3,0.4c-0.6,0.1-1.2,0-1.7-0.4c-0.1-0.1-0.1-0.1-0.2-0.2
			c-0.7-1.1-1.2-2-1.6-2.6c-0.4-0.6-1.1-0.8-1.7-0.4l-11.6,8.1c-0.5,0.3-0.7,1-0.4,1.5l9.2,17.4c0.2,0.3,0.4,0.6,0.7,0.8
			c1.9,1.5,10.2,9.2,17.4,32.4c6,19.1,6.9,31.2,7,36.4c0,1.6,1.4,2.8,3,2.6l10.8-1.7c1.8-0.3,2.8-2.2,1.9-3.8
			c-0.5-0.9-1.1-1.9-2.1-3.2c-0.3-0.4-0.5-0.9-0.5-1.4C77.1,122.3,62.2,90.7,52.6,72.9z"/>
		<path class="st1" d="M79.5,155.1c0,0-0.1,0-0.1,0l-10.8,1.7c-0.2,0-0.4-0.1-0.4-0.1c-0.1-0.1-0.2-0.2-0.2-0.4
			c-0.1-5.6-1.1-17.8-7.1-37c-7.3-23.4-15.7-31.5-18.1-33.4c-0.1-0.1-0.1-0.1-0.2-0.2l-8.8-16.8l10.2-7.1c0.3,0.5,0.7,1.1,1.1,1.8
			c0.2,0.3,0.4,0.5,0.7,0.8c0.9,0.7,2,1,3.2,0.8l3-0.4c0.2,0,0.4,0.1,0.5,0.2c0.1,0.1,0.2,0.3,0.1,0.5l-2.1,7.7l0.4,0.7
			c9,16.7,24.3,48.6,26.2,75.1c0.1,0.9,0.4,1.8,0.9,2.5c0.8,1.1,1.4,2,1.9,2.9c0.1,0.1,0.1,0.3,0,0.4
			C79.7,154.8,79.7,155,79.5,155.1L79.5,155.1z"/>
		<g class="st4">
			<path class="st5" d="M67.9,117.8c-3.1,0.4-6-1.5-8.4-3.5c-1.1-0.9-2.3-1.9-3.5-2.7c1,2.5,1.9,5.3,2.9,8.3c0,0,0,0,0,0
				c0,0,0.1,0,0.1,0c2.8,0.6,5.7,0.7,8.4,1.5c3,1,5.7,2.9,7.7,5.4c-1-3.7-2.1-7.4-3.4-11.1C70.7,116.9,69.3,117.6,67.9,117.8z"/>
			<path class="st5" d="M46.5,91.5c-0.2,0.2-0.4,0.5-0.6,0.7c1.3,1.7,2.8,3.9,4.4,6.8c0.1,0,0.1-0.1,0.2-0.1
				c1.4-0.8,2.5-2.1,3.7-3.1c2.2-1.8,4.8-3,7.6-3.4c0.2,0,0.4-0.1,0.6-0.1c-1.2-2.7-2.5-5.3-3.7-7.8c-1.6,0.6-3.2,1.3-4.7,2.1
				C51.3,88,48.5,89.4,46.5,91.5z"/>
		</g>
	</g>
</g>
<g>
	<g>
		<g>
			<path class="st0" d="M84.8,50.5l-4.5-11.7l-7.6-19.9l0,0c7.2-2.8,15.3,0.8,18.1,8l5.8,14.9l-0.8,0.3l-2.9,1.1L84.8,50.5z"/>
			<path class="st1" d="M75.9,20.5c5.3-0.9,10.7,2.1,12.7,7.3l4.9,12.7l-1.9,0.7l-5.8,5.2L75.9,20.5z"/>
			<path class="st1" d="M75.9,20.5c0,0,0.1,0,0.3,0c0.2,0,0.5-0.1,0.9-0.1c0.4,0,0.9,0,1.5,0c0.6,0,1.2,0.1,1.9,0.3
				c1.3,0.3,2.9,0.9,4.2,2c1.4,1,2.6,2.5,3.5,4.1c0.8,1.7,1.4,3.4,2,5c0.6,1.6,1.2,3.1,1.7,4.4c1,2.6,1.7,4.3,1.7,4.3
				s-0.9-1.6-2.1-4.1c-0.6-1.2-1.3-2.7-2-4.3c-0.4-0.8-0.7-1.6-1.1-2.4c-0.4-0.8-0.7-1.7-1.1-2.4c-0.4-0.7-0.9-1.4-1.4-2
				c-0.6-0.6-1.1-1.1-1.7-1.6c-0.6-0.5-1.3-0.9-1.9-1.2c-0.6-0.3-1.3-0.6-1.9-0.8c-0.6-0.2-1.2-0.3-1.7-0.4c-0.5-0.1-1-0.2-1.3-0.3
				c-0.4-0.1-0.7-0.2-1-0.3C76,20.6,75.9,20.5,75.9,20.5z"/>
			<path class="st2" d="M79.9,37.7l0.4,1.2l4.5,11.7l8.1-7.2l2.9-1.1C92.2,37.4,85.8,35.4,79.9,37.7z"/>
		</g>
		<g>
			<polygon class="st0" points="84.8,50.5 87.7,64.2 88.7,73.5 77.6,77.8 73,59.2 76.8,57.8 74,50.6 			"/>
			<polygon class="st1" points="79,74.7 76.1,60.6 79.9,59.1 77.5,52.9 82.9,52.9 85.4,64.9 85.6,72.1 			"/>
			<path class="st2" d="M87.7,64l-2.8-13.5l-10.8,0l2.8,7.2l-2.9,1.1C77,63.1,82.4,65.1,87.7,64z"/>
		</g>
		<g class="st4">
			<path class="st5" d="M97.6,103.7c0,0.2,0.1,0.6,0.3,1C97.7,104.4,97.6,104,97.6,103.7z"/>
		</g>
		<g>
			<path class="st3" d="M73.8,83.1L73.8,83.1c-1.7-1.3-2.5-2-3.8-3.3C69,78.8,69.7,76.8,71,76c0.9-0.6,1.3-0.8,2.1-1.4
				c0.4-0.3,0.8-0.7,1-1.2c0-0.1,0.1-0.1,0.1-0.2c0.1-1.1,0.2-1.9,0.2-2.5c0.1-0.6,0.5-1.1,1-1.1c3.8-0.4,8-1.5,12.3-2.1
				c0.5-0.1,0.9,0.2,1,0.7c1.4,5.7,0.9,9.2,2.1,15.5c0.1,0.3,0,0.6-0.1,0.9c-0.6,2.1-3.5,12.1,5.8,30.2
				c7.7,14.9,14.7,21.7,17.4,24.6c0.8,0.9,0.6,2.3-0.4,2.9c-2.7,1.8-4,2.6-6.5,4.3c-1,0.7-2.8,0.2-3.5-0.9c-0.4-0.6-0.8-1.4-1.2-2.5
				c-0.1-0.3-0.4-0.7-0.7-0.9C84.3,128.9,72.9,106,73.8,83.1z"/>
			<path class="st1" d="M105.5,145c-0.2,0.1-0.3,0-0.4,0c-0.1,0-0.2-0.1-0.3-0.2c-0.3-0.6-0.7-1.4-1-2.3c-0.2-0.6-0.6-1.2-1.2-1.7
				C86,127.3,75.3,105.1,75.6,82.9c0-0.3,0-0.4,0-0.7c-1.9-1.4-2.8-2.1-4.4-3.6c-0.1-0.1-0.1-0.3-0.1-0.4c0-0.1,0.1-0.3,0.3-0.4
				c0.9-0.6,1.3-0.8,2.2-1.4c0.9-0.5,1.6-1.4,1.9-2.2c0.1-0.3,0.2-0.6,0.2-0.8c0-0.6,0.1-1.2,0.1-1.7c2.4-0.3,5.9-1.3,8.4-1.7
				c1.7-0.2,3.4,1.2,3.8,3.3c0.8,4.2,0,6.8,0.8,11.2c0,0.1,0,0.1,0,0.2c-0.8,2.5-3.8,12.9,5.5,30.8c7.7,14.7,15.1,21.4,18.1,24.4
				c0.1,0.1,0.1,0.2,0.1,0.3c0,0.1,0,0.2-0.2,0.3C109.6,142.3,108.2,143.2,105.5,145C105.5,145,105.5,145,105.5,145z"/>
			<g class="st4">
				<path class="st5" d="M104.8,139.5c0.3-1.4-0.8-3-2.2-2.9c-1.6,0.1-2.3,2.2-3.7,3c-0.1,0.1-0.2,0.1-0.3,0.1
					c1,0.9,2.1,1.8,3.2,2.6c0.2,0.1,0.3,0.3,0.4,0.4C103.4,142,104.5,140.9,104.8,139.5z"/>
				<path class="st5" d="M69.9,79.7c0.3,0.2,0.5,0.5,0.7,0.7c0.3-0.7,0.9-1.3,1.6-1.6c1.2-0.5,2.5-0.3,3.7,0
					c1.2,0.3,2.5,0.8,3.8,0.5c1.3-0.2,2.5-1.4,2.2-2.6c-0.2-1-1.1-1.6-2-2c-1.7-0.8-3.5-1.3-5.4-1.5c-0.1,0-0.2,0-0.2,0
					c0,0,0,0.1,0,0.1c0,0,0,0.1-0.1,0.2c-0.2,0.5-0.6,0.9-1,1.2c-0.8,0.5-1.3,0.8-2.1,1.4C69.7,76.8,69,78.8,69.9,79.7z"/>
				<path class="st5" d="M96.6,114.9c-0.9-1.7-1.6-3.3-2.3-4.9c-0.2-0.1-0.5-0.2-0.8-0.2c-1,0-1.8,0.8-2.1,1.7
					c-0.3,0.9-0.3,1.9-0.3,2.8c-0.1,2.4-0.8,4.9-2.4,6.7c-1,1.2-2.4,2-3.9,2.3c2.1,3.3,4.4,6.4,6.9,9.4c-0.7-3.8,0.4-7.9,3-10.8
					c1.2-1.3,2.8-2.4,3.2-4.1c0-0.1,0-0.2,0.1-0.4C97.5,116.6,97.1,115.8,96.6,114.9z"/>
				<path class="st5" d="M77.8,107.1c1.3-2.7,3.8-4.9,6.7-5.3c2.9-0.4,6.2,1.3,7.1,4.1c0.3,0.8,0.4,1.7,0.9,2.4
					c0.3,0.4,0.8,0.6,1.2,0.6C90,99.5,89.6,92.8,90,88.8c-0.2,0.1-0.5,0.2-0.7,0.4c-0.7,0.6-1.2,1.4-1.7,2.1c-1.9,2.7-4.8,4.6-8,5.2
					c-1.8,0.4-3.8,0.3-5.2-0.8c0.6,4.1,1.6,8.2,3,12.2C77.6,107.6,77.7,107.4,77.8,107.1z"/>
			</g>
		</g>
	</g>
	<g>
		<g>
			<path class="st0" d="M97.4,49.9c-0.1-1.3-0.3-2.6-0.8-3.8c-2.5-6.5-9.8-9.7-16.2-7.2l-7.6-19.9l0,0c-7.2,2.8-10.8,10.9-8.1,18.1
				l5.7,15l0.8-0.3l1.2-0.5c0.1,1.3,0.3,2.6,0.8,3.8c2.5,6.5,9.8,9.7,16.2,7.2c0.6-0.2,1.2-0.5,1.8-0.9l0.7,1.3l5.5,7.5l11.1-4.3
				l-9-16.8L97.4,49.9z"/>
			<path class="st1" d="M98.7,67.1L94,61.6l-2-3.5l-2.1,1.2c-0.5,0.3-1,0.5-1.5,0.7c-5.2,2-11.1-0.6-13.1-5.8c-0.4-1-0.6-2-0.7-3.1
				l-0.2-3.3l-2.9,1.1l-4.8-12.7c-2-5.2,0.1-11,4.6-13.9L79,41.9l2.2-0.9c5.2-2,11.1,0.6,13.1,5.8c0.4,1,0.6,2,0.7,3.1l0.2,3.3
				l2.9-1.1l7.3,12.4L98.7,67.1z"/>
			<circle class="st2" cx="84.8" cy="50.5" r="6.6"/>
			<path class="st6" d="M90.2,48.5c1.1,3-0.3,6.3-3.3,7.4s-6.3-0.3-7.4-3.3c-1.1-3,0.3-6.3,3.3-7.4S89.1,45.5,90.2,48.5z"/>
		</g>
		<g>
			<path class="st3" d="M114.8,67.3L114.8,67.3c0.4-2.1,0.5-3.1,0.6-5c0.1-1.3-1.8-2.3-3.3-2c-1,0.2-1.5,0.3-2.5,0.4
				c-0.5,0.1-1,0-1.5-0.2c-0.1,0-0.1-0.1-0.2-0.1c-0.8-0.7-1.4-1.3-1.8-1.7c-0.4-0.4-1.1-0.5-1.4-0.2c-3.1,2.2-7,4.3-10.5,6.7
				c-0.4,0.3-0.5,0.8-0.3,1.2c2.8,5.2,5.5,7.4,8.8,12.9c0.2,0.3,0.4,0.5,0.7,0.6c1.8,1.1,10.7,6.7,15.8,26.3
				c4.3,16.2,3.6,25.9,3.5,29.9c0,1.2,1,2.1,2.2,1.9c3.2-0.5,4.8-0.7,7.7-1.1c1.2-0.2,2.3-1.7,2-3c-0.1-0.7-0.4-1.6-0.8-2.7
				c-0.1-0.3-0.2-0.7-0.1-1.2C137.8,108.9,130.3,83.9,114.8,67.3z"/>
			<path class="st1" d="M132.6,134.6C132.6,134.6,132.6,134.6,132.6,134.6c-3.2,0.5-4.8,0.8-8.2,1.3c-0.2,0-0.3,0-0.3-0.1
				c-0.1-0.1-0.1-0.2-0.1-0.3c0.3-4.2,1.3-14.2-2.8-30.2c-5-19.6-14.2-25.2-16.5-26.6c-0.1,0-0.1-0.1-0.2-0.1
				c-2.4-3.8-4.7-5.2-6.9-8.9c-1.1-1.8-0.8-4,0.6-5c2.1-1.5,5.4-3,7.4-4.4c0.3,0.3,0.7,0.7,1.2,1.2c0.2,0.2,0.4,0.3,0.7,0.5
				c0.9,0.4,1.9,0.6,2.9,0.4c1-0.2,1.5-0.3,2.6-0.4c0.2,0,0.4,0,0.5,0.1c0.1,0.1,0.2,0.2,0.2,0.3c-0.2,2.1-0.3,3.3-0.8,5.6
				c0.2,0.2,0.3,0.3,0.4,0.5c14.5,16.3,22.2,40.4,18.6,61.2c-0.1,0.7,0,1.4,0.3,2c0.4,0.9,0.7,1.7,0.8,2.4c0,0.1,0,0.2-0.1,0.3
				C132.9,134.4,132.8,134.5,132.6,134.6L132.6,134.6z"/>
			<g class="st4">
				<path class="st5" d="M99.6,74.8c1,0.1,2,0,2.9,0c3.9,0,7.8,0.8,11.3,2.4c1.4,0.6,2.7,1.4,3.6,2.7s1,3.1,0,4.2
					c-1.1,1.2-3,1.2-4.6,0.7c-1.5-0.6-2.9-1.5-4.5-2c-0.4-0.1-0.9-0.2-1.4-0.1c2.5,2.4,5.7,6.4,8.6,13c0.5-0.8,1.1-1.6,1.9-2.2
					c2.3-1.6,5.3-1.3,7.9-0.4c2.2,0.7,4.3,1.9,6.1,3.4c-2.6-8.5-6.6-16.5-11.9-23.6c-5.8-2.4-12-4.1-18.2-4.8
					c-1.3-0.1-2.6-0.3-3.8,0.1c-0.7,0.2-1.4,0.6-1.9,1.2C97,71.4,98.2,73,99.6,74.8z"/>
				<path class="st5" d="M127,114.2c-2.5-2.2-4.2-5.3-6.4-7.8c-0.5-0.5-1.2-1.1-1.8-1.3c0.1,0.4,0.2,0.7,0.3,1.1
					c1.4,5.4,2.3,10.1,2.8,14.1c2.9-1.5,6.5-1.5,9.4,0c1.2,0.6,2.2,1.4,3.3,2.2c0.1-2.1,0.2-4.1,0.1-6.2
					C132.1,117.1,129.1,116,127,114.2z"/>
			</g>
		</g>
	</g>
</g>
</svg>
