<?xml version="1.0" encoding="utf-8"?>
<!-- Generator: Adobe Illustrator 23.0.1, SVG Export Plug-In . SVG Version: 6.00 Build 0)  -->
<svg version="1.1" id="Layer_1" xmlns="http://www.w3.org/2000/svg" xmlns:xlink="http://www.w3.org/1999/xlink" x="0px" y="0px"
	 viewBox="0 0 512 512" style="enable-background:new 0 0 512 512;" xml:space="preserve">
<style type="text/css">
	.st0{fill:#FFFFFF;}
</style>
<g id="Icons_copy">
	<path class="st0" d="M504.9,21.9L441.7,12c-4.4-0.7-8.5,2.3-9.1,6.7c0,0,0,0,0,0L390.5,288h-27l9.5-72.1c0.6-4.3-2.4-8.3-6.7-8.9
		l3.2-20.4l15.6-11.4c1.7-1.2,2.9-3.1,3.2-5.2L402,83v0l0,0l2.5-15.8c0.7-4.4-2.3-8.5-6.7-9.2l-63.2-10c-4.4-0.7-8.5,2.3-9.1,6.7
		l-16.2,102.7c-0.3,2.1,0.2,4.2,1.4,6l11.4,15.6l-3.2,20.4l0,0c-4.3-0.7-8.3,2.2-9.1,6.5L294.6,288h-13l-1.9-72.2
		c-0.1-4.3-3.7-7.8-8-7.8v-20.7l13.7-13.7c1.5-1.5,2.3-3.5,2.3-5.7V64c0-4.4-3.6-8-8-8c-1.2,0-2.5,0.3-3.6,0.8l-64,32
		c-2.7,1.4-4.4,4.1-4.4,7.2v72c0,2.1,0.8,4.2,2.3,5.7l13.7,13.7V208c-4.3,0-7.9,3.5-8,7.8l-1.8,72.2h-18.4
		c-7.5-28.5-13-52.1-17-73.9L155,88.3l7.9-1.5c0.6-0.1,1.1-0.3,1.7-0.5l67.9-28.9c3.5-1.5,5.4-5.1,4.7-8.8l-5.9-31.5
		c-0.7-3.7-3.8-6.4-7.6-6.5L150,8c-0.6,0-1.2,0-1.7,0.1L14.5,33c-4.3,0.8-7.2,5-6.4,9.3l11.7,62.9c0.8,4.3,5,7.2,9.3,6.4
		c0,0,0,0,0,0L92.1,100l23.4,125.8c3.5,18.7,6.4,38.7,9.2,62.2h-15.8L87.3,171.4c-2.4-13-14.9-21.6-28-19.2
		c-13,2.4-21.6,14.9-19.2,28l20,107.9H24c-4.4,0-8,3.6-8,8v32c0,4.4,3.6,8,8,8h8v128c0,17.7,14.3,32,32,32h56v-16H64
		c-8.8,0-16-7.2-16-16V336h40v40c0,4.4,3.6,8,8,8h24v16h16v-16h24c4.4,0,8-3.6,8-8v-40h24v88h16v-88h96v80h16v-80h24v40
		c0,4.4,3.6,8,8,8h24v16h16v-16h24c4.4,0,8-3.6,8-8v-40h40v80h16v-80h8c4.4,0,8-3.6,8-8v-32c0-4.4-3.6-8-8-8h-16.6l40.2-257
		C512.3,26.6,509.3,22.5,504.9,21.9C504.9,21.9,504.9,21.9,504.9,21.9z M356,221.6l-2.1,15.9l-32.8-5.2l2.9-15.7L356,221.6z
		 M387.4,72.6l-1.3,7.9c-0.7,4.4-4.8,7.3-9.1,6.6l-31.6-5c-4.4-0.7-7.3-4.8-6.7-9.1l0,0l1.2-7.9L387.4,72.6z M336.9,172.3
		l-11.4-15.6l9.7-61.3c2.4,1.3,5,2.2,7.7,2.6l31.6,5c1.2,0.2,2.5,0.3,3.8,0.3c1.5,0,2.9-0.1,4.4-0.4l-9.7,61.3l-15.6,11.4
		c-1.7,1.2-2.9,3.1-3.2,5.2l-3.7,23.7l-15.8-2.5l3.7-23.7C338.7,176.2,338.2,174,336.9,172.3L336.9,172.3z M318.2,248l33.6,5.3
		l-4.6,34.7h-36.4L318.2,248z M263.9,224l0.4,16h-33.2l0.4-16H263.9z M271.7,76.9v22.1l-48,24v-22.1L271.7,76.9z M237.4,178.3
		l-13.7-13.7v-23.7l48-24v47.7l-13.7,13.7c-1.5,1.5-2.3,3.5-2.3,5.7v24h-16v-24C239.7,181.9,238.9,179.8,237.4,178.3L237.4,178.3z
		 M230.7,256h34l0.8,32h-35.7L230.7,256z M25.3,47.3l125-23.2l66.4,2.3l3.5,18.8l-61.1,26l-125,23.2L25.3,47.3z M131.2,222.9
		L107.8,97l31.5-5.8L162.7,217c3.9,21.1,9.1,43.9,16.2,71h-38.1C137.9,263.3,134.9,242.4,131.2,222.9L131.2,222.9z M80.3,221.5
		l-15.7,2.9l-2.9-15.7l15.7-2.9L80.3,221.5z M57.1,171.2c2.5-3.6,7.5-4.6,11.1-2.1c1.7,1.2,2.9,3,3.3,5.1l2.9,15.7L58.8,193
		l-2.9-15.7C55.4,175.1,55.9,173,57.1,171.2L57.1,171.2z M67.5,240.1l15.7-2.9l9.4,50.8H76.4L67.5,240.1z M152,368h-16v-16h-16v16
		h-16v-32h48V368z M408,368h-16v-16h-16v16h-16v-32h48V368z M480,320H32v-16h448V320z M455.2,288h-48.6l3.4-21.9l15.8,2.5l2.5-15.8
		l-15.8-2.5l3.7-23.7l15.8,2.5l2.5-15.8l-15.8-2.5l3.7-23.7l15.8,2.5l2.5-15.8l-15.8-2.5l3.7-23.7l15.8,2.5l2.5-15.8l-15.8-2.5
		l3.7-23.7l15.8,2.5l2.5-15.8l-15.8-2.5l3.7-23.7l15.8,2.5l2.5-15.8l-15.8-2.5l3.7-23.7l47.4,7.4L455.2,288z"/>
	<path class="st0" d="M464,432h-80c-1.2,0-2.5,0.3-3.6,0.8l-14.3,7.2h-12.2l-14.3-7.2c-1.1-0.6-2.3-0.8-3.6-0.8h-24
		c-4.4,0-8,3.6-8,8H152c-2.1,0-4.2,0.8-5.7,2.3l-16,16c-3.1,3.1-3.1,8.2,0,11.3c0,0,0,0,0,0l16,16c1.5,1.5,3.5,2.3,5.7,2.3h152
		c0,4.4,3.6,8,8,8h24c1.2,0,2.5-0.3,3.6-0.8l14.3-7.2h12.2l14.3,7.2c1.1,0.6,2.3,0.8,3.6,0.8h80c17.7,0,32-14.3,32-32
		S481.7,432,464,432z M155.3,472l-8-8l8-8H304v16H155.3z M371.6,472.8c-1.1-0.6-2.3-0.8-3.6-0.8h-16c-1.2,0-2.5,0.3-3.6,0.8
		l-14.3,7.2H320v-32h14.1l14.3,7.2c1.1,0.6,2.3,0.8,3.6,0.8h16c1.2,0,2.5-0.3,3.6-0.8l14.3-7.2H440v32h-54.1L371.6,472.8z M464,480
		h-8v-32h8c8.8,0,16,7.2,16,16S472.8,480,464,480z"/>
</g>
</svg>
