<?xml version="1.0" encoding="utf-8"?>
<!-- Generator: Adobe Illustrator 23.0.1, SVG Export Plug-In . SVG Version: 6.00 Build 0)  -->
<svg version="1.1" id="Layer_1" xmlns="http://www.w3.org/2000/svg" xmlns:xlink="http://www.w3.org/1999/xlink" x="0px" y="0px"
	 viewBox="0 0 547 882" style="enable-background:new 0 0 547 882;" xml:space="preserve">
<style type="text/css">
	.st0{opacity:0.15;fill:#1C1F23;enable-background:new    ;}
	.st1{fill:url(#SVGID_1_);}
	.st2{fill:url(#SVGID_2_);}
	.st3{fill:#323938;}
	.st4{fill:#58402C;}
	.st5{opacity:0.3;}
	.st6{fill:#FFFFFF;}
	.st7{fill:#41C3C4;}
	.st8{opacity:0.2;fill:#1C1F23;enable-background:new    ;}
	.st9{fill:#EF5A32;}
	.st10{fill:#FCBD92;}
	.st11{opacity:0.15;enable-background:new    ;}
	.st12{fill:url(#SVGID_3_);}
	.st13{opacity:0.3;fill:#1C1F23;enable-background:new    ;}
	.st14{fill:url(#SVGID_4_);}
	.st15{fill:url(#SVGID_5_);}
	.st16{fill:#73472C;}
	.st17{fill:#FBB040;}
	.st18{opacity:0.35;fill:#FFFFFF;enable-background:new    ;}
	.st19{fill:#40525E;}
	.st20{opacity:0.3;enable-background:new    ;}
	.st21{fill:#1C1F23;}
	.st22{fill:#D6A17C;}
	.st23{opacity:0.2;fill:#FFFFFF;enable-background:new    ;}
	.st24{fill:#443113;}
	.st25{clip-path:url(#SVGID_7_);}
	.st26{opacity:0.5;fill:#FFFFFF;enable-background:new    ;}
	.st27{fill:#4E474B;}
	.st28{opacity:0.3;fill:#FFE6D2;enable-background:new    ;}
	.st29{opacity:0.5;clip-path:url(#SVGID_9_);fill:#FFFFFF;enable-background:new    ;}
	.st30{clip-path:url(#SVGID_11_);fill:#4E474B;}
	.st31{fill:#6D6E71;}
	.st32{fill:#58595B;}
	.st33{opacity:0.15;fill:#FFFFFF;enable-background:new    ;}
	.st34{fill:#F7941E;}
	.st35{fill:#3C3C4E;}
	.st36{fill:#BABEC0;}
	.st37{fill:#FFE6D2;}
	.st38{fill:#F15A29;}
	.st39{opacity:0.5;}
	.st40{opacity:0.1;enable-background:new    ;}
	.st41{opacity:0.3;fill:#41C3C4;enable-background:new    ;}
	.st42{opacity:0.5;fill:#FFE6D2;enable-background:new    ;}
	.st43{clip-path:url(#SVGID_13_);}
	.st44{fill:#535363;}
	.st45{fill:#BCBEC0;}
	.st46{fill:#D6D7D8;}
	.st47{opacity:0.2;}
	.st48{clip-path:url(#SVGID_15_);}
	.st49{opacity:5.000000e-02;}
	.st50{opacity:5.000000e-02;fill:#FFFFFF;enable-background:new    ;}
</style>
<path class="st0" d="M296.5,862.4c-45.5,0-82.4,2.5-82.4,5.5s36.9,5.5,82.4,5.5s82.4-2.5,82.4-5.5S342,862.4,296.5,862.4z"/>
<path class="st0" d="M122.1,862.4c-64.8,0-117.4,2.5-117.4,5.5s52.5,5.5,117.4,5.5s117.4-2.5,117.4-5.5S186.9,862.4,122.1,862.4z"/>
<path class="st0" d="M472,862.4c-39.4,0-71.4,2.5-71.4,5.5s32,5.5,71.4,5.5s71.4-2.5,71.4-5.5S511.5,862.4,472,862.4z"/>
<g>
	
		<linearGradient id="SVGID_1_" gradientUnits="userSpaceOnUse" x1="-527.0137" y1="14.02" x2="-527.0137" y2="221.67" gradientTransform="matrix(1 0 0 -1 818.0037 882)">
		<stop  offset="0" style="stop-color:#323938"/>
		<stop  offset="1" style="stop-color:#40525E"/>
	</linearGradient>
	<path class="st1" d="M276.1,868h11.5c0-64.2,24.9-120.3,24.9-146.3c0-25.9-11.4-61.3-11.4-61.3h-31.5
		C277.2,718.5,276.1,807.1,276.1,868L276.1,868z"/>
	
		<linearGradient id="SVGID_2_" gradientUnits="userSpaceOnUse" x1="-394.6287" y1="14.02" x2="-394.6287" y2="221.67" gradientTransform="matrix(1 0 0 -1 818.0037 882)">
		<stop  offset="0" style="stop-color:#323938"/>
		<stop  offset="1" style="stop-color:#40525E"/>
	</linearGradient>
	<path class="st2" d="M448.7,868h11.5c-17.2-64.2-7.4-120.3-14.4-146.3c-7-25.9-27.8-61.3-27.8-61.3h-31.5
		C409.8,718.5,432.4,807.1,448.7,868L448.7,868z"/>
	<path class="st3" d="M313,364.7c-29.7,0-64.8-3-68.7-21.3s51-33.8,96.3-30c45.3,3.8,60.9,25.3,58,32.1
		C387.3,373.2,342.7,364.7,313,364.7z"/>
	<g>
		<g>
			<path class="st4" d="M255.3,441.6c0.8-9.8,30-11.7,65.6-8.8s64.2,9.7,63.4,19.4l-0.5,15.4c-0.5-9.8-27.6-16.5-63.1-19.4
				c-35.4-2.9-64.5-1-65.3,8.8L255.3,441.6z"/>
		</g>
		<g class="st5">
			<path class="st6" d="M255.3,441.6c0.8-9.8,30-11.7,65.6-8.8s64.2,9.7,63.4,19.4l-2.7-0.8c0.7-8.1-26.7-13.9-60.8-16.8
				s-61.9-1.5-62.6,6.5L255.3,441.6z"/>
		</g>
	</g>
	<g>
		<path class="st7" d="M246.7,301.6c-16.9,0-40,41.8-40,41.8l-50.5-19.6c0,0,53.4-127.9,90.5-127.9
			C279,195.9,274.9,301.7,246.7,301.6z"/>
		<path class="st8" d="M252.8,299.9c-1.9,1.2-3.9,1.8-6.1,1.8c-11.8,0-26.6,20.3-34.5,32.6c0.3,9.8-2.8,17.2-4.9,18.4
			c-3.4,1.9-4.3,4.7-6.9,7.7s-8.3,5.7-12.2,0c4.1-2.9,6.4-10.9,6.6-20.1l6.8,0.8c0,0,2.5-1.6,7-6.2s-0.8-18.4-0.8-18.4
			s18.5-22.9,22.3-41.8C235.4,247.7,247.8,283.4,252.8,299.9z"/>
		<ellipse class="st9" cx="181.5" cy="333.6" rx="27.1" ry="27.1"/>
	</g>
	<g>
		<ellipse class="st10" cx="181.5" cy="333.6" rx="27.1" ry="27.1"/>
		<path class="st10" d="M106.7,272.4l7.5-12c0,0,57.3,35.1,81.6,50.3c31.3,19.5,1.8,64.9-28.6,45.9
			C140.7,340.1,106.7,272.4,106.7,272.4z"/>
		<path class="st11" d="M167.1,356.6c-20-12.5-44.2-54-54.9-73.7c0.5,0.4,0.9,0.8,1.4,1.3c3.6,3.5,6.8,7.4,10,11.2
			c11.4,13.6,24,29.6,40.5,36.9c1.7,0.7,3.4,1.4,5.1,1.7c3.9,0.5,7.9-1,10.6-3.8c0.9-0.9,1.7-2,2.4-3.1c3.9-7.2,1-16.1-3.4-22.3
			c-2.5-3.5-5.6-6.4-8.3-9.6c9.6,5.9,18.6,11.5,25.2,15.6C227.1,330.2,197.6,375.6,167.1,356.6z"/>
	</g>
	
		<linearGradient id="SVGID_3_" gradientUnits="userSpaceOnUse" x1="-529.2557" y1="221.66" x2="-529.2557" y2="430.26" gradientTransform="matrix(1 0 0 -1 818.0037 882)">
		<stop  offset="0" style="stop-color:#40525E"/>
		<stop  offset="1" style="stop-color:#323938"/>
	</linearGradient>
	<path class="st12" d="M301,660.3h-31.5c-26.4-161.1-10.2-208.6-10.2-208.6h63.7v53.8C296.8,505.5,301,660.3,301,660.3z"/>
	<path class="st13" d="M294.7,585.4c0.7-13,1.7-26,3-39c0.3-3.6,0.7-7.3,1-10.9c0.2-1.8,0.4-3.6,0.6-5.4c0.2-1.6,0.6-3.1,0.5-4.8
		c0-0.3-0.1-0.7,0-1.1c0.1-0.4,0.3-0.8,0.5-1.2c0.8-1.6,1.3-3.3,1.9-5c0.3-1,0.6-1.9,0.6-2.9c0-1.1-0.3-2.3,0.1-3.3
		c0.2-0.5,0.6-1,0.7-1.5c-0.1,1-0.1,2,0,3c0.1,1.1,0.3,2.2,0,3.2c-0.2,0.6-0.5,1.1-0.8,1.6c-0.7,1.2-1.2,2.5-1.5,3.8
		c-0.1,0.5-0.2,1-0.2,1.6c0,0.7,0.3,1.4,0.4,2.1c0.1,0.6,0,1.2-0.1,1.8c-0.2,1.2-0.4,2.4-0.5,3.6c-1.5,14.5-2.7,29.1-3.6,43.7
		c-1.8,29.1-2.4,58.3-1.9,87.4c0.4-0.2,0.9-0.4,1.3-0.6c0.6-0.3,1.3,0.1,1.4,0.8c0.1,1.8,0.4,3.6,0.7,5.3c-0.7-0.6-1.4-1.2-2.1-1.8
		c-0.1-0.7-0.2-1.5-0.3-2.2c-0.5,0.2-1,0.5-1.4,0.7c0,0-0.1,0-0.2,0.1c-0.4-0.3-0.8-0.6-1.2-0.8
		C292.7,637.5,293.2,611.5,294.7,585.4z"/>
	<path class="st13" d="M323.1,505.5c-12.6,0-18.2,35.9-20.6,73.1v0c0,0,0.1-47.8-0.7-50.6c-0.8-2.8-9,1.8-7.6-1.4s15.8-14.8,13-16.8
		c-2.8-2-13-1.4-13-1.4S309.1,502.6,323.1,505.5z"/>
	
		<linearGradient id="SVGID_4_" gradientUnits="userSpaceOnUse" x1="-454.6837" y1="221.66" x2="-454.6837" y2="430.26" gradientTransform="matrix(1 0 0 -1 818.0037 882)">
		<stop  offset="0" style="stop-color:#40525E"/>
		<stop  offset="1" style="stop-color:#323938"/>
	</linearGradient>
	<path class="st14" d="M386.5,660.3H418c-16.7-161.1-45.7-208.6-45.7-208.6h-63.6l14.4,53.8C349.3,505.5,386.6,660.3,386.5,660.3z"
		/>
	<g>
		<path class="st13" d="M422.8,671.9c-3.3-3.1-6.3-6.5-9.3-9.8c-2.2-2.4-1.9-3.2-2.4-6.7c-1-7.6-2.1-15.3-3.1-22.9
			c-2.2-16.3-5.2-32.4-8.4-48.5c-4.6-23-9.6-46.2-15.8-68.9c6.3,22.3,12.2,44.6,16.9,67.4c3.3,15.7,6.1,31.5,8.7,47.4
			c1.2,7.3,2.4,14.5,3.3,21.8c0.6,4.6,1.2,7.9,4.2,11.6c2.2,2.7,4.3,5.4,6.2,8.2C423.4,671.8,423,672.1,422.8,671.9z"/>
		<path class="st13" d="M376.3,489.2c0.8,2.8,1.6,5.5,2.4,8.2c-0.8-2.7-1.6-5.5-2.5-8.2C376.2,489.2,376.3,489.2,376.3,489.2z"/>
		<path class="st13" d="M378.7,497.5c1.8,5.8,3.5,11.7,5.1,17.6C382.1,509.2,380.4,503.3,378.7,497.5z"/>
	</g>
	<g>
		<path class="st7" d="M259.4,451.7h63.6V195.9c0,0-56,0-76.3,0c-20.3,0-22.7,69.4-11.3,105.7C251.5,330.9,259.4,374.3,259.4,451.7
			L259.4,451.7z"/>
		<path class="st7" d="M372.3,451.7h-63.6V195.9c0,0,86.2,0,106.5,0s11.3,69.4,0,105.7C399.1,330.9,356.2,379.5,372.3,451.7
			L372.3,451.7z"/>
	</g>
	<path class="st8" d="M270.5,238.8c-1.4,21.9-4.2,22.3,26.2,22.3s42.7-21,54.5-41.4c6.7-11.7,18-20,27.6-23.7c5.7,0,11.1,0,16.1,0
		c-19.8,2.6-47.7,50.7-48.4,85.5c-0.7,34.8,11.8,49.2,22.7,52.3c10.9,3.1,27.6-27.9,24.4-45.6c-3.2-17.8-10-31.1-0.3-54.7
		c7.8-18.9,20-23.8,32.9-21.8c3.7,22.6-3.1,64.5-11,90c-16.1,29.3-59,77.9-42.9,150.1H323h-14.4h-49.2c0-60.6-4.9-100.4-14.7-128.9
		c3.4,2.9,7.2,1.1,6.7-23.4c-1-42.3,9.7-73.8,15.1-87.7c3-7.7,10-13.3,16.7-15.9c4.6,0,9.2,0,13.5,0
		C284.8,198.3,271.9,216.9,270.5,238.8z"/>
	<path class="st10" d="M331.5,195.9c-19.2,0-38.8,0.2-38.8,5c0,4.9,7,11.1,26.2,11.1s43.3-6.3,43.3-11.1S350.6,195.9,331.5,195.9z"
		/>
	<path class="st11" d="M265.6,195.9c0,0,17.9,23.9,35.8,23.9c17.9,0,64.4-3.1,101.1-23.9H265.6z"/>
	
		<linearGradient id="SVGID_5_" gradientUnits="userSpaceOnUse" x1="-496.5137" y1="415.0749" x2="-496.5137" y2="619.4999" gradientTransform="matrix(1 0 0 -1 818.0037 882)">
		<stop  offset="0" style="stop-color:#323938"/>
		<stop  offset="1" style="stop-color:#40525E"/>
	</linearGradient>
	<path class="st15" d="M398.7,345.6c-29,14.4-71.7-19-53.8-83.1c0,0-61.4,10.9-95.1,0c-0.1,1.9-0.3,4-0.3,6.3
		c-0.3,25.4,4.8,74.6-5.1,74.6c3.3,12.3,15.1,86.9,15.1,108.3c0.6,1.3,13.4,9.7,45.3,13.7c31.9,4,64.5-0.5,70.2-8.6
		C374.9,395.1,398.6,345.5,398.7,345.6z"/>
	<path class="st13" d="M304.7,465.4c-31.9-4-44.7-12.4-45.3-13.7c0-2.7-0.2-6.3-0.5-10.5c10.3,12.4,34,12.3,55.7,13.1
		c27.3,1,48.9-5.1,49.7-13.4c-0.1-45.9,17.8-89.8,17.8-89.8l-1.6-2.6v0c6.2,0.8,12.5-0.2,18.2-3c0,0-23.7,49.6-23.7,111.3
		C369.1,464.9,336.6,469.4,304.7,465.4z"/>
	<path class="st13" d="M259.4,441.9c1.6,4.4,25.7,13,69.6,12.7s46.1-6.5,46.1-6.5s-0.7,7.7,2.6,15.1c5.4,12,10.5,27.9-7.6,30.4
		c-29.1,4.1-111.5-10.7-113.1-31.9C257.1,461.7,257.2,449.3,259.4,441.9z"/>
	<g>
		<path class="st7" d="M415.2,301.6c16.9,0,40,41.8,40,41.8l50.5-19.6c0,0-53.4-127.9-90.5-127.9C382.9,195.9,387,301.7,415.2,301.6
			z"/>
		<ellipse class="st9" cx="480.4" cy="333.6" rx="27.1" ry="27.1"/>
	</g>
	<g>
		
			<ellipse transform="matrix(0.9844 -0.1761 0.1761 0.9844 -51.241 89.8094)" class="st10" cx="480.4" cy="333.6" rx="27.1" ry="27.1"/>
		<path class="st10" d="M468.3,463.6h-14.2c0,0-0.8-101.3-0.8-130c0-36.9,54.1-35.9,54.1,0C507.5,364.8,468.3,463.6,468.3,463.6z"/>
		<path class="st11" d="M494.6,357.7c0.5-6.4,0.5-12.9-1.5-18.9c-2-6-6.6-11.6-12.7-13.3c-8.6-2.4-17.8,3.4-22.3,11.1
			c-2.5,4.5-3.9,9.4-4.7,14.4c0-7.1-0.1-13-0.1-17.4c0-36.9,54.1-35.9,54.1,0c0,27.1-29.5,105-37.3,125.2c1.1-5.9,2.3-11.7,3.8-17.5
			c3.1-12.1,7.5-23.8,11.1-35.7C489.9,390,493.4,374,494.6,357.7z"/>
	</g>
	<g>
		<path class="st16" d="M384.3,452.3l-0.5,15.4c0.5,10.5-30.2,17.1-65.6,14.1s-63.5-15-62.7-24.8l-0.1-15.4l2.8-0.3
			c-0.7,8.1,26.4,16.9,60.5,19.7c34.1,2.8,62.3-1.4,62.9-9.5L384.3,452.3z"/>
		<g class="st5">
			<path class="st6" d="M258.1,441.3c-0.7,8.1,26.4,16.9,60.5,19.7c34.1,2.8,62.3-1.4,62.9-9.5l2.7,0.8
				c-0.8,9.8-30.3,15.3-65.9,12.4c-35.6-2.9-63.8-13.3-63-23.1L258.1,441.3z"/>
		</g>
	</g>
	<g>
		<polygon class="st17" points="321.4,482 318,485.5 287,479.7 287.9,459.2 290.6,458.3 322.1,463.2 		"/>
		<path class="st13" d="M298.5,481.9l0.7-20.9l2.7-1l7.5,1.1l-2.3,1.1c0,0-0.7,20.6-0.8,21L298.5,481.9z"/>
		<polygon class="st13" points="318,485.5 321.4,482 322.1,463.2 318.7,464.2 		"/>
		<polygon class="st18" points="322.1,463.2 290.6,458.3 287.9,459.2 318.7,464.2 		"/>
	</g>
	<path class="st19" d="M343.3,268.7h-18.5c13.6-53.8,44.5-77.8,51-77.8c6.5,0,9.2,0,16.4,0s7.5,5,7.5,5h-4.7
		c-16.5,0-35.9,25.5-50,66.5L343.3,268.7z"/>
	<path class="st19" d="M264.5,268.7h-15.1c1.9-49.3,20.3-77.8,26.8-77.8s9.2,0,16.4,0s8.8,5,8.8,5h-4.7c-16.5,0-29,25.5-32.2,66.5
		L264.5,268.7z"/>
	<g class="st5">
		<path d="M397.2,193.1c-0.4-0.3-0.8-0.6-1.3-0.9c-0.2-0.1-0.5-0.3-0.8-0.3l-0.2-0.1c0,0-0.4,0-0.2,0l0,0l-0.1,0c0,0-0.1,0-0.1,0
			c-0.1,0-0.3-0.1-0.4-0.1c-0.3-0.1-0.6-0.1-0.9-0.1c-0.4,0-0.9,0.1-1.3,0.1c-1,0.1-1.8,0.3-2.7,0.4c-3.5,0.8-7.5,2.6-11.3,5.2
			c-3.8,2.6-7.6,6.1-11.2,10.1c-3.5,4.1-6.9,8.8-10.1,14c-1.6,2.6-3.2,5.2-4.6,8c-1.4,2.8-2.8,5.7-4.2,8.7
			c-2.7,5.9-5.2,12.1-7.4,18.6l-0.8,2.4l-0.4,1.2l0,0.1c0-0.1-0.3,0.9-0.2,0.5l0,0.1l-0.1,0.3l-0.1,0.6c-0.4,1.6-0.8,3.3-1.1,4.9
			c-0.3,1.8-0.7,3.5-1,5.3c-0.3,1.8-0.5,3.5-0.8,5.3c-0.8,7.1-0.9,14.2-0.1,21.3c0.3,3.5,1,7,1.8,10.4c0.4,1.7,1,3.3,1.4,5
			c0.6,1.6,1.1,3.2,1.8,4.8c2.6,6.3,6.2,11.9,10.3,16.5c4.1,4.6,9,8.2,13.8,10.6c4.8,2.5,9.7,3.6,14,4c4.3,0.3,8.1-0.1,11-0.8
			c3-0.8,5.1-1.8,6.5-2.5c1.4-0.8,2.1-1.2,2.1-1.2s-0.8,0.3-2.2,1c-1.5,0.6-3.7,1.3-6.6,1.9c-2.9,0.5-6.5,0.7-10.6,0
			c-4.1-0.6-8.6-2.1-12.9-4.6c-4.4-2.5-8.7-6.1-12.3-10.6c-3.7-4.5-6.7-9.9-9-15.8c-2.3-5.9-3.6-12.4-4.1-19
			c-0.5-6.6-0.3-13.4,0.6-20.1c0.3-1.7,0.5-3.4,0.8-5c0.3-1.7,0.7-3.3,1-5c0.4-1.6,0.8-3.3,1.2-4.9c0.2-0.8,0.5-1.6,0.7-2.4l0.8-2.4
			c2.3-6.2,4.7-12.3,7.3-18.1c2.6-5.8,5.4-11.2,8.4-16.2c3-5,6.1-9.5,9.3-13.4c3.2-3.9,6.5-7.2,9.8-9.7c3.3-2.5,6.6-4.1,9.4-4.8
			c2.9-0.8,5.2-0.6,6.8-0.6c1.6,0,2.4,0,2.4,0S398.8,194.4,397.2,193.1z"/>
	</g>
	<path class="st20" d="M264.5,262.5L264.5,262.5c0.6-7,1.4-14,2.6-20.8c0.3-1.7,0.6-3.4,1-5.1c0.4-1.7,0.8-3.4,1.2-5.1
		c0.4-1.7,0.9-3.4,1.4-5.1c0.5-1.7,1.1-3.3,1.7-5c0.6-1.6,1.2-3.3,1.9-4.9c0.7-1.6,1.5-3.2,2.3-4.7c0.9-1.5,1.7-3.1,2.7-4.5
		c0.9-1.5,2.1-2.8,3.2-4.1c1.2-1.3,2.5-2.5,3.9-3.5c1.4-1,2.9-1.9,4.6-2.5c1.6-0.6,3.4-1,5.1-1c1.8-0.1,3.5,0,5.3,0
		c-0.9-1.4-1.8-2.3-2.6-2.9c-0.4-0.3-0.9-0.6-1.3-0.7c-0.4-0.2-0.9-0.3-1.5-0.4c-2.2-0.2-4.5,0.2-6.6,0.8c-2.1,0.7-4.1,1.7-5.9,2.9
		c-1.8,1.2-3.3,2.6-4.7,4.1c-1.3,1.5-2.6,3.1-3.7,4.7c-1.1,1.6-2,3.3-2.9,5c-0.4,0.8-0.8,1.7-1.2,2.6c-0.4,0.9-0.7,1.7-1.1,2.6
		c-0.7,1.7-1.3,3.5-1.8,5.2c-0.6,1.8-1,3.5-1.5,5.3c-0.4,1.8-0.8,3.5-1.2,5.3s-0.7,3.6-0.9,5.3c-0.3,1.8-0.5,3.6-0.7,5.3
		c-0.2,1.8-0.3,3.6-0.4,5.3c-0.1,1.8-0.2,3.6-0.2,5.3c0,1.8,0,3.6,0,5.3c0,1.8,0.2,3.6,0.2,5.3v0.1l0.5,3.1l0.5,3.1L264.5,262.5z"/>
	<g>
		<path class="st17" d="M342,252.1c-0.6-1.5-1.9-2.7-3.7-2.8l-8.1-0.8c-2.1-0.2-4,1.1-4.6,3.2l-2.4,7.9c-0.6,1.9,0.2,3.9,1.6,5
			c0.6,1.5,1.9,2.6,3.6,2.8l8.1,0.9c2.1,0.2,4.1-1.1,4.7-3.2l2.4-8C344.1,255.1,343.4,253.2,342,252.1z M327.5,260.4l1.5-5.1
			c0.4-1.3,1.6-2.2,3-2.1l5.3,0.5c0.4,0,0.7,0.1,1,0.3c0.1,0.5,0.1,1,0,1.5l-1.5,5.2c-0.4,1.4-1.7,2.2-3,2.1l-5.3-0.6
			c-0.4,0-0.7-0.2-1-0.3C327.4,261.4,327.4,260.9,327.5,260.4z"/>
		<g class="st5">
			<path class="st21" d="M326,258.4l1.5-5.1c0.4-1.3,1.6-2.2,3-2.1l5.3,0.5c1.3,0.1,2.2,1.1,2.5,2.3c-0.3-0.2-0.6-0.3-1-0.3
				l-5.3-0.5c-1.4-0.1-2.6,0.7-3,2.1l-1.5,5.1c-0.1,0.5-0.1,1,0,1.5C326.3,261.3,325.6,259.9,326,258.4z"/>
			<path class="st21" d="M343.6,257.1l-2.4,8c-0.6,2.1-2.6,3.4-4.7,3.2l-8.1-0.9c-1.7-0.2-3-1.3-3.6-2.8c0.6,0.4,1.3,0.8,2.1,0.9
				l8.1,0.9c2.1,0.2,4.1-1.1,4.7-3.2l2.4-8c0.3-1,0.2-2.1-0.1-3C343.4,253.2,344.1,255.1,343.6,257.1z"/>
		</g>
	</g>
	<g>
		<path class="st17" d="M262.6,251.5c-0.9-1.4-2.5-2.2-4.2-2l-8.1,0.9c-2.1,0.2-3.7,1.9-3.9,4.1l-0.6,8.2c-0.2,2,1,3.8,2.6,4.5
			c0.9,1.3,2.4,2.2,4.1,2l8.1-0.8c2.1-0.2,3.8-1.9,3.9-4.1l0.6-8.3C265.4,254,264.3,252.2,262.6,251.5z M250.3,262.5l0.4-5.4
			c0.1-1.4,1.1-2.5,2.5-2.7l5.2-0.6c0.4,0,0.7,0,1,0.1c0.2,0.5,0.3,1,0.3,1.5l-0.4,5.4c-0.1,1.4-1.2,2.5-2.5,2.7l-5.3,0.5
			c-0.4,0-0.7,0-1-0.1C250.3,263.6,250.2,263.1,250.3,262.5z"/>
		<g class="st5">
			<path class="st21" d="M248.4,260.9l0.4-5.3c0.1-1.4,1.1-2.5,2.5-2.7l5.2-0.6c1.3-0.2,2.4,0.6,2.9,1.7c-0.3-0.1-0.7-0.1-1-0.1
				l-5.2,0.6c-1.3,0.2-2.4,1.3-2.5,2.7l-0.4,5.4c0,0.5,0.1,1,0.3,1.5C249.2,263.7,248.3,262.4,248.4,260.9z"/>
			<path class="st21" d="M265.2,256l-0.6,8.3c-0.2,2.2-1.8,3.9-3.9,4.1l-8.1,0.8c-1.7,0.2-3.2-0.7-4.1-2c0.7,0.3,1.4,0.5,2.2,0.4
				l8.1-0.8c2.1-0.2,3.8-1.9,3.9-4.1l0.6-8.3c0.1-1.1-0.2-2.1-0.7-2.9C264.3,252.2,265.4,254,265.2,256z"/>
		</g>
	</g>
	<path class="st19" d="M331.5,337c-8.5,4.8-64.1,8.5-71.3,0s-2.8-57.5-2.8-57.5c36.5,5.5,72.8,0,72.8,0S331.5,313,331.5,337z"/>
	<path class="st13" d="M331.5,337c-8.5,4.8-64.1,8.5-71.3,0c-2.9-3.5-3.9-13.8-4.1-24.7c1.2,27.6,30.3,23.4,50.5,17.3
		c20.3-6.1,18.6-49.5,18.6-49.5l0,0c3.2-0.4,5-0.6,5-0.6S331.5,313,331.5,337z"/>
	<g>
		<path class="st7" d="M445.7,334.5c-2.2-0.8-3.6-4.3-1.4-11.6c7.6-19,33.9-27.2,47.2-25.7c13.4,1.4,12.4,10.9,13.4,15.8
			c2.7,2.7,4.9,6.1,0.8,10.9c-11.9-13.7-52.3-0.2-52.3,16.4C453.3,340.2,446.3,339.5,445.7,334.5z"/>
		<path class="st8" d="M453.4,339.5c0-0.2,0-0.5,0.1-0.9c0.1-0.3,0.2-0.7,0.3-1.1c0.2-0.8,0.6-1.8,1.2-2.9c0.6-1.1,1.4-2.2,2.3-3.3
			c1-1.1,2.1-2.2,3.5-3.3c1.3-1.1,2.8-2.1,4.4-3c1.6-0.9,3.3-1.8,5.1-2.6c1.8-0.8,3.6-1.5,5.5-2c1.9-0.6,3.8-1,5.7-1.4
			c1.9-0.3,3.8-0.6,5.7-0.7c1.9-0.1,3.6-0.1,5.3,0c1.7,0.2,3.3,0.4,4.7,0.8c0.3,0.1,0.7,0.2,1,0.3c0.3,0.1,0.7,0.2,1,0.3
			c0.6,0.2,1.2,0.5,1.8,0.7c0.6,0.2,1,0.5,1.5,0.8c0.2,0.1,0.4,0.3,0.6,0.4c0.2,0.2,0.4,0.3,0.5,0.4c0.3,0.3,0.7,0.5,0.9,0.7
			c0.2,0.2,0.4,0.4,0.6,0.6c0.3,0.3,0.5,0.5,0.5,0.5c0,0,0.2-0.5,0.4-1.4c0.2-0.9,0.3-2.1,0-3.6c-0.1-0.4-0.2-0.7-0.3-1.1
			c-0.1-0.3-0.3-0.7-0.5-1.1c-0.4-0.7-0.9-1.5-1.4-2.1c-0.6-0.7-1.3-1.3-2.1-1.8c-0.4-0.2-0.8-0.4-1.3-0.6c-0.5-0.1-0.9-0.2-1.4-0.3
			c-2-0.2-4.1,0.4-6.1,0.3c-2,0-4.1,0-6.2,0.1c-1.1,0-2.1,0.1-3.2,0.3c-1.1,0.1-2.1,0.3-3.2,0.6c-2.1,0.5-4.2,1.3-6.2,2.3
			c-2,0.9-3.9,1.9-5.8,3c-1.8,1.1-3.6,2.3-5.2,3.5c-1.6,1.3-3,2.6-4.3,4c-1.3,1.4-2.3,2.8-3.2,4.1c-0.9,1.4-1.5,2.8-1.9,4
			c-0.4,1.3-0.6,2.4-0.7,3.3c0,0.5,0,0.9,0,1.2c0.1,0.3,0.1,0.6,0.1,0.9c0.1,0.5,0.1,0.7,0.1,0.7S453.4,340,453.4,339.5z"/>
	</g>
	<g>
		<g>
			<path class="st22" d="M331.5,196c-15.4,0-31.2,0.1-31.2,4.5s5.6,10,21.1,10c15.4,0,34.8-5.6,34.8-10S346.9,195.9,331.5,196z"/>
			<path class="st22" d="M331.5,130.4c-15.4,0-31.2,0.1-31.2,4.5s5.6,10,21.1,10c15.4,0,34.8-5.6,34.8-10S346.9,130.4,331.5,130.4z"
				/>
			<path class="st22" d="M356.1,200.5h-55.8c5.5-24,0-65.6,0-65.6h55.8C356.1,134.9,351.2,165,356.1,200.5L356.1,200.5z"/>
		</g>
	</g>
	<g>
		<path class="st7" d="M171.9,287.5c2-0.7,20.5,4.8,33,24c12.5,19.2,5.8,39.2,2.4,41.1c-3.4,1.9-4.3,4.7-6.9,7.7s-8.3,5.7-12.2,0
			c7.1-5,8.9-25.2,3.3-41c-5.7-15.8-21.8-24.9-21.8-24.9S170,288.2,171.9,287.5z"/>
		<path class="st8" d="M172.4,296.2c0.9,0.6,1.9,1.3,3,2.3c1.2,0.9,2.4,2,3.7,3.2c0.7,0.6,1.3,1.3,2,2c0.7,0.7,1.4,1.4,2,2.2
			c1.4,1.5,2.7,3.3,4,5.1c0.6,0.9,1.2,1.9,1.8,2.9c0.5,1,1.1,2.1,1.5,3.1c0.9,2.2,1.7,4.4,2.3,6.8l0.5,1.7l0.4,1.8
			c0.3,1.2,0.4,2.3,0.6,3.5c0.3,2.3,0.5,4.7,0.6,6.9c0,1.1,0,2.2,0,3.3c-0.1,1.1-0.1,2.1-0.2,3.2c-0.2,2-0.5,4-0.9,5.7
			c-0.4,1.8-0.9,3.3-1.5,4.7c-0.5,1.4-1.2,2.5-1.8,3.3c-0.3,0.4-0.6,0.8-0.9,1.1c-0.3,0.3-0.5,0.5-0.8,0.7c-0.4,0.4-0.6,0.6-0.6,0.6
			s0.1,0,0.3,0.1c0.2,0.1,0.6,0.1,1,0.1c0.9,0.1,2.1-0.1,3.5-0.8c1.3-0.6,2.7-1.8,3.8-3.3c0.6-0.8,0.9-1.6,1.4-2.5
			c0.4-0.9,0.7-1.8,1.1-2.8c0.7-2,1.2-4.1,1.6-6.4c0.2-1.1,0.3-2.3,0.4-3.5c0.1-1.2,0.1-2.4,0.1-3.7c0-2.5-0.2-5.1-0.6-7.7
			c-0.2-1.3-0.4-2.6-0.8-3.9l-0.5-1.9l-0.6-2c-0.2-0.7-0.4-1.4-0.7-2l-0.7-1.7l-0.3-0.8l0-0.1l-0.1-0.2l0-0.1L197,317l-0.2-0.5
			c-0.3-0.6-0.6-1.2-0.9-1.9c-0.6-1.2-1.4-2.3-2.1-3.5c-0.8-1.1-1.5-2.1-2.4-3.1c-1.7-1.9-3.3-3.7-5.1-5.1c-0.9-0.7-1.7-1.4-2.6-2
			c-0.4-0.3-0.8-0.6-1.2-0.9c-0.4-0.3-0.9-0.5-1.3-0.8c-1.6-1-3.2-1.9-4.6-2.5c-1.4-0.7-2.7-1.2-3.7-1.5c-1-0.4-1.9-0.6-2.5-0.7
			c-0.6-0.1-0.9-0.2-0.9-0.2S170.7,295,172.4,296.2z"/>
	</g>
	<g>
		<path class="st13" d="M380.2,465.1c0,0,9.8,28.8,16.3,60.4c-3.1,8.2-10.6,9.3-15.9,8.8c-3.4-0.3-6.3-2.6-7.3-5.8l-14.5-47.7
			l4.1-1.8l1.7-12.2C371.2,468.8,380.2,465.1,380.2,465.1z"/>
		<path class="st16" d="M384.2,454.7l21.4,4.6c0,0,0,24.4,0,42.1c0,17.7-17.2,27.6-17.2,27.6l-11.3-2l-12.3-60.3
			C377.6,466.2,384.2,454.7,384.2,454.7z"/>
		<polygon class="st13" points="377.1,527 388.4,529 388.1,477.1 364.8,466.7 		"/>
		<path class="st23" d="M388.2,477.1c-7.7-2.9-23.4-10.4-23.4-10.4c12.8-0.5,19.4-12,19.4-12l21.4,4.6
			C405.6,459.3,399.8,473.8,388.2,477.1z"/>
		<path class="st24" d="M387.7,475.2l-17.3-8.3c9-1.6,14.8-10.1,14.8-10.1l17.1,3.9C398.1,472.8,387.8,475.2,387.7,475.2z"/>
	</g>
	<g>
		<path class="st10" d="M294.1,135.9c-35.4,0-27.3-78.2-20.7-85.8S309.2,33,325.8,33s36,9.5,45.5,26s6.2,31.4,0.6,45.2
			c-5.5,13.8-5.9,19.4-26.1,28.1C338.6,135.4,329.5,135.9,294.1,135.9z"/>
		<g>
			<path class="st10" d="M326.9,121.6c-13.3,2-35.5,12.7-30.5,27.3c5.1,14.7,5.3,44.4,5.3,48.7s3.6,11.8,13.3,11.8
				c21.6,0,42.6-7.6,43.4-9.8c0.8-2.2-2.4-4.1-2.4-30.2c0-18.4,0.9-35.7,3.8-44.8C363.9,111.6,340.2,119.6,326.9,121.6z"/>
			<path class="st11" d="M319,209.5c-1.3,0.1-2.7,0.1-4,0.1c-9.7,0-13.3-7.5-13.3-11.8s-0.2-34.1-5.3-48.7
				c-5.1-14.7,17.2-25.3,30.4-27.3c13.3-2,37-10,32.9,3c-2.2,7-3.3,18.7-3.6,32.1c-4.1,11.1-12.9,26.3-19.2,35.8
				C332.7,198.9,326,206.1,319,209.5z"/>
		</g>
		<path class="st10" d="M275,166.2c-5.4-2.7-9.4-15.8-12.6-33.4c-3.2-17.6-2.6-19.6-0.7-26s-0.9-18.7-0.9-18.7s0.4-26.5,12.6-38
			c31.6-14.4,65.7,1.2,76.5,18.9c10.8,17.6,1,36.6,1,36.6s-4.8,30.7-7.6,39.1s-14,11.7-27,18.1c-12.9,6.4-14.1,6.4-28.7,6.4
			C287.7,169.2,280.4,168.9,275,166.2z"/>
		<g>
			<g>
				<g>
					<path id="SVGID_17_" class="st6" d="M269.3,92.4c-3.1-0.1-5.2,1.9-5.2,1.9s-0.1,0.7-0.1,8.7c4,0.5,7.9,0.6,10.3-0.2
						c0.5-1.5,0.7-6.4-0.5-9.7C273.7,93,272.3,92.5,269.3,92.4z"/>
				</g>
				<g>
					<defs>
						<path id="SVGID_6_" d="M269.3,92.4c-3.1-0.1-5.2,1.9-5.2,1.9s-0.1,0.7-0.1,8.7c4,0.5,7.9,0.6,10.3-0.2
							c0.5-1.5,0.7-6.4-0.5-9.7C273.7,93,272.3,92.5,269.3,92.4z"/>
					</defs>
					<clipPath id="SVGID_7_">
						<use xlink:href="#SVGID_6_"  style="overflow:visible;"/>
					</clipPath>
					<g class="st25">
						<path class="st26" d="M269.1,93c2.7-0.4,5.3,0.5,5,4.5c-0.3,4.4-1.7,4.8-4.9,5.2c-2.7,0.3-5.6-0.5-5.1-5.2
							C264.4,94.8,266.1,93.4,269.1,93z"/>
						<circle class="st27" cx="271.4" cy="97.9" r="3.6"/>
					</g>
				</g>
			</g>
			<path class="st26" d="M270.8,93.3c0.8,0,1.5,0.6,1.5,1.4c0,0.8-0.6,1.4-1.5,1.4s-1.5-0.6-1.5-1.4C269.3,94,270,93.3,270.8,93.3z"
				/>
			<path class="st20" d="M263.8,102.9l-0.5,0.1c0,0,2.1,1.5,7,1.1s4.5-2.2,4.7-3.1C272.6,104.1,263.8,102.9,263.8,102.9z"/>
			<path class="st27" d="M264,94.2c1.3-2.4,3.9-3.2,6.9-3.8c0.6,1.8,2.8,2.5,2.8,2.5C269.9,92.1,266.7,92.5,264,94.2z"/>
		</g>
		<path class="st11" d="M321.5,73.2c-1.1-5-7.7-7-8.1-7.8c-0.4-0.7,0.1-2.9,4.9-3c-1.2-1.6-5.4-3.2-9-3.2c0.7-1.3,1.8-2.2,4.6-3.2
			c-11-0.7-12.5,9.2-17.6,11.1c-5.1,1.9-13.6,1.6-12.2-0.2c-5.6,1.4-18.7,2.6-17.6-0.8c3.8-9.1,28.8-18.4,46.2-20.3
			c17.4-1.9,27.3,14.6,35.8,29.3c8.5,14.6,3.4,29.7-5.7,52.9c-9.2,23.1-39.1,23.6-59.9,23.6c-20.7,0-24.7-21.4-21.7-26.4
			c3-5,4.8-8.5,14.2-7.7c9.3,0.8,15.1-5.5,17-4c1.9,1.5,3.4,3.8,7.2,4.4c3.9,0.6,14.2,11.9,15.6,8.4s-4-2.7,0.2-7.7
			c4.3-5,15.8-6.1,17.7-15.2c1.9-9.1-1.1-9.8-4.4-14.4C321.1,78.2,322.7,78.3,321.5,73.2z"/>
		<path class="st16" d="M295.2,66.4c5.3,1.2,18.5,5.6,18.5,5.6s3.3,7.3-0.6,11.1c-14.5-8.1-18.6-3.9-24.6-2.3
			C286,73.5,286,68,286,68S290,65.2,295.2,66.4z"/>
		<path class="st16" d="M267.7,71.6c-1.3,0-8.3,5.1-10.5,9.1c-0.4,3.6,0.4,6.9,0.4,6.9s1.1,1.3,3.3,1.6c4.3-6,13.4-3.7,13.4-3.7
			c-0.6-2.2-3.8-6.2-2-11.7C272.4,73.7,269.1,71.6,267.7,71.6z"/>
		<g>
			<path class="st10" d="M289.1,110.9l1.8-16.4c0,0-3.9-1.4-2.5-10.2c-10.4,4.8-14,1.1-14,1.1s1.5,4.1,1.3,7
				c-0.3,2.9-5.9,18.7-7.9,22.7c-1.9,4,1.6,5.3,4.5,7.9c2.9,2.6,4.8,1.4,10.2,0c5.4-1.4,10.5-1,10.9-3.6
				C294.3,112.6,289.1,110.9,289.1,110.9z"/>
			<path class="st20" d="M267.8,115.2c0.1,0.8-0.4,1.8,0.8,2.8c2.1,1.7,7.1,0.6,10.9,0c3.8-0.5,7.9,0.1,10.6-0.2
				c2.6-0.3,1.6-4.3,0.5-6.2l0,0c1.4,1,3.4,3.3,2.8,7.8c-0.4,2.6-5.5,2.2-10.9,3.6c-5.4,1.4-7.2,2.5-10.2,0
				C269.4,120.5,265.9,119.2,267.8,115.2z"/>
			<path class="st23" d="M282.3,91.6c-1.6,1.3-2.8,1.1-4,7.4c-1.2,6.3-2.9,9.2-3.7,12.3c-0.8,3.4,0.2,6.7-2.8,6.8
				c-2.1,0.1-4-0.1-4-3.1c2-4.2,7.6-19.7,7.8-22.6c0,0,0.3-1,1.5-1c-0.4-1.4-0.1-2.9-0.1-2.9C277.8,91.2,280,91.6,282.3,91.6z"/>
			<path class="st23" d="M277.3,101.7c-0.1,2.9-1.3,6.6-4.4,7.8c3.6-3.9,3.8-10.6,4.3-13.3C277.2,96.2,277.4,98.8,277.3,101.7z"/>
		</g>
		<path class="st16" d="M267.4,119.9c-1.8-0.1-11,8.1-11,8.1l-1.3,10.7l2.1,13.5l4.2,5.1l-3,11.7l7.8,7.5l40.3,2.9l39-20.9l8.7-9.3
			c0,0-5.5-16.8-5.5-24.6c3.9,2.9,8.5,14.7,8.5,14.7s3.5-0.8,4.3-3.6c0.1-5.9,4.6-10.7,9.1-17.1c4.4-6.4,7-20.9,11.4-30.8
			s-2.3-23.4-7.5-32c-5.2-8.5-0.5-24.2-42-27.5c-25.2-2-48.4,12.1-57.4,17.9c-9,5.7-7.7,4.6-14.5,3.7s-6.2,5.1-6.2,5.1
			c-1.9-2.7-5.8-3.6-6.9-1.4s0.2,10.2,10.9,12.4c10.7,2.2,27.8-4.2,32.9-8.5c-1.7,3.2-6.2,6.1-9,7.3c4.8,1.7,11.5,0.9,20.2-6.2
			c8.7-7.1,18-1.1,18-1.1s-8.8-1.2-10,1c9.4,0,13,7.2,13,7.2s-8.1-2.7-9.1-0.6c16.5,4,15.6,11.1,15.6,11.1l8.4,14.4l-5.1,32.8
			l-17.9,8.9c0,0-12.4-12.5-16.1-13.3c-3.7-0.8-17.8,4.4-23.9,4.4C271.7,123.4,269.3,120,267.4,119.9z"/>
		<polygon class="st28" points="333.4,123.4 315.5,132.3 335.6,125.4 337.2,127.9 341.3,97 338.4,90.7 		"/>
		<polygon class="st28" points="277.6,146.9 266.9,165.1 273.8,146.9 		"/>
		<path class="st10" d="M349.2,116.5l3.4-27.7c0,0,5.5-4.5,9-2.3c3.5,2.2,7.4,5,3.5,15.8c-3.9,10.7-6.9,15.1-14.2,15.1
			C349.6,117.2,349.2,116.5,349.2,116.5z"/>
		<path class="st11" d="M365.2,90.5c0.3,0.1,0.6,0.3,0.8,0.4c1,2.3,1,5.7-1,11.2c-3.9,10.7-6.9,15.1-14.2,15.1
			c-1.3,0-1.7-0.7-1.7-0.7l3-23.8C355,91.4,361.6,88.8,365.2,90.5z"/>
		<path class="st11" d="M325.4,137.5l-3.7,8.1l-13.5,3.3l-8.6-1l2.1,13.1c-0.4-1.2-0.9-2.3-1.4-3.4c-0.7-1.8-1.7-1.5-2-3.3
			c-0.3-2.7-0.9-5.4-1.6-8.1c-0.5-2-0.9-4.1-1.9-5.9c-0.2-0.3-0.4-1-0.8-1.2c-0.3-0.2-1-0.2-1.4-0.3c-1.1-0.2-2.2-0.3-3.3-0.5
			c-3.6-0.5-7.2-0.7-10.8-0.6c-2.4,0-4.7,0.2-7,0.6c-0.2,0-2.4,0.3-2.4,0.5c0,0-0.8,2-2,4.6c-2.3,5.5-5.9,13.8-5.9,13.8l-4.2-5.1
			l2.9,1.3l2.4-2.4l0,0l2.5-14.5l3.2-2.1l1.6-2.1l-0.2,1.4l4.4-0.8l0.8-2l1.1,1.8l3.7,0.2l-0.4-3.1l1.8,2.9l7.2,0.7l-0.9-3.3l2,3.1
			l9.6,3.1l0.3,3.4l8.1,4.5l13-0.8L325.4,137.5z"/>
		<g>
			<g>
				<g>
					<path id="SVGID_19_" class="st6" d="M300.9,91.6c3.1,0,6.4,1.8,6.4,1.8s1.9,1.6,1.9,9.6c-4,0.5-10.4,0.6-12.8-0.2
						c-0.5-1.5-0.7-6.4,0.5-9.7C296.9,93,297.8,91.6,300.9,91.6z"/>
				</g>
				<g>
					<defs>
						<path id="SVGID_8_" d="M300.9,91.6c3.1,0,6.4,1.8,6.4,1.8s1.9,1.6,1.9,9.6c-4,0.5-10.4,0.6-12.8-0.2c-0.5-1.5-0.7-6.4,0.5-9.7
							C296.9,93,297.8,91.6,300.9,91.6z"/>
					</defs>
					<clipPath id="SVGID_9_">
						<use xlink:href="#SVGID_8_"  style="overflow:visible;"/>
					</clipPath>
					<path class="st29" d="M302.3,92.9c-3.1-0.4-6.1,0.5-5.8,4.5c0.3,4.4,2,4.8,5.6,5.2c3.2,0.3,6.4-0.5,5.9-5.2
						C307.7,94.8,305.7,93.3,302.3,92.9z"/>
				</g>
				<g>
					<defs>
						<path id="SVGID_10_" d="M300.9,91.6c3.1,0,6.4,1.8,6.4,1.8s1.9,1.6,1.9,9.6c-4,0.5-10.4,0.6-12.8-0.2
							c-0.5-1.5-0.7-6.4,0.5-9.7C296.9,93,297.8,91.6,300.9,91.6z"/>
					</defs>
					<clipPath id="SVGID_11_">
						<use xlink:href="#SVGID_10_"  style="overflow:visible;"/>
					</clipPath>
					<path class="st30" d="M303.5,94.2c-2,0-3.6,1.6-3.6,3.6c0,2,1.6,3.6,3.6,3.6s3.6-1.6,3.6-3.6S305.5,94.2,303.5,94.2z"/>
				</g>
			</g>
			<path class="st27" d="M296.9,93l-3.3-2.1c0,0,9.3-1,13.7,2.4C299.4,91.2,296.9,93,296.9,93z"/>
			<path class="st26" d="M304.4,93.3c-0.8,0-1.4,0.6-1.4,1.4c0,0.8,0.6,1.4,1.4,1.4c0.8,0,1.5-0.6,1.5-1.4
				C305.9,94,305.2,93.3,304.4,93.3z"/>
			<path class="st20" d="M297.1,102.5c0.9,1.2,12.1,0.4,12.1,0.4l2.4,0.2c0,0-6.8,1.3-12.6,1c-5.8-0.4-5.5-3.1-5.5-3.1
				s0.7,1,1.6,1.3c0.1-1.3,0.9-4.9,0.9-4.9S296.1,101.4,297.1,102.5z"/>
		</g>
		<g>
			<path class="st11" d="M294.2,139.1c2.3,1.7-1.6,4.6-1.6,4.6l-6.5,3l-12.3,0.2l-3.8-2.8C270,144.1,289.4,139.5,294.2,139.1z"/>
			<g>
				<path class="st10" d="M290.1,138.2c-1.4-0.2-8.7-0.8-13.1-0.8s-7.3,0.8-7.8,1.4c-0.5,0.6-1.2,2.9-1.2,2.9s1,2.5,2,2.5
					c2.2,0,11.4,0.4,18.1-0.5c6.6-0.8,6.1-4.5,6.1-4.5C294.2,138.3,291.6,138.3,290.1,138.2z"/>
				<path class="st11" d="M268,141.7c1.4,1.7,3.5,0.9,5.9,0.6c2.4-0.2,12.6,1,13.1-0.3c0.5-1.3,1.3-3.7-0.3-4.1
					c1.7,0.1,3,0.2,3.5,0.3c1.4,0.1,4,0.1,4,1c0,0,0.6,3.7-6.1,4.5c-6.6,0.8-15.9,0.5-18.1,0.5C269,144.1,268,141.7,268,141.7z"/>
			</g>
		</g>
	</g>
	<g>
		<path class="st31" d="M267.5,829.5l3.3,5.4l-4.8,24.5h30.2l-0.8-22l4.2-6.6c0,0-4.8-4.7-15.5-4.7
			C270.5,826.2,267.5,829.5,267.5,829.5z"/>
		<path class="st31" d="M232.8,859.5l2.1-8.3l4.4-3l6.9,1.7c0,0,17-7,26.9-7c23.3,0,26.5,16.6,26.5,16.6H232.8z"/>
		<polygon class="st32" points="232.8,859.5 231.2,868 300.7,868 299.6,859.5 		"/>
		<path class="st11" d="M288.4,859.5h-8.8c-3.3-11-11.4-15.1-17.1-15l0,0c3.7-0.9,7.5-1.6,10.5-1.6C273.1,842.8,286,845,288.4,859.5
			z"/>
		<path class="st11" d="M271.7,859.5h-11.4c0,0,0.6-7.4-6-12.7c2-0.7,4.2-1.3,6.4-1.9C269,847.3,271.7,859.5,271.7,859.5z"/>
		<path class="st11" d="M284.1,826.2c10.7,0,15.5,4.7,15.5,4.7l-4.2,6.6c0,0-7.9-8.6-24.6-2.6l-3.3-5.4
			C267.5,829.5,270.5,826.2,284.1,826.2z"/>
		<path class="st23" d="M238.7,854.2l-1.1,5.3h-4.9l2.1-8.3l4.4-3l6.9,1.7c0,0,17-7,26.9-7c8.8,0,14.8,2.4,18.8,5.4
			c-11.8-4.3-21.5-2.6-39.3,3.3c3.1,0.9,3.8,4.3,3.8,4.3l-14.8-3.1L238.7,854.2z"/>
	</g>
	<g>
		<path class="st31" d="M462.9,829.5l-3.3,5.4l4.8,24.5h-30.2l0.8-22l-4.2-6.6c0,0,4.8-4.7,15.5-4.7
			C459.9,826.2,462.9,829.5,462.9,829.5z"/>
		<path class="st31" d="M470.4,859.5l-1.4-8.3l-2.9-3c0,0-15.6-5.3-22-5.3c-15.2,0-17.3,16.6-17.3,16.6H470.4z"/>
		<path class="st23" d="M427.7,856.2c1.5-4.8,5.6-13.4,16.5-13.4c6.5,0,22,5.3,22,5.3l2.9,3c0,0-16.4-2.4-23.8-2.4
			C435.3,848.8,430.2,852.8,427.7,856.2z"/>
		<polygon class="st32" points="470.4,859.5 471.4,868 425.9,868 426.6,859.5 		"/>
		<path class="st11" d="M446.2,826.2c-10.7,0-15.5,4.7-15.5,4.7l4.2,6.6c0,0,7.9-8.6,24.6-2.6l3.3-5.4
			C462.9,829.5,459.9,826.2,446.2,826.2z"/>
	</g>
	<g>
		<path class="st7" d="M377.8,105.9c0.9-3.9,12.2-18.8,11.6-35.4s-10.4-23.2-18.8-34.4s-30.8-16.6-53-16.6c-22.2,0-35,19-41.2,23
			s-4.8,5.9-4.8,5.9l1.4-0.8c5.3-2.8,35.7-4.9,61.5,9.4c19.7,10.9,38.7,27.5,40.3,52.6C374.7,109.5,376.9,109.7,377.8,105.9z"/>
		<path class="st28" d="M317.5,19.5c12,0,24.1,1.6,33.9,4.8c3.6,7.6,3.3,10.6-3,18.4c-6.3,7.8-7.1,12-7.1,12s-33.6-19.8-65-12.2
			C282.6,38.5,295.3,19.5,317.5,19.5z"/>
		<path class="st7" d="M338.7,59.4c-41.1-22.5-67.2-11-67.2-11s-23.8-21.3-21.4-28.5s21.7-20.6,45.6-14.2
			c23.9,6.4,24.3,24.1,45.6,48.9C341.3,54.7,342.3,60.8,338.7,59.4z"/>
		<path class="st11" d="M377.6,106.4c-1,3.2-2.9,3-2.9,3c-1.5-23.2-17.9-39.2-36-50.1c-11.9-6.5-22.6-10.2-31.7-12.1
			c-7.2-1.4-14-1.8-19.6-1.8c-10.2,0.4-15.9,2.9-15.9,2.9s-0.1-0.1-0.1-0.2c-1.3-2.9-23.6-21.3-21.3-28.2c0.1-0.4,0.3-0.9,0.5-1.3
			c4.6-5.4,21.5-12.6,41.3-7.1c22.8,6.3,26.5,19.1,45.1,43.2c4.3,4.2,10.6,7.3,17.2,12.9c6.6,5.6,11.3,9.1,16.3,18.6
			C374.6,94,377.7,101.6,377.6,106.4z"/>
	</g>
	<path class="st13" d="M370.8,367c-0.7,0.3-1.2,0.4-1.5,0.4c0.3,0.2,0.6,0.5,1,0.9c1.8,2.2,6.6,3,9.4,3.6c0.8,0.2,0.6,1.5-0.2,1.5
		c-8.5,0.1-7.5,15.6-8.1,21.1c-0.6,5.8-1.3,11.5-1.9,17.3c-0.6,5.5-1.3,11-1.6,16.5c-0.4,5.9,0.3,11.6,0.4,17.4c0,1.4-2,1.6-2.4,0.3
		c-1.9-7-1-15-0.2-22.1c0.8-8.3,2-16.6,3.1-24.8c0.9-7,0.8-15.1,3-21.8c0.8-2.5,2.4-4.1,4.6-4.9c-3.6-1.3-6.8-3-10-5.4
		c-0.4-0.3-0.4-1.1,0.3-1.1c6.4,0.3,12-1,17.5-4.3c0.2-0.1,0.4,0.2,0.2,0.3c-1.8,1.2-3.5,2.2-5.5,3C376.3,366,373.3,366,370.8,367z"
		/>
	<g>
		<g>
			<path class="st10" d="M483.5,479.8c-0.9,1.4,0.1,2.9,0.7,5.2c0.6,2.4-0.3,5.7,0.5,7.4c0.8,1.7,4.7,2,5.5,0c0.8-2-1.1-6.6-1.2-9.5
				s0.4-4.3-1.3-4.9C485.8,477.3,484.5,478.3,483.5,479.8z"/>
			<path class="st10" d="M487.4,489.9c-2-0.1-2.9,1.7-2.5,3s-0.4,4.2-0.7,5.9c-0.3,1.7,0.3,3.4,2.5,3.5c2.2,0,2.6-1.3,2.6-2.7
				c0.1-1.4,0.3-4.5,0.9-6.9C490.6,490.4,489.4,490,487.4,489.9z"/>
			<path class="st10" d="M485.2,499.7c-1.6,0.3-1.5,1.4-2.2,2.5c-0.7,1.1-1,1.9-1.1,2.3c-0.1,0.5,0.1,0.9,0.7,2
				c0.6,1.2,2.4,1.3,3.6,1.1c1.2-0.2,1.3-1,1.5-2.3c0.3-1.3,0.2-2.3,0.9-3.9C489.2,500,486.8,499.3,485.2,499.7z"/>
			<path class="st33" d="M486.9,506.9c-1.4-0.8-3.1-0.7-3.1-0.7s0.5-1.9,1-3.2c0.4-0.3,2.6,0.1,2.8,0.9
				C487.5,503.9,487.2,505.7,486.9,506.9z"/>
		</g>
		<path class="st10" d="M460.9,485c0,0,24.4-1.4,27-6.1c-1.6-3.6-10.9-13.9-15.8-19.2c-2-2.2-5-3.4-8-3.1c-3.2,0.3-7.1,0.9-9.8,2.7
			C452.4,475.3,460.9,485,460.9,485z"/>
		<g>
			<path class="st10" d="M478.6,480c-1,1.6,0.1,3.3,0.8,6s-0.4,6.5,0.6,8.4c1,2,5.4,2.3,6.2,0c0.9-2.3-1.3-7.5-1.3-10.8
				c-0.1-3.3,0.5-4.9-1.5-5.6C481.2,477.2,479.7,478.4,478.6,480z"/>
			<path class="st10" d="M483,491.6c-2.3-0.1-3.3,1.9-2.9,3.4c0.4,1.5-0.5,4.8-0.8,6.8c-0.4,2,0.3,3.9,2.8,3.9c2.5,0,2.9-1.5,3-3.1
				c0.1-1.6,0.4-5.1,1-7.9C486.7,492.1,485.3,491.7,483,491.6z"/>
			<path class="st10" d="M480.5,502.7c-1.8,0.4-1.7,1.6-2.5,2.9c-0.8,1.3-1.1,2.1-1.2,2.6c-0.1,0.5,0.1,1,0.8,2.3s2.7,1.5,4.1,1.2
				c1.4-0.3,1.4-1.1,1.7-2.6c0.3-1.5,0.3-2.6,1-4.4C485.1,503.1,482.4,502.3,480.5,502.7z"/>
			<path class="st33" d="M482.4,510.9c-1.5-0.9-3.5-0.8-3.5-0.8s0.5-2.1,1.1-3.6c0.4-0.4,3,0.2,3.2,1
				C483.2,507.6,482.8,509.6,482.4,510.9z"/>
			<path class="st33" d="M485.1,502.4c0.1-0.9,0.1-1.8,0.2-2.6s0.2-1.8,0.3-2.6l0.2-1.3c0.1-0.4,0.2-0.9,0.3-1.3l0,0
				c0.2-0.3,0.2-0.7,0.3-1c0-0.4,0-0.7,0-1.1c0-0.7-0.2-1.4-0.3-2.1c-0.3-1.4-0.6-2.8-0.9-4.3c-0.1-0.7-0.3-1.4-0.3-2.1
				c0-0.7,0-1.5,0-2.2c0-0.7,0-1.5-0.1-2.2c-0.1-0.4-0.2-0.7-0.5-1c-0.3-0.3-0.6-0.4-0.9-0.5c0.2,0.5,0.3,0.9,0.2,1.2
				s-0.2,0.4-0.3,0.6c-0.2,0.4-0.3,1.1-0.4,1.8l-0.2,1.1c-0.1,0.4-0.1,0.7-0.1,1.2c0,0.5,0,0.9,0,1.3c0,0.4,0.1,0.8,0.1,1.2
				c0.1,0.8,0.3,1.5,0.5,2.2c0.2,0.7,0.4,1.4,0.6,2c0.1,0.3,0.2,0.6,0.3,1c0.1,0.3,0.2,0.6,0.2,0.9c0.1,0.3,0.1,0.6,0.1,0.7
				c0,0,0,0,0,0.1c0,0,0,0,0,0l0,0.1l0,0.3l0,0.1l0,0c0,0.1,0.1-0.2,0.1-0.1l0,0l0,0l0,0v0l-0.1,0.5l0,0.3l0,0.4l-0.1,0.7
				c0,0.5,0,0.9,0,1.4c0,0.9,0,1.8,0.1,2.7c0,0.9,0.1,1.8,0.3,2.7c0.1,0.5,0.1,0.9,0.1,1.3c0,0.4,0,0.8-0.2,1.3
				C485,504.2,485.1,503.3,485.1,502.4z"/>
		</g>
		<path class="st10" d="M461.2,473.5c0.6-5.1-4.1-13.1-6.9-14.3c-2.1,4-5.8,6.9-8.4,8.1c-2.6,1.2-4.3,0.5-4.9,2.9
			c-1.2,4.8-2.8,6.8-4.8,7.7s-2.3,1.9-2.3,1.9s-4.4,0.9-6.2,0.5c-1.6,1.7-1,5.8,1.9,7.6c2.9,1.8,9.8,1.9,11.9,0.7
			c2.1-1.2,3.1-3.3,4-7.8c1.6-3.5,7.8-3.6,12.3-0.6C459.4,481.1,460.6,478.6,461.2,473.5z"/>
		<path class="st33" d="M428.7,480.4c1.3,0.7,3.1,4,3.1,4s3.4-0.3,4.9-0.9c0-0.5-1.5-2.9-2.8-3.7
			C433.9,479.8,430.7,480.3,428.7,480.4z"/>
		<g>
			<path class="st10" d="M470.2,481.7c0.5,2,3.5,6.4,4.2,9.8c1.4,6.9,1,7.6,4.1,7.9c3.1,0.2,4.4-0.3,4.3-2.6
				c-0.2-2.4-2.1-8.3-2.3-11.7c-0.2-3.4,0.7-6.3-1.6-7.1C472.8,475.9,469.6,479.7,470.2,481.7z"/>
			<path class="st10" d="M478.7,494.5c-2.5,0.3-3.4,2.6-2.7,4.2s0.2,5.4,0.1,7.6s0.9,4.2,3.7,3.9c2.8-0.3,3-2,2.8-3.8
				c-0.1-1.8-0.4-5.7-0.1-8.9C482.9,494.5,481.3,494.2,478.7,494.5z"/>
			<path class="st10" d="M478,507.2c-1.8,0.9-1.4,2.3-1.8,3.8c-0.5,1.6-0.6,2.6-0.5,3.2c0.1,0.6,0.4,1.1,1.5,2.3
				c1.1,1.2,3.3,0.8,4.8,0.1s1.2-1.6,1.1-3.3c-0.1-1.7-0.5-2.8-0.2-5C483.1,506.3,479.8,506.3,478,507.2z"/>
			<path class="st33" d="M482.4,515.5c-1.9-0.5-4,0.2-4,0.2s0-2.5,0.1-4.2c0.4-0.5,3.3-0.7,3.7,0.2
				C482.2,511.7,482.4,514,482.4,515.5z"/>
			<path class="st33" d="M482.8,507.6L482.8,507.6c0-0.8,0-1.6-0.1-2.4c0-0.8-0.1-1.6-0.1-2.4c-0.1-1.6-0.1-3.2,0-4.7l0,0
				c0.3-0.8,0.1-1.8,0-2.6c-0.2-0.9-0.4-1.7-0.6-2.6c-0.4-1.7-0.8-3.4-1.2-5.1c-0.2-0.9-0.3-1.7-0.4-2.6c-0.1-0.9-0.1-1.8,0-2.6
				c0-0.9,0.1-1.8-0.1-2.6c-0.1-0.4-0.2-0.9-0.4-1.2c-0.3-0.4-0.6-0.6-1.1-0.8c0.3,0.6,0.3,1,0.2,1.4c-0.1,0.3-0.2,0.6-0.3,0.9
				c-0.2,0.6-0.3,1.4-0.5,2.3c-0.1,0.4-0.2,0.9-0.2,1.4l0,0.8l0,0.3c0,0.1,0,0.1,0,0.2v0.2c0,1,0.2,2,0.3,2.9
				c0.1,0.9,0.4,1.8,0.7,2.6c0.2,0.9,0.5,1.7,0.8,2.5l0.8,2.4l0.1,0.5l0.1,0.3l0,0.2c0-0.1,0,0,0,0c0.1,0.3,0.1,0.5,0.1,0.6
				l-0.1,0.5c0,0.8,0.1,1.7,0.3,2.5c0.1,0.8,0.2,1.6,0.4,2.4c0.1,0.8,0.3,1.6,0.5,2.4c0.1,0.4,0.2,0.8,0.3,1.2
				c0.1,0.4,0.1,0.7,0.3,1.1l0,0.1c0.1,0.2,0.2,0.4,0.3,0.7C482.8,508.1,482.8,507.9,482.8,507.6z"/>
		</g>
		<g>
			<path class="st10" d="M465.1,479.6c2.9-0.6,5.8,0.9,5.9,3.2c0.1,2.3,0.4,3.8,1.4,8c1,4.2,1.2,2.9,2.3,6.5
				c1.1,3.5-6.6,6.1-8.1,1.8c-1.4-4.3-2.2-7.7-5.7-14.1C458.8,481.1,462.3,480.2,465.1,479.6z"/>
			<path class="st10" d="M474.8,498.6c-0.3,1.9,0.3,5.1,1.2,7.7s-0.1,4.1-2.9,4.1c-2.8,0.1-3.4-0.8-3.7-3.1
				c-0.1-1.1-0.6-4.4-1.9-6.5c-1.3-2.1,0-4.9,3.8-5.3C473.9,495.3,475.1,496.8,474.8,498.6z"/>
			<path class="st10" d="M471.2,517.5c3,1.1,4.6,0,5.1-0.8c0.5-0.8,0.2-1.4-0.2-3.4c-0.4-2.1-0.3-2.8,0.1-3.4
				c0.4-0.6,0.1-3.6-2.6-3.9s-4.2,1.9-4.1,3.5c0.1,1.5,0,2.1-0.3,5.4C469.3,514.9,469.8,516.7,471.2,517.5z"/>
			<path class="st33" d="M471.9,515.7c1.3-0.1,4,0.3,4,0.3l-0.4-4.6c0,0-2-1.4-3.4-0.2C471.4,511.8,471.1,513.7,471.9,515.7z"/>
			<path class="st33" d="M476.4,509c0-0.3-0.1-0.6-0.2-0.9l0,0c0-1-0.3-1.9-0.6-2.8c-0.3-0.9-0.5-1.8-0.6-2.8
				c-0.2-0.9-0.3-1.9-0.3-2.8c0-0.5,0.1-1,0.1-1.4c0-0.5-0.1-1-0.3-1.4l0,0c-0.3-0.9-0.6-1.8-1-2.6c-0.4-0.8-0.7-1.7-0.9-2.6
				c-0.4-1.8-0.9-3.6-1.2-5.4c-0.2-0.9-0.3-1.8-0.4-2.8c0-0.5,0-0.9-0.1-1.4c-0.1-0.4-0.3-0.9-0.6-1.2c-0.6-0.7-1.5-1.1-2.4-1.4
				c-0.9-0.2-1.9-0.2-2.8-0.1l1.4,0.8c0.4,0.2,0.7,0.5,1,0.7c0.6,0.4,1.1,0.8,1.2,1.2c0,0.1,0,0.2,0.1,0.2c0,0.1,0,0.2-0.1,0.1
				c0-0.2,0,0.5,0,0.4l0,0.8c0,1.1,0.1,2.1,0.3,3.1c0.2,1,0.4,1.9,0.6,2.8l0.4,1.4c0.1,0.4,0.3,0.9,0.4,1.4c0.1,0.5,0.3,1,0.5,1.5
				s0.5,1.1,0.7,1.5c0.3,0.4,0.4,0.7,0.6,1.1c0.2,0.3,0.4,0.7,0.5,1.1l0.1,0.3c0.1,0.1,0.2,0.3,0.2,0.5c0,0,0,0.4,0,0.7
				c0,0.3,0,0.6,0.1,0.9c0.1,1.1,0.4,2.1,0.7,3c0.3,1,0.6,1.9,1,2.8c0.2,0.5,0.5,0.9,0.7,1.3c0.2,0.4,0.3,0.8,0.4,1.2l0,0.1
				c0.1,0.2,0.2,0.5,0.3,0.8c0.1,0.3,0.1,0.6,0.1,0.9C476.5,509.6,476.5,509.3,476.4,509z"/>
		</g>
	</g>
	<g>
		<path class="st10" d="M126,239.9c0.9,6.5-3,11.6-4.3,14.6c-1.3,3.1-3.5,8.4,0.8,11s-10.3,18.1-12.2,14.5s-7.5-10.2-12.9-11.9
			s-11.8-6.6-13.8-11.9c-2-5.2,9.4-29.2,12.3-32.8s5.6-3.3,8.9,0s10.5,7.9,14.3,7.6C123.2,230.8,125.1,233.4,126,239.9z"/>
		<path class="st10" d="M92.5,212.2c-1.1-2.5-9-8.7-12.5-4.7s-0.9,7.2,0,7.7s9.3,8.3,10.9,12.1s5.4,4.7,8.5,1.9
			c3.2-2.9,4.2-6,0.5-8.3C97.4,219.3,93.6,214.7,92.5,212.2z"/>
		<path class="st10" d="M94.7,227c-1.1,3.6-4.9,4.3-6.9,7.4s-6.5,3.5-7.9-0.5c-1.4-4,1-6.3,3.9-9.4s3.8-7.1,7.9-6
			C96.4,219.7,95.9,223.4,94.7,227z"/>
		<path class="st10" d="M91.2,235.7c-1,3.6-4.2,4.3-5.9,7.4c-1.7,3.1-5.6,3.5-6.7-0.5s0.8-6.3,3.3-9.4s3.3-7.1,6.8-6
			C92.6,228.4,92.2,232.1,91.2,235.7z"/>
		<path class="st10" d="M87.3,244.1c0.3,3.1-2,4.6-2.4,7.5c-0.4,2.9-3.3,4.4-5.4,1.6s-1.2-5.2-0.2-8.3s0.5-6.5,3.5-6.7
			C86.3,237.9,87,241,87.3,244.1z"/>
		<g>
			<g>
				<path class="st34" d="M117.4,219.3c-6.2,3.9-9,10.4-6.5,14.5c2.6,4.1,9.7,4.3,15.8,0.5s9-10.4,6.5-14.5S123.5,215.4,117.4,219.3
					z"/>
				
					<ellipse transform="matrix(0.8467 -0.5321 0.5321 0.8467 -85.1399 79.8814)" class="st34" cx="96" cy="187.7" rx="16.9" ry="10.3"/>
				<polygon class="st34" points="106.1,230.6 81.8,196.7 110,178.2 132.2,214.2 				"/>
				<path class="st34" d="M113.7,213.8c-7.2,4.5-10.6,12.1-7.6,16.9s11.3,5,18.5,0.5c7.2-4.5,10.6-12.1,7.6-16.9
					C129.2,209.4,120.9,209.2,113.7,213.8z"/>
			</g>
			<path class="st11" d="M124.6,231.1c-5.8,3.6-12.2,4.2-16.1,1.8l-21.4-33h0c4,0.7,9.4-0.5,14.4-3.6c0.9-0.6,1.8-1.2,2.6-1.9
				l23.5,34.4C126.8,229.7,125.7,230.4,124.6,231.1z"/>
			
				<ellipse transform="matrix(0.8467 -0.5321 0.5321 0.8467 -85.1399 79.8814)" class="st28" cx="96" cy="187.7" rx="16.9" ry="10.3"/>
			<path class="st11" d="M111.3,183.4c-0.5,4.3-4.1,9.4-9.8,12.9c-0.6,0.4-1.3,0.7-1.9,1.1l-8.8-3.4l13.4-13.4L111.3,183.4z"/>
			<g>
				<path class="st35" d="M91.8,181c-5,3.2-7.6,8.1-5.8,10.9s7.4,2.7,12.4-0.5c5-3.2,7.6-8.1,5.8-10.9S96.9,177.9,91.8,181z"/>
				<polygon class="st35" points="86,192 77.4,181.7 98.1,168.7 104.2,180.6 				"/>
				<path class="st35" d="M84.5,169.9c-5.7,3.6-8.9,8.8-7,11.7c1.8,2.9,7.9,2.3,13.6-1.3c5.7-3.6,8.9-8.8,7-11.7
					C96.3,165.8,90.2,166.4,84.5,169.9z"/>
				<path class="st28" d="M84.5,169.9c-5.7,3.6-8.9,8.8-7,11.7c1.8,2.9,7.9,2.3,13.6-1.3c5.7-3.6,8.9-8.8,7-11.7
					C96.3,165.8,90.2,166.4,84.5,169.9z"/>
				<path class="st11" d="M98.6,170.8c-0.1,2.9-3,6.8-7.5,9.6c-0.8,0.5-1.6,0.9-2.4,1.3l-8.3-3.2l13.2-9.8L98.6,170.8z"/>
			</g>
			<g>
				<path class="st35" d="M83.9,169.2c-3.9,2.4-5.9,6.2-4.5,8.4c1.4,2.2,5.7,2,9.6-0.4c3.9-2.4,5.9-6.2,4.5-8.4
					C92.1,166.5,87.8,166.7,83.9,169.2z"/>
				<path class="st35" d="M77.8,160c-4.5,2.8-6.9,7.2-5.3,9.8c1.6,2.6,6.6,2.3,11.1-0.5c4.5-2.8,6.9-7.2,5.3-9.8
					C87.3,156.9,82.4,157.1,77.8,160z"/>
				<polygon class="st35" points="79.4,177.6 72.6,169.8 89,159.5 93.5,168.8 				"/>
			</g>
			<path class="st36" d="M77.8,160c-4.5,2.8-6.9,7.2-5.3,9.8c1.6,2.6,6.6,2.3,11.1-0.5c4.5-2.8,6.9-7.2,5.3-9.8
				C87.3,156.9,82.4,157.1,77.8,160z"/>
			<path class="st37" d="M77.5,159.7c-2.9,1.8-4.4,4.7-3.3,6.4s4.3,1.7,7.2-0.2c2.9-1.8,4.4-4.7,3.3-6.4
				C83.6,157.8,80.4,157.9,77.5,159.7z"/>
			<path class="st11" d="M89.4,162.2c-0.3,2-1.9,4.2-4.2,6.1l-9.6-3.7l6.9-5.1L89.4,162.2z"/>
			<path class="st35" d="M110.8,220.3L94.3,262l9.9,11.7c4.2-19.6,12.8-42.8,12.8-42.8L110.8,220.3z"/>
			<polygon class="st28" points="111,220.7 94.8,262.6 94.3,262 110.8,220.3 			"/>
			<polygon class="st34" points="110.8,220.3 94.3,262 83,262 92.7,209.6 103.2,207.3 			"/>
			<path class="st11" d="M86.2,244.7l4.7-9.2l7.9-0.8l-0.7,4.1c0,0-0.5,0.4-1.5,0.8c0.4,7.2-6.1,8.4-7.5,8.2s-3.5,0.7-3.5,0.7
				L86.2,244.7z"/>
			<polygon class="st11" points="99.1,204.3 103.2,207.3 100.5,223.7 92,219.5 			"/>
			<polygon class="st20" points="94.3,262 103.2,207.3 110.8,220.3 			"/>
			<polygon class="st34" points="69.5,252.4 53.5,279.3 74.6,301 105,299.5 112.4,267.2 98.2,248.4 			"/>
			<polygon class="st35" points="105,299.5 85.6,277.6 92.3,262 108.6,283.7 			"/>
			<polygon class="st35" points="85.6,277.6 53.5,279.3 62.4,264.3 92.3,262 			"/>
			<polygon class="st11" points="74.6,301 53.5,279.3 85.6,277.6 105,299.5 			"/>
			<polygon class="st11" points="112.4,267.2 105,299.5 85.6,277.6 98.2,248.4 			"/>
			<polygon class="st20" points="62.8,263.7 92.8,261 92.3,262 62.4,264.3 			"/>
			<polygon class="st20" points="92.3,262 108.6,283.7 108.8,283 92.8,261 			"/>
			<polygon class="st28" points="85.6,277.6 85,277.6 97.1,249.3 69.2,252.8 69.5,252.4 98.2,248.4 			"/>
			<polygon class="st28" points="91.4,262.6 62.1,264.8 62.4,264.3 91.7,262 			"/>
			<polygon class="st28" points="97.8,249.4 112.4,267.2 98.2,248.4 			"/>
			<g>
				<polygon class="st38" points="100.5,207.9 98.7,218.6 92,219.5 89.6,214.1 94.3,205.5 99.1,204.3 				"/>
				<polygon class="st11" points="99.1,204.3 95.9,212.8 98.7,218.6 100.5,207.9 				"/>
				<polygon class="st20" points="95.9,212.8 98.7,218.6 92,219.5 89.6,214.1 				"/>
			</g>
			<g>
				<path class="st35" d="M77.5,159.6c-2.7,1.7-4,4.2-3.1,5.7s3.9,1.4,6.5-0.3c2.7-1.7,4-4.2,3.1-5.7
					C83.1,157.8,80.1,157.9,77.5,159.6z"/>
				<path class="st36" d="M77.5,159.6c-2,1.3-3.1,3.3-2.4,4.4c0.7,1.2,3,1.1,5-0.2c2-1.3,3.1-3.3,2.4-4.4
					C81.8,158.3,79.5,158.4,77.5,159.6z"/>
				<polygon class="st36" points="75.1,164.1 39.4,116.3 52.4,108.1 82.5,159.4 				"/>
				<path class="st36" d="M48.2,115.9c-3.6,2.3-7.6,2.5-8.9,0.4c-3-4,1.3-12,1.3-12s9.5-0.1,11.8,3.8
					C53.7,110.1,51.8,113.6,48.2,115.9z"/>
				<path class="st20" d="M52.4,108.1l2.2,3.8c1.8,3.1,1.2,7.8-1.4,11.4c-1.7,2.4-5.6,4.1-6.7,2.6l-3.2-4.3c1.1,1.5,5.2-0.5,6.9-2.9
					c2.4-3.3,3.1-9.6,1.4-11.6C51.9,107.4,52.2,107.7,52.4,108.1z"/>
				<path class="st20" d="M60,121.1c1.7,2.9,0.7,7.2-1.5,10.1c-1.7,2.3-5.3,3.6-6.4,2.2l-2.8-3.7c1.1,1.4,4.7,0.1,6.4-2.2
					c2.5-3.4,3.4-7.9,1.7-10.8L60,121.1z"/>
				<path class="st20" d="M62.1,124.6c1.6,2.9,0.7,7-1.5,9.8c-1.7,2.2-5.1,3.6-6.1,2.2l2.2,3c1,1.4,4.4,0.1,6.1-2.2
					c1.7-2.3,3.1-6.2,1.4-9.1L62.1,124.6z"/>
				<path class="st20" d="M66,131.2c1.7,2.9,0.5,6.6-1.1,8.8c-1.7,2.3-5.1,3.6-6.1,2.2l2.3,3.1c1,1.4,4.3,0.3,5.9-2
					c1.7-2.3,2.7-5.8,1-8.7L66,131.2z"/>
				<path class="st20" d="M69.7,137.6c1.7,2.9,0.9,6.2-0.8,8.5c-1.6,2.3-4.9,3.4-5.9,1.9l2,2.6c1,1.4,4.2,0.3,5.9-1.9s2.3-5.1,0.6-8
					L69.7,137.6z"/>
				<path class="st20" d="M67.1,153.3c1,1.4,4.5,0.5,6-1.6c1.4-2,2.1-4.9,0.4-7.8l2.1,3.7c1.7,2.8,0.8,5.4-0.5,7.3
					c-1.3,1.9-4.6,3-5.6,1.6L67.1,153.3z"/>
				<path class="st20" d="M40.3,109.6c1.6-2.1,1.6-4.1,0.3-5.3c5.6,1.3,6.1,5.2,5.5,8.3c-0.7,3.1-5.1,5.9-6.7,3.8
					C38.2,114.7,38.6,111.6,40.3,109.6z"/>
				<path class="st20" d="M42.4,111c-1.3,1.5-4,5.3-1.8,6c-0.5-0.1-0.9-0.3-1.3-0.7c-1.2-1.6-0.7-4.7,0.9-6.7s1.6-4.1,0.3-5.3
					c0.7,0.2,1.3,0.4,1.9,0.6C44.8,106.4,43.7,109.6,42.4,111z"/>
				<g class="st39">
					<path class="st6" d="M38.3,112.4c0.1-3.9,2.3-8.2,2.3-8.2s0.7,1.5-0.1,2.9C40,108.2,38.6,110,38.3,112.4z"/>
					<path class="st6" d="M82.6,160.9c-0.2-0.3-30.5-50.1-32.4-52.8c-1.9-2.7-9.7-3.8-9.7-3.8s9.5-0.1,11.8,3.8l30.1,51.3
						C82.8,159.8,82.8,160.3,82.6,160.9z"/>
				</g>
				<path class="st20" d="M81.4,162.9l-34.5-54c1.2,3.2-1.3,6.4-1.3,6.4l33.6,49C80.2,164,81.4,162.9,81.4,162.9z"/>
			</g>
			<path class="st11" d="M131.6,216.1c0-0.4,0-0.8-16.5-27.1c-0.4-0.6-1.1-0.7-1.6-0.4c-0.6,0.3-0.7,1.1-0.4,1.6
				c6.2,9.8,15.5,24.8,16.2,26.2c0.2,0.5,0.6,0.8,1.1,0.8C131,217.3,131.6,216.8,131.6,216.1z"/>
			<path class="st11" d="M131.6,216.1c0,0.6-0.5,1.1-1.1,1.2c0.1-0.2,0.2-0.4,0.2-0.7c0-0.5,0-0.8-16.5-27.1
				c-0.2-0.4-0.7-0.6-1.1-0.6c0.1-0.1,0.2-0.2,0.4-0.3c0.6-0.3,1.3-0.2,1.6,0.4C131.6,215.4,131.6,215.7,131.6,216.1z"/>
			<path class="st11" d="M130.7,220.4c0-0.4,0-0.8-16.8-27.6c-0.4-0.6-1.1-0.7-1.6-0.4c-0.6,0.3-0.7,1.1-0.4,1.6
				c6.3,10.1,15.8,25.4,16.5,26.8c0.2,0.5,0.6,0.8,1.1,0.8C130.1,221.6,130.7,221.1,130.7,220.4z"/>
			<path class="st11" d="M130.7,220.4c0,0.7-0.5,1.2-1.2,1.2c-0.1,0-0.1,0-0.2,0c0.2-0.2,0.3-0.5,0.3-0.7c0-0.4,0-0.8-16.8-27.6
				c-0.2-0.3-0.5-0.5-0.8-0.5c0.1-0.1,0.2-0.2,0.3-0.3c0.6-0.3,1.3-0.2,1.6,0.4C130.7,219.6,130.7,220,130.7,220.4z"/>
			<path class="st11" d="M128.7,223.7c0-0.5,0-0.8-17.3-28.3c-0.4-0.6-1.1-0.7-1.6-0.4c-0.6,0.3-0.7,1.1-0.4,1.6
				c6.5,10.3,16.3,26.1,17,27.5c0.2,0.5,0.6,0.8,1.1,0.8C128.1,224.9,128.7,224.4,128.7,223.7z"/>
			<path class="st11" d="M128.7,223.7c0,0.7-0.5,1.2-1.2,1.2c-0.2,0-0.3-0.1-0.5-0.1c0.1-0.1,0.1-0.3,0.1-0.4c0-0.5,0-0.8-17.3-28.3
				c-0.1-0.2-0.3-0.4-0.5-0.4c0.1-0.2,0.2-0.4,0.5-0.6c0.6-0.3,1.3-0.2,1.6,0.4C128.7,222.9,128.7,223.2,128.7,223.7z"/>
			<path class="st28" d="M110.6,179.1c0.1,0.1,0.1,0.3,0.2,0.5c0,0.2,0.1,0.5,0.2,0.8c0.1,0.6,0.2,1.3,0.1,2.1
				c0,0.4-0.1,0.8-0.2,1.3c-0.1,0.4-0.3,0.9-0.4,1.3c-0.4,0.9-0.8,1.9-1.4,2.8c-0.6,0.9-1.3,1.9-2.2,2.8s-1.7,1.8-2.8,2.6
				c-1,0.8-2.1,1.5-3.2,2.2c-0.5,0.3-1.2,0.7-1.7,0.9c-0.6,0.3-1.1,0.6-1.7,0.8c-1.2,0.5-2.4,0.9-3.5,1.2c-1.2,0.3-2.3,0.5-3.4,0.6
				c-1.1,0.2-2.1,0.1-3,0c-0.9-0.1-1.8-0.3-2.5-0.6c-0.7-0.2-1.3-0.5-1.8-0.8c-0.2-0.1-0.5-0.3-0.7-0.4c-0.2-0.1-0.3-0.3-0.5-0.3
				c-0.3-0.2-0.4-0.3-0.4-0.3s0.1,0.1,0.3,0.4c0.1,0.1,0.2,0.3,0.4,0.5c0.2,0.2,0.4,0.4,0.6,0.6c0.5,0.4,1,0.8,1.8,1.1
				c0.7,0.4,1.6,0.6,2.6,0.8c1,0.1,2.1,0.2,3.3,0.1c1.2-0.1,2.4-0.3,3.6-0.6c1.2-0.3,2.5-0.7,3.7-1.3c1.2-0.5,2.4-1.2,3.6-1.9
				c1.1-0.7,2.2-1.5,3.2-2.4c1-0.8,1.9-1.8,2.8-2.8c0.8-1,1.5-2,2.1-3c0.6-1,1-2,1.3-3c0.3-1,0.4-1.9,0.4-2.7c0-0.8-0.1-1.5-0.3-2.1
				c-0.1-0.3-0.2-0.5-0.2-0.8C110.8,179.4,110.7,179.2,110.6,179.1c-0.1-0.3-0.2-0.4-0.2-0.4S110.4,178.8,110.6,179.1z"/>
			<path class="st28" d="M98.2,169c0.1,0.2,0.1,0.5,0.2,0.9c0,0.2,0,0.4,0,0.6c0,0.2-0.1,0.5-0.1,0.7c-0.2,0.5-0.4,1.1-0.7,1.6
				c-0.6,1.2-1.6,2.4-2.9,3.5c-0.6,0.6-1.3,1.1-2,1.6c-0.7,0.5-1.5,1-2.2,1.4l-1.2,0.6c-0.4,0.2-0.8,0.4-1.1,0.6
				c-0.4,0.2-0.8,0.3-1.2,0.5c-0.4,0.2-0.8,0.3-1.2,0.4c-0.8,0.3-1.5,0.5-2.2,0.6c-0.7,0.1-1.4,0.3-2,0.3c-0.6,0-1.2,0-1.7-0.1
				c-0.3,0-0.5-0.1-0.7-0.1c-0.2-0.1-0.4-0.1-0.6-0.1c-0.3-0.1-0.7-0.2-0.8-0.3c-0.2-0.1-0.3-0.2-0.3-0.2s0.1,0.1,0.2,0.3
				c0.1,0.2,0.4,0.4,0.7,0.7c0.2,0.1,0.4,0.2,0.6,0.4c0.2,0.1,0.5,0.2,0.7,0.3c0.5,0.1,1.2,0.3,1.9,0.3c1.4,0.1,3-0.2,4.7-0.8
				c0.8-0.3,1.7-0.6,2.5-1s1.6-0.9,2.4-1.3c0.8-0.5,1.5-1,2.3-1.6c0.7-0.6,1.4-1.2,2-1.8c1.2-1.3,2.2-2.6,2.7-3.9
				c0.3-0.6,0.5-1.3,0.6-1.8c0-0.3,0-0.5,0.1-0.8c0-0.2,0-0.5-0.1-0.7C98.4,169.5,98.3,169.2,98.2,169c0-0.2-0.1-0.3-0.1-0.3
				S98.1,168.8,98.2,169z"/>
			<path class="st28" d="M89.1,159.7c0.1,0.2,0.1,0.4,0.2,0.7c0,0.3,0,0.7-0.1,1.1c-0.1,0.4-0.3,0.9-0.5,1.4c-0.5,1-1.2,2-2.2,2.9
				c-0.9,0.9-2.1,1.8-3.4,2.5c-0.3,0.1-0.7,0.4-1,0.5c-0.3,0.1-0.6,0.3-0.9,0.4c-0.6,0.3-1.3,0.5-1.9,0.7c-1.2,0.4-2.4,0.6-3.4,0.6
				c-0.5,0-0.9-0.1-1.3-0.1c-0.4-0.1-0.7-0.1-1-0.2c-0.3-0.1-0.6-0.2-0.7-0.3c-0.2-0.1-0.3-0.1-0.3-0.1c0,0,0.2,0.3,0.7,0.8
				c0.3,0.2,0.6,0.4,1,0.6c0.4,0.2,0.9,0.3,1.5,0.4c2.3,0.3,5.3-0.6,7.9-2.2c2.6-1.6,4.7-4,5.4-6.1c0.2-0.5,0.3-1,0.3-1.5
				c0-0.5,0-0.9-0.1-1.2c-0.2-0.7-0.4-1-0.4-1C89,159.5,89,159.6,89.1,159.7z"/>
			<path class="st28" d="M125.2,230.7c0.4-0.3,0.9-0.6,1.6-1.2c0.7-0.5,1.4-1.2,2.3-2.1c0.8-0.9,1.7-1.9,2.4-3.2
				c0.7-1.3,1.4-2.8,1.7-4.4c0.3-1.6,0.2-3.5-0.7-5.1c-0.9-1.6-1.9-3.2-2.9-4.8c-1-1.6-2-3.3-3.1-5c-8.2-13.3-16.5-26.7-16.5-26.7
				s0.1,0.3,0.2,0.7s0.4,1.1,0.8,1.9c0.2,0.4,0.4,0.8,0.6,1.3c0.2,0.5,0.5,1,0.8,1.5c0.5,1.1,1.2,2.2,2,3.5c0.7,1.3,1.5,2.7,2.4,4.1
				c0.8,1.5,1.7,3,2.7,4.6c2,3.1,4,6.5,6.1,9.8c1.1,1.7,2.1,3.3,3.2,4.9c1,1.6,2.1,3.2,3,4.7c0.8,1.4,1,3.1,0.8,4.6
				c-0.2,1.6-0.8,3-1.4,4.3c-1.3,2.5-3.1,4.3-4.3,5.4C126.1,230,125.6,230.4,125.2,230.7c-0.4,0.2-0.6,0.4-0.6,0.4
				S124.8,231,125.2,230.7z"/>
			<path class="st11" d="M96.9,192.3l-7.8-10.9l0,0c0.6-0.3,1.3-0.7,1.9-1.1c1.7-1.1,3.1-2.2,4.3-3.5l0,0l6.5,11.8
				c-1,1-2.1,2-3.4,2.8C97.9,191.8,97.4,192.1,96.9,192.3z"/>
		</g>
		<path class="st10" d="M128.4,233.4c1.2-1.6,1.5-3.2,1.9-5.9c0.4-2.7,5.5-5.7,5.7-7.1c0.2-1.4-1.5-3.7-2.5-4.1s-6.8,0.1-9,2.5
			s-3,6.8-3,9C121.5,232.8,127.2,234.9,128.4,233.4z"/>
		<path class="st10" d="M127.1,227.8c2.2,1.2,2.5,2.9,1.3,5.6c-0.8,1.8-1.1,5.5-1.2,10.1c-0.1,4.6-2.9,6.6-7.1,13.7
			c-2,3.4-2.9,4.1-6.7,5.6s-4.1-8.1-2-15.1s4.3-12.9,5.3-15.8c1.4-0.3,4.9-1.8,4.9-4.1C121.5,226.4,124.9,226.6,127.1,227.8z"/>
		<path class="st10" d="M87.3,203c-0.6-2.9-3.6-6.9-8-7.9c-4.4-1-7.3,2.5-7.8,4c-0.6,1.5-0.3,3.3,2.4,5.9c2.7,2.6,2.8,3.8,4.4,6.3
			s5.8,1.7,8.5-1.3C88.9,207.8,88,206,87.3,203z"/>
		<path class="st33" d="M85.3,199c-0.9-1.2-2.1-2.2-3.4-2.9c-0.6-0.4-1.3-0.7-2.1-0.9c-0.7-0.2-1.5-0.3-2.2-0.3
			c-1.5,0-3,0.6-4.1,1.5c-0.6,0.5-1.1,1-1.5,1.6s-0.7,1.3-0.8,2.1c-0.1,0.8,0.2,1.5,0.5,2.2c0.3,0.7,0.8,1.3,1.3,1.8
			c0.5,0.6,1,1.1,1.6,1.6c0.5,0.5,1,1.1,1.4,1.7c0.9,1.2,1.4,2.6,2.3,3.9l0,0c0,0.9,0.2,1.7,0.6,2.5c0.2,0.4,0.5,0.7,0.8,1
			c0.3,0.3,0.7,0.5,1,0.8c1.3,1.1,2.6,2.3,3.8,3.6s2.4,2.5,3.5,3.8c0.6,0.7,1.1,1.3,1.6,2c0.5,0.7,1,1.4,1.3,2.2c0-0.5,0-1-0.1-1.5
			c-0.1-0.5-0.2-0.9-0.4-1.4c-0.2-0.4-0.3-0.9-0.5-1.3c-0.2-0.4-0.4-0.8-0.7-1.2c-0.5-0.8-1-1.5-1.6-2.2c-0.5-0.7-1.1-1.4-1.7-2.1
			c-0.6-0.7-1.2-1.3-1.8-2c-0.6-0.7-1.2-1.3-1.9-1.9c-0.1-0.1-0.3-0.2-0.4-0.3c-0.1-0.1-0.3-0.2-0.3-0.3l-0.1-0.1l0,0
			c0,0-0.3-0.2-0.2-0.1h0l0,0l0,0l0,0c0,0,0,0,0,0c-0.1-0.1-0.2-0.3-0.3-0.4c-0.2-0.4-0.3-0.8-0.3-1.2l0-0.9l-0.3-0.5
			c-0.4-0.7-0.7-1.2-1.1-1.8c-0.4-0.6-0.8-1.4-1.3-2.1c-0.5-0.7-1.1-1.3-1.8-1.9c-0.3-0.3-0.6-0.5-0.9-0.8c-0.3-0.2-0.5-0.4-0.7-0.6
			c-0.4-0.4-0.8-0.9-1.1-1.3c-0.3-0.4-0.4-0.8-0.4-1.1c0-0.2,0-0.3,0.1-0.6c0-0.1,0.2-0.4,0.3-0.6c0.3-0.5,0.7-0.9,1.1-1.3
			c0.8-0.8,1.9-1.4,3.1-1.5c0.3,0,0.5-0.1,0.9,0l0.5,0l0.5,0.1c0.6,0.1,1.3,0.3,1.9,0.6c1.2,0.6,2.4,1.3,3.5,2.4
			c0.5,0.5,1,1.1,1.4,1.7c0.4,0.6,0.8,1.2,1,2C87,201.6,86.2,200.2,85.3,199z"/>
		<path class="st10" d="M93.9,218.1c2.5,1,5.3,0.3,7.1,0.3s4.2-0.1,4.2,7.5c0,4.1-6.4,4.6-11.9,3.5c-2.3-0.4-4.1,1.4-5.8-0.9
			s-2.1-7.3,0.8-9.5C90.1,217.6,91.4,217.1,93.9,218.1z"/>
		<path class="st33" d="M95.5,219.4c-1.6,1.4-1.9,5.1-1.9,5.1s3.9,0.8,6.5,0.8c0.4-1.6,0.5-4.8,2.2-5.9
			C102.3,219.4,97.6,219.4,95.5,219.4z"/>
		<path class="st10" d="M90.3,226.2c2.3,0.7,4.5,0.1,6.1-0.2c1.5-0.2,5-0.7,5,4.5c0,6.3-5,7.2-9.9,6.9c-2-0.1-3.2,1.9-5-0.1
			s-2.9-6.9-0.8-9.5C87,226.3,88,225.6,90.3,226.2z"/>
		<path class="st33" d="M91.3,227.8c-1.2,1.6-1.2,4.6-1.2,4.6s3.4,0.2,5.6,0c0.1-1.6,0.4-4.2,1.6-5.5
			C97.3,226.8,93,227.5,91.3,227.8z"/>
		<path class="st10" d="M83.8,236.9c2-0.1,3.6-1.3,4.7-1.9c1.1-0.6,3.7-2,5.3,2.1c1.9,5-1.8,7.1-5.7,8.3c-1.6,0.5-2,2.4-4,1.4
			c-2-1.1-4.3-4.6-3.4-7.2C81.3,237.9,81.8,237.1,83.8,236.9z"/>
		<path class="st33" d="M85.3,237.6c-0.4,1.6-0.2,3.6-0.2,3.6s2.7-0.5,4.3-1.4c-0.4-1.3-0.3-3.2,0.3-4.6
			C89.8,235.2,86.6,236.9,85.3,237.6z"/>
		<path class="st33" d="M101.3,229.4c0-0.4-0.1-0.8-0.2-1.2c-0.1-0.4-0.3-0.7-0.5-1.1c-0.3-0.3-0.5-0.6-0.9-0.8
			c-0.7-0.4-1.5-0.5-2.3-0.4c-0.8,0.1-1.6,0.2-2.4,0.4c-1.5,0.3-3.2,0.4-4.7-0.1c-0.8-0.2-1.6-0.4-2.4-0.1c-0.8,0.2-1.4,0.8-1.9,1.4
			l0,0c-0.6,0.4-1.1,1-1.5,1.6s-0.8,1.2-1.2,1.9s-0.8,1.2-1.2,1.8l-1.4,1.7c-0.9,1.1-1.8,2.4-2.3,3.8c-0.1,0.3-0.2,0.7-0.3,1.1
			s-0.1,0.7-0.1,1.1c0,0.7,0.1,1.4,0.3,2.2c0.1-0.4,0.1-0.8,0.1-1.1c0-0.4,0.1-0.7,0.2-1c0.1-0.3,0.1-0.7,0.2-1s0.2-0.6,0.3-0.9
			c0.5-1.2,1.4-2.2,2.3-3.3c0.5-0.6,0.9-1,1.4-1.7c0.5-0.6,0.9-1.3,1.3-1.9c0.7-1.3,1.5-2.6,2.2-3.2l0.2-0.1l0-0.1
			c0.5-0.6,0.9-1,1.3-1.1c0.2-0.1,0.5-0.1,0.8-0.1c0.3,0,0.6,0.1,1,0.2c0.4,0.1,0.9,0.2,1.3,0.2c0.4,0,0.9,0.1,1.3,0
			c0.9,0,1.7-0.2,2.5-0.4c0.8-0.2,1.5-0.4,2.3-0.5c0.7-0.1,1.4-0.1,2,0.2c0.3,0.1,0.6,0.4,0.8,0.6c0.2,0.3,0.4,0.6,0.6,0.9
			c0.1,0.4,0.3,0.7,0.3,1.1c0.1,0.4,0.1,0.8,0.2,1.2C101.3,230.2,101.4,229.8,101.3,229.4z"/>
		<path class="st33" d="M99.7,218.5c-0.8,0.1-2.1,0.2-3.5,0.1c-0.7-0.1-1.5-0.2-2.3-0.5c-0.8-0.3-1.6-0.6-2.5-0.5
			c-0.9,0.1-1.8,0.5-2.5,1.1c-0.8,0.5-1.5,1.2-2,2c-0.6,0.8-1.1,1.6-1.7,2.4c-0.6,0.8-1.2,1.5-1.8,2.1c-1.2,1.3-2.4,2.6-3,3.9
			c-0.6,1.3-0.6,2.6-0.5,3.4c0.1,0.4,0.1,0.7,0.2,1s0.1,0.3,0.1,0.3s0-0.1,0.1-0.4c0-0.2,0.1-0.6,0.1-1c0.1-0.4,0.2-0.9,0.3-1.4
			c0.1-0.5,0.3-1,0.6-1.6c0.6-1.1,1.8-2.2,3-3.5c0.6-0.6,1.3-1.4,1.9-2.2c0.6-0.8,1.1-1.7,1.6-2.4c0.3-0.4,0.5-0.7,0.8-1
			c0.2-0.3,0.6-0.6,0.9-0.9c0.7-0.6,1.4-0.9,2-1c0.7-0.1,1.5,0,2.3,0.3c0.9,0.3,1.7,0.4,2.5,0.4c0.8,0,1.5-0.1,2-0.2
			c0.6-0.1,1.1-0.2,1.5-0.3c0.8-0.2,1.3-0.2,1.3-0.2S100.5,218.4,99.7,218.5z"/>
		<path class="st33" d="M84.3,236.9c-0.8,0.1-1.5,0.1-2.2,0.5c-0.7,0.4-1,1.1-1.3,1.8l0,0c-0.6,0.8-0.7,1.8-0.9,2.8
			c-0.2,1-0.3,1.9-0.6,2.9c0.6-0.3,1-0.8,1.2-1.3c0.2-0.5,0.4-1,0.5-1.4c0.1-0.5,0.3-0.9,0.4-1.3c0.1-0.4,0.3-0.7,0.4-1l0.1-0.3
			c0.1-0.3,0.2-0.6,0.3-0.8c0.1-0.2,0.2-0.4,0.4-0.5s0.4-0.3,0.7-0.4c0.1,0,0.3-0.1,0.5-0.1c0.2,0,0.4-0.1,0.6-0.1
			c0.8-0.3,1.6-0.7,2.2-1.1c0.6-0.5,1.2-1,1.8-1.6C87.2,235.8,85.9,236.6,84.3,236.9z"/>
		<path class="st11" d="M87.2,203.6c0,0.4-0.1,0.9-0.1,1.6s-0.1,1.3-0.2,1.9c-0.1,0.3-0.2,0.5-0.3,0.7c-0.1,0.2-0.3,0.4-0.5,0.6
			c-0.2,0.2-0.4,0.4-0.7,0.6c-0.3,0.2-0.5,0.4-0.7,0.6c-0.5,0.4-0.9,0.8-1.3,1.2c-0.2,0.2-0.4,0.3-0.5,0.5c-0.2,0.2-0.3,0.4-0.4,0.6
			c-0.1,0.2-0.2,0.4-0.3,0.6c-0.1,0.1-0.1,0.3-0.1,0.3c0,0,0.8-0.1,2-0.6c0.6-0.3,1.2-0.6,1.8-1.1c0.6-0.5,1.2-1.1,1.7-1.7
			c0.5-0.7,0.7-1.5,0.7-2.3c0-0.8-0.1-1.5-0.3-2.1c-0.3-1.2-0.5-2-0.5-2S87.3,203.3,87.2,203.6z"/>
		<path class="st40" d="M135.9,220.4c-0.2,1.4-5.3,4.4-5.7,7.1s-0.7,4.3-1.9,5.9c-0.8,1.8-1.1,5.5-1.2,10.1c-0.1,4-2.2,6-5.4,11
			c-1.3,3.1-3.5,8.4,0.8,11c0,0-3.8-1.6-4.8-5.7c-1-4.1,1.3-7,3.8-10.8c2.5-3.7,3.5-4.4,3.1-9.8c-0.4-5.4-4.2-7.1-5.7-6.7
			c-1.6,1.5-7.2,14-8.3,22.5c-0.2,1.8-0.8,4.6-1.6,7.8l-1.6-2.1c4.3-15.6,9.5-29.7,9.5-29.7l0-0.1c0.7,0.2,1.3,0.3,1.8,0.3
			c1.4-0.7,2.7-1.9,2.7-3.3c0-1.8,0.5-5,1.9-7.4c-1.3,3.6-0.3,7.1,3.5,4.6c3.6-2.3,9.3-3.5,8.4-6.9
			C135.7,218.9,136,219.7,135.9,220.4z"/>
	</g>
	<g>
		<path class="st28" d="M258.1,84.3l53.6-1.2c3.6-0.1,6.5,2.8,6.5,6.3v11c0,3.5-2.8,6.3-6.3,6.3h-25.8c-3.7,0-5.4-6.8-10.5-6.8
			c-1.6,0-3,2.6-3.5,4.2c-0.6,1.6-1.9,2.6-2.8,2.6h-11c-2.9,0-5.3-2.4-5.3-5.3V89.7C252.9,86.8,255.2,84.4,258.1,84.3z"/>
		<path class="st41" d="M311.7,83.2l-53.6,1.2c-2.9,0.1-5.2,2.4-5.2,5.3v11.8c0,2.9,2.4,5.3,5.3,5.3h11c0.9,0,2.2-1,2.8-2.6
			s1.9-4.2,3.5-4.2c5.1,0,6.8,6.8,10.5,6.8h25.8c3.5,0,6.3-2.8,6.3-6.3V89.5C318.2,86,315.2,83.1,311.7,83.2z M315.8,89.5v11
			c0,2.2-1.8,3.9-3.9,3.9H286c-0.6,0-1.6-1.2-2.5-2.2c-1.7-2-4.1-4.6-7.9-4.6c-3.4,0-5.2,4-5.8,5.7c-0.2,0.6-0.6,0.9-0.8,1.1h-10.8
			c-1.6,0-2.9-1.3-2.9-2.9V89.7c0-1.6,1.3-2.9,2.9-2.9l53.6-1.2C314,85.6,315.8,87.4,315.8,89.5L315.8,89.5z"/>
		<path class="st41" d="M357.7,86.1l-5.1,2.7l-34.5,11.7V89.5c0-3.5-2.9-6.4-6.5-6.3c0,0,39.1-0.1,41.7-0.1S357.7,86.1,357.7,86.1z"
			/>
		<path class="st28" d="M311.7,83.2c0,0,39.1-0.1,41.7-0.1c1,0,1.8,0.4,2.4,0.9l-39.2,1.5C315.4,84,313.7,83.2,311.7,83.2z"/>
		<g>
			<path class="st42" d="M258.1,84.3l12.5-0.3l3.2,14l0.5,2.5c-1,0.8-1.8,2.4-2.2,3.6c-0.6,1.6-1.9,2.6-2.8,2.6h-7l-8-20.7
				C255.2,85.1,256.5,84.4,258.1,84.3z"/>
			<polygon class="st42" points="307.3,106.8 294.9,106.8 276.3,83.9 282.5,83.8 			"/>
			<path class="st42" d="M318.2,96.1l-19.6-12.7l13.2-0.3c3.6-0.1,6.5,2.8,6.5,6.3V96.1z"/>
		</g>
	</g>
	<g>
		<g>
			<defs>
				<path id="SVGID_12_" d="M322.1,385h98.5l-15,74.3l-3.2,1.5c-4.3,12-14.6,14.4-14.6,14.4l-17.3-8.3L322.1,385L322.1,385z"/>
			</defs>
			<clipPath id="SVGID_13_">
				<use xlink:href="#SVGID_12_"  style="overflow:visible;"/>
			</clipPath>
			<g class="st43">
				<g>
					<path class="st44" d="M413.4,417.4l2.3,1l-2.4,6.4l-1.4-0.5l-6.2,8l-1.4,8.4l-10-1.7l1.2-7.3l-3.8-11.5c0,0-6.6-9.2-1.9-16.6
						c4.7-7.4,13.4-6.4,13.4-6.4l-6.3,10.8l8.9,5l6.2-10.9C418.5,407.3,413.4,417.4,413.4,417.4z"/>
					<g>
						<path class="st23" d="M406.3,414l5.8-10.1c4.3,4.9,0.3,12.9,0.3,13l-0.2,0.4L406.3,414z"/>
					</g>
					<path class="st23" d="M414.1,419l-1.6,4.3l-1.1-0.4l-6.9,8.8l-1.3,7.5l-7.7-1.3l1.1-6.4l-3.9-11.9l-0.1-0.1
						c-0.1-0.1-6.1-8.7-1.9-15.3c2.9-4.6,7.6-5.7,10.3-5.9l-5.9,10l11,6.1l5.9,3.3L414.1,419z"/>
					<g>
						<path class="st23" d="M414.1,419l-1.6,4.3l-0.3-0.1l1.5-4l-2.3-1.3l-16.8-9.4l5.9-10c-1.1,0.1-2.6,0.3-4.3,1
							c1.8-0.8,3.5-1.1,4.7-1.1l-5.9,10l16.6,9.3l0.3-0.5c0-0.1,3.9-7.9,0-12.8l0.3-0.4c4.3,4.9,0.3,12.9,0.3,13l-0.4,0.9L414.1,419
							z"/>
						<polygon class="st23" points="411.1,423.2 404.4,431.8 403.1,439.3 402.7,439.2 404,432 410.9,423.1 						"/>
					</g>
					<path class="st34" d="M397.2,513l6.9-72.4l-10-1.7l-12.3,72c-0.7,4,2,7.8,6,8.5l1,0.2C392.9,520.2,396.8,517.2,397.2,513z
						 M388.9,516.8c-2.4-0.4-3.9-2.6-3.5-5c0.4-2.3,2.6-3.9,5-3.5c2.4,0.4,3.9,2.6,3.5,5C393.5,515.6,391.3,517.2,388.9,516.8z"/>
					
						<rect x="401.8" y="418.5" transform="matrix(0.4879 -0.8729 0.8729 0.4879 -163.1849 568.9138)" class="st45" width="3" height="10.2"/>
					<path class="st46" d="M406.9,427.4l0.9-3.3c0.1-0.2-0.1-0.5-0.3-0.5c-0.2-0.1-0.5,0.1-0.6,0.3l-0.9,3.3
						c-0.1,0.2,0.1,0.5,0.3,0.5c0,0,0,0,0,0C406.6,427.7,406.8,427.6,406.9,427.4z"/>
					<path class="st46" d="M405.8,426.8l0.9-3.3c0.1-0.2-0.1-0.5-0.3-0.5c-0.2-0.1-0.5,0.1-0.6,0.3l-0.9,3.3
						c-0.1,0.2,0.1,0.5,0.3,0.5c0,0,0,0,0,0C405.6,427.1,405.8,427,405.8,426.8z"/>
					<path class="st46" d="M404.8,426.2l0.9-3.3c0.1-0.2-0.1-0.5-0.3-0.5c-0.2-0.1-0.5,0.1-0.6,0.3l-0.9,3.3
						c-0.1,0.2,0.1,0.5,0.3,0.5c0,0,0,0,0,0C404.5,426.5,404.7,426.4,404.8,426.2z"/>
					<path class="st46" d="M403.7,425.6l0.9-3.3c0.1-0.2-0.1-0.5-0.3-0.5c-0.2-0.1-0.5,0.1-0.6,0.3l-0.9,3.3
						c-0.1,0.2,0.1,0.5,0.3,0.5c0,0,0,0,0,0C403.4,425.9,403.6,425.8,403.7,425.6z"/>
					<path class="st46" d="M402.6,425l0.9-3.3c0.1-0.2-0.1-0.5-0.3-0.5c-0.2-0.1-0.5,0.1-0.5,0.3l-0.9,3.3c-0.1,0.2,0.1,0.5,0.3,0.5
						c0,0,0,0,0,0C402.4,425.3,402.6,425.2,402.6,425z"/>
					<path class="st46" d="M401.6,424.4l0.9-3.3c0.1-0.2-0.1-0.5-0.3-0.5c-0.2-0.1-0.5,0.1-0.5,0.3l-0.9,3.3
						c-0.1,0.2,0.1,0.5,0.3,0.5c0,0,0,0,0,0C401.3,424.7,401.5,424.6,401.6,424.4z"/>
					<path class="st46" d="M400.5,423.8l0.9-3.3c0.1-0.2-0.1-0.5-0.3-0.5c-0.2-0.1-0.5,0.1-0.5,0.3l-0.9,3.3
						c-0.1,0.2,0.1,0.5,0.3,0.5c0,0,0,0,0,0C400.2,424.1,400.5,424,400.5,423.8z"/>
					<path class="st46" d="M399.5,423.2l0.9-3.3c0.1-0.2-0.1-0.5-0.3-0.5c-0.2-0.1-0.5,0.1-0.5,0.3l-0.9,3.3
						c-0.1,0.2,0.1,0.5,0.3,0.5c0,0,0,0,0,0C399.2,423.5,399.4,423.4,399.5,423.2z"/>
				</g>
				<path class="st23" d="M396,511.7l7.5-70.6l-8.4-1.4L383,510c-0.7,3.9,1.5,7.6,4.8,8.1l0.8,0.1
					C392.2,518.9,395.5,515.9,396,511.7z M388.9,516.9c-2.5-0.4-4.1-2.8-3.7-5.4c0.4-2.6,2.8-4.3,5.3-3.9c2.5,0.4,4.1,2.8,3.7,5.4
					S391.4,517.3,388.9,516.9z"/>
				<g class="st47">
					<path class="st6" d="M402.1,462l-0.9,9.1c-1.5-2.5-3.6-5-5.8-6.6C390.5,461.1,397.3,459.8,402.1,462z"/>
					<path class="st6" d="M386.6,482.4l2.1-12.1c0,0,9.2,2.1,11.7,8.8l-1.3,14C399.1,493,396.6,484.1,386.6,482.4z"/>
				</g>
				<g>
					<path class="st23" d="M387,508.6c-0.9,0.7-1.5,1.7-1.7,3c-0.4,2.6,1.2,5,3.7,5.4c1.1,0.2,2.2-0.1,3.1-0.6
						c-1,0.8-2.3,1.1-3.5,0.9c-2.5-0.4-4.1-2.8-3.7-5.4C385,510.4,385.9,509.3,387,508.6z"/>
					<path class="st23" d="M392.6,517.4c1.5-1.2,2.7-3.1,2.9-5.4l7.5-70.6l-8.1-1.4l0.1-0.4l8.4,1.4l-7.5,70.6
						C395.7,514.2,394.4,516.3,392.6,517.4z"/>
				</g>
			</g>
		</g>
		<g>
			<defs>
				<path id="SVGID_14_" d="M322.1,385h98.5l-15,74.3l-3.2,1.5c-4.3,12-14.6,14.4-14.6,14.4l-17.3-8.3L322.1,385L322.1,385z"/>
			</defs>
			<clipPath id="SVGID_15_">
				<use xlink:href="#SVGID_14_"  style="overflow:visible;"/>
			</clipPath>
			<g class="st48">
				<path class="st34" d="M381.7,460.1c-1.4,2.6,4.8,30.3,5.9,33.7c1.1,3.4,0.4,6.5-4.5,7.4c-4.9,0.8-6.6-1.9-6.6-5.5
					c-0.1-3.6-3-31.8-5.2-33.8l-1.3-0.9l-0.6-3.5l6.4-1l6.4-1l0.6,3.5L381.7,460.1z"/>
				<path class="st23" d="M379.5,460.4c-0.7,2.5,4.8,29.8,5.7,33.2c0.9,3.4,0.7,6.4-2.2,6.9c-2.9,0.5-4-2.3-4.3-5.8
					c-0.3-3.5-3.9-31.1-5.3-33.3l-0.8-1L372,457l3.7-0.6l3.7-0.6l0.6,3.4L379.5,460.4z"/>
				<path class="st23" d="M378.3,460.6c-0.3,2.4,4.9,29.8,5.6,33.2c0.7,3.4,0.8,6.4-0.9,6.6s-2.6-2.5-3-6
					c-0.4-3.5-4.4-31.1-5.4-33.3l-0.6-1l-0.6-3.4l2.2-0.4l2.2-0.4l0.6,3.4L378.3,460.6z"/>
				<path class="st38" d="M369.3,457.1l0.1,0.3l12.7-2.1L382,455c-0.2-1.1-1.2-1.8-2.3-1.7l-8.8,1.4
					C369.9,455,369.1,456,369.3,457.1z"/>
				<path class="st23" d="M371.1,456.3l0.1,0.4l9.1-1.5l-0.1-0.4c-0.1-0.8-0.9-1.4-1.8-1.3l-6,1
					C371.5,454.7,370.9,455.5,371.1,456.3z"/>
				<path class="st23" d="M374.2,455.1l0.2,1.1l2.5-0.4l-0.2-1.1c-0.1-0.4-0.5-0.7-0.9-0.7l-0.9,0.1
					C374.5,454.2,374.2,454.6,374.2,455.1z"/>
				<polygon class="st44" points="371.7,414.3 371.2,416.1 370.4,416.3 376.6,453.9 374.1,454.3 367.9,416.7 367.1,416.8 366,415.2 
					365.1,406.2 369.7,405.4 				"/>
				<polygon class="st23" points="370.7,414.5 369.6,416.4 369.5,416.4 375.6,454 375,454.1 368.8,416.5 368.6,416.5 367,415 
					366.8,405.9 368,405.7 				"/>
				<path class="st23" d="M383.5,475.5c1.2,6.2,2.7,12.7,3.5,16.1l0,0c0-0.1-2.9-10-11.8-8.5c-0.3-2.9-0.7-5.9-1.1-8.7
					C374.1,474.5,381,472.8,383.5,475.5z"/>
			</g>
		</g>
	</g>
</g>
<g>
	<path class="st35" d="M224.8,750.3v99.8c0,8.5-6.9,15.4-15.4,15.4h-11.1v2.5h-9.4v-2.5h-5.9v2.5h-9.5v-2.5h-5.9v2.5h-9.5v-2.5H89.4
		v2.5H80v-2.5h-5.9v2.5h-9.5v-2.5h-5.9v2.5h-9.5v-2.5H37.7c-8.5,0-15.4-6.9-15.4-15.4v-99.8H224.8z"/>
	<g class="st5">
		<path class="st21" d="M221.6,859.5c-2.8,3.7-7.2,6-12.2,6h-11.1v2.5h-9.5v-2.5h-5.9v2.5h-9.5v-2.5h-5.9v2.5h-9.5v-2.5H89.4v2.5H80
			v-2.5h-5.9v2.5h-9.5v-2.5h-5.9v2.5h-9.5v-2.5H37.7c-5,0-9.4-2.4-12.2-6c2.8,1.2,7.2,2,12.2,2h11.7v0.8h9.5v-0.8h5.9v0.8h9.5v-0.8
			H80v0.8h9.5v-0.8h68.8v0.8h9.5v-0.8h5.9v0.8h9.5v-0.8h5.9v0.8h9.5v-0.8h11.1C214.4,861.5,218.8,860.7,221.6,859.5z"/>
	</g>
	<path class="st35" d="M163.6,717.2v22.2H83.5v-22.2c0-7.7,6.3-14,14-14h52.2C157.3,703.2,163.6,709.5,163.6,717.2L163.6,717.2z
		 M89.5,717.2v16.2h68.1v-16.2c0-4.4-3.6-8-8-8H97.4C93,709.2,89.5,712.8,89.5,717.2L89.5,717.2z"/>
	<g class="st49">
		<path class="st6" d="M163.6,717.2v22.2h-2.1v-19.2c0-7.7-5.9-14-13.2-14H98.8c-7.3,0-13.2,6.3-13.2,14v19.2h-2.1v-22.2
			c0-7.7,6.3-14,14-14h52.2C157.3,703.2,163.6,709.5,163.6,717.2z"/>
	</g>
	<path class="st7" d="M22.3,741.8v8.5h202.5v-8.5c0-6.7-5.5-12.2-12.2-12.2H34.5C27.7,729.6,22.3,735.1,22.3,741.8z"/>
	<path class="st23" d="M22.4,740c0.9-5.9,5.9-10.3,12-10.3h178.1c6.1,0,11.1,4.5,12,10.3c-1.7-3.9-5.6-6.6-10.1-6.6H32.6
		C28,733.4,24.1,736.1,22.4,740z"/>
	<path class="st13" d="M22.3,750.3L22.3,750.3h202.5l0,0c0-1.9-1.5-3.3-3.3-3.3H25.6C23.8,747,22.3,748.5,22.3,750.3z"/>
	<path class="st13" d="M224.7,757.8v23.4c0-4.5-9.8-10.8-31.3-10.8s-70,0-70,0s-48.5,0-70,0s-31.3,6.3-31.3,10.8v-23.4h101.3H224.7z
		"/>
	<path class="st35" d="M13.9,757.8L13.9,757.8c0-4.1,3.4-7.5,7.5-7.5h204.3c4.1,0,7.5,3.4,7.5,7.5l0,0c0,4.1-3.4,7.5-7.5,7.5H21.4
		C17.2,765.3,13.9,762,13.9,757.8z"/>
	<path class="st23" d="M233.2,757.8L233.2,757.8c0,0.7-0.1,1.4-0.3,2.1c-0.9-3.1-3.8-5.4-7.2-5.4H21.4c-3.4,0-6.3,2.3-7.2,5.4
		c-0.2-0.7-0.3-1.4-0.3-2.1l0,0c0-4.1,3.4-7.5,7.5-7.5h204.3C229.8,750.3,233.2,753.7,233.2,757.8z"/>
	<path class="st7" d="M200.8,731.3v-3.8c0-2.2,1.8-3.9,3.9-3.9h1.6c2.2,0,3.9,1.8,3.9,3.9v3.8c0,0.7-0.5,1.2-1.2,1.2h-7
		C201.3,732.5,200.8,731.9,200.8,731.3z"/>
	<path class="st7" d="M185.5,731.3v-3.8c0-2.2,1.8-3.9,3.9-3.9h1.6c2.2,0,3.9,1.8,3.9,3.9v3.8c0,0.7-0.5,1.2-1.2,1.2h-7
		C186,732.5,185.5,731.9,185.5,731.3z"/>
	<path class="st7" d="M170.2,731.3v-3.8c0-2.2,1.8-3.9,3.9-3.9h1.6c2.2,0,3.9,1.8,3.9,3.9v3.8c0,0.7-0.5,1.2-1.2,1.2h-7
		C170.7,732.5,170.2,731.9,170.2,731.3z"/>
	<path class="st7" d="M68,731.3v-3.8c0-2.2,1.8-3.9,3.9-3.9h1.6c2.2,0,3.9,1.8,3.9,3.9v3.8c0,0.7-0.5,1.2-1.2,1.2h-7
		C68.5,732.5,68,731.9,68,731.3z"/>
	<path class="st7" d="M52.7,731.3v-3.8c0-2.2,1.8-3.9,3.9-3.9h1.6c2.2,0,3.9,1.8,3.9,3.9v3.8c0,0.7-0.5,1.2-1.2,1.2h-7
		C53.2,732.5,52.7,731.9,52.7,731.3z"/>
	<path class="st7" d="M37.4,731.3v-3.8c0-2.2,1.8-3.9,3.9-3.9h1.6c2.2,0,3.9,1.8,3.9,3.9v3.8c0,0.7-0.5,1.2-1.2,1.2h-7
		C37.9,732.5,37.4,731.9,37.4,731.3z"/>
	<path class="st7" d="M147.8,708.3v-4c0-1.9-1.6-3.5-3.5-3.5h-41.5c-1.9,0-3.5,1.6-3.5,3.5v4c0,1.9,1.6,3.5,3.5,3.5h41.5
		C146.2,711.8,147.8,710.2,147.8,708.3z"/>
	<path class="st23" d="M146.5,702.9L146.5,702.9c0-0.8-0.6-1.3-1.4-1.3h-43.3c-0.8,0-1.4,0.6-1.4,1.3l0,0c0,0.8,0.6,1.3,1.4,1.3
		h43.3C145.9,704.3,146.5,703.7,146.5,702.9z"/>
	<path class="st13" d="M147.8,704.2v4c0,1.9-1.6,3.5-3.5,3.5h-41.5c-1.9,0-3.5-1.6-3.5-3.5v-4c0-0.7,0.2-1.3,0.5-1.8
		c0,0,0,0.1,0,0.1v3.4c0,1.8,1.5,3.3,3.3,3.3H144c1.8,0,3.3-1.5,3.3-3.3v-3.4c0,0,0-0.1,0-0.1C147.6,702.9,147.8,703.5,147.8,704.2z
		"/>
	<rect x="106.4" y="776.2" class="st50" width="34.3" height="76.2"/>
	<rect x="173" y="776.2" class="st50" width="34.3" height="76.2"/>
	<rect x="40.3" y="776.2" class="st50" width="34.3" height="76.2"/>
</g>
</svg>
