<?xml version="1.0" encoding="utf-8"?>
<!-- Generator: Adobe Illustrator 23.0.1, SVG Export Plug-In . SVG Version: 6.00 Build 0)  -->
<svg version="1.1" id="Capa_1" xmlns="http://www.w3.org/2000/svg" xmlns:xlink="http://www.w3.org/1999/xlink" x="0px" y="0px"
	 viewBox="0 0 512 512" style="enable-background:new 0 0 512 512;" xml:space="preserve">
<style type="text/css">
	.st0{fill:#FFFFFF;}
</style>
<g>
	<path class="st0" d="M488.5,78.4l-89.1-37.1c-9.8-4.1-21-4.1-30.8,0l-42.8,17.8c-3.8,1.6-5.6,6-4,9.8s6,5.6,9.8,4l42.8-17.8
		c6.1-2.5,13.1-2.5,19.2,0l89.1,37.1c8.7,3.6,14.3,11.7,14.3,20.7v320.8c0,12.5-10.7,22.6-23.9,22.6H461c-4.1,0-7.5,3.4-7.5,7.5
		s3.4,7.5,7.5,7.5h12.2c21.4,0,38.9-16.9,38.9-37.6V112.9C512,97.9,502.8,84.3,488.5,78.4z"/>
	<path class="st0" d="M428.3,456.3h-126c5.2-5.9,8-13.4,8-21.3c0-7.9-2.9-15.1-7.6-20.8c3-1.5,5.7-3.5,8.2-6
		c6.1-6.1,9.4-14.2,9.4-22.8c0-8.2-3.1-15.7-8.2-21.4c2.5-1.4,4.9-3.2,6.9-5.3c6.1-6.1,9.4-14.2,9.4-22.8c0-8.2-3.1-15.7-8.1-21.4
		c2.6-1.4,4.9-3.2,7.1-5.3c6.1-6.1,9.4-14.2,9.4-22.8c0-17.8-14.5-32.3-32.3-32.3H271V112.9c0-9,5.6-17.1,14.3-20.7l13.6-5.7
		c3.8-1.6,5.6-6,4-9.8c-1.6-3.8-6-5.6-9.8-4l-13.6,5.7c-14.3,6-23.5,19.5-23.5,34.6v141.2h-31.3c10.4-33,9.5-67.4-2.6-107.3
		c-1.9-6-5.5-11.2-10.6-15c-5.1-3.7-11.1-5.7-17.4-5.7c-8.1,0-15.7,3.3-21.3,9.2c-5.6,5.9-8.5,13.6-8,21.7
		c2.3,45.1-18.5,60.6-47.2,82.1c-9.5,7.1-19.8,14.8-30,24.3v-9.8c0-4.1-3.4-7.5-7.5-7.5H7.5c-4.1,0-7.5,3.4-7.5,7.5v212.7
		c0,4.1,3.4,7.5,7.5,7.5h72.4c4.1,0,7.5-3.4,7.5-7.5v-18.9c14.2,1.4,24.6,4.2,34.8,11.9c6.6,5.1,14.8,7.9,23,7.9h132.3
		c5.4,2.6,11.4,4,17.5,4h133.3c4.1,0,7.5-3.4,7.5-7.5S432.4,456.3,428.3,456.3L428.3,456.3z M131.3,447.5
		c-14.1-10.8-29.3-13.8-43.9-15.1v-87.6c0-4.1-3.4-7.5-7.5-7.5s-7.5,3.4-7.5,7.5v114H15V261.1h57.4v51c0,4.1,3.4,7.5,7.5,7.5
		s7.5-3.4,7.5-7.5v-27.4c12.5-13.8,26-23.9,39-33.6c28.8-21.5,56-41.8,53.3-94.9c-0.2-4,1.2-7.8,3.9-10.6c2.7-2.9,6.4-4.5,10.4-4.5
		c3.1,0,6.1,1,8.6,2.8c2.5,1.8,4.3,4.3,5.2,7.3c12.4,40.7,12.2,74.9-0.6,107.7c-0.9,2.3-0.6,4.9,0.8,7s3.7,3.3,6.2,3.3h90.6
		c9.5,0,17.3,7.7,17.3,17.3c0,4.6-1.8,8.9-5,12.2c-3.3,3.3-7.6,5.1-12.2,5.1h-30.8c-4.1,0-7.5,3.4-7.5,7.5s3.4,7.5,7.5,7.5h22.4
		c9.5,0,17.3,7.7,17.3,17.3c0,4.6-1.8,8.9-5.1,12.2c-3.3,3.3-7.6,5.1-12.2,5.1h-22.4c-4.1,0-7.5,3.4-7.5,7.5s3.4,7.5,7.5,7.5h14.2
		c9.5,0,17.3,7.7,17.3,17.3c0,4.6-1.8,8.9-5.1,12.2c-3.3,3.3-7.6,5.1-12.2,5.1h-10h-12.4c-4.1,0-7.5,3.4-7.5,7.5s3.4,7.5,7.5,7.5
		H278c9.5,0,17.3,7.7,17.3,17.3c0,4.6-1.8,9-5,12.2c-3,3-7.9,5-11.5,5c-0.2,0-133.6,0-133.6,0C140.3,452.3,135.3,450.6,131.3,447.5
		L131.3,447.5z"/>
	<path class="st0" d="M411.1,116.3c0-15.8-12.8-28.6-28.6-28.6s-28.6,12.8-28.6,28.6s12.8,28.6,28.6,28.6S411.1,132,411.1,116.3z
		 M368.9,116.3c0-7.5,6.1-13.6,13.6-13.6s13.6,6.1,13.6,13.6s-6.1,13.6-13.6,13.6S368.9,123.7,368.9,116.3z"/>
	<path class="st0" d="M387.2,372.2h-13.5c-7.1,0-12.8-5.8-12.8-12.9c0-4.1-3.4-7.5-7.5-7.5s-7.5,3.4-7.5,7.5
		c0,15.1,12.1,27.4,27.1,27.8v16.6c0,4.1,3.4,7.5,7.5,7.5s7.5-3.4,7.5-7.5v-16.6c15-0.4,27.1-12.7,27.1-27.8v-10.4
		c0-9.6-6.2-18.1-15.3-21.1l-33.9-11c-3-1-5-3.7-5-6.8v-14.9c0-5.8,4.7-10.4,10.4-10.4h18.3c5.8,0,10.4,4.7,10.4,10.4
		c0,4.1,3.4,7.5,7.5,7.5s7.5-3.4,7.5-7.5c0-14-11.4-25.4-25.4-25.4H388v-16.6c0-4.1-3.4-7.5-7.5-7.5s-7.5,3.4-7.5,7.5v16.6h-1.6
		c-14,0-25.4,11.4-25.4,25.4V310c0,9.6,6.2,18.1,15.3,21.1l33.9,11c3,1,5,3.7,5,6.8v10.4C400,366.4,394.3,372.2,387.2,372.2
		L387.2,372.2z"/>
</g>
</svg>
