<?xml version="1.0" encoding="utf-8"?>
<!-- Generator: Adobe Illustrator 23.0.1, SVG Export Plug-In . SVG Version: 6.00 Build 0)  -->
<svg version="1.1" id="Layer_1" xmlns="http://www.w3.org/2000/svg" xmlns:xlink="http://www.w3.org/1999/xlink" x="0px" y="0px"
	 viewBox="0 0 512 512" style="enable-background:new 0 0 512 512;" xml:space="preserve">
<style type="text/css">
	.st0{fill:#FFFFFF;}
</style>
<path class="st0" d="M432,280c0-13.6-14.4-24-32-24s-32,10.4-32,24v24l-39.2-16.8c9.6-8.8,16-20,20-32l21.6-11.2
	c8-4,13.6-12,13.6-21.6V208c0-13.6-10.4-24-24-24h-3.2l-4.8,4.8V168h16v-24c0-49.6-32.8-93.6-80-107.2c-1.6-12-12-20.8-24-20.8h-16
	c-12,0-22.4,8.8-24,20.8c-47.2,13.6-80,57.6-80,107.2v24h16v20.8l-4.8-4.8H152c-13.6,0-24,10.4-24,24v14.4c0,8.8,4.8,17.6,13.6,21.6
	l21.6,11.2c4,12,10.4,23.2,20,32L116.8,316c-32,14.4-52.8,45.6-52.8,80.8V496h400V263.2L432,308V280z M384,374.4v-73.6
	c10.4,4,21.6,4,32,0v28.8L384,374.4z M400,272c9.6,0,16,4.8,16,8s-6.4,8-16,8s-16-4.8-16-8S390.4,272,400,272z M368,341.6L316,380
	c-4,2.4-9.6,4-14.4,4h-27.2l2.4-9.6c0.8-3.2,4-6.4,8-6.4H296c12.8,0,24.8-6.4,32.8-16.8l25.6-36l14.4,6.4v20H368z M261.6,370.4
	l-5.6,20.8l-5.6-20.8c-2.4-11.2-12-18.4-23.2-18.4H216c-8,0-15.2-4-19.2-10.4l-24-33.6l24.8-11.2l23.2,12.8c21.6,12,47.2,12,68.8,0
	l23.2-12.8l24.8,11.2l-24,33.6c-4.8,6.4-12,10.4-19.2,10.4h-11.2C273.6,352,264,359.2,261.6,370.4L261.6,370.4z M237.6,384h-27.2
	c-4.8,0-10.4-1.6-14.4-4.8l-69.6-50.4l31.2-13.6l25.6,36c7.2,10.4,20,16.8,32.8,16.8h11.2c4,0,7.2,2.4,8,6.4L237.6,384z
	 M363.2,200.8c3.2,0.8,4.8,4,4.8,7.2v14.4c0,3.2-1.6,5.6-4.8,7.2l-11.2,5.6v-0.8V212L363.2,200.8z M161.6,152c3.2-9.6,12-16,22.4-16
	h144c10.4,0,19.2,6.4,22.4,16H161.6z M224,53.6V104h16V40c0-4.8,3.2-8,8-8h16c4.8,0,8,3.2,8,8v64h16V53.6
	c32.8,11.2,56.8,39.2,62.4,73.6C344,122.4,336,120,328,120H184c-8,0-16,2.4-22.4,7.2C167.2,92.8,191.2,64.8,224,53.6z M148.8,229.6
	c-2.4-1.6-4.8-4-4.8-7.2V208c0-3.2,2.4-6.4,4.8-7.2L160,212v22.4v0.8L148.8,229.6z M176,234.4V168h160v66.4
	c0,20.8-11.2,39.2-28.8,48.8l-24,12.8c-16.8,8.8-36.8,8.8-53.6,0l-24-12.8C187.2,273.6,176,254.4,176,234.4L176,234.4z M80,396
	c0-24,12-45.6,31.2-59.2l76,55.2c7.2,4.8,15.2,8,23.2,8H248v80h-24v-64h-57.6l-6.4-25.6l-16,3.2l5.6,22.4H136v64H80V396z M208,432
	v16h-56v-16H208z M152,464h56v16h-56V464z M264,480v-80h37.6c8.8,0,16.8-2.4,23.2-8l43.2-31.2V396l-60,84H264z M448,312.8V480H328
	l104-144v-0.8L448,312.8z"/>
<path class="st0" d="M432,464V357.6L360.8,464H432z M416,448h-24.8l24.8-37.6V448z"/>
</svg>
