<?xml version="1.0" encoding="utf-8"?>
<!-- Generator: Adobe Illustrator 23.0.1, SVG Export Plug-In . SVG Version: 6.00 Build 0)  -->
<svg version="1.1" id="Layer_1" xmlns="http://www.w3.org/2000/svg" xmlns:xlink="http://www.w3.org/1999/xlink" x="0px" y="0px"
	 viewBox="0 0 200 144" style="enable-background:new 0 0 200 144;" xml:space="preserve">
<style type="text/css">
	.st0{fill:#3C3C4E;}
	.st1{opacity:0.2;fill:#FFFFFF;}
	.st2{opacity:0.15;}
	.st3{fill:#F7941E;}
	.st4{opacity:0.2;}
	.st5{fill:#FFFFFF;}
	.st6{fill:#BABEC0;}
	.st7{fill:#F15A29;}
</style>
<g>
	<path class="st7" d="M166,42.3c2.4-0.4,5.6,2,6.9,3.1c0.4,0.3,1,0.2,1.2-0.2c0.8-1.3,2-3.9,0.8-6.6C173.2,35,166,42.3,166,42.3z"/>
	<path class="st2" d="M174.9,38.7c-1.7-3.7-8.9,3.7-8.9,3.7c0.9-0.2,1.9,0.1,2.8,0.5l0,0c2.2-0.6,5.4,0.2,6,1.1
		C175.4,42.5,175.8,40.6,174.9,38.7z"/>
	<g>
		
			<rect x="92.4" y="45.8" transform="matrix(0.9063 -0.4226 0.4226 0.9063 -10.7509 45.9184)" class="st0" width="11.6" height="2.7"/>
		<g>
			<path class="st6" d="M10.5,75.1c0,0,0.6,0.9,1.2,1.8c0.6,0.9,1.2,1.7,1.2,1.7l0,0l0,0c0,0-1,0.1-2.1,0.3c-1,0.2-2.1,0.4-2.1,0.4
				s0.7,0.9,1.3,1.7c0.7,0.8,1.4,1.6,1.4,1.6s-0.3,0.1-0.6,0.1c-0.4,0.1-0.9,0.2-1.4,0.3c-1,0.3-2.1,0.6-2.1,0.6s0.2,0.2,0.5,0.5
				c0.3,0.3,0.7,0.7,1,1c0.8,0.7,1.5,1.4,1.5,1.4l0,0c0,0-0.2,0.1-0.6,0.2c-0.4,0.1-0.9,0.3-1.4,0.5c-1,0.4-2,0.8-2,0.8
				s0.2,0.2,0.5,0.4c0.3,0.3,0.7,0.6,1.1,0.9c0.8,0.7,1.7,1.3,1.7,1.3l0,0c0,0-0.2,0.1-0.6,0.3c-0.4,0.2-0.8,0.4-1.3,0.6
				c-1,0.5-1.9,1-1.9,1s0.2,0.2,0.5,0.4c0.3,0.2,0.8,0.5,1.2,0.8c0.9,0.6,1.8,1.1,1.8,1.1s-0.9,0.5-1.8,1.1
				c-0.9,0.5-1.8,1.1-1.8,1.1s0.9,0.5,1.9,1c0.5,0.2,0.9,0.5,1.3,0.6c0.4,0.2,0.6,0.3,0.6,0.3l0,0c0,0-0.9,0.6-1.7,1.2
				c-0.4,0.3-0.8,0.7-1.2,0.9c-0.3,0.3-0.5,0.4-0.5,0.4s1,0.4,2,0.8c0.5,0.2,1,0.4,1.3,0.5c0.4,0.1,0.6,0.2,0.6,0.2l0,0
				c0,0-0.8,0.7-1.6,1.4c-0.4,0.4-0.8,0.7-1.1,1c-0.3,0.3-0.5,0.5-0.5,0.5s1,0.3,2,0.6c0.5,0.1,1,0.3,1.4,0.4
				c0.4,0.1,0.6,0.2,0.6,0.2s-0.7,0.7-1.4,1.5c-0.7,0.8-1.4,1.6-1.4,1.6s1.1,0.2,2.1,0.4c1,0.2,2.1,0.3,2.1,0.3s-0.6,0.8-1.3,1.7
				c-0.6,0.9-1.2,1.7-1.2,1.7s1.1,0.1,2.1,0.2c0.5,0,1,0.1,1.4,0.1c0.4,0,0.7,0,0.7,0s-0.6,0.9-1.1,1.8c-0.3,0.5-0.5,0.9-0.7,1.3
				c-0.2,0.4-0.3,0.6-0.3,0.6s1.1,0,2.1,0c1.1,0,2.1-0.1,2.1-0.1s-0.5,0.9-0.9,1.9c-0.4,1-0.8,1.9-0.8,1.9s1.1-0.1,2.1-0.2
				c1.1-0.1,2.1-0.3,2.1-0.3s-0.4,1-0.7,2c-0.3,1-0.6,2-0.6,2s1.1-0.2,2.1-0.4c1-0.2,2.1-0.5,2.1-0.5s-0.3,1-0.5,2
				c-0.2,1-0.4,2.1-0.4,2.1s1-0.3,2-0.6c1-0.3,2-0.7,2-0.7s-0.2,1-0.3,2.1c-0.1,1-0.2,2.1-0.2,2.1s1-0.4,2-0.8
				c1-0.4,1.9-0.9,1.9-0.9s-0.1,1-0.1,2.1c0,1,0,2.1,0,2.1s0.9-0.5,1.9-1c0.9-0.5,1.8-1.1,1.8-1.1s0,1,0.1,2.1
				c0.1,1,0.2,2.1,0.2,2.1s0.9-0.6,1.8-1.2c0.9-0.6,1.7-1.3,1.7-1.3s0.1,1,0.3,2.1c0.2,1,0.4,2.1,0.4,2.1s0.8-0.7,1.6-1.4
				c0.8-0.7,1.6-1.4,1.6-1.4s0.2,1,0.5,2c0.3,1,0.6,2,0.6,2s0.8-0.7,1.5-1.5c0.7-0.8,1.4-1.6,1.4-1.6s0.3,1,0.7,2c0.4,1,0.8,2,0.8,2
				s0.7-0.8,1.3-1.7c0.6-0.8,1.2-1.7,1.2-1.7s0.4,1,0.9,1.9c0.5,0.9,1,1.9,1,1.9s0.6-0.9,1.2-1.8c0.6-0.9,1.1-1.8,1.1-1.8
				s0.5,0.9,1.1,1.8c0.6,0.9,1.2,1.8,1.2,1.8s0.5-0.9,1-1.9c0.5-1,0.9-1.9,0.9-1.9s0.6,0.9,1.3,1.7c0.7,0.8,1.4,1.6,1.4,1.6
				s0.4-1,0.8-2c0.4-1,0.7-2,0.7-2s0.2,0.2,0.4,0.5c0.3,0.3,0.6,0.7,1,1.1c0.7,0.8,1.5,1.5,1.5,1.5s0.1-0.3,0.2-0.6
				c0.1-0.4,0.3-0.9,0.4-1.4c0.3-1,0.5-2,0.5-2l0,0c0,0,0.8,0.7,1.6,1.4c0.8,0.7,1.7,1.3,1.7,1.3s0.2-1,0.4-2.1
				c0.2-1.1,0.3-2.1,0.3-2.1l0,0c0,0,0.8,0.6,1.7,1.2c0.9,0.6,1.8,1.2,1.8,1.2s0-0.3,0.1-0.7c0-0.4,0.1-0.9,0.1-1.5
				c0.1-1.1,0.1-2.1,0.1-2.1l0,0c0,0,0.2,0.1,0.6,0.3c0.3,0.2,0.8,0.4,1.3,0.7c0.9,0.5,1.9,1,1.9,1s0-0.3,0-0.7c0-0.4,0-0.9,0-1.5
				c0-1.1-0.1-2.1-0.1-2.1s0.2,0.1,0.6,0.3c0.4,0.2,0.8,0.4,1.3,0.6c1,0.4,2,0.8,2,0.8s0-0.3-0.1-0.7c-0.1-0.4-0.1-0.9-0.2-1.5
				c-0.2-1-0.3-2.1-0.3-2.1l0,0c0,0,1,0.3,2,0.7c1,0.3,2.1,0.6,2.1,0.6s-0.2-1.1-0.5-2.1c-0.1-0.5-0.3-1-0.4-1.4
				c-0.1-0.4-0.2-0.6-0.2-0.6s1,0.2,2,0.5c0.5,0.1,1,0.2,1.4,0.3c0.4,0.1,0.7,0.1,0.7,0.1s-0.3-1-0.7-2c-0.2-0.5-0.4-1-0.5-1.4
				c-0.1-0.4-0.2-0.6-0.2-0.6s1,0.1,2.1,0.3c0.5,0,1.1,0.1,1.5,0.1c0.4,0,0.7,0,0.7,0s-0.4-1-0.9-1.9c-0.2-0.5-0.5-0.9-0.6-1.3
				c-0.2-0.3-0.3-0.6-0.3-0.6l0,0c0,0,1,0,2.1,0c0.5,0,1.1,0,1.5,0c0.4,0,0.7,0,0.7,0s-0.5-0.9-1.1-1.8c-0.5-0.9-1.1-1.8-1.1-1.8
				l0,0c0,0,1-0.1,2.1-0.2c1.1-0.1,2.1-0.2,2.1-0.2s-0.6-0.9-1.3-1.7c-0.6-0.8-1.3-1.7-1.3-1.7l0,0c0,0,1-0.2,2.1-0.4
				c1-0.2,2.1-0.5,2.1-0.5s-0.2-0.2-0.4-0.5c-0.3-0.3-0.6-0.7-1-1.1c-0.7-0.8-1.4-1.5-1.4-1.5l0,0c0,0,0.3-0.1,0.6-0.2
				c0.4-0.1,0.9-0.3,1.4-0.4c1-0.3,2-0.7,2-0.7s-0.2-0.2-0.5-0.5c-0.3-0.3-0.7-0.6-1.1-1c-0.8-0.7-1.6-1.4-1.6-1.4s0.2-0.1,0.6-0.2
				c0.4-0.1,0.9-0.3,1.3-0.5c1-0.4,2-0.9,2-0.9s-0.2-0.2-0.5-0.4c-0.3-0.2-0.7-0.6-1.2-0.9c-0.9-0.6-1.7-1.2-1.7-1.2
				s0.2-0.1,0.6-0.3c0.3-0.2,0.8-0.4,1.3-0.7c0.9-0.5,1.9-1.1,1.9-1.1s-0.9-0.6-1.8-1.1c-0.9-0.5-1.8-1-1.8-1s0.9-0.5,1.8-1.1
				c0.4-0.3,0.9-0.6,1.2-0.8c0.3-0.2,0.5-0.4,0.5-0.4s-1-0.5-1.9-0.9c-0.5-0.2-1-0.4-1.3-0.6c-0.4-0.1-0.6-0.2-0.6-0.2l0,0
				c0,0,0.8-0.6,1.6-1.3c0.4-0.3,0.8-0.7,1.1-1c0.3-0.3,0.5-0.4,0.5-0.4s-1-0.4-2-0.7c-0.5-0.2-1-0.3-1.4-0.4
				c-0.4-0.1-0.6-0.2-0.6-0.2l0,0c0,0,0.8-0.7,1.5-1.5c0.4-0.4,0.7-0.8,1-1.1c0.3-0.3,0.4-0.5,0.4-0.5s-1-0.3-2.1-0.5
				c-1-0.2-2.1-0.4-2.1-0.4l0,0c0,0,0.7-0.8,1.3-1.6c0.7-0.8,1.3-1.7,1.3-1.7s-1.1-0.2-2.1-0.3c-1-0.1-2.1-0.2-2.1-0.2
				s0.6-0.8,1.2-1.7c0.3-0.4,0.6-0.9,0.8-1.2c0.2-0.3,0.3-0.6,0.3-0.6s-1.1-0.1-2.1-0.1c-0.5,0-1.1,0-1.5,0c-0.4,0-0.7,0-0.7,0l0,0
				c0,0,0.5-0.9,1-1.9c0.5-0.9,0.9-1.9,0.9-1.9s-1.1,0-2.1,0.1c-1.1,0.1-2.1,0.2-2.1,0.2s0.4-1,0.8-1.9c0.4-1,0.7-2,0.7-2
				s-1.1,0.1-2.1,0.3c-1.1,0.2-2.1,0.4-2.1,0.4s0.3-1,0.6-2c0.3-1,0.5-2.1,0.5-2.1s-1,0.2-2.1,0.5c-1,0.3-2,0.6-2,0.6s0.2-1,0.4-2.1
				c0.2-1,0.3-2.1,0.3-2.1s-1,0.3-2,0.7c-1,0.4-2,0.8-2,0.8s0.1-1,0.2-2.1c0.1-1,0.1-2.1,0.1-2.1s-1,0.4-1.9,0.9c-1,0.5-1.9,1-1.9,1
				s0-1.1,0-2.1c0-1-0.1-2.1-0.1-2.1s-0.9,0.5-1.8,1.1c-0.9,0.6-1.8,1.2-1.8,1.2s-0.1-1-0.2-2.1c-0.1-1-0.3-2.1-0.3-2.1
				s-0.9,0.6-1.7,1.3c-0.8,0.7-1.6,1.3-1.6,1.3s-0.2-1-0.4-2.1c-0.2-1-0.5-2.1-0.5-2.1s-0.8,0.7-1.6,1.4c-0.8,0.7-1.5,1.5-1.5,1.5
				s-0.3-1-0.6-2c-0.3-1-0.7-2-0.7-2s-0.7,0.8-1.4,1.6c-0.7,0.8-1.3,1.6-1.3,1.6s-0.4-1-0.8-1.9c-0.4-1-0.9-1.9-0.9-1.9
				s-0.6,0.9-1.2,1.7c-0.6,0.9-1.2,1.8-1.2,1.8s-0.5-0.9-1-1.9c-0.5-0.9-1.1-1.8-1.1-1.8S50,51,49.5,51.9c-0.5,0.9-1,1.9-1,1.9
				s-0.6-0.9-1.2-1.7c-0.6-0.8-1.3-1.7-1.3-1.7s-0.5,1-0.9,1.9c-0.4,1-0.8,2-0.8,2s-0.7-0.8-1.4-1.6c-0.7-0.8-1.4-1.6-1.4-1.6
				s-0.1,0.3-0.2,0.6c-0.1,0.4-0.3,0.9-0.5,1.4c-0.3,1-0.6,2-0.6,2l0,0c0,0-0.2-0.2-0.5-0.5c-0.3-0.3-0.7-0.7-1-1
				c-0.8-0.7-1.6-1.4-1.6-1.4s-0.3,1-0.5,2.1c-0.2,1-0.4,2.1-0.4,2.1l0,0l0,0l0,0c0,0-0.8-0.7-1.6-1.3c-0.8-0.6-1.7-1.3-1.7-1.3
				s-0.2,1-0.3,2.1C32.7,57,32.6,58,32.6,58s-0.2-0.1-0.5-0.4c-0.3-0.2-0.8-0.5-1.2-0.8c-0.9-0.6-1.8-1.1-1.8-1.1s0,0.3,0,0.7
				c0,0.4,0,0.9,0,1.5c0,1.1,0,2.1,0,2.1l0,0c0,0-0.2-0.1-0.6-0.3c-0.4-0.2-0.8-0.4-1.3-0.6c-0.9-0.5-1.9-0.9-1.9-0.9s0,0.3,0,0.7
				c0,0.4,0.1,0.9,0.1,1.5c0.1,1.1,0.2,2.1,0.2,2.1s-0.2-0.1-0.6-0.2c-0.4-0.1-0.9-0.3-1.3-0.5c-1-0.4-2-0.7-2-0.7s0.2,1.1,0.4,2.1
				c0.2,1,0.4,2,0.4,2s-1-0.3-2-0.6c-0.5-0.1-1-0.3-1.4-0.3c-0.4-0.1-0.7-0.1-0.7-0.1s0.3,1,0.6,2.1c0.2,0.5,0.3,1,0.4,1.4
				c0.1,0.4,0.2,0.6,0.2,0.6l0,0c0,0-1-0.2-2.1-0.4c-0.5-0.1-1.1-0.1-1.5-0.2c-0.4,0-0.7-0.1-0.7-0.1s0.4,1,0.8,2
				c0.2,0.5,0.4,1,0.6,1.3c0.2,0.4,0.3,0.6,0.3,0.6l0,0c0,0-1-0.1-2.1-0.1c-0.5,0-1.1,0-1.5-0.1c-0.4,0-0.7,0-0.7,0s0.5,1,1,1.9
				c0.3,0.5,0.5,0.9,0.7,1.3c0.2,0.3,0.3,0.6,0.3,0.6s-1,0-2.1,0.1C11.6,75,10.5,75.1,10.5,75.1z M53.5,89.7c3.1,1.4,4.5,5,3.1,8.1
				c-1.4,3.1-5,4.5-8.1,3.1c-3.1-1.4-4.5-5-3.1-8.1C46.7,89.8,50.4,88.4,53.5,89.7z"/>
			<path class="st1" d="M67.3,55.7c0.1,1,0.2,2,0.2,2l0.2,2.2l1.8-1.3c0,0,0.8-0.6,1.7-1.2c0,0,0,0,0,0c0,0,0,0,0,0c0,1,0,2,0,2
				l-0.1,2.2l1.9-1.1c0,0,0.9-0.5,1.8-1c0,0,0,0,0,0c0,0,0,0,0,0c-0.1,1-0.2,2-0.2,2L74.3,64l2-0.9c0,0,0.9-0.4,1.9-0.8c0,0,0,0,0,0
				c0,0,0,0,0,0c-0.2,1-0.4,2-0.4,2l-0.5,2.1l2.1-0.7c0,0,1-0.3,2-0.6c0,0,0,0,0,0c0,0,0,0,0,0c-0.3,1-0.6,1.9-0.6,2l-0.8,2.5
				l2.4-0.9c0.3-0.1,1.1-0.2,1.9-0.4c0,0,0,0,0,0c0,0,0,0,0,0c-0.4,1-0.8,1.9-0.8,1.9l-0.9,2l2.2-0.3c0,0,1-0.1,2-0.2c0,0,0,0,0,0
				c0,0,0,0,0,0c-0.5,0.9-1,1.8-1,1.8l-1.1,1.9l2.8,0c0.4,0,0.9,0,1.4,0c0,0,0,0,0,0c0,0,0,0,0,0c-0.6,0.9-1.2,1.7-1.2,1.7L86.5,79
				l2.2,0.2c0,0,1,0.1,2,0.2c0,0,0,0,0,0c-0.6,0.7-1.2,1.4-1.3,1.6l-0.1,0.1l-0.6,1.3l1.3,0.6l0.1,0c0.1,0,1.1,0.2,2,0.4
				c0,0,0,0,0,0c0,0,0,0,0,0c-0.7,0.7-1.5,1.4-1.5,1.4l-1.4,1.3l1.7,0.8c0,0,0.1,0,0.3,0.1l0.5,0.1l1.3,0.4l0,0
				c-0.8,0.6-1.6,1.3-1.6,1.3l-1.7,1.3l2.6,1.1l1.3,0.6l0,0c-0.8,0.6-1.7,1.1-1.7,1.1L90.1,94l1.9,1c0,0,0.9,0.5,1.8,1c0,0,0,0,0,0
				c0,0-1.3,0.7-1.3,0.7l-2.5,1.2l1.8,1.2c0,0,0.9,0.6,1.7,1.2l0,0c0,0-1.3,0.5-1.3,0.5l-2.6,1l1.7,1.4c0,0,0.8,0.7,1.6,1.3l0,0
				c0,0-1.4,0.4-1.4,0.4l-1.2,0.3l-0.6,1.3l0.6,0.6c0.1,0.1,0.8,0.8,1.4,1.5l0,0c0,0,0,0,0,0c-1,0.2-2,0.4-2,0.4l-0.7,0.1l-0.6,1.3
				l0.5,0.6c0.1,0.1,0.7,0.8,1.2,1.6c0,0,0,0,0,0c0,0,0,0,0,0c-1,0.1-2,0.2-2,0.2l-0.8,0l-0.6,1.3l0.4,0.6c0.1,0.1,0.6,0.9,1.1,1.7
				c0,0,0,0,0,0l0,0c-1,0-2,0-2,0l-0.8,0l-0.3,0.8c-0.2,0.5-0.1,0.8,0.3,1.7L86,120l0,0c-1-0.1-2-0.2-2-0.2l-2.1-0.3l1,2.6l0.5,1.3
				l0,0c-1-0.2-2-0.4-2-0.4l-2.1-0.5l0.8,2.7c0,0,0.4,1.4,0.4,1.4c0,0,0,0,0,0c-1-0.3-1.9-0.6-1.9-0.6l-2-0.7l0.4,2.1
				c0,0,0.2,1,0.3,2l0,0c0,0-1.3-0.6-1.3-0.6l-2.5-1.2l0.2,2.1c0,0,0.1,1,0.1,2l0,0c0,0-1.3-0.7-1.3-0.7l-0.4-0.3
				c-0.2-0.1-0.3-0.1-0.3-0.1l-1.1-0.5l-0.6,1.4l0,0.3c0,0.1,0,1.1-0.1,2c0,0,0,0,0,0c0,0,0,0,0,0c-0.8-0.5-1.6-1.1-1.7-1.2
				l-0.1-0.1l-1.3-0.6l-0.6,1.3l0,0.2c0,0.1-0.1,1-0.3,2c0,0,0,0,0,0c0,0,0,0,0,0c-0.8-0.6-1.5-1.3-1.5-1.3l-1.6-1.5l-0.5,2.1
				c0,0-0.2,1-0.5,2c0,0,0,0,0,0c0,0,0,0,0,0c-0.4-0.4-0.7-0.7-1-1l-1.9-2.1l-0.7,2.1c0,0-0.3,1-0.7,1.9c0,0,0,0,0,0c0,0,0,0,0,0
				c-0.6-0.8-1.2-1.6-1.2-1.6l-1.3-1.8l-0.9,2c0,0-0.4,1-0.9,1.9c0,0,0,0,0,0c0,0,0,0,0,0c-0.5-0.9-1.1-1.7-1.1-1.8l-1.1-1.9
				l-1.1,1.9c0,0-0.5,0.9-1,1.8c0,0,0,0,0,0c0,0,0,0,0,0c-0.5-0.9-0.9-1.8-0.9-1.9l-0.9-2l-1.2,1.8c0,0-0.6,0.9-1.2,1.7c0,0,0,0,0,0
				c0,0,0,0,0,0c-0.4-1-0.7-1.9-0.7-1.9l-0.7-2.1l-1.4,1.7c0,0-0.7,0.8-1.4,1.5c0,0,0,0,0,0c0,0,0,0,0,0c-0.2-0.6-0.3-1.2-0.4-1.6
				l1-2.3l-3,1.1l-0.2,0.2c-0.1,0.1-0.8,0.8-1.5,1.4c0,0,0,0,0,0c0,0,0,0,0,0c-0.2-1-0.3-2-0.3-2l-0.3-2.2l-1.7,1.3
				c0,0-0.8,0.6-1.7,1.2c0,0,0,0,0,0c0,0,0,0,0,0c-0.1-1-0.1-2-0.1-2l0-0.8l-1.3-0.6l-0.6,0.4c-0.1,0.1-0.9,0.6-1.8,1.1c0,0,0,0,0,0
				c0,0,0,0,0,0c0-1,0.1-2,0.1-2l0.2-2.2l-2,1c0,0-0.9,0.5-1.9,0.9c0,0,0,0,0,0c0,0,0,0,0,0c0.1-1,0.3-2,0.3-2l0.4-2.1l-2,0.8
				c0,0-1,0.4-1.9,0.7c0,0,0,0,0,0c0,0,0,0,0,0c0.2-1,0.5-2,0.5-2l0.6-2.1l-2.1,0.6c0,0-1,0.3-2,0.5c0,0,0,0,0,0c0,0,0,0,0,0
				c0.3-1,0.7-1.9,0.7-1.9l0.8-2l-2.1,0.4c0,0-1,0.2-2,0.3c0,0,0,0,0,0c0,0,0,0,0,0c0.4-0.9,0.9-1.8,0.9-1.9l1-1.9l-2.2,0.2
				c0,0-1,0.1-2,0.1c0,0,0,0,0,0c0.5-0.9,1.1-1.8,1.1-1.8l1.2-1.8l-2.8-0.1c-0.4,0-0.9,0-1.4-0.1c0,0,0,0,0,0
				c0.6-0.8,1.2-1.6,1.2-1.6l0.1-0.1l0.7-1.7l-1.6-0.2c0,0-1-0.1-2-0.3c0,0,0,0,0,0c0.7-0.8,1.4-1.5,1.4-1.5l1.5-1.6l-2.7-0.7
				c-0.4-0.1-0.8-0.2-1.3-0.4c0,0,0,0,0,0l0,0c0.7-0.7,1.5-1.3,1.5-1.4l1.6-1.4l-2.6-0.9l-1.3-0.5l0,0c0.8-0.6,1.6-1.2,1.6-1.2
				l1.8-1.2l-2.5-1.2l-1.3-0.6c0,0,0,0,0,0c0.8-0.5,1.7-1,1.8-1l0.4-0.2l0.2-0.4l0.4-1L10,93.6c0,0-0.9-0.5-1.7-1.1l0,0
				c0,0,1.3-0.6,1.3-0.6l2.1-0.9l-1.2-1.4l-0.1-0.1c-0.1-0.1-0.9-0.6-1.6-1.2l0,0c0,0,1.4-0.5,1.4-0.5l2.4-0.8l-1.2-1.5l-0.1-0.1
				c-0.1-0.1-0.8-0.7-1.5-1.4l0,0c0,0,1.4-0.3,1.4-0.3l4.4-0.9l-3.3-1.4c-0.2-0.3-0.7-0.8-1.2-1.4c0,0,0,0,0,0c0,0,0,0,0,0
				c1-0.2,2-0.3,2-0.3l4.6-0.5l-3.9-1.7c-0.2-0.3-0.6-0.8-1-1.4c0,0,0,0,0,0c0,0,0,0,0,0c0.7,0,1.4-0.1,1.8-0.1l3.3,1.4l-2.3-3.9
				l-0.7-1.2l0,0c0.7,0,1.5,0.1,1.8,0.1l2.8,1.2l-1.6-3.6L17.3,69l0,0c0.8,0.1,1.6,0.3,1.9,0.3l2.5,1.1l-1.1-3.3l-0.4-1.3l0,0
				c1,0.2,1.9,0.5,2,0.5l2.1,0.6l-0.5-2.1c0,0-0.2-1-0.4-2c0,0,0,0,0,0c0,0,1.3,0.5,1.3,0.5l1.7,0.7l0.6-1.4l0-0.4
				c0-0.1-0.1-1.1-0.2-2l0,0c0,0,1.3,0.6,1.3,0.6l1.7,0.9l0.7-1.5l0-0.3c0-0.2,0-1.1,0-2l0,0c0,0,0,0,0,0c0.4,0.3,0.9,0.5,1.2,0.7
				l2.3,1.6l0.1-2.2c0,0,0.1-1,0.2-2c0,0,0,0,0,0c0,0,0,0,0,0c0.8,0.6,1.6,1.3,1.6,1.3l1.7,1.4l0.4-2.2c0,0,0.2-1,0.4-2c0,0,0,0,0,0
				c0,0,0,0,0,0c0.4,0.3,0.7,0.7,1,1l0.8,0.9l1.5-0.1l0.2-0.9c0.1-0.2,0.3-1.1,0.6-1.9c0,0,0,0,0,0c0,0,0,0,0,0
				c0.7,0.8,1.3,1.6,1.3,1.6l1.4,1.7l0.8-2c0,0,0.4-1,0.8-1.9c0,0,0,0,0,0c0,0,0,0,0,0c0.6,0.8,1.1,1.7,1.2,1.7l1.2,1.8l1-2
				c0,0,0.5-0.9,0.9-1.8c0,0,0,0,0,0c0,0,0,0,0,0c0.5,0.9,1,1.8,1,1.8l1,1.9l1.1-1.9c0,0,0.5-0.9,1.1-1.7c0,0,0,0,0,0c0,0,0,0,0,0
				c0.4,0.9,0.8,1.9,0.8,1.9l0.8,2l1.3-1.7c0,0,0.6-0.8,1.3-1.6c0,0,0,0,0,0c0,0,0,0,0,0c0.3,1,0.6,2,0.6,2l0.6,2.1l1.5-1.6
				c0,0,0.7-0.8,1.4-1.5c0,0,0,0,0,0c0,0,0,0,0,0c0.2,0.9,0.4,1.9,0.4,2l0.1,0.6l0.6,0.3l0.7,0.3l0.6-0.5
				C65.7,57,66.5,56.4,67.3,55.7C67.3,55.7,67.3,55.7,67.3,55.7C67.3,55.7,67.3,55.7,67.3,55.7z M48,102.1c3.7,1.6,8.1-0.1,9.7-3.8
				c1.6-3.7-0.1-8.1-3.8-9.7c-3.7-1.6-8.1,0.1-9.7,3.8S44.3,100.5,48,102.1z"/>
			<g class="st4">
				<path class="st5" d="M51.8,89.3l4.5-36.5c-0.1-0.2-0.2-0.4-0.2-0.6c-0.4-1-0.9-1.9-0.9-1.9s-0.6,0.9-1.2,1.7
					c-0.6,0.9-1.2,1.8-1.2,1.8s-0.5-0.9-1-1.9c-0.5-0.9-1.1-1.8-1.1-1.8S50,51,49.5,51.9c-0.5,0.9-1,1.9-1,1.9s-0.6-0.9-1.2-1.7
					c-0.6-0.8-1.3-1.7-1.3-1.7s-0.5,1-0.9,1.9c-0.4,1-0.8,2-0.8,2s-0.7-0.8-1.4-1.6c-0.7-0.8-1.4-1.6-1.4-1.6s-0.1,0.3-0.2,0.6
					c-0.1,0.4-0.3,0.9-0.5,1.4c-0.3,1-0.6,2-0.6,2l0,0c0,0-0.2-0.2-0.5-0.5c-0.3-0.3-0.7-0.7-1-1c-0.8-0.7-1.6-1.4-1.6-1.4
					s-0.3,1-0.5,2.1c-0.2,1-0.4,2.1-0.4,2.1l0,0l0,0l0,0c0,0-0.8-0.7-1.6-1.3c-0.8-0.6-1.7-1.3-1.7-1.3s-0.2,1-0.3,2.1
					c0,0.5-0.1,0.9-0.1,1.3l15.7,32.6C49.4,89.3,50.6,89.1,51.8,89.3z"/>
				<path class="st5" d="M51.7,101.4l4,35.5c0.2,0.3,0.7,0.9,1.1,1.5c0.7,0.8,1.4,1.6,1.4,1.6s0.4-1,0.8-2c0.4-1,0.7-2,0.7-2
					s0.2,0.2,0.4,0.5c0.3,0.3,0.6,0.7,1,1.1c0.7,0.8,1.5,1.5,1.5,1.5s0.1-0.3,0.2-0.6c0.1-0.4,0.3-0.9,0.4-1.4c0.3-1,0.5-2,0.5-2
					l0,0c0,0,0.8,0.7,1.6,1.4c0.8,0.7,1.7,1.3,1.7,1.3s0.2-1,0.4-2.1c0.2-1.1,0.3-2.1,0.3-2.1l0,0c0,0,0.8,0.6,1.7,1.2
					c0.9,0.6,1.8,1.2,1.8,1.2s0-0.3,0.1-0.7c0-0.4,0.1-0.9,0.1-1.5c0.1-1.1,0.1-2.1,0.1-2.1l0,0c0,0,0.2,0.1,0.6,0.3
					c0.3,0.2,0.8,0.4,1.3,0.7c0.9,0.5,1.9,1,1.9,1s0-0.3,0-0.7c0-0.4,0-0.9,0-1.5c0-1.1-0.1-2.1-0.1-2.1s0.2,0.1,0.6,0.3
					c0.4,0.2,0.8,0.4,1.3,0.6c1,0.4,2,0.8,2,0.8s0-0.3-0.1-0.7c-0.1-0.4-0.1-0.9-0.2-1.5c0,0,0,0,0,0l-23.5-28.9
					C54,100.8,52.9,101.3,51.7,101.4z"/>
				<path class="st5" d="M57.1,95.9l37.4,3.6c-0.1-0.1-0.2-0.1-0.3-0.2c-0.9-0.6-1.7-1.2-1.7-1.2s0.2-0.1,0.6-0.3
					c0.3-0.2,0.8-0.4,1.3-0.7c0.9-0.5,1.9-1.1,1.9-1.1s-0.9-0.6-1.8-1.1c-0.9-0.5-1.8-1-1.8-1s0.9-0.5,1.8-1.1
					c0.4-0.3,0.9-0.6,1.2-0.8c0.3-0.2,0.5-0.4,0.5-0.4s-1-0.5-1.9-0.9c-0.5-0.2-1-0.4-1.3-0.6c-0.4-0.1-0.6-0.2-0.6-0.2l0,0
					c0,0,0.8-0.6,1.6-1.3c0.1-0.1,0.2-0.2,0.3-0.2l-37.1,6.1C57.1,94.9,57.2,95.4,57.1,95.9z"/>
				<path class="st5" d="M6.9,88.3c0.3,0.3,0.7,0.6,1.1,0.9c0.8,0.7,1.7,1.3,1.7,1.3l0,0c0,0-0.2,0.1-0.6,0.3
					c-0.4,0.2-0.8,0.4-1.3,0.6c-1,0.5-1.9,1-1.9,1s0.2,0.2,0.5,0.4c0.3,0.2,0.8,0.5,1.2,0.8c0.9,0.6,1.8,1.1,1.8,1.1
					s-0.9,0.5-1.8,1.1c-0.9,0.5-1.8,1.1-1.8,1.1s0.9,0.5,1.9,1c0.5,0.2,0.9,0.5,1.3,0.6c0.4,0.2,0.6,0.3,0.6,0.3l0,0
					c0,0-0.9,0.6-1.7,1.2c-0.4,0.3-0.8,0.7-1.2,0.9c-0.3,0.3-0.5,0.4-0.5,0.4s1,0.4,2,0.8c0.5,0.2,1,0.4,1.3,0.5
					c0.4,0.1,0.6,0.2,0.6,0.2l0,0c0,0-0.8,0.7-1.6,1.4c-0.4,0.4-0.8,0.7-1.1,1c-0.3,0.3-0.5,0.5-0.5,0.5s1,0.3,2,0.6
					c0.5,0.1,1,0.3,1.4,0.4c0.4,0.1,0.6,0.2,0.6,0.2s-0.7,0.7-1.4,1.5c-0.7,0.8-1.4,1.6-1.4,1.6s1.1,0.2,2.1,0.4
					c1,0.2,2.1,0.3,2.1,0.3s-0.6,0.8-1.3,1.7c-0.6,0.9-1.2,1.7-1.2,1.7s1.1,0.1,2.1,0.2c0.5,0,1,0.1,1.4,0.1c0.4,0,0.7,0,0.7,0
					s-0.6,0.9-1.1,1.8c-0.3,0.5-0.5,0.9-0.7,1.3c-0.2,0.4-0.3,0.6-0.3,0.6s1.1,0,2.1,0c1.1,0,2.1-0.1,2.1-0.1s-0.5,0.9-0.9,1.9
					c-0.4,1-0.8,1.9-0.8,1.9s1.1-0.1,2.1-0.2c1.1-0.1,2.1-0.3,2.1-0.3s-0.4,1-0.7,2c-0.2,0.7-0.4,1.3-0.5,1.7l29-25.8
					c-1.2-1.4-1.8-3.3-1.5-5.1L6.5,87.8c-0.1,0-0.2,0.1-0.2,0.1S6.6,88.1,6.9,88.3z"/>
			</g>
			<g>
				
					<rect x="34.8" y="123.9" transform="matrix(-0.9153 -0.4028 0.4028 -0.9153 27.7455 254.6917)" class="st6" width="11.7" height="1.1"/>
				
					<rect x="40" y="120.3" transform="matrix(-0.9153 -0.4028 0.4028 -0.9153 35.8415 249.142)" class="st6" width="8.3" height="1.1"/>
				
					<rect x="32.9" y="116.8" transform="matrix(-0.9153 -0.4028 0.4028 -0.9153 22.1703 239.3449)" class="st6" width="6.7" height="1.1"/>
				
					<rect x="42.3" y="118.4" transform="matrix(-0.9153 -0.4028 0.4028 -0.9153 39.666 246.207)" class="st6" width="6.9" height="1.1"/>
				
					<rect x="38.6" y="115.9" transform="matrix(-0.9153 -0.4028 0.4028 -0.9153 29.7272 239.0855)" class="st6" width="2.8" height="1.1"/>
				
					<rect x="46.5" y="116.9" transform="matrix(-0.9153 -0.4028 0.4028 -0.9153 45.0826 244.412)" class="st6" width="3.4" height="1.1"/>
				
					<rect x="30.4" y="120.2" transform="matrix(-0.9153 -0.4028 0.4028 -0.9153 13.298 244.3384)" class="st6" width="4" height="1.1"/>
				
					<rect x="42.5" y="123.2" transform="matrix(-0.9153 -0.4028 0.4028 -0.9153 36.0728 254.9842)" class="st6" width="4.6" height="1.1"/>
				
					<rect x="32.9" y="118.3" transform="matrix(-0.9153 -0.4028 0.4028 -0.9153 16.8478 241.206)" class="st6" width="1.7" height="1.1"/>
				
					<rect x="35.4" y="120.4" transform="matrix(-0.9153 -0.4028 0.4028 -0.9153 25.3153 247.2744)" class="st6" width="6.4" height="1.1"/>
			</g>
		</g>
		<path class="st2" d="M32.3,89.4c-1.1,2.9-1,6.1,0.3,8.9l10.2,21.9c1.3,2.8,3.7,5,6.7,6c2,0.7,4.2,0.6,6.2-0.3l37.7-17.6
			c-0.2-0.2-0.4-0.5-0.6-0.7c-0.7-0.8-1.5-1.5-1.5-1.5s0.3-0.1,0.6-0.2c0.4-0.1,0.9-0.3,1.4-0.4c1-0.3,2-0.7,2-0.7s-0.2-0.2-0.5-0.5
			c-0.3-0.3-0.7-0.6-1.1-1c-0.8-0.7-1.6-1.4-1.6-1.4s0.2-0.1,0.6-0.2c0.4-0.1,0.8-0.3,1.3-0.5c1-0.4,1.9-0.9,1.9-0.9
			s-0.2-0.2-0.5-0.4c-0.3-0.2-0.7-0.6-1.2-0.9c-0.9-0.6-1.7-1.2-1.7-1.2s0.2-0.1,0.6-0.3c0.3-0.2,0.8-0.4,1.3-0.7
			c0.9-0.5,1.9-1.1,1.9-1.1s-0.9-0.6-1.8-1.1c-0.9-0.5-1.8-1-1.8-1s0.9-0.5,1.8-1.1c0.4-0.3,0.9-0.6,1.2-0.8
			c0.3-0.2,0.5-0.4,0.5-0.4s-1-0.5-1.9-0.9c-0.5-0.2-1-0.4-1.3-0.6c-0.4-0.1-0.6-0.2-0.6-0.2l0,0c0,0,0.8-0.6,1.6-1.3
			c0.4-0.3,0.8-0.7,1.1-1c0.3-0.3,0.5-0.4,0.5-0.4s-1-0.4-2-0.7c-0.5-0.2-1-0.3-1.4-0.4c-0.4-0.1-0.6-0.2-0.6-0.2l0,0
			c0,0,0.8-0.7,1.5-1.5c0.4-0.4,0.7-0.8,1-1.1c0.3-0.3,0.4-0.5,0.4-0.5s-1-0.3-2.1-0.5c-0.5-0.1-1-0.2-1.4-0.3
			c-0.4-0.1-0.6-0.1-0.6-0.1s0.7-0.8,1.3-1.6c0.7-0.8,1.3-1.7,1.3-1.7s-1.1-0.2-2.1-0.3c-1-0.1-2.1-0.2-2.1-0.2l0,0l0,0
			c0,0,0.6-0.8,1.2-1.7c0.6-0.9,1.1-1.8,1.1-1.8s-1.1-0.1-2.1-0.1c-1.1,0-2.1,0-2.1,0s0.1-0.2,0.3-0.6c0.2-0.3,0.4-0.8,0.7-1.3
			c0.5-0.9,0.9-1.9,0.9-1.9s-0.3,0-0.7,0c-0.4,0-0.9,0.1-1.5,0.1c-1.1,0.1-2.1,0.2-2.1,0.2l0,0c0,0,0.1-0.2,0.3-0.6
			c0.1-0.4,0.3-0.8,0.5-1.3c0.4-1,0.7-2,0.7-2s-0.3,0-0.7,0.1C85,66.8,84.5,66.9,84,67c-1,0.2-2.1,0.4-2.1,0.4s0.1-0.2,0.2-0.6
			c0.1-0.4,0.3-0.9,0.4-1.4c0.3-1,0.5-2.1,0.5-2.1s-0.3,0.1-0.7,0.2c0,0,0,0-0.1,0L36.5,84.9C34.6,85.8,33,87.4,32.3,89.4z
			 M48.5,89.8c3.1-1.4,6.7-0.1,8.2,3c1.4,3.1,0.1,6.7-3,8.2c-3.1,1.4-6.7,0.1-8.2-3C44,94.9,45.4,91.2,48.5,89.8z"/>
		<path class="st0" d="M51,95.4l49-22.9C87.4,45.4,55.2,33.7,28.2,46.3c-12,5.6-21,15-26.2,26.2L51,95.4z"/>
		<path class="st1" d="M51,95.4L94.7,75c-11.2-24.1-39.9-34.6-64-23.3C20,56.7,12,65.1,7.4,75L51,95.4z"/>
		<g>
			<path class="st3" d="M188,28.7c-9.2,1.9-30.6-7.6-55.9,4.2L73.4,60.3l19.1,41l58.8-27.4c9.8-4.6,11.9-5.5,14.7-6.9
				c2.8-1.3-0.8-3.7,10.6-7.8c11.5-4,23.7-7.4,20.3-14.7C193.5,37.4,197.3,26.8,188,28.7z M163.3,60.2
				C163.2,60.2,163.3,60.2,163.3,60.2c1.2-4,1.4-8.3,0.4-12.4c-0.6-2.4,0.6-4.9,3-5.7c9-2.9,18-2.1,20.2,2.5
				C189.3,50,166,54,163.3,60.2z"/>
			<path class="st1" d="M132.9,34.5L75.8,61.2l17.6,37.7l57.1-26.6c10.3-4.8,14.8-17.1,10.2-27.4c0,0,0,0,0,0c-1.6-3.5,5.3-7,14.2-7
				c8.9,0,10-5.4,9-7.2C170.6,29.5,151.5,25.9,132.9,34.5z"/>
			<path class="st1" d="M183.9,30.7c-13.3-1.2-32.4-4.8-51,3.8L75.8,61.2l0.8,1.7l57.1-26.6C152.2,27.5,176.2,32.1,183.9,30.7z"/>
			<g>
				<path class="st0" d="M143.5,60.4L92.9,83.9c-0.7,0.3-1.4,0-1.8-0.6l0,0c-0.3-0.7,0-1.4,0.6-1.8L142.4,58c0.7-0.3,1.4,0,1.8,0.6
					l0,0C144.4,59.3,144.2,60,143.5,60.4z"/>
				<path class="st0" d="M149.9,52.2l-59,27.5c-0.7,0.3-1.4,0-1.8-0.6l0,0c-0.3-0.7,0-1.4,0.6-1.8l59-27.5c0.7-0.3,1.4,0,1.8,0.6
					l0,0C150.9,51.1,150.6,51.8,149.9,52.2z"/>
				<path class="st0" d="M147.9,47.9l-59,27.5c-0.7,0.3-1.4,0-1.8-0.6l0,0c-0.3-0.7,0-1.4,0.6-1.8l59-27.5c0.7-0.3,1.4,0,1.8,0.6
					l0,0C148.9,46.8,148.6,47.6,147.9,47.9z"/>
				<path class="st0" d="M137.5,47.5L86.9,71.1c-0.7,0.3-1.4,0-1.8-0.6l0,0c-0.3-0.7,0-1.4,0.6-1.8l50.6-23.6c0.7-0.3,1.4,0,1.8,0.6
					l0,0C138.5,46.4,138.2,47.2,137.5,47.5z"/>
			</g>
			<path class="st0" d="M38,79.3L38,79.3c-1.1,2.9-1,6.1,0.3,8.9l10.2,21.9c1.3,2.8,3.7,5,6.7,6l0,0c2,0.7,4.2,0.6,6.2-0.3
				l31.2-14.5l-19.1-41L42.2,74.8C40.3,75.7,38.7,77.4,38,79.3z"/>
			<path class="st1" d="M42.4,85.2L42.4,85.2c-1.3,2.1-1.5,4.4-0.7,6.2l6.6,14.2c0.8,1.8,2.7,3.1,5.2,3.5l0,0
				c1.7,0.3,3.6-0.1,5.4-0.9l28.6-13.3L75.2,68.3L46.6,81.6C44.8,82.4,43.3,83.7,42.4,85.2z"/>
		</g>
		<path class="st0" d="M55.3,93.4c1.1,2.4,0.1,5.2-2.3,6.2s-5.2,0.1-6.2-2.3c-1.1-2.4-0.1-5.2,2.3-6.2S54.2,91,55.3,93.4z"/>
		<g>
			<path class="st0" d="M103.5,39.5l-0.5,0.2c-7-2.5-4.1-8.9-7.8-16.7c-3.7-7.9-9.7-11.8-6.9-14.9l0.5-0.2c1.2-0.6,1.7-2,1.2-3.2
				c-0.6-1.2-2-1.7-3.2-1.2l-14.7,6.8c-1.2,0.6-1.7,2-1.2,3.2c0.6,1.2,2,1.7,3.2,1.2l0.5-0.2c4.1-0.1,3.3,7,6.9,14.9
				c3.7,7.9,10.3,9.8,7.8,16.7l-0.5,0.2c-1.2,0.6-1.7,2-1.2,3.2s2,1.7,3.2,1.2l14.7-6.8c1.2-0.6,1.7-2,1.2-3.2
				S104.7,38.9,103.5,39.5z"/>
			<path class="st1" d="M100.6,40.8l-0.3,0.1c-5.1-3.4-4.1-8.9-7.8-16.7c-3.7-7.9-8.3-12.4-6.9-14.9l0.3-0.1
				c0.7-0.3,0.9-1.6,0.3-2.8c-0.6-1.2-1.6-1.9-2.3-1.6L75,9c-0.7,0.3-0.9,1.6-0.3,2.8c0.6,1.2,1.6,1.9,2.3,1.6l0.3-0.1
				c2.8,0.6,3.3,7,6.9,14.9c3.7,7.9,8.5,10.7,7.8,16.7l-0.3,0.1c-0.7,0.3-0.9,1.6-0.3,2.8c0.6,1.2,1.6,1.9,2.3,1.6l8.8-4.1
				c0.7-0.3,0.9-1.6,0.3-2.8S101.3,40.5,100.6,40.8z"/>
			<g>
				<path class="st1" d="M87.6,25.4c-1.8,0.1-3.6-0.4-5.2-1.2c-1.3-0.7-2.5-1.6-3.5-2.6c0.6,2.3,1.3,5,2.6,7.8
					c0.2,0.5,0.5,1,0.7,1.4c2.3-1.6,5.1-2.4,7.9-2.4c2.6,0.1,5.1,0.9,7.3,2.4c-0.4-2.3-0.9-5-2.2-7.8c-0.5-1-1-2-1.6-2.9
					c-0.1,1.1-0.5,2.2-1.2,3.1C91.3,24.5,89.5,25.3,87.6,25.4z"/>
				<path class="st1" d="M84.5,14c-1.1,0-2.4,0.5-2.5,1.6c-0.1,0.9,0.8,1.8,1.7,1.9c0.9,0.1,1.8-0.3,2.7-0.7c0.8-0.5,1.6-1,2.6-1.2
					c0.6-0.1,1.2-0.1,1.8,0.1c-0.7-1-1.3-1.8-1.9-2.7c-0.3,0.4-0.7,0.7-1.1,0.8C86.7,14.3,85.6,14,84.5,14z"/>
			</g>
			<path class="st1" d="M96.8,41.5c0.4-0.2,0.9-0.5,1.2-0.9s0.4-1,0.1-1.4c-0.5-0.7-1.7-0.3-2.3,0.3c-0.7,0.6-1.4,1.4-2.2,1.3
				c-0.9-0.1-1.3-1.1-1.2-2c0.1-0.9,0.6-1.6,1.1-2.3c0.5-0.7,0.9-1.6,0.7-2.4c-0.1-0.8-0.8-1.5-1.6-1.6c-0.8-0.1-1.7,0.3-2.1,1
				c-0.7,1.3-0.2,3-1.9,3.7c-0.5,0.2-0.9,0.2-1.4,0.1c1.7,2,2.9,3.8,2.8,6.2C92.3,43.2,94.7,42.6,96.8,41.5z"/>
		</g>
	</g>
	<path class="st0" d="M190.2,40.1c1.3,10.1-0.1,12.7,1.9,13.1c4.2-2.3,6.5-5,4.8-8.6c-3.4-7.2,0.3-17.8-8.9-15.9
		C184.1,30.6,188.9,30.1,190.2,40.1z"/>
	<path class="st2" d="M159.6,41c-3.4,2.9,3.2,8.4,0.4,16.6c-2.8,8.2-7.5,11-17.8,15.8c-7,3.3-33.5,15.6-49.9,23.3l1,2.2l57.1-26.6
		c10.3-4.8,14.8-17.1,10.2-27.4c0,0,0,0,0,0c-1.6-3.5,5.3-7,14.2-7c0.2,0,0.4,0,0.6,0C170.8,37.3,162.9,38.1,159.6,41z"/>
</g>
</svg>
