<?xml version="1.0" encoding="utf-8"?>
<!-- Generator: Adobe Illustrator 23.0.1, SVG Export Plug-In . SVG Version: 6.00 Build 0)  -->
<svg version="1.1" id="Layer_1" xmlns="http://www.w3.org/2000/svg" xmlns:xlink="http://www.w3.org/1999/xlink" x="0px" y="0px"
	 viewBox="0 0 64 64" style="enable-background:new 0 0 64 64;" xml:space="preserve">
<style type="text/css">
	.st0{fill:#364043;}
	.st1{fill:#46C1C3;}
</style>
<g>
	<circle class="st0" cx="32" cy="32" r="32"/>
</g>
<g>
	<g id="XMLID_1_">
		<g>
			<path class="st0" d="M47.9,44.5v0.3c0,0.7,0,1.2,0,1.5c-0.1,0.5-0.2,1-0.5,1.4c-0.6,0.9-1.6,1.4-2.7,1.4s-2.1-0.4-2.7-1.3
				c-0.5-0.6-0.7-1.6-0.7-2.9v-4.3c0-1.3,0.2-2.3,0.7-2.9c0.6-0.9,1.6-1.3,2.7-1.3c1.1,0,2.1,0.4,2.7,1.3c0.5,0.6,0.7,1.6,0.7,2.9
				v2.6h-4.5v2.2c0,1.2,0.4,1.7,1.2,1.7c0.5,0,0.9-0.3,1-0.9c0-0.1,0-0.6,0-1.5L47.9,44.5L47.9,44.5z"/>
			<path class="st0" d="M39.4,40.1v5c0,1.2-0.1,2-0.2,2.5c-0.3,0.9-0.9,1.4-1.8,1.4c-0.8,0-1.6-0.4-2.3-1.4v1.2h-2.2V32.1H35v5.5
				c0.7-0.9,1.5-1.4,2.3-1.4c0.9,0,1.5,0.5,1.8,1.4C39.3,38.1,39.4,39,39.4,40.1z"/>
			<path class="st0" d="M27.1,47c0.4,0,0.9-0.3,1.4-1.1v-9.5h2.2v12.5h-2.2v-1.4c-0.9,1-1.8,1.5-2.6,1.5c-0.7,0-1.2-0.3-1.5-0.9
				c-0.1-0.4-0.2-1-0.2-1.9v-9.8h2.2v9.2c0,0.5,0,0.8,0,0.9C26.6,46.8,26.8,47,27.1,47z"/>
			<polygon class="st0" points="24,32.1 24,34.5 21.3,34.5 21.3,48.8 18.7,48.8 18.7,34.5 16.1,34.5 16.1,32.1 			"/>
			<path class="st1" d="M50,32.3c0.6,2.8,0.6,5.9,0.6,8.8s0,6-0.6,8.8c-0.4,2-2.1,3.5-4.1,3.7c-4.6,0.5-9.3,0.5-14,0.5
				s-9.4,0-14-0.5c-2-0.2-3.6-1.7-4.1-3.7c-0.6-2.8-0.6-5.9-0.6-8.8s0-6,0.6-8.8c0.4-2,2.1-3.5,4.1-3.7c4.6-0.5,9.3-0.5,14-0.5
				s9.4,0,14,0.5C47.9,28.8,49.6,30.3,50,32.3z M47.9,44.9v-0.3h-2.3c0,0.9,0,1.4,0,1.5c-0.1,0.6-0.4,0.9-1,0.9
				c-0.8,0-1.2-0.6-1.2-1.7v-2.2h4.5v-2.6c0-1.3-0.2-2.3-0.7-2.9c-0.6-0.9-1.6-1.3-2.7-1.3c-1.2,0-2.1,0.4-2.7,1.3
				c-0.5,0.6-0.7,1.6-0.7,2.9v4.3c0,1.3,0.2,2.3,0.7,2.9c0.6,0.8,1.6,1.3,2.7,1.3s2.1-0.4,2.7-1.4c0.3-0.4,0.4-0.8,0.5-1.4
				C47.8,46.1,47.9,45.6,47.9,44.9z M39.4,45.1v-5c0-1.2-0.1-2-0.2-2.5c-0.3-0.9-0.9-1.4-1.8-1.4c-0.8,0-1.6,0.4-2.3,1.4v-5.5h-2.2
				v16.7H35v-1.2c0.7,0.9,1.5,1.4,2.3,1.4c0.9,0,1.5-0.5,1.8-1.4C39.3,47.1,39.4,46.2,39.4,45.1z M30.8,48.8V36.4h-2.2v9.5
				c-0.5,0.7-1,1.1-1.4,1.1c-0.3,0-0.5-0.2-0.5-0.5c0-0.1,0-0.3,0-0.9v-9.2h-2.2v9.9c0,0.9,0.1,1.5,0.2,1.9c0.2,0.6,0.7,0.9,1.5,0.9
				c0.8,0,1.7-0.5,2.6-1.5v1.4L30.8,48.8L30.8,48.8z M24,34.5v-2.3h-7.9v2.3h2.6v14.4h2.5V34.5H24z"/>
		</g>
	</g>
	<path class="st1" d="M44.5,38.3c-0.7,0-1.1,0.6-1.1,1.7v1.2h2.2V40C45.6,38.8,45.3,38.3,44.5,38.3z"/>
	<path class="st1" d="M36.1,38.3c-0.4,0-0.7,0.2-1.1,0.5v7.6c0.4,0.4,0.7,0.5,1.1,0.5c0.6,0,1-0.5,1-1.7v-5.4
		C37.1,38.8,36.8,38.3,36.1,38.3z"/>
	<path class="st1" d="M37.4,26.9c0.8,0,1.7-0.5,2.6-1.6v1.4h2.3V14.2H40v9.6c-0.5,0.7-1,1.1-1.5,1.1c-0.3,0-0.5-0.2-0.5-0.5
		c0-0.1,0-0.3,0-0.9v-9.3h-2.2v10c0,0.9,0.1,1.5,0.2,1.9C36.2,26.7,36.7,26.9,37.4,26.9z"/>
	<path class="st1" d="M21.5,19.9v6.8H24v-6.8l3.1-10.1h-2.6l-1.7,6.6L21,9.9h-2.7c0.5,1.6,1.1,3.1,1.6,4.7
		C20.7,16.9,21.3,18.7,21.5,19.9z"/>
	<g id="XMLID_2_">
		<g>
			<path class="st0" d="M31.6,17.8v5.3c0,1.2-0.3,1.8-1.1,1.8c-0.7,0-1.1-0.6-1.1-1.8v-5.3c0-1.2,0.3-1.8,1.1-1.8
				C31.2,16.1,31.6,16.6,31.6,17.8z"/>
			<path class="st1" d="M33.8,18.3v4.4c0,1.3-0.2,2.3-0.7,3c-0.6,0.9-1.5,1.3-2.6,1.3c-1.1,0-2.1-0.4-2.6-1.3
				c-0.5-0.6-0.7-1.6-0.7-3v-4.4c0-1.4,0.2-2.3,0.7-3c0.6-0.9,1.5-1.3,2.6-1.3s2.1,0.4,2.6,1.3C33.6,16,33.8,16.9,33.8,18.3z
				 M31.6,23.1v-5.3c0-1.2-0.3-1.8-1.1-1.8c-0.7,0-1.1,0.6-1.1,1.8v5.3c0,1.2,0.3,1.8,1.1,1.8C31.2,24.8,31.6,24.3,31.6,23.1z"/>
		</g>
	</g>
</g>
</svg>
