<svg xmlns="http://www.w3.org/2000/svg" xmlns:xlink="http://www.w3.org/1999/xlink" viewBox="0 0 100 160" xmlns:v="https://vecta.io/nano"><style><![CDATA[.z{enable-background:new}.AA{opacity:.3}.AB{opacity:.15}.AC{fill:#fff}.AD{opacity:.2}.AE{fill:#fcbd92}.AF{fill:#1c1f23}.AG{fill:#41c3c4}.AH{fill:#ffe6d2}.AI{fill:#3c3c4e}.AJ{opacity:.5}.AK{fill:#f7941e}.AL{fill:#73472c}.AM{fill:#fbb040}.AN{fill:#4e474b}]]></style><g class="AF z"><path d="M31.2 158.5c0 .6 6.7 1 15 1s15-.5 15-1-6.7-1-15-1-15 .4-15 1z" class="AB"/><path d="M56.6 158.5c0 .6 9.6 1 21.4 1s21.4-.5 21.4-1-9.6-1-21.4-1-21.4.4-21.4 1zm-55.4 0c0 .6 5.8 1 13 1s13-.5 13-1-5.8-1-13-1-13 .4-13 1z" class="AB"/></g><linearGradient id="A" gradientUnits="userSpaceOnUse" x1="47.245" y1="158.502" x2="47.245" y2="120.628"><stop offset="0" stop-color="#323938"/><stop offset="1" stop-color="#40525e"/></linearGradient><path d="M50 158.5c0-11.1-.2-27.3 1.2-37.9h-5.7s-2.1 6.5-2.1 11.2 4.5 15 4.5 26.7H50h0z" fill="url(#A)"/><linearGradient id="B" gradientUnits="userSpaceOnUse" x1="23.1" y1="158.502" x2="23.1" y2="120.628"><stop offset="0" stop-color="#323938"/><stop offset="1" stop-color="#40525e"/></linearGradient><path d="M18.5 158.5c3-11.1 7.1-27.3 11.3-37.9h-5.7s-3.8 6.5-5.1 11.2.5 15-2.6 26.7h2.1 0z" fill="url(#B)"/><path d="M27.6 63.2c-.5-1.2 2.3-5.2 10.6-5.9s18.3 2.1 17.6 5.5c-.7 3.3-7.1 3.9-12.5 3.9-5.5 0-13.6 1.6-15.7-3.5z" fill="#323938"/><path d="M53.7 83.5c-.1-1.8-5.4-2.1-11.9-1.6s-11.4 1.8-11.5 3.5l-.1-2.8c-.1-1.8 5.1-3 11.6-3.5s11.8-.2 12 1.6l-.1 2.8z" fill="#58402c"/><path d="M53.2 80.7c-.1-1.5-5.2-1.7-11.4-1.2s-11.2 1.6-11.1 3.1l-.5.1c-.1-1.8 5.1-3 11.6-3.5s11.8-.2 12 1.6l-.6-.1z" class="AA AC"/><path d="M55.3 35.9c6.8 0 16.5 23.3 16.5 23.3l-9.2 3.6s-4.2-7.6-7.3-7.6c-5.1 0-5.9-19.3 0-19.3z" class="AG"/><path d="M58.4 50.3c.7 3.4 4.1 7.6 4.1 7.6s-1 2.5-.1 3.4c.8.8 1.3 1.1 1.3 1.1l1.2-.1c0 1.7.5 3.1 1.2 3.7-.7 1-1.8.5-2.2 0-.5-.5-.6-1.1-1.3-1.4-.4-.2-.9-1.6-.9-3.3-1.4-2.2-4.1-5.9-6.3-5.9-.4 0-.8-.1-1.1-.3.8-3.2 3.1-9.7 4.1-4.8z" class="z AD AF"/><circle cx="67.2" cy="61" r="4.9" fill="#ef5a32"/><g class="AE"><circle cx="67.2" cy="61" r="4.9"/><path d="M69.8 65.2c-5.6 3.5-10.9-4.8-5.2-8.4l14.9-9.2 1.4 2.2c0 .1-6.2 12.4-11.1 15.4z"/></g><path d="M64.6 56.8l4.6-2.9c-.5.6-1.1 1.1-1.5 1.8-.8 1.1-1.3 2.7-.6 4.1.1.2.3.4.4.6.5.5 1.2.8 1.9.7.3 0 .6-.2.9-.3 3-1.3 5.3-4.2 7.4-6.7l1.8-2c.1-.1.2-.2.3-.2-2 3.6-6.4 11.2-10 13.4-5.5 3.4-10.9-4.9-5.2-8.5z" class="z AB"/><linearGradient id="C" gradientUnits="userSpaceOnUse" x1="47.654" y1="120.63" x2="47.654" y2="82.583"><stop offset="0" stop-color="#40525e"/><stop offset="1" stop-color="#323938"/></linearGradient><path d="M41.4 92.4v-9.8H53s3 8.7-1.9 38h-5.7c0 0 .8-28.2-4-28.2z" fill="url(#C)"/><g class="AF z"><path d="M46.8 121.2c-.1 0-.1.1-.2.2-.1 0-.2-.1-.3-.1 0 .1 0 .3-.1.4s-.3.2-.4.3c.1-.3.1-.6.1-1 0-.1.1-.2.2-.1.1 0 .2.1.2.1.1-5.3 0-10.6-.4-15.9l-.7-8c0-.2-.1-.4-.1-.7v-.3c0-.1.1-.2.1-.4v-.3c-.1-.2-.2-.5-.3-.7-.1-.1-.1-.2-.1-.3-.1-.2 0-.4 0-.6v-.6c0 .1.1.2.1.3.1.2 0 .4 0 .6s.1.4.1.5l.3.9c0 .1.1.1.1.2v.2c0 .3.1.6.1.9s.1.7.1 1c.1.7.1 1.3.2 2l.5 7.1c.5 4.8.6 9.6.5 14.3z" class="AA"/><path d="M46.7 92.9s-1.9-.1-2.4.3 2.1 2.5 2.4 3.1-1.2-.3-1.4.3c-.2.5-.1 9.2-.1 9.2h0c-.4-6.8-1.5-13.3-3.8-13.3 2.5-.6 5.3.4 5.3.4z" class="AA"/></g><linearGradient id="D" gradientUnits="userSpaceOnUse" x1="34.053" y1="120.63" x2="34.053" y2="82.583"><stop offset="0" stop-color="#40525e"/><stop offset="1" stop-color="#323938"/></linearGradient><path d="M41.4 92.4l2.6-9.8H32.4s-5.3 8.7-8.3 38h5.7c0 0 6.8-28.2 11.6-28.2z" fill="url(#D)"/><g class="AF z"><path d="M23.1 122.7l1.1-1.5c.5-.7.7-1.3.8-2.1l.6-4 1.6-8.6c.9-4.2 1.9-8.2 3.1-12.3-1.1 4.1-2.1 8.4-2.9 12.6-.6 2.9-1.1 5.9-1.5 8.9l-.6 4.2c-.1.6 0 .8-.4 1.2-.5.5-1.1 1.1-1.8 1.6.1.1 0 0 0 0zm8.6-33.3c-.2.5-.3 1-.5 1.5.2-.5.3-1 .5-1.5z" class="AA"/><path d="M30.3 94.1l.9-3.2-.9 3.2z" class="AA"/></g><g class="AG"><path d="M53 82.6c0-14.1 1.5-22 4.4-27.4 2.1-6.6 1.6-19.3-2.1-19.3H41.4v46.7H53h0z"/><path d="M32.4 82.6c2.9-13.2-4.9-22-7.8-27.4-2.1-6.6-3.7-19.3 0-19.3H44v46.7H32.4h0z"/></g><path d="M46.2 35.9h2.5c1.2.5 2.5 1.5 3.1 2.9 1 2.5 2.9 8.3 2.7 16-.1 4.5.6 4.8 1.2 4.3-1.8 5.2-2.7 12.4-2.7 23.5h-9-2.6-9c2.9-13.2-4.9-22-7.8-27.4-1.5-4.7-2.7-12.3-2-16.4 2.4-.4 4.6.5 6 4 1.8 4.3.5 6.7 0 10C28 56 31 61.6 33 61.1s4.3-3.2 4.1-9.5c-.1-6.3-5.2-15.1-8.8-15.6h2.9a10.23 10.23 0 0 1 5 4.3c2.1 3.7 4.4 7.6 9.9 7.6s5-.1 4.8-4.1-2.5-7.4-4.7-7.9z" class="z AD AF"/><path d="M34.3 36.8c0 .9 4.4 2 7.9 2s4.8-1.1 4.8-2-3.6-.9-7.1-.9-5.6.1-5.6.9z" class="AE"/><path d="M26.9,35.9c6.7,3.8,15.2,4.4,18.4,4.4c3.3,0,6.5-4.4,6.5-4.4H26.9z" class="z AB"/><linearGradient id="E" gradientUnits="userSpaceOnUse" x1="41.682" y1="85.353" x2="41.682" y2="48.068"><stop offset="0" stop-color="#323938"/><stop offset="1" stop-color="#40525e"/></linearGradient><path d="M31.9 83.5c1.1 1.5 7 2.3 12.8 1.6s8.2-2.3 8.3-2.5c0-3.9 2.1-17.5 2.8-19.8-1.8 0-.9-9-.9-13.6 0-.4 0-.8-.1-1.2-6.1 2-17.3 0-17.3 0 3.3 11.7-4.5 17.8-9.8 15.1-.1.1 4.2 9.2 4.2 20.4z" fill="url(#E)"/><g class="AF z"><path d="M31.9 83.5c0-11.3-4.3-20.3-4.3-20.3 1 .5 2.2.7 3.3.6h0l-.3.5s3.3 8 3.2 16.4c.2 1.5 4.1 2.6 9.1 2.4 3.9-.1 8.3-.1 10.2-2.4-.1.7-.1 1.4-.1 1.9-.1.2-2.4 1.8-8.3 2.5-5.8.7-11.7-.1-12.8-1.6z" class="AA"/><path d="M53.4 84.4c-.3 3.9-15.3 6.6-20.6 5.8-3.3-.5-2.4-3.4-1.4-5.5.6-1.3.5-2.8.5-2.8s.4 1.1 8.4 1.2c8 0 12.4-1.5 12.7-2.3.4 1.3.4 3.6.4 3.6z" class="AA"/></g><path d="M24.6 35.9c-6.8 0-16.5 23.3-16.5 23.3l9.2 3.6s4.2-7.6 7.3-7.6c5.1 0 5.9-19.3 0-19.3z" class="AG"/><circle cx="12.7" cy="61" r="4.9" fill="#ef5a32"/><g class="AE"><circle cx="12.7" cy="61" r="4.9"/><path d="M7.8 61c0-6.5 9.9-6.7 9.9 0l-.1 23.7H15c-.1.1-7.2-18-7.2-23.7z"/></g><path d="M11.8 74.2l2 6.5c.3 1.1.5 2.1.7 3.2C13.1 80.2 7.8 66 7.8 61c0-6.5 9.9-6.7 9.9 0v3.2c-.2-.9-.4-1.8-.9-2.6-.8-1.4-2.5-2.5-4.1-2-1.1.3-1.9 1.3-2.3 2.4s-.4 2.3-.3 3.5c.2 2.9.9 5.8 1.7 8.7z" class="z AB"/><path d="M30.7 82.5c.1 1.5 5.3 2.3 11.5 1.7 6.2-.5 11.2-2.1 11-3.6l.5.1v2.8c.1 1.8-5 4-11.4 4.5s-12.1-.7-12-2.6l-.1-2.8.5-.1z" class="AL"/><path d="M53.7 80.7c.1 1.8-5 3.7-11.5 4.2s-11.9-.5-12-2.3l.5-.1c.1 1.5 5.3 2.3 11.5 1.7 6.2-.5 11.2-2.1 11-3.6l.5.1z" class="AA AC"/><path d="M41.6 84.7l5.7-.9.5.1.2 3.8-5.7 1-.6-.6z" class="AM"/><path d="M44.5 88.3l-.1-3.8-.4-.2 1.4-.2.5.2.1 3.8-1.5.2zm-2.3-3.4l-.6-.2.1 3.4.6.6z" class="AA AF z"/><path d="M42.2 84.9l5.6-1-.5-.1-5.7.9z" opacity=".35" class="z AC"/><path d="M37.4 48.1C34.8 40.6 31.3 36 28.3 36h-.9s.1-.9 1.4-.9h3c1.2 0 6.8 4.4 9.3 14.2h-3.4l-.3-1.2zm14.7 0c-.6-7.5-2.9-12.1-5.9-12.1h-.9s.3-.9 1.6-.9h3c1.2 0 4.5 5.2 4.9 14.2H52l.1-1.2z" fill="#40525e"/><path d="M27.4 35.9h.4c.3 0 .7 0 1.2.1s1.1.4 1.7.9 1.2 1.1 1.8 1.8 1.2 1.5 1.7 2.5l1.5 3c.5 1.1.9 2.2 1.3 3.3l.2.4c.1.1.1.3.1.4.1.3.2.6.2.9.1.3.1.6.2.9s.1.6.1.9c.2 1.2.2 2.5.1 3.7s-.3 2.4-.8 3.5c-.4 1.1-1 2.1-1.6 2.9-.7.8-1.5 1.5-2.3 1.9-.8.5-1.6.7-2.4.8-.7.1-1.4.1-1.9 0l-1.2-.3c-.3-.1-.4-.2-.4-.2s.1.1.4.2.7.3 1.2.5c.5.1 1.2.2 2 .2.8-.1 1.7-.3 2.6-.7s1.8-1.1 2.5-1.9c.8-.8 1.4-1.9 1.9-3l.3-.9.3-.9c.2-.6.3-1.2.3-1.9.1-1.3.1-2.6 0-3.9 0-.3-.1-.6-.1-1-.1-.3-.1-.6-.2-1-.1-.3-.1-.6-.2-.9V48v-.1h0c0 .1 0-.1 0-.1h0l-.1-.2V47l-1.3-3.4a11.94 11.94 0 0 0-.8-1.6c-.3-.5-.6-1-.8-1.5L33.5 38c-.7-.7-1.3-1.4-2-1.8-.7-.5-1.4-.8-2.1-1-.2 0-.3-.1-.5-.1h-.2-.2-.1 0 0 0s-.1 0-.1.1c-.1 0-.2.1-.2.2-.5.2-.7.5-.7.5z" class="AA"/><path d="M52.1 49.2l.1-.6.1-.6h0v-1-1-1c0-.3 0-.7-.1-1 0-.3-.1-.6-.1-1 0-.3-.1-.6-.2-1l-.2-1-.3-1-.3-1c-.1-.2-.1-.3-.2-.5s-.1-.3-.2-.5c-.2-.3-.3-.6-.5-.9s-.4-.6-.7-.9-.5-.5-.9-.7c-.3-.2-.7-.4-1.1-.5s-.8-.2-1.2-.2c-.1 0-.2 0-.3.1-.1 0-.2.1-.2.1-.2.1-.3.3-.5.5h1c.3 0 .6.1.9.2s.6.3.8.5c.3.2.5.4.7.6s.4.5.6.8l.5.8c.1.3.3.6.4.9s.2.6.4.9l.3.9.3.9c.1.3.2.6.2.9.1.3.1.6.2.9l.5 3.8h0v1.6z" class="z AA"/><path d="M37.7 47.1l.4 1.5c.1.4.5.6.9.6l1.5-.2c.3 0 .6-.2.7-.5.3-.2.4-.6.3-.9l-.4-1.4c-.1-.4-.5-.6-.8-.6l-1.5.1c-.3 0-.6.2-.7.5-.4.2-.5.5-.4.9zm2.9.9c-.1 0-.1 0-.2.1l-1 .1c-.2 0-.5-.1-.6-.4l-.3-1v-.3c.1 0 .1-.1.2-.1l1-.1c.2 0 .5.1.5.4l.3.9c.1.2.1.3.1.4z" class="AM"/><path d="M40.6 48v-.3l-.3-.9c-.1-.2-.3-.4-.5-.4l-1 .1c-.1 0-.1 0-.2.1 0-.2.2-.4.5-.4l1-.1c.2 0 .5.1.5.4l.3.9c0 .2-.1.4-.3.6zM38 46.2c-.1.2-.1.4 0 .5l.4 1.5c.1.4.5.6.9.6l1.5-.2a.76.76 0 0 0 .4-.2c-.1.3-.3.5-.7.5l-1.5.2c-.4 0-.7-.2-.9-.6l-.4-1.5c-.1-.3 0-.6.3-.8z" class="AA AF"/><path d="M51.9 46.9l.1 1.5c0 .4.3.7.7.8l1.5.1c.3 0 .6-.1.7-.4.3-.1.5-.5.5-.8l-.1-1.5a.68.68 0 0 0-.7-.7l-1.5-.2c-.3 0-.6.1-.8.4-.2.1-.4.4-.4.8zm2.7 1.5h-.2l-1-.1c-.2 0-.4-.2-.5-.5l-.1-1c0-.1 0-.2.1-.3h.2l1 .1c.2 0 .4.2.5.5l.1 1c0 .1 0 .2-.1.3z" class="AM"/><path d="M54.6 48.4c0-.1.1-.2.1-.3l-.1-1a.47.47 0 0 0-.5-.5l-1-.1h-.2a.55.55 0 0 1 .5-.3l1 .1c.2 0 .4.2.5.5l.1 1c0 .3-.1.5-.4.6zm-2.2-2.3c-.1.1-.1.3-.1.5l.1 1.5a.68.68 0 0 0 .7.7l1.5.1c.1 0 .3 0 .4-.1-.2.2-.4.4-.7.4l-1.5-.1c-.4 0-.7-.4-.7-.8l-.1-1.5c-.1-.3.1-.6.4-.7z" class="AA AF"/><path d="M40.1 51.2s6.6 1 13.3 0c0 0 .8 8.9-.5 10.5-1.3 1.5-11.4.9-13 0 0-4.4.2-10.5.2-10.5z" fill="#40525e"/><path d="M40.1 51.2s.3 0 .9.1h0s-.3 7.9 3.4 9 9 1.9 9.2-3.2c0 2-.2 3.9-.7 4.5-1.3 1.5-11.4.9-13 0 0-4.3.2-10.4.2-10.4z" class="z AA AF"/><path d="M17.6 62.2c0-3-7.4-5.5-9.5-3-.7-.9-.3-1.5.1-2 .2-.9 0-2.6 2.4-2.9s7.2 1.2 8.6 4.7c.4 1.3.1 2-.3 2.1 0 1-1.3 1.1-1.3 1.1z" class="AG"/><path d="M17.6 62.2v-.1-.2-.2c0-.2 0-.4-.1-.6s-.2-.5-.3-.7c-.2-.2-.4-.5-.6-.8s-.5-.5-.8-.7l-.9-.6a4.67 4.67 0 0 0-1-.5c-.4-.2-.7-.3-1.1-.4-.2 0-.4-.1-.6-.1s-.4 0-.6-.1h-1.1c-.4 0-.7-.1-1.1-.1-.1 0-.2 0-.3.1-.1 0-.2.1-.2.1-.1.1-.3.2-.4.3s-.2.3-.3.4c0 .1-.1.1-.1.2s0 .1-.1.2v.6c0 .2.1.3.1.2l.1-.1.1-.1s.1-.1.2-.1c0 0 .1 0 .1-.1 0 0 .1 0 .1-.1.1 0 .2-.1.3-.1s.2-.1.3-.1.1 0 .2-.1h.2c.3-.1.6-.1.9-.1h1c.3 0 .7.1 1 .1l1 .3c.3.1.7.2 1 .4.3.1.6.3.9.5l.8.5c.2.2.5.4.6.6.2.2.3.4.4.6s.2.4.2.5v.2.2h.1z" class="z AD AF"/><g fill="#d6a17c"><path d="M35.4 36.8c0 .8 3.5 1.8 6.3 1.8s3.8-1 3.8-1.8-2.9-.8-5.7-.8c-2.8-.1-4.4 0-4.4.8zm0-12c0 .8 3.5 1.8 6.3 1.8s3.8-1 3.8-1.8-2.9-.8-5.7-.8-4.4 0-4.4.8z"/><path d="M35.4 36.8c.9-6.5 0-12 0-12h10.2s-1 7.6 0 12H35.4h0z"/></g><path d="M69.4 53.9s-2.9 1.7-4 4.5c-1 2.9-.7 6.6.6 7.5-.7 1-1.8.5-2.2 0-.5-.5-.6-1.1-1.3-1.4-.6-.3-1.8-4 .4-7.5 2.3-3.5 5.7-4.5 6-4.4.4.2.5 1.3.5 1.3z" class="AG"/><g class="AF z"><path d="M69.4 53.9h-.2c-.1 0-.3.1-.5.1-.2.1-.4.2-.7.3s-.5.3-.8.5c-.1 0-.2.1-.2.1l-.2.2c-.2.1-.3.2-.5.4l-.9.9c-.1.2-.3.4-.4.6s-.3.4-.4.6c-.1.1-.1.2-.2.3v.1h0 0 0 0l-.1.2-.1.3c0 .1-.1.2-.1.4l-.1.4-.1.4c-.1.2-.1.5-.1.7-.1.5-.1.9-.1 1.4v.7c0 .2 0 .4.1.6l.3 1.2c.1.2.1.4.2.5.1.2.1.3.2.5.2.3.4.5.7.6s.5.2.6.1h.2.1l-.1-.1-.1-.1c0-.1-.1-.1-.2-.2l-.3-.6c-.1-.2-.2-.5-.3-.9-.1-.3-.1-.7-.2-1v-.6-.6c0-.4 0-.8.1-1.3 0-.2.1-.4.1-.6l.1-.3.1-.3c.1-.4.2-.8.4-1.2l.3-.6c.1-.2.2-.4.3-.5.2-.3.5-.7.7-.9.1-.1.2-.3.4-.4l.4-.4c.2-.2.5-.4.7-.6s.4-.3.6-.4c.1-.4.3-.5.3-.5z" class="AD"/><path d="M33.8 85.3l.3 2.2.8.3-2.6 8.7a1.63 1.63 0 0 1-1.3 1.1c-1 .1-2.3-.1-2.9-1.6 1.2-5.8 3-11 3-11s1.5.7 2.7.3z" class="AA"/></g><path d="M33.8 85.3l-2.2 11-2.1.4s-3.1-1.8-3.1-5V84l3.9-.8c0-.1 1.1 2 3.5 2.1z" class="AL"/><path d="M33.8 85.3l-4.3 1.9v9.5l2-.4z" class="z AA AF"/><path d="M26.3 84l3.9-.8s1.2 2.1 3.5 2.2l-4.3 1.9c-2-.7-3.1-3.3-3.1-3.3z" class="z AC AD"/><path d="M26.9 84.2l3.1-.7s1 1.5 2.7 1.8l-3.2 1.5c.1.1-1.8-.4-2.6-2.6z" fill="#443113"/><g class="AE"><path d="M37.2 24.3c-3.7-1.6-3.8-2.6-4.8-5.1s-1.6-5.2.1-8.2 5.3-4.7 8.3-4.7 8.3 1.8 9.6 3.1c1.2 1.4 2.7 15.6-3.8 15.6-6.4 0-8-.1-9.4-.7z"/><path d="M34.7 22.9c.5 1.7.7 4.8.7 8.2 0 4.8-.6 5.1-.4 5.5.1.4 4 1.8 7.9 1.8 1.8 0 2.4-1.4 2.4-2.2s0-6.2 1-8.9c.9-2.7-3.1-4.6-5.6-5-2.4-.3-6.8-1.8-6 .6z"/></g><path d="M38.9 35.3c-1.1-1.7-2.7-4.5-3.5-6.5-.1-2.4-.3-4.6-.7-5.9-.8-2.4 3.6-.9 6-.6 2.4.4 6.5 2.3 5.6 5s-1 8.1-1 8.9-.7 2.2-2.4 2.2h-.7c-1.3-.6-2.6-1.9-3.3-3.1z" class="z AB"/><path d="M47.8 31c-2.7 0-2.9 0-5.2-1.2-2.4-1.2-4.4-1.8-4.9-3.3s-1.4-7.1-1.4-7.1-1.8-3.5.2-6.7 8.2-6.1 14-3.4c2.2 2.1 2.3 6.9 2.3 6.9s-.5 2.2-.2 3.4.5 1.5-.1 4.7-1.3 5.6-2.3 6.1c-1 .6-2.4.6-2.4.6z" class="AE"/><path d="M50.4 17.2c-.2.6-.2 1.5-.1 1.8.4.2 1.2.1 1.9 0v-1.6s-.4-.4-1-.3c-.5 0-.8.1-.8.1z" class="AC"/><defs><path id="F" d="M50.4 17.2c-.2.6-.2 1.5-.1 1.8.4.2 1.2.1 1.9 0v-1.6s-.4-.4-1-.3c-.5 0-.8.1-.8.1z"/><path id="G" d="M82.4 31c-.3.5.2 1.5 1.3 2.1 1 .7 2.2.8 2.5.2.3-.5-.2-1.5-1.3-2.1-1-.7-2.1-.8-2.5-.2z"/><path id="H" d="M84.1 29.3c-.3.5.1 1.3 1 1.8.8.5 1.7.6 2 .1s-.1-1.3-1-1.8c-.8-.5-1.7-.6-2-.1z"/><path id="I" d="M26.2 78.2c.1 0 .1-.1.1-.1l-.2-.6-.1-.1-.1.1.3.7c-.1 0 0 0 0 0z"/><path id="J" d="M26.6 78c.1 0 .1-.1.1-.1l-.2-.6-.1-.1-.1.1.3.7c-.1 0-.1 0 0 0z"/><path id="K" d="M63.5 133.8h-1.3c-.1 0-.2-.1-.2-.2v-.7a.68.68 0 0 1 .7-.7h.3a.68.68 0 0 1 .7.7v.7c0 .1-.1.2-.2.2z"/></defs><clipPath id="L"><use xlink:href="#F"/></clipPath><g clip-path="url(#L)"><path d="M52.1 18c.1.9-.4 1-.9 1-.6-.1-.8-.2-.9-1 0-.7.4-.9.9-.8.6 0 .9.3.9.8z" class="z AC AJ"/><circle cx="50.8" cy="18" r=".7" class="AN"/></g><path d="M51.2 17.5c0 .1-.1.3-.3.3s-.3-.1-.3-.3c0-.1.1-.3.3-.3s.3.1.3.3z" class="z AC AJ"/><path d="M50.2 18.6c0 .2 0 .5.9.6s1.3-.2 1.3-.2h-.1c-.1 0-1.7.2-2.1-.4z" class="z AA"/><path d="M50.4 17.2s.4-.1.5-.5c.5.1 1 .2 1.3.7-.5-.3-1.1-.4-1.8-.2z" class="AN"/><path d="M40.4 16.4c-.6.8-1.1 1-.8 2.6s2.4 1.9 3.2 2.8-.2.8 0 1.4 2.1-1.4 2.8-1.5 1-.5 1.3-.8 1.4.9 3.1.7c1.7-.1 2 .5 2.6 1.4.5.9-.2 4.8-4 4.8s-9.2-.1-10.9-4.3-2.6-7-1-9.6c1.6-2.7 3.4-5.7 6.5-5.3 3.2.3 7.7 2 8.4 3.7.2.6-2.2.4-3.2.1.2.3-1.3.4-2.2 0s-1.2-2.2-3.2-2c.5.2.7.3.8.6-.7 0-1.4.3-1.6.6.9 0 1 .4.9.5s-1.3.5-1.5 1.4c-.1 1 .2.9-1.2 2.9z" class="z AB"/><path d="M48.1 12.6s0 1-.4 2.3c-1.1-.3-1.8-1.1-4.5.4-.7-.7-.1-2-.1-2l3.4-1a2.16 2.16 0 0 1 1.6.3zm2.5 1c.3 1-.3 1.7-.4 2.1 0 0 1.7-.4 2.4.7.4 0 .6-.3.6-.3s.1-.6.1-1.3c-.4-.7-1.7-1.7-1.9-1.7-.2.1-.8.5-.8.5z" class="AL"/><path d="M46.8 22c.1.5 1 .4 2 .7s1.3.5 1.9 0c.5-.5 1.2-.7.8-1.4s-1.4-3.6-1.4-4.1.2-1.3.2-1.3-.7.7-2.6-.2c.3 1.6-.5 1.9-.5 1.9l.3 3c.1-.2-.9.1-.7 1.4z" class="AE"/><path d="M50.7 22.6c-.5.5-.9.3-1.9 0s-1.9-.2-2-.7c-.1-.8.2-1.2.5-1.4h0c-.2.3-.4 1.1.1 1.1s1.2-.1 1.9 0 1.6.3 2 0c.2-.2.1-.4.2-.5.3.8-.3 1.1-.8 1.5z" class="z AA"/><g class="AC z"><path d="M49.8 16.3s.1.3 0 .5c.2 0 .3.2.3.2 0 .5 1.1 3.4 1.4 4.1 0 .6-.4.6-.7.6-.5 0-.4-.6-.5-1.2s-.5-1.1-.7-2.3c-.2-1.1-.4-1.1-.7-1.3.4 0 .7-.1.9-.6z" class="AD"/><path d="M49.8 17.7c.1.5.1 1.7.8 2.4-.6-.2-.8-.9-.8-1.4-.1-.5 0-1 0-1z" class="AD"/></g><path d="M50.1 22.7c-1.1 0-3.7-1-4.4-.8-.7.1-2.9 2.4-2.9 2.4l-3.3-1.6-.9-6 1.5-2.6s-.2-1.3 2.9-2c-.2-.4-1.7.1-1.7.1s.7-1.3 2.4-1.3c-.2-.4-1.8-.2-1.8-.2s1.7-1.1 3.3.2 2.8 1.4 3.7 1.1c-.5-.2-1.3-.8-1.6-1.3.9.8 4 1.9 6 1.5s2.2-1.9 2-2.3-.9-.2-1.3.3c0 0 .1-1.1-1.1-.9s-1 .4-2.6-.7c-1.6-1-5.9-3.6-10.5-3.3-7.6.6-6.7 3.5-7.7 5-.9 1.6-2.2 4-1.4 5.8s1.3 4.4 2.1 5.6 1.6 2.1 1.7 3.1c.1.5.8.6.8.6s.8-2.1 1.5-2.7c0 1.4-1 4.5-1 4.5l1.6 1.7 7.1 3.8 7.4-.5 1.4-1.4-.6-2.1.8-.9.4-2.5-.2-1.9s-1.7-1.5-2-1.5c-.5.2-.9.8-1.6.8z" class="AL"/><path d="M38.6 16.7l-.5 1.2.7 5.6.3-.4 3.7 1.2-3.3-1.6zM50.4 27l1.2 3.3-1.9-3.3z" class="AA AH z"/><path d="M36.3 21.6c-1.3 0-1.9-.8-2.6-2.7-.7-2 0-2.5.6-2.9s1.6.4 1.6.4l.6 5.1c.1-.1.1.1-.2.1z" class="AE"/><path d="M36.1 17.1l.5 4.3s-.1.1-.3.1c-1.3 0-1.9-.8-2.6-2.7-.4-1-.4-1.6-.2-2 .1 0 .1 0 .2-.1.7-.3 1.9.2 2.4.4zm5.8 9.3l2.4.2 1.5-.8v-.6l1.7-.6.4-.6-.2.6 1.3-.1.3-.5-.1.6h.7l.2-.3.1.4.8.2v-.3l.3.4.6.4.5 2.6h0l.4.4.5-.2-.8.9-1.1-2.5c-.2-.5-.4-.8-.4-.8l-.4-.1c-.4-.1-.9-.1-1.3-.1l-2 .1c-.2 0-.4.1-.6.1h-.3c-.1 0-.1.2-.1.2-.2.3-.3.7-.4 1.1l-.3 1.5c0 .3-.2.3-.4.6l-.3.6.4-2.4-1.6.2-2.5-.6-.2-1.7.9 1.1z" class="z AB"/><path d="M46.2 17.2c.2.6.2 1.5.1 1.8-.4.2-1.6.1-2.3 0 0-1.5.4-1.8.4-1.8s.6-.3 1.2-.3a.75.75 0 0 1 .6.3z" class="AC"/><defs><path id="M" d="M46.2 17.2c.2.6.2 1.5.1 1.8-.4.2-1.6.1-2.3 0 0-1.5.4-1.8.4-1.8s.6-.3 1.2-.3a.75.75 0 0 1 .6.3z"/></defs><clipPath id="N"><use xlink:href="#M"/></clipPath><path d="M44.1 18c-.1.9.5 1 1.1 1 .7-.1 1-.2 1-1 .1-.7-.5-.9-1-.8-.6 0-1 .3-1.1.8z" clip-path="url(#N)" class="z AC AJ"/><defs><path id="O" d="M46.2 17.2c.2.6.2 1.5.1 1.8-.4.2-1.6.1-2.3 0 0-1.5.4-1.8.4-1.8s.6-.3 1.2-.3a.75.75 0 0 1 .6.3z"/></defs><clipPath id="P"><use xlink:href="#O"/></clipPath><g class="AN"><path d="M44.3 18a.68.68 0 1 0 1.4 0 .68.68 0 0 0-.7-.7c-.4 0-.7.4-.7.7z" clip-path="url(#P)"/><path d="M44.3 17.2c.8-.6 2.5-.4 2.5-.4l-.6.4c0 0-.5-.4-1.9 0z"/></g><path d="M44.5 17.5c0 .1.1.3.3.3s.3-.1.3-.3c0-.1-.1-.3-.3-.3s-.3.1-.3.3z" class="z AC AJ"/><path d="M46.3 18s.1.6.2.9c.2-.1.3-.2.3-.2s.1.5-1 .6-2.3-.2-2.3-.2h.4s2 .1 2.2-.1c.2-.3.2-1 .2-1z" class="z AA"/><path d="M51.1 26.5l-.7.5h-2.2l-1.2-.6s-.7-.5-.3-.8c.8 0 4.4.9 4.4.9z" class="z AB"/><path d="M46.7 25.6s-.1.7 1.1.8 2.9.1 3.3.1c.2 0 .4-.5.4-.5s-.1-.4-.2-.5-.6-.3-1.4-.3l-2.4.1c-.4.1-.8.1-.8.3z" class="AE"/><path d="M51.1 26.5c-.4 0-2.1.1-3.3-.1-1.2-.1-1.1-.8-1.1-.8 0-.2.5-.1.7-.2.1 0 .3 0 .6-.1-.3.1-.1.5 0 .8.1.2 1.9 0 2.4.1.4 0 .8.2 1.1-.1-.1-.1-.2.4-.4.4z" class="z AB"/><g fill="#6d6e71"><path d="M48.5 150.9c-2 0-2.8.9-2.8.9l.8 1.2-.1 4h5.5l-.9-4.5.6-1c-.1 0-.6-.6-3.1-.6z"/><path d="M45.7 157s.6-3 4.8-3c1.8 0 4.9 1.3 4.9 1.3l1.3-.3.8.5.4 1.5H45.7z"/></g><path d="M45.7 157l-.2 1.5h12.6l-.2-1.5z" fill="#58595b"/><path d="M50.5 153.9c.6 0 1.2.1 1.9.3h0c-1 0-2.5.7-3.1 2.7h-1.6c.5-2.6 2.8-3 2.8-3zm2.3.4c.4.1.8.2 1.2.4-1.2 1-1.1 2.3-1.1 2.3h-2.1s.4-2.3 2-2.7zm-1.3-2.8l-.6 1c-3-1.1-4.5.5-4.5.5l-.8-1.2s.9-.9 2.8-.9c2.6 0 3.1.6 3.1.6z" class="z AB"/><path d="M56.3 155.7l-2.7.6s.1-.6.7-.8c-3.3-1.1-5-1.4-7.2-.6.7-.5 1.8-1 3.4-1 1.8 0 4.9 1.3 4.9 1.3l1.3-.3.8.5.4 1.5H57l-.2-1-.5-.2z" class="z AC AD"/><g fill="#6d6e71"><path d="M18.9 150.9c2 0 2.8.9 2.8.9L21 153l.1 4h-5.5l.9-4.5-.6-1s.5-.6 3-.6z"/><path d="M22.5 157s-.4-3-3.2-3c-1.2 0-4 1-4 1l-.5.5-.2 1.5h7.9z"/></g><path d="M19.1 155c-1.4 0-4.3.4-4.3.4l.5-.5s2.8-1 4-1c2 0 2.7 1.6 3 2.4-.4-.6-1.4-1.3-3.2-1.3z" class="z AC AD"/><path d="M22.5 157l.1 1.5h-8.3l.2-1.5z" fill="#58595b"/><path d="M15.9 151.5l.6 1c3-1.1 4.5.5 4.5.5l.8-1.2s-.9-.9-2.8-.9c-2.6 0-3.1.6-3.1.6z" class="z AB"/><path d="M32 20.2c.3-4.6 3.8-7.6 7.4-9.6C44 8 49.6 8.3 50.6 8.9l.2.1s.3-.3-.9-1.1-3.5-4.2-7.5-4.2-8.1 1-9.7 3c-1.5 2-3.3 3.2-3.4 6.3s1.9 5.8 2.1 6.5.6.7.6.7z" class="AG"/><path d="M49.9 7.9C44.2 6.5 38 10.1 38 10.1s-.1-.7-1.2-2.1-1.2-2-.6-3.4c1.8-.6 4-.9 6.2-.9 4.1 0 6.4 3.5 7.5 4.2z" class="z AA AH"/><path d="M38.1 10.2c3.9-4.5 4-7.8 8.3-8.9 4.4-1.2 7.9 1.3 8.3 2.6S50.8 9 50.8 9 46 6.9 38.5 11c-.6.3-.4-.8-.4-.8z" class="AG"/><path d="M32.7 15.9c.9-1.7 1.8-2.4 3-3.4s2.4-1.6 3.1-2.4c3.4-4.4 4.1-6.7 8.2-7.9 3.6-1 6.7.3 7.5 1.3 0 .1.1.2.1.2.5 1.4-3.6 4.7-3.8 5.3 0 0-1-.5-2.9-.5a24.87 24.87 0 0 0-3.6.3c-1.7.4-3.6 1-5.8 2.2-3.3 2-6.3 4.9-6.6 9.1 0 0-.4 0-.5-.6 0-.8.6-2.2 1.3-3.6z" class="z AB"/><path d="M31.2 66.8c-.4-.1-.7-.3-1-.5v-.1c1 .6 2 .8 3.2.8.1 0 .1.1.1.2-.6.4-1.2.8-1.8 1 .4.1.7.4.8.9.4 1.2.4 2.7.5 4l.6 4.5c.1 1.3.3 2.8 0 4-.1.2-.4.2-.4-.1l.1-3.2-.3-3-.3-3.1c-.1-1 .1-3.8-1.5-3.9-.2 0-.2-.2 0-.3.5-.1 1.4-.3 1.7-.7l.2-.2c-.1 0-.2 0-.3-.1-.6-.1-1.1 0-1.6-.2z" class="z AA AF"/><g class="AE"><path d="M11.4 87.4c-.3.1-.2.4-.2.9s-.4 1.4-.2 1.7c.1.4.8.3 1 0s0-.9.1-1.3.3-.7.1-1-.5-.5-.8-.3z"/><path d="M10.9 90.1c.1.4.1 1 .2 1.3 0 .3.1.5.5.5s.5-.3.5-.6c-.1-.3-.2-.8-.1-1.1s-.1-.6-.5-.5c-.4-.1-.7-.1-.6.4z"/><path d="M11.2 91.7c.1.3.1.5.2.7s.1.4.3.4.6 0 .7-.2.1-.3.1-.4-.1-.2-.2-.4-.1-.4-.4-.5c-.4 0-.8.1-.7.4z"/></g><path d="M11.4 92.1c0-.1.4-.2.5-.2.1.2.2.6.2.6s-.3 0-.6.1c0-.2-.1-.5-.1-.5z" class="z AB AC"/><g class="AE"><path d="M17.5 83.9c-.5-.3-1.2-.4-1.8-.5-.5 0-1.1.2-1.5.6l-2.9 3.5c.5.9 4.9 1.1 4.9 1.1s1.6-1.7 1.3-4.7z"/><path d="M12.1 87.4c-.4.1-.3.4-.3 1s-.4 1.5-.2 2c.2.4 1 .4 1.1 0 .2-.4 0-1 .1-1.5s.3-.8.1-1.1c-.1-.4-.4-.6-.8-.4z"/><path d="M11.7 90.4c.1.5.2 1.1.2 1.4s.1.6.5.6c.5 0 .6-.4.5-.7-.1-.4-.2-1-.2-1.2.1-.3-.1-.6-.5-.6s-.7.1-.5.5z"/><path d="M12 92.3c.1.3.1.5.2.8s.1.4.3.5c.3 0 .6 0 .7-.2s.2-.3.1-.4c0-.1-.1-.3-.2-.5-.1-.3-.1-.5-.4-.6-.4-.1-.9.1-.7.4z"/></g><path d="M12.2 92.8c0-.2.5-.3.6-.2l.2.7s-.4 0-.6.1l-.2-.6zm-.2-.5v-.2-.2c0-.2 0-.3.1-.5v-.5-.3-.1-.1-.1-.1h0 0 0 0s0 .1 0 0h0 0 0 0v-.1-.2-.2c0-.1.1-.2.1-.4 0-.1.1-.3.1-.4v-.2-.2-.2-.2c0-.1 0-.2-.1-.3 0 0 0-.1-.1-.1v-.2c-.1 0-.1.1-.2.1 0 0-.1.1-.1.2v.4.4c0 .1 0 .3-.1.4 0 .3-.1.5-.2.8 0 .1 0 .3-.1.4v.2.2h0v.2.2a.9.9 0 0 0 .1.5v.5c.3 0 .4.2.5.3z" class="AB AC z"/><path d="M16.8 87.8c.8-.5 2-.5 2.2.1.2.8.3 1.2.7 1.4s1.6.2 2.2-.1c.5-.3.6-1.1.4-1.4-.3.1-1.1-.1-1.1-.1s-.1-.2-.4-.3c-.4-.2-.7-.5-.9-1.4-.1-.4-.4-.3-.9-.5s-1.1-.8-1.5-1.5c-.5.2-1.4 1.7-1.3 2.6s.3 1.3.6 1.2z" class="AE"/><path d="M21.2 87.7c-.2.1-.5.6-.5.7.3.1.9.2.9.2s.3-.6.6-.7l-1-.2z" class="z AB AC"/><g class="AE"><path d="M13 87.4c-.4.1-.2.7-.3 1.3 0 .6-.4 1.7-.4 2.1s.2.5.8.5.5-.2.7-1.4c.1-.6.7-1.4.8-1.8s-.5-1.1-1.6-.7z"/><path d="M12.3 90.9v1.6c0 .3 0 .6.5.7s.7-.3.7-.7-.1-1.1 0-1.4a.59.59 0 0 0-.5-.8c-.5 0-.8.1-.7.6z"/><path d="M12.3 92.9v.9c0 .3-.1.5.2.6s.7.2.9 0 .3-.3.3-.4 0-.3-.1-.6 0-.5-.3-.7c-.5-.2-1.1-.2-1 .2z"/></g><path d="M12.4 93.5c.1-.2.6-.1.7 0v.8s-.4-.1-.7 0c-.1-.4 0-.8 0-.8zm-.1-.6v-.1h0v-.2c0-.1 0-.1.1-.2 0-.1.1-.3.1-.4s0-.3.1-.4v-.5-.1-.1h0v-.1-.1l.1-.4c0-.2.1-.3.1-.5s.1-.3.1-.5.1-.3.1-.5h0v-.1-.1-.3c0-.2-.1-.3-.1-.4s0-.1-.1-.2v-.2c-.1 0-.1.1-.2.1s-.1.1-.1.2v.5.5c0 .2 0 .3-.1.5-.1.3-.1.6-.2.9 0 .2-.1.3-.1.5s-.1.3 0 .5h0v.9.4.4h0c.2-.1.2 0 .2 0z" class="AB AC z"/><g class="AE"><path d="M16.3 88.6c-.6 1.2-.8 1.8-1 2.6-.3.8-1.7.3-1.5-.3s.2-.4.4-1.2l.3-1.5c0-.4.5-.7 1.1-.6.4.2 1 .3.7 1z"/><path d="M14.4 90.6c.7.1.9.6.7 1a3.46 3.46 0 0 0-.3 1.2c0 .4-.2.6-.7.6s-.7-.3-.5-.8.3-1.1.2-1.4c-.1-.4.1-.7.6-.6z"/><path d="M14.7 94.1c-.1-.6-.1-.7 0-1a.65.65 0 0 0-.8-.6c-.5.1-.5.6-.5.7.1.1.1.2 0 .6s-.1.5 0 .6.4.3.9.1c.3-.1.4-.4.4-.4z"/></g><path d="M14.2 93.4c-.3-.2-.6 0-.6 0l-.1.8s.5-.1.7-.1c.2-.2.1-.6 0-.7zm-.8-.2V93s0-.1.1-.1h0c0-.1 0-.2.1-.2 0-.1.1-.2.1-.2.1-.2.1-.3.2-.5s.1-.4.1-.6v-.2-.1-.1h0c0-.1.1-.1.1-.2s.1-.1.1-.2.1-.2.1-.3.1-.2.1-.3.1-.2.1-.3l.1-.2c0-.2.1-.3.1-.5s.1-.4 0-.6v-.1-.1c0-.1.1-.1.2-.2.1 0 .1-.1.2-.1l.2-.2h-.5c-.2 0-.3.1-.4.2s-.1.1-.1.2v.3c0 .2 0 .3-.1.5-.1.3-.1.7-.2 1 0 .2-.1.3-.2.5-.1.1-.1.3-.2.5h0c0 .1-.1.2 0 .3v.3c0 .2 0 .3-.1.5 0 .2-.1.3-.1.5s-.1.3-.1.5h0v.2c.1-.1.1-.1.1 0z" class="AB AC z"/><g class="AE"><path d="M78.6 42.3c.7 0 2-.8 2.6-1.4s1.1-.7 1.6 0 2.6 5 2.2 6-1.5 1.9-2.5 2.2-2 1.5-2.4 2.2c-.4.6-3-2.2-2.2-2.7s.4-1.4.1-2-.9-1.5-.8-2.7c.3-1.1.6-1.6 1.4-1.6z"/><path d="M82.1 40.5c-.7.4-.5 1 .1 1.5s1.3.4 1.6-.3 1.8-2.1 2-2.2.6-.7 0-1.4-2.1.4-2.3.9c-.2.3-.9 1.2-1.4 1.5z"/><path d="M83.6 40c.7-.2.9.5 1.4 1.1s1 1 .7 1.7c-.2.7-1.1.7-1.4.1s-1-.7-1.2-1.3c-.3-.7-.4-1.3.5-1.6z"/><path d="M84.1 41.6c.6-.2.8.5 1.2 1.1.5.6.8 1 .6 1.7s-.9.7-1.2.1-.9-.7-1.1-1.3c-.1-.7-.2-1.3.5-1.6z"/><path d="M85.2 43.6c.6 0 .5.6.6 1.2.2.6.3 1 0 1.5-.4.5-.9.2-1-.3s-.5-.8-.4-1.4c0-.5.2-1 .8-1z"/></g><g class="AK"><path d="M76 40.3c-.5.8.1 1.9 1.2 2.6s2.4.7 2.9-.1-.1-1.9-1.2-2.6-2.4-.7-2.9.1z"/><ellipse transform="matrix(.5321 -.8467 .8467 .5321 9.5987 86.2128)" cx="82.8" cy="34.4" rx="1.9" ry="3.1"/><path d="M76.2 39.3l4.1-6.6 5.1 3.4-4.4 6.2z"/><path d="M76.2 39.3c-.5.9.1 2.3 1.4 3.1s2.8.8 3.4-.1c.5-.9-.1-2.3-1.4-3.1-1.3-.9-2.8-.8-3.4.1z"/></g><path d="M77 41.9l4.3-6.3c.1.1.3.2.5.3.9.6 1.9.8 2.6.7h0l-3.9 6c-.7.4-1.9.3-2.9-.3-.2-.1-.4-.2-.6-.4z" class="z AB"/><ellipse transform="matrix(.5321 -.8467 .8467 .5321 9.5987 86.2128)" cx="82.8" cy="34.4" rx="1.9" ry="3.1" class="z AA AH"/><path d="M81.3 33.1l2.4 2.5-1.6.6c-.1-.1-.2-.1-.3-.2-1-.6-1.7-1.6-1.8-2.4l1.3-.5z" class="z AB"/><g class="AI"><path d="M81.3 33.1c-.3.5.1 1.4 1.1 2 .9.6 1.9.6 2.3.1s-.1-1.4-1.1-2c-.9-.6-2-.6-2.3-.1z"/><path d="M81.3 33.1l1.1-2.1 3.8 2.3-1.6 1.9z"/><use xlink:href="#G"/></g><use xlink:href="#G" class="z AA AH"/><path d="M83.3 31l2.4 1.8-1.5.6a.76.76 0 0 0-.4-.2c-.8-.5-1.3-1.2-1.4-1.7l.9-.5z" class="z AB"/><g class="AI"><path d="M83.3 31c-.3.4.1 1.1.8 1.5s1.5.5 1.7.1c.3-.4-.1-1.1-.8-1.5-.7-.5-1.5-.5-1.7-.1z"/><use xlink:href="#H"/><path d="M83.3 31l.8-1.7 3 1.9-1.3 1.4z"/></g><use xlink:href="#H" fill="#babec0"/><path d="M84.9 29.3c-.2.3.1.8.6 1.2.5.3 1.1.3 1.3 0s-.1-.8-.6-1.2c-.5-.3-1.1-.3-1.3 0z" class="AH"/><path d="M85.3 29.3l1.3.9-1.7.7c-.4-.3-.7-.7-.8-1.1l1.2-.5z" class="z AB"/><path d="M79 42.3s1.6 4.2 2.3 7.8l1.8-2.1-3-7.6-1.1 1.9z" class="AI"/><path d="M80.1 40.4l3 7.6-.1.1-2.9-7.7z" class="z AA AH"/><path d="M81.5 38l1.9.4 1.8 9.6h-2.1l-3-7.6z" class="AK"/><path d="M84.7 45.5s-.4-.2-.6-.1c-.3.1-1.5-.2-1.4-1.5-.2-.1-.3-.1-.3-.1l-.1-.8 1.4.2.9 1.7.1.6zm-1.2-5.3L82 41l-.5-3 .7-.5z" class="z AB"/><path d="M80.1 40.4l1.4-2.4 1.6 10z" class="z AA"/><path d="M82.4 45.5l-2.6 3.4 1.4 5.9 5.5.3 3.9-4-3-4.9z" class="AK"/><g class="AI"><path d="M80.5 51.9l3-3.9 1.2 2.8-3.5 4z"/><path d="M83.5 48l5.4.4 1.7 2.7-5.9-.3z"/></g><path d="M81.2 54.8l3.5-4 5.9.3-3.9 4z" class="z AB"/><path d="M82.4 45.5l2.3 5.3-3.5 4-1.4-5.9z" class="z AB"/><path d="M88.9 48.4l-5.4-.4-.1-.2 5.5.5z" class="z AA"/><path d="M83.4 47.8l-2.9 4v.1l3-3.9z" class="z AA"/><g class="AH z"><path d="M82.4 45.5l5.2.7.1.1-5.1-.6 2.2 5.1h-.1z" class="AA"/><path d="M83.6 48l5.3.4.1.1-5.4-.4zm-1.2-2.5l-2.6 3.4 2.7-3.2z" class="AA"/></g><path d="M82.2 37.5l.9.2.9 1.5-.5 1-1.2-.1-.3-2z" fill="#f15a29"/><path d="M82 38.1l.3 2 .5-1.1-.6-1.5z" class="z AB"/><path d="M84 39.2l-.5 1-1.2-.1.5-1.1z" class="z AA"/><path d="M85 29.2c-.2.3.1.7.6 1s1 .3 1.2.1-.1-.7-.6-1-1-.3-1.2-.1z" class="AI"/><g fill="#babec0"><path d="M85.3 29.3c-.1.2.1.6.4.8.4.2.8.3.9 0 .1-.2-.1-.6-.4-.8-.4-.2-.8-.2-.9 0z"/><path d="M85.3 29.3l5.5-9.4 2.3 1.5-6.5 8.7z"/><path d="M90.8 19.9c.4-.7 2.2-.7 2.2-.7s.8 1.5.2 2.2c-.2.4-1 .3-1.6-.1-.7-.4-1.1-1-.8-1.4z"/></g><path d="M90.9 19.7c-.3.4-.2 1.5.3 2.1.3.4 1.1.8 1.3.5l-.6.8c-.2.3-.9 0-1.2-.5-.5-.6-.6-1.5-.3-2.1l.4-.7.1-.1zm-1.1 1.8c-.3.5-.2 1.4.3 2 .3.4 1 .7 1.2.4l-.5.7c-.2.3-.9 0-1.2-.4-.4-.5-.6-1.3-.3-1.8l.5-.9zm-1.2 2.1c-.3.5-.1 1.3.2 1.7s.9.7 1.1.4l.4-.5c-.2.3-.8 0-1.1-.4-.4-.5-.6-1.3-.3-1.8l-.3.6z" class="z AA"/><path d="M87.9 24.7c-.3.5-.1 1.2.2 1.6s.9.6 1.1.4l.4-.6c-.2.3-.8 0-1.1-.4s-.5-1.1-.2-1.6l-.4.6z" class="z AA"/><path d="M87.3 25.8c-.3.5-.2 1.1.1 1.5s.9.6 1.1.3l.4-.5c-.2.3-.8.1-1.1-.3s-.5-1-.1-1.5l-.4.5z" class="z AA"/><path d="M87.7 28.7c-.2.2-.8.1-1-.3-.2-.3-.4-.8-.1-1.3l.4-.7c-.3.5-.2 1.1.1 1.4.3.4.9.6 1.1.3l-.5.6zm5.4-7.3c-.3.4-1.1-.1-1.2-.7s0-1.3 1-1.5c-.2.2-.2.6.1 1 .3.3.4.9.1 1.2z" class="z AA"/><path d="M92.6 19.3c.1 0 .2-.1.3-.1-.2.2-.2.6.1 1s.4.9.2 1.2c-.1.1-.1.1-.2.1.4-.1-.1-.8-.3-1.1-.3-.2-.6-.8-.1-1.1z" class="z AA"/><g class="AC AJ"><path d="M92.9 19.7c-.1-.3 0-.5 0-.5s.4.8.4 1.5c0-.4-.3-.8-.4-1z"/><path d="M85.3 29.3l5.5-9.4c.4-.7 2.2-.7 2.2-.7s-1.4.2-1.8.7l-5.9 9.6c-.1-.1-.1-.2 0-.2z"/></g><path d="M85.9 30.2l6.1-8.9s-.5-.6-.2-1.2l-6.3 9.8s.2.2.4.3z" class="z AA"/><path d="M76.5 39.8c.1 0 .2-.1.2-.1.1-.3 1.8-3 3-4.8.1-.1 0-.2-.1-.3s-.2 0-.3.1l-3 4.9c0 .1.1.2.2.2z" class="z AB"/><path d="M79.3 34.7c.1-.1.2-.1.3-.1l.1.1c-.1 0-.2 0-.2.1l-3 4.9v.1c-.1 0-.2-.1-.2-.2s0-.1 3-4.9zm-2.6 5.9c.1 0 .2-.1.2-.1.1-.3 1.9-3 3-4.9.1-.1 0-.2-.1-.3s-.2 0-.3.1l-3.1 5c.1.1.2.2.3.2z" class="z AB"/><path d="M79.6 35.3c.1-.1.2-.1.3-.1l.1.1c-.1 0-.1 0-.1.1l-3.1 5c0 .1 0 .1.1.1-.1 0-.2-.1-.2-.2-.2 0-.2 0 2.9-5zm-2.5 5.9c.1 0 .2-.1.2-.1.1-.3 1.9-3.1 3.1-5 .1-.1 0-.2-.1-.3s-.2 0-.3.1l-3.2 5.2c.1 0 .1.1.3.1z" class="z AB"/><path d="M80 35.8c.1-.1.2-.1.3-.1l.1.1s-.1 0-.1.1l-3.2 5.2v.1H77c-.1 0-.2-.1-.2-.2.1-.1.1-.2 3.2-5.2z" class="z AB"/><g class="AH z"><path d="M80.2 32.8c-.1.1-.1.1-.1.2v.1c0 .1-.1.2 0 .4 0 .1 0 .3.1.5s.1.4.2.5c.1.2.2.4.4.5l.5.5c.2.2.4.3.6.4s.4.2.7.3c.2.1.4.2.7.2.2.1.4.1.7.1h.6c.2 0 .3-.1.5-.1.1-.1.2-.1.3-.2l.1-.1s0-.1.1-.1l.1-.1-.1.1s-.1 0-.1.1c0 0-.1 0-.1.1-.1 0-.2.1-.3.1s-.3.1-.4.1h-.6c-.2 0-.4-.1-.6-.1-.2-.1-.4-.1-.6-.2-.1 0-.2-.1-.3-.1s-.2-.1-.3-.2c-.2-.1-.4-.3-.6-.4s-.4-.3-.5-.5c-.2-.2-.3-.3-.4-.5s-.2-.3-.3-.5c0-.1-.1-.2-.1-.2v-.2-.4-.1c-.3-.1-.3-.1-.2-.2z" class="AA"/><path d="M82.4 31c0 .1-.1.1-.1.2v.1.1c0 .1 0 .2.1.3a3.04 3.04 0 0 0 .5.7 1.38 1.38 0 0 0 .4.3c.1.1.3.2.4.3a.76.76 0 0 0 .4.2c.1.1.3.1.5.2.3.1.6.1.8.1.1 0 .2 0 .3-.1 0 0 .1 0 .1-.1 0 0 .1 0 .1-.1.1 0 .1-.1.1-.1h-.1s-.1 0-.2.1h-.1-.1-.3c-.1 0-.2 0-.4-.1-.1 0-.3-.1-.4-.1s-.1 0-.2-.1c-.1 0-.1-.1-.2-.1s-.1-.1-.2-.1l-.2-.1c-.1-.1-.3-.2-.4-.3s-.3-.2-.4-.3c-.2-.2-.4-.4-.5-.6-.1-.1-.1-.2-.1-.3V31v-.1c.2.2.2.2.2.1zm1.7-1.7s0 .1-.1.2v.2c0 .1 0 .2.1.3.1.4.5.8 1 1.1s1 .5 1.4.4c.1 0 .2 0 .3-.1.1 0 .1-.1.2-.1l.1-.1H87h-.1-.2-.2c-.2 0-.4 0-.6-.1-.1 0-.2-.1-.3-.1s-.1-.1-.2-.1-.1-.1-.2-.1c-.2-.1-.4-.3-.6-.5s-.3-.4-.4-.5c0-.1-.1-.2-.1-.2v-.2-.1zm-6.5 13l-.1-.1c-.1 0-.2-.1-.3-.2-.2-.2-.5-.5-.8-1-.1-.2-.2-.5-.3-.8 0-.3 0-.6.1-.8l.6-.9.6-.9 1.1-1.8c.2-.3.3-.6.5-.8.2-.3.3-.5.4-.8.1-.2.3-.4.4-.6.1-.1.1-.2.1-.3s.1-.2.1-.2c.1-.1.1-.3.1-.3v-.1l-3 4.9-.6.9c-.2.3-.4.6-.5.9v.9l.3.8c.1.2.3.4.4.6s.3.3.4.4.2.2.3.2h.2z" class="AA"/></g><path d="M82.4 35.1c-.2-.2-.5-.3-.6-.5l1.2-2.1h0c.2.2.5.4.8.6.1.1.2.1.3.2h0l-1.4 2c-.1-.1-.2-.1-.3-.2z" class="z AB"/><g class="AE"><path d="M78.2 41.7c0-.4-.1-1.2-.5-1.6s-1.5-.5-1.6-.5c-.2.1-.5.5-.4.7 0 .3 1 .8 1 1.3s.1.8.3 1.1c.1.3 1.2 0 1.2-1z"/><path d="M78.2 41.7c0 .4.6.7.9.7l1 2.9c.4 1.3.3 3-.4 2.8-.7-.3-.9-.4-1.2-1-.8-1.3-1.3-1.7-1.3-2.5s-.1-1.5-.2-1.8c-.2-.5-.2-.8.2-1 .3-.3 1-.3 1-.1zm6.3-3.2c.5.5 1.3.7 1.6.2s.3-.7.8-1.1c.5-.5.5-.8.4-1.1s-.6-.9-1.4-.7-1.3.9-1.5 1.4-.3.9.1 1.3z"/></g><path d="M84.4 37.2c0-.1.1-.2.2-.4l.3-.3c.2-.2.4-.3.6-.4.1-.1.2-.1.3-.1h.1.1.2c.2 0 .4.1.6.3.1.1.1.2.2.2 0 0 0 .1.1.1v.1c0 .1 0 .1-.1.2 0 .1-.1.2-.2.2l-.1.1c-.1.1-.1.1-.2.1-.1.1-.2.2-.3.4a.76.76 0 0 0-.2.4c-.1.1-.1.2-.2.3l-.1.1v.2.2s0 .1-.1.1h0 0 0 0 0 0-.1l-.1.1-.4.4c-.1.1-.2.2-.3.4-.1.1-.2.2-.3.4-.1.1-.2.3-.3.4 0 .1-.1.1-.1.2s-.1.2-.1.2c0 .1-.1.2-.1.3v.3a.76.76 0 0 0 .2-.4c.1-.1.2-.2.3-.4.2-.2.4-.5.6-.7s.5-.4.7-.6c.1-.1.1-.1.2-.1.1-.1.1-.1.1-.2.1-.1.1-.3.1-.5h0c.1-.2.3-.5.4-.7l.3-.3.3-.3c.1-.1.2-.2.2-.3.1-.1.1-.3.1-.4s-.1-.3-.1-.4-.2-.3-.3-.4c-.2-.2-.5-.3-.8-.3-.1 0-.3 0-.4.1a.76.76 0 0 0-.4.2c-.2.1-.4.3-.6.5-.1.2-.2.5-.3.7z" class="z AB AC"/><path d="M84.2 40.1c.5.4.5 1.3.1 1.7-.3.5-.6.2-1 .2-1 .2-2.2.1-2.2-.6 0-1.4.4-1.4.8-1.4s.8.1 1.3-.1c.5-.1.7 0 1 .2z" class="AE"/><path d="M81.7 40.2c.3.2.3.8.4 1.1.5 0 1.2-.1 1.2-.1s0-.7-.3-.9c-.5-.1-1.3-.1-1.3-.1z" class="z AB AC"/><path d="M84.7 41.7c.4.5.2 1.4-.1 1.7-.3.4-.6 0-.9 0-.9.1-1.8-.1-1.8-1.3 0-1 .6-.9.9-.8.3 0 .7.2 1.1 0 .4 0 .5.2.8.4z" class="AE"/><path d="M82.6 41.6c.2.2.3.7.3 1h1s0-.5-.2-.8c-.3-.1-1.1-.2-1.1-.2z" class="z AB AC"/><path d="M85.6 43.9c.2.5-.3 1.1-.6 1.3-.4.2-.4-.2-.7-.2-.7-.2-1.4-.6-1-1.5.3-.7.8-.5 1-.4s.5.3.9.4c.2-.1.3.1.4.4z" class="AE"/><g class="AC z"><path d="M83.9 43.1c.1.3.1.6.1.8.3.2.8.3.8.3v-.6c-.3-.2-.9-.5-.9-.5zm-2.1-.8v-.2c0-.1 0-.1.1-.2 0-.1.1-.1.1-.2 0 0 .1-.1.2-.1.1-.1.2-.1.4 0 .1 0 .3.1.4.1s.3.1.5.1h.2.2.2.1c.1 0 .2.1.2.2h0 0c.1.1.3.3.4.6.1.1.1.2.2.4l.3.3c.2.2.3.4.4.6 0 .1 0 .1.1.2v.2.2.2c0-.1.1-.3.1-.4v-.2-.2c-.1-.3-.2-.5-.4-.7l-.2-.3c-.1-.1-.2-.2-.2-.3-.1-.4-.1-.5-.2-.6l-.3-.3h0l-.3-.3h-.4c-.3.1-.6.1-.9 0-.1 0-.3-.1-.4-.1s-.3 0-.4.1c-.1 0-.1.1-.2.1 0 .1-.1.1-.1.2v.2c-.1.2-.1.3-.1.4z" class="AB"/><path d="M81.9 40h.2c.1 0 .2 0 .3.1h.4c.1 0 .3 0 .5-.1.1 0 .3-.1.4 0 .1 0 .2.1.4.2.1 0 .1.1.2.2 0 .1.1.1.1.2.1.1.2.3.3.4s.2.3.3.4c.2.2.4.4.5.6.1.1.1.2.1.3s0 .2.1.2v.2.1-.1-.2c0-.2 0-.4-.1-.6a3.04 3.04 0 0 0-.5-.7c-.1-.1-.2-.2-.3-.4-.1-.1-.2-.3-.3-.4s-.2-.3-.4-.4c-.1-.1-.3-.2-.5-.2s-.3 0-.5.1c-.1.1-.3.1-.4.1h-.6-.2zm2.3 3.1l.3.3a.76.76 0 0 0 .4.2h.1.1c.1 0 .1 0 .1.1s0 0 .1.1c0 0 0 .1.1.1v.1s.1.1.1.2.1.2.1.2c0 .1.1.2.1.3s.1.2.2.2c-.1-.2-.1-.4-.1-.5 0-.2-.1-.4-.2-.5h0c0-.1-.1-.3-.2-.3-.1-.1-.3-.1-.4-.1-.3-.2-.6-.3-.8-.4z" class="AB"/></g><path d="M84.4 37.2s0 .1-.1.4c0 .1-.1.2-.1.4 0 .1 0 .3.1.4l.3.3c.1.1.2.2.3.2.2.1.4.1.4.1v-.1s0-.1-.1-.1l-.1-.1-.2-.2-.1-.1-.1-.1-.1-.1s0-.1-.1-.1v-.3-.3c-.1-.2-.1-.3-.1-.3z" class="z AB"/><path d="M75.7 40c-.2.6.9.8 1.5 1.3.7.4.9-.2.6-.8.3.4.3 1 .3 1.3s.2.5.5.6h.3 0a52.77 52.77 0 0 0 1.7 5.4l-.3.4-.3-1.4c-.2-1.5-1.2-3.8-1.5-4.1-.3-.1-1 .2-1 1.2-.1 1 .1 1.1.6 1.8s.9 1.2.7 2-.9 1-.9 1c.8-.5.4-1.4.1-2-.6-.9-1-1.3-1-2 0-.8-.1-1.5-.2-1.8-.2-.3-.3-.6-.3-1.1-.1-.5-1-1-1-1.3 0-.2.1-.4.2-.5z" opacity=".1" class="z"/><path d="M54.2 16.5v2.2c0 .5-.4 1-1 1h-2c-.2 0-.4-.2-.5-.5s-.3-.8-.6-.8c-.9 0-1.2 1.2-1.9 1.2h-4.7c-.6 0-1.2-.5-1.2-1.2v-2c0-.6.5-1.2 1.2-1.2l9.8.2c.5.2.9.6.9 1.1z" class="z AA AH"/><g class="AG z"><path d="M42.3 16.5v2c0 .6.5 1.2 1.2 1.2h4.7c.7 0 1-1.2 1.9-1.2.3 0 .5.5.6.8s.4.5.5.5h2c.5 0 1-.4 1-1v-2.2c0-.5-.4-1-1-1l-9.8-.2c-.6-.1-1.1.5-1.1 1.1zm.4 0a.68.68 0 0 1 .7-.7l9.8.2a.47.47 0 0 1 .5.5v2.2a.47.47 0 0 1-.5.5h-2s-.1-.1-.1-.2c-.1-.3-.4-1-1.1-1s-1.1.5-1.4.8c-.2.2-.4.4-.5.4h-4.7a.68.68 0 0 1-.7-.7v-2h0z" class="AA"/><path d="M35.9 15.3h7.6c-.6 0-1.2.5-1.2 1.2v2L36 16.4l-.9-.5c0 0 .3-.6.8-.6z" class="AA"/></g><g class="AH z"><path d="M42.6 15.8l-7.2-.3a.76.76 0 0 1 .4-.2h7.6c-.3.1-.6.2-.8.5z" class="AA"/><path d="M54 15.9l-1.5 3.8h-1.3c-.2 0-.4-.2-.5-.5-.1-.2-.2-.5-.4-.7l.1-.5.6-2.6h2.3c.2.2.5.3.7.5zm-5.2-.4h1.1l-3.4 4.2h-2.2zm-6.5 1c0-.6.5-1.2 1.2-1.2l2.4.1-3.6 2.3v-1.2z" class="AJ"/></g><defs><path id="Q" d="M41.6 70.4l-8.8 14.9-3.2 1.5s-1.9-.4-2.7-2.6l-.6-.2-2.7-13.6h18 0z"/></defs><clipPath id="R"><use xlink:href="#Q"/></clipPath><g clip-path="url(#R)"><path d="M25.2 73.5l1.1 2 1.6-.9-1.1-2s1.6-.2 2.4 1.2c.9 1.3-.4 3-.4 3l-.7 2.1.2 1.3-1.8.3-.2-1.5-1.1-1.5-.3.1-.4-1.2.4-.2c0 .1-.9-1.7.3-2.7z" fill="#535363"/><g class="AC z"><path d="M25.2 76.3h0c0-.1-.8-1.6 0-2.4l1.1 1.8-1.1.6zm0 .1l1.1-.6 2-1.1-1.1-1.8c.5 0 1.3.2 1.9 1.1.8 1.2-.3 2.8-.3 2.8h0l-.8 2.1.2 1.2-1.4.2-.2-1.4-1.3-1.6-.2.1-.3-.8.4-.2z" class="AD"/><path d="M25.2 76.4l-.1-.2s-.7-1.5 0-2.4v.1c-.7.9 0 2.3 0 2.3l.1.2 3.1-1.7-1.1-1.8c.2 0 .5.1.9.2-.3-.1-.6-.2-.8-.2l1.1 1.8-3.2 1.7-.3.3.3.7h-.1l-.3-.8.4-.2zm.2 1l1.2 1.6.3 1.3h-.1l-.2-1.4-1.3-1.5z" class="AD"/></g><path d="M29.4 94.9h.2c.7-.1 1.2-.8 1.1-1.5l-2.2-13.1-1.8.3L28 93.8c-.1.7.7 1.3 1.4 1.1zm-.9-1.1c-.1-.4.2-.8.6-.9s.8.2.9.6-.2.8-.6.9-.8-.2-.9-.6z" class="AK"/><path d="M25.806 77.701l1.659-.927.244.436-1.659.927z" fill="#bcbec0"/><g fill="#d6d7d8"><use xlink:href="#I"/><path d="M26.4 78.1c.1 0 .1-.1.1-.1l-.2-.6-.1-.1-.1.1.3.7c-.1 0 0 0 0 0z"/><use xlink:href="#J"/><path d="M26.8 77.9c.1 0 .1-.1.1-.1l-.2-.6-.1-.1-.1.1.3.7c-.1 0-.1 0 0 0zm.2-.1c.1 0 .1-.1.1-.1l-.2-.6-.1-.1-.1.1.3.7c-.1-.1-.1 0 0 0z"/><path d="M27.2 77.7s0-.1 0 0c.1 0 .1-.1.1-.1l-.2-.6-.1-.1-.1.1.3.7c-.1-.1-.1 0 0 0zm.2-.2c.1 0 .1-.1.1-.1l-.2-.6-.1-.1-.1.1.3.7c-.1 0-.1.1 0 0z"/><path d="M27.6 77.4c.1 0 .1-.1.1-.1l-.2-.6-.1-.1-.1.1.3.7c-.1 0-.1 0 0 0z"/></g><path d="M29.4 94.7h.1c.6-.1 1-.8.9-1.5l-2.2-12.8-1.5.3 1.4 12.9c.1.7.7 1.2 1.3 1.1zm-1-.9c-.1-.5.2-.9.7-1s.9.2 1 .7-.2.9-.7 1-.9-.3-1-.7z" class="z AC AD"/><g class="AC AD"><path d="M28.2 84.9c-.4.3-.8.7-1.1 1.2l-.1-1.6c.8-.4 2.1-.2 1.2.4zm-.7 5.2l-.2-2.6c.5-1.2 2.1-1.6 2.1-1.6l.4 2.2c-1.8.4-2.3 2-2.3 2z"/></g><g class="AC z"><path d="M30.1 93.5c.1.5-.2.9-.7 1-.2 0-.5 0-.6-.2.2.1.4.1.6.1.4 0 .7-.4.7-.9-.1-.3-.2-.5-.4-.6.2.2.4.4.4.6zm-2 0l-1.4-12.9 1.5-.3v.1l-1.5.3 1.4 12.8c.1.5.3.8.6 1-.3-.1-.6-.5-.6-1z" class="AD"/></g></g><defs><path id="S" d="M41.6 70.4l-8.8 14.9-3.2 1.5s-1.9-.4-2.7-2.6l-.6-.2-2.7-13.6h18 0z"/></defs><clipPath id="T"><use xlink:href="#S"/></clipPath><g clip-path="url(#T)"><path d="M30.5 83.9l.1-.6 1.2.2 1.2.2-.1.6-.2.2c-.4.4-.9 5.5-1 6.2 0 .7-.3 1.2-1.2 1-.9-.1-1-.7-.8-1.3s1.3-5.7 1.1-6.1l-.3-.4z" class="AK"/><g class="AC z"><path d="M31 83.9l.1-.6.7.1.7.1-.1.6-.2.2c-.3.4-.9 5.4-1 6.1-.1.6-.3 1.1-.8 1.1-.5-.1-.6-.6-.4-1.3s1.2-5.6 1-6.1v-.2z" class="AD"/><path d="M31.3 84l.1-.6.4.1.4.1-.1.6-.1.1c-.2.4-.9 5.4-1 6.1-.1.6-.2 1.1-.5 1.1-.3-.1-.3-.6-.2-1.2l1-6.1V84z" class="AD"/></g><path d="M32.7 83.1l-1.6-.3c-.2 0-.4.1-.4.3v.1l2.3.4v-.1c0-.1-.1-.3-.3-.4z" fill="#f15a29"/><g class="AC z"><path d="M32.4 83.1l-1.1-.2c-.2 0-.3.1-.3.2v.1l1.7.3v-.1c0-.1-.1-.3-.3-.3z" class="AD"/><path d="M31.9 83h-.2c-.1 0-.2 0-.2.1v.2l.4.1v-.2c.2-.1.1-.2 0-.2z" class="AD"/></g><path d="M32.9 74.1l.8.2-.1 1.6-.2.3h-.2L32.1 83h-.5l1.2-6.9h-.2l-.1-.3z" fill="#535363"/><g class="AC z"><path d="M33.2 74.2h.2v1.7l-.3.3H33L31.9 83h-.1l1.1-6.9h0l-.2-.3zm-1.1 12.5c-.1.5-.1 1.1-.2 1.6-1.6-.3-2.1 1.5-2.1 1.5h0c.2-.6.4-1.8.6-2.9.4-.5 1.7-.2 1.7-.2z" class="AD"/></g></g><path d="M96.3 137v18.2c0 1.6-1.3 2.8-2.8 2.8h-2.1v.4h-1.7v-.4h-1.1v.4h-1.7v-.4h-1.1v.4H84v-.4H71.5v.4h-1.7v-.4h-1.1v.4H67v-.4h-1.1v.4h-1.7v-.4h-2c-1.6 0-2.8-1.3-2.8-2.8V137h36.9z" class="AI"/><path d="M62.1 157.3h2v.1h1.7v-.1H67v.1h1.7v-.1h1.1v.1h1.7v-.1H84v.1h1.7v-.1h1.1v.1h1.7v-.1h1.1v.1h1.7v-.1h2.1c.9 0 1.7-.1 2.2-.4-.5.7-1.3 1.1-2.2 1.1h-2.1v.4h-1.7v-.4h-1.1v.4h-1.7v-.4h-1.1v.4H84v-.4H71.5v.4h-1.7v-.4h-1.1v.4H67v-.4h-1.1v.4h-1.7v-.4h-2c-.9 0-1.7-.4-2.2-1.1.4.3 1.2.4 2.1.4z" class="AA AF"/><path d="M70.5 131c0-1.4 1.1-2.5 2.5-2.5h9.5c1.4 0 2.5 1.1 2.5 2.5v4H70.5v-4h0zm13.5 0a1.54 1.54 0 0 0-1.5-1.5H73a1.54 1.54 0 0 0-1.5 1.5v3H84v-3h0z" class="AI"/><path d="M73 128.5h9.5c1.4 0 2.5 1.1 2.5 2.5v4h-.4v-3.5c0-1.4-1.1-2.5-2.4-2.5h-9c-1.3 0-2.4 1.1-2.4 2.5v3.5h-.4v-4c.1-1.4 1.2-2.5 2.6-2.5z" opacity=".05" class="AC"/><path d="M94 133.3H61.5a2.22 2.22 0 0 0-2.2 2.2v1.6h36.9v-1.6c.1-1.2-.9-2.2-2.2-2.2z" class="AG"/><path d="M94.4 134H61.2c-.8 0-1.5.5-1.8 1.2.2-1.1 1.1-1.9 2.2-1.9H94c1.1 0 2 .8 2.2 1.9-.3-.8-1-1.2-1.8-1.2z" class="z AC AD"/><path d="M95.6 136.4H59.9a.65.65 0 0 0-.6.6h0 36.9 0c.1-.3-.2-.6-.6-.6zm-17.8 2h18.5v4.3c0-.8-1.8-2-5.7-2H77.8 65c-3.9 0-5.7 1.1-5.7 2v-4.3h18.5z" class="AA AF z"/><path d="M96.4 139.8H59.2c-.8 0-1.4-.6-1.4-1.4h0c0-.8.6-1.4 1.4-1.4h37.3c.8 0 1.4.6 1.4 1.4h0c-.1.8-.7 1.4-1.5 1.4z" class="AI"/><path d="M59.2 137h37.3c.8 0 1.4.6 1.4 1.4h0c0 .1 0 .3-.1.4-.2-.6-.7-1-1.3-1H59.2c-.6 0-1.1.4-1.3 1 0-.1-.1-.2-.1-.4h0c0-.7.6-1.4 1.4-1.4z" class="z AC AD"/><g class="AG"><use xlink:href="#K"/><path d="M66.3 133.8H65c-.1 0-.2-.1-.2-.2v-.7a.68.68 0 0 1 .7-.7h.3a.68.68 0 0 1 .7.7v.7c0 .1-.1.2-.2.2z"/><use xlink:href="#K" x="5.6"/><use xlink:href="#K" x="24.2"/><use xlink:href="#K" x="27"/><path d="M93.3 133.8H92c-.1 0-.2-.1-.2-.2v-.7a.68.68 0 0 1 .7-.7h.3a.68.68 0 0 1 .7.7v.7c0 .1-.1.2-.2.2zM74 130h7.6c.4 0 .6-.3.6-.6v-.7c0-.4-.3-.6-.6-.6H74c-.4 0-.6.3-.6.6v.7a.65.65 0 0 0 .6.6z"/></g><path d="M73.8 128.6h7.9c.1 0 .2-.1.2-.2h0c0-.1-.1-.2-.2-.2h-7.9c-.1 0-.2.1-.2.2h0c0 .1.1.2.2.2z" class="z AC AD"/><path d="M73.5 128.3v.6a.65.65 0 0 0 .6.6h7.5a.65.65 0 0 0 .6-.6v-.6c.1.1.1.2.1.3v.7c0 .4-.3.6-.6.6H74c-.4 0-.6-.3-.6-.6v-.7c0-.1 0-.2.1-.3z" class="z AA AF"/><path d="M74.7 141.8H81v13.9h-6.3zm-12.2 0h6.3v13.9h-6.3zm24.2 0H93v13.9h-6.3z" opacity=".05" class="AC z"/></svg>