<?xml version="1.0" encoding="utf-8"?>
<!-- Generator: Adobe Illustrator 23.0.1, SVG Export Plug-In . SVG Version: 6.00 Build 0)  -->
<svg version="1.1" id="Layer_1" xmlns="http://www.w3.org/2000/svg" xmlns:xlink="http://www.w3.org/1999/xlink" x="0px" y="0px"
	 viewBox="0 0 69 70" style="enable-background:new 0 0 69 70;" xml:space="preserve">
<style type="text/css">
	.st0{fill:#3F3F3F;}
	.st1{fill:#404040;}
</style>
<g>
	<g>
		<path class="st0" d="M34.36,22.5c0.46-0.15,0.46-0.57,0.57-0.89c1.71-5.24,3.41-10.49,5.08-15.75c0.21-0.65,0.48-0.82,1.12-0.68
			c5.39,1.2,10.1,3.63,14.04,7.54c3.99,3.96,6.35,8.76,7.58,14.19c0.59,2.6,0.9,5.24,0.97,7.91c0.01,0.54-0.12,0.67-0.65,0.67
			c-2.35-0.03-4.7,0-7.04-0.02c-0.52-0.01-0.69,0.13-0.68,0.66c0.04,1.36,0.03,2.72,0,4.08c-0.01,0.45,0.12,0.62,0.59,0.6
			c0.69-0.03,1.38-0.01,2.17-0.01c-0.22-1.03-0.39-2.01-0.65-2.97c-0.14-0.51-0.06-0.65,0.48-0.64c1.81,0.03,3.63,0.02,5.44,0
			c0.4,0,0.62,0.08,0.55,0.52c-0.1,0.59,0.23,0.65,0.7,0.63c0.84-0.04,1.65,0.1,2.4,0.48c0.88,0.44,1.24,1.19,1.22,2.15
			c-0.01,0.97-0.43,1.68-1.3,2.11c-0.68,0.34-1.4,0.46-2.16,0.46c-16.86,0-33.72,0-50.58,0c-3.25,0-6.51,0-9.76,0.01
			c-0.91,0-1.81-0.05-2.62-0.54c-1-0.61-1.34-1.73-0.96-3.1c0.28-1,1.06-1.54,2.24-1.53c0.35,0,0.69,0,1.04,0.02
			c0.56,0.03,1.11,0.07,0.93-0.78C5.03,37.3,5.23,37.2,5.52,37.2c1.89,0.01,3.79,0.01,5.68,0c0.43,0,0.39,0.22,0.33,0.52
			c-0.18,0.8-0.32,1.62-0.52,2.42c-0.1,0.39-0.03,0.49,0.38,0.52c2.27,0.13,2.26,0.14,2.26-2.11c0-0.83-0.04-1.66,0.01-2.48
			c0.03-0.58-0.11-0.78-0.74-0.76c-2.34,0.08-4.69,0.09-7.03,0.16c-0.49,0.01-0.72-0.06-0.69-0.63c0.54-8.99,3.07-17.15,9.92-23.45
			c3.72-3.42,8.24-5.25,13.19-6.07C28.83,5.24,29,5.44,29.14,5.9c1.69,5.47,3.41,10.93,5.12,16.4
			C34.28,22.37,34.33,22.43,34.36,22.5z"/>
		<path class="st1" d="M16.93,48.9c4,0,8,0.02,12-0.02c0.66-0.01,1.01,0.22,1.3,0.78c0.55,1.06,1.16,2.09,1.74,3.14
			c0.17,0.3,0.38,0.44,0.75,0.43c1.2-0.02,2.4-0.02,3.6,0c0.37,0.01,0.57-0.1,0.73-0.45c0.49-1.09,1.24-2.04,1.81-3.09
			c0.27-0.48,0.58-0.58,1.08-0.59c6.19-0.01,12.37-0.02,18.56-0.08c1.92-0.02,3.84-0.04,5.75-0.08c0.53-0.01,0.68,0.14,0.68,0.67
			c-0.03,2.16-0.03,4.32,0,6.48c0.01,0.49-0.13,0.77-0.62,0.81c-1.14,0.1-1.49,0.83-1.78,1.85c-0.87,3.03-1.88,6.02-2.82,9.03
			c-0.13,0.42-0.35,0.56-0.8,0.57c-2.9,0.08-5.8,0.2-8.7,0.31c-2.9,0.11-5.8,0.2-8.7,0.33c-0.45,0.02-0.66-0.12-0.83-0.53
			c-1.29-2.97-2.6-5.92-3.91-8.88c-0.05-0.12-0.1-0.25-0.14-0.37c-0.37-1.27-0.38-1.18-1.72-1.29c-1.36-0.11-2.11,0.18-2.63,1.65
			c-1.07,3.02-2.48,5.91-3.72,8.87c-0.17,0.4-0.34,0.57-0.8,0.56c-5.56-0.22-11.12-0.41-16.68-0.64c-1.63-0.07-1.64-0.11-2.13-1.67
			c-0.89-2.83-1.78-5.66-2.63-8.5c-0.17-0.57-0.45-0.87-1.02-1.06c-1.22-0.4-1.21-0.44-1.21-1.7c0-1.95,0.03-3.89-0.02-5.84
			c-0.01-0.59,0.19-0.69,0.72-0.69C8.82,48.91,12.88,48.9,16.93,48.9z M17.08,52.13c-1.83,0-3.38-0.01-4.92,0
			c-2.64,0.01-4.22,2.02-3.58,4.6c0.54,2.19,1.14,4.36,1.73,6.54c0.53,1.93,1.98,3.13,3.98,3.21c3.56,0.15,7.13,0.26,10.69,0.39
			c0.95,0.04,1.74-0.28,2.24-1.11c1.38-2.3,2.51-4.76,3.07-7.37c0.63-2.95-1.73-5.96-4.47-6.04C22.82,52.25,19.81,52.09,17.08,52.13
			z M52.22,52.13c0-0.02,0-0.03,0-0.05c-2.79,0.08-5.59,0.25-8.38,0.22c-2.55-0.03-4.27,1.75-4.94,3.78
			c-0.3,0.93-0.35,1.89-0.03,2.82c0.77,2.26,1.62,4.48,2.77,6.58c0.56,1.02,1.47,1.44,2.67,1.39c3.43-0.16,6.86-0.27,10.29-0.39
			c2.06-0.07,3.64-1.24,4.18-3.19c0.59-2.18,1.17-4.36,1.73-6.54c0.65-2.54-0.96-4.62-3.57-4.62
			C55.36,52.13,53.79,52.13,52.22,52.13z"/>
		<path class="st1" d="M34.62,18.49c-0.51-0.75-0.59-1.5-0.79-2.19c-1.18-4-2.31-8.02-3.49-12.02c-0.19-0.64-0.08-0.92,0.61-0.79
			c0.85,0.16,1.39-0.24,1.85-0.91c0.39-0.57,0.89-1.06,1.31-1.6c0.27-0.35,0.45-0.35,0.73,0.01c0.47,0.61,1.05,1.14,1.48,1.77
			c0.46,0.68,1.02,0.95,1.81,0.83c0.5-0.08,0.67,0.09,0.52,0.62c-1.28,4.55-2.55,9.11-3.82,13.67
			C34.79,18.03,34.73,18.17,34.62,18.49z"/>
	</g>
</g>
</svg>
