<?xml version="1.0" encoding="utf-8"?>
<!-- Generator: Adobe Illustrator 23.0.1, SVG Export Plug-In . SVG Version: 6.00 Build 0)  -->
<svg version="1.1"
	 id="svg2989" inkscape:version="0.48.0 r9654" sodipodi:docname="400x400px-kilogram_weight.png" xmlns:cc="http://creativecommons.org/ns#" xmlns:dc="http://purl.org/dc/elements/1.1/" xmlns:inkscape="http://www.inkscape.org/namespaces/inkscape" xmlns:rdf="http://www.w3.org/1999/02/22-rdf-syntax-ns#" xmlns:sodipodi="http://sodipodi.sourceforge.net/DTD/sodipodi-0.dtd" xmlns:svg="http://www.w3.org/2000/svg"
	 xmlns="http://www.w3.org/2000/svg" xmlns:xlink="http://www.w3.org/1999/xlink" x="0px" y="0px" viewBox="0 0 400 400"
	 style="enable-background:new 0 0 400 400;" xml:space="preserve">
<style type="text/css">
	.st0{fill:#FF7B07;}
	.st1{fill:#FF500F;}
	.st2{fill:none;stroke:#000000;stroke-miterlimit:10;}
</style>
<g id="XMLID_1_">
	<g>
		<g id="XMLID_2_">
			<g>
				<path class="st0" d="M316.1,83.9c29.9,29.8,48.4,71.1,48.4,116.6s-18.5,86.8-48.4,116.6c-29.8,29.9-71.1,48.4-116.6,48.4
					S112.7,347,82.9,317.1C53,287.3,34.5,246.1,34.5,200.5S53,113.7,82.9,83.9c29.8-29.9,71.1-48.4,116.6-48.4S286.3,54,316.1,83.9z
					 M341.9,209.7c0.2-3,0.3-6.1,0.3-9.2c0-37.5-14.5-71.7-38.2-97.2c-1.1-1.2-2.3-2.5-3.6-3.7c-1.2-1.1-2.4-2.4-3.8-3.6
					c-23.8-22.1-55.1-36.4-89.9-38.1c-2.3-0.1-4.8-0.2-7.1-0.2h-0.1c-2.4,0-4.9,0.1-7.3,0.2c-36.5,1.8-69.4,17.3-93.7,41.6
					c-25.8,25.8-41.7,61.5-41.7,100.9s15.9,75,41.7,100.9c24.2,24.2,57.1,39.8,93.7,41.5c2.4,0.1,4.9,0.2,7.3,0.2s4.9-0.1,7.2-0.2
					c4.3-0.2,8.5-0.6,12.7-1.2c29.7-4.1,56.3-17.3,77.3-36.8c1.2-1.1,2.5-2.3,3.8-3.6c0.8-0.8,1.6-1.6,2.3-2.4
					c1.2-1.2,2.3-2.5,3.5-3.8c1.5-1.7,3-3.5,4.4-5.2l0,0c1-1.3,2.1-2.6,3.1-4c0,0,0,0,0-0.1c1.7-2.3,3.4-4.6,4.9-6.9c0,0,0,0,0-0.1
					C332.1,258.7,340.3,235.1,341.9,209.7z"/>
				<path d="M300.3,99.6c25.9,25.9,41.8,61.5,41.8,100.9s-15.9,75-41.8,100.9c-24.3,24.2-57.1,39.7-93.6,41.5
					c-2.4,0.1-4.8,0.2-7.2,0.2c-2.4,0-4.9-0.1-7.3-0.2c-10.3-0.6-20.3-2.2-30-4.8c-2.3-0.7-4.5-1.3-6.8-2l0,0
					c-20-6.5-38.1-17.2-53.1-31.2c-1.2-1.1-2.5-2.3-3.7-3.6c-1.1-1.2-2.4-2.4-3.6-3.8c-14-15.1-24.8-33.1-31.2-53.1l0,0
					c-0.7-2.3-1.4-4.5-2-6.8c-3.2-11.9-5-24.5-5-37.4c0-12.9,1.7-25.4,5-37.4c0.7-2.3,1.3-4.5,2-6.8l0,0c6.5-20,17.2-38.1,31.2-53.1
					c1.1-1.2,2.3-2.5,3.6-3.7c0.8-0.8,1.6-1.6,2.4-2.4c1.2-1.2,2.5-2.3,3.8-3.5c1.7-1.5,3.5-3,5.3-4.4l0,0c1.3-1,2.6-2.1,4-3.1
					c0,0,0,0,0.1,0c2.3-1.7,4.6-3.4,6.9-4.9c0,0,0,0,0.1,0C141.4,68,165,59.8,190.4,58.1c0.7,0,1.2-0.1,1.8-0.1
					c2.4-0.1,4.9-0.2,7.3-0.2h0.1c25.2,0.1,48.8,6.7,69.4,18.1c3,1.7,6,3.5,8.8,5.3C285.9,86.6,293.4,92.8,300.3,99.6z M298.5,166.6
					v-53.8c0-0.2,0-0.4,0-0.6c-0.3-6-5.1-10.7-11.2-10.7h-53.7c-6,0-10.9,4.7-11.2,10.7c0,0.2,0,0.4,0,0.6c0,0.2,0,0.3,0,0.5
					c0.3,5.9,5.1,10.7,11.2,10.7h26.6L122.9,261.2v-26.7c0-0.2,0-0.3,0-0.5c-0.3-6-5.1-10.7-11.2-10.7s-10.9,4.7-11.2,10.7
					c0,0.2,0,0.3,0,0.5v53.8c0,0.2,0,0.4,0,0.6c0.3,6,5.2,10.7,11.2,10.7h53.7c6,0,10.9-4.7,11.2-10.7c0-0.2,0-0.4,0-0.6
					c0-0.2,0-0.4,0-0.5c-0.3-6-5.2-10.7-11.2-10.7h-26.6l68.6-68.6l68.7-68.6v26.7c0,0.2,0,0.3,0,0.5c0.3,6,5.1,10.7,11.2,10.7
					c6,0,10.9-4.7,11.2-10.7C298.5,166.8,298.5,166.8,298.5,166.6z"/>
				<path d="M318.8,278.8c13.2-20.1,21.5-43.7,23.2-69.1C340.3,235.1,332.1,258.7,318.8,278.8z"/>
				<path d="M303.9,103.3c23.7,25.4,38.2,59.6,38.2,97.2C342.1,163,327.7,128.9,303.9,103.3z"/>
				<path d="M318.8,278.9c-1.6,2.3-3.2,4.7-4.9,6.9C315.6,283.6,317.2,281.2,318.8,278.9z"/>
				<path d="M313.8,285.9c-1,1.4-2.1,2.7-3.1,4C311.7,288.6,312.8,287.2,313.8,285.9z"/>
				<path d="M310.7,289.9c-1.4,1.8-2.9,3.5-4.4,5.2C307.8,293.4,309.2,291.7,310.7,289.9z"/>
				<path d="M302.7,298.9c-0.7,0.8-1.6,1.7-2.3,2.4C301.2,300.5,302,299.8,302.7,298.9z"/>
				<path class="st0" d="M298.5,167c-0.3,5.9-5.2,10.6-11.2,10.6c-6,0-10.9-4.7-11.2-10.6c0-0.2,0-0.3,0-0.5v-26.7v-0.1L138.8,277.1
					h0.1l-0.1,0.1h26.7c6,0,10.9,4.7,11.2,10.6c0,0.2,0,0.4,0,0.5c0,0.2,0,0.4,0,0.6c-0.3,5.9-5.2,10.6-11.2,10.6h-53.7
					c-6,0-10.9-4.7-11.2-10.6c0-0.2,0-0.4,0-0.6v-53.8c0-0.2,0-0.3,0-0.5c0.3-5.9,5.2-10.6,11.2-10.6s10.9,4.7,11.2,10.6
					c0,0.2,0,0.3,0,0.5v26.7v0.1l137.4-137.3h-0.1l0.1-0.1h-26.7c-0.8,0-1.5-0.1-2.3-0.2c-4.4-0.9-7.8-4.4-8.7-8.7
					c-0.1-0.6-0.2-1.1-0.2-1.7c0-0.2,0-0.3,0-0.5s0-0.4,0-0.6c0.3-5.9,5.2-10.6,11.2-10.6h53.7c6,0,10.9,4.7,11.2,10.6
					c0,0.2,0,0.4,0,0.6v53.8C298.5,166.8,298.5,166.8,298.5,167z"/>
				<path d="M298.5,167c-0.3,6-5.1,10.7-11.2,10.7c-6,0-10.9-4.7-11.2-10.7c0.3,5.9,5.2,10.6,11.2,10.6
					C293.3,177.6,298.2,172.9,298.5,167z"/>
				<polygon points="276.2,139.8 276.2,139.8 207.5,208.5 				"/>
				<path d="M260.3,123.8L260.3,123.8l-26.7,0.1c-6,0-10.9-4.8-11.2-10.7c0,0.6,0.1,1.1,0.2,1.7c0.8,4.4,4.3,7.8,8.7,8.7
					c0.8,0.2,1.5,0.2,2.3,0.2H260.3z"/>
				<polygon class="st1" points="260.3,123.9 122.9,261.3 260.3,123.9 				"/>
				<polygon class="st1" points="260.3,123.9 122.9,261.3 122.9,261.2 				"/>
				<path d="M219.5,341.7c29.6-4.1,56.3-17.3,77.3-36.8C275.8,324.3,249.1,337.6,219.5,341.7z"/>
				<path class="st1" d="M206.7,58c34.8,1.7,66.1,15.9,89.9,38.1c-5.9-5.4-12.2-10.4-18.8-14.8c-2.9-1.9-5.8-3.7-8.8-5.3
					C250.4,65.5,229.3,59.1,206.7,58z"/>
				<path d="M300.4,301.4c-1.2,1.2-2.4,2.4-3.8,3.6c-20.9,19.4-47.6,32.6-77.2,36.8c-4.2,0.6-8.4,0.9-12.7,1.2
					C243.2,341,276,325.6,300.4,301.4c25.8-25.9,41.7-61.5,41.7-100.9s-15.9-75-41.8-100.9c-6.8-6.8-14.3-13-22.5-18.4
					c6.8,4.4,13,9.4,18.8,14.8c1.2,1.1,2.5,2.3,3.8,3.6c1.2,1.2,2.4,2.4,3.6,3.7c23.7,25.5,38.2,59.6,38.2,97.2
					c0,3.1-0.1,6.1-0.3,9.2c-1.6,25.4-9.9,49-23.2,69.1c0,0,0,0,0,0.1c-1.6,2.3-3.2,4.7-4.9,6.9c0,0,0,0,0,0.1c-1,1.3-2.1,2.7-3.1,4
					l0,0c-1.4,1.8-2.9,3.5-4.4,5.2c-1.1,1.3-2.3,2.5-3.5,3.8C302,299.8,301.2,300.5,300.4,301.4z"/>
				<path class="st1" d="M222.5,112.2c0.3-6,5.1-10.7,11.2-10.7h53.7c6,0,10.9,4.7,11.2,10.7c-0.3-5.9-5.2-10.6-11.2-10.6h-53.7
					C227.6,101.6,222.8,106.3,222.5,112.2z"/>
				<path class="st1" d="M165.5,277.1c6,0,10.9,4.7,11.2,10.7C176.3,281.9,171.5,277.2,165.5,277.1l-26.7,0.1l0.1-0.1H165.5z"/>
				<path class="st1" d="M111.8,223.3c6,0,10.9,4.7,11.2,10.7C122.6,228.1,117.8,223.4,111.8,223.3c-6,0.1-10.9,4.8-11.2,10.7
					C100.9,228,105.8,223.3,111.8,223.3z"/>
				<path d="M63.8,244.6c6.5,20,17.3,38.1,31.2,53.1C81.1,282.6,70.3,264.6,63.8,244.6z"/>
				<path d="M61.9,237.9c0.7,2.2,1.3,4.5,2,6.7C63.1,242.3,62.4,240.2,61.9,237.9z"/>
			</g>
			<g>
				<path class="st2" d="M122.9,261.3l137.4-137.3h-0.1h-26.6c-6,0-10.9-4.8-11.2-10.7c0-0.2,0-0.3,0-0.5c0-0.2,0-0.4,0-0.6
					c0.3-5.9,5.2-10.6,11.2-10.6h53.7c6,0,10.9,4.7,11.2,10.6c0,0.2,0,0.4,0,0.6v53.8c0,0.2,0,0.3,0,0.5c-0.3,6-5.1,10.7-11.2,10.7
					c-6,0-10.9-4.7-11.2-10.7c0-0.2,0-0.3,0-0.5v-26.7l-68.7,68.6l-68.7,68.6h0.1h26.6c6,0,10.9,4.7,11.2,10.7c0,0.2,0,0.4,0,0.5
					c0,0.2,0,0.4,0,0.6c-0.3,5.9-5.2,10.6-11.2,10.6h-53.7c-6,0-10.9-4.7-11.2-10.6c0-0.2,0-0.4,0-0.6v-53.8c0-0.2,0-0.3,0-0.5
					c0.3-6,5.2-10.7,11.2-10.7s10.9,4.7,11.2,10.7c0,0.2,0,0.3,0,0.5L122.9,261.3L122.9,261.3z"/>
				<path class="st2" d="M199.5,35.5c-45.6,0-86.8,18.5-116.6,48.4C53,113.7,34.5,154.9,34.5,200.5S53,287.3,82.9,317.1
					c29.8,29.9,71.1,48.4,116.6,48.4s86.8-18.5,116.6-48.4c29.9-29.8,48.4-71.1,48.4-116.6S346,113.7,316.1,83.9
					C286.3,54,245.1,35.5,199.5,35.5z"/>
				<path class="st2" d="M303.9,103.3c-1.1-1.2-2.3-2.5-3.6-3.7c-1.2-1.1-2.4-2.4-3.8-3.6c-23.8-22.1-55.1-36.4-89.9-38.1
					c-2.3-0.1-4.8-0.2-7.1-0.2h-0.1c-2.4,0-4.9,0.1-7.3,0.2c-0.6,0-1.2,0.1-1.8,0.1c-25.4,1.6-49,9.8-69.1,23.2c0,0,0,0-0.1,0
					c-2.3,1.6-4.7,3.2-6.9,4.9c0,0,0,0-0.1,0c-1.3,1-2.7,2.1-4,3.1l0,0c-1.8,1.4-3.5,2.9-5.3,4.4c-1.3,1.1-2.5,2.3-3.8,3.5
					c-0.8,0.8-1.7,1.6-2.4,2.4c-1.2,1.2-2.4,2.4-3.6,3.7c-14,15-24.8,33.1-31.2,53.1l0,0c-0.7,2.3-1.4,4.5-2,6.8
					c-3.2,11.9-5,24.5-5,37.4c0,12.9,1.7,25.4,5,37.4c0.7,2.3,1.3,4.5,2,6.8l0,0c6.5,20,17.2,38.1,31.2,53.1
					c1.1,1.2,2.3,2.5,3.6,3.8c1.2,1.2,2.4,2.4,3.7,3.6c15,14,33.1,24.8,53.1,31.2l0,0c2.3,0.8,4.5,1.4,6.8,2
					c9.7,2.6,19.7,4.2,30,4.8c2.4,0.1,4.9,0.2,7.3,0.2s4.9-0.1,7.2-0.2c4.3-0.2,8.5-0.6,12.7-1.2c29.6-4.1,56.3-17.3,77.3-36.8
					c1.2-1.1,2.5-2.3,3.8-3.6c0.8-0.8,1.6-1.6,2.3-2.4c1.2-1.2,2.3-2.5,3.5-3.8c1.5-1.7,3-3.5,4.4-5.2l0,0c1-1.3,2.1-2.6,3.1-4
					c0,0,0,0,0-0.1c1.7-2.3,3.4-4.6,4.9-6.9c0,0,0,0,0-0.1c13.2-20.1,21.5-43.7,23.2-69.1c0.2-3,0.3-6.1,0.3-9.2
					C342.1,163,327.7,128.9,303.9,103.3z"/>
			</g>
		</g>
	</g>
</g>
</svg>
