<?xml version="1.0" encoding="utf-8"?>
<!-- Generator: Adobe Illustrator 23.0.1, SVG Export Plug-In . SVG Version: 6.00 Build 0)  -->
<svg version="1.1"
	 id="svg2989" inkscape:version="0.48.0 r9654" sodipodi:docname="400x400px-kilogram_weight.png" xmlns:cc="http://creativecommons.org/ns#" xmlns:dc="http://purl.org/dc/elements/1.1/" xmlns:inkscape="http://www.inkscape.org/namespaces/inkscape" xmlns:rdf="http://www.w3.org/1999/02/22-rdf-syntax-ns#" xmlns:sodipodi="http://sodipodi.sourceforge.net/DTD/sodipodi-0.dtd" xmlns:svg="http://www.w3.org/2000/svg"
	 xmlns="http://www.w3.org/2000/svg" xmlns:xlink="http://www.w3.org/1999/xlink" x="0px" y="0px" viewBox="0 0 400 400"
	 style="enable-background:new 0 0 400 400;" xml:space="preserve">
<style type="text/css">
	.st0{fill:#FFC811;}
	.st1{fill:#FFFFFF;}
	.st2{fill:#FF7B07;}
	.st3{fill:none;stroke:#000000;stroke-miterlimit:10;}
</style>
<g id="XMLID_2_">
	<g>
		<g id="XMLID_1_">
			<g>
				<path class="st0" d="M329.3,193.8c0.1,1.1,0.1,2.2,0.1,3.3C329.4,196,329.4,194.9,329.3,193.8z"/>
				<path class="st0" d="M328.8,187.2c0.1,1.1,0.2,2.2,0.3,3.3C329,189.4,328.9,188.3,328.8,187.2z"/>
				<path class="st0" d="M328.8,187.2c-3.1-30.6-16.9-58.1-37.4-78.6C312,129.2,325.7,156.6,328.8,187.2z"/>
				<path class="st1" d="M311.8,204.1c0-0.3,0-0.5,0.1-0.7c0,0.6,0,1.2-0.1,1.9C311.8,204.9,311.8,204.5,311.8,204.1z"/>
				<path class="st1" d="M311.8,204.1c0,0.4,0,0.7,0,1.1c0,0,0,0,0,0c0,0.3,0,0.5,0,0.8C311.8,205.4,311.8,204.8,311.8,204.1z"/>
				<path class="st1" d="M311.8,206.3c0,0.9-0.1,1.8-0.2,2.8C311.7,208.1,311.7,207.3,311.8,206.3z"/>
				<path class="st1" d="M311.8,206.3c-0.1,0.9-0.1,1.8-0.2,2.8c0,0.1,0,0.1,0,0.1c0,0,0-0.1,0-0.1
					C311.6,208.1,311.7,207.2,311.8,206.3z"/>
				<path class="st1" d="M309.6,223.2c-0.3,1.5-0.6,3-1,4.5C309,226.2,309.3,224.7,309.6,223.2z"/>
				<path d="M284.3,126.8c13.6,15.7,22.9,35.1,26.2,56.5C307.2,161.9,297.9,142.5,284.3,126.8z"/>
				<path class="st1" d="M300.8,249.3c0.4-0.8,0.7-1.5,1.1-2.3C301.5,247.8,301.1,248.5,300.8,249.3z"/>
				<path class="st1" d="M300.8,249.3c-0.4,0.8-0.8,1.6-1.2,2.4C300,250.9,300.4,250.1,300.8,249.3z"/>
				<path class="st1" d="M297,256.4c0,0,0,0.1-0.1,0.1c-0.3,0.5-0.6,1-0.9,1.6C296.4,257.5,296.7,257,297,256.4z"/>
				<path class="st1" d="M296,258.1c-0.1,0.3-0.3,0.5-0.4,0.8c-0.3,0.4-0.5,0.8-0.8,1.2C295.2,259.4,295.6,258.7,296,258.1z"/>
				<path class="st1" d="M293.5,262c0.4-0.6,0.8-1.3,1.3-1.9C294.4,260.7,294,261.4,293.5,262z"/>
				<path class="st1" d="M290.9,265.9c0.9-1.3,1.8-2.5,2.6-3.8C292.7,263.3,291.8,264.6,290.9,265.9z"/>
				<path class="st1" d="M308.6,227.7c-4,16.3-11.6,31.1-21.8,43.7c-1,1.2-2,2.4-3,3.5c-1.5,1.7-3.1,3.4-4.8,5.1
					c6.3-6.4,11.9-13.5,16.6-21.2c0.5-0.8,0.9-1.5,1.4-2.3C302.1,247.6,306,237.9,308.6,227.7z"/>
				<path class="st1" d="M285.2,273.2c2-2.4,3.9-4.8,5.7-7.3C289.1,268.4,287.2,270.8,285.2,273.2z"/>
				<path class="st1" d="M283.7,274.9c0.5-0.6,1-1.2,1.5-1.8C284.7,273.8,284.2,274.4,283.7,274.9z"/>
				<path class="st1" d="M282.7,276c0.3-0.4,0.7-0.7,1-1.1c-0.5,0.6-1,1.1-1.6,1.7c0.2-0.1,0.3-0.3,0.4-0.5
					C282.6,276.1,282.6,276.1,282.7,276z"/>
				<path class="st1" d="M311,186.2c-3-23.4-13.2-44.6-28.3-61.3C297.8,141.5,308,162.7,311,186.2z"/>
				<path class="st1" d="M280.9,122.9c0.6,0.7,1.2,1.3,1.8,2C282.1,124.2,281.5,123.6,280.9,122.9z"/>
				<path d="M280.7,122.8c1.2,1.3,2.4,2.6,3.6,4C283.1,125.5,281.9,124.1,280.7,122.8z"/>
				<path class="st1" d="M281.3,277.5c0.3-0.3,0.6-0.6,0.8-0.9c-0.5,0.6-1,1.1-1.6,1.7C280.8,278.1,281,277.8,281.3,277.5z"/>
				<path class="st1" d="M278.9,280c-0.4,0.4-0.8,0.8-1.2,1.2C278.1,280.8,278.5,280.4,278.9,280z"/>
				<path d="M278.9,280c-0.4,0.4-0.8,0.8-1.2,1.2c0,0-0.1,0.1-0.1,0.1c-0.1,0.1-0.2,0.2-0.3,0.3C277.8,281.1,278.4,280.5,278.9,280z
					"/>
				<path class="st1" d="M277.2,281.6c0.1-0.1,0.2-0.2,0.3-0.3c-1.3,1.3-2.7,2.5-4,3.8c0.1-0.1,0.2-0.2,0.3-0.3
					c0.3-0.2,0.6-0.5,0.8-0.8c0.3-0.3,0.6-0.5,0.9-0.8c0.1-0.1,0.2-0.1,0.2-0.2C276.3,282.5,276.8,282.1,277.2,281.6z"/>
				<path class="st1" d="M277.5,130.9c0,0.1,0,0.2,0,0.3c0-0.3,0-0.7-0.1-1C277.5,130.4,277.5,130.7,277.5,130.9z"/>
				<path d="M277.5,174.5c0-0.3,0-0.6,0-0.8c0,0.1,0,0.2,0,0.4C277.5,174.2,277.5,174.4,277.5,174.5z"/>
				<path d="M277.5,174.6c0,0.1,0,0.3,0,0.4C277.4,174.8,277.4,174.7,277.5,174.6z"/>
				<path d="M277.3,175.6c0-0.2,0.1-0.4,0.1-0.6C277.4,175.3,277.3,175.5,277.3,175.6z"/>
				<path d="M277.2,281.6c-0.5,0.5-1,0.9-1.5,1.4C276.3,282.5,276.8,282.1,277.2,281.6z"/>
				<path class="st1" d="M277.2,128.8c-0.1-0.3-0.2-0.5-0.3-0.8C277,128.3,277.1,128.6,277.2,128.8z"/>
				<path d="M276.2,178.3c0.5-0.8,0.9-1.7,1.1-2.6c-0.2,1-0.6,2-1.2,2.8c0,0,0,0,0,0C276.1,178.4,276.1,178.4,276.2,178.3
					C276.2,178.3,276.2,178.3,276.2,178.3z"/>
				<path d="M277.5,174.6c0,0.1,0,0.3,0,0.4c0,0,0,0.1,0,0.1c0,0.2-0.1,0.4-0.1,0.6c-0.2,0.9-0.6,1.8-1.1,2.6
					c0.8-1.3,1.2-2.8,1.3-4.4c0,0,0-0.1,0-0.2v0.1C277.5,174,277.5,174.3,277.5,174.6C277.5,174.5,277.5,174.6,277.5,174.6z"/>
				<path class="st1" d="M275.4,125.6c0.6,0.7,1.1,1.5,1.5,2.4c0.1,0.3,0.2,0.5,0.3,0.8c0.2,0.7,0.3,1.3,0.3,2.1
					c0-0.2,0-0.5-0.1-0.7c0-0.1,0-0.1,0-0.2C277.1,128.4,276.4,126.8,275.4,125.6z"/>
				<path class="st1" d="M275.4,125.6c-0.1-0.1-0.2-0.2-0.3-0.3C275.2,125.4,275.3,125.5,275.4,125.6z"/>
				<path class="st1" d="M274.8,125c0.1,0.1,0.2,0.2,0.3,0.3C275,125.2,274.9,125.1,274.8,125z"/>
				<path class="st1" d="M277.4,130.1c-0.4-2.3-1.6-4.2-3.3-5.6c0.1,0,0.1,0.1,0.2,0.1c0,0,0,0,0.1,0c0.2,0.1,0.3,0.3,0.4,0.4
					c0,0,0,0,0,0c0.1,0.1,0.2,0.2,0.3,0.3c0.1,0.1,0.2,0.2,0.3,0.3C276.4,126.8,277.1,128.4,277.4,130.1z"/>
				<path d="M274.7,284c0.3-0.3,0.6-0.5,0.9-0.8C275.3,283.5,275,283.8,274.7,284z"/>
				<path class="st1" d="M274.8,125c-0.1-0.1-0.3-0.3-0.4-0.4C274.5,124.7,274.7,124.9,274.8,125z"/>
				<path d="M274.7,284c-0.3,0.3-0.6,0.5-0.8,0.8c-0.1,0.1-0.2,0.2-0.3,0.3C273.9,284.7,274.3,284.4,274.7,284z"/>
				<path class="st1" d="M277.4,131c-0.1-3.1-1.8-5.8-4.3-7.2c0,0,0,0,0,0c0.2,0.1,0.3,0.2,0.5,0.3c0.1,0,0.1,0.1,0.2,0.1
					c0.1,0.1,0.2,0.2,0.3,0.3c1.7,1.4,2.9,3.4,3.3,5.6c0,0.1,0,0.1,0,0.2c0,0.3,0.1,0.7,0.1,1c0,0.1,0,0.1,0,0.2v42.2l-0.1-42.2
					C277.4,131.3,277.4,131.1,277.4,131z"/>
				<path class="st1" d="M274.3,124.6c-0.1,0-0.1-0.1-0.2-0.1c-0.1-0.1-0.2-0.2-0.3-0.3c-0.1,0-0.1-0.1-0.2-0.1
					c-0.2-0.1-0.3-0.2-0.5-0.3c0,0-0.1,0-0.1-0.1c-0.1-0.1-0.2-0.1-0.3-0.2C273.3,123.8,273.8,124.2,274.3,124.6z"/>
				<path class="st1" d="M273.5,285.1C273.5,285,273.5,285,273.5,285.1C273.5,285,273.5,285.1,273.5,285.1z"/>
				<path d="M273.5,285C273.5,285,273.5,285,273.5,285C273.5,285.1,273.5,285.1,273.5,285c-0.8,0.7-1.6,1.4-2.4,2
					c-0.2,0.1-0.3,0.3-0.5,0.4c-0.1,0.1-0.3,0.2-0.4,0.3c0.1-0.1,0.3-0.2,0.4-0.3C271.6,286.7,272.6,285.9,273.5,285
					C273.5,285.1,273.5,285.1,273.5,285c0.1-0.1,0.2-0.2,0.3-0.3C273.7,284.9,273.6,285,273.5,285z"/>
				<path class="st1" d="M273.1,123.7C273.1,123.7,273.1,123.7,273.1,123.7C273,123.7,273,123.7,273.1,123.7
					C273,123.7,273.1,123.7,273.1,123.7z"/>
				<path class="st1" d="M273,123.7C273,123.7,273,123.7,273,123.7c0,0-0.1,0-0.2-0.1C272.9,123.6,273,123.7,273,123.7z"/>
				<path class="st1" d="M272.8,123.5c0.1,0.1,0.2,0.1,0.3,0.2C273,123.7,272.9,123.6,272.8,123.5c-0.1,0-0.2-0.1-0.4-0.2
					c0,0,0,0,0,0C272.5,123.4,272.6,123.5,272.8,123.5z"/>
				<path class="st1" d="M272.4,123.3C272.4,123.3,272.4,123.3,272.4,123.3c-0.1,0-0.2-0.1-0.3-0.1
					C272.2,123.3,272.3,123.3,272.4,123.3z"/>
				<path class="st1" d="M271.1,287.1c0.8-0.6,1.6-1.3,2.3-2C272.7,285.8,271.9,286.4,271.1,287.1z"/>
				<path d="M270.7,287.5c0.9-0.8,1.9-1.6,2.8-2.4C272.6,285.9,271.6,286.7,270.7,287.5z"/>
				<path class="st1" d="M272.1,123.2c0,0-0.1,0-0.1,0C272,123.2,272,123.2,272.1,123.2z"/>
				<path class="st1" d="M270.9,122.8c0.4,0.1,0.8,0.2,1.1,0.4C271.6,123,271.2,122.9,270.9,122.8z"/>
				<path d="M269.6,122.5c4.3,0.4,7.8,3.9,7.9,8.3c0,0,0,0.1,0,0.1c0-0.7-0.1-1.4-0.3-2.1c-0.1-0.3-0.2-0.5-0.3-0.8
					c-1.1-2.7-3.5-4.7-6.4-5.3c-0.2,0-0.4-0.1-0.6-0.1c-0.1,0-0.2,0-0.2,0C269.7,122.6,269.6,122.6,269.6,122.5z"/>
				<path d="M270.7,287.5c-0.1,0.1-0.2,0.2-0.4,0.3c-0.6,0.5-1.2,1-1.8,1.4c-0.2,0.2-0.5,0.4-0.7,0.6
					C268.7,289,269.7,288.2,270.7,287.5z"/>
				<path class="st1" d="M274.3,124.6c-0.5-0.4-1-0.7-1.5-1c-0.1-0.1-0.3-0.1-0.4-0.2c-0.1,0-0.2-0.1-0.3-0.1c0,0,0,0,0,0
					c0,0-0.1,0-0.1,0c-0.4-0.2-0.7-0.3-1.1-0.4c-0.1,0-0.1-0.1-0.2-0.1c0,0-0.1,0-0.1,0c2.9,0.6,5.3,2.7,6.4,5.3
					c-0.4-0.9-0.9-1.7-1.5-2.4c-0.1-0.1-0.2-0.2-0.3-0.3c-0.1-0.1-0.2-0.2-0.3-0.3c0,0,0,0,0,0C274.7,124.9,274.5,124.7,274.3,124.6
					C274.3,124.6,274.3,124.6,274.3,124.6z"/>
				<path class="st0" d="M270.6,122.8c-0.2-0.1-0.4-0.1-0.7-0.1C270.2,122.7,270.4,122.8,270.6,122.8z"/>
				<path class="st1" d="M269.2,122.6c1,0,1.9,0.2,2.8,0.6c0,0,0.1,0,0.1,0c0,0,0,0,0,0c0.1,0,0.2,0.1,0.2,0.1
					c0.2,0.1,0.3,0.2,0.5,0.3c-0.5-0.3-1-0.5-1.6-0.6c-0.2-0.1-0.4-0.1-0.6-0.2c-0.2-0.1-0.5-0.1-0.7-0.1c-0.3,0-0.5-0.1-0.8-0.1
					C269.1,122.6,269.2,122.6,269.2,122.6z"/>
				<path d="M268.5,289.2c0.6-0.5,1.2-0.9,1.8-1.4C269.7,288.3,269.1,288.7,268.5,289.2z"/>
				<path d="M274.7,180.1c-1.5,1.4-3.4,2.2-5.5,2.3c-0.1,0-0.2,0-0.3,0c2.2,0,4.1-0.9,5.7-2.3c0.2-0.1,0.3-0.3,0.5-0.5
					c1.4-1.5,2.3-3.5,2.3-5.7c0,0,0.1,0,0.1-0.1c-0.1,1.7-0.5,3.2-1.3,4.4c0,0,0,0.1,0,0.1c0,0,0,0,0,0c0,0,0,0,0,0
					c-0.3,0.4-0.6,0.8-0.9,1.2C275,179.8,274.9,180,274.7,180.1z"/>
				<path class="st1" d="M270,122.6c-0.1,0-0.2,0-0.2,0C269.8,122.6,269.9,122.6,270,122.6z"/>
				<path class="st0" d="M269.9,122.7c-0.3,0-0.5-0.1-0.8-0.1C269.4,122.6,269.7,122.6,269.9,122.7z"/>
				<path d="M269.7,122.6c-0.1,0-0.1,0-0.2,0c0,0,0,0,0,0C269.6,122.6,269.7,122.6,269.7,122.6z"/>
				<path d="M268.5,182.4c0,0-0.1,0-0.1,0c0,0-0.1,0-0.1,0C268.3,182.4,268.4,182.4,268.5,182.4z"/>
				<path d="M268.5,289.2c-0.5,0.4-1,0.8-1.5,1.1c0.3-0.2,0.5-0.4,0.8-0.6C268,289.6,268.2,289.4,268.5,289.2z"/>
				<path d="M267.8,289.8c-0.3,0.2-0.5,0.4-0.8,0.6c-0.2,0.2-0.4,0.3-0.7,0.5C266.8,290.5,267.3,290.1,267.8,289.8z"/>
				<path class="st0" d="M267.7,182.3c0,0-0.1,0-0.2,0C267.6,182.3,267.6,182.3,267.7,182.3z"/>
				<path class="st0" d="M267.7,182.3c0,0-0.1,0-0.2,0c-0.1,0-0.3,0-0.4-0.1c-0.4-0.1-0.8-0.2-1.1-0.3c0.7,0.2,1.4,0.3,2.1,0.4
					c0.1,0,0.3,0,0.4,0c0.2,0,0.3,0,0.4,0c4.5-0.2,8.2-3.9,8.4-8.4c0,0,0.1,0,0.1,0c0,2.2-0.9,4.3-2.3,5.7c-0.2,0.2-0.3,0.4-0.5,0.5
					c-1.6,1.4-3.5,2.3-5.7,2.3c0,0-0.1,0-0.1,0c-0.1,0-0.2,0-0.3,0c-0.1,0-0.2,0-0.2,0c-0.1,0-0.2,0-0.3,0c0,0-0.1,0-0.1,0
					C267.8,182.4,267.7,182.4,267.7,182.3z"/>
				<path class="st0" d="M267.1,182.3c0.1,0,0.3,0.1,0.4,0.1C267.4,182.3,267.3,182.3,267.1,182.3z"/>
				<path class="st0" d="M266,181.9c0.4,0.1,0.7,0.2,1.1,0.3c-0.7-0.1-1.3-0.3-1.9-0.6c0.2,0.1,0.4,0.2,0.6,0.2
					C265.9,181.9,265.9,181.9,266,181.9z"/>
				<path d="M270.7,287.5c-4.3,3.5-8.8,6.7-13.6,9.6c0,0-0.1,0-0.1,0.1c-0.3,0.2-0.6,0.4-1,0.6c2.3-1.3,4.5-2.8,6.6-4.2
					c0.3-0.2,0.6-0.4,0.9-0.6c0.4-0.3,0.8-0.6,1.3-0.9c0.4-0.3,0.8-0.6,1.2-0.9c0.1-0.1,0.2-0.1,0.3-0.2c0.2-0.1,0.4-0.3,0.7-0.5
					c0.5-0.4,1-0.8,1.5-1.1c0.6-0.5,1.2-0.9,1.8-1.4C270.4,287.7,270.5,287.6,270.7,287.5z"/>
				<path d="M266,291.1c-0.4,0.3-0.8,0.6-1.2,0.9c0,0,0,0,0,0C265.2,291.7,265.6,291.4,266,291.1z"/>
				<path d="M264.8,292C264.8,292,264.8,292,264.8,292c-0.4,0.3-0.9,0.6-1.3,0.9C263.9,292.6,264.4,292.3,264.8,292z"/>
				<path d="M267.1,182.3c0.1,0,0.3,0.1,0.4,0.1c0,0,0.1,0,0.2,0c0,0,0.1,0,0.1,0c-1.6-0.1-3.1-0.7-4.4-1.6c0.4,0.3,0.9,0.6,1.3,0.8
					c0.1,0.1,0.3,0.1,0.4,0.2C265.8,181.9,266.4,182.1,267.1,182.3z"/>
				<path d="M263.5,180.7c1.3,0.9,2.8,1.5,4.4,1.6c0,0,0.1,0,0.1,0c0.1,0,0.2,0,0.3,0c-2.8-0.1-5.3-1.5-6.8-3.7
					c0.5,0.6,1,1.2,1.6,1.6C263.2,180.5,263.3,180.6,263.5,180.7z"/>
				<path d="M263.5,292.9c-0.3,0.2-0.6,0.4-0.9,0.6c-2.3,1.6-4.8,3.1-7.2,4.5C258.2,296.4,260.9,294.7,263.5,292.9z"/>
				<path d="M261.8,179.1c0.4,0.5,0.8,0.9,1.2,1.3c-0.6-0.5-1.1-1-1.6-1.6c0-0.1-0.1-0.1-0.1-0.2c-0.7-1.1-1.2-2.5-1.4-3.9
					c0.1,0.6,0.2,1.2,0.4,1.8c0.1,0.3,0.2,0.5,0.3,0.8c0.1,0.2,0.2,0.5,0.3,0.7c0.1,0.2,0.2,0.3,0.3,0.5c0.1,0.1,0.1,0.2,0.2,0.3
					C261.6,178.9,261.7,179,261.8,179.1z"/>
				<path class="st0" d="M260.6,177.2c0.1,0.2,0.2,0.5,0.3,0.7C260.9,177.7,260.8,177.4,260.6,177.2z"/>
				<path class="st0" d="M260.4,176.5c0.1,0.3,0.2,0.5,0.3,0.8C260.5,177,260.4,176.7,260.4,176.5z"/>
				<path class="st0" d="M259.9,174.1c0,0.8,0.2,1.6,0.4,2.4c-0.2-0.6-0.3-1.2-0.4-1.8c0-0.1,0-0.3,0-0.4
					C259.9,174.2,259.9,174.1,259.9,174.1z"/>
				<path class="st0" d="M259.9,174.1c0,0,0,0.1,0,0.2C259.9,174.2,259.9,174.1,259.9,174.1C259.9,174.1,259.9,174,259.9,174.1
					C259.9,174,259.9,174.1,259.9,174.1z"/>
				<polygon points="259.9,152.7 259.9,173.5 259.8,152.8 				"/>
				<polygon class="st0" points="259.9,152.5 259.9,152.7 259.8,152.8 259.8,152.6 				"/>
				<polygon class="st0" points="259.7,152.5 259.7,152.9 151.7,260.7 151.5,260.7 				"/>
				<path d="M257,297.1c-0.5,0.3-1.1,0.6-1.6,1c0.2-0.1,0.4-0.3,0.6-0.4C256.4,297.5,256.7,297.4,257,297.1z"/>
				<path d="M255.3,298.2c0.3-0.2,0.5-0.3,0.8-0.5c-0.2,0.1-0.4,0.3-0.6,0.4C255.4,298.1,255.3,298.1,255.3,298.2z"/>
				<path d="M252.9,299.4c0.8-0.4,1.6-0.9,2.4-1.4c-0.4,0.3-0.8,0.5-1.2,0.7C253.8,298.9,253.3,299.2,252.9,299.4z"/>
				<path d="M252.7,299.5c-0.6,0.3-1.2,0.7-1.9,1C251.5,300.2,252.1,299.8,252.7,299.5z"/>
				<path d="M254.2,298.7c-1.7,1-3.6,1.9-5.4,2.8c0.7-0.3,1.4-0.7,2-1.1c0,0,0,0,0,0c0.6-0.3,1.2-0.6,1.9-1c0.1,0,0.1-0.1,0.2-0.1
					C253.3,299.2,253.8,298.9,254.2,298.7z"/>
				<path class="st0" d="M212.8,329.8c30.6-3.1,58.1-16.9,78.6-37.4C270.8,313,243.4,326.7,212.8,329.8z"/>
				<path class="st1" d="M248.1,99.1c10.8,5.2,20.6,12,29.1,20.1c0.6,0.6,1.2,1.1,1.8,1.7c0,0,0,0,0,0.1c0.6,0.6,1.3,1.3,1.9,1.9
					s1.2,1.3,1.8,2c0,0,0,0,0,0c15.1,16.7,25.3,37.9,28.3,61.3c0.6,4.7,0.9,9.5,0.9,14.3c0,1,0,1.9,0,2.9c0,0.3,0,0.5-0.1,0.7
					c0,0.7,0,1.3,0,2c0,0,0,0.1,0,0.2c-0.1,0.9-0.2,1.8-0.2,2.8c0,0,0,0.1,0,0.1c-0.1,1-0.2,1.9-0.3,2.8c0,0.5-0.1,0.9-0.2,1.4
					c-1.3,11.6-4.4,22.7-9,33c4.4-9.9,7.4-20.4,8.8-31.6c0.4-2.8,0.6-5.7,0.8-8.6c0.1-0.9,0.1-1.9,0.1-2.9c0-1,0-1.9,0-2.9
					c0-5.8-0.4-11.6-1.3-17.1c-3.3-21.4-12.6-40.9-26.2-56.5c-1.2-1.4-2.4-2.7-3.6-4c-0.6-0.6-1.2-1.2-1.8-1.8
					c-0.6-0.6-1.2-1.2-1.8-1.8C268.6,111.1,258.8,104.3,248.1,99.1z"/>
				<polygon class="st0" points="247.5,140.2 139.3,248.4 139.3,248.3 247.4,140.2 				"/>
				<polygon class="st1" points="247.4,140.2 139.3,248.3 139.3,248.2 247.3,140.2 				"/>
				<path class="st1" d="M247,98.7c0.3,0.1,0.7,0.3,1,0.5C247.7,99,247.4,98.8,247,98.7z"/>
				<path d="M242.6,304.3c2.8-1.2,5.6-2.5,8.2-3.8c-0.7,0.4-1.4,0.7-2,1.1c-0.2,0.1-0.3,0.2-0.5,0.3c-1.6,0.8-3.4,1.6-5.1,2.3
					C243,304.2,242.8,304.2,242.6,304.3z"/>
				<path class="st1" d="M245.7,98.1c0.4,0.2,0.9,0.4,1.3,0.6C246.6,98.4,246.2,98.3,245.7,98.1z"/>
				<path class="st1" d="M245.7,98C245.7,98,245.7,98,245.7,98C245.7,98.1,245.7,98,245.7,98z"/>
				<path class="st1" d="M241,96c1.6,0.6,3.1,1.3,4.7,2C244.1,97.3,242.6,96.7,241,96z"/>
				<path d="M242.3,304.4c-0.3,0.1-0.5,0.2-0.8,0.3c-0.2,0.1-0.5,0.2-0.7,0.3C241.3,304.8,241.8,304.6,242.3,304.4z"/>
				<path d="M241.5,304.8c0.4-0.1,0.7-0.3,1-0.4c0,0,0,0,0.1,0c0.2-0.1,0.4-0.1,0.6-0.2c-0.7,0.3-1.3,0.6-2,0.8
					C241.3,304.9,241.4,304.8,241.5,304.8z"/>
				<path d="M241.5,304.8c0.2-0.1,0.5-0.2,0.8-0.3c0.1,0,0.2-0.1,0.3-0.1C242.2,304.5,241.9,304.6,241.5,304.8z"/>
				<path d="M240.8,305c0.2-0.1,0.5-0.2,0.7-0.3c-0.1,0.1-0.3,0.1-0.4,0.2c0,0,0,0,0,0c-0.1,0-0.3,0.1-0.4,0.1
					C240.8,305.1,240.8,305.1,240.8,305z"/>
				<path d="M243.2,304.2c-0.7,0.3-1.5,0.6-2.3,0.9c4.7-1.9,9.2-4,13.5-6.5c-0.1,0-0.2,0.1-0.2,0.2c-1.9,1.1-3.9,2.1-5.9,3.1
					C246.6,302.7,244.9,303.5,243.2,304.2z"/>
				<path d="M240.9,305.1c0.1-0.1,0.2-0.1,0.2-0.1c0,0,0,0,0,0c0.7-0.3,1.4-0.5,2-0.8c1.7-0.7,3.5-1.5,5.1-2.3
					c0.2-0.1,0.3-0.2,0.5-0.3c1.8-0.9,3.7-1.8,5.4-2.8c0.4-0.2,0.8-0.4,1.2-0.7c0,0,0,0,0,0c2.5-1.4,4.9-2.9,7.2-4.5
					c-2.1,1.5-4.4,2.9-6.6,4.2c-0.2,0.2-0.5,0.3-0.8,0.5c-0.3,0.1-0.5,0.3-0.8,0.5C250.1,301.1,245.6,303.3,240.9,305.1
					c-0.1,0-0.1,0.1-0.2,0.1c-0.5,0.2-1.1,0.4-1.7,0.6c0.1,0,0.1-0.1,0.2-0.1C239.8,305.5,240.3,305.3,240.9,305.1z"/>
				<path d="M241.1,305c-0.1,0-0.2,0.1-0.2,0.1c-0.6,0.2-1.1,0.4-1.7,0.6c-0.1,0-0.1,0.1-0.2,0.1c0,0,0,0,0,0
					c-0.1,0-0.2,0.1-0.3,0.1c0.1,0,0.2-0.1,0.3-0.2c0.6-0.2,1.1-0.4,1.7-0.6C240.9,305,241,305,241.1,305z"/>
				<path d="M239.1,305.7C239.1,305.7,239.1,305.7,239.1,305.7c-0.2,0.1-0.4,0.2-0.6,0.2C238.7,305.9,238.9,305.8,239.1,305.7z"/>
				<path class="st1" d="M238.4,306c0.1,0,0.2-0.1,0.3-0.1C238.6,305.9,238.5,306,238.4,306z"/>
				<path d="M238.5,305.9c0.2-0.1,0.4-0.1,0.5-0.2c-0.1,0.1-0.2,0.1-0.3,0.2C238.6,305.9,238.5,306,238.5,305.9
					C238.4,306,238.4,306,238.5,305.9c-0.2,0.1-0.3,0.1-0.4,0.2C238.2,306.1,238.3,306,238.5,305.9C238.4,306,238.5,306,238.5,305.9
					z"/>
				<path class="st1" d="M238.4,306c0.1,0,0.2,0,0.3-0.1c0.1,0,0.2-0.1,0.3-0.1c0,0,0,0,0,0c-0.3,0.1-0.6,0.2-0.8,0.3c0,0,0,0,0,0
					C238.2,306.1,238.3,306,238.4,306C238.4,306,238.4,306,238.4,306z"/>
				<path d="M238.1,306.1c0.1,0,0.2-0.1,0.3-0.1C238.3,306,238.2,306.1,238.1,306.1c-1.4,0.5-3,1-4.5,1.5c1.6-0.5,3.2-1.1,4.8-1.7
					C238.3,306,238.2,306.1,238.1,306.1z"/>
				<path d="M228.3,309.2c0.5-0.1,1.1-0.3,1.6-0.4C229.4,308.9,228.8,309,228.3,309.2z"/>
				<path class="st0" d="M226,122.6c-0.3,0-0.5,0-0.8,0.1c0.2,0,0.4-0.1,0.7-0.1C225.9,122.6,226,122.6,226,122.6z"/>
				<path class="st1" d="M225.9,122.6c-0.2,0-0.4,0-0.7,0.1c-0.1,0-0.1,0-0.2,0C225.3,122.6,225.6,122.6,225.9,122.6z"/>
				<path d="M225.5,140.1c0.1,0,0.3,0,0.4,0c-0.2,0-0.5,0-0.7-0.1C225.3,140.1,225.4,140.1,225.5,140.1
					C225.4,140.1,225.5,140.1,225.5,140.1z"/>
				<path class="st1" d="M225.1,122.7c-0.3,0-0.5,0.1-0.7,0.1C224.6,122.8,224.8,122.7,225.1,122.7z"/>
				<path d="M225,140C225,140,225,140,225,140c-0.2,0-0.4-0.1-0.7-0.1c0.1,0,0.2,0,0.3,0C224.7,140,224.9,140,225,140z"/>
				<path class="st1" d="M224.3,122.8C224.3,122.8,224.3,122.8,224.3,122.8C224.3,122.8,224.3,122.8,224.3,122.8z"/>
				<path class="st1" d="M224.3,122.8c-0.2,0.1-0.5,0.1-0.7,0.2C223.8,122.9,224,122.9,224.3,122.8z"/>
				<path d="M224.2,139.9c0,0,0.1,0,0.1,0c-0.2-0.1-0.5-0.1-0.7-0.2C223.9,139.8,224,139.8,224.2,139.9z"/>
				<path d="M223.4,139.6L223.4,139.6c-0.1,0-0.3-0.1-0.4-0.1C223.2,139.6,223.3,139.6,223.4,139.6z"/>
				<path class="st1" d="M223.4,123.1c-0.2,0.1-0.4,0.1-0.5,0.2C223,123.2,223.2,123.1,223.4,123.1z"/>
				<path d="M223.1,139.5L223.1,139.5c0,0-0.1,0-0.1,0C223,139.5,223,139.5,223.1,139.5z"/>
				<path d="M222.3,139.1c0.1,0.1,0.2,0.1,0.4,0.2c-0.2-0.1-0.3-0.2-0.5-0.2C222.2,139.1,222.3,139.1,222.3,139.1z"/>
				<path d="M221.5,138.7c0.2,0.1,0.4,0.3,0.7,0.4C221.9,139,221.7,138.8,221.5,138.7z"/>
				<path class="st0" d="M220.6,138c-0.1-0.1-0.1-0.1-0.2-0.2c-0.1-0.1-0.2-0.2-0.3-0.3c0,0-0.1-0.1-0.1-0.1c0,0-0.1-0.1-0.1-0.1
					c0.1,0.1,0.2,0.2,0.4,0.4C220.4,137.8,220.5,137.9,220.6,138z"/>
				<path class="st1" d="M220.3,125c-0.1,0.1-0.2,0.2-0.3,0.3C220.1,125.2,220.2,125.1,220.3,125z"/>
				<path d="M221,138.3c0.2,0.1,0.3,0.3,0.5,0.4c-0.4-0.3-0.8-0.6-1.2-0.9c-0.1-0.1-0.2-0.2-0.3-0.3c0.1,0.1,0.2,0.2,0.3,0.3
					c0.1,0.1,0.1,0.1,0.2,0.2C220.7,138.1,220.9,138.2,221,138.3z"/>
				<path d="M220,137.4C220,137.5,220,137.5,220,137.4C220.1,137.5,220.1,137.5,220,137.4C220,137.5,220,137.5,220,137.4z"/>
				<path d="M220,137.4C220,137.5,220,137.5,220,137.4c-0.1-0.1-0.3-0.2-0.4-0.4C219.7,137.2,219.9,137.3,220,137.4z"/>
				<path class="st1" d="M220,125.3c-0.1,0.1-0.2,0.2-0.3,0.3C219.8,125.5,219.9,125.4,220,125.3z"/>
				<path d="M219.9,137.3c0,0.1,0.1,0.1,0.1,0.1c-0.1-0.1-0.3-0.3-0.4-0.4c-0.1-0.1-0.2-0.2-0.3-0.4c0.1,0.2,0.3,0.4,0.4,0.5
					C219.8,137.2,219.9,137.3,219.9,137.3z"/>
				<path class="st1" d="M218.9,136.1c0.1,0.2,0.3,0.4,0.4,0.6C219.2,136.5,219.1,136.3,218.9,136.1
					C219,136.1,218.9,136.1,218.9,136.1z"/>
				<path d="M219.1,136.3c0.1,0.1,0.2,0.2,0.3,0.4C219.2,136.5,219.1,136.4,219.1,136.3z"/>
				<path class="st1" d="M218.6,135.4c0.1,0.2,0.3,0.5,0.4,0.7c-0.1-0.2-0.2-0.4-0.3-0.6C218.6,135.5,218.6,135.4,218.6,135.4z"/>
				<path class="st1" d="M218.2,134.7c0.1,0.2,0.2,0.5,0.3,0.7c-0.1-0.2-0.2-0.3-0.2-0.5C218.3,134.9,218.3,134.8,218.2,134.7z"/>
				<path class="st1" d="M218.2,134.7c0,0.1,0,0.2,0.1,0.2c-0.1-0.1-0.1-0.3-0.2-0.4C218.2,134.6,218.2,134.6,218.2,134.7z"/>
				<path class="st1" d="M218,134.1c0,0,0,0.1,0.1,0.2c0-0.1-0.1-0.2-0.1-0.3C218,133.9,218,134,218,134.1z"/>
				<path class="st1" d="M217.9,133.5c0,0,0,0.1,0,0.2C217.9,133.6,217.9,133.5,217.9,133.5C217.8,133.5,217.8,133.5,217.9,133.5z"
					/>
				<path class="st1" d="M217.8,133.2c0,0.1,0,0.2,0.1,0.3c0,0,0,0,0-0.1C217.8,133.4,217.8,133.3,217.8,133.2z"/>
				<path class="st1" d="M217.8,133.2c0,0.1,0,0.2,0.1,0.3C217.8,133.3,217.8,133.2,217.8,133.2
					C217.8,133.1,217.8,133.1,217.8,133.2z"/>
				<path class="st1" d="M217.7,132.9c0,0.1,0,0.1,0,0.2C217.7,133,217.7,132.9,217.7,132.9z"/>
				<path class="st1" d="M222.9,123.3C222.9,123.3,222.8,123.3,222.9,123.3c-0.1,0-0.2,0.1-0.3,0.1c-0.1,0.1-0.3,0.1-0.4,0.2
					c-0.6,0.3-1.2,0.8-1.8,1.3c0,0-0.1,0.1-0.1,0.1c0,0,0,0-0.1,0.1c0,0-0.1,0-0.1,0.1c-0.1,0-0.1,0.1-0.1,0.1
					c-1.1,1.1-1.9,2.5-2.2,4c0.9-3.9,4.4-6.8,8.6-6.8h42.3c0.3,0,0.6,0,0.9,0c0,0,0,0,0,0c0.1,0,0.1,0,0.2,0c0.1,0,0.2,0,0.2,0
					c0.2,0,0.4,0.1,0.6,0.1c0,0,0.1,0,0.1,0c0.1,0,0.1,0,0.2,0.1c0.4,0.1,0.8,0.2,1.1,0.4c-0.9-0.3-1.8-0.5-2.8-0.6c0,0-0.1,0-0.1,0
					c-0.1,0-0.2,0-0.4,0h-42.3c-0.1,0-0.3,0-0.4,0c0,0-0.1,0-0.1,0c-0.3,0-0.6,0-0.8,0.1c-0.3,0-0.5,0.1-0.7,0.1c0,0-0.1,0-0.1,0
					c0,0,0,0,0,0c-0.2,0-0.5,0.1-0.7,0.2c-0.1,0-0.1,0-0.1,0c0,0,0,0,0,0C223.2,123.1,223,123.2,222.9,123.3z"/>
				<path d="M219.6,137c-1.1-1.2-1.8-2.7-2-4.4c0.2,1.1,0.6,2.2,1.1,3.1c0.1,0.2,0.2,0.4,0.3,0.6c0.1,0.1,0.1,0.2,0.3,0.4
					c0,0,0,0,0.1,0.1C219.4,136.8,219.5,136.9,219.6,137z"/>
				<path class="st1" d="M217.7,132.7C217.7,132.7,217.7,132.7,217.7,132.7C217.7,132.7,217.7,132.6,217.7,132.7
					C217.7,132.6,217.7,132.6,217.7,132.7z"/>
				<path class="st1" d="M217.7,132.4c0,0.1,0,0.2,0,0.2c0,0,0,0,0-0.1C217.7,132.5,217.6,132.5,217.7,132.4z"/>
				<path class="st1" d="M217.7,132.4c0,0.1,0,0.1,0,0.2c0-0.1,0-0.2,0-0.3C217.6,132.3,217.6,132.4,217.7,132.4z"/>
				<path class="st1" d="M217.7,129.3c-0.1,0.3-0.1,0.5-0.1,0.8C217.6,129.8,217.7,129.5,217.7,129.3z"/>
				<path class="st1" d="M220.4,124.9c0.5-0.5,1.1-0.9,1.8-1.3c-0.5,0.3-1,0.6-1.4,0.9c0,0,0,0-0.1,0
					C220.6,124.7,220.6,124.8,220.4,124.9c0,0-0.1,0.1-0.1,0.1c-0.1,0.1-0.2,0.2-0.3,0.3c-0.1,0.1-0.2,0.2-0.3,0.3
					c-1.3,1.4-2,3.2-2.1,5.3c0-2.2,0.9-4.1,2.4-5.6c0,0,0.1-0.1,0.1-0.1c0,0,0.1-0.1,0.1-0.1c0,0,0-0.1,0.1-0.1
					C220.3,124.9,220.4,124.9,220.4,124.9z"/>
				<path class="st1" d="M217.6,132.1c0-0.1,0-0.2,0-0.3c0-0.1,0-0.3,0-0.4C217.6,131.6,217.6,131.9,217.6,132.1z"/>
				<path class="st1" d="M217.7,130.1c-0.1,0.4-0.1,0.9-0.1,1.3c0-0.2,0-0.3,0-0.5c0.1-2,0.9-3.9,2.1-5.3
					C218.7,126.9,217.9,128.4,217.7,130.1z"/>
				<path d="M228.3,309.2c-5.2,1.4-10.5,2.4-15.9,3c0.4-0.1,0.9-0.1,1.3-0.2c1.4-0.2,2.8-0.4,4.2-0.6c0.4-0.1,0.7-0.1,1.1-0.2
					c0.2,0,0.4-0.1,0.6-0.1c0.8-0.2,1.7-0.3,2.5-0.5c0,0,0,0,0.1,0c0.9-0.2,1.8-0.4,2.7-0.6C226,309.8,227.1,309.5,228.3,309.2z"/>
				<path class="st0" d="M209.5,330.1c1.1-0.1,2.2-0.2,3.3-0.3C211.7,329.9,210.6,330,209.5,330.1z"/>
				<path d="M210.3,312.4c1.2-0.2,2.3-0.3,3.4-0.4c-0.4,0.1-0.9,0.1-1.3,0.2C211.7,312.3,211,312.4,210.3,312.4z"/>
				<path d="M224.7,310.1c-0.9,0.2-1.8,0.4-2.7,0.6c0,0,0,0-0.1,0c-0.8,0.2-1.7,0.3-2.5,0.5c-0.2,0-0.4,0.1-0.6,0.1
					c-0.4,0.1-0.7,0.1-1.1,0.2c-1.4,0.2-2.8,0.4-4.2,0.6c-1.1,0.2-2.2,0.3-3.3,0.3c0,0,0,0,0,0c0.7-0.1,1.4-0.1,2.1-0.2
					c5.4-0.6,10.7-1.6,15.9-3c0.5-0.1,1.1-0.3,1.6-0.4c0.1,0,0.3-0.1,0.4-0.1c0.4-0.1,0.7-0.2,1.1-0.3c0.7-0.2,1.4-0.4,2.1-0.6
					c0.1,0,0.1,0,0.2-0.1c1.5-0.5,3.1-1,4.6-1.5c-0.1,0-0.1,0.1-0.2,0.1C233.7,307.8,229.3,309.1,224.7,310.1z"/>
				<path d="M210.3,312.4C210.3,312.4,210.3,312.4,210.3,312.4C210.2,312.4,210.2,312.4,210.3,312.4
					C210.2,312.4,210.3,312.4,210.3,312.4z"/>
				<path d="M210.2,312.4C210.2,312.4,210.2,312.4,210.2,312.4c0,0-0.1,0-0.1,0C210.1,312.5,210.1,312.4,210.2,312.4z"/>
				<path d="M210.2,312.4c-0.1,0-0.1,0-0.1,0c0,0-0.1,0-0.1,0C210.1,312.4,210.1,312.4,210.2,312.4z"/>
				<path class="st1" d="M210.1,312.5c-0.1,0-0.2,0-0.4,0C209.8,312.5,209.9,312.5,210.1,312.5C210,312.5,210,312.5,210.1,312.5z"/>
				<path class="st1" d="M209.1,312.5c0.1,0,0.1,0,0.2,0C209.2,312.5,209.1,312.5,209.1,312.5C209,312.5,209,312.5,209.1,312.5
					C209.1,312.5,209.1,312.5,209.1,312.5z"/>
				<path d="M209.1,312.5C209,312.5,209,312.5,209.1,312.5c-0.2,0-0.4,0-0.6,0C208.6,312.5,208.9,312.5,209.1,312.5z"/>
				<path class="st1" d="M209.6,312.5c-0.3,0-0.6,0-0.9,0.1c0.2,0,0.4-0.1,0.6-0.1c0,0,0.1,0,0.1,0c0,0,0,0,0,0
					C209.5,312.5,209.5,312.5,209.6,312.5z"/>
				<path class="st1" d="M208.2,312.6c0.3,0,0.6,0,0.8-0.1c0.1,0,0.2,0,0.3,0c-0.2,0-0.4,0-0.6,0.1
					C208.5,312.6,208.4,312.6,208.2,312.6C208.2,312.6,208.1,312.6,208.2,312.6C208.1,312.6,208.1,312.6,208.2,312.6z"/>
				<path d="M209,312.5c-0.3,0-0.6,0.1-0.8,0.1c0.1,0,0.1,0,0.2,0c0,0,0.1,0,0.1,0C208.6,312.5,208.8,312.5,209,312.5z"/>
				<path d="M208.3,312.5c-0.1,0-0.1,0-0.2,0c-0.1,0-0.3,0-0.4,0C207.9,312.6,208.1,312.6,208.3,312.5z"/>
				<path d="M208.2,312.5c-0.4,0.1-0.7,0.1-1.1,0.1c-0.3,0.1-0.7,0.1-1,0C206.8,312.6,207.5,312.6,208.2,312.5z"/>
				<path class="st1" d="M207.7,312.6c0.1,0,0.3,0,0.4,0c0,0,0,0-0.1,0c0,0,0.1,0,0.1,0c-0.4,0-0.7,0.1-1.1,0.1
					c0.1,0,0.3-0.1,0.5-0.1c0,0,0,0,0,0C207.6,312.6,207.7,312.6,207.7,312.6C207.7,312.6,207.7,312.6,207.7,312.6z"/>
				<path class="st1" d="M206,312.8c0,0,0.1,0,0.1,0c-0.1,0-0.1,0-0.2,0C205.9,312.8,206,312.8,206,312.8z"/>
				<path d="M206,312.8c0,0-0.1,0-0.1,0c-0.1,0-0.1,0-0.2,0c-0.2,0-0.3,0-0.5,0C205.5,312.7,205.7,312.7,206,312.8z"/>
				<path class="st0" d="M202.9,330.5c1.1,0,2.2-0.1,3.3-0.1C205.1,330.4,204,330.4,202.9,330.5z"/>
				<path class="st1" d="M205,312.8c0.1,0,0.1,0,0.2,0c-0.2,0-0.4,0-0.6,0.1c-0.1,0-0.2,0-0.3,0c-0.2,0-0.3,0-0.5,0
					C204.2,312.8,204.6,312.8,205,312.8z"/>
				<path class="st2" d="M138.1,294.7c-5.9-3.9-11.5-8.3-16.6-13.1c6.6,6.3,13.9,11.9,21.8,16.5c0.4,0.3,0.8,0.5,1.2,0.7
					c2,1.1,3.9,2.1,5.9,3.1c1.7,0.8,3.4,1.6,5.1,2.3c0,0,0,0,0.1,0c0.1,0,0.2,0.1,0.2,0.1c0,0,0,0,0.1,0c0,0,0.1,0,0.1,0
					c0.6,0.3,1.3,0.6,2,0.8c0,0,0.1,0,0.1,0c0.1,0,0.3,0.1,0.4,0.1c0.3,0.1,0.5,0.2,0.8,0.3c0,0,0.1,0,0.1,0
					c0.1,0.1,0.3,0.1,0.4,0.2c0.3,0.2,0.6,0.3,0.9,0.4c0.1,0,0.2,0.1,0.3,0.1c0.1,0,0.1,0,0.2,0.1c0.1,0,0.2,0.1,0.3,0.1
					c3.4,1.3,6.9,2.3,10.6,3.2c0.2,0,0.3,0.1,0.5,0.1c2.3,0.6,4.7,1.1,7,1.5c0.1,0,0.2,0,0.3,0c0.1,0,0.3,0,0.4,0.1
					c0.2,0,0.3,0.1,0.5,0.1c0.1,0,0.2,0,0.3,0.1c0.1,0,0.2,0,0.2,0c0.1,0,0.3,0,0.4,0.1c0.9,0.1,1.9,0.3,2.8,0.4
					c0.3,0.1,0.7,0.1,1,0.1c0.3,0,0.7,0.1,1,0.1c0,0,0.1,0,0.1,0c0.4,0.1,0.8,0.1,1.2,0.2c0.9,0.1,1.9,0.2,2.8,0.3
					c1,0.1,1.9,0.1,2.9,0.2c0.2,0,0.4,0,0.6,0c0.6,0,1.2,0.1,1.8,0.1c1.1,0,2.2,0.1,3.4,0.1c1.1,0,2.2,0,3.3-0.1c0.4,0,0.7,0,1.1,0
					c0.5,0,0.9,0,1.4-0.1c0.3,0,0.6,0,0.9,0c0.7,0,1.4-0.1,2.1-0.1c0.5,0,1-0.1,1.5-0.1c0.9-0.1,1.9-0.2,2.8-0.3
					c25.9-3,49.1-14.7,66.5-32.2c8.8-8.8,16-18.9,21.5-30.2c5.5-11.2,9.2-23.5,10.7-36.4c0.1-0.5,0.1-0.9,0.2-1.4
					c0.1-0.9,0.2-1.9,0.3-2.8c0.1-1,0.1-1.9,0.2-2.9c0,0,0-0.1,0-0.1c0,0,0-0.1,0-0.1c0-1,0.1-1.9,0.1-2.9s0-1.9,0-2.9
					c0-31-12.6-59.1-32.9-79.5c-18.5-18.5-43.4-30.6-71.1-32.5c-0.9-0.1-1.7-0.1-2.6-0.2c0,0-0.1,0-0.1,0c-0.2,0-0.5,0-0.7,0
					c-0.2,0-0.5,0-0.7,0c-1.4,0-2.9,0-4.3,0c-1.4,0-2.9,0-4.4,0c0,0-0.1,0-0.1,0c-0.5,0-0.9,0-1.3,0.1c0,0-0.1,0-0.1,0
					c-22.5,1.1-43.2,8.8-60.3,21.2c-4.1,3-8,6.2-11.6,9.7c-0.6,0.6-1.2,1.2-1.8,1.8c-1.3,1.3-2.5,2.6-3.7,3.9
					c-1.2,1.3-2.4,2.7-3.5,4.1c0,0,0,0,0,0c-2.8,3.4-5.5,7.1-7.9,10.8c-0.5,0.8-1,1.6-1.5,2.3C93,159.1,87,179,87,200.4
					c0,30.1,11.8,57.4,31,77.6c0.7,0.7,1.3,1.4,2,2c0.5,0.5,0.9,0.9,1.4,1.4c0,0,0,0.1,0.1,0.1c0,0,0,0,0,0c1.3,1.2,2.6,2.4,3.9,3.6
					c0.4,0.3,0.7,0.6,1.1,0.9c0.6,0.5,1.2,1,1.8,1.5c1.1,0.9,2.3,1.8,3.4,2.7c0,0,0.1,0,0.1,0.1
					C133.8,291.8,135.9,293.3,138.1,294.7z M199.5,70.5c1.1,0,2.2,0,3.4,0c1.1,0,2.2,0.1,3.3,0.1c1.1,0.1,2.2,0.1,3.3,0.2
					c1.1,0.1,2.2,0.2,3.3,0.3c30.6,3.1,58.1,16.9,78.6,37.4s34.3,48,37.4,78.6c0.1,1.1,0.2,2.2,0.3,3.3c0.1,1.1,0.1,2.2,0.2,3.3
					c0.1,1.1,0.1,2.2,0.1,3.3c0,1.1,0,2.2,0,3.4s0,2.2,0,3.4c0,1.1-0.1,2.2-0.1,3.3c0,1.1-0.1,2.2-0.2,3.3c-0.1,1.1-0.2,2.2-0.3,3.3
					c-3.1,30.6-16.9,58.1-37.4,78.6s-48,34.3-78.6,37.4c-1.1,0.1-2.2,0.2-3.3,0.3c-1.1,0.1-2.2,0.1-3.3,0.2
					c-1.1,0.1-2.2,0.1-3.3,0.1c-1.1,0-2.2,0-3.4,0s-2.2,0-3.4,0c-1.1,0-2.2-0.1-3.3-0.1c-1.1,0-2.2-0.1-3.3-0.2
					c-1.1-0.1-2.2-0.2-3.3-0.3c-30.6-3.1-58.1-16.9-78.6-37.4s-34.3-48-37.4-78.6c-0.1-1.1-0.2-2.2-0.3-3.3
					c-0.1-1.1-0.1-2.2-0.2-3.3c-0.1-1.1-0.1-2.2-0.1-3.3c0-1.1,0-2.2,0-3.4s0-2.2,0-3.4c0-1.1,0.1-2.2,0.1-3.3
					c0.1-1.1,0.1-2.2,0.2-3.3c0.1-1.1,0.2-2.2,0.3-3.3c3.1-30.6,16.9-58.1,37.4-78.6C131.1,85.1,163.6,70.5,199.5,70.5z"/>
				<path d="M195.9,312.9c-0.3,0-0.7-0.1-1-0.1C195.2,312.8,195.5,312.8,195.9,312.9z"/>
				<path d="M195.2,88.2c-0.5,0-0.9,0-1.3,0.1c0.4,0,0.8,0,1.2-0.1C195.2,88.2,195.2,88.2,195.2,88.2z"/>
				<path d="M195.1,88.2c-0.4,0-0.8,0-1.2,0.1c0,0-0.1,0-0.1,0C194.2,88.3,194.7,88.3,195.1,88.2z"/>
				<path d="M194.8,312.8c0.3,0,0.7,0,1,0.1c0.1,0,0.2,0,0.3,0c-0.6,0-1.2-0.1-1.8-0.1c0.1,0,0.3,0,0.4,0
					C194.7,312.8,194.8,312.8,194.8,312.8z"/>
				<path d="M196.5,312.9c1,0,2,0.1,3.1,0.1c-0.1,0-0.2,0-0.3,0c-1.1,0-2.2,0-3.4-0.1c-0.6,0-1.2,0-1.8-0.1c0.1,0,0.1,0,0.2,0
					c0.6,0,1.2,0.1,1.8,0.1c-0.1,0-0.2,0-0.3,0C196.1,312.9,196.3,312.9,196.5,312.9z"/>
				<path d="M193.9,88.3c-0.5,0-1.1,0.1-1.6,0.1C192.8,88.4,193.3,88.3,193.9,88.3C193.8,88.3,193.9,88.3,193.9,88.3z"/>
				<path d="M193.7,312.8c-0.1,0-0.1,0-0.2,0c-0.1,0-0.3,0-0.4,0c-0.3-0.1-0.6-0.1-0.9-0.1c-0.3,0-0.6-0.1-0.9-0.1
					C192.1,312.6,192.9,312.7,193.7,312.8z"/>
				<path d="M193.5,312.8c-0.1,0-0.2,0-0.3,0c-0.1,0-0.1,0-0.1,0C193.2,312.8,193.4,312.8,193.5,312.8z"/>
				<path d="M192.2,312.7c0.3,0,0.6,0,0.9,0.1c-0.7-0.1-1.4-0.1-2.2-0.1c0,0-0.1,0-0.1,0c0,0,0.1,0,0.1,0c0.1,0,0.3,0,0.4,0
					C191.6,312.6,191.9,312.7,192.2,312.7z"/>
				<path class="st0" d="M192.8,312.8c-0.3,0-0.7,0-1-0.1c-0.3,0-0.6,0-0.9-0.1c0.7,0.1,1.4,0.1,2.2,0.1c0.1,0,0.1,0,0.1,0
					C193.1,312.8,192.9,312.8,192.8,312.8z"/>
				<path d="M190.5,312.6c0.3,0,0.5,0,0.8,0c-0.1,0-0.3,0-0.4,0C190.8,312.6,190.6,312.6,190.5,312.6z"/>
				<path d="M190.5,312.6c0.1,0,0.3,0,0.4,0c-0.4,0-0.8-0.1-1.2-0.1c0.1,0,0.1,0,0.2,0C190.1,312.5,190.3,312.5,190.5,312.6z"/>
				<path d="M190,312.5c0.2,0,0.3,0,0.5,0.1c-0.2,0-0.4,0-0.6-0.1C189.9,312.5,190,312.5,190,312.5z"/>
				<path d="M190.8,312.6C190.8,312.6,190.9,312.6,190.8,312.6c0,0-0.1,0-0.2,0c-0.3,0-0.6-0.1-0.9-0.1
					C190.1,312.5,190.5,312.6,190.8,312.6C190.9,312.6,190.8,312.6,190.8,312.6z"/>
				<path d="M189.9,312.5c-0.1,0-0.1,0-0.2,0c0,0,0,0,0,0c-0.1,0-0.1,0-0.1,0c-0.2,0-0.4,0-0.5-0.1
					C189.3,312.5,189.6,312.5,189.9,312.5z"/>
				<path class="st0" d="M189.7,312.5c-0.1,0-0.2,0-0.3,0c-0.4,0-0.9-0.1-1.3-0.1c0.2,0,0.4,0,0.6,0c0,0,0,0,0,0
					c0.3,0,0.5,0,0.8,0.1C189.6,312.5,189.6,312.5,189.7,312.5z"/>
				<path d="M189.5,312.5c-0.3,0-0.5,0-0.8-0.1c0.1,0,0.2,0,0.3,0C189.2,312.5,189.3,312.5,189.5,312.5z"/>
				<path class="st0" d="M199.9,313c1.1,0,2.2,0,3.3-0.1c0.2,0,0.4,0,0.6,0c0.2,0,0.3,0,0.5,0c0.1,0,0.2,0,0.3,0
					c0.4,0,0.7,0,1.1-0.1c0.1,0,0.1,0,0.2,0c0.1,0,0.1,0,0.2,0c0.2,0,0.3,0,0.5,0c0.7,0,1.4-0.1,2.1-0.1c0.5,0,1-0.1,1.5-0.1
					c0.9-0.1,1.9-0.2,2.8-0.3c9.6-1.2,18.9-3.6,27.7-7.1c0.1,0,0.1-0.1,0.2-0.1c0.8-0.3,1.6-0.6,2.3-0.9c1.7-0.7,3.4-1.5,5.1-2.3
					c2-1,4-2,5.9-3.1c0.1-0.1,0.2-0.1,0.2-0.2c0.3-0.1,0.6-0.3,0.8-0.5c0.1,0,0.1-0.1,0.1-0.1c0.5-0.3,1.1-0.6,1.6-1
					c0,0,0.1,0,0.1-0.1c8-4.8,15.3-10.5,21.9-17.1c1.6-1.6,3.2-3.3,4.8-5.1c1-1.2,2-2.3,3-3.5c13.2-16.2,21.9-36,24.4-57.8
					c0-0.1,0-0.1,0-0.2c0.1-0.5,0.1-0.9,0.2-1.4c0.1-0.9,0.2-1.9,0.3-2.8c0.1-1,0.1-1.8,0.2-2.8c0,0,0,0.1,0,0.1
					c-0.1,1-0.1,1.9-0.2,2.9c-0.1,0.9-0.2,1.9-0.3,2.8c-0.1,0.5-0.1,0.9-0.2,1.4c-1.5,12.9-5.2,25.2-10.7,36.4
					c-5.5,11.2-12.8,21.4-21.5,30.2c-17.4,17.5-40.6,29.2-66.5,32.2c-0.9,0.1-1.9,0.2-2.8,0.3c-0.5,0-1,0.1-1.5,0.1
					c-0.7,0-1.4,0.1-2.1,0.1c-0.3,0-0.6,0-0.9,0c-0.5,0.1-0.9,0.1-1.4,0.1c-0.4,0-0.7,0-1.1,0c-1.1,0.1-2.2,0.1-3.3,0.1
					c-1.2,0-2.3-0.1-3.4-0.1c-0.6,0-1.2-0.1-1.8-0.1c-0.2,0-0.4,0-0.6,0c-1-0.1-1.9-0.1-2.9-0.2c-0.9-0.1-1.9-0.2-2.8-0.3
					c-0.4-0.1-0.8-0.1-1.2-0.2c0.7,0.1,1.3,0.1,1.9,0.2c-0.2,0-0.4,0-0.6,0c0.4,0,0.9,0.1,1.3,0.1c0.1,0,0.2,0,0.3,0c0,0,0,0,0,0
					c0.3,0,0.6,0.1,0.9,0.1c0.1,0,0.2,0,0.3,0c0.3,0.1,0.6,0.1,0.9,0.1c0.3,0.1,0.7,0.1,1,0.1c0.1,0,0.3,0,0.4,0c0.1,0,0.2,0,0.3,0
					c0.1,0,0.1,0,0.2,0c0.1,0,0.3,0,0.4,0c0,0,0,0,0,0c0.6,0.1,1.2,0.1,1.8,0.1c1.2,0.1,2.3,0.1,3.4,0.1c0.1,0,0.2,0,0.3,0
					C199.7,313,199.8,313,199.9,313z"/>
				<path d="M185.1,311.9c-1.3-0.2-2.6-0.4-3.9-0.6c1.2,0.2,2.5,0.4,3.7,0.5C185,311.9,185.1,311.9,185.1,311.9z"/>
				<path class="st0" d="M181.8,311.6c0.9,0.1,1.9,0.3,2.8,0.4C183.7,311.8,182.8,311.7,181.8,311.6z"/>
				<path d="M186.3,312.1c-1.9-0.2-3.8-0.5-5.6-0.8c0.2,0,0.3,0,0.5,0.1c1.3,0.2,2.6,0.4,3.9,0.6c0.3,0,0.6,0.1,0.9,0.1
					C186.1,312.1,186.2,312.1,186.3,312.1z"/>
				<path d="M181.1,272.2c0.1-0.3,0.1-0.5,0.2-0.8C181.3,271.7,181.2,271.9,181.1,272.2z"/>
				<path class="st0" d="M180.8,273.1c-0.2,0.4-0.4,0.8-0.6,1.1C180.4,273.8,180.6,273.5,180.8,273.1z"/>
				<path d="M180.2,274.2c0.2-0.3,0.4-0.7,0.6-1.1C180.7,273.4,180.5,273.8,180.2,274.2z"/>
				<path class="st0" d="M179.7,274.9c0.2-0.2,0.3-0.5,0.5-0.6C180.1,274.4,179.9,274.7,179.7,274.9z"/>
				<path class="st0" d="M180,311.3c-0.1,0-0.2,0-0.3,0C179.8,311.2,179.9,311.2,180,311.3z"/>
				<path class="st0" d="M178.8,275.8c-0.2,0.2-0.4,0.4-0.5,0.5C178.4,276.2,178.6,276,178.8,275.8z"/>
				<path class="st0" d="M179.6,264.1c0.1,0.1,0.2,0.2,0.3,0.3c0.2,0.2,0.3,0.5,0.5,0.7c0.2,0.4,0.4,0.7,0.6,1.1
					c0.1,0.3,0.2,0.6,0.3,0.9c0.1,0.3,0.1,0.5,0.2,0.8c-0.1,0.4,0,0.8,0,1.2c0-0.4-0.1-0.9-0.2-1.3c-0.1-0.3-0.1-0.5-0.2-0.8
					c-0.1-0.3-0.2-0.6-0.3-0.9c-0.2-0.4-0.4-0.8-0.6-1.1c-0.1-0.2-0.3-0.5-0.5-0.7c-0.1-0.1-0.2-0.2-0.3-0.3
					c-0.4-0.5-0.8-0.9-1.2-1.2c0,0,0,0-0.1,0c0,0,0,0,0-0.1c0.1,0,0.1,0.1,0.2,0.1C178.8,263.2,179.2,263.6,179.6,264.1z"/>
				<path class="st0" d="M178,262.6C178,262.6,178.1,262.7,178,262.6c0.1,0.1,0.1,0.1,0.1,0.1C178.1,262.7,178.1,262.7,178,262.6
					C178.1,262.7,178,262.6,178,262.6C178,262.6,178,262.6,178,262.6z"/>
				<path class="st0" d="M178.2,262.8c-0.1-0.1-0.2-0.1-0.3-0.2c0,0,0.1,0,0.1,0c0,0,0,0,0,0C178,262.6,178.1,262.7,178.2,262.8
					C178.1,262.7,178.1,262.7,178.2,262.8C178.2,262.8,178.2,262.8,178.2,262.8C178.2,262.8,178.2,262.8,178.2,262.8z"/>
				<path class="st0" d="M177.1,262c0.1,0,0.1,0.1,0.2,0.1c0.2,0.1,0.5,0.3,0.7,0.5c0,0,0,0,0,0c0,0,0,0,0,0c0,0,0,0,0,0
					c-0.1,0-0.1,0-0.2-0.1C177.6,262.3,177.3,262.2,177.1,262z"/>
				<path class="st0" d="M177.3,262.1c-0.1,0-0.1-0.1-0.2-0.1c0,0-0.1,0-0.1,0c-0.3-0.1-0.5-0.3-0.7-0.4v0
					C176.6,261.7,177,261.9,177.3,262.1z"/>
				<path d="M180.7,311.3c-1.4-0.2-2.9-0.5-4.3-0.8c0.1,0,0.1,0,0.1,0c0.7,0.1,1.4,0.3,2,0.4c0.2,0,0.3,0.1,0.5,0.1
					c0.1,0,0.1,0,0.1,0c0.2,0,0.3,0.1,0.5,0.1c0.2,0,0.3,0.1,0.5,0.1c0.1,0,0.2,0,0.3,0C180.5,311.3,180.6,311.3,180.7,311.3z"/>
				<path class="st0" d="M177,262C177,262,177.1,262,177,262C177.1,262,177,262,177,262C177,262,177,262,177,262z"/>
				<path class="st0" d="M177,262C177,262,177,262,177,262c-0.1,0-0.2-0.1-0.2-0.1c-0.2-0.1-0.4-0.2-0.5-0.3
					C176.6,261.7,176.8,261.8,177,262z"/>
				<path class="st0" d="M176.3,261.5c0.2,0.1,0.4,0.2,0.5,0.3C176.6,261.8,176.4,261.6,176.3,261.5z"/>
				<path d="M176,310.4c0.1,0,0.3,0.1,0.4,0.1C176.3,310.5,176.1,310.4,176,310.4z"/>
				<path class="st0" d="M176.3,261.5L176.3,261.5C176.3,261.5,176.2,261.5,176.3,261.5C176.2,261.5,176.3,261.5,176.3,261.5z"/>
				<path class="st0" d="M174.5,261c0.2,0.1,0.4,0.1,0.6,0.1C174.9,261.1,174.6,261.1,174.5,261z"/>
				<path class="st0" d="M177.2,310.7c0.8,0.2,1.7,0.3,2.5,0.5c-2.4-0.4-4.7-0.9-7-1.5c0.6,0.1,1.1,0.3,1.7,0.4
					C175.3,310.3,176.2,310.5,177.2,310.7C177.1,310.7,177.1,310.7,177.2,310.7z"/>
				<path d="M174.4,310c-0.1,0-0.2,0-0.3,0c-2-0.5-4.1-1-6.1-1.6C170.1,309,172.2,309.6,174.4,310z"/>
				<path d="M165.8,307.8c0.7,0.2,1.5,0.5,2.2,0.7C167.3,308.2,166.5,308,165.8,307.8z"/>
				<path d="M163.6,307c0.7,0.2,1.4,0.5,2.1,0.7C165,307.5,164.3,307.3,163.6,307z"/>
				<path d="M163.6,307c-0.4-0.1-0.8-0.3-1.2-0.4c-0.3-0.1-0.5-0.2-0.8-0.3c-0.1,0-0.2-0.1-0.3-0.1c-0.1,0-0.2-0.1-0.2-0.1
					c-0.1,0-0.1-0.1-0.1-0.1C161.8,306.4,162.7,306.7,163.6,307z"/>
				<path d="M161.1,306.2c0.1,0,0.2,0.1,0.2,0.1C161.2,306.3,161.2,306.2,161.1,306.2C161.1,306.2,161.1,306.2,161.1,306.2z"/>
				<path d="M161.1,306.2c-0.1,0-0.2-0.1-0.3-0.1c-0.3-0.1-0.6-0.2-0.9-0.4C160.3,305.9,160.7,306,161.1,306.2
					C161.1,306.2,161.1,306.2,161.1,306.2z"/>
				<path d="M161.1,306.2c-0.4-0.1-0.8-0.3-1.2-0.4c0,0-0.1,0-0.1,0c0.1,0,0.2,0.1,0.3,0.1c0,0,0,0,0,0c0.3,0.1,0.5,0.2,0.8,0.3
					C161,306.1,161,306.1,161.1,306.2z"/>
				<path class="st0" d="M160.9,306.1c-0.3-0.1-0.5-0.2-0.8-0.3C160.4,305.9,160.7,306,160.9,306.1z"/>
				<path class="st0" d="M159.9,305.8c-0.1,0-0.3-0.1-0.4-0.2c0.1,0,0.1,0,0.2,0.1C159.7,305.7,159.8,305.7,159.9,305.8
					C159.8,305.7,159.9,305.7,159.9,305.8z"/>
				<path d="M156,304.2c0,0-0.1,0-0.1,0C155.9,304.2,155.9,304.2,156,304.2C155.9,304.2,156,304.2,156,304.2z"/>
				<path d="M153,302.9c2.3,1,4.7,2,7.1,2.9c-0.1,0-0.2-0.1-0.3-0.1c-0.1,0-0.1,0-0.2-0.1c-0.1,0-0.2-0.1-0.3-0.1c0,0-0.1,0-0.1,0
					c-0.5-0.2-1.1-0.4-1.6-0.6c-0.4-0.2-0.8-0.3-1.3-0.5C155.2,303.9,154.1,303.4,153,302.9z"/>
				<path d="M191.1,88.5c-26.8,2-51,13.4-69.3,30.8c3.6-3.5,7.5-6.7,11.6-9.7C149.8,97.7,169.6,90,191.1,88.5z"/>
				<path d="M191.1,88.5c-21.5,1.6-41.3,9.2-57.7,21.1c17.1-12.4,37.8-20.2,60.3-21.2c0,0,0.1,0,0.1,0c-0.5,0-1,0.1-1.5,0.1
					C191.9,88.4,191.5,88.4,191.1,88.5z"/>
				<path d="M152.9,302.9C153,302.9,153,302.9,152.9,302.9C153,302.9,153,302.9,152.9,302.9z"/>
				<path d="M155.6,304.1C155.6,304.1,155.6,304.1,155.6,304.1c-1.7-0.7-3.3-1.4-4.9-2.2c-2-1-4-2-5.9-3.1c-0.4-0.2-0.8-0.5-1.2-0.7
					c-0.9-0.5-1.8-1.1-2.7-1.6c1.3,0.8,2.7,1.6,4.1,2.4c0.7,0.4,1.3,0.7,2,1.1c1.9,1,3.9,2,5.9,2.9c0,0,0,0,0.1,0
					c1.1,0.5,2.2,1,3.3,1.4c0.4,0.2,0.8,0.4,1.3,0.5c0.5,0.2,1.1,0.4,1.6,0.6c-0.2-0.1-0.5-0.2-0.7-0.3c-0.1,0-0.3-0.1-0.4-0.1
					c0,0-0.1,0-0.1,0c-0.6-0.2-1.3-0.6-2-0.8c0,0-0.1,0-0.1,0c0,0,0,0,0,0C155.8,304.2,155.7,304.1,155.6,304.1z"/>
				<polygon class="st1" points="139.3,248.3 139.2,248.4 139.2,248.3 139.3,248.2 				"/>
				<path d="M139,295.3c0.6,0.4,1.3,0.8,1.9,1.2C140.3,296.1,139.6,295.7,139,295.3z"/>
				<path d="M138.1,294.7c0.3,0.2,0.6,0.4,0.9,0.6C138.7,295.1,138.4,294.9,138.1,294.7z"/>
				<path class="st0" d="M136.5,221.1c0.2,0.2,0.4,0.4,0.6,0.6C136.9,221.5,136.7,221.3,136.5,221.1z"/>
				<path class="st0" d="M135.6,220.2c-0.2-0.2-0.5-0.3-0.7-0.5C135.1,219.8,135.4,220,135.6,220.2z"/>
				<path class="st0" d="M133.9,219.1c0.4,0.2,0.7,0.4,1,0.6c-0.2-0.1-0.3-0.2-0.5-0.3c0,0-0.1,0-0.1,0
					C134.2,219.3,134.1,219.2,133.9,219.1z"/>
				<path class="st0" d="M134.9,219.8c-0.4-0.2-0.7-0.4-1.1-0.6c0.2,0.1,0.4,0.1,0.6,0.2c0,0,0,0,0.1,0
					C134.6,219.5,134.8,219.7,134.9,219.8z"/>
				<path class="st0" d="M132.9,218.9c-0.3-0.1-0.5-0.1-0.8-0.2C132.4,218.7,132.7,218.8,132.9,218.9z"/>
				<path d="M135,219.7c0.2,0.1,0.5,0.3,0.7,0.5c0.1,0.1,0.2,0.2,0.3,0.3c0.4,0.4,0.9,0.8,1.2,1.2c0.1,0.1,0.2,0.2,0.3,0.3
					c0.2,0.2,0.3,0.5,0.5,0.7c0.2,0.4,0.4,0.7,0.6,1.1c0.1,0.3,0.2,0.6,0.3,0.9c0.1,0.3,0.1,0.5,0.2,0.8c0.1,0.6,0.2,1.2,0.2,1.8
					v20.9l-0.1,0.1v-21c0-0.6-0.1-1.2-0.2-1.8c-0.1-0.3-0.1-0.5-0.2-0.8c-0.1-0.3-0.2-0.6-0.3-0.9c-0.2-0.4-0.4-0.8-0.6-1.1
					c-0.1-0.2-0.3-0.5-0.5-0.7c-0.1-0.1-0.2-0.2-0.3-0.3c-0.2-0.2-0.4-0.4-0.6-0.6c0,0,0,0,0,0c-0.2-0.2-0.4-0.4-0.5-0.5
					c0,0,0,0-0.1-0.1c-0.1-0.1-0.2-0.2-0.3-0.3c-0.2-0.2-0.5-0.4-0.7-0.5c-0.3-0.2-0.6-0.4-1-0.6c0,0-0.1,0-0.1,0
					c-0.3-0.1-0.6-0.2-0.9-0.3c-0.3-0.1-0.5-0.1-0.8-0.2c-0.5-0.1-0.9-0.2-1.4-0.2c0.5,0,1,0.1,1.4,0.2c0.3,0.1,0.5,0.1,0.8,0.2
					c0.3,0.1,0.6,0.2,0.9,0.3C134.3,219.3,134.7,219.5,135,219.7z"/>
				<path d="M128.3,287.5c0.6,0.5,1.1,0.9,1.7,1.4C129.4,288.4,128.8,288,128.3,287.5z"/>
				<path class="st0" d="M128.6,278.3c-0.3-0.1-0.5-0.1-0.8-0.2C128.1,278.1,128.3,278.2,128.6,278.3z"/>
				<path d="M179.7,274.9c0.2-0.2,0.4-0.5,0.5-0.6c0,0,0,0,0,0c0.3-0.4,0.5-0.8,0.6-1.1c0.1-0.3,0.2-0.6,0.3-0.9
					c0.1-0.3,0.2-0.5,0.2-0.8c0.1-0.6,0.2-1.2,0.2-1.8c0-0.2,0-0.3,0-0.5c0-0.4-0.1-0.9,0-1.2c0.1,0.6,0.2,1.2,0.2,1.8
					c0,0.6-0.1,1.2-0.2,1.8c-0.1,0.3-0.1,0.5-0.2,0.8c-0.1,0.3-0.2,0.6-0.3,0.9c-0.2,0.4-0.4,0.8-0.6,1.1c-0.1,0.2-0.3,0.5-0.5,0.7
					c-0.1,0.1-0.2,0.2-0.3,0.3c-0.4,0.4-0.8,0.9-1.2,1.2c-0.1,0.1-0.2,0.2-0.3,0.3c-0.2,0.2-0.5,0.3-0.7,0.5
					c-0.4,0.2-0.7,0.4-1.1,0.6c-0.3,0.1-0.6,0.2-0.9,0.3c-0.3,0.1-0.5,0.1-0.8,0.2c-0.6,0.1-1.2,0.2-1.8,0.2h-42.3
					c-0.6,0-1.2-0.1-1.8-0.2c-0.3-0.1-0.5-0.1-0.8-0.2c-0.3-0.1-0.6-0.2-0.9-0.3c-0.1,0-0.1-0.1-0.2-0.1c0.3,0.1,0.6,0.2,0.9,0.3
					c0.3,0.1,0.5,0.1,0.8,0.2c0.6,0.1,1.2,0.2,1.8,0.2h42.3c0.6,0,1.2-0.1,1.8-0.2c0.3-0.1,0.5-0.1,0.8-0.2s0.6-0.2,0.9-0.3
					c0.4-0.2,0.8-0.4,1.1-0.6c0.2-0.1,0.5-0.3,0.7-0.5c0.1-0.1,0.2-0.2,0.3-0.3c0,0,0,0,0.1-0.1c0.2-0.1,0.4-0.3,0.5-0.5
					c0,0,0,0,0,0c0.2-0.2,0.4-0.4,0.6-0.6C179.5,275.1,179.6,275,179.7,274.9C179.7,274.9,179.7,274.9,179.7,274.9z"/>
				<path class="st0" d="M126.5,277.6c0.1,0,0.1,0.1,0.2,0.1C126.6,277.7,126.6,277.7,126.5,277.6
					C126.5,277.6,126.5,277.6,126.5,277.6z"/>
				<path d="M125.4,285.1c0.3,0.3,0.7,0.6,1.1,0.9C126.1,285.7,125.8,285.4,125.4,285.1z"/>
				<path class="st0" d="M126.4,277.6c-0.2-0.1-0.3-0.2-0.4-0.3c0.2,0.1,0.3,0.2,0.5,0.3C126.5,277.6,126.5,277.6,126.4,277.6
					C126.5,277.6,126.4,277.6,126.4,277.6z"/>
				<path d="M143.3,298c-7.9-4.6-15.3-10.1-21.8-16.5c5.1,4.9,10.7,9.3,16.6,13.1c0.3,0.2,0.6,0.4,0.9,0.6c0.6,0.4,1.3,0.8,1.9,1.2
					c0.9,0.6,1.8,1.1,2.7,1.6c0.4,0.2,0.8,0.5,1.2,0.7c1.9,1.1,3.9,2.1,5.9,3.1c1.6,0.8,3.2,1.5,4.9,2.2c0,0,0,0-0.1,0
					c-1.7-0.7-3.4-1.5-5.1-2.3c-2-1-3.9-2-5.9-3.1C144.1,298.5,143.7,298.3,143.3,298z"/>
				<path class="st0" d="M125.9,277.3c0.4,0.2,0.7,0.4,1,0.5C126.5,277.6,126.3,277.4,125.9,277.3z"/>
				<path class="st0" d="M126,277.4c0.1,0.1,0.3,0.2,0.4,0.3c-0.3-0.1-0.5-0.3-0.7-0.4c0,0,0,0,0,0
					C125.8,277.2,125.8,277.3,126,277.4C125.9,277.3,125.9,277.3,126,277.4z"/>
				<path class="st0" d="M125.7,277.2C125.7,277.2,125.6,277.1,125.7,277.2C125.7,277.1,125.7,277.2,125.7,277.2
					C125.7,277.2,125.7,277.2,125.7,277.2z"/>
				<path class="st0" d="M125.7,277.2c-0.2-0.1-0.4-0.3-0.6-0.5c0.1,0.1,0.3,0.2,0.4,0.3C125.5,277.1,125.6,277.1,125.7,277.2
					C125.6,277.1,125.7,277.2,125.7,277.2z"/>
				<path class="st0" d="M124.7,220.5c-0.2,0.2-0.4,0.4-0.6,0.6C124.3,220.9,124.5,220.6,124.7,220.5z"/>
				<path class="st0" d="M124.1,275.8c-0.2-0.2-0.4-0.4-0.6-0.6C123.7,275.4,123.9,275.6,124.1,275.8z"/>
				<path class="st0" d="M123.2,222c-0.2,0.2-0.3,0.5-0.5,0.7C122.8,222.5,123,222.2,123.2,222z"/>
				<path class="st0" d="M122.2,223.8c0.2-0.4,0.4-0.7,0.6-1.1C122.6,223.1,122.4,223.5,122.2,223.8z"/>
				<path class="st0" d="M122.2,223.8c0.2-0.4,0.4-0.8,0.6-1.1C122.6,223.1,122.4,223.4,122.2,223.8z"/>
				<path class="st0" d="M122.1,223.8c0.2-0.4,0.4-0.8,0.6-1.1C122.5,223.1,122.3,223.4,122.1,223.8z"/>
				<path class="st0" d="M121.9,224.7c0,0.3-0.1,0.6-0.2,0.8C121.8,225.2,121.8,225,121.9,224.7z"/>
				<path class="st2" d="M125.9,277.3c0.3,0.2,0.6,0.4,1,0.5C126.6,277.6,126.3,277.4,125.9,277.3z M121.7,225.5
					c0.1-0.2,0.2-0.5,0.2-0.8C121.8,225,121.8,225.2,121.7,225.5z M127.8,278.1c0.3,0.1,0.5,0.1,0.8,0.2
					C128.3,278.2,128.1,278.1,127.8,278.1z M122.8,222.7c-0.2,0.3-0.4,0.7-0.6,1.1C122.4,223.5,122.6,223.1,122.8,222.7z
					 M132.1,218.7c0.3,0.1,0.5,0.1,0.8,0.2C132.7,218.8,132.4,218.7,132.1,218.7z M178.3,276.3C178.2,276.4,178.2,276.4,178.3,276.3
					c-0.2,0.2-0.3,0.3-0.4,0.4c-0.2,0.2-0.5,0.3-0.7,0.5c-0.4,0.2-0.7,0.4-1.1,0.6c-0.3,0.1-0.6,0.2-0.9,0.3s-0.5,0.1-0.8,0.2
					c-0.6,0.1-1.2,0.2-1.8,0.2h-42.3c-0.6,0-1.2-0.1-1.8-0.2c-0.3-0.1-0.5-0.1-0.8-0.2c-0.3-0.1-0.6-0.2-0.9-0.3c0,0-0.1,0-0.1,0
					c-0.1,0-0.1-0.1-0.2-0.1c-0.2-0.1-0.3-0.2-0.5-0.3c0,0-0.1,0-0.1-0.1c-0.1,0-0.1-0.1-0.2-0.1c0,0-0.1-0.1-0.1-0.1
					c0,0-0.1,0-0.1-0.1c-0.1-0.1-0.3-0.2-0.4-0.3c0,0,0,0-0.1,0c-0.1-0.1-0.2-0.2-0.3-0.3c-0.2-0.2-0.4-0.4-0.6-0.6c0,0,0,0,0,0
					c-0.2-0.2-0.4-0.4-0.6-0.6c-0.1-0.1-0.2-0.2-0.3-0.3c-0.2-0.2-0.3-0.5-0.5-0.7c-0.2-0.4-0.4-0.7-0.6-1.1c0,0,0,0,0,0
					c-0.1-0.3-0.2-0.6-0.3-0.9c-0.1-0.3-0.1-0.5-0.2-0.8c-0.1-0.6-0.2-1.2-0.2-1.8v-42.3c0-0.6,0.1-1.2,0.2-1.8
					c0.1-0.3,0.1-0.5,0.2-0.8c0.1-0.3,0.2-0.6,0.3-0.9c0,0,0,0,0,0c0.2-0.4,0.4-0.7,0.6-1.1c0.2-0.2,0.3-0.5,0.5-0.7
					c0.1-0.1,0.2-0.2,0.3-0.3c0,0,0,0,0.1-0.1c0.2-0.2,0.3-0.4,0.5-0.5c0,0,0,0,0,0c0.2-0.2,0.4-0.4,0.6-0.6
					c0.1-0.1,0.2-0.2,0.3-0.3c0,0,0,0,0.1-0.1c0.2-0.2,0.5-0.3,0.6-0.4c0.4-0.2,0.7-0.4,1.1-0.6c0.3-0.1,0.6-0.2,0.9-0.3
					c0.3-0.1,0.5-0.1,0.8-0.2c0.5-0.1,1-0.2,1.4-0.2c0.2,0,0.3,0,0.4,0c0.1,0,0.2,0,0.4,0c0.4,0,0.9,0.1,1.4,0.2
					c0.3,0.1,0.5,0.1,0.8,0.2c0.3,0.1,0.6,0.2,0.9,0.3c0,0,0.1,0,0.1,0c0.2,0.1,0.3,0.2,0.5,0.3c-0.2-0.1-0.4-0.1-0.6-0.2
					c0.4,0.2,0.7,0.4,1.1,0.6c-0.1-0.1-0.3-0.3-0.5-0.4c0.2,0.1,0.3,0.2,0.5,0.3c0.2,0.2,0.5,0.3,0.7,0.5c0.1,0.1,0.2,0.2,0.3,0.3
					c0,0,0,0,0.1,0.1c0.2,0.2,0.4,0.3,0.5,0.5c0,0,0,0,0,0c0.2,0.2,0.4,0.4,0.6,0.6c0.1,0.1,0.2,0.2,0.3,0.3
					c0.2,0.2,0.3,0.5,0.5,0.7c0.2,0.4,0.4,0.7,0.6,1.1c0.1,0.3,0.2,0.6,0.3,0.9c0.1,0.3,0.1,0.5,0.2,0.8c0.1,0.6,0.2,1.2,0.2,1.8v21
					v0.1l0.1-0.1v0.1l108.2-108.2h-0.1h-0.1l0.1-0.1h-21.1c-0.3,0-0.6,0-0.8,0c0,0,0,0,0,0c-0.1,0-0.3,0-0.4-0.1
					c-0.1,0-0.3,0-0.4-0.1c-0.1,0-0.3,0-0.4-0.1c-0.2-0.1-0.4-0.1-0.5-0.1c-0.1,0-0.1,0-0.2-0.1c0,0,0,0-0.1,0
					c-0.1,0-0.3-0.1-0.4-0.1c-0.3-0.1-0.5-0.2-0.7-0.3c-0.5-0.3-0.9-0.5-1.3-0.8c-0.1-0.1-0.3-0.2-0.4-0.3c-0.1-0.1-0.2-0.2-0.3-0.3
					c-0.2-0.2-0.3-0.3-0.4-0.4c-0.9-1-1.5-2.2-1.9-3.4c-0.1-0.3-0.1-0.5-0.2-0.8c0-0.1,0-0.2,0-0.2c0-0.1,0-0.1,0-0.2c0,0,0,0,0,0
					c0-0.1,0-0.2,0-0.3c0,0,0-0.1,0-0.1c0,0,0-0.1,0-0.1c0-0.2,0-0.5,0-0.7c0-0.4,0-0.9,0.1-1.3c0.6-3.6,3.3-6.5,6.9-7.3
					c0.2,0,0.4-0.1,0.6-0.1c0.3,0,0.5-0.1,0.8-0.1c0.1,0,0.3,0,0.4,0h42.3c0.2,0,0.3,0,0.4,0c0.3,0,0.6,0,0.8,0.1
					c0.2,0,0.5,0.1,0.7,0.1c0.2,0,0.4,0.1,0.6,0.2c3.5,1.1,6,4.2,6.2,8c0,0.1,0,0.3,0,0.4v42.3c0,0.1,0,0.1,0,0.2c0,0-0.1,0-0.1,0
					c-0.2,4.5-3.9,8.2-8.4,8.4c-0.1,0-0.2,0-0.4,0c-0.1,0-0.3,0-0.4,0c-0.7,0-1.4-0.2-2.1-0.4c-0.1,0-0.1,0-0.1-0.1
					c-0.2-0.1-0.4-0.1-0.6-0.2c-0.1-0.1-0.3-0.1-0.4-0.2c-1.2-0.6-2.2-1.4-3-2.4c-0.1-0.1-0.2-0.2-0.3-0.3s-0.2-0.2-0.2-0.3
					c-0.1-0.2-0.2-0.3-0.3-0.5c-0.1-0.2-0.2-0.4-0.3-0.7c-0.1-0.2-0.2-0.5-0.3-0.8c-0.3-0.8-0.4-1.6-0.4-2.4c0,0,0-0.1,0-0.1
					c0-0.1,0-0.2,0-0.3v-0.2v-20.8v-0.2l-0.1,0.1v0.2l-0.1,0.1v-0.4L151.5,260.7h0.2l-0.1,0.1h0.1h21c0.6,0,1.2,0.1,1.8,0.2
					c0.1,0.1,0.4,0.1,0.6,0.1c0.1,0,0.1,0,0.2,0.1c0.3,0.1,0.6,0.2,0.9,0.3c0,0,0,0,0,0c0,0,0.1,0,0.1,0c0.2,0.1,0.3,0.2,0.5,0.3
					c0,0,0.1,0.1,0.2,0.1c0,0,0.1,0,0.1,0c0.2,0.2,0.5,0.3,0.7,0.5c0.1,0.1,0.1,0.1,0.2,0.1c0,0,0,0-0.1,0c0.1,0.1,0.2,0.1,0.3,0.2
					c0,0,0,0,0,0c0.5,0.4,0.8,0.8,1.2,1.2c0.1,0.1,0.2,0.2,0.3,0.3c0.2,0.2,0.4,0.5,0.5,0.7c0.2,0.3,0.4,0.7,0.6,1.1
					c0.1,0.3,0.2,0.6,0.3,0.9c0.1,0.3,0.1,0.5,0.2,0.8c0.1,0.4,0.1,0.9,0.2,1.3c0,0.2,0,0.3,0,0.5c0,0.6-0.1,1.2-0.2,1.8
					c-0.1,0.3-0.1,0.5-0.2,0.8c-0.1,0.3-0.2,0.6-0.3,0.9c-0.2,0.4-0.4,0.7-0.6,1.1c0,0,0,0,0,0c-0.2,0.2-0.3,0.5-0.5,0.6
					c0,0,0,0,0,0c-0.1,0.1-0.2,0.2-0.3,0.3c-0.2,0.2-0.4,0.4-0.6,0.6c0,0,0,0,0,0C178.6,276,178.4,276.2,178.3,276.3z"/>
				<path d="M121.4,281.4C121.4,281.4,121.4,281.4,121.4,281.4c1.3,1.2,2.6,2.5,4,3.7c-1.3-1.2-2.6-2.3-3.9-3.6
					C121.5,281.5,121.5,281.5,121.4,281.4C121.4,281.5,121.4,281.4,121.4,281.4z"/>
				<path class="st1" d="M121.4,281.4C121.4,281.4,121.4,281.5,121.4,281.4C121.4,281.5,121.4,281.4,121.4,281.4L121.4,281.4z"/>
				<path d="M176.2,261.5C176.2,261.5,176.2,261.5,176.2,261.5c-0.1,0-0.1-0.1-0.2-0.1c-0.3-0.1-0.6-0.2-0.9-0.3
					c-0.3-0.1-0.5-0.1-0.8-0.2c-0.6-0.1-1.2-0.2-1.8-0.2h-20.8l108-107.8v20.6c0,1.9,0.6,3.6,1.6,5.1c0,0.1,0.1,0.1,0.1,0.2
					c1.5,2.2,4,3.6,6.8,3.7c-0.1,0-0.2,0-0.3,0c0.1,0,0.2,0,0.3,0c0,0,0.1,0,0.1,0c0,0,0.1,0,0.1,0c0.1,0,0.2,0,0.3,0
					c0,0,0.1,0,0.1,0c0.1,0,0.2,0,0.3,0c2.1-0.1,4-0.9,5.5-2.3c0.2-0.1,0.3-0.3,0.5-0.5c0.3-0.4,0.6-0.7,0.9-1.2
					c0.6-0.8,1-1.8,1.2-2.8c0-0.2,0.1-0.4,0.1-0.6c0,0,0-0.1,0-0.1c0-0.1,0-0.3,0-0.4c0,0,0,0,0,0c0-0.1,0-0.3,0-0.4
					c0-0.2,0-0.3,0-0.4v-0.1v-42.2c0-0.1,0-0.1,0-0.2c0-0.1,0-0.2,0-0.3c0,0,0-0.1,0-0.1c-0.2-4.3-3.6-7.9-7.9-8.3c0,0,0,0,0,0
					s0,0,0,0c-0.3,0-0.6,0-0.9,0h-42.3c-4.1,0-7.7,2.9-8.6,6.8c-0.1,0.3-0.1,0.5-0.1,0.8c0,0.3-0.1,0.5-0.1,0.8c0,0.2,0,0.3,0,0.5
					c0,0.1,0,0.2,0,0.3c0,0,0,0.1,0,0.1c0,0.2,0,0.5,0.1,0.7c0.5,4.2,4,7.5,8.3,7.7c0,0,0.1,0,0.1,0c0.1,0,0.3,0,0.4,0h20.9
					l-108,108v-20.9c0-0.6-0.1-1.2-0.2-1.8c-0.1-0.3-0.1-0.5-0.2-0.8c-0.1-0.3-0.2-0.6-0.3-0.9c-0.2-0.4-0.4-0.7-0.6-1.1
					c-0.2-0.2-0.3-0.5-0.5-0.7c-0.1-0.1-0.2-0.2-0.3-0.3c-0.3-0.4-0.8-0.8-1.2-1.2c-0.1-0.1-0.2-0.2-0.3-0.3
					c-0.2-0.2-0.5-0.4-0.7-0.5c-0.3-0.2-0.7-0.4-1.1-0.6c-0.3-0.1-0.6-0.2-0.9-0.3c-0.3-0.1-0.5-0.1-0.8-0.2c-0.5-0.1-1-0.2-1.4-0.2
					c-0.1,0-0.2,0-0.4,0c-0.1,0-0.3,0-0.4,0c-0.5,0-1,0.1-1.4,0.2c-0.3,0.1-0.5,0.1-0.8,0.2c-0.3,0.1-0.6,0.2-0.9,0.3
					c-0.4,0.2-0.8,0.4-1.1,0.6c-0.2,0.1-0.4,0.3-0.6,0.4c0,0,0,0-0.1,0.1c-0.1,0.1-0.2,0.2-0.3,0.3c-0.2,0.1-0.4,0.4-0.6,0.6
					c0,0,0,0,0,0c-0.2,0.2-0.4,0.4-0.5,0.5c0,0,0,0-0.1,0.1c-0.1,0.1-0.2,0.2-0.3,0.3c-0.2,0.2-0.4,0.5-0.5,0.7
					c-0.2,0.3-0.4,0.7-0.6,1.1c0,0,0,0,0,0c-0.1,0.3-0.2,0.6-0.3,0.9c-0.1,0.3-0.1,0.5-0.2,0.8c-0.1,0.6-0.2,1.2-0.2,1.8v42.3
					c0,0.6,0.1,1.2,0.2,1.8c0.1,0.3,0.1,0.5,0.2,0.8c0.1,0.3,0.2,0.6,0.3,0.9c0,0,0,0,0,0c0.2,0.4,0.4,0.8,0.6,1.1
					c0.1,0.2,0.3,0.5,0.5,0.7c0.1,0.1,0.2,0.2,0.3,0.3c0.2,0.2,0.3,0.4,0.6,0.6c0,0,0,0,0,0c0.2,0.2,0.4,0.4,0.6,0.6
					c0.1,0.1,0.2,0.2,0.3,0.3c0,0,0,0,0.1,0c0.2,0.2,0.5,0.4,0.6,0.5c0.2,0.1,0.5,0.3,0.7,0.4c0,0,0.1,0,0.1,0
					c0.1,0,0.1,0.1,0.2,0.1c0,0,0.1,0,0.1,0c0.1,0,0.1,0.1,0.2,0.1c0.3,0.1,0.6,0.2,0.9,0.3c0.3,0.1,0.5,0.1,0.8,0.2
					c0.6,0.1,1.2,0.2,1.8,0.2h42.3c0.6,0,1.2-0.1,1.8-0.2c0.3-0.1,0.5-0.1,0.8-0.2c0.3-0.1,0.6-0.2,0.9-0.3c0.4-0.2,0.7-0.4,1.1-0.6
					c0.2-0.2,0.5-0.3,0.7-0.5c0.1-0.1,0.2-0.2,0.3-0.3c0.4-0.3,0.8-0.8,1.2-1.2c0.1-0.1,0.2-0.2,0.3-0.3c0.2-0.2,0.4-0.5,0.5-0.7
					c0.2-0.3,0.4-0.7,0.6-1.1c0.1-0.3,0.2-0.6,0.3-0.9c0.1-0.3,0.1-0.5,0.2-0.8c0.1-0.6,0.2-1.2,0.2-1.8c0-0.6-0.1-1.2-0.2-1.8
					c-0.1-0.3-0.1-0.5-0.2-0.8c-0.1-0.3-0.2-0.6-0.3-0.9c-0.2-0.4-0.4-0.7-0.6-1.1c-0.2-0.2-0.3-0.5-0.5-0.7
					c-0.1-0.1-0.2-0.2-0.3-0.3c-0.4-0.5-0.8-0.9-1.3-1.3c-0.1-0.1-0.1-0.1-0.2-0.1c0,0-0.1,0-0.1-0.1c0,0,0,0,0,0
					c-0.2-0.2-0.5-0.4-0.7-0.5C177,261.9,176.6,261.7,176.2,261.5C176.3,261.5,176.2,261.5,176.2,261.5z M208.3,312.5
					c-0.2,0-0.4,0-0.6,0.1c0,0,0,0-0.1,0s0,0-0.1,0c0,0,0,0,0,0c-0.2,0-0.5,0-0.7,0.1c-0.3,0-0.6,0-0.9,0.1c-0.3-0.1-0.5-0.1-0.8,0
					c-0.1,0-0.1,0-0.2,0c-0.2,0-0.4,0-0.6,0c-0.6,0-1.2,0.1-1.8,0.1c-1,0-2,0.1-3,0.1c-1.1,0-2.1-0.1-3.1-0.1c-0.2,0-0.4,0-0.6,0
					c-0.3,0-0.7-0.1-1-0.1c0,0-0.1,0-0.1,0c-0.1,0-0.3,0-0.4,0c-0.1,0-0.1,0-0.2,0c0,0,0,0,0,0c-0.1,0-0.3,0-0.4,0
					c-0.8-0.1-1.6-0.2-2.4-0.2c-0.3,0-0.5,0-0.8,0c-0.2,0-0.3,0-0.5-0.1c0,0-0.1,0-0.1,0c-0.3,0-0.6,0-0.9-0.1
					c-0.4,0-0.8-0.1-1.2-0.1c-0.5,0-0.9-0.1-1.4-0.2c-0.1,0-0.3,0-0.4-0.1c-0.3,0-0.6-0.1-0.9-0.1c-0.1,0-0.1,0-0.2,0
					c-1.2-0.2-2.5-0.4-3.7-0.5c-0.3,0-0.5-0.1-0.7-0.1c-0.1,0-0.2,0-0.3,0c-0.2,0-0.3-0.1-0.5-0.1c-0.2,0-0.3-0.1-0.5-0.1
					c-0.2,0-0.4-0.1-0.6-0.1c-0.7-0.1-1.4-0.3-2-0.4c-12.8-2.6-24.8-7.5-35.5-14c-0.6-0.4-1.3-0.8-1.9-1.2c-0.6-0.4-1.3-0.8-1.9-1.2
					c-1.8-1.2-3.6-2.5-5.4-3.8c0,0-0.1-0.1-0.1-0.1c-0.6-0.4-1.1-0.9-1.7-1.3c-0.6-0.4-1.2-0.9-1.7-1.4c-0.6-0.5-1.2-1-1.8-1.5
					c-0.4-0.3-0.7-0.6-1.1-0.9c-1.4-1.2-2.7-2.5-4.1-3.8c0,0,0,0,0,0c-0.3-0.3-0.6-0.6-0.9-0.9c-0.1-0.1-0.3-0.3-0.4-0.4
					c-0.7-0.7-1.3-1.4-2-2c-19.1-20.2-30.9-47.4-30.9-77.5c0-21.4,6-41.3,16.3-58.3c0.5-0.8,1-1.6,1.5-2.3c2.4-3.8,5.1-7.4,7.9-10.8
					c0,0,0,0,0,0c1.2-1.4,2.3-2.7,3.5-4.1c1.2-1.3,2.5-2.6,3.7-3.9c0.6-0.6,1.2-1.2,1.8-1.8c18.3-17.4,42.5-28.7,69.3-30.8
					c0.4,0,0.8-0.1,1.2-0.1c0.5,0,1.1-0.1,1.6-0.1c0.4,0,0.9,0,1.3-0.1c1.4,0,2.9,0,4.4,0c1.4,0,2.8,0,4.3,0c0.2,0,0.5,0,0.7,0
					c0.2,0,0.4,0,0.6,0c27.8,1.4,53,12.9,71.9,30.9c0.6,0.6,1.2,1.2,1.8,1.8c0.6,0.6,1.2,1.2,1.8,1.8c1.2,1.3,2.4,2.6,3.6,4
					c13.6,15.7,22.9,35.1,26.2,56.5c0.9,5.6,1.3,11.3,1.3,17.1c0,1,0,1.9,0,2.9c0,1-0.1,1.9-0.1,2.9c-0.1,2.9-0.4,5.7-0.8,8.6
					c-3,23.4-13.2,44.5-28.2,61.2c0,0.1-0.1,0.1-0.1,0.2c-0.4,0.5-0.8,0.9-1.3,1.4c-0.2,0.3-0.5,0.5-0.7,0.8
					c-0.5,0.6-1.1,1.1-1.6,1.7c-0.5,0.5-1.1,1.1-1.7,1.6c-0.5,0.5-1,0.9-1.5,1.4c-0.1,0.1-0.1,0.2-0.2,0.2c-0.3,0.3-0.6,0.5-0.9,0.8
					c-0.4,0.4-0.8,0.7-1.2,1c0,0,0,0,0,0c-0.9,0.8-1.9,1.6-2.8,2.4c-1,0.8-1.9,1.6-2.9,2.3c-0.5,0.4-1,0.7-1.4,1.1
					c-0.1,0.1-0.2,0.1-0.3,0.2c-0.4,0.3-0.8,0.6-1.2,0.9c-0.4,0.3-0.9,0.6-1.3,0.9c-2.6,1.8-5.3,3.5-8.1,5.1c0,0,0,0,0,0
					c-0.8,0.5-1.6,0.9-2.4,1.4c-0.1,0-0.1,0.1-0.2,0.1c-0.6,0.3-1.2,0.6-1.9,1c0,0,0,0,0,0c-2.7,1.4-5.4,2.7-8.2,3.8c0,0,0,0-0.1,0
					c-0.1,0-0.2,0.1-0.3,0.1c-0.5,0.2-1,0.4-1.4,0.6c-0.1,0-0.1,0-0.1,0.1c-0.6,0.2-1.1,0.4-1.7,0.6c0,0,0,0,0.1,0
					c-0.2,0.1-0.4,0.1-0.6,0.2c0,0-0.1,0-0.1,0c-1.6,0.6-3.2,1.1-4.8,1.7c-0.1,0-0.1,0-0.2,0.1c-0.7,0.2-1.4,0.4-2.1,0.6
					c-0.3,0.1-0.7,0.2-1.1,0.3c-0.1,0-0.3,0.1-0.4,0.1c-0.5,0.2-1.1,0.3-1.6,0.4c-1.1,0.3-2.3,0.6-3.4,0.8c-0.9,0.2-1.8,0.4-2.7,0.6
					c-0.1,0-0.1,0-0.1,0c-0.8,0.2-1.7,0.3-2.5,0.5c-0.2,0-0.4,0.1-0.6,0.1c-0.4,0.1-0.7,0.1-1.1,0.2c-1.4,0.2-2.8,0.4-4.2,0.6
					c-1.1,0.2-2.2,0.3-3.4,0.4c0,0-0.1,0-0.1,0c-0.1,0-0.1,0-0.2,0c-0.2,0-0.4,0-0.6,0c0,0,0,0,0,0c0,0-0.1,0-0.1,0
					c-0.1,0-0.1,0-0.2,0c0,0,0,0,0,0c-0.2,0-0.4,0-0.6,0C208.4,312.5,208.4,312.5,208.3,312.5z M207.1,312.6c0.4,0,0.7,0,1.1-0.1
					c-0.7,0.1-1.4,0.1-2.1,0.1C206.4,312.7,206.8,312.7,207.1,312.6z"/>
				<path d="M121.4,281.4c-0.5-0.5-0.9-0.9-1.4-1.4c0.1,0.1,0.3,0.3,0.4,0.4c0.3,0.3,0.6,0.6,0.9,0.9
					C121.3,281.3,121.3,281.3,121.4,281.4C121.4,281.4,121.4,281.4,121.4,281.4L121.4,281.4z"/>
				<path d="M121.3,281.3c-0.3-0.3-0.6-0.6-0.9-0.9C120.7,280.7,121.1,281,121.3,281.3z"/>
				<path d="M118,278c-19.2-20.1-31-47.4-31-77.6c0-21.4,6-41.3,16.4-58.2c-10.3,17-16.3,36.9-16.3,58.3
					C87.1,230.6,98.9,257.8,118,278z"/>
				<path class="st0" d="M107.6,292.4c-20.7-20.6-34.3-48-37.4-78.6C73.3,244.4,87,271.8,107.6,292.4z"/>
				<path class="st0" d="M69.9,210.5c0.1,1.1,0.2,2.2,0.3,3.3C70.1,212.7,70,211.6,69.9,210.5z"/>
				<path class="st0" d="M69.5,203.9c0,1.1,0.1,2.2,0.1,3.3C69.6,206.1,69.6,205,69.5,203.9z"/>
			</g>
			<g>
				<path class="st3" d="M121.6,281.4c-0.5-0.5-1-1-1.5-1.5"/>
				<path class="st3" d="M156.3,304.3c-0.2-0.1-0.4-0.2-0.6-0.2"/>
				<path class="st3" d="M158.2,305.1c-0.2-0.1-0.4-0.2-0.6-0.2"/>
				<path class="st3" d="M177.3,262.1c-0.1,0-0.1-0.1-0.2-0.1c0,0-0.1,0-0.1,0c-0.3-0.1-0.5-0.3-0.7-0.4v0"/>
				<path class="st3" d="M178.2,262.8c-0.1-0.1-0.2-0.1-0.3-0.2"/>
				<path class="st3" d="M178,276.7c0.1-0.1,0.2-0.2,0.3-0.3"/>
				<path class="st3" d="M176.1,277.7c0.4-0.2,0.8-0.4,1.1-0.6"/>
				<path class="st3" d="M134.9,219.8c-0.4-0.2-0.7-0.4-1.1-0.6"/>
				<path class="st3" d="M135.9,220.5c-0.1-0.1-0.2-0.2-0.3-0.3"/>
				<path class="st3" d="M123.6,275.2c-0.1-0.1-0.2-0.2-0.3-0.3c-0.2-0.2-0.3-0.5-0.5-0.7c-0.2-0.4-0.4-0.7-0.6-1.1
					c-0.1-0.3-0.2-0.6-0.3-0.9c-0.1-0.3-0.1-0.5-0.2-0.8c-0.1-0.6-0.2-1.2-0.2-1.8v-42.3c0-0.6,0.1-1.2,0.2-1.8
					c0.1-0.3,0.1-0.5,0.2-0.8s0.2-0.6,0.3-0.9c0.2-0.4,0.4-0.8,0.6-1.1c0.1-0.2,0.3-0.5,0.5-0.7c0.1-0.1,0.2-0.2,0.3-0.3
					c0.4-0.4,0.8-0.9,1.2-1.2c0.1-0.1,0.2-0.2,0.3-0.3c0.2-0.2,0.5-0.3,0.7-0.5c0.4-0.2,0.7-0.4,1.1-0.6c0.3-0.1,0.6-0.2,0.9-0.3
					c0.3-0.1,0.5-0.1,0.8-0.2c0.4-0.1,0.9-0.2,1.3-0.2c0.2,0,0.3,0,0.4,0c0.1,0,0.2,0,0.4,0c0.5,0,1,0.1,1.4,0.2
					c0.3,0.1,0.5,0.1,0.8,0.2c0.3,0.1,0.6,0.2,0.9,0.3c0.4,0.2,0.8,0.4,1.1,0.6c0.2,0.1,0.5,0.3,0.7,0.5c0.1,0.1,0.2,0.2,0.3,0.3
					c0.4,0.4,0.9,0.8,1.2,1.2c0.1,0.1,0.2,0.2,0.3,0.3c0.2,0.2,0.3,0.5,0.5,0.7c0.2,0.4,0.4,0.7,0.6,1.1c0.1,0.3,0.2,0.6,0.3,0.9
					c0.1,0.3,0.1,0.5,0.2,0.8c0.1,0.6,0.2,1.2,0.2,1.8v20.9v0.1v0.1l108.2-108.2h-0.1h-0.1h-20.9c-0.1,0-0.3,0-0.4,0
					c-2.2-0.1-4.2-1-5.7-2.4c-0.1-0.1-0.2-0.2-0.3-0.3c0,0,0,0,0,0c0,0,0,0-0.1-0.1c-0.1-0.1-0.3-0.3-0.4-0.4
					c-0.1-0.1-0.2-0.2-0.3-0.4c0,0-0.1-0.1-0.1-0.1c-0.1-0.1-0.2-0.2-0.3-0.4c0-0.1-0.1-0.1-0.1-0.1c-0.1-0.1-0.2-0.3-0.3-0.4
					c0-0.1-0.1-0.1-0.1-0.2c0,0-0.1-0.1-0.1-0.1c-0.1-0.2-0.2-0.3-0.2-0.5c0-0.1-0.1-0.1-0.1-0.2c0-0.1-0.1-0.1-0.1-0.2
					c-0.1-0.1-0.1-0.2-0.1-0.3c0-0.1,0-0.1-0.1-0.2c0-0.1,0-0.2-0.1-0.2c0-0.1-0.1-0.1-0.1-0.2c0,0,0-0.1,0-0.2c0,0,0,0,0-0.1
					c0-0.1,0-0.2-0.1-0.3c0,0,0-0.1,0-0.1c0-0.1,0-0.2,0-0.2c0-0.1,0-0.1,0-0.2c0,0,0,0,0,0c0,0,0,0,0,0c0,0,0,0,0-0.1
					c0-0.1,0-0.1,0-0.2c0,0,0-0.1,0-0.1c0,0,0-0.1,0-0.1c0-0.1,0-0.2,0-0.3c0-0.1,0-0.3,0-0.4c0-0.2,0-0.3,0-0.5
					c0.1-2,0.9-3.9,2.1-5.3c0.1-0.1,0.2-0.2,0.3-0.3c0.1-0.1,0.2-0.2,0.3-0.3c0.1-0.1,0.1-0.1,0.2-0.2c0.1-0.1,0.2-0.2,0.3-0.2
					c0,0,0,0,0.1,0c1.1-0.9,2.4-1.5,3.8-1.8c0.2,0,0.4-0.1,0.6-0.1c0.3,0,0.5-0.1,0.8-0.1c0.1,0,0.3,0,0.4,0h42.3c0.2,0,0.3,0,0.4,0
					c0,0,0.1,0,0.1,0c1,0,1.9,0.2,2.8,0.6c0,0,0.1,0,0.1,0c0,0,0,0,0,0c0.1,0,0.2,0.1,0.2,0.1c0,0,0,0,0,0c0.1,0.1,0.3,0.1,0.4,0.2
					c0.6,0.3,1.1,0.6,1.5,1c0,0,0,0,0.1,0c0.2,0.1,0.3,0.3,0.4,0.4c0,0,0,0,0,0c0.1,0.1,0.2,0.2,0.3,0.3c0.1,0.1,0.2,0.2,0.3,0.3
					c1,1.2,1.8,2.8,2,4.4c0,0.1,0,0.1,0,0.2c0,0.3,0.1,0.7,0.1,1c0,0.1,0,0.1,0,0.2v42.2v0.1c0,0.3,0,0.6,0,0.8c0,0,0,0,0,0
					c0,0.1,0,0.3,0,0.4c0,0,0,0.1,0,0.1c0,0.2-0.1,0.4-0.1,0.6c-0.2,1-0.6,2-1.2,2.8c-0.3,0.4-0.6,0.8-0.9,1.2
					c-0.2,0.2-0.3,0.4-0.5,0.5c-1.5,1.4-3.4,2.2-5.5,2.3c-0.1,0-0.2,0-0.3,0c0,0-0.1,0-0.1,0c-0.1,0-0.2,0-0.3,0c0,0-0.1,0-0.1,0
					c0,0-0.1,0-0.1,0c-0.1,0-0.2,0-0.3,0c0,0-0.1,0-0.1,0c0,0-0.1,0-0.1,0c0,0-0.1,0-0.2,0c-0.1,0-0.3,0-0.4-0.1
					c-0.4-0.1-0.8-0.2-1.1-0.3c-0.1,0-0.1,0-0.1-0.1c-3.4-1.2-5.8-4.5-5.8-8.3v-21"/>
				<path class="st3" d="M151.7,260.8h21c0.6,0,1.2,0.1,1.8,0.2c0.2,0.1,0.4,0.1,0.6,0.1c0.1,0,0.1,0,0.2,0.1
					c0.3,0.1,0.6,0.2,0.9,0.3c0,0,0,0,0,0c0,0,0.1,0,0.1,0c0.4,0.2,0.7,0.4,1,0.6c0.2,0.1,0.5,0.3,0.7,0.5c0,0,0,0,0,0
					c0,0,0.1,0,0.1,0.1c0.1,0,0.1,0.1,0.2,0.1c0.5,0.4,0.9,0.8,1.3,1.3c0.1,0.1,0.2,0.2,0.3,0.3c0.2,0.2,0.3,0.5,0.5,0.7
					c0.2,0.4,0.4,0.7,0.6,1.1c0.1,0.3,0.2,0.6,0.3,0.9c0.1,0.3,0.1,0.5,0.2,0.8c0.1,0.6,0.2,1.2,0.2,1.8c0,0.6-0.1,1.2-0.2,1.8
					c-0.1,0.3-0.1,0.5-0.2,0.8c-0.1,0.3-0.2,0.6-0.3,0.9c-0.2,0.4-0.4,0.8-0.6,1.1c-0.1,0.2-0.3,0.5-0.5,0.7
					c-0.1,0.1-0.2,0.2-0.3,0.3c-0.4,0.4-0.8,0.9-1.2,1.2c-0.1,0.1-0.2,0.2-0.3,0.3c-0.2,0.2-0.5,0.3-0.7,0.5
					c-0.4,0.2-0.7,0.4-1.1,0.6c-0.3,0.1-0.6,0.2-0.9,0.3c-0.3,0.1-0.5,0.1-0.8,0.2c-0.6,0.1-1.2,0.2-1.8,0.2h-42.3
					c-0.6,0-1.2-0.1-1.8-0.2c-0.3-0.1-0.5-0.1-0.8-0.2c-0.3-0.1-0.6-0.2-0.9-0.3c-0.1,0-0.1-0.1-0.2-0.1c0,0-0.1,0-0.1,0
					c-0.1,0-0.1-0.1-0.2-0.1c0,0,0,0,0,0c0,0-0.1,0-0.1,0c-0.2-0.1-0.3-0.2-0.4-0.3c0,0-0.1,0-0.1-0.1c-0.1,0-0.1-0.1-0.2-0.1
					c0,0-0.1-0.1-0.1-0.1c0,0-0.1,0-0.1-0.1c-0.1-0.1-0.2-0.2-0.3-0.2c-0.1-0.1-0.2-0.2-0.3-0.3"/>
				<path class="st3" d="M291.4,108.6c-20.6-20.7-48-34.3-78.6-37.4c-1.1-0.1-2.2-0.2-3.3-0.3c-1.1-0.1-2.2-0.2-3.3-0.2
					c-1.1-0.1-2.2-0.1-3.3-0.1c-1.1,0-2.2,0-3.4,0c-35.9,0-68.4,14.6-91.9,38.1c-20.7,20.6-34.3,48-37.4,78.6
					c-0.1,1.1-0.2,2.2-0.3,3.3c-0.1,1.1-0.2,2.2-0.2,3.3c-0.1,1.1-0.1,2.2-0.1,3.3c0,1.1,0,2.2,0,3.4s0,2.2,0,3.4
					c0,1.1,0.1,2.2,0.1,3.3c0.1,1.1,0.1,2.2,0.2,3.3c0.1,1.1,0.2,2.2,0.3,3.3c3.1,30.6,16.9,58.1,37.4,78.6
					c20.6,20.6,48,34.3,78.6,37.4c1.1,0.1,2.2,0.2,3.3,0.3c1.1,0.1,2.2,0.2,3.3,0.2c1.1,0.1,2.2,0.1,3.3,0.1c1.1,0,2.2,0,3.4,0
					s2.2,0,3.4,0c1.1,0,2.2-0.1,3.3-0.1c1.1-0.1,2.2-0.1,3.3-0.2c1.1-0.1,2.2-0.2,3.3-0.3c30.6-3.1,58.1-16.9,78.6-37.4
					c20.6-20.6,34.3-48,37.4-78.6c0.1-1.1,0.2-2.2,0.3-3.3c0.1-1.1,0.2-2.2,0.2-3.3c0.1-1.1,0.1-2.2,0.1-3.3c0-1.1,0-2.2,0-3.4
					s0-2.2,0-3.4c0-1.1-0.1-2.2-0.1-3.3c-0.1-1.1-0.1-2.2-0.2-3.3c-0.1-1.1-0.2-2.2-0.3-3.3C325.7,156.6,312,129.2,291.4,108.6z"/>
				<path class="st3" d="M311.9,203.4c0-1,0-1.9,0-2.9c0-4.8-0.3-9.6-0.9-14.3c-3-23.4-13.2-44.6-28.3-61.3c0,0,0,0,0,0
					c-0.6-0.7-1.2-1.3-1.8-2s-1.3-1.3-1.9-1.9c0,0,0,0,0-0.1c-0.6-0.6-1.2-1.2-1.8-1.7c-18.3-17.5-42.4-28.8-69.2-30.8
					c-0.9-0.1-1.8-0.1-2.7-0.2c0,0-0.1,0-0.1,0c-0.2,0-0.4,0-0.6,0c-0.2,0-0.5,0-0.7,0c-1.4,0-2.9,0-4.3,0c-1.4,0-2.9,0-4.4,0
					c0,0-0.1,0-0.1,0c-0.4,0-0.8,0-1.2,0.1c0,0-0.1,0-0.1,0c-0.5,0-1,0.1-1.5,0.1c-0.4,0-0.8,0-1.2,0.1c-26.8,2-51,13.4-69.3,30.8
					c-0.6,0.6-1.2,1.2-1.8,1.8c-1.3,1.3-2.5,2.6-3.7,3.9c-1.2,1.3-2.4,2.7-3.5,4.1c0,0,0,0,0,0c-2.8,3.4-5.5,7.1-7.9,10.8
					c-0.5,0.8-1,1.6-1.5,2.3c-10.3,17-16.3,36.9-16.3,58.3c0,30.1,11.8,57.3,30.9,77.5c0.7,0.7,1.3,1.4,2,2c0.5,0.5,0.9,0.9,1.4,1.4
					c0,0,0,0.1,0.1,0.1c0,0,0,0,0,0c1.3,1.2,2.6,2.4,3.9,3.6c0.4,0.3,0.7,0.6,1.1,0.9c0.6,0.5,1.2,1,1.8,1.5
					c0.6,0.5,1.1,0.9,1.7,1.4c0.5,0.4,1.1,0.9,1.7,1.3c0,0,0.1,0,0.1,0.1c1.8,1.3,3.6,2.6,5.4,3.8c0.6,0.4,1.3,0.8,1.9,1.2
					c0.6,0.4,1.3,0.8,1.9,1.2c1.3,0.8,2.7,1.6,4,2.4c0.7,0.4,1.3,0.7,2,1.1c1.9,1,3.9,2,5.9,2.9c0,0,0,0,0.1,0
					c1.1,0.5,2.2,1,3.3,1.4c0.4,0.2,0.8,0.4,1.3,0.5c0.5,0.2,1.1,0.4,1.6,0.6c0.1,0,0.1,0,0.1,0c0,0,0.1,0,0.1,0
					c0.1,0.1,0.3,0.1,0.4,0.2c0.4,0.1,0.8,0.3,1.2,0.4c0.1,0,0.2,0.1,0.2,0.1c0.1,0,0.2,0.1,0.3,0.1c0.3,0.1,0.5,0.2,0.8,0.3
					c3.2,1.1,6.4,2.1,9.8,2.9c0.2,0,0.3,0.1,0.5,0.1c2.3,0.6,4.7,1.1,7,1.5c0.1,0,0.2,0,0.3,0c0.1,0,0.3,0,0.4,0.1
					c0.2,0,0.3,0,0.5,0.1c0.1,0,0.2,0,0.3,0.1c0.2,0,0.4,0.1,0.7,0.1c0.9,0.1,1.9,0.3,2.8,0.4c0.6,0.1,1.3,0.2,1.9,0.2
					c0.1,0,0.1,0,0.1,0c0,0,0.1,0,0.1,0c0.4,0.1,0.8,0.1,1.2,0.2c0.9,0.1,1.9,0.2,2.8,0.3c1,0.1,1.9,0.1,2.9,0.2c0.2,0,0.4,0,0.6,0
					c0.6,0,1.2,0.1,1.8,0.1c1.1,0,2.2,0.1,3.4,0.1c1.1,0,2.2,0,3.3-0.1c0.4,0,0.7,0,1.1,0c0.5,0,0.9,0,1.4-0.1c0.3,0,0.6,0,0.9,0
					c0.7,0,1.4-0.1,2.1-0.1c0.5,0,1-0.1,1.5-0.1c0.9-0.1,1.9-0.2,2.8-0.3c25.9-3,49.1-14.7,66.5-32.2c8.8-8.8,16-18.9,21.5-30.2
					c5.5-11.2,9.2-23.5,10.7-36.4c0.1-0.5,0.1-0.9,0.2-1.4c0.1-0.9,0.2-1.9,0.3-2.8c0.1-1,0.1-1.9,0.2-2.9c0,0,0-0.1,0-0.1
					c0-0.4-0.1-0.8-0.1-1.1c0,0,0,0,0,0c0-0.4,0-0.8,0-1.1C311.9,203.9,311.9,203.6,311.9,203.4z"/>
			</g>
		</g>
	</g>
</g>
</svg>
