<?xml version="1.0" encoding="utf-8"?>
<!-- Generator: Adobe Illustrator 23.0.1, SVG Export Plug-In . SVG Version: 6.00 Build 0)  -->
<svg version="1.1"
	 id="svg2989" inkscape:version="0.48.0 r9654" sodipodi:docname="400x400px-kilogram_weight.png" xmlns:cc="http://creativecommons.org/ns#" xmlns:dc="http://purl.org/dc/elements/1.1/" xmlns:inkscape="http://www.inkscape.org/namespaces/inkscape" xmlns:rdf="http://www.w3.org/1999/02/22-rdf-syntax-ns#" xmlns:sodipodi="http://sodipodi.sourceforge.net/DTD/sodipodi-0.dtd" xmlns:svg="http://www.w3.org/2000/svg"
	 xmlns="http://www.w3.org/2000/svg" xmlns:xlink="http://www.w3.org/1999/xlink" x="0px" y="0px" viewBox="0 0 400 400"
	 style="enable-background:new 0 0 400 400;" xml:space="preserve">
<style type="text/css">
	.st0{fill:#FF7B07;}
	.st1{fill:#F61313;}
	.st2{fill:none;stroke:#000000;stroke-miterlimit:10;}
</style>
<g id="XMLID_1_">
	<g>
		<g id="XMLID_2_">
			<g>
				<path class="st0" d="M199.5,4c54.3,0,103.4,22,138.9,57.6C374,97.1,396,146.2,396,200.5s-22,103.4-57.6,138.9
					C302.9,375,253.8,397,199.5,397S96.1,375,60.6,339.4C25,303.9,3,254.8,3,200.5S25,97.1,60.6,61.6C96.1,26,145.2,4,199.5,4z
					 M133.3,357C133.3,357,133.4,357,133.3,357c1.3,0.6,2.6,1.1,3.8,1.6c0.8,0.3,1.7,0.7,2.5,1c0.5,0.2,1,0.4,1.5,0.5
					c6.5,2.4,13.2,4.4,20.1,6c1.3,0.3,2.7,0.6,4,0.9c0,0,0.1,0,0.1,0c1.3,0.3,2.5,0.5,3.8,0.7c0.3,0.1,0.6,0.1,0.9,0.2
					c0.5,0.1,1.1,0.2,1.6,0.3c2.1,0.4,4.2,0.7,6.3,0.9c2.1,0.3,4.2,0.5,6.3,0.7c0.2,0,0.3,0,0.5,0c1.1,0.1,2.2,0.2,3.3,0.3
					c0.5,0,1,0.1,1.5,0.1c0.4,0,0.9,0.1,1.3,0.1c0.3,0,0.6,0,0.9,0c0.9,0,1.8,0.1,2.8,0.1c1.7,0,3.4,0.1,5.1,0.1c1.7,0,3.3,0,5-0.1
					c0.5,0,1.1,0,1.6,0c0.7,0,1.4-0.1,2.1-0.1c0.4,0,0.9,0,1.3-0.1c1.1-0.1,2.1-0.1,3.1-0.2c0.7,0,1.5-0.1,2.2-0.2
					c1.4-0.1,2.8-0.3,4.2-0.4c39.1-4.5,74.2-22.2,100.5-48.6c0,0,0,0,0.1,0c26.5-26.4,44.2-61.5,48.7-100.6c0.1-0.7,0.2-1.4,0.2-2.1
					c0.2-1.4,0.3-2.9,0.4-4.3c0.1-1.4,0.2-2.9,0.3-4.3c0.1-1.5,0.1-2.9,0.2-4.4c0-1.5,0.1-2.9,0.1-4.4c0-46.9-19.1-89.4-49.8-120.1
					c-28.8-28.8-68-47.3-111.5-49.5c-2.9-0.1-5.7-0.2-8.6-0.2c-2.9,0-5.9,0.1-8.7,0.2c-43.5,2.2-82.7,20.7-111.5,49.5
					c-30.7,30.7-49.7,73.2-49.7,120.1s19,89.4,49.7,120.1c10.6,10.6,22.6,19.8,35.6,27.3c0.6,0.3,1.2,0.7,1.8,1
					c2.9,1.6,5.9,3.2,8.9,4.6C128.1,354.8,130.7,355.9,133.3,357z"/>
				<path d="M369.3,204.9c0,1.5-0.1,2.9-0.2,4.4C369.3,207.8,369.3,206.3,369.3,204.9z"/>
				<path d="M369.2,209.2c-0.1,1.4-0.2,2.9-0.3,4.3C369,212.1,369.1,210.7,369.2,209.2z"/>
				<path d="M368.9,213.6c-0.1,1.4-0.2,2.9-0.4,4.3C368.7,216.4,368.8,215,368.9,213.6z"/>
				<path d="M369.3,200.5c0,46.9-19,89.4-49.8,120.1C309,331.2,297,340.4,284,347.9c-0.6,0.3-1.2,0.7-1.8,1
					c-2.9,1.6-5.9,3.2-8.9,4.6c-2.6,1.2-5.1,2.4-7.8,3.5c-1.2,0.5-2.5,1-3.7,1.5c-0.8,0.3-1.7,0.7-2.5,1c-0.5,0.2-1,0.4-1.5,0.5
					c-6.5,2.4-13.2,4.4-20.1,6c-1.3,0.3-2.7,0.6-4,0.9c0,0-0.1,0-0.1,0c-1.3,0.3-2.5,0.5-3.8,0.7c-0.3,0.1-0.6,0.1-0.9,0.2
					c-0.5,0.1-1.1,0.2-1.6,0.3c-2.1,0.4-4.2,0.7-6.3,0.9c-2.1,0.3-4.2,0.5-6.3,0.7c-0.2,0-0.3,0-0.5,0c-1.1,0.1-2.2,0.2-3.3,0.3
					c-0.5,0-1,0.1-1.5,0.1c-0.4,0-0.9,0.1-1.3,0.1c-0.3,0-0.6,0-0.9,0c-0.9,0-1.8,0.1-2.8,0.1c-1.6,0.1-3.3,0.1-5,0.1
					c-1.7,0-3.4,0-5.1-0.1c-0.9,0-1.8-0.1-2.8-0.1c-0.3,0-0.6,0-0.9,0c-1.4-0.1-2.9-0.2-4.3-0.3c-1.4-0.1-2.9-0.2-4.3-0.4
					c-0.7-0.1-1.4-0.1-2.1-0.2c-39.1-4.5-74.2-22.3-100.6-48.7c-30.7-30.7-49.7-73.2-49.7-120.1s19-89.4,49.7-120.1
					c28.8-28.8,67.9-47.3,111.4-49.5c2.9-0.1,5.8-0.2,8.7-0.2c2.9,0,5.8,0.1,8.6,0.2c43.4,2.2,82.6,20.7,111.4,49.5
					C350.3,111.1,369.3,153.6,369.3,200.5z M317.4,159.9v-64c0-0.2,0-0.4,0-0.6c-0.3-7-6.2-12.7-13.4-12.7h-64
					c-7.1,0-13,5.6-13.3,12.7c0,0.2,0,0.5,0,0.7c0,0.2,0,0.4,0,0.6c0.3,6.8,5.8,12.4,12.7,12.7c0.2,0,0.4,0,0.6,0h31.8L108.3,272.8
					V241c0-0.9-0.1-1.8-0.3-2.7c-0.1-0.4-0.2-0.8-0.3-1.2c-0.1-0.4-0.3-0.9-0.5-1.3c-0.3-0.6-0.5-1.2-0.9-1.7
					c-0.2-0.4-0.4-0.7-0.7-1.1c-0.1-0.2-0.3-0.3-0.4-0.5c-0.5-0.7-1.2-1.3-1.8-1.8c-0.2-0.1-0.3-0.3-0.5-0.4
					c-0.3-0.3-0.7-0.5-1.1-0.7c-0.5-0.3-1.1-0.6-1.7-0.9c-0.4-0.2-0.9-0.3-1.3-0.5c-0.4-0.1-0.8-0.2-1.2-0.3
					c-0.9-0.2-1.8-0.3-2.7-0.3s-1.8,0.1-2.7,0.3c-0.4,0.1-0.8,0.2-1.2,0.3c-0.5,0.1-0.9,0.3-1.3,0.5c-0.6,0.3-1.2,0.5-1.7,0.9
					c-0.4,0.2-0.7,0.5-1.1,0.7c-0.2,0.1-0.3,0.3-0.5,0.4c-0.7,0.6-1.3,1.2-1.8,1.8c-0.1,0.2-0.3,0.3-0.4,0.5
					c-0.3,0.3-0.5,0.7-0.7,1.1c-0.3,0.6-0.6,1.1-0.9,1.7c-0.2,0.4-0.3,0.9-0.5,1.3c-0.1,0.4-0.2,0.8-0.3,1.2
					c-0.2,0.9-0.3,1.8-0.3,2.7v64c0,0.9,0.1,1.8,0.3,2.7c0.1,0.4,0.2,0.8,0.3,1.2c0.1,0.4,0.3,0.9,0.5,1.3c0.3,0.6,0.5,1.2,0.9,1.7
					c0.2,0.4,0.4,0.7,0.7,1.1c0.1,0.2,0.3,0.3,0.4,0.5c0.5,0.7,1.2,1.3,1.8,1.8c0.2,0.1,0.3,0.3,0.5,0.4c0.3,0.3,0.7,0.5,1.1,0.7
					c0.5,0.3,1.1,0.6,1.7,0.9c0.4,0.2,0.9,0.3,1.3,0.5c0.4,0.1,0.8,0.2,1.2,0.3c0.9,0.2,1.8,0.3,2.7,0.3h64c0.9,0,1.8-0.1,2.7-0.3
					c0.4-0.1,0.8-0.2,1.2-0.3c0.4-0.1,0.9-0.3,1.3-0.5c0.6-0.3,1.2-0.5,1.7-0.9c0.4-0.2,0.7-0.5,1.1-0.7c0.2-0.1,0.3-0.3,0.5-0.4
					c0.7-0.5,1.3-1.2,1.8-1.8c0.1-0.2,0.3-0.3,0.4-0.5c0.3-0.3,0.5-0.7,0.7-1.1c0.3-0.6,0.6-1.1,0.9-1.7c0.2-0.4,0.3-0.9,0.5-1.3
					c0.1-0.4,0.2-0.8,0.3-1.2c0.2-0.9,0.3-1.8,0.3-2.7s-0.1-1.8-0.3-2.7c-0.1-0.4-0.2-0.8-0.3-1.2c-0.1-0.4-0.3-0.9-0.5-1.3
					c-0.3-0.6-0.5-1.2-0.9-1.7c-0.2-0.4-0.5-0.7-0.7-1.1c-0.1-0.2-0.3-0.3-0.4-0.5c-0.6-0.7-1.2-1.3-1.8-1.8
					c-0.2-0.1-0.3-0.3-0.5-0.4c-0.3-0.3-0.7-0.5-1.1-0.7c-0.6-0.3-1.1-0.6-1.7-0.9c-0.4-0.2-0.9-0.3-1.3-0.5
					c-0.4-0.1-0.8-0.2-1.2-0.3c-0.9-0.2-1.8-0.3-2.7-0.3h-31.8l163.5-163.5V160c0,7.1,5.6,13,12.7,13.3c0.2,0,0.4,0,0.6,0
					c0.2,0,0.5,0,0.7,0c6.8-0.3,12.4-5.9,12.7-12.7C317.4,160.4,317.4,160.1,317.4,159.9z"/>
				<path d="M368.3,220c-4.5,39.1-22.2,74.2-48.7,100.6C346,294.2,363.8,259.1,368.3,220z"/>
				<path class="st1" d="M317.3,96c0-7.1-5.5-12.9-12.6-13.3c6.8,0.3,12.3,5.7,12.7,12.6c0,0.2,0,0.4,0,0.6v64c0,0.2,0,0.5,0,0.7
					c-0.2,3.2-1.5,6.2-3.6,8.4c2.2-2.4,3.5-5.5,3.5-9V96z"/>
				<path d="M290.8,160.6c0.3,6.9,5.8,12.4,12.6,12.7c-7.1-0.3-12.7-6.2-12.7-13.3v-31.8l0.1-0.1v31.8
					C290.8,160.1,290.8,160.4,290.8,160.6z"/>
				<path d="M282.2,348.9c-2.9,1.6-5.9,3.2-8.9,4.6C276.3,352.1,279.3,350.5,282.2,348.9z"/>
				<polygon class="st1" points="271.9,109.3 108.3,272.9 108.3,272.8 271.8,109.3 				"/>
				<path class="st1" d="M319.5,320.6c-26.4,26.4-61.4,44.2-100.5,48.6c0.7-0.1,1.4-0.2,2-0.3c2.1-0.3,4.2-0.6,6.3-0.9
					c0.5-0.1,1.1-0.2,1.6-0.3c0.3,0,0.6-0.1,0.9-0.2c1.3-0.2,2.5-0.5,3.8-0.7c0,0,0.1,0,0.1,0c1.4-0.3,2.7-0.6,4-0.9
					c6.9-1.6,13.5-3.6,20.1-6c0.5-0.2,1-0.4,1.5-0.5c0.8-0.3,1.7-0.6,2.5-1c1.3-0.5,2.5-1,3.7-1.5c2.6-1.1,5.2-2.3,7.8-3.5
					c3-1.5,6-3,8.9-4.6c0.6-0.3,1.2-0.7,1.8-1C297,340.4,309,331.2,319.5,320.6z"/>
				<path d="M319.5,80.4c-28.8-28.8-67.9-47.3-111.4-49.5c43.5,2.2,82.7,20.7,111.5,49.5c30.7,30.7,49.8,73.2,49.8,120.1
					c0,1.5,0,2.9-0.1,4.4c0,1.5-0.1,2.9-0.2,4.4c-0.1,1.4-0.2,2.9-0.3,4.3c-0.1,1.4-0.2,2.9-0.4,4.3c-0.1,0.7-0.1,1.4-0.2,2.1
					c-4.5,39.1-22.3,74.2-48.7,100.6c0,0,0,0-0.1,0C309,331.2,297,340.4,284,347.9c13-7.5,25-16.7,35.5-27.3
					c30.8-30.7,49.8-73.2,49.8-120.1S350.3,111.1,319.5,80.4z"/>
				<path d="M265.5,357c-1.2,0.5-2.5,1-3.7,1.5C263,358.1,264.3,357.6,265.5,357z"/>
				<path d="M257.8,360.1c0.5-0.2,1-0.4,1.5-0.5C258.8,359.7,258.3,359.9,257.8,360.1z"/>
				<path d="M237.8,366c-1.3,0.3-2.7,0.6-4,0.9C235.1,366.6,236.4,366.4,237.8,366z"/>
				<path d="M233.6,367c-1.3,0.3-2.5,0.5-3.8,0.7C231.1,367.5,232.4,367.2,233.6,367z"/>
				<path d="M231,105.7c2.2,2.1,5.2,3.4,8.4,3.5c-6.9-0.3-12.4-5.8-12.7-12.7c0.2,3.2,1.5,6.2,3.6,8.4
					C230.5,105.2,230.8,105.5,231,105.7z"/>
				<path class="st1" d="M226.7,95.3c0.3-7.1,6.2-12.7,13.3-12.7h64c7.2,0,13.1,5.7,13.4,12.7c-0.4-6.9-5.9-12.3-12.7-12.6
					c-0.2,0-0.5,0-0.7,0h-64c-0.2,0-0.4,0-0.6,0C232.6,83,227.1,88.4,226.7,95.3z"/>
				<path d="M227.4,368.1c0.5-0.1,1.1-0.2,1.6-0.3C228.4,367.9,227.9,368,227.4,368.1z"/>
				<path class="st1" d="M226.7,95.3c0.4-6.9,5.9-12.3,12.7-12.6c-7.1,0.4-12.6,6.2-12.6,13.3c0,3.5,1.3,6.6,3.5,9
					c-2.1-2.2-3.4-5.2-3.6-8.4c0-0.2,0-0.4,0-0.6C226.7,95.8,226.7,95.5,226.7,95.3z"/>
				<path d="M221,369c-0.7,0.1-1.4,0.2-2,0.3c-1.4,0.2-2.8,0.3-4.2,0.4C216.9,369.5,219,369.3,221,369z"/>
				<path class="st1" d="M214.3,369.8c0.2,0,0.3,0,0.5,0c-0.7,0.1-1.5,0.1-2.2,0.2C213.1,369.9,213.7,369.8,214.3,369.8z"/>
				<path d="M214.3,369.8c-0.6,0-1.1,0.1-1.7,0.1c-0.5,0-1.1,0.1-1.6,0.1C212.1,369.9,213.2,369.9,214.3,369.8z"/>
				<path class="st1" d="M211,370c0.5,0,1.1-0.1,1.6-0.1c-1,0.1-2.1,0.1-3.1,0.2C209.9,370.1,210.5,370,211,370z"/>
				<path d="M208.1,370.2c0.4,0,0.9,0,1.3-0.1C209,370.1,208.6,370.2,208.1,370.2z"/>
				<path class="st1" d="M208.1,370.2c-0.7,0-1.4,0.1-2.1,0.1c0.4,0,0.8,0,1.2-0.1C207.5,370.2,207.8,370.2,208.1,370.2z"/>
				<path d="M191.7,370.2c0.9,0,1.8,0.1,2.8,0.1C193.5,370.3,192.6,370.3,191.7,370.2z"/>
				<path d="M190.8,370.2c-0.4,0-0.9,0-1.3-0.1c-0.5,0-1-0.1-1.5-0.1c-0.5,0-1-0.1-1.5-0.1C187.9,370,189.3,370.1,190.8,370.2z"/>
				<path d="M186.4,369.9c-0.6,0-1.2-0.1-1.8-0.1c-0.2,0-0.3,0-0.5,0c-0.7-0.1-1.3-0.1-2-0.2C183.6,369.7,185,369.8,186.4,369.9z"/>
				<path class="st1" d="M171.7,308.9c0.1-0.4,0.2-0.8,0.3-1.2C171.9,308.1,171.9,308.5,171.7,308.9z"/>
				<path class="st1" d="M170.4,311.9c0.3-0.6,0.6-1.1,0.9-1.7C171,310.8,170.7,311.3,170.4,311.9z"/>
				<path class="st1" d="M169.3,313.4c0.1-0.2,0.3-0.3,0.4-0.5C169.6,313.1,169.4,313.3,169.3,313.4z"/>
				<path class="st1" d="M167.4,294.7c-0.2-0.1-0.3-0.3-0.5-0.4C167.1,294.5,167.3,294.6,167.4,294.7z"/>
				<path class="st1" d="M165.9,293.6c-0.6-0.3-1.1-0.6-1.7-0.9C164.8,293,165.3,293.3,165.9,293.6z"/>
				<path class="st1" d="M162.9,292.3c-0.4-0.1-0.8-0.2-1.2-0.3C162.1,292,162.5,292.1,162.9,292.3z"/>
				<path d="M79.4,320.6c26.4,26.4,61.5,44.2,100.6,48.7c-0.7-0.1-1.4-0.2-2.1-0.3c-2.1-0.3-4.2-0.6-6.3-0.9
					c-0.5-0.1-1.1-0.2-1.6-0.3c-0.3-0.1-0.6-0.1-0.9-0.2c-1.3-0.2-2.5-0.5-3.8-0.7c0,0-0.1,0-0.1,0c-1.3-0.3-2.7-0.6-4-0.9
					c-6.9-1.6-13.5-3.6-20.1-6c-0.5-0.2-1-0.4-1.5-0.5c-0.8-0.3-1.7-0.6-2.5-1c-1.3-0.5-2.5-1-3.7-1.5c0,0-0.1,0-0.1,0
					c-2.6-1.1-5.2-2.3-7.7-3.5c-3-1.5-6-3-8.9-4.6c-0.6-0.3-1.2-0.7-1.8-1C101.9,340.4,89.9,331.2,79.4,320.6z"/>
				<path class="st0" d="M108.3,241v31.8v0.1l163.6-163.6h-0.1l0.1-0.1H240c-3.5,0-6.6-1.3-9-3.5c-0.3-0.3-0.5-0.5-0.8-0.8
					c-2.2-2.4-3.5-5.5-3.5-9c0-7.1,5.5-12.9,12.6-13.3c0.2,0,0.4,0,0.6,0h64c0.2,0,0.5,0,0.7,0c7.1,0.4,12.6,6.2,12.6,13.3v64
					c0,3.5-1.3,6.6-3.5,9c-0.3,0.3-0.5,0.5-0.8,0.8c-2.4,2.1-5.5,3.4-8.9,3.4c-7.2,0-12.9-5.6-13.3-12.6c0-0.2,0-0.4,0-0.7v-31.8
					l-0.1,0.1L127.1,291.7h0.1H159c0.9,0,1.8,0.1,2.7,0.3c0.4,0.1,0.8,0.2,1.2,0.3c0.4,0.1,0.9,0.3,1.3,0.5c0.6,0.3,1.2,0.5,1.7,0.9
					c0.4,0.2,0.7,0.5,1.1,0.7c0.2,0.1,0.3,0.3,0.5,0.4c0.7,0.5,1.3,1.2,1.8,1.8c0.1,0.2,0.3,0.3,0.4,0.5c0.3,0.3,0.5,0.7,0.7,1.1
					c0.3,0.6,0.6,1.1,0.9,1.7c0.2,0.4,0.3,0.9,0.5,1.3c0.1,0.4,0.2,0.8,0.3,1.2c0.2,0.9,0.3,1.8,0.3,2.7s-0.1,1.8-0.3,2.7
					c-0.1,0.4-0.2,0.8-0.3,1.2c-0.1,0.4-0.3,0.9-0.5,1.3c-0.3,0.6-0.5,1.2-0.9,1.7c-0.2,0.4-0.5,0.7-0.7,1.1
					c-0.1,0.2-0.3,0.3-0.4,0.5c-0.6,0.7-1.2,1.3-1.8,1.8c-0.2,0.1-0.3,0.3-0.5,0.4c-0.3,0.3-0.7,0.5-1.1,0.7
					c-0.6,0.3-1.1,0.6-1.7,0.9c-0.4,0.2-0.9,0.3-1.3,0.5c-0.4,0.1-0.8,0.2-1.2,0.3c-0.9,0.2-1.8,0.3-2.7,0.3H95
					c-0.9,0-1.8-0.1-2.7-0.3c-0.4-0.1-0.8-0.2-1.2-0.3c-0.5-0.1-0.9-0.3-1.3-0.5c-0.6-0.3-1.2-0.5-1.7-0.9c-0.4-0.2-0.7-0.5-1.1-0.7
					c-0.2-0.1-0.3-0.3-0.5-0.4c-0.7-0.5-1.3-1.2-1.8-1.8c-0.1-0.2-0.3-0.3-0.4-0.5c-0.3-0.3-0.5-0.7-0.7-1.1
					c-0.3-0.6-0.6-1.1-0.9-1.7c-0.2-0.4-0.3-0.9-0.5-1.3c-0.1-0.4-0.2-0.8-0.3-1.2c-0.2-0.9-0.3-1.8-0.3-2.7v-64
					c0-0.9,0.1-1.8,0.3-2.7c0.1-0.4,0.2-0.8,0.3-1.2c0.1-0.4,0.3-0.9,0.5-1.3c0.3-0.6,0.5-1.2,0.9-1.7c0.2-0.4,0.4-0.7,0.7-1.1
					c0.1-0.2,0.3-0.3,0.4-0.5c0.5-0.7,1.2-1.3,1.8-1.8c0.2-0.1,0.3-0.3,0.5-0.4c0.3-0.3,0.7-0.5,1.1-0.7c0.5-0.3,1.1-0.6,1.7-0.9
					c0.4-0.2,0.9-0.3,1.3-0.5c0.4-0.1,0.8-0.2,1.2-0.3c0.9-0.2,1.8-0.3,2.7-0.3s1.8,0.1,2.7,0.3c0.4,0.1,0.8,0.2,1.2,0.3
					c0.5,0.1,0.9,0.3,1.3,0.5c0.6,0.3,1.2,0.5,1.7,0.9c0.4,0.2,0.7,0.5,1.1,0.7c0.2,0.1,0.3,0.3,0.5,0.4c0.7,0.6,1.3,1.2,1.8,1.8
					c0.1,0.2,0.3,0.3,0.4,0.5c0.3,0.3,0.5,0.7,0.7,1.1c0.3,0.6,0.6,1.1,0.9,1.7c0.2,0.4,0.3,0.9,0.5,1.3c0.1,0.4,0.2,0.8,0.3,1.2
					C108.2,239.2,108.3,240.1,108.3,241z"/>
				<path class="st1" d="M103.4,230.7c-0.2-0.1-0.3-0.3-0.5-0.4C103.1,230.4,103.3,230.6,103.4,230.7z"/>
				<path class="st1" d="M101.9,229.6c-0.5-0.3-1.1-0.6-1.7-0.9C100.8,229,101.3,229.3,101.9,229.6z"/>
				<path class="st1" d="M98.8,228.3c-0.4-0.1-0.8-0.2-1.2-0.3C98.1,228.1,98.5,228.1,98.8,228.3z"/>
				<path class="st1" d="M91.2,317.7c0.4,0.1,0.8,0.2,1.2,0.3C91.9,318,91.5,317.9,91.2,317.7z"/>
				<path class="st1" d="M88.1,316.4c0.5,0.3,1.1,0.6,1.7,0.9C89.2,317,88.7,316.7,88.1,316.4z"/>
				<path class="st1" d="M86.6,315.3c0.2,0.1,0.3,0.3,0.5,0.4C86.9,315.5,86.7,315.4,86.6,315.3z"/>
				<path class="st1" d="M84.7,232.6c-0.1,0.2-0.3,0.3-0.4,0.5C84.4,232.9,84.6,232.7,84.7,232.6z"/>
				<path class="st1" d="M83.6,234.1c-0.3,0.6-0.6,1.1-0.9,1.7C83,235.2,83.3,234.7,83.6,234.1z"/>
				<path class="st1" d="M82.3,237.1c-0.1,0.4-0.2,0.8-0.3,1.2C82.1,237.9,82.2,237.5,82.3,237.1z"/>
			</g>
			<g>
				<path class="st2" d="M108.3,272.8v0.1l163.6-163.6h-0.1H240c-0.2,0-0.4,0-0.6,0c-6.9-0.3-12.4-5.8-12.7-12.7c0-0.2,0-0.4,0-0.6
					c0-0.2,0-0.5,0-0.7c0.4-6.9,5.9-12.3,12.7-12.6c0.2,0,0.4,0,0.6,0h64c0.2,0,0.5,0,0.7,0c7.1,0.4,12.6,6.2,12.6,13.3v64
					c0,3.5-1.3,6.6-3.5,9c-0.3,0.3-0.5,0.5-0.8,0.8c-2.2,2.1-5.1,3.4-8.4,3.5c-0.2,0-0.4,0-0.7,0c-0.2,0-0.4,0-0.6,0
					c-7.1-0.3-12.7-6.2-12.7-13.3v-31.8L127.1,291.7h0.1H159c0.9,0,1.8,0.1,2.7,0.3c0.4,0.1,0.8,0.2,1.2,0.3
					c0.4,0.1,0.9,0.3,1.3,0.5c0.6,0.3,1.2,0.5,1.7,0.9c0.4,0.2,0.7,0.5,1.1,0.7c0.2,0.1,0.3,0.3,0.5,0.4c0.7,0.5,1.3,1.2,1.8,1.8
					c0.1,0.2,0.3,0.3,0.4,0.5c0.3,0.3,0.5,0.7,0.7,1.1c0.3,0.6,0.6,1.1,0.9,1.7c0.2,0.4,0.3,0.9,0.5,1.3c0.1,0.4,0.2,0.8,0.3,1.2
					c0.2,0.9,0.3,1.8,0.3,2.7s-0.1,1.8-0.3,2.7c-0.1,0.4-0.2,0.8-0.3,1.2c-0.1,0.4-0.3,0.9-0.5,1.3c-0.3,0.6-0.5,1.2-0.9,1.7
					c-0.2,0.4-0.5,0.7-0.7,1.1c-0.1,0.2-0.3,0.3-0.4,0.5c-0.6,0.7-1.2,1.3-1.8,1.8c-0.2,0.1-0.3,0.3-0.5,0.4
					c-0.3,0.3-0.7,0.5-1.1,0.7c-0.6,0.3-1.1,0.6-1.7,0.9c-0.4,0.2-0.9,0.3-1.3,0.5c-0.4,0.1-0.8,0.2-1.2,0.3
					c-0.9,0.2-1.8,0.3-2.7,0.3H95c-0.9,0-1.8-0.1-2.7-0.3c-0.4-0.1-0.8-0.2-1.2-0.3c-0.5-0.1-0.9-0.3-1.3-0.5
					c-0.6-0.3-1.2-0.5-1.7-0.9c-0.4-0.2-0.7-0.5-1.1-0.7c-0.2-0.1-0.3-0.3-0.5-0.4c-0.7-0.5-1.3-1.2-1.8-1.8
					c-0.1-0.2-0.3-0.3-0.4-0.5c-0.3-0.3-0.5-0.7-0.7-1.1c-0.3-0.6-0.6-1.1-0.9-1.7c-0.2-0.4-0.3-0.9-0.5-1.3
					c-0.1-0.4-0.2-0.8-0.3-1.2c-0.2-0.9-0.3-1.8-0.3-2.7v-64c0-0.9,0.1-1.8,0.3-2.7c0.1-0.4,0.2-0.8,0.3-1.2
					c0.1-0.4,0.3-0.9,0.5-1.3c0.3-0.6,0.5-1.2,0.9-1.7c0.2-0.4,0.4-0.7,0.7-1.1c0.1-0.2,0.3-0.3,0.4-0.5c0.5-0.7,1.2-1.3,1.8-1.8
					c0.2-0.1,0.3-0.3,0.5-0.4c0.3-0.3,0.7-0.5,1.1-0.7c0.5-0.3,1.1-0.6,1.7-0.9c0.4-0.2,0.9-0.3,1.3-0.5c0.4-0.1,0.8-0.2,1.2-0.3
					c0.9-0.2,1.8-0.3,2.7-0.3s1.8,0.1,2.7,0.3c0.4,0.1,0.8,0.2,1.2,0.3c0.5,0.1,0.9,0.3,1.3,0.5c0.6,0.3,1.2,0.5,1.7,0.9
					c0.4,0.2,0.7,0.5,1.1,0.7c0.2,0.1,0.3,0.3,0.5,0.4c0.7,0.6,1.3,1.2,1.8,1.8c0.1,0.2,0.3,0.3,0.4,0.5c0.3,0.3,0.5,0.7,0.7,1.1
					c0.3,0.6,0.6,1.1,0.9,1.7c0.2,0.4,0.3,0.9,0.5,1.3c0.1,0.4,0.2,0.8,0.3,1.2c0.2,0.9,0.3,1.8,0.3,2.7V272.8z"/>
				<path class="st2" d="M199.5,4C145.2,4,96.1,26,60.6,61.6C25,97.1,3,146.2,3,200.5s22,103.4,57.6,138.9
					C96.1,375,145.2,397,199.5,397s103.4-22,138.9-57.6C374,303.9,396,254.8,396,200.5S374,97.1,338.4,61.6
					C302.9,26,253.8,4,199.5,4z"/>
				<path class="st2" d="M369.3,204.9c0-1.5,0.1-2.9,0.1-4.4c0-46.9-19.1-89.4-49.8-120.1c-28.8-28.8-68-47.3-111.5-49.5
					c-2.9-0.1-5.7-0.2-8.6-0.2c-2.9,0-5.9,0.1-8.7,0.2c-43.4,2.2-82.6,20.7-111.4,49.5c-30.7,30.7-49.7,73.2-49.7,120.1
					s19,89.4,49.7,120.1c26.4,26.4,61.5,44.2,100.6,48.7c0.7,0.1,1.4,0.2,2.1,0.2c1.4,0.1,2.9,0.3,4.3,0.4c1.4,0.1,2.9,0.2,4.3,0.3
					c0.3,0,0.6,0,0.9,0c0.9,0,1.8,0.1,2.8,0.1c1.7,0,3.4,0.1,5.1,0.1c1.7,0,3.3,0,5-0.1c0.5,0,1.1,0,1.6,0c0.7,0,1.4-0.1,2.1-0.1
					c0.4,0,0.9,0,1.3-0.1c1.1-0.1,2.1-0.1,3.1-0.2c0.7,0,1.5-0.1,2.2-0.2c1.4-0.1,2.8-0.3,4.2-0.4c39.1-4.5,74.2-22.2,100.5-48.6
					c0,0,0,0,0.1,0c26.4-26.4,44.2-61.5,48.7-100.6c0.1-0.7,0.2-1.4,0.2-2.1c0.1-1.4,0.3-2.9,0.4-4.3c0.1-1.4,0.2-2.9,0.3-4.3
					C369.3,207.8,369.3,206.3,369.3,204.9z"/>
			</g>
		</g>
	</g>
</g>
</svg>
