<?xml version="1.0" encoding="utf-8"?>
<!-- Generator: Adobe Illustrator 23.0.1, SVG Export Plug-In . SVG Version: 6.00 Build 0)  -->
<svg version="1.1" id="Capa_1" xmlns="http://www.w3.org/2000/svg" xmlns:xlink="http://www.w3.org/1999/xlink" x="0px" y="0px"
	 viewBox="0 0 48.3 45" style="enable-background:new 0 0 48.3 45;" xml:space="preserve">
<style type="text/css">
	.st0{fill:#0A8C2B;stroke:#000000;stroke-width:0.25;stroke-miterlimit:10;}
</style>
<g>
	<g id="Layer_1_65_">
		<g>
			<path class="st0" d="M47.6,19.1c-0.2-0.3-0.5-0.6-0.9-0.6h-2.9C41.9,8.4,33.1,0.8,22.4,0.8c-12,0-21.7,9.7-21.7,21.7
				s9.7,21.7,21.7,21.7c7.7,0,14.9-4.2,18.8-10.9c0.5-0.9,0.2-2.2-0.7-2.7c-0.9-0.5-2.2-0.2-2.7,0.7c-3.2,5.5-9.1,8.9-15.4,8.9
				c-9.8,0-17.8-8-17.8-17.8c0-9.8,8-17.8,17.8-17.8c8.4,0,15.5,5.9,17.3,13.8h-2.9c-0.4,0-0.7,0.2-0.9,0.6
				c-0.2,0.3-0.1,0.8,0.1,1.1l4.9,5.9c0.2,0.2,0.5,0.4,0.8,0.4c0.3,0,0.6-0.1,0.8-0.4l4.9-5.9C47.7,19.9,47.8,19.5,47.6,19.1z"/>
			<path d="M22.4,5.7c-1.1,0-2,0.9-2,2v12c-0.9,0.6-1.5,1.7-1.5,2.8c0,1.9,1.6,3.5,3.5,3.5c0.5,0,1-0.1,1.5-0.3l6.9,4
				c0.3,0.2,0.6,0.3,1,0.3c0.7,0,1.3-0.4,1.7-1c0.5-0.9,0.2-2.2-0.7-2.7l-6.9-4c-0.1-1-0.6-2-1.4-2.5v-12
				C24.4,6.6,23.5,5.7,22.4,5.7z M22.4,24c-0.8,0-1.5-0.7-1.5-1.5c0-0.8,0.7-1.5,1.5-1.5s1.5,0.7,1.5,1.5C23.9,23.3,23.2,24,22.4,24
				z"/>
		</g>
	</g>
</g>
</svg>
