<?xml version="1.0" encoding="utf-8"?>
<!-- Generator: Adobe Illustrator 23.0.1, SVG Export Plug-In . SVG Version: 6.00 Build 0)  -->
<svg version="1.1" id="Capa_1" xmlns="http://www.w3.org/2000/svg" xmlns:xlink="http://www.w3.org/1999/xlink" x="0px" y="0px"
	 viewBox="0 0 195 283" style="enable-background:new 0 0 195 283;" xml:space="preserve">
<style type="text/css">
	.st0{fill:#46C1C3;}
</style>
<g>
	<path class="st0" d="M106.3,274.2l80-80c4.9-4.9,4.9-12.8,0-17.7c-4.9-4.9-12.8-4.9-17.7,0l-58.7,58.7V21.5
		c0-6.9-5.6-12.5-12.5-12.5c-6.9,0-12.5,5.6-12.5,12.5v213.7l-58.7-58.7c-4.9-4.9-12.8-4.9-17.7,0c-2.4,2.4-3.7,5.6-3.7,8.8
		s1.2,6.4,3.7,8.8l80,80C93.5,279.1,101.4,279.1,106.3,274.2z"/>
</g>
</svg>
