<svg xmlns="http://www.w3.org/2000/svg" width="40" height="40" viewBox="0 0 40 40">
  <g id="Group_264" data-name="Group 264" transform="translate(-86 -515)">
    <path id="Path_276" data-name="Path 276" d="M20,0A20,20,0,1,1,0,20,20,20,0,0,1,20,0Z" transform="translate(86 515)" fill="#1e88e5"/>
    <path id="Icon_feather-phone-call" data-name="Icon feather-phone-call" d="M15.272,5.242a4.678,4.678,0,0,1,3.7,3.7M15.272,1.5A8.42,8.42,0,0,1,22.71,8.928m-.936,7.466V19.2a1.871,1.871,0,0,1-2.04,1.871A18.515,18.515,0,0,1,11.661,18.2a18.244,18.244,0,0,1-5.613-5.613A18.515,18.515,0,0,1,3.175,4.475a1.871,1.871,0,0,1,1.862-2.04H7.844A1.871,1.871,0,0,1,9.715,4.045a12.013,12.013,0,0,0,.655,2.629,1.871,1.871,0,0,1-.421,1.974L8.761,9.836a14.969,14.969,0,0,0,5.613,5.613l1.188-1.188a1.871,1.871,0,0,1,1.974-.421,12.013,12.013,0,0,0,2.629.655A1.871,1.871,0,0,1,21.774,16.394Z" transform="translate(92.832 523.5)" fill="#f6f6f6"/>
  </g>
</svg>
