<?xml version="1.0" encoding="utf-8"?>
<!-- Generator: Adobe Illustrator 23.0.1, SVG Export Plug-In . SVG Version: 6.00 Build 0)  -->
<svg version="1.1" id="Capa_1" xmlns="http://www.w3.org/2000/svg" xmlns:xlink="http://www.w3.org/1999/xlink" x="0px" y="0px"
	 viewBox="0 0 525 456" style="enable-background:new 0 0 525 456;" xml:space="preserve">
<style type="text/css">
	.st0{fill:#231F20;}
	.st1{fill:none;stroke:#46C1C3;stroke-width:10;stroke-miterlimit:10;}
</style>
<g>
	<g>
		<g>
			<path d="M515.9,130.5C515.9,63.7,461.8,9.6,395,9.6c-66.8,0-120.9,54.1-120.9,120.9S328.2,251.4,395,251.4
				c13.7,0,26.9-2.4,39.2-6.6C407,400.9,285.2,501.6,398.1,418.7c125.1-91.9,118-284.5,117.9-288.1
				C515.9,130.6,515.9,130.6,515.9,130.5z"/>
			<path d="M249.9,130.5c0-66.8-54.1-120.9-120.9-120.9S8,63.7,8,130.5s54.1,120.9,120.9,120.9c13.7,0,26.9-2.4,39.2-6.6
				C140.9,400.9,19.2,501.6,132,418.7c125.1-91.9,118-284.5,117.9-288.1C249.9,130.6,249.9,130.6,249.9,130.5z"/>
		</g>
	</g>
	<g>
		<g>
			<path class="st0" d="M515.9,130.5C515.9,63.7,461.8,9.6,395,9.6c-66.8,0-120.9,54.1-120.9,120.9S328.2,251.4,395,251.4
				c13.7,0,26.9-2.4,39.2-6.6C407,400.9,285.2,501.6,398.1,418.7c125.1-91.9,118-284.5,117.9-288.1
				C515.9,130.6,515.9,130.6,515.9,130.5z"/>
			<path class="st0" d="M249.9,130.5c0-66.8-54.1-120.9-120.9-120.9S8,63.7,8,130.5s54.1,120.9,120.9,120.9
				c13.7,0,26.9-2.4,39.2-6.6C140.9,400.9,19.2,501.6,132,418.7c125.1-91.9,118-284.5,117.9-288.1
				C249.9,130.6,249.9,130.6,249.9,130.5z"/>
		</g>
	</g>
	<g>
		<g>
			<path class="st1" d="M515.9,130.5C515.9,63.7,461.8,9.6,395,9.6c-66.8,0-120.9,54.1-120.9,120.9S328.2,251.4,395,251.4
				c13.7,0,26.9-2.4,39.2-6.6C407,400.9,285.2,501.6,398.1,418.7c125.1-91.9,118-284.5,117.9-288.1
				C515.9,130.6,515.9,130.6,515.9,130.5z"/>
			<path class="st1" d="M249.9,130.5c0-66.8-54.1-120.9-120.9-120.9S8,63.7,8,130.5s54.1,120.9,120.9,120.9
				c13.7,0,26.9-2.4,39.2-6.6C140.9,400.9,19.2,501.6,132,418.7c125.1-91.9,118-284.5,117.9-288.1
				C249.9,130.6,249.9,130.6,249.9,130.5z"/>
		</g>
	</g>
</g>
</svg>
