<?xml version="1.0" encoding="utf-8"?>
<!-- Generator: Adobe Illustrator 23.0.1, SVG Export Plug-In . SVG Version: 6.00 Build 0)  -->
<svg version="1.1" id="Layer_1" xmlns="http://www.w3.org/2000/svg" xmlns:xlink="http://www.w3.org/1999/xlink" x="0px" y="0px"
	 viewBox="0 0 101.4 101.4" style="enable-background:new 0 0 101.4 101.4;" xml:space="preserve">
<style type="text/css">
	.st0{fill-rule:evenodd;clip-rule:evenodd;fill:#364043;stroke:#364043;stroke-width:1.6;stroke-miterlimit:22.9256;}
	.st1{fill-rule:evenodd;clip-rule:evenodd;fill:none;stroke:#FFFFFF;stroke-width:1.6;stroke-miterlimit:22.9256;}
</style>
<circle class="st0" cx="49" cy="51" r="44.3"/>
<path class="st1" d="M56.8,61.5V44.2L86,40v23.6l-26.1,0.6 M77.2,63.8v3.7h9.4 M86.6,71.6H46.9 M61.5,67.6h2.2v-3.5 M31.1,38.2
	l16.3,1.9 M65.4,50.7c1.2-0.6,2.5,0.3,2.8,1.9c0.3,1.6-0.4,3.3-1.6,3.9c-1.2,0.5-2.5-0.4-2.8-1.9C63.5,53,64.2,51.3,65.4,50.7
	L65.4,50.7z M65.8,47.2c0.6-0.1,1.2-0.1,1.7,0.1c0.2-0.5,0.5-0.9,0.7-1.4c0.6,0.4,1.1,0.7,1.7,1.1c-0.2,0.5-0.4,1-0.6,1.5
	c0.4,0.5,0.8,1.1,1.1,1.7c0.4-0.1,0.8-0.3,1.3-0.4c0.2,0.8,0.4,1.7,0.5,2.5c-0.4,0.2-0.8,0.4-1.2,0.6c0,0.8-0.1,1.6-0.2,2.3
	c0.4,0.3,0.7,0.6,1.1,0.9c-0.3,0.8-0.7,1.6-1,2.3c-0.4-0.2-0.8-0.4-1.1-0.7c-0.4,0.6-0.9,1.1-1.4,1.5c0.1,0.5,0.2,1.1,0.2,1.6
	c-0.6,0.2-1.3,0.5-1.9,0.7c-0.1-0.5-0.3-1-0.4-1.5c-0.6,0.1-1.2,0-1.7-0.2c-0.2,0.4-0.4,0.9-0.7,1.3c-0.5-0.4-1.1-0.8-1.6-1.2
	c0.2-0.5,0.3-0.9,0.5-1.4c-0.4-0.5-0.7-1-1-1.7c-0.4,0.1-0.7,0.2-1.1,0.4c-0.2-0.8-0.3-1.6-0.5-2.3c0.4-0.2,0.7-0.4,1.1-0.6
	c0-0.8,0-1.5,0.2-2.2c-0.3-0.3-0.6-0.5-0.9-0.8c0.3-0.7,0.6-1.5,0.9-2.2c0.3,0.2,0.7,0.4,1,0.6c0.4-0.6,0.8-1.1,1.3-1.5
	c-0.1-0.5-0.1-1-0.2-1.5c0.6-0.3,1.2-0.6,1.8-0.9C65.5,46.2,65.6,46.7,65.8,47.2L65.8,47.2z M75.6,47.1c2-0.2,4-0.5,6.1-0.7
	 M75.6,49.9c2-0.2,4-0.4,6.1-0.6 M75.6,52.8c2-0.2,4-0.3,6.1-0.5 M75.6,55.7c2-0.1,4-0.3,6.1-0.4 M75.6,58.6c1,0,2-0.1,3-0.1
	 M14.8,74l5-21.5c1.9-5.9,6.9-7.8,11.8-6.3c2.5,0.8,4.9,2.4,6.2,4.7l6.7,10.7l6.8,1.5l5.3-0.3l3.2,3.4c0.3,0.3,0.4,0.9,0.2,1.4
	c-0.2,0.4-1.7,1.6-2.3,2c-0.1,0.1-0.4,0.1-0.7,0.1l-5.1-0.1L39.9,69c-0.5-0.2-0.9-0.5-1.3-0.8l-4.3-6.7L31.7,74 M49.9,40.4
	c1,0.1,1.1-2.2,0.3-2.6l-1-0.5c-0.3-0.1-0.4-0.4-0.4-0.7c0-0.5,0-0.5-0.1-0.9c-1.3-10.8-17.1-11.2-18.4-0.6c-0.1,0.2-0.6,0-0.6,0.5
	l-0.2,2c0,0.2,0.1,0.4,0.4,0.5l1.3,0.2c0,1.7,0.1,3.4,0.4,4.4c1,3.2,4.2,5.6,7.5,5.9c5.5-0.1,7.3-3.7,8.5-8.4L49.9,40.4L49.9,40.4z
	 M43.7,36.7c-1-7.8-12.5-8.3-13.4-0.8"/>
</svg>
