<?xml version="1.0" encoding="utf-8"?>
<!-- Generator: Adobe Illustrator 23.0.1, SVG Export Plug-In . SVG Version: 6.00 Build 0)  -->
<svg version="1.1" id="Layer_1" xmlns="http://www.w3.org/2000/svg" xmlns:xlink="http://www.w3.org/1999/xlink" x="0px" y="0px"
	 viewBox="0 0 244 244" style="enable-background:new 0 0 244 244;" xml:space="preserve">
<style type="text/css">
	.st0{enable-background:new    ;}
	.st1{fill:url(#SVGID_2_);}
	.st2{fill:#FFFFFF;}
</style>
<g class="st0">
	<g>
		<g>
			
				<linearGradient id="SVGID_2_" gradientUnits="userSpaceOnUse" x1="122.0047" y1="242.839" x2="122.0047" y2="-1.1254" gradientTransform="matrix(1 0 0 -1 -2.250000e-02 242.839)">
				<stop  offset="0" style="stop-color:#61FD7D"/>
				<stop  offset="1" style="stop-color:#2BB826"/>
			</linearGradient>
			<path id="SVGID_1_" class="st1" d="M243.9,182.1c0,1.3,0,4.2-0.1,6.5c-0.2,5.5-0.6,12.5-1.3,15.8c-1,4.8-2.5,9.4-4.4,13.2
				c-2.3,4.5-5.2,8.5-8.7,12c-3.5,3.5-7.5,6.4-12,8.7c-3.8,1.9-8.4,3.4-13.3,4.4c-3.2,0.6-10.2,1.1-15.6,1.3
				c-2.2,0.1-5.1,0.1-6.5,0.1l-120.1,0c-1.3,0-4.2,0-6.5-0.1c-5.5-0.2-12.5-0.6-15.8-1.3c-4.8-1-9.4-2.5-13.2-4.4
				c-4.5-2.3-8.5-5.2-12-8.7c-3.5-3.5-6.4-7.5-8.7-12c-1.9-3.8-3.4-8.4-4.4-13.3c-0.6-3.2-1.1-10.2-1.3-15.6C0,186.3,0,183.4,0,182
				L0,61.9c0-1.3,0-4.2,0.1-6.5C0.3,50,0.8,42.9,1.4,39.7c1-4.8,2.5-9.4,4.4-13.2c2.3-4.5,5.2-8.5,8.7-12c3.5-3.5,7.5-6.4,12-8.7
				c3.8-1.9,8.4-3.4,13.3-4.4C43,0.7,50,0.3,55.5,0.1C57.7,0,60.6,0,61.9,0l120.1,0c1.3,0,4.2,0,6.5,0.1c5.5,0.2,12.5,0.6,15.8,1.3
				c4.8,1,9.4,2.5,13.2,4.4c4.5,2.3,8.5,5.2,12,8.7c3.5,3.5,6.4,7.5,8.7,12c1.9,3.8,3.4,8.4,4.4,13.3c0.6,3.2,1.1,10.2,1.3,15.6
				c0.1,2.2,0.1,5.1,0.1,6.5L243.9,182.1z"/>
		</g>
	</g>
</g>
<g id="logo">
	<g>
		<g>
			<path class="st2" d="M186.6,57.7c-16.5-16.5-38.5-25.6-61.9-25.6c-48.2,0-87.5,39.2-87.5,87.5c0,15.4,4,30.5,11.7,43.7
				l-12.4,45.3l46.4-12.2c12.8,7,27.2,10.6,41.8,10.6h0c0,0,0,0,0,0c48.2,0,87.5-39.2,87.5-87.5C212.2,96.2,203.1,74.2,186.6,57.7z
				 M124.7,192.3L124.7,192.3c-13.1,0-25.9-3.5-37-10.1l-2.7-1.6l-27.5,7.2l7.3-26.8l-1.7-2.8c-7.3-11.6-11.1-25-11.1-38.7
				c0-40.1,32.6-72.7,72.7-72.7c19.4,0,37.7,7.6,51.4,21.3c13.7,13.7,21.3,32,21.3,51.4C197.4,159.7,164.8,192.3,124.7,192.3z
				 M164.6,137.8c-2.2-1.1-12.9-6.4-14.9-7.1c-2-0.7-3.5-1.1-4.9,1.1c-1.5,2.2-5.6,7.1-6.9,8.6c-1.3,1.5-2.5,1.6-4.7,0.5
				c-2.2-1.1-9.2-3.4-17.6-10.8c-6.5-5.8-10.9-13-12.2-15.1c-1.3-2.2-0.1-3.4,1-4.5c1-1,2.2-2.6,3.3-3.8c1.1-1.3,1.5-2.2,2.2-3.6
				c0.7-1.5,0.4-2.7-0.2-3.8c-0.5-1.1-4.9-11.9-6.7-16.2c-1.8-4.3-3.6-3.7-4.9-3.8c-1.3-0.1-2.7-0.1-4.2-0.1c-1.5,0-3.8,0.5-5.8,2.7
				c-2,2.2-7.7,7.5-7.7,18.2c0,10.8,7.8,21.1,8.9,22.6c1.1,1.5,15.4,23.5,37.3,33c5.2,2.3,9.3,3.6,12.5,4.6c5.2,1.7,10,1.4,13.8,0.9
				c4.2-0.6,12.9-5.3,14.8-10.4c1.8-5.1,1.8-9.5,1.3-10.4C168.3,139.5,166.8,138.9,164.6,137.8z"/>
		</g>
	</g>
</g>
</svg>
