<?xml version="1.0" encoding="utf-8"?>
<!-- Generator: Adobe Illustrator 23.0.1, SVG Export Plug-In . SVG Version: 6.00 Build 0)  -->
<svg version="1.1" id="Capa_1" xmlns="http://www.w3.org/2000/svg" xmlns:xlink="http://www.w3.org/1999/xlink" x="0px" y="0px"
	 viewBox="0 0 90.7 90.7" style="enable-background:new 0 0 90.7 90.7;" xml:space="preserve">
<style type="text/css">
	.st0{fill:#46C1C3;}
	.st1{fill:#E4E8EB;}
</style>
<g>
	<g id="XMLID_1_">
		<g>
			<path class="st0" d="M77.9,71v0.7c0,1.5-0.1,2.5-0.1,3c-0.2,1-0.5,2-1.1,2.8c-1.3,1.9-3.2,2.8-5.6,2.8c-2.4,0-4.3-0.9-5.6-2.6
				c-1-1.3-1.5-3.3-1.5-6v-8.9c0-2.7,0.4-4.7,1.4-6c1.3-1.8,3.2-2.6,5.5-2.6c2.3,0,4.2,0.9,5.5,2.6c1,1.3,1.4,3.3,1.4,6v5.3h-9.3
				v4.5c0,2.4,0.8,3.5,2.4,3.5c1.1,0,1.8-0.6,2.1-1.9c0-0.3,0.1-1.3,0.1-3.1H77.9z"/>
			<path class="st0" d="M60.5,62v10.2c0,2.4-0.2,4.1-0.5,5.1c-0.6,1.9-1.8,2.9-3.7,2.9c-1.7,0-3.2-0.9-4.8-2.8v2.5h-4.6V45.6h4.6
				v11.2c1.5-1.8,3.1-2.8,4.8-2.8c1.8,0,3.1,1,3.7,2.9C60.3,57.9,60.5,59.6,60.5,62z"/>
			<path class="st0" d="M35.3,76c0.9,0,1.9-0.7,2.9-2.2V54.3h4.6v25.5h-4.6v-2.8c-1.8,2.1-3.6,3.1-5.3,3.1c-1.5,0-2.5-0.6-3-1.9
				c-0.3-0.8-0.4-2-0.4-3.8V54.3h4.6v18.8c0,1.1,0,1.6,0,1.8C34.3,75.6,34.7,76,35.3,76z"/>
			<polygon class="st0" points="28.9,45.6 28.9,50.4 23.4,50.4 23.4,79.8 18.2,79.8 18.2,50.4 12.8,50.4 12.8,45.6 			"/>
			<path class="st1" d="M82.3,45.9c1.3,5.8,1.3,12.1,1.3,18.1s0,12.3-1.3,18.1c-0.9,4.1-4.3,7.1-8.3,7.5c-9.5,1.1-19.1,1.1-28.7,1.1
				c-9.6,0-19.2,0-28.7-1.1c-4-0.5-7.3-3.5-8.3-7.5C7.1,76.3,7.1,70,7.1,64s0-12.3,1.3-18.1c0.9-4.1,4.3-7.1,8.3-7.5
				c9.5-1.1,19.1-1.1,28.7-1.1c9.6,0,19.2,0,28.7,1.1C78,38.8,81.3,41.8,82.3,45.9z M77.9,71.7V71h-4.7c0,1.8-0.1,2.9-0.1,3.1
				C72.8,75.4,72.2,76,71,76c-1.6,0-2.4-1.2-2.4-3.5v-4.5h9.3v-5.3c0-2.7-0.5-4.7-1.4-6C75.2,54.9,73.3,54,71,54
				c-2.4,0-4.2,0.9-5.5,2.6c-1,1.3-1.4,3.3-1.4,6v8.9c0,2.7,0.5,4.7,1.5,6c1.3,1.7,3.2,2.6,5.6,2.6c2.4,0,4.3-0.9,5.6-2.8
				c0.6-0.8,0.9-1.7,1.1-2.8C77.8,74.2,77.9,73.2,77.9,71.7z M60.5,72.2V62c0-2.4-0.2-4.1-0.5-5.1C59.4,55,58.1,54,56.3,54
				c-1.7,0-3.3,0.9-4.8,2.8V45.6h-4.6v34.3h4.6v-2.5c1.5,1.9,3.1,2.8,4.8,2.8c1.8,0,3.1-1,3.7-2.9C60.3,76.2,60.5,74.5,60.5,72.2z
				 M42.9,79.8V54.3h-4.6v19.5c-1,1.4-2,2.2-2.9,2.2c-0.6,0-1-0.4-1.1-1.1c0-0.2,0-0.7,0-1.8V54.3h-4.6v20.2c0,1.8,0.2,3,0.4,3.8
				c0.5,1.3,1.5,1.9,3,1.9c1.7,0,3.5-1,5.3-3.1v2.8H42.9z M28.9,50.4v-4.8H12.8v4.8h5.4v29.4h5.2V50.4H28.9z"/>
		</g>
		<g>
		</g>
	</g>
	<path class="st1" d="M71,58.2c-1.5,0-2.3,1.2-2.3,3.5v2.4h4.6v-2.4C73.3,59.3,72.5,58.2,71,58.2z"/>
	<path class="st1" d="M53.8,58.2c-0.8,0-1.5,0.4-2.3,1.1v15.6c0.8,0.8,1.5,1.1,2.3,1.1c1.3,0,2-1.1,2-3.4V61.6
		C55.8,59.3,55.1,58.2,53.8,58.2z"/>
	<path class="st1" d="M56.4,35c1.7,0,3.5-1,5.3-3.2v2.8h4.7V8.8h-4.7v19.7c-1,1.5-2,2.2-3,2.2c-0.6,0-1-0.4-1.1-1.1
		c-0.1-0.2-0.1-0.7-0.1-1.8v-19H53v20.4c0,1.8,0.2,3.1,0.4,3.8C53.9,34.4,54.9,35,56.4,35z"/>
	<path class="st1" d="M23.9,20.6v14H29v-14L35.3,0H30l-3.5,13.6L22.8,0h-5.5c1.1,3.2,2.2,6.4,3.3,9.6C22.3,14.5,23.4,18.1,23.9,20.6
		z"/>
	<g id="XMLID_2_">
		<g>
			<path class="st0" d="M44.5,16.3v10.9c0,2.4-0.7,3.6-2.2,3.6c-1.5,0-2.2-1.2-2.2-3.6V16.3c0-2.4,0.7-3.6,2.2-3.6
				C43.7,12.7,44.5,13.9,44.5,16.3z"/>
			<path class="st1" d="M49.1,17.2v9c0,2.7-0.5,4.8-1.5,6.1c-1.3,1.8-3.1,2.6-5.4,2.6c-2.3,0-4.2-0.9-5.4-2.6
				c-1-1.3-1.5-3.3-1.5-6.1v-9c0-2.8,0.5-4.8,1.5-6.1c1.3-1.8,3.1-2.6,5.4-2.6c2.3,0,4.2,0.9,5.4,2.6C48.7,12.5,49.1,14.5,49.1,17.2
				z M44.5,27.1V16.3c0-2.4-0.7-3.6-2.2-3.6c-1.5,0-2.2,1.2-2.2,3.6v10.9c0,2.4,0.7,3.6,2.2,3.6C43.7,30.7,44.5,29.5,44.5,27.1z"/>
		</g>
		<g>
		</g>
	</g>
</g>
</svg>
