<?xml version="1.0" encoding="utf-8"?>
<!-- Generator: Adobe Illustrator 23.0.1, SVG Export Plug-In . SVG Version: 6.00 Build 0)  -->
<svg version="1.1" id="Layer_1" xmlns="http://www.w3.org/2000/svg" xmlns:xlink="http://www.w3.org/1999/xlink" x="0px" y="0px"
	 viewBox="0 0 794.8 795" style="enable-background:new 0 0 794.8 795;" xml:space="preserve">
<style type="text/css">
	.st0{fill:#4CAF50;}
	.st1{fill-rule:evenodd;clip-rule:evenodd;fill:#FCFCFC;}
	.st2{fill-rule:evenodd;clip-rule:evenodd;fill:#FDFDFD;}
</style>
<g>
	<path class="st0" d="M794.8,397.5c0,219.5-178,397.5-397.4,397.5C177.9,795,0,616.9,0,397.5S177.9,0,397.4,0
		C616.9,0,794.8,178,794.8,397.5z"/>
	<g>
		<path class="st1" d="M627.4,342.1C601.5,234.6,509,161.3,397.2,160c-14.7,0.2-30.1,1.4-45.4,4.6
			c-155.9,31.6-236.7,204.5-160.7,344.1c2,3.7,2.1,6.8,1,10.6c-10.1,36.8-20.1,73.6-30.2,110.3c-1.6,6-1.6,6,4.4,4.5
			c38.2-10,76.3-19.9,114.4-30c3.2-0.8,5.6-0.5,8.5,1c49.1,25.1,100.8,32.5,155,22C573.7,601.8,658.3,470.2,627.4,342.1z
			 M430.2,589.2c-10.6,1.8-21.4,2.8-27,2.7c-41.5-0.1-75.3-9.4-106.4-28.2c-4-2.4-7.4-3-12.1-1.8c-20.9,5.8-42,11-62.9,16.5
			c-4.4,1.3-4.8,0.4-3.7-3.6c5.5-19.9,10.8-39.7,16.5-59.4c1.6-5.5,1-9.8-2.1-14.7c-43-69.1-41.2-155.3,6.9-219.2
			c50-66.6,118-93.9,199.3-76.5c80.2,16.9,131.3,68.6,150.1,148.4C614.5,462.4,540.5,570.8,430.2,589.2z"/>
		<path class="st2" d="M459,508.9c-8.4,0.4-16.4-1.6-24.5-3.7c-54.1-15.6-94.8-49.5-127.4-94.1c-12.3-16.8-23.8-34.1-27.6-55
			c-4.6-25.1,2.7-46.3,21.3-63.7c5.9-5.4,24-7.8,31.3-4.3c2.7,1.3,4.4,3.7,5.5,6.3c6.8,16.3,13.6,32.3,20.3,48.6
			c1.3,3.1,0.7,6.2-0.7,9.3c-3.4,7.5-9,13.5-14.6,19.4c-4.2,4.3-4.4,8.3-1.3,13.5c19.1,31.9,45.6,55,80.2,68.9c5.2,2.1,9,1.3,12.5-3
			c5.8-7.1,11.9-14.2,17.3-21.6c3.7-5.2,8-5.9,13.3-3.5c11.4,5.2,22.9,10.6,34.3,16c2.6,1.1,5.1,2.4,7.6,3.6
			c11.6,5.8,11.5,5.9,10.5,18.7c-1.9,25-20.7,37.3-42.9,43.4C469.3,509.1,464.1,509.2,459,508.9z"/>
	</g>
</g>
</svg>
