<?xml version="1.0" encoding="utf-8"?>
<!-- Generator: Adobe Illustrator 23.0.1, SVG Export Plug-In . SVG Version: 6.00 Build 0)  -->
<svg version="1.1" id="Layer_1" xmlns="http://www.w3.org/2000/svg" xmlns:xlink="http://www.w3.org/1999/xlink" x="0px" y="0px"
	 viewBox="0 0 64 64" style="enable-background:new 0 0 64 64;" xml:space="preserve">
<style type="text/css">
	.st0{fill:#364043;}
	.st1{fill:#46C1C3;}
</style>
<g>
	<circle class="st0" cx="32" cy="32" r="32"/>
</g>
<g>
	<path class="st1" d="M30.2,31.8c0.9,0.6,2.6,0.6,3.5,0c0,0,0,0,0,0l16-10.7c-0.5-1.5-2-2.6-3.7-2.6H17.9c-1.7,0-3.1,1.1-3.7,2.6
		L30.2,31.8C30.2,31.8,30.2,31.8,30.2,31.8z"/>
	<path class="st1" d="M34.9,33.6C34.9,33.6,34.9,33.6,34.9,33.6c-0.8,0.5-1.9,0.8-2.9,0.8c-1.1,0-2.1-0.3-2.9-0.8c0,0,0,0,0,0
		L14,23.5v18.1c0,2.1,1.7,3.9,3.9,3.9h28.2c2.1,0,3.9-1.7,3.9-3.9V23.5L34.9,33.6z"/>
</g>
</svg>
