<?xml version="1.0" encoding="utf-8"?>
<!-- Generator: Adobe Illustrator 23.0.1, SVG Export Plug-In . SVG Version: 6.00 Build 0)  -->
<svg version="1.1" id="Layer_1" xmlns="http://www.w3.org/2000/svg" xmlns:xlink="http://www.w3.org/1999/xlink" x="0px" y="0px"
	 viewBox="0 0 64 64" style="enable-background:new 0 0 64 64;" xml:space="preserve">
<style type="text/css">
	.st0{fill:#364043;}
	.st1{fill:#46C1C3;}
</style>
<g>
	<circle class="st0" cx="32" cy="32" r="32"/>
</g>
<g>
	<g>
		<path class="st1" d="M43.8,36.4c-1.7,0-3.4-0.3-5-0.8c-0.8-0.3-1.7,0-2.2,0.5l-3.1,2.4c-3.7-1.9-5.9-4.2-7.8-7.8l2.3-3.1
			c0.6-0.6,0.8-1.5,0.6-2.3c-0.5-1.6-0.8-3.3-0.8-5c0-1.2-1-2.2-2.2-2.2h-5.1C19,18,18,19,18,20.2C18,34.4,29.6,46,43.8,46
			c1.2,0,2.2-1,2.2-2.2v-5.1C46,37.4,45,36.4,43.8,36.4z"/>
	</g>
</g>
</svg>
